<svg height="26" viewBox="0 0 17 26" width="17" xmlns="http://www.w3.org/2000/svg"><path d="m47.8780488 281.337687s.0304878-.031076.0304878-.031076.0304878-.031075.0304878-.031075 0-.031076.0304878-.031076c0 0 0-.031075.0304878-.031075v-.031076-.031075-.031075c0-.031076 0-.031076 0-.062151v-.031076c0-.031075 0-.031075 0-.062151l-6.0365854-18.08593c.7012195-.466133 1.1585366-1.305171 1.1585366-2.20636 0-1.460547-1.1890244-2.672491-2.6219512-2.672491s-2.6219512 1.211944-2.6219512 2.672491c0 .932265.4878049 1.771303 1.1890244 2.237435l-2.1036586 6.277247c-.0609756.062151-.0914634.155378-.0914634.248604l-2.0121951 5.997568c-.0609756.062151-.0914634.155378-.0914634.27968l-1.7682927 5.251756v.062151.031076.062151.031075.031075.031076s0 .031075.0304878.031075c0 0 0 .031076.0304878.031076 0 0 .0304878.031075.0304878.031075s0 .031076.0304878.031076c0 0 .0304878.031075.0304878.031075s.0304878.031076.0304878.031076.0304878.031075.0304878.031075.0304878.031076.0304878.031076c.0914635.062151 2.2865854 1.180868 7.2865854 1.180868s7.195122-1.118717 7.2865854-1.180868.0304878-.031076.0304878-.031076.0304878-.031075.0304878-.031075.0304878-.031076.0304878-.031076c-.0609756 0-.0609756 0-.0304878-.031075zm-10.2134147-11.560079c.7012196-.217529 2.8353659-.96334 4.9695122-1.92668l1.3109757 3.91551c-3.75 1.988831-6.6768293 2.921096-8.0487805 3.262926zm-2.1341463 6.277247c.9756098-.217528 4.2378049-1.056566 8.6890244-3.418303l1.1890244 3.604756c-5.3048781 3.604756-10.2743903 4.226265-11.402439 4.319492zm4.9085366-17.184742c.9451219 0 1.7073171.776888 1.7073171 1.740227 0 .683661-.3658537 1.24302-.9146342 1.553775 0 0 0 0-.0304878 0s-.0609756.031075-.1219512.062151c-.2134146.093226-.4268293.124301-.6707317.124301-.1829268 0-.3658537-.031075-.5487805-.093226-.0304878-.031075-.0914634-.093226-.152439-.093226-.0304878 0-.0914634-.031076-.1219512-.031076-.5182927-.310755-.8841464-.870113-.8841464-1.522699.0304878-.963339.7926829-1.740227 1.7378049-1.740227zm0 4.412719c.2134146 0 .4268293-.031076.6402439-.093227l1.25 3.760134c-1.6463415.776887-3.3231707 1.367321-4.2987805 1.709151l1.8292683-5.438209c.1829268.031075.3658537.062151.5792683.062151zm-4.7865854 17.992704c2.1646342-.372906 5.9756098-1.398397 10.0609756-4.133039l1.2195122 3.635831c-.7621951.27968-2.8353658.901189-6.4939024.901189-2.1036585.031076-3.6585366-.186453-4.7865854-.403981z" fill="#333" stroke="#333" stroke-width=".5" transform="translate(-32 -257)"/></svg>