<svg xmlns="http://www.w3.org/2000/svg" xmlns:xlink="http://www.w3.org/1999/xlink" width="13" height="9" viewBox="0 0 13 9"><defs><path id="y8bqa" d="M1476.822 214.456c.201-.01.4-.092.553-.246l4.727-4.727a.853.853 0 0 0-.002-1.205l-.03-.029a.856.856 0 0 0-1.204-.002l-4.209 4.208-4.174-4.174a.853.853 0 0 0-1.205.002l-.029.03a.856.856 0 0 0-.002 1.204l4.727 4.727a.85.85 0 0 0 .848.212z"/></defs><g><g transform="translate(-1470 -207)"><g transform="rotate(-180 1477 211.5)"><use fill="#4c4c4c" xlink:href="#y8bqa"/><use fill="#fff" fill-opacity="0" stroke="#e9ebe9" stroke-miterlimit="50" stroke-width=".8" xlink:href="#y8bqa"/></g></g></g></svg>