<svg height="19" viewBox="0 0 22 19" width="22" xmlns="http://www.w3.org/2000/svg"><g fill="#333" stroke="#333" transform="translate(1)"><g stroke-width=".1"><path d="m7.1196846 5.34292357h-4.15314935c-.32750549 0-.59330705-.25915652-.59330705-.57847437 0-.31931786.26580156-.57847438.59330705-.57847438h4.15314935c.32750549 0 .59330705.25915652.59330705.57847438 0 .31931785-.26580156.57847437-.59330705.57847437z"/><path d="m17.0192903 5.34292357h-4.1531493c-.3280988 0-.5933071-.25915652-.5933071-.57847437 0-.31931786.2652083-.57847438.5933071-.57847438h4.1531493c.3280988 0 .5933071.25915652.5933071.57847438 0 .31931785-.2652083.57847437-.5933071.57847437z"/><path d="m7.1196846 7.65682106h-4.15314935c-.32750549 0-.59330705-.25915651-.59330705-.57847437 0-.31931785.26580156-.57847437.59330705-.57847437h4.15314935c.32750549 0 .59330705.25915652.59330705.57847437 0 .31931786-.26580156.57847437-.59330705.57847437z"/><path d="m17.0192903 7.65682106h-4.1531493c-.3280988 0-.5933071-.25915651-.5933071-.57847437 0-.31931785.2652083-.57847437.5933071-.57847437h4.1531493c.3280988 0 .5933071.25915652.5933071.57847437 0 .31931786-.2652083.57847437-.5933071.57847437z"/><path d="m7.1196846 9.97071856h-4.15314935c-.32750549 0-.59330705-.25857805-.59330705-.57847437 0-.31931786.26580156-.57847438.59330705-.57847438h4.15314935c.32750549 0 .59330705.25915652.59330705.57847438 0 .31989632-.26580156.57847437-.59330705.57847437z"/><path d="m17.0192903 9.97071856h-4.1531493c-.3280988 0-.5933071-.25857805-.5933071-.57847437 0-.31931786.2652083-.57847438.5933071-.57847438h4.1531493c.3280988 0 .5933071.25915652.5933071.57847438 0 .31989632-.2652083.57847437-.5933071.57847437z"/><path d="m7.1196846 12.2846161h-4.15314935c-.32750549 0-.59330705-.2585781-.59330705-.5784744s.26580156-.5784744.59330705-.5784744h4.15314935c.32750549 0 .59330705.2585781.59330705.5784744s-.26580156.5784744-.59330705.5784744z"/><path d="m17.0192903 12.2846161h-4.1531493c-.3280988 0-.5933071-.2585781-.5933071-.5784744s.2652083-.5784744.5933071-.5784744h4.1531493c.3280988 0 .5933071.2585781.5933071.5784744s-.2652083.5784744-.5933071.5784744z"/></g><path d="m9.36835594 15.9436641v-12.18381984c0-1.00719195-.84065381-1.82682941-1.87367119-1.82682941-.00952352 0-.01899748-.00020817-.02841735-.00062011-.00941986.00041194-.01889382.00062011-.02841734.00062011h-5.87708196c-.17175319 0-.31165398.13640327-.31165398.30386263v12.78902372c0 .1674594.13990079.3038626.31165398.3038626h5.87708196c.00952352 0 .01899748.0002078.02841734.0006188.00941987-.000411.01889383-.0006188.02841735-.0006188.69510922 0 1.34734716.2255431 1.87367119.6139003zm1.24911416.0000914c.5264886-.3884132 1.1789386-.6139917 1.8736712-.6139917.0095242 0 .0189982.000207.0284173.0006167.0094191-.0004097.0188931-.0006167.0284173-.0006167h5.877082c.1717532 0 .311654-.1364032.311654-.3038626v-12.78902372c0-.16745936-.1399008-.30386263-.311654-.30386263h-5.877082c-.0095242 0-.0189982-.00020745-.0284173-.00061797-.0094191.00041052-.0188931.00061797-.0284174.00061797-1.0330173 0-1.8736711.81963746-1.8736711 1.82682941zm-3.1512027.6032759c-.00941986.000411-.01889382.0006187-.02841734.0006187h-5.87708196c-.86063963 0-1.5607681-.6826252-1.5607681-1.5217489v-12.78902372c0-.83912364.70012847-1.5217489 1.5607681-1.5217489h5.87708196c.00952352 0 .01899748.00020818.02841734.00062011.00941987-.00041193.01889383-.00062011.02841735-.00062011 1.02037503 0 1.92802069.4796317 2.49822825 1.21980411.5702076-.74017241 1.4778532-1.21980411 2.4982282-1.21980411.0095243 0 .0189983.00020746.0284174.00061797.0094191-.00041051.0188931-.00061797.0284173-.00061797h5.877082c.8606396 0 1.5607681.68262526 1.5607681 1.5217489v12.78902372c0 .8391237-.7001285 1.5217489-1.5607681 1.5217489h-5.877082c-.0095242 0-.0189982-.000207-.0284173-.0006166-.0094191.0004096-.0188931.0006166-.0284173.0006166-.8481485 0-1.5913714.5638814-1.8055945 1.370731-.070575.267935-.3197732.4560984-.6039467.4560984h-.17674965c-.28479802 0-.53337173-.1881634-.60457123-.4560984-.21484763-.8068496-.95682142-1.370731-1.80559447-1.370731-.00952352 0-.01899748-.0002077-.02841735-.0006187z" stroke-width=".3"/></g></svg>