<svg height="18" viewBox="0 0 21 18" width="21" xmlns="http://www.w3.org/2000/svg"><g fill="#545658" stroke="#545658" transform="translate(1)"><g stroke-width=".1"><path d="m7.1196846 5.34292357h-4.15314935c-.32750549 0-.59330705-.25915652-.59330705-.57847437 0-.31931786.26580156-.57847438.59330705-.57847438h4.15314935c.32750549 0 .59330705.25915652.59330705.57847438 0 .31931785-.26580156.57847437-.59330705.57847437z"/><path d="m16.0192903 5.34292357h-4.1531493c-.3280988 0-.5933071-.25915652-.5933071-.57847437 0-.31931786.2652083-.57847438.5933071-.57847438h4.1531493c.3280988 0 .5933071.25915652.5933071.57847438 0 .31931785-.2652083.57847437-.5933071.57847437z"/><path d="m7.1196846 7.65682106h-4.15314935c-.32750549 0-.59330705-.25915651-.59330705-.57847437 0-.31931785.26580156-.57847437.59330705-.57847437h4.15314935c.32750549 0 .59330705.25915652.59330705.57847437 0 .31931786-.26580156.57847437-.59330705.57847437z"/><path d="m16.0192903 7.65682106h-4.1531493c-.3280988 0-.5933071-.25915651-.5933071-.57847437 0-.31931785.2652083-.57847437.5933071-.57847437h4.1531493c.3280988 0 .5933071.25915652.5933071.57847437 0 .31931786-.2652083.57847437-.5933071.57847437z"/><path d="m7.1196846 9.97071856h-4.15314935c-.32750549 0-.59330705-.25857805-.59330705-.57847437 0-.31931786.26580156-.57847438.59330705-.57847438h4.15314935c.32750549 0 .59330705.25915652.59330705.57847438 0 .31989632-.26580156.57847437-.59330705.57847437z"/><path d="m16.0192903 9.97071856h-4.1531493c-.3280988 0-.5933071-.25857805-.5933071-.57847437 0-.31931786.2652083-.57847438.5933071-.57847438h4.1531493c.3280988 0 .5933071.25915652.5933071.57847438 0 .31989632-.2652083.57847437-.5933071.57847437z"/><path d="m7.1196846 12.2846161h-4.15314935c-.32750549 0-.59330705-.2585781-.59330705-.5784744s.26580156-.5784744.59330705-.5784744h4.15314935c.32750549 0 .59330705.2585781.59330705.5784744s-.26580156.5784744-.59330705.5784744z"/><path d="m16.0192903 12.2846161h-4.1531493c-.3280988 0-.5933071-.2585781-.5933071-.5784744s.2652083-.5784744.5933071-.5784744h4.1531493c.3280988 0 .5933071.2585781.5933071.5784744s-.2652083.5784744-.5933071.5784744z"/></g><path d="m8.89960575 15.181697v-11.57419655c0-.95679662-.79859129-1.73542312-1.77992115-1.73542312-.00904701 0-.01804694-.00019776-.02699547-.00058908-.00894854.00039132-.01794846.00058908-.02699547.00058908h-5.58301934c-.16315944 0-.29606022.12957826-.29606022.28865871v12.14911876c0 .1590805.13290078.2886587.29606022.2886587h5.58301934c.00904701 0 .01804693.0001974.02699547.0005878.00894853-.0003904.01794846-.0005878.02699547-.0005878.66032909 0 1.279932.214258 1.77992115.5831835zm1.18661405.0000869c.5001455-.3689788 1.1199499-.5832704 1.7799212-.5832704.0090477 0 .0180476.0001967.0269955.0005858.0089478-.0003891.0179477-.0005858.0269954-.0005858h5.5830194c.1631594 0 .2960602-.1295782.2960602-.2886587v-12.14911876c0-.15908045-.1329008-.28865871-.2960602-.28865871h-5.5830194c-.0090477 0-.0180476-.00019708-.0269954-.00058705-.0089479.00038997-.0179478.00058705-.0269955.00058705-.9813299 0-1.7799212.7786265-1.7799212 1.73542312zm-2.99353067.5730906c-.00894854.0003905-.01794846.0005878-.02699547.0005878h-5.58301934c-.81757712 0-1.48267432-.6484698-1.48267432-1.4456075v-12.14911876c0-.79713769.6650972-1.44560746 1.48267432-1.44560746h5.58301934c.00904701 0 .01804693.00019776.02699547.00058908.00894853-.00039132.01794846-.00058908.02699547-.00058908.96932008 0 1.83155125.4556331 2.3732282 1.15877062.541677-.70313752 1.4039081-1.15877062 2.3732282-1.15877062.0090477 0 .0180476.00019708.0269955.00058705.0089478-.00038997.0179477-.00058705.0269954-.00058705h5.5830194c.8175771 0 1.4826743.64846977 1.4826743 1.44560746v12.14911876c0 .7971377-.6650972 1.4456075-1.4826743 1.4456075h-5.5830194c-.0090477 0-.0180476-.0001966-.0269954-.0005858-.0089479.0003892-.0179478.0005858-.0269955.0005858-.805711 0-1.5117464.5356673-1.7152507 1.3021458-.0670437.2545287-.30377319.4332773-.5737279.4332773h-.1679059c-.27054801 0-.50668422-.1787486-.57432122-.4332773-.20409763-.7664785-.9089464-1.3021458-1.71525068-1.3021458-.00904701 0-.01804694-.0001973-.02699547-.0005878z" stroke-width=".3"/></g></svg>