<svg height="17" viewBox="0 0 21 17" width="21" xmlns="http://www.w3.org/2000/svg"><path d="m9.5008172.97548307c-4.6750215 0-8.47849462 2.40286723-8.47849462 5.35658633 0 1.87577914 1.60601075 3.64228391 4.19123656 4.6097808.12646237.0477223.22922581.1429722.28213978.2614014.05352689.1205719.0551613.2575057.00469893.3757402-.31911828.7596613-.81516129 1.6058072-1.37678495 2.3526127 1.45176344-.2450395 2.74192473-.9616533 3.8373871-2.1325057.09622581-.1034308.23433333-.1628402.37856989-.1628402.01593549 0 .03187097.0007791.04801076.0021426.39777419.0338926.7618387.0502545 1.11241935.0502545 4.6750215 0 8.4784946-2.40286721 8.4784946-5.3565863 0-2.9537191-3.8030645-5.35658633-8.4776774-5.35658633m-6.5376344 14.02451693c-.20675269 0-.39184947-.1180397-.47193549-.300748-.07906451-.1821239-.03575269-.390349.11011828-.530789.47602151-.4552124 1.24031183-1.48095 1.75045161-2.5158425-2.68696774-1.1523478-4.3518172-3.18453926-4.3518172-5.32210938 0-3.49054644 4.26172043-6.33051112 9.5-6.33051112 5.2384839 0 9.5 2.83996468 9.5 6.33051112 0 3.49074122-4.2615161 6.33051108-9.5 6.33051108-.29460215 0-.60595699-.0118819-.95-.0364248-1.55064516 1.5761999-3.43001075 2.3754026-5.5868172 2.3754026" fill="#545658" fill-rule="evenodd" stroke="#545658" stroke-width=".8" transform="translate(1 1)"/></svg>