<svg width="20" height="20" viewBox="0 0 20 20" fill="none" xmlns="http://www.w3.org/2000/svg">
<path fill-rule="evenodd" clip-rule="evenodd" d="M10 20C15.5228 20 20 15.5228 20 10C20 4.47715 15.5228 0 10 0C4.47715 0 0 4.47715 0 10C0 15.5228 4.47715 20 10 20Z" fill="#AC1B25"/>
<path d="M8.87484 13.5257L5.46619 10.117C5.25465 9.90549 4.91169 9.90549 4.70015 10.117C4.48862 10.3286 4.48862 10.6715 4.70015 10.8831L8.49182 14.6747C8.70335 14.8863 9.04632 14.8863 9.25785 14.6747L16.2995 7.63306C16.5111 7.42152 16.5111 7.07856 16.2995 6.86702C16.088 6.65549 15.745 6.65549 15.5335 6.86702L8.87484 13.5257Z" fill="#2F3337"/>
<mask id="mask0" mask-type="alpha" maskUnits="userSpaceOnUse" x="4" y="6" width="13" height="9">
<path d="M8.87484 13.5257L5.46619 10.117C5.25465 9.90549 4.91169 9.90549 4.70015 10.117C4.48862 10.3286 4.48862 10.6715 4.70015 10.8831L8.49182 14.6747C8.70335 14.8863 9.04632 14.8863 9.25785 14.6747L16.2995 7.63306C16.5111 7.42152 16.5111 7.07856 16.2995 6.86702C16.088 6.65549 15.745 6.65549 15.5335 6.86702L8.87484 13.5257Z" fill="white"/>
</mask>
<g mask="url(#mask0)">
<rect x="4" y="4" width="23.8333" height="23.8333" fill="white"/>
</g>
</svg>
