<svg width="23" height="20" viewBox="0 0 23 20" fill="none" xmlns="http://www.w3.org/2000/svg">
<g clip-path="url(#clip0)">
<mask id="mask0" mask-type="alpha" maskUnits="userSpaceOnUse" x="7" y="0" width="16" height="16">
<path d="M7.84082 0H22.9999V15.1591H15.21C17.8917 14.2051 20.1623 11.8027 20.7608 8.98742C21.537 5.3357 19.2059 2.37514 15.554 2.37514C12.2574 2.37514 9.01214 4.78814 7.84082 7.94418V0ZM18.6687 8.93304C18.6687 12.0725 16.7296 14.6177 14.3376 14.6177C11.9456 14.6177 10.0064 12.0725 10.0064 8.93304C10.0064 5.79359 11.9456 3.24838 14.3376 3.24838C16.7296 3.24838 18.6687 5.79359 18.6687 8.93304Z" fill="white"/>
</mask>
<g mask="url(#mask0)">
<path d="M31.8863 0H7.84082V24.0455H31.8863V0Z" fill="#08B3C6"/>
</g>
<path fill-rule="evenodd" clip-rule="evenodd" d="M21.593 18.6165C21.5957 18.6982 21.6128 18.7674 21.6448 18.8243C21.6765 18.8813 21.7182 18.9263 21.7698 18.9598C21.8214 18.9935 21.8797 19.0175 21.9445 19.0324C22.0095 19.0469 22.0762 19.0542 22.1452 19.0542C22.198 19.0542 22.2538 19.0499 22.3119 19.0411C22.3702 19.0324 22.4238 19.0163 22.4729 18.9927C22.5218 18.9695 22.5622 18.9352 22.594 18.89C22.6257 18.8446 22.6416 18.7872 22.6416 18.7172C22.6416 18.6206 22.6086 18.5478 22.5423 18.4983C22.4761 18.4487 22.3935 18.4086 22.294 18.3779C22.1872 18.3453 22.0791 18.3174 21.9703 18.2946C21.8597 18.2717 21.751 18.2364 21.6467 18.1896C21.5518 18.1478 21.467 18.0827 21.3984 17.9992C21.3322 17.9175 21.2992 17.8038 21.2992 17.6579C21.2992 17.544 21.3223 17.4462 21.3687 17.3645C21.415 17.2826 21.4746 17.2163 21.5473 17.1654C21.6233 17.1128 21.7065 17.0745 21.7936 17.0515C21.8826 17.0269 21.9739 17.0146 22.0658 17.0144C22.1822 17.0144 22.2895 17.0253 22.3875 17.0472C22.4853 17.069 22.5721 17.1071 22.6475 17.161C22.723 17.215 22.7832 17.288 22.8284 17.38C22.8733 17.4718 22.8998 17.5863 22.9078 17.7235H22.5701C22.5647 17.6505 22.5476 17.59 22.5185 17.5418C22.49 17.4944 22.4521 17.4548 22.4074 17.4258C22.3612 17.396 22.3108 17.3746 22.2583 17.3623C22.2042 17.3492 22.1491 17.3425 22.0935 17.3425C22.0432 17.3425 21.9923 17.3471 21.9405 17.3558C21.8918 17.3637 21.8445 17.3792 21.7998 17.4018C21.7572 17.4236 21.7229 17.4528 21.6964 17.4891C21.6698 17.5258 21.6567 17.5732 21.6567 17.6315C21.6567 17.6956 21.6771 17.7491 21.718 17.7914C21.7592 17.8336 21.8115 17.8685 21.8748 17.8965C21.9385 17.9242 22.0102 17.9475 22.0896 17.9665C22.169 17.9853 22.2484 18.0052 22.3278 18.0256C22.4126 18.046 22.4952 18.0708 22.5761 18.1C22.6524 18.1268 22.7246 18.166 22.7905 18.2158C22.8527 18.264 22.9031 18.3247 22.9415 18.3975C22.9799 18.4705 22.9991 18.5609 22.9991 18.669C22.9991 18.8061 22.9733 18.9199 22.9215 19.0104C22.87 19.1006 22.8024 19.1738 22.719 19.2294C22.6356 19.2849 22.5416 19.3232 22.4371 19.3452C22.3343 19.3668 22.23 19.3779 22.1253 19.3781C22.0114 19.3781 21.9028 19.3648 21.7998 19.3386C21.7018 19.3148 21.6087 19.2712 21.5255 19.2097C21.4455 19.1492 21.38 19.0679 21.3349 18.9733C21.2873 18.8755 21.2609 18.7565 21.2555 18.6165H21.593ZM20.6329 19.3299H20.2953V19.0235H20.2874C20.234 19.1468 20.1403 19.2436 20.0252 19.295C19.9061 19.3505 19.7751 19.3781 19.632 19.3781C19.4732 19.3781 19.3347 19.346 19.2169 19.2817C19.1027 19.2206 19.0025 19.1326 18.9231 19.0235C18.843 18.9114 18.7831 18.7837 18.7463 18.647C18.706 18.4992 18.686 18.3459 18.6867 18.1916C18.6867 18.0314 18.7059 17.8796 18.7445 17.7364C18.7827 17.5938 18.841 17.4688 18.9192 17.3623C18.9986 17.2546 19.0991 17.1678 19.2129 17.1083C19.3308 17.0458 19.4679 17.0144 19.624 17.0144C19.6771 17.0144 19.7341 17.0204 19.7949 17.0319C19.8557 17.0436 19.9167 17.0632 19.9775 17.091C20.0385 17.1188 20.0961 17.1553 20.1504 17.2005C20.2045 17.2457 20.2502 17.3018 20.2874 17.3691H20.2953V16.2046H20.6328V19.3299H20.6329ZM19.0442 18.2182C19.0442 18.3231 19.0568 18.4261 19.0819 18.5268C19.1072 18.6274 19.1454 18.7172 19.1971 18.796C19.2488 18.8749 19.3169 18.9394 19.3956 18.9842C19.4764 19.0308 19.5711 19.0542 19.6796 19.0542C19.7935 19.0542 19.8902 19.0294 19.9696 18.9798C20.049 18.9303 20.114 18.8652 20.1643 18.7851C20.2145 18.7047 20.2509 18.6133 20.2735 18.5113C20.296 18.4096 20.3072 18.3053 20.3072 18.2005C20.3072 18.0897 20.2953 17.9824 20.2715 17.8788C20.25 17.7804 20.2116 17.6876 20.1583 17.6051C20.1058 17.5256 20.0371 17.4605 19.9577 17.4147C19.8756 17.3667 19.7763 17.3427 19.6599 17.3427C19.5459 17.3427 19.4493 17.3675 19.3699 17.4171C19.2905 17.4667 19.2268 17.5323 19.1792 17.614C19.1301 17.6999 19.0949 17.7947 19.076 17.8941C19.0547 18.0008 19.044 18.1091 19.0442 18.2182ZM17.3016 17.067H17.6192V17.544H17.6273C17.7094 17.3602 17.8099 17.2245 17.9292 17.137C18.0483 17.0493 18.1991 17.0085 18.3819 17.0144V17.4083C18.2468 17.4083 18.1316 17.4288 18.0364 17.4696C17.9465 17.5061 17.8671 17.568 17.8059 17.6491C17.7478 17.7279 17.7054 17.8235 17.6789 17.9355C17.6524 18.0482 17.6392 18.1773 17.6392 18.3231V19.3299H17.3017V17.0668L17.3016 17.067ZM16.2183 18.1613C16.1759 18.1962 16.1203 18.2218 16.0515 18.2378C15.9826 18.2539 15.9104 18.267 15.835 18.2773C15.7596 18.2874 15.6834 18.2989 15.6065 18.3122C15.5356 18.3235 15.4661 18.3449 15.4001 18.3757C15.3416 18.4029 15.2904 18.4459 15.2512 18.5006C15.2128 18.5544 15.1935 18.6282 15.1935 18.7216C15.1935 18.7829 15.2048 18.8346 15.2274 18.8767C15.2498 18.9189 15.279 18.9535 15.3147 18.9798C15.3505 19.006 15.3922 19.0251 15.4398 19.0368C15.4874 19.0483 15.5378 19.0542 15.5907 19.0542C15.702 19.0542 15.7973 19.0374 15.8767 19.0038C15.9561 18.9701 16.021 18.9281 16.0714 18.8767C16.1216 18.8259 16.1587 18.7702 16.1826 18.7105C16.2064 18.6508 16.2183 18.5947 16.2183 18.5419V18.1611V18.1613ZM16.7663 19.3212C16.708 19.3591 16.6274 19.3781 16.5242 19.3781C16.4366 19.3781 16.3672 19.3511 16.3155 19.2972C16.2639 19.2432 16.2381 19.1548 16.2381 19.0324C16.1454 19.1548 16.0376 19.2432 15.9144 19.2972C15.7872 19.3519 15.6517 19.3795 15.5152 19.3781C15.4263 19.3785 15.3375 19.3666 15.2512 19.343C15.1733 19.3226 15.0998 19.2853 15.0347 19.2337C14.9726 19.1825 14.923 19.1159 14.8898 19.0389C14.854 18.9586 14.8362 18.8616 14.8362 18.7478C14.8362 18.6194 14.856 18.5141 14.8957 18.4326C14.9354 18.3509 14.9878 18.2844 15.0527 18.2335C15.1175 18.1823 15.1917 18.1438 15.275 18.1172C15.3595 18.0911 15.445 18.069 15.5313 18.052C15.6239 18.0314 15.7117 18.0161 15.7953 18.0058C15.8787 17.9956 15.9523 17.981 16.0156 17.9621C16.0793 17.9429 16.1295 17.9153 16.1667 17.8788C16.2037 17.8423 16.2223 17.7892 16.2223 17.7192C16.2223 17.6372 16.2084 17.5716 16.1806 17.522C16.1546 17.4744 16.1176 17.4351 16.0734 17.4083C16.0275 17.3812 15.9779 17.3635 15.9263 17.3558C15.8731 17.3473 15.8193 17.3427 15.7655 17.3427C15.6224 17.3427 15.5033 17.3724 15.408 17.4323C15.3128 17.4922 15.2611 17.6053 15.2532 17.7715H14.9156C14.921 17.6315 14.9473 17.5133 14.995 17.4171C15.0426 17.3209 15.1061 17.2427 15.1855 17.1828C15.2649 17.1231 15.3557 17.0799 15.4577 17.0537C15.5652 17.0267 15.6751 17.0136 15.7854 17.0144C15.8779 17.0144 15.97 17.0218 16.0615 17.0363C16.1484 17.0493 16.2325 17.0797 16.3096 17.1261C16.3838 17.1713 16.4433 17.2348 16.4882 17.3165C16.5334 17.3978 16.5559 17.5045 16.5559 17.6359V18.8001C16.5559 18.8878 16.5604 18.9519 16.5698 18.9927C16.579 19.0338 16.6102 19.0542 16.6631 19.0542C16.6922 19.0542 16.7266 19.0469 16.7663 19.0324V19.3212ZM13.7368 19.3301H13.3795L12.9625 17.5307H12.9544L12.5413 19.3299H12.1761L11.5167 17.0668H11.8901L12.3547 18.9184H12.3627L12.7757 17.067H13.1451L13.5741 18.9184H13.582L14.0427 17.067H14.3923L13.7368 19.3301ZM11.0887 18.6121C11.0437 18.866 10.9443 19.0572 10.7909 19.1855C10.6373 19.3139 10.4441 19.3781 10.2109 19.3781C10.0467 19.3781 9.90451 19.3488 9.78396 19.2904C9.66721 19.2351 9.56327 19.1512 9.48026 19.0455C9.39562 18.9352 9.33283 18.8073 9.29547 18.669C9.25306 18.5139 9.22979 18.3537 9.226 18.1916C9.226 18.0196 9.24982 17.8622 9.29746 17.7192C9.34185 17.5821 9.41006 17.4556 9.49812 17.3471C9.67425 17.1311 9.92725 17.0095 10.1911 17.0144C10.3739 17.0144 10.5255 17.0561 10.6458 17.1392C10.7633 17.2191 10.8625 17.3276 10.9358 17.4563C11.0087 17.5849 11.0589 17.7249 11.0867 17.8766C11.1145 18.0284 11.1258 18.173 11.1206 18.31H9.58348C9.58077 18.4092 9.59142 18.5034 9.61524 18.5925C9.63906 18.6813 9.6775 18.7603 9.73037 18.8287C9.78595 18.8995 9.85524 18.9554 9.93302 18.9927C10.0149 19.0338 10.1117 19.0542 10.2228 19.0542C10.3659 19.0542 10.483 19.0175 10.5744 18.9447C10.6657 18.8717 10.7259 18.7609 10.7552 18.6121H11.0887ZM10.7631 17.9818C10.7581 17.8959 10.74 17.8114 10.7095 17.7322C10.6808 17.6563 10.639 17.5873 10.5863 17.5287C10.4764 17.4076 10.3268 17.3405 10.1712 17.3427C10.0839 17.3427 10.0052 17.3596 9.93482 17.3931C9.86481 17.4266 9.80454 17.4722 9.75437 17.5307C9.70348 17.59 9.66306 17.6591 9.63509 17.7344C9.60585 17.8116 9.58871 17.8941 9.58348 17.9818H10.7631ZM7.84082 17.067H8.15842V17.544H8.16654C8.24865 17.3602 8.34916 17.2245 8.46844 17.137C8.58754 17.0493 8.73841 17.0085 8.92121 17.0144V17.4083C8.78605 17.4083 8.67091 17.4288 8.57563 17.4696C8.48577 17.5061 8.40637 17.568 8.34519 17.6491C8.28691 17.7279 8.24468 17.8235 8.21815 17.9355C8.19163 18.0482 8.17845 18.1773 8.17845 18.3231V19.3299H7.84082V17.0668V17.067Z" fill="#444445"/>
<path fill-rule="evenodd" clip-rule="evenodd" d="M3.37838 0.862805C3.18286 0.914095 2.99813 0.999265 2.83268 1.11457C2.6729 1.22782 2.54206 1.37663 2.45092 1.54885C2.35297 1.7409 2.30419 1.95411 2.3091 2.16919C2.2919 2.59223 2.49875 2.99337 2.85461 3.22792C3.02309 3.34079 3.21104 3.42184 3.4092 3.46714C3.83048 3.56691 4.27029 3.56542 4.69081 3.46265C4.89011 3.41585 5.07844 3.33181 5.2454 3.21538C5.40688 3.10026 5.53905 2.94919 5.63113 2.77455C5.73399 2.57314 5.78448 2.34945 5.77748 2.12389C5.78543 1.90188 5.73362 1.68175 5.62716 1.48595C5.52922 1.31823 5.39137 1.17672 5.22574 1.07339C5.05121 0.965571 4.85891 0.889012 4.65754 0.847456C4.44198 0.800846 4.22207 0.777635 4.0016 0.778197C3.78983 0.778758 3.57937 0.807211 3.37554 0.862805H3.37838ZM0 3.5145H2.36885V3.49747C2.11888 3.38066 1.92129 3.17663 1.81408 2.92449C1.69628 2.65306 1.63747 2.3603 1.64126 2.06492C1.63388 1.75176 1.70063 1.44121 1.83601 1.15819C1.961 0.907356 2.14157 0.687785 2.36432 0.51576C2.59386 0.341489 2.85405 0.210832 3.13162 0.130154C3.43094 0.0421764 3.74161 -0.00162544 4.05398 5.92488e-05C4.36616 -0.00181262 4.67701 0.0406789 4.97671 0.126223C5.2524 0.203157 5.51012 0.332691 5.73532 0.508086C5.95163 0.680859 6.12502 0.90043 6.24207 1.14995C6.3714 1.43185 6.43512 1.73903 6.42831 2.04845C6.42718 2.17218 6.41508 2.29572 6.39296 2.41758C6.36875 2.55554 6.33018 2.69088 6.27761 2.82078C6.22335 2.95593 6.15036 3.08303 6.06073 3.19815C5.96714 3.31889 5.85104 3.42072 5.71887 3.49803V3.51487H6.33094V4.25221H0V3.5145ZM6.33207 5.93633H5.61544V5.95374C5.87562 6.09282 6.08966 6.30359 6.23167 6.5606C6.36819 6.83015 6.4355 7.12909 6.42813 7.43046C6.43531 7.68447 6.39541 7.93755 6.31033 8.17734C6.24074 8.36377 6.12502 8.53 5.97375 8.66065C5.82343 8.78644 5.64531 8.87517 5.45377 8.91991C5.23462 8.97213 5.00999 8.99722 4.78479 8.99478H1.81332V8.24753H4.87234C5.15218 8.24753 5.37398 8.16554 5.5381 8.00157C5.7045 7.8374 5.78278 7.61091 5.78278 7.3247C5.7877 7.12216 5.75234 6.92075 5.67859 6.73169C5.61336 6.57164 5.51144 6.42863 5.38116 6.31389C5.24975 6.20083 5.0964 6.11565 4.93057 6.06343C4.7483 6.00652 4.55808 5.97845 4.3671 5.98032H1.81484V5.23325H6.33358L6.33169 5.93614L6.33207 5.93633ZM0 10.6302H6.264V9.97621H0V10.6302ZM2.55264 12.486C2.39325 12.6775 2.31345 12.9371 2.31345 13.2645C2.30532 13.5056 2.35713 13.7448 2.46396 13.9614C2.55737 14.1409 2.69427 14.2948 2.86218 14.4095C3.03538 14.5245 3.229 14.6057 3.43283 14.6491C3.65293 14.698 3.87737 14.7223 4.10238 14.7218C4.31075 14.7222 4.51837 14.6963 4.72031 14.6452C4.91185 14.5979 5.09338 14.5166 5.25561 14.4051C5.41331 14.2946 5.54207 14.1488 5.63151 13.9792C5.73097 13.7857 5.77975 13.5702 5.77351 13.3531C5.77351 12.9727 5.67614 12.6754 5.48138 12.4619C5.28662 12.2481 5.01245 12.1174 4.65848 12.0693V11.2845C5.22384 11.3676 5.66063 11.5825 5.96846 11.9291C6.27629 12.2758 6.42964 12.7481 6.4285 13.3461C6.43418 13.6692 6.37707 13.9902 6.26003 14.2918C6.1566 14.5552 5.99304 14.7912 5.78202 14.9814C5.56817 15.1703 5.3165 15.3122 5.04327 15.3979C4.73865 15.4936 4.42118 15.5402 4.10238 15.5364C3.77735 15.5388 3.45382 15.4934 3.14145 15.4009C2.85594 15.317 2.59046 15.177 2.3611 14.9889C2.13666 14.801 1.95797 14.5653 1.83885 14.2993C1.70668 13.9934 1.64182 13.6632 1.64901 13.3306C1.64731 13.0786 1.67851 12.8276 1.74166 12.5837C1.79839 12.3628 1.89595 12.1543 2.02907 11.9683C2.15992 11.7895 2.32744 11.6399 2.52069 11.5293C2.737 11.4084 2.97657 11.3344 3.22408 11.3122V12.1056C2.93592 12.1661 2.71223 12.2928 2.55283 12.486H2.55264Z" fill="#08B3C6"/>
</g>
<defs>
<clipPath id="clip0">
<rect width="23" height="19.1667" fill="white"/>
</clipPath>
</defs>
</svg>
