<?xml version="1.0" encoding="UTF-8"?>
<svg width="18px" height="27px" viewBox="0 0 18 27" version="1.1" xmlns="http://www.w3.org/2000/svg" xmlns:xlink="http://www.w3.org/1999/xlink">
    <!-- Generator: Sketch 53.1 (72631) - https://sketchapp.com -->
    <title>event_icon</title>
    <desc>Created with Sketch.</desc>
    <g id="mobile" stroke="none" stroke-width="1" fill="none" fill-rule="evenodd">
        <g id="Regsetup" transform="translate(-272.000000, -174.000000)" fill="#333333" fill-rule="nonzero" stroke="#333333">
            <g id="event_icon" transform="translate(268.000000, 175.000000)">
                <g id="Group">
                    <g id="Shape">
                        <g>
                            <path d="M12.896,0.832 C8.7672,0.832 5.408,4.564352 5.408,9.152 C5.408,13.739648 8.7672,17.472 12.896,17.472 C17.0248,17.472 20.384,13.739648 20.384,9.152 C20.384,4.564352 17.0248,0.832 12.896,0.832 M12.896,18.304 C8.308352,18.304 4.576,14.198496 4.576,9.152 C4.576,4.105504 8.308352,0 12.896,0 C17.483648,0 21.216,4.105504 21.216,9.152 C21.216,14.198496 17.483648,18.304 12.896,18.304" stroke-width="0.5"></path>
                            <path d="M9.984416,3.744 C9.845888,3.744 9.710272,3.674528 9.631232,3.54848 C9.509344,3.353792 9.568416,3.09712 9.76352,2.975232 C10.66,2.41488 11.830624,2.08 12.896,2.08 C13.125632,2.08 13.312,2.266368 13.312,2.496 C13.312,2.725632 13.125632,2.912 12.896,2.912 C11.994112,2.912 10.962848,3.206528 10.20448,3.680768 C10.13584,3.723616 10.059712,3.744 9.984416,3.744" stroke-width="0.3"></path>
                            <path d="M7.072,9.568 L7.072,9.568 C6.841952,9.568 6.656,9.381632 6.656,9.152 C6.656832,7.26128 7.341152,5.419232 8.533408,4.098848 C8.687328,3.927872 8.95024,3.914144 9.1208,4.06848 C9.29136,4.2224 9.305088,4.485728 9.151168,4.655872 C8.094944,5.82608 7.488832,7.464704 7.488,9.152 C7.488,9.382048 7.301632,9.568 7.072,9.568" stroke-width="0.3"></path>
                            <path d="M12.8972064,16.224 L12.8959584,16.224 C12.6659104,16.224 12.4799584,16.037632 12.4799584,15.808 C12.4799584,15.578368 12.6663264,15.392 12.8959584,15.392 L12.8972064,15.392 C13.5149664,15.392 14.2325664,15.248064 14.8174624,15.0072 C15.0292064,14.919424 15.2729824,15.020512 15.3607584,15.233504 C15.4481184,15.44608 15.3470304,15.689024 15.1344544,15.7768 C14.4538784,16.056768 13.6177184,16.224 12.8972064,16.224" stroke-width="0.3"></path>
                            <path d="M16.224208,14.976 C16.103568,14.976 15.984176,14.924 15.902224,14.823744 C15.756624,14.646112 15.782416,14.383616 15.960464,14.238432 C17.428528,13.036192 18.304208,11.134656 18.304208,9.152 C18.304208,8.922368 18.49016,8.736 18.720208,8.736 C18.94984,8.736 19.136208,8.922368 19.136208,9.152 C19.136208,11.381344 18.146544,13.523328 16.487536,14.881568 C16.41016,14.945216 16.316976,14.976 16.224208,14.976" stroke-width="0.3"></path>
                            <path d="M14.417,20.202 L11.687,20.202 C11.43584,20.202 11.232,19.99816 11.232,19.747 L11.232,17.927 C11.232,17.67584 11.43584,17.472 11.687,17.472 C11.93816,17.472 12.142,17.67584 12.142,17.927 L12.142,19.292 L13.962,19.292 L13.962,17.927 C13.962,17.67584 14.16584,17.472 14.417,17.472 C14.66816,17.472 14.872,17.67584 14.872,17.927 L14.872,19.747 C14.872,19.99816 14.66816,20.202 14.417,20.202" stroke-width="0.3"></path>
                            <path d="M13.728,24.96 C13.498368,24.96 13.312,24.773632 13.312,24.544 C13.312,24.314368 13.498368,24.128 13.728,24.128 C13.957216,24.128 14.144,23.941216 14.144,23.712 L14.144,23.296 C14.144,23.066784 13.957216,22.88 13.728,22.88 C13.039936,22.88 12.48,22.320064 12.48,21.632 L12.48,19.552 C12.48,19.322368 12.666368,19.136 12.896,19.136 C13.125632,19.136 13.312,19.322368 13.312,19.552 L13.312,21.632 C13.312,21.861216 13.498784,22.048 13.728,22.048 C14.416064,22.048 14.976,22.607936 14.976,23.296 L14.976,23.712 C14.976,24.400064 14.416064,24.96 13.728,24.96" stroke-width="0.5"></path>
                        </g>
                    </g>
                </g>
            </g>
        </g>
    </g>
</svg>