<svg height="31" viewBox="0 0 21 31" width="21" xmlns="http://www.w3.org/2000/svg"><g fill="#333" fill-rule="evenodd"><path d="m5.7 24.7h-2.35556613c-1.50419217 0-2.77962397-.8505861-3.19873389-2.0169741-.08948731-.0814572-.14569998-.1984752-.14569998-.3283384v-17.9015625c0-1.34822813.40079245-2.43015938 1.19126415-3.21586875 1.22800943-1.20252187 2.92151887-1.23725625 3.11062264-1.23725625h14.25000001c.2471792 0 .4481132.19985625.4481132.4453125v18.751709c0 .037489-.0046804.0686486-.0134913.0945377.0088117.0299692.0134913.0613172.0134913.0935759 0 .2124406-.2026546.3851352-.4519505.3851352-1.3459087 0-2.4405328.9329513-2.4405328 2.0797297s1.0946241 2.0797297 2.4405328 2.0797297c.2492959 0 .4519505.1726946.4519505.3851352 0 .2087432-.2153092.3851351-.4700285.3851351h-8.0799715v4.3009454c0 .1763886-.1065589.3355336-.2714544.4059454-.0590589.0220934-.1159505.0325115-.173384.0325115-.11288023 0-.22557985-.0420315-.31750951-.1181912l-1.60362167-1.5945031-1.59784221 1.5891145c-.08940114.0890924-.20192015.1341775-.3346673.1341775-.0605038 0-.11757604 0-.19469581-.0510126-.15026616-.0625084-.2568251-.2216534-.2568251-.398042zm0-.7702703v-2.5806751c0-.2476985.20246198-.4490546.45152091-.4490546h3.84695818c.24905891 0 .45152091.2013561.45152091.4490546v2.5806751h5.7947288c-.6759372-.5368783-1.0591912-1.2837324-1.0591912-2.0797297s.383254-1.5428514 1.0591912-2.0797297h-12.90029493c-1.34572788 0-2.44053282.9329513-2.44053282 2.0797297s1.09480494 2.0797297 2.44053282 2.0797297zm-4.80377358-4.0194478c.61106176-.5596809 1.48248852-.9102819 2.44820745-.9102819h14.75933973v-18.109375h-13.80188681c-.01487736 0-1.49795283.01104375-2.48254717.97202812-.61230188.608475-.9231132 1.48021875-.9231132 2.59047188zm7.16974316 6.7196551c.11721483 0 .22955323.0475998.31660647.1339979l1.14632129 1.1400598v-6.1238476h-2.92585551v6.1238476l1.14614068-1.1400598c.08723384-.0863981.19957224-.1339979.31678707-.1339979z" stroke="#333" stroke-width=".5" transform="translate(1 1)"/><g transform="translate(8 7)"><path d="m2.65555556 9.11111111c.58298333 0 1.05555555-.47259333 1.05555555-1.05555555 0-.58296223-.47257222-1.05555556-1.05555555-1.05555556-.58298334 0-1.05555556.47259333-1.05555556 1.05555556 0 .58296222.47257222 1.05555555 1.05555556 1.05555555z"/><path d="m2.70896425.00082616c-.72121776-.01759023-1.40725416.24626325-1.91738379.73878975-.51012963.51011673-.79158046 1.17854555-.79158046 1.89974507h.87953385.87953384c0-.24626325.08795339-.45734604.26386016-.63324836.17590677-.15831209.38699489-.26385348.63326437-.24626325.4573576.01759024.84435249.40457534.86194317.86192138 0 .28144371-.12313474.56288743-.35181354.73878975-.54531099.40457534-.94989656.9322823-1.17857536 1.51275996-.15831609.38698511-.2286788.77397022-.2286788 1.19613579v.08795116h1.7590677v-.1055414c0-.4925265.26386015-.96746276.70362707-1.30167717.6860364-.51011674 1.0730313-1.33685765 1.05544062-2.18118879-.03518135-1.37203811-1.19616603-2.53299343-2.56823883-2.56817389z"/></g></g></svg>