<svg height="19" viewBox="0 0 19 19" width="19" xmlns="http://www.w3.org/2000/svg"><g fill="#545658" fill-rule="evenodd"><path d="m1.58333333 9.5c0-4.37225625 3.54441042-7.91666667 7.91666667-7.91666667 4.3722167 0 7.9166667 3.54441042 7.9166667 7.91666667 0 4.3722167-3.54445 7.9166667-7.9166667 7.9166667-4.37225625 0-7.91666667-3.54445-7.91666667-7.9166667zm7.91666667-9.5c-5.2467075 0-9.5 4.2532925-9.5 9.5 0 5.2466917 4.2532925 9.5 9.5 9.5 5.2466917 0 9.5-4.2533083 9.5-9.5 0-5.2467075-4.2533083-9.5-9.5-9.5z" transform=""/><g transform="translate(6.333333 5.277778)"><path d="m3.16666667 8.97222222c.58298333 0 1.05555555-.47259333 1.05555555-1.05555555 0-.58296223-.47257222-1.05555556-1.05555555-1.05555556-.58298334 0-1.05555556.47259333-1.05555556 1.05555556 0 .58296222.47257222 1.05555555 1.05555556 1.05555555z"/><path d="m3.23674203.00082616c-.72121776-.01759023-1.40725416.24626325-1.91738379.73878975-.51012963.51011673-.79158046 1.17854555-.79158046 1.89974507h.87953384.87953385c0-.24626325.08795339-.45734604.26386016-.63324836.17590676-.15831209.38699489-.26385348.63326436-.24626325.4573576.01759024.8443525.40457534.86194317.86192138 0 .28144371-.12313473.56288743-.35181353.73878975-.54531099.40457534-.94989656.9322823-1.17857536 1.51275996-.15831609.38698511-.2286788.77397022-.2286788 1.19613579v.08795116h1.75906769v-.1055414c0-.4925265.26386016-.96746276.70362708-1.30167717.6860364-.51011674 1.07303129-1.33685765 1.05544062-2.18118879-.03518136-1.37203811-1.19616603-2.53299343-2.56823883-2.56817389z"/></g></g></svg>