<svg width="20" height="20" viewBox="0 0 20 20" fill="none" xmlns="http://www.w3.org/2000/svg">
<path d="M0.952381 3.33333H19.0476C19.1008 3.33333 19.1667 3.38089 19.1667 3.46774V16.5323C19.1667 16.6191 19.1008 16.6667 19.0476 16.6667H0.952381C0.899153 16.6667 0.833333 16.6191 0.833333 16.5323V3.46774C0.833333 3.38089 0.899153 3.33333 0.952381 3.33333Z" stroke="#545658" stroke-width="1.66667" stroke-linejoin="round"/>
<path d="M0.833008 10.8333H19.0148" stroke="#545658" stroke-width="1.25" stroke-linecap="square"/>
<path d="M8.10547 3.33325L8.10547 16.4583" stroke="#545658" stroke-width="1.25" stroke-linecap="square"/>
<path d="M10.3793 10.7291C11.6166 10.7291 12.5762 9.70203 12.5762 8.4895C12.5762 7.27697 11.6166 6.24992 10.3793 6.24992C9.14192 6.24992 8.18229 7.27697 8.18229 8.4895C8.18229 9.70203 9.14192 10.7291 10.3793 10.7291Z" stroke="#545658" stroke-width="1.66667"/>
<path d="M5.83336 10.7291C7.0707 10.7291 8.03033 9.70203 8.03033 8.4895C8.03033 7.27697 7.0707 6.24992 5.83336 6.24992C4.59602 6.24992 3.63639 7.27697 3.63639 8.4895C3.63639 9.70203 4.59602 10.7291 5.83336 10.7291Z" stroke="#545658" stroke-width="1.66667"/>
<path d="M8.10547 9.89575L11.7418 13.6458" stroke="#545658" stroke-width="1.66667" stroke-linecap="square" stroke-linejoin="round"/>
<path d="M8.10609 9.89575L4.46973 13.6458" stroke="#545658" stroke-width="1.66667" stroke-linecap="square"/>
</svg>
