<svg height="18" viewBox="0 0 26 18" width="26" xmlns="http://www.w3.org/2000/svg"><g fill="#333" fill-rule="evenodd" transform=""><path d="m19.5 9.75h-18.41666667c-.65 0-1.08333333-.43333333-1.08333333-1.08333333s.43333333-1.08333334 1.08333333-1.08333334h18.41666667c.65 0 1.0833333.43333334 1.0833333 1.08333334s-.4333333 1.08333333-1.0833333 1.08333333z"/><path d="m24.9166667 2.16666667h-23.83333337c-.65 0-1.08333333-.43333334-1.08333333-1.08333334s.43333333-1.08333333 1.08333333-1.08333333h23.83333337c.65 0 1.0833333.43333333 1.0833333 1.08333333s-.4333333 1.08333334-1.0833333 1.08333334z"/><path d="m24.9166667 17.3333333h-23.83333337c-.65 0-1.08333333-.4333333-1.08333333-1.0833333s.43333333-1.0833333 1.08333333-1.0833333h23.83333337c.65 0 1.0833333.4333333 1.0833333 1.0833333s-.4333333 1.0833333-1.0833333 1.0833333z"/></g></svg>