<svg height="20" viewBox="0 0 20 20" width="20" xmlns="http://www.w3.org/2000/svg"><path d="m79.3166078 241.683392c.4226693.422144 1.1073943.422144 1.5300636 0l8.1663541-8.166354 8.1663541 8.166354c.4265554.397469 1.091267.385741 1.5035355-.026528.4122686-.412268.4239966-1.07698.0265281-1.503535l-8.166354-8.166354 8.166354-8.166355c.3974685-.426555.3857405-1.091267-.0265281-1.503535-.4122685-.412269-1.0769801-.423997-1.5035355-.026528l-8.1663541 8.166354-8.1663541-8.166354c-.4265554-.397469-1.091267-.385741-1.5035355.026528-.4122686.412268-.4239966 1.07698-.0265281 1.503535l8.166354 8.166355-8.166354 8.166354c-.4221437.422669-.4221437 1.107394 0 1.530063z" fill="#545658" transform="translate(-79 -222)"/></svg>