<svg height="18" viewBox="0 0 29 18" width="29" xmlns="http://www.w3.org/2000/svg"><g fill="none" fill-rule="evenodd"><g fill="#333" transform="translate(9.666667)"><path d="m12.8888889 6.44444444h-11.81481483c-.64444444 0-1.07407407-.42962963-1.07407407-1.07407407s.42962963-1.07407407 1.07407407-1.07407407h11.81481483c.6444444 0 1.0740741.42962963 1.0740741 1.07407407s-.4296297 1.07407407-1.0740741 1.07407407z"/><path d="m18.2592593 2.14814815h-17.18518523c-.64444444 0-1.07407407-.42962963-1.07407407-1.07407408 0-.64444444.42962963-1.07407407 1.07407407-1.07407407h17.18518523c.6444444 0 1.074074.42962963 1.074074 1.07407407 0 .64444445-.4296296 1.07407408-1.074074 1.07407408z"/><path d="m12.8888889 17.1851852h-11.81481483c-.64444444 0-1.07407407-.4296296-1.07407407-1.0740741 0-.6444444.42962963-1.0740741 1.07407407-1.0740741h11.81481483c.6444444 0 1.0740741.4296297 1.0740741 1.0740741 0 .6444445-.4296297 1.0740741-1.0740741 1.0740741z"/><path d="m18.2592593 12.8888889h-17.18518523c-.64444444 0-1.07407407-.4296296-1.07407407-1.0740741 0-.6444444.42962963-1.0740741 1.07407407-1.0740741h17.18518523c.6444444 0 1.074074.4296297 1.074074 1.0740741 0 .6444445-.4296296 1.0740741-1.074074 1.0740741z"/></g><g stroke="#333" stroke-width="1.8"><rect height="5.718519" rx="1" width="5.718519" x=".9" y=".9"/><rect height="5.718519" rx="1" width="5.718519" x=".9" y="10.566667"/></g></g></svg>