<svg height="26" viewBox="0 0 17 26" width="17" xmlns="http://www.w3.org/2000/svg"><path d="m15.8780488 24.3376869s.0304878-.0310755.0304878-.0310755.0304878-.0310755.0304878-.0310755 0-.0310754.0304878-.0310754c0 0 0-.0310755.0304878-.0310755v-.0310755-.0310755-.0310755c0-.0310755 0-.0310755 0-.0621509v-.0310755c0-.0310755 0-.0310755 0-.062151l-6.03658537-18.08593044c.70121947-.46613223 1.15853657-1.30517024 1.15853657-2.20635922 0-1.46054765-1.18902437-2.67249144-2.6219512-2.67249144s-2.62195122 1.21194379-2.62195122 2.67249144c0 .93226446.48780488 1.77130247 1.18902439 2.2374347l-2.10365854 6.27724736c-.06097561.0621509-.09146341.1553774-.09146341.2486038l-2.01219512 5.997568c-.06097561.062151-.09146342.1553775-.09146342.2796794l-1.76829268 5.2517564v.062151.0310755.0621509.0310755.0310755.0310755s0 .0310755.0304878.0310755c0 0 0 .0310754.03048781.0310754 0 0 .0304878.0310755.0304878.0310755s0 .0310755.03048781.0310755c0 0 .0304878.0310755.0304878.0310755s.03048781.0310755.03048781.0310755.0304878.0310754.0304878.0310754.03048781.0310755.03048781.0310755c.09146341.062151 2.28658536 1.1808683 7.28658536 1.1808683s7.195122-1.1187173 7.2865854-1.1808683.0304878-.0310755.0304878-.0310755.0304878-.0310754.0304878-.0310754.0304878-.0310755.0304878-.0310755c-.0609756 0-.0609756 0-.0304878-.0310755zm-10.21341465-11.5600793c.70121951-.2175283 2.83536585-.9633399 4.96951215-1.9266798l1.3109757 3.9155107c-3.75000005 1.9888308-6.67682932 2.9210953-8.04878054 3.2629256zm-2.13414635 6.2772474c.97560976-.2175284 4.23780488-1.0565664 8.6890244-3.418303l1.1890244 3.6047559c-5.30487806 3.6047559-10.27439026 4.2262655-11.40243904 4.319492zm4.90853659-17.18474151c.94512195 0 1.70731711.77688705 1.70731711 1.74022699 0 .6836606-.3658537 1.24301927-.91463418 1.55377409 0 0 0 0-.03048781 0-.0304878 0-.06097561.03107549-.12195122.06215097-.21341463.09322644-.42682927.12430193-.6707317.12430193-.18292683 0-.36585366-.03107549-.54878049-.09322645-.03048781-.03107548-.09146342-.09322645-.15243903-.09322645-.0304878 0-.09146341-.03107548-.12195122-.03107548-.51829268-.31075482-.88414634-.87011349-.88414634-1.52269861.03048781-.96333994.79268293-1.74022699 1.73780488-1.74022699zm0 4.41271843c.21341463 0 .42682927-.03107548.6402439-.09322644l1.25000001 3.76013331c-1.64634147.77688701-3.32317074 1.36732121-4.2987805 1.70915151l1.8292683-5.43820934c.18292683.03107548.36585366.06215096.57926829.06215096zm-4.78658537 17.99270398c2.16463415-.3729057 5.97560976-1.3983966 10.06097558-4.1330391l1.2195122 3.6358314c-.7621951.2796794-2.8353658.901189-6.49390241.901189-2.10365854.0310755-3.65853659-.1864529-4.78658537-.4039813z" fill="#333" stroke="#333" stroke-width=".5"/></svg>