<svg height="21" viewBox="0 0 21 21" width="21" xmlns="http://www.w3.org/2000/svg"><g fill="#333" fill-rule="evenodd"><circle cx="10.655" cy="6.745889" r="1.055"/><g stroke="#333" stroke-width=".5" transform="translate(1 1)"><path d="m9.60581944 1.01386111c4.65209726 0 8.43705556 3.78495833 8.43705556 8.43705556s-3.7849583 8.43705553-8.43705556 8.43705553c-4.65209722 0-8.43731944-3.7846944-8.43731944-8.43705553 0-4.65236111 3.78495833-8.43705556 8.43731944-8.43705556zm0-.93733333c-5.1775 0-9.37465277 4.19715278-9.37465277 9.37465278 0 5.17750004 4.19715277 9.37465274 9.37465277 9.37465274 5.17749996 0 9.37465276-4.1971527 9.37465276-9.37465274 0-5.1775-4.1974166-9.37465278-9.37465276-9.37465278z" fill-rule="nonzero"/><path d="m8.949528 7.802931h1.312319v6.408278h-1.312319z"/></g></g></svg>