<svg height="19" viewBox="0 0 18 19" width="18" xmlns="http://www.w3.org/2000/svg"><path d="m30.8198279 218.570327h1.6364288v7.317864c0 .449036.3663228.813141.8182144.813141h4.0910556c.4518998 0 .8182144-.364105.8182144-.813141v-3.252402h1.6364288v3.252402c0 .449036.3663146.813141.8182144.813141h4.0910719c.4518998 0 .8182144-.364105.8182144-.813141v-7.317864h1.6364288c.7103737 0 1.083234-.83777.6054787-1.360036l-8.182144-8.944139c-.3246674-.354869-.8862898-.354869-1.2108754 0l-8.1821603 8.944139c-.4778217.522266-.1049033 1.360036.6054295 1.360036zm2.454635-1.626201h-.6050204l6.332513-6.922266 6.3325703 6.922266h-.6050696c-.4518998 0-.8182144.364023-.8182144.813059v7.317946h-2.4546431v-3.252402c0-.449118-.3663146-.813141-.8182144-.813141h-3.2728576c-.4518753 0-.818198.364023-.818198.813141v3.252402h-2.4546514v-7.317946c0-.449036-.3663228-.813059-.8182144-.813059z" fill="#545658" fill-rule="evenodd" transform="translate(-30 -208)"/></svg>