<svg height="21" viewBox="0 0 20 21" width="20" xmlns="http://www.w3.org/2000/svg"><path d="m.91089997 11.7445503h1.81821437v8.1307819c0 .4989181.40701638.9034708.90910719.9034708h4.54551775c.5020999 0 .90910718-.4045527.90910718-.9034708v-3.613701h1.81821434v3.613701c0 .4989181.4070073.9034708.9091072.9034708h4.545536c.5020999 0 .9091071-.4045527.9091071-.9034708v-8.1307819h1.8182144c.7892869 0 1.203567-.9308349.6727393-1.511118l-9.0910718-9.93771428c-.3607338-.39429069-.98474494-.39429069-1.34538776 0l-9.09109005 9.93771428c-.53090132.5802831-.11655663 1.511118.67268478 1.511118zm2.72731247-1.80685055h-.67223022l7.03597148-7.69123771 7.036035 7.69123771h-.6722847c-.5020999 0-.9091072.40446175-.9091072.90337985v8.1308728h-2.7273216v-3.613701c0-.499009-.4070073-.9034708-.9091072-.9034708h-3.63642872c-.50207263 0-.90908901.4044618-.90908901.9034708v3.613701h-2.72733065v-8.1308728c0-.4989181-.40701638-.90337985-.90910718-.90337985z" fill="#545658" fill-rule="evenodd"/></svg>