<svg height="17" viewBox="0 0 17 17" width="17" xmlns="http://www.w3.org/2000/svg"><path d="m45.1668024 166.040903c-.0324927-.047771-.0664296-.093582-.1010884-.135963-.5627257-.691324-1.49298-1.567852-2.7298693-1.817973-.2584976-.05218-.5222903-.078638-.7834355-.078638-.6955847 0-1.3918915.184713-2.0689434.549238-.3388869.182508-.6703126.412542-.9887412.686426-.5256599-.443408-1.0977724-.784171-1.7055064-1.01494-.4005028-.15213-.8274811-.229053-1.2689007-.229053-.6977509 0-1.4051293.192062-2.0455968.555118-.7482951.4243-1.4393068 1.093577-1.847993 1.790291-.3104859.52915-.4996657 1.136448-.5949776 1.911555-.1090311.884856.0620971 1.837572.5234937 2.91253.5350467 1.246688 6.5329608 7.205506 6.9476641 7.205506.2948413 0 4.4873641-3.841973 6.5724335-6.848819.8484209-1.22317.9526382-2.590631.9194235-3.064907-.0649855-.927482-.34346-1.741785-.8279625-2.420371z" fill="none" stroke="#545658" stroke-width="1.5" transform="translate(-30 -163)"/></svg>