<svg height="19" viewBox="0 0 19 19" width="19" xmlns="http://www.w3.org/2000/svg"><g fill="none" fill-rule="evenodd" stroke="#545658" stroke-width="1.5" transform=""><path d="m10.29135 2.375h7.916635" stroke-linecap="round" stroke-linejoin="round"/><path d="m10.29135 5.5415875h7.916635" stroke-linecap="round" stroke-linejoin="round"/><path d="m1.24374.7915894h5.428566c.24985 0 .4523805.2025381.4523805.4523786v5.4285755c0 .2498405-.2025305.4523805-.4523805.4523805h-5.428566c-.2498405 0-.4523824-.20254-.4523824-.4523805v-5.4285755c0-.2498405.2025419-.4523786.4523824-.4523786z"/><path d="m10.29135 13.458365h7.916635" stroke-linecap="round" stroke-linejoin="round"/><path d="m10.29135 16.625h7.916635" stroke-linecap="round" stroke-linejoin="round"/><path d="m1.24374 11.875h5.428566c.24985 0 .4523805.20254.4523805.45239v5.428585c0 .24985-.2025305.45239-.4523805.45239h-5.428566c-.2498405 0-.4523824-.20254-.4523824-.45239v-5.428585c0-.24985.2025419-.45239.4523824-.45239z"/></g></svg>