<svg height="20" viewBox="0 0 20 20" width="20" xmlns="http://www.w3.org/2000/svg"><g style="stroke:#545658;stroke-width:1.3;fill:none;fill-rule:evenodd;stroke-linecap:round;stroke-linejoin:round" transform="translate(1 1)"><path d="m10.10769 3.6c-.46155 0-.87693.23076-1.10769.6-.23076-.36924-.64614-.6-1.10769-.6-.73845 0-1.29231.6-1.29231 1.33845 0 1.29231 2.4 3.27693 2.4 3.27693s2.4-1.98462 2.4-3.27693c0-.73845-.55386-1.33845-1.29231-1.33845z"/><path d="m3 6-3 1.74v10.26h18v-10.26l-3-1.74"/><path d="m3 9.42v-9.42h12v9.36"/><path d="m0 7.74 18 10.26"/><path d="m18.00006 7.74-9.24 4.98"/></g></svg>