<svg width="20" height="20" viewBox="0 0 20 20" fill="none" xmlns="http://www.w3.org/2000/svg">
<path d="M10.833 2.5H19.1663" stroke="#545658" stroke-width="1.66667" stroke-linecap="round" stroke-linejoin="round"/>
<path d="M10.833 5.83325H19.1663" stroke="#545658" stroke-width="1.66667" stroke-linecap="round" stroke-linejoin="round"/>
<path d="M1.3092 0.833252H7.02348C7.28648 0.833252 7.49967 1.04645 7.49967 1.30944V7.02373C7.49967 7.28672 7.28648 7.49992 7.02348 7.49992H1.3092C1.04621 7.49992 0.833008 7.28672 0.833008 7.02373V1.30944C0.833008 1.04645 1.04621 0.833252 1.3092 0.833252Z" stroke="#545658" stroke-width="1.66667"/>
<path d="M10.833 14.1667H19.1663" stroke="#545658" stroke-width="1.66667" stroke-linecap="round" stroke-linejoin="round"/>
<path d="M10.833 17.5H19.1663" stroke="#545658" stroke-width="1.66667" stroke-linecap="round" stroke-linejoin="round"/>
<path d="M1.3092 12.5H7.02348C7.28648 12.5 7.49967 12.7132 7.49967 12.9762V18.6905C7.49967 18.9535 7.28648 19.1667 7.02348 19.1667H1.3092C1.04621 19.1667 0.833008 18.9535 0.833008 18.6905V12.9762C0.833008 12.7132 1.04621 12.5 1.3092 12.5Z" stroke="#545658" stroke-width="1.66667"/>
</svg>
