<?xml version="1.0" encoding="UTF-8"?>
<svg width="26px" height="26px" viewBox="0 0 26 26" version="1.1" xmlns="http://www.w3.org/2000/svg" xmlns:xlink="http://www.w3.org/1999/xlink">
    <!-- Generator: Sketch 52.2 (67145) - http://www.bohemiancoding.com/sketch -->
    <title>menu_search</title>
    <desc>Created with Sketch.</desc>
    <g id="desktop" stroke="none" stroke-width="1" fill="none" fill-rule="evenodd">
        <g id="find-a-registry" transform="translate(-1224.000000, -158.000000)" fill="#FFFFFF" fill-rule="nonzero" stroke="#CF2975" stroke-width="0.81">
            <g id="Group-6" transform="translate(657.000000, 103.000000)">
                <path d="M591.632885,77.8617011 L585.836702,72.0652979 C588.867561,68.1599466 588.593258,62.5025729 585.008533,58.9183671 C583.126489,57.0363335 580.624446,56 577.963332,56 C575.301968,56 572.800175,57.0363335 570.918382,58.9183671 C569.036339,60.8001503 568,63.3021804 568,65.9635308 C568,68.6248813 569.036589,71.1269114 570.918132,73.0089451 C572.800175,74.8907282 575.301968,75.9270617 577.963332,75.9270617 C580.202345,75.9270617 582.326878,75.1910821 584.066133,73.837611 L589.861815,79.6332627 C590.106308,79.8777542 590.426954,80 590.74735,80 C591.067746,80 591.388643,79.8777542 591.632885,79.6332627 C592.122372,79.1437786 592.122372,78.3506842 591.632885,77.8617011 Z M572.689452,71.237133 C571.280612,69.8283006 570.504799,67.9552851 570.504799,65.9632803 C570.504799,63.9710251 571.280612,62.09826 572.689703,60.6894277 C574.098292,59.2805954 575.971067,58.5047857 577.963332,58.5047857 C579.955347,58.5047857 581.828623,59.2805954 583.237463,60.6894277 C586.145324,63.5972737 586.145324,68.328786 583.237463,71.2368825 C581.828623,72.6457148 579.955347,73.4215245 577.963332,73.4215245 C575.971067,73.421775 574.098292,72.6459653 572.689452,71.237133 Z" id="menu_search"></path>
            </g>
        </g>
    </g>
</svg>