<svg height="19" viewBox="0 0 22 19" width="22" xmlns="http://www.w3.org/2000/svg"><path d="m4.24695877 15.2090747h1.17170083v-10.97602572h-1.17170083zm2.47638971 0h1.17170083v-10.97602572h-1.17170083zm2.5285304 0h2.34340162v-10.97602572h-2.34340162zm3.72073602 0h1.1717008v-10.97602572h-1.1717008zm2.6732354 0h2.3434017v-10.97602572h-2.3434017zm4.0506284 3.1916343h-2.5912164v-1.1254h2.5912164c.3298338 0 .5987391-.3055461.5987391-.6814296v-2.9356058h1.1717009v2.9356058c0 .9965416-.7938274 1.8068296-1.77044 1.8068296zm-13.75893139-.2763983h-3.05638162c-1.03695524 0-1.88116569-.7630211-1.88116569-1.7004793v-2.4893847h1.17170083v2.4893847c0 .3173628.31811678.5750794.70946486.5750794h3.05638162zm-3.76567072-12.3818753h-1.17170083v-2.93560578c0-.99597895.79382731-1.80682962 1.77043996-1.80682962h2.59121639v1.12539995h-2.59121639c-.32983379 0-.59873913.30610879-.59873913.68142967zm19.29527641-.27639823h-1.1717008v-2.48882199c0-.31736279-.3181168-.57564208-.7094649-.57564208h-3.0563816v-1.12539995h3.0563816c1.0375411 0 1.8811657.76302117 1.8811657 1.70104203z" fill="#333" fill-rule="evenodd" stroke="#333" stroke-width=".2"/></svg>