<svg height="23" viewBox="0 0 23 23" width="23" xmlns="http://www.w3.org/2000/svg"><path d="m12.4426726 21.3911333-.9194661-7.6067168c-.0226672-.1813379-.1615556-.3268205-.3416572-.3569061l-8.15691276-1.3674533 18.17995826-8.34319635zm9.9435041-18.82123537c-.1215789-.1257002-.3090988-.1607314-.4677696-.08778407l-20.45616225 9.38836254c-.16444059.0758323-.26005517.2493398-.23656365.4290292.02390364.1796895.1619678.3222871.34042087.3519606l9.17570253 1.5376638 1.0484633 8.6704289c.0222552.1805138.1607315.3259963.3395967.3564941.0234915.0037091.0465709.0061819.0700624.0061819.1541373 0 .2992077-.0869598.3692701-.2291452l9.8911633-19.95336151c.0770687-.15619795.0478073-.34454219-.0741837-.46983026z" fill="#cf2975" fill-rule="evenodd" stroke="#cf2975" transform="translate(0 -1)"/></svg>