<svg height="23" viewBox="0 0 23 23" width="23" xmlns="http://www.w3.org/2000/svg"><g fill="none" fill-rule="evenodd" transform="translate(1 1)"><path d="m4.09356129.95820645c-.84806452 0-1.61380645.80619355-2.29154839 1.51941936-.13625806.14335484-.26825806.28245161-.39812903.41232258-.65077419.65006451-.58477419 2.35825806.16748387 4.35316129.92967742 2.464 2.77696774 5.15651612 5.20193549 7.58148382 2.42425806 2.4235484 5.11535487 4.2708388 7.58006447 5.1998065 1.9949033.7536774 3.7030968.8175484 4.3524517.1681935.1298709-.1305806.2689677-.2618709.4123225-.398129.7288387-.6919355 1.5556129-1.4775484 1.5194194-2.3476129-.0248387-.5982581-.4605807-1.2419355-1.2951613-1.9125806-2.4973548-2.0090968-3.1956774-1.2994194-4.353871-.1249033l-.2270967.2292258c-.5535484.5542581-1.4527097.4307742-2.6733549-.3619354-.8466451-.5507097-1.8927097-1.4463226-3.1076774-2.662-3.00264516-3.00193552-3.96283871-4.83929036-3.02322581-5.78103229l.2263871-.22354839c1.17735484-1.15819355 1.88774194-1.85722581-.12135484-4.356-.67206451-.83387097-1.31503226-1.2696129-1.91329032-1.29516129-.01845161-.00070968-.03690323-.00070968-.05535484-.00070968m13.11270971 20.38974195c-.877871 0-1.9381291-.2207097-3.1034194-.66-2.5569677-.9637419-5.33819354-2.8685161-7.83199999-5.3623226-2.49451613-2.4945161-4.39929032-5.2764516-5.36374193-7.83270967-.87645162-2.32419355-.87858065-4.23180645-.00496774-5.10470968.1256129-.1256129.25335483-.26045161.38535483-.39954839.79696775-.83812903 1.69754839-1.78129032 2.89122581-1.73870967.82251613.03406451 1.61948387.54503226 2.4356129 1.56058064 2.41148387 2.99909678 1.32425807 4.06787097.066 5.30696774l-.22212903.22c-.20580645.20580646-.59470968 1.15890323 3.02322581 4.77683873 1.18090324 1.1809032 2.18793544 2.0452903 2.99270964 2.5676129.5067097.33 1.4129678.8274839 1.7848387.4563226l.2235484-.2256775c1.2376775-1.2554193 2.3064516-2.3390967 5.3034194.0702581 1.0155484.816129 1.5258064 1.6123871 1.559871 2.4363226.0489677 1.1922581-.9012904 2.0956774-1.7401291 2.8919355-.1383871.132-.2732258.2597419-.3988387.3846451-.4336129.4343226-1.1269677.6521936-2.0005806.6521936" fill="#85153a"/><path d="m4.09356129.95820645c-.84806452 0-1.61380645.80619355-2.29154839 1.51941936-.13625806.14335484-.26825806.28245161-.39812903.41232258-.65077419.65006451-.58477419 2.35825806.16748387 4.35316129.92967742 2.464 2.77696774 5.15651612 5.20193549 7.58148382 2.42425806 2.4235484 5.11535487 4.2708388 7.58006447 5.1998065 1.9949033.7536774 3.7030968.8175484 4.3524517.1681935.1298709-.1305806.2689677-.2618709.4123225-.398129.7288387-.6919355 1.5556129-1.4775484 1.5194194-2.3476129-.0248387-.5982581-.4605807-1.2419355-1.2951613-1.9125806-2.4973548-2.0090968-3.1956774-1.2994194-4.353871-.1249033l-.2270967.2292258c-.5535484.5542581-1.4527097.4307742-2.6733549-.3619354-.8466451-.5507097-1.8927097-1.4463226-3.1076774-2.662-3.00264516-3.00193552-3.96283871-4.83929036-3.02322581-5.78103229l.2263871-.22354839c1.17735484-1.15819355 1.88774194-1.85722581-.12135484-4.356-.67206451-.83387097-1.31503226-1.2696129-1.91329032-1.29516129-.01845161-.00070968-.03690323-.00070968-.05535484-.00070968zm13.11270971 20.38974195c-.877871 0-1.9381291-.2207097-3.1034194-.66-2.5569677-.9637419-5.33819354-2.8685161-7.83199999-5.3623226-2.49451613-2.4945161-4.39929032-5.2764516-5.36374193-7.83270967-.87645162-2.32419355-.87858065-4.23180645-.00496774-5.10470968.1256129-.1256129.25335483-.26045161.38535483-.39954839.79696775-.83812903 1.69754839-1.78129032 2.89122581-1.73870967.82251613.03406451 1.61948387.54503226 2.4356129 1.56058064 2.41148387 2.99909678 1.32425807 4.06787097.066 5.30696774l-.22212903.22c-.20580645.20580646-.59470968 1.15890323 3.02322581 4.77683873 1.18090324 1.1809032 2.18793544 2.0452903 2.99270964 2.5676129.5067097.33 1.4129678.8274839 1.7848387.4563226l.2235484-.2256775c1.2376775-1.2554193 2.3064516-2.3390967 5.3034194.0702581 1.0155484.816129 1.5258064 1.6123871 1.559871 2.4363226.0489677 1.1922581-.9012904 2.0956774-1.7401291 2.8919355-.1383871.132-.2732258.2597419-.3988387.3846451-.4336129.4343226-1.1269677.6521936-2.0005806.6521936z" stroke="#cf2975" stroke-width="1.2"/></g></svg>