<svg height="14" viewBox="0 0 22 14" width="22" xmlns="http://www.w3.org/2000/svg"><g fill="#545658" fill-rule="evenodd" stroke="#545658" transform="translate(1 1)"><path d="m10 1.07522429c4.5217391 0 8.3913043 4.10766046 9.2391304 5.07936508-.8478261.97170463-4.6956521 5.07936513-9.2391304 5.07936513-4.52173913 0-8.39130435-4.1076605-9.23913043-5.07936513.84782608-.97170462 4.69565217-5.07936508 9.23913043-5.07936508m-7.04347826 8.03864735c1.65217391 1.28088336 4.19565217 2.78260866 7.04347826 2.78260866 2.8478261 0 5.3913043-1.5017253 7.0434783-2.78260866 1.7608695-1.36922016 2.847826-2.69427192 2.8913043-2.7605245.0869565-.13250518.0869565-.28709455 0-.41959973-.0434783-.06625259-1.1304348-1.39130435-2.8913043-2.7605245-1.652174-1.25879917-4.1956522-2.7605245-7.0434783-2.7605245-2.84782609 0-5.39130435 1.50172533-7.04347826 2.7826087-1.76086957 1.34713595-2.84782609 2.69427191-2.89130435 2.7605245-.08695652.13250517-.08695652.28709455 0 .41959972.04347826.04416839 1.13043478 1.39130435 2.89130435 2.73844031"/><path d="m10.0000002 3.77823132c1.2819876 0 2.3236026 1.05814855 2.3236026 2.36048521 0 1.30233667-1.041615 2.36048521-2.3236026 2.36048521-1.28198768 0-2.32360265-1.05814854-2.32360265-2.36048521 0-1.30233666 1.04161497-2.36048521 2.32360265-2.36048521m0 5.20934667c1.5383852 0 2.804348-1.28605746 2.804348-2.84886146s-1.2659628-2.84886146-2.804348-2.84886146c-1.53838521 0-2.80434803 1.28605746-2.80434803 2.84886146s1.26596282 2.84886146 2.80434803 2.84886146"/></g></svg>