<svg height="24" viewBox="0 0 24 24" width="24" xmlns="http://www.w3.org/2000/svg"><g fill="#cf2975"><path d="m1.59884 2c.1516.114.2872.2496.4012.4012.114-.1516.2492-.2872.4012-.4012-.152-.114-.2872-.2496-.4012-.4012-.114.1516-.2496.2872-.4012.4012m.4012 2c-.2208 0-.4-.1792-.4-.4 0-.6616-.5384-1.2-1.2-1.2-.2208 0-.4-.1792-.4-.4s.1792-.4.4-.4c.6616 0 1.2-.5384 1.2-1.2 0-.2208.1792-.4.4-.4s.4.1792.4.4c0 .6616.5384 1.2 1.2 1.2.2208 0 .4.1792.4.4s-.1792.4-.4.4c-.6616 0-1.2.5384-1.2 1.2 0 .2208-.1792.4-.4.4"/><path d="m22.8 6.8c-.2208 0-.4-.1792-.4-.4v-1.6c0-.2208.1792-.4.4-.4s.4.1792.4.4v1.6c0 .2208-.1792.4-.4.4"/><path d="m23.6 6h-1.6c-.2208 0-.4-.1792-.4-.4s.1792-.4.4-.4h1.6c.2208 0 .4.1792.4.4s-.1792.4-.4.4"/><path d="m5.2 22.4c-.1024 0-.2048-.0392-.2828-.1172-.1564-.1564-.1564-.4092 0-.5656l1.6-1.6c.1564-.1564.4092-.1564.5656 0s.1564.4092 0 .5656l-1.6 1.6c-.078.078-.1804.1172-.2828.1172"/><path d="m6.8 22.4c-.1024 0-.2048-.0392-.2828-.1172l-1.6-1.6c-.1564-.1564-.1564-.4092 0-.5656s.4092-.1564.5656 0l1.6 1.6c.1564.1564.1564.4092 0 .5656-.078.078-.1804.1172-.2828.1172"/><path d="m19.2 18.8c0 .2208-.1792.4-.4.4s-.4-.1792-.4-.4.1792-.4.4-.4.4.1792.4.4"/><path d="m23.6 23.2c0 .2208-.1792.4-.4.4s-.4-.1792-.4-.4.1792-.4.4-.4.4.1792.4.4"/><path d="m4 16c0 .2208-.1792.4-.4.4s-.4-.1792-.4-.4.1792-.4.4-.4.4.1792.4.4"/><path d="m12.4.8c-3.97 0-7.2 3.5888-7.2 8s3.23 8 7.2 8 7.2-3.5888 7.2-8-3.23-8-7.2-8m0 16.8c-4.4112 0-8-3.9476-8-8.8s3.5888-8.8 8-8.8 8 3.9476 8 8.8-3.5888 8.8-8 8.8"/><path d="m9.6004 3.6c-.1332 0-.2636-.0668-.3396-.188-.1172-.1872-.0604-.434.1272-.5512.862-.5388 1.9876-.8608 3.012-.8608.2208 0 .4.1792.4.4s-.1792.4-.4.4c-.8672 0-1.8588.2832-2.588.7392-.066.0412-.1392.0608-.2116.0608"/><path d="m6.8 9.2c-.2212 0-.4-.1792-.4-.4.0008-1.818.6588-3.5892 1.8052-4.8588.148-.1644.4008-.1776.5648-.0292.164.148.1772.4012.0292.5648-1.0156 1.1252-1.5984 2.7008-1.5992 4.3232 0 .2212-.1792.4-.4.4"/><path d="m12.40116 15.6h-.0012c-.2212 0-.4-.1792-.4-.4s.1792-.4.4-.4h.0012c.594 0 1.284-.1384 1.8464-.37.2036-.0844.438.0128.5224.2176.084.2044-.0132.438-.2176.5224-.6544.2692-1.4584.43-2.1512.43"/><path d="m15.6002 14.4c-.116 0-.2308-.05-.3096-.1464-.14-.1708-.1152-.4232.056-.5628 1.4116-1.156 2.2536-2.9844 2.2536-4.8908 0-.2208.1788-.4.4-.4.2208 0 .4.1792.4.4 0 2.1436-.9516 4.2032-2.5468 5.5092-.0744.0612-.164.0908-.2532.0908"/><path d="m13.6 19.2h-2.4c-.2208 0-.4-.1792-.4-.4v-1.6c0-.2208.1792-.4.4-.4s.4.1792.4.4v1.2h1.6v-1.2c0-.2208.1792-.4.4-.4s.4.1792.4.4v1.6c0 .2208-.1792.4-.4.4"/><path d="m13.2 24c-.2208 0-.4-.1792-.4-.4s.1792-.4.4-.4c.2204 0 .4-.1796.4-.4v-.4c0-.2204-.1796-.4-.4-.4-.6616 0-1.2-.5384-1.2-1.2v-2c0-.2208.1792-.4.4-.4s.4.1792.4.4v2c0 .2204.1796.4.4.4.6616 0 1.2.5384 1.2 1.2v.4c0 .6616-.5384 1.2-1.2 1.2"/></g></svg>