<svg height="20" viewBox="0 0 20 20" width="20" xmlns="http://www.w3.org/2000/svg"><g fill="#333" fill-rule="evenodd" transform=""><path d="m15.8334118 2.5v-1.66666706c0-.22101294-.0877647-.43297529-.2441177-.58925529-.1562353-.15628024-.3682353-.24407765-.5891765-.24407765-.2210588 0-.4329411.08779741-.5892941.24407765-.1562353.15628-.2441176.36824235-.2441176.58925529v1.66666706z"/><path d="m5.83342353 2.5v-1.66666706c0-.22101294-.08778824-.43297529-.24407059-.58925529-.15628235-.15628024-.36824706-.24407765-.58925882-.24407765-.22101177 0-.43297647.08779741-.58925883.24407765-.15627058.15628-.24407058.36824235-.24407058.58925529v1.66666706z"/><path d="m17.5 19.1667059h-15c-.66304706 0-1.29892941-.2634118-1.76776706-.7322353-.46884117-.4688235-.73223294-1.1047059-.73223294-1.7677647v-10.83332943c0-.66303529.26339177-1.29891765.73223294-1.76776471.46883765-.46883529 1.10472-.73223529 1.76776706-.73223529h15c.6630588 0 1.2989412.2634 1.7677647.73223529.4688235.46884706.7322353 1.10472942.7322353 1.76776471v10.83332943c0 .6630588-.2634118 1.2989412-.7322353 1.7677647s-1.1047059.7322353-1.7677647.7322353zm.8332941-11.66665884h-16.66662351v9.16665884c0 .2210588.08778823.4329412.24407059.5892941.15628235.1562353.36824706.244.58925882.244h15c.2210588 0 .4329412-.0877647.5892941-.244.1562353-.1563529.244-.3682353.244-.5892941z" fill-rule="nonzero"/></g></svg>