<svg xmlns="http://www.w3.org/2000/svg" viewBox="0 0 370.14 95.99"><defs><style>.cls-1,.cls-2,.cls-3{fill:#008644;}.cls-1{fill-rule:evenodd;}.cls-3{font-size:9.21px;font-family:Myriad-Roman, Myriad Roman;}.cls-4{fill:#231f20;}.cls-5{fill:none;stroke:#231f20;stroke-width:0.75px;}</style></defs><title>Asset 1</title><g id="Layer_2" data-name="Layer 2"><g id="Layer_2-2" data-name="Layer 2"><polygon class="cls-1" points="39.93 38.35 53.11 38.35 53.11 44.34 47.71 44.34 47.71 50.02 52.52 50.02 52.52 55.71 47.71 55.71 47.71 68.28 39.93 68.28 39.93 38.35"/><path class="cls-1" d="M72.06,43.75V68.28h-7.6l.13-2a5.25,5.25,0,0,1-1.92,1.87,5.39,5.39,0,0,1-2.61.61,5.89,5.89,0,0,1-2.79-.59,3.9,3.9,0,0,1-1.64-1.57,5.84,5.84,0,0,1-.65-2q-.13-1.07-.13-4.23V43.75h7.47V60.44a18.38,18.38,0,0,0,.17,3.4q.18.54,1,.54t1-.55a20.07,20.07,0,0,0,.17-3.57V43.75Z"/><path class="cls-1" d="M82.4,43.75,82.1,47q1.63-3.46,4.71-3.66v8.63a6.25,6.25,0,0,0-3,.55A2.33,2.33,0,0,0,82.62,54a27.47,27.47,0,0,0-.22,4.55v9.69H74.93V43.75Z"/><path class="cls-1" d="M96.26,43.75,96.13,46a5.54,5.54,0,0,1,2-2,5.34,5.34,0,0,1,2.72-.68,5.14,5.14,0,0,1,3.14.91,4,4,0,0,1,1.57,2.29,20.78,20.78,0,0,1,.35,4.58V68.28H98.43v-17a15.81,15.81,0,0,0-.17-3.09q-.17-.55-.92-.55a.92.92,0,0,0-1,.65,15.85,15.85,0,0,0-.2,3.4V68.28H88.67V43.75Z"/><path class="cls-1" d="M116.34,38.35v3.9h-7.69v-3.9Zm0,5.4V68.28h-7.69V43.75Z"/><path class="cls-1" d="M127.09,40.48v3.86h2v3.88h-2V61.35a7.31,7.31,0,0,0,.24,2.7q.26.28,2.09.28v4h-3a22.45,22.45,0,0,1-3.64-.2,4,4,0,0,1-1.92-1,3.3,3.3,0,0,1-1-1.76,31.33,31.33,0,0,1-.2-4.66V48.22H118V44.34h1.61V40.48Z"/><path class="cls-1" d="M148,43.75V68.28h-7.6l.13-2a5.25,5.25,0,0,1-1.92,1.87,5.39,5.39,0,0,1-2.61.61,5.89,5.89,0,0,1-2.79-.59,3.9,3.9,0,0,1-1.65-1.57,5.84,5.84,0,0,1-.65-2q-.13-1.07-.13-4.23V43.75h7.47V60.44a18.36,18.36,0,0,0,.17,3.4q.18.54,1,.54t1-.55a20.07,20.07,0,0,0,.17-3.57V43.75Z"/><path class="cls-1" d="M158.37,43.75l-.3,3.22q1.63-3.46,4.71-3.66v8.63a6.25,6.25,0,0,0-3,.55A2.33,2.33,0,0,0,158.59,54a27.55,27.55,0,0,0-.22,4.55v9.69H150.9V43.75Z"/><path class="cls-1" d="M181.55,56.45h-9.67v5.3a5.86,5.86,0,0,0,.24,2.14.93.93,0,0,0,.92.48,1.1,1.1,0,0,0,1.13-.63,6.87,6.87,0,0,0,.3-2.48V58h7.08v1.81a15.74,15.74,0,0,1-.3,3.49,7,7,0,0,1-1.33,2.61A6.58,6.58,0,0,1,177.25,68a10.41,10.41,0,0,1-4,.68A11.79,11.79,0,0,1,169,68a6.79,6.79,0,0,1-2.83-1.87,6.92,6.92,0,0,1-1.39-2.62,17,17,0,0,1-.39-4.18V52.22a12.11,12.11,0,0,1,.87-5.06,5.91,5.91,0,0,1,2.85-2.85,10,10,0,0,1,4.55-1,10.06,10.06,0,0,1,5.18,1.2,6.45,6.45,0,0,1,2.87,3.16,14.61,14.61,0,0,1,.83,5.53Zm-7.49-4V50.66a9.07,9.07,0,0,0-.2-2.46.8.8,0,0,0-.83-.55q-.78,0-1,.48a9.71,9.71,0,0,0-.18,2.53v1.79Z"/><path class="cls-1" d="M211.29,38.35V68.28h-6.8V48.07l-2.72,20.2h-4.82l-2.87-19.74V68.28h-6.8V38.35h10.07q.44,2.7.94,6.36l1.07,7.62,1.77-14Z"/><path class="cls-1" d="M220,53.25h-7V51.61a11.67,11.67,0,0,1,.65-4.38,6.14,6.14,0,0,1,2.64-2.74,12.26,12.26,0,0,1,10.85.17,5.2,5.2,0,0,1,2.31,3.29,51.34,51.34,0,0,1,.39,8V68.28h-7.26V66.1a4.54,4.54,0,0,1-4.34,2.62,6.39,6.39,0,0,1-3.6-1.09Q213,66.52,213,62.81v-2q0-2.75.87-3.75t4.31-2.33q3.68-1.44,3.94-1.94a5.18,5.18,0,0,0,.26-2,6.58,6.58,0,0,0-.3-2.5,1,1,0,0,0-.94-.59q-.76,0-.94.5a9.82,9.82,0,0,0-.18,2.53Zm2.37,3.36a5.63,5.63,0,0,0-2.09,2.2,9,9,0,0,0-.28,2.55,7.67,7.67,0,0,0,.24,2.46,1,1,0,0,0,1,.55.9.9,0,0,0,.91-.42,6.83,6.83,0,0,0,.22-2.29Z"/><path class="cls-1" d="M239,43.75,238.7,47q1.63-3.46,4.71-3.66v8.63a6.25,6.25,0,0,0-3,.55A2.33,2.33,0,0,0,239.22,54a27.49,27.49,0,0,0-.22,4.55v9.69h-7.47V43.75Z"/><path class="cls-1" d="M252.08,40.48v3.86h2v3.88h-2V61.35a7.3,7.3,0,0,0,.24,2.7q.26.28,2.09.28v4h-3a22.45,22.45,0,0,1-3.64-.2,4,4,0,0,1-1.92-1,3.3,3.3,0,0,1-1-1.76,31.35,31.35,0,0,1-.2-4.66V48.22H243V44.34h1.61V40.48Z"/><path class="cls-1" d="M6.41,25.54C4.79,30.81,4,32.88,3.25,33.46a4.78,4.78,0,0,1-2,.71l-1,.12a.72.72,0,0,0,.08,1c1.29-.08,2.86-.12,4.35-.12q2.86,0,4.73.12a.77.77,0,0,0,.12-1l-1-.12c-1.41-.17-2.36-.33-2-1.7.17-.7.83-4,1.74-6.88L11.47,14.8c.71-2.28,1.12-3.65,1.33-3.65.66,1.37,1.66,4.11,2.78,6.84l3.28,8c2.7,6.63,3.32,8.46,3.86,10.12a1.22,1.22,0,0,0,1-.25c.75-2.57,1.2-4.15,2.61-8.54l3-9.29c1.29-4,2.82-7.75,3.4-8.34a4.46,4.46,0,0,1,2.16-.75l1-.17a.87.87,0,0,0,0-1c-1.2.08-2.36.12-3.94.12s-3.23,0-4.69-.12a.73.73,0,0,0-.25,1L28.51,9c1,.12,1,.46,1,1.2a45.71,45.71,0,0,1-2,7.67L24.28,28.28c-.21.66-.41,1.16-.7,1.16-.5-.91-1.2-2.7-2-4.69L17.35,14.43c-1.62-4-2-5.56-2-6V7.83H12.75c-.87,0-1.62,0-2.28,0s-1.33,0-1.95-.08a.63.63,0,0,0-.21,1L10,9.08c.7.12,1.08.33,1.08.91a29.53,29.53,0,0,1-1.37,4.93Z"/><path class="cls-1" d="M39.33,18.28a8,8,0,0,0-5,2c-4.52,3.48-6.18,8.54-6.18,11.16,0,2,.87,4.35,3.36,4.35,1.74,0,4.11-.66,6.63-3.77a.56.56,0,0,0-.54-.71c-1.82,1.58-2.86,2.41-4.35,2.41a2.13,2.13,0,0,1-2-2.36,10.43,10.43,0,0,1,.58-3.69c6-1.66,10.08-3.73,10.08-6.88A2.6,2.6,0,0,0,39.33,18.28Zm-.83,1.29a.88.88,0,0,1,1,1,4.68,4.68,0,0,1-1.62,2.82,12,12,0,0,1-5.56,3.07,16.5,16.5,0,0,1,3.07-4.85C36.84,19.94,37.92,19.57,38.5,19.57Z"/><path class="cls-1" d="M50.89,11.32C51.52,9.7,52.14,8.12,53,5.8l-.17-.25a16.52,16.52,0,0,0-5,.79.53.53,0,0,0-.12.58l1,.66c.58.37.46,1.12-.41,3.44L43.47,23.8C42.27,27,41.36,30,41.36,32c0,2.36,1.08,3.82,3.32,3.82,1.45,0,4.52-.75,7.92-4s5.35-6.88,5.35-9.75c0-2.12-1.12-3.73-3.57-3.73-3.11,0-5.89,2.82-8.79,7.22H45.5Zm2.86,8.38a1.34,1.34,0,0,1,1.45,1.49c0,2.36-3.07,7.63-5.64,10.53-1.78,2-3.36,2.78-4,2.78s-1.45-.54-1.45-2.16c0-1.91,1.29-5.31,3.9-8.29S52.63,19.69,53.75,19.69Z"/><path class="cls-1" d="M64.28,18.28c-2,0-3.57,1.74-4.89,4,0,.5.25.75.66.66.75-1,1.87-2.16,2.94-2.16.37,0,.46.41.33.87C62.21,25.7,59.6,33,59.06,34.7c-.29.91.91,1.08,1.37,1.08a.74.74,0,0,0,.71-.5c2.2-4.77,4.52-9.83,7-13.06.62-.83,1.08-1.24,1.45-1.24s.66.54.87,1.62c.17.87.83.83,1.33.21a5.15,5.15,0,0,0,.87-2.49c0-.62-.21-2-1.66-2-1,0-2.07.91-3,2.16a62.28,62.28,0,0,0-4.35,7h-.21l1.78-5.23C65.61,21.1,66.36,18.28,64.28,18.28Z"/><path class="cls-1" d="M84.31,20a2.4,2.4,0,0,0-.83-.87,2.05,2.05,0,0,0-1-.25,7.26,7.26,0,0,0-3.73,1.2,18.05,18.05,0,0,0-5.47,5.35c-2.74,3.77-3.65,7.09-3.65,8a2.09,2.09,0,0,0,1.82,2.32c1.95,0,6.18-2.86,9.12-6.51l.12,0L79.33,33a5.34,5.34,0,0,0-.41,1.62,1.14,1.14,0,0,0,1.2,1.12c2.28,0,5.23-2.32,7-4.64a.56.56,0,0,0-.58-.54c-2.36,2.07-3.57,2.78-4.27,2.78-.33,0-.54-.25-.29-1C83.27,28.65,86.88,19.48,87.5,18a1.73,1.73,0,0,0-2-.62Zm-3.11.46a2.18,2.18,0,0,1,2.07,1.49,20.05,20.05,0,0,1-5.56,9c-2.36,2.16-3.61,2.7-4,2.7s-.62-.29-.62-.79c0-2.94,2.53-8.38,5.18-10.74C79.54,20.89,80.2,20.44,81.2,20.44Z"/><path class="cls-1" d="M96,18.28a5.41,5.41,0,0,0-3.07,1.37c-1.78,1.53-2.49,2.74-2.49,4.35a8.4,8.4,0,0,0,1.45,3.86,8.51,8.51,0,0,1,1.53,3.65,2.26,2.26,0,0,1-2,2.36,4.66,4.66,0,0,1-2.86-1.66.83.83,0,0,0-1.12,0,2,2,0,0,0-.62,1.37,2.44,2.44,0,0,0,2.53,2.2,6.38,6.38,0,0,0,4.19-1.49,5.74,5.74,0,0,0,2.16-4c.08-1.82-.54-2.86-1.58-4.6-1.2-2-1.41-2.9-1.41-3.77a1.69,1.69,0,0,1,1.7-1.66A3.2,3.2,0,0,1,97,21.6a.68.68,0,0,0,.79.33,1.45,1.45,0,0,0,.75-1.29A2.5,2.5,0,0,0,96,18.28Z"/><path class="cls-1" d="M97.82,34.7c-.33,1,.87,1.08,1.33,1.08s.54-.17.7-.54L102,30c.5-1.24.71-1.45,1.53-1.66s1.2.29,1.53,1.37A39.66,39.66,0,0,0,107,34.12c.66,1.16,1.16,1.66,1.91,1.66s2.74-.83,4.19-3.94c0-.33-.17-.5-.54-.5-1.16,1.41-1.95,1.95-2.49,1.95s-.83-.46-1.33-1.37a24.64,24.64,0,0,1-1.53-3.9c-.08-.25-.17-.62.12-.79a13,13,0,0,0,6.64-3.65c1.53-1.41,1.7-2.53,1.7-3,0-.87-.58-2.28-3-2.28a7.77,7.77,0,0,0-4.48,1.58A20.64,20.64,0,0,0,104,24.13h-.08l4.27-12.27c1.2-3.52,1.7-4.93,2-6.1l-.25-.21A23.68,23.68,0,0,0,104.87,7a.37.37,0,0,0,.08.62l.75.37c.7.33.66.87-.29,3.77Zm14.64-13.56c0,.87-.91,2.32-2.65,3.48a16.18,16.18,0,0,1-6.1,2.7c-.54.08-.58-.21-.41-.62a16.49,16.49,0,0,1,3.82-4.52c1.41-1.2,2.94-2.11,4-2.11S112.46,20.65,112.46,21.14Z"/><path class="cls-1" d="M128.46,20a2.4,2.4,0,0,0-.83-.87,2.05,2.05,0,0,0-1-.25,7.26,7.26,0,0,0-3.73,1.2,18,18,0,0,0-5.47,5.35c-2.74,3.77-3.65,7.09-3.65,8a2.09,2.09,0,0,0,1.82,2.32c1.95,0,6.18-2.86,9.12-6.51l.12,0L123.49,33a5.33,5.33,0,0,0-.41,1.62,1.14,1.14,0,0,0,1.2,1.12c2.28,0,5.22-2.32,7-4.64a.56.56,0,0,0-.58-.54c-2.36,2.07-3.57,2.78-4.27,2.78-.33,0-.54-.25-.29-1,1.33-3.77,4.93-12.94,5.56-14.47a1.73,1.73,0,0,0-2-.62Zm-3.11.46a2.18,2.18,0,0,1,2.07,1.49,20.05,20.05,0,0,1-5.56,9c-2.36,2.16-3.61,2.7-4,2.7s-.62-.29-.62-.79c0-2.94,2.53-8.38,5.18-10.74C123.69,20.89,124.36,20.44,125.35,20.44Z"/><rect class="cls-2" x="40.04" y="73.09" width="5.31" height="5.31"/><rect class="cls-2" x="55.37" y="73.09" width="5.31" height="5.31"/><rect class="cls-2" x="86.01" y="73.09" width="5.31" height="5.31"/><rect class="cls-2" x="70.69" y="73.09" width="5.31" height="5.31"/><rect class="cls-2" x="98.37" y="70.65" width="155.91" height="9.05"/><text class="cls-3" transform="translate(252.7 46.35)">®</text><path class="cls-4" d="M305.69,73.39h2c.6,0,2.68,0,2.68,2.2a2,2,0,0,1-1.92,2.15l2.19,4h-.8l-2.12-4h-1.31v4h-.7Zm.7,3.69h1.49c1.48,0,1.77-.91,1.77-1.49s-.29-1.49-1.77-1.49h-1.49Z"/><path class="cls-4" d="M312.1,73.39h4.61v.71h-3.9v3h3.66v.71h-3.66v3.26h4.07v.71H312.1Z"/><path class="cls-4" d="M324.73,81.22a5.11,5.11,0,0,1-2.81.76c-2.3,0-3.89-1.84-3.89-4.4s1.6-4.4,3.89-4.4a3.44,3.44,0,0,1,2.71,1.16l-.51.59a2.92,2.92,0,0,0-2.2-1c-2,0-3.19,1.61-3.19,3.69s1.22,3.69,3.19,3.69a3.77,3.77,0,0,0,2.11-.5V78h-1.81v-.71h2.51Z"/><path class="cls-4" d="M326.9,73.39h.7v8.37h-.7Z"/><path class="cls-4" d="M330,80.22a1.87,1.87,0,0,0,1.72,1.05,1.6,1.6,0,0,0,1.69-1.64c0-2.34-3.88-1-3.88-4.15a2.26,2.26,0,0,1,2.41-2.29A2.36,2.36,0,0,1,334,74.23l-.61.49a1.64,1.64,0,0,0-1.47-.83,1.54,1.54,0,0,0-1.69,1.58c0,2.52,3.88,1,3.88,4.15A2.26,2.26,0,0,1,331.75,82a2.73,2.73,0,0,1-2.45-1.27Z"/><path class="cls-4" d="M337.46,74.1h-2.57v-.71h5.85v.71h-2.57v7.66h-.7Z"/><path class="cls-4" d="M342,73.39h2c.6,0,2.68,0,2.68,2.2a2,2,0,0,1-1.92,2.15l2.19,4h-.8l-2.12-4h-1.31v4H342Zm.7,3.69h1.49c1.48,0,1.77-.91,1.77-1.49s-.29-1.49-1.77-1.49h-1.49Z"/><path class="cls-4" d="M350,78.16l-2.76-4.77H348l2.28,4,2.33-4h.79l-2.77,4.77v3.61H350Z"/><polyline class="cls-5" points="274.01 24.67 271.12 24.67 271.12 85.46 274.01 85.46"/><polyline class="cls-5" points="365.04 24.67 367.93 24.67 367.93 85.46 365.04 85.46"/><path class="cls-4" d="M280.75,80c1.15-2.55,2.47-5,3.79-7.35a57.84,57.84,0,0,1,3-5.1c.88-1.37,1.76-2.84,2.65-4.12,1.32-2,2.74-3.82,4.15-5.69a63.84,63.84,0,0,1,6.27-7,3.08,3.08,0,0,0,1-1.76c0-.49.18-1,.18-1.47.35-2.25.53-4.51.79-6.77V39.71c0-.2,0-.29-.18-.39h-.09c-.18,0-.26.39-.53.59L297.87,45a56.2,56.2,0,0,1-4.32,5,10.87,10.87,0,0,1-3.26,2.16,1.74,1.74,0,0,1-1,.2,1.88,1.88,0,0,1-1.24-.39A6,6,0,0,1,286,49.52a3.44,3.44,0,0,1-.26-1.37,3.67,3.67,0,0,1,.09-1,16.12,16.12,0,0,1,1.76-4.9l.53-1.18,1.85-3a15.58,15.58,0,0,1,2.91-3.14,4.19,4.19,0,0,1,2.56-1,3.62,3.62,0,0,1,2.12.69,3.12,3.12,0,0,1,1.5,2.16v.88c0,.1-.18.2-.26.2h-.09a5.81,5.81,0,0,1-1.15-1c-.26-.2-.44-.39-.62-.39a1.17,1.17,0,0,0-.53.2,9.8,9.8,0,0,0-3,2.84,34.24,34.24,0,0,0-1.94,3,27.15,27.15,0,0,0-2.29,4.9c-.18.39-.18.78-.35,1.18v.1c0,.2.09.29.26.29s.09,0,.18-.1a2.69,2.69,0,0,0,.88-.49A20.6,20.6,0,0,0,295,43.83l3.88-4.8,3.44-4.61a1.08,1.08,0,0,1,1-.49h.35l.62.29a3,3,0,0,1,2,2.45c0,.59.09,1.08.09,1.67-.09,2.06-.09,4.12-.26,6.18a5.32,5.32,0,0,0-.09,1.18.2.2,0,0,0,.18.2h.09L310,44.12c1.5-1,3-1.77,4.32-2.75a2.76,2.76,0,0,1,.79-.1c.35.2.44.69.71.78v.1a.53.53,0,0,1-.26.39l-.62.49c-2,1.28-3.79,2.55-5.65,3.82A31.18,31.18,0,0,0,306.17,49c-.53.29-.62.78-.71,1.37L305.19,53c-.26,3-.53,6-.88,8.92-.18,1.57-.44,3.24-.71,4.9-.18,1.47-.62,2.94-.88,4.41a23.33,23.33,0,0,1-.88,3.33,71.56,71.56,0,0,1-2.29,7,38.22,38.22,0,0,1-3.88,7.35,16.76,16.76,0,0,1-6.62,6A11.28,11.28,0,0,1,284.81,96h-.35A6.06,6.06,0,0,1,283,95.6a8,8,0,0,1-4.24-6.28v-.78a11.86,11.86,0,0,1,.09-1.76A25.48,25.48,0,0,1,280.75,80ZM301,54.62a.3.3,0,0,0-.18-.1h-.18l-1.68,1.76-1.5,1.86c-1.24,1.67-2.56,3.33-3.71,5L291.16,67a83.15,83.15,0,0,0-4.24,7.16c-1,1.76-1.85,3.63-2.65,5.39a34.3,34.3,0,0,0-2.56,7.16,10.67,10.67,0,0,0-.26,2.35,8.23,8.23,0,0,0,.26,2.06,6.07,6.07,0,0,0,.44,1.37,1.14,1.14,0,0,0,1.06.69h.26a9.83,9.83,0,0,0,2.38-.79,17.71,17.71,0,0,0,4.32-3.24,26.73,26.73,0,0,0,3-4.31,36.81,36.81,0,0,0,2.12-4.71A63,63,0,0,0,298,71.87c.79-2.84,1.32-5.69,1.85-8.63.44-2.06.62-4.22.88-6.28ZM282.43,79.52a.39.39,0,0,0-.09.29Zm.09-.2c.09,0,0-.1,0-.1s-.09.2-.09.29C282.43,79.42,282.52,79.42,282.52,79.33Zm.44-.88-.09-.1v.2Zm.35-.69a1,1,0,0,0-.35.49A.64.64,0,0,0,283.31,77.76Zm.27-.59a.46.46,0,0,0-.27.49C283.49,77.56,283.49,77.36,283.58,77.17Zm2.91-5.39a1.56,1.56,0,0,0,.35-.78l-.44.29-.62,1c-.09,0-.09-.1-.09-.1l-.09.1-.35.59a.79.79,0,0,0-.18.49c-.18.2-.26.29-.26.49l-.27.49a1.77,1.77,0,0,0-.26.59l-.62,1c-.09.1-.18.2-.18.29s0,.2.09.2v.79a2.57,2.57,0,0,0,.44-.59Zm5-8.82s0,.1.09.1l-.35.49a1,1,0,0,1-.09.49l-.44.29a4.68,4.68,0,0,0-.09.49l-.53.29h.09l-.26.49a1.11,1.11,0,0,1-.18.49l-.44.29-.09-.1-.09.1-.26.49s-.18.1-.09.1v.2l-.18.49-.35.49a.3.3,0,0,1-.18-.1c-.09,0-.09.1-.09.1a1.51,1.51,0,0,1-.18.59h-.09v.2l-.26.59-.09-.1a.09.09,0,0,0-.09.1l-.62,1h.26a1,1,0,0,0-.09.49l.35-.49a4.38,4.38,0,0,0,1.06-1.76,10.92,10.92,0,0,0,1.59-2.55,2.37,2.37,0,0,0,.88-1.27,1.53,1.53,0,0,0,.53-.78,10.56,10.56,0,0,0,1.59-2.35,1.21,1.21,0,0,0,.53-.78.93.93,0,0,0-.62.69,5.39,5.39,0,0,1-1,1.08c-.09,0-.09-.1-.09-.1l-.09.1A.32.32,0,0,0,291.52,63Zm-4,8.63a1.51,1.51,0,0,0,.18-.59c-.09.2-.09.39-.18.49l-.09.1Zm1.59-28.93a.49.49,0,0,0-.35.49C289,43,289,42.85,289.13,42.65Zm.18-.49c-.18.1-.18.29-.18.49C289.31,42.55,289.31,42.36,289.31,42.16Zm2.12-4.41-.35.59-.26.2c-.18.1-.18.29-.26.59-.09,0-.18.1-.26.2a1.76,1.76,0,0,0-.18.49.56.56,0,0,0-.35.59H290l-.35.79a1.86,1.86,0,0,0-.35,1,3.2,3.2,0,0,1,.53-.59l1.94-3,1.32-1.77c.09,0,0-.1,0-.2H293l-.88.88a7.19,7.19,0,0,0-.79.88C291.34,38.14,291.43,37.95,291.43,37.75Zm-1.5,27.85a.3.3,0,0,1-.18-.1c-.09,0-.09.1-.09.1Zm0,1.76a1,1,0,0,0,.35-.49Zm.62-1a.52.52,0,0,1,.18-.29C290.55,66.19,290.55,66.19,290.55,66.38Zm.71-1c-.26.1-.35.39-.53.69C291.08,66,291.16,65.7,291.25,65.4Zm.35-.59a.41.41,0,0,0-.26.39C291.43,65.11,291.6,64.91,291.6,64.81Zm0-24.42a2.11,2.11,0,0,1,.35-.59l-.53.49.09.1ZM294,86a1.57,1.57,0,0,0-.79,1.27.72.72,0,0,0-.53.69c.18,0,.26-.1.44-.2A3.46,3.46,0,0,1,292,89.42a3.48,3.48,0,0,0-.44.79l.62-.29a20.46,20.46,0,0,0,3.27-5,.8.8,0,0,0,.18-.49c-.44.59-.88,1.18-1.24,1.76-.18.29-.35.69-.71.78Zm-1.85-22a.46.46,0,0,0-.26.49C292,64.42,292,64.22,292.13,64Zm1.32-26.28-.35.29a1.7,1.7,0,0,0-.79,1,.93.93,0,0,0-.35.78c.26-.1.35-.39.44-.69a1.57,1.57,0,0,0,.79-1.08,1.13,1.13,0,0,0,.26-.2Zm-.79,25.49a1.14,1.14,0,0,0-.53.78C292.49,63.93,292.58,63.64,292.66,63.24Zm.53-.69a1,1,0,0,0-.53.69A1,1,0,0,0,293.19,62.56Zm-.35,28a1.83,1.83,0,0,0,.53-.39,19.22,19.22,0,0,0,1.94-2.65.77.77,0,0,0,.18-.59c-.18.1-.18.2-.26.29l-2.12,2.84Zm.88-28.83a.83.83,0,0,0-.53.69A.82.82,0,0,0,293.72,61.77Zm-.35-.78a1.62,1.62,0,0,0,.79-1.08A1.39,1.39,0,0,0,293.37,61Zm7.77-23.73h.26a1,1,0,0,0-.09.49l-.53.29v-.1a.3.3,0,0,1-.18.1l-.26.29h.26c0,.1-.09.29-.09.39l-.53.39V39a.26.26,0,0,0-.18.1c-.09,0-.18.1-.26.2s-.09.1,0,.1v.2a.85.85,0,0,0-.27.49.3.3,0,0,1-.18-.1c-.09,0-.09.1-.09.1l-.26.29v.2a1.21,1.21,0,0,1-.53.78c-.09,0-.09-.1-.09-.1l-.09.1c-.09,0-.09.1-.09.1s0,.1.09.2a2.57,2.57,0,0,1-.62.78c-.09,0-.09-.1-.09-.1l-.09.1h-.09c0,.1,0,.2.09.2a1.78,1.78,0,0,0-.44.78c-.26.2-.35.49-.53.69A3.94,3.94,0,0,0,295,45.79c-.09,0-.09.1-.18.2l-1.24,1.27c-.09,0-.09.1-.09.2h.09a3.53,3.53,0,0,0,1.24-1.37l.26-.29a3.39,3.39,0,0,0,1.32-1.47,10.63,10.63,0,0,1,1-1.08c.88-1.18,1.94-2.45,2.82-3.73l.44-.69a2.09,2.09,0,0,0,.79-1,2.35,2.35,0,0,0,.79-1.08,4.27,4.27,0,0,0,.62-.69V36c0-.1-.09-.1-.18-.1a.3.3,0,0,1-.18.1c-.09,0-.09-.1-.09-.1l-.09.1c-.09,0-.09.1-.09.1v.2a.65.65,0,0,0-.09.39l-.44.39-.09-.1a.09.09,0,0,0-.09.1A.65.65,0,0,0,301.13,37.26ZM294.25,61a.84.84,0,0,0-.53.78A.92.92,0,0,0,294.25,61Zm.09,24.42A.67.67,0,0,0,294,86,2.06,2.06,0,0,0,294.34,85.4Zm-.18-25.49a1,1,0,0,0,.53-.69,1.88,1.88,0,0,0,.79-1.08,1.43,1.43,0,0,0-.79,1C294.43,59.32,294.16,59.52,294.16,59.91Zm.35,25c-.18.1-.18.29-.18.49C294.52,85.31,294.52,85.11,294.52,84.91Zm.53-25a1.52,1.52,0,0,0-.53.78A.84.84,0,0,0,295,59.91Zm-.53,25a.64.64,0,0,0,.35-.49A1,1,0,0,0,294.52,84.91Zm.35-37.55A2,2,0,0,0,295.93,46,2.3,2.3,0,0,0,294.87,47.36Zm0,37.06c0-.1.09-.1.09-.2s0-.1,0-.1a.09.09,0,0,0-.09.1Zm.71-25.2a.93.93,0,0,0-.26.49Zm-.09-1.08a1.61,1.61,0,0,0,.79-1.08A1.39,1.39,0,0,0,295.49,58.15Zm.71,24.71a3.41,3.41,0,0,0-.62,1.57,2.8,2.8,0,0,0,.71-1.47v-.1ZM295.93,46c.09,0,.18-.1.26-.2Zm.44,12.26c-.18.1-.18.29-.26.39A.41.41,0,0,0,296.37,58.24Zm-.18-12.45a1.61,1.61,0,0,0,.79-1.08A1.57,1.57,0,0,0,296.19,45.79Zm.26,11.08a1.23,1.23,0,0,0,.79-1.08A1.94,1.94,0,0,0,296.46,56.87Zm1,0a1,1,0,0,0-.53.78A.92.92,0,0,0,297.43,56.87Zm-.18-12.36a.82.82,0,0,0,.44-.78A.78.78,0,0,0,297.25,44.52Zm.79-1.08c.35-.1.44-.39.53-.78A.82.82,0,0,0,298,43.44ZM298,55a.85.85,0,0,0,.53-.59C298.22,54.52,298.13,54.71,298,55Zm.79-12.55a1.53,1.53,0,0,0,.53-.78A.74.74,0,0,0,298.84,42.46Zm.79-1.08a1,1,0,0,0,.53-.78C299.9,40.79,299.63,41,299.63,41.38Zm.18,12.85a1,1,0,0,0,.53-.69A.82.82,0,0,0,299.81,54.22Zm.62-13.83a1.52,1.52,0,0,0,.53-.78A.85.85,0,0,0,300.43,40.4Zm.79-1.08a1.15,1.15,0,0,0,.71-1A1.33,1.33,0,0,0,301.22,39.32Zm1.32-1.86a2.1,2.1,0,0,0-.35.59c.18-.2.35-.29.44-.49v-.1Z"/><path class="cls-4" d="M316.4,40.69V40.2A.91.91,0,0,0,316,41c.18-.2.26-.29.35-.29a.81.81,0,0,0-.09.39.65.65,0,0,0,.09.39A34.4,34.4,0,0,0,313.84,48a14.06,14.06,0,0,0-.44,2.25c.18-.1.18-.59.44-.78.53-2,1.15-3.92,1.85-5.79a20.74,20.74,0,0,0,1.59-3.53c.35-.29.53-.49.53-.69s.09-.39.18-.39c.53,0,.53.49.62.69V40a.3.3,0,0,1,.18-.1c.09,0,.09-.1.09-.1.26,0,.44.1.44.2a2.21,2.21,0,0,1-.35,1.08,37.3,37.3,0,0,1-1.32,4.12c-.62,2.45-1.41,4.8-1.94,7.26a25.4,25.4,0,0,0-.71,5.29v1.47c.09,0,.18.1.26.1a1.39,1.39,0,0,0,.79-.49,43,43,0,0,0,3.44-3.73,42.43,42.43,0,0,1,3.79-4.31,43.46,43.46,0,0,1,3.09-3.92,60.12,60.12,0,0,0,3.79-4.8l.44-.69a4,4,0,0,1,.26,1v.2c0,.2-.09.49-.09.69a7.1,7.1,0,0,1-1.41,3.14c-.35.2-.71.39-.79.69l-.09.1a24.78,24.78,0,0,0-2.74,3.53c-1.68,2-3.18,4-4.59,5.79a31.12,31.12,0,0,1-1.77,2.65,20.27,20.27,0,0,1-1.24,1.67l-1.32,1.37a2.58,2.58,0,0,1-1.24.29,3.28,3.28,0,0,1-1-.1c-.26-.2-.71-.29-1-.69a5.17,5.17,0,0,1-1.24-.69,7.11,7.11,0,0,1-1-1.67,9.41,9.41,0,0,1-.62-3.14,23.45,23.45,0,0,1,.79-6.57,15.27,15.27,0,0,1,1.06-4.41l1.68-3.73a24.93,24.93,0,0,1,1.76-2.84c.09-.29.53-.29.62-.29.09.29.09.39.18.49s-.09.2-.09.29a.81.81,0,0,1,.09.39h.18v.2c0,.1,0,.1-.09.2A.73.73,0,0,1,316.4,40.69Zm-3.62,9.12c0-.1,0-.1.18-.2-.18,0-.18.1-.18.1Zm.18-1a.81.81,0,0,0-.09.39.39.39,0,0,0,.09.29.2.2,0,0,0,.18-.2A1.79,1.79,0,0,0,313,48.83Zm.09-.39c-.09.1-.09.1-.09.39C313,48.73,313,48.63,313,48.44Zm.27-.69c-.09.1-.09.2-.09.69A1.59,1.59,0,0,0,313.31,47.75Zm.09,2.55a.39.39,0,0,0-.09.29V51a.39.39,0,0,0,.09-.29Zm.09-3c-.09.1-.09.1-.09.2v.29c.09-.1.18-.2.18-.29S313.49,47.36,313.49,47.26Zm.79-2.16a4.14,4.14,0,0,0-.79,2.16A4.13,4.13,0,0,0,314.28,45.1Zm.18-.39c-.18,0-.18.2-.18.39A.78.78,0,0,0,314.46,44.71Zm0-.49v.39a.09.09,0,0,0,.09-.1C314.55,44.42,314.46,44.32,314.46,44.22Zm1.06-2.16a3.4,3.4,0,0,0-1,2.16A3.19,3.19,0,0,0,315.52,42.06Zm.35-.49c-.18.1-.35.1-.35.49C315.61,42,315.87,41.87,315.87,41.57ZM316,41c-.18.1-.26.1-.26.2s.09.29.09.39C316,41.48,316,41.18,316,41Zm.88-1.47c-.44.1-.53.29-.53.69.26-.2.53-.2.62-.29A.81.81,0,0,0,316.93,39.51Zm.53-.49a.32.32,0,0,0,.09.2.5.5,0,0,0-.44.2c.09-.1.09-.2.26-.29,0-.1.18-.2.18-.29l.09-.1v.1C317.55,38.93,317.46,38.93,317.46,39Zm.79,20.3c0,.1-.09.1-.18.2a1.07,1.07,0,0,0-.09.29c0-.1.18-.1.18-.29S318.25,59.42,318.25,59.32Zm.71-.78c-.26.1-.35.39-.71.78A1.19,1.19,0,0,0,319,58.54Zm3.35-27.16a1.26,1.26,0,0,0-.79.88.94.94,0,0,0-.26.69,1,1,0,0,0,.09.49,3.14,3.14,0,0,0-.35,1,1.63,1.63,0,0,0-.44.1c-.09,0-.09-.29-.26-.29v-.29c-.18-.2-.62-.29-.71-.78s-.35-.29-.62-.59c-.26-.1-.26-.29-.26-.49a3.6,3.6,0,0,1,1.15-2.65c.09-.2.35-.2.53-.2s.26,0,.35.1a3.13,3.13,0,0,1,1,.49c.35.2.62.69.88,1C322.4,30.89,322.4,31.28,322.31,31.38Zm-2.56,26c-.26.1-.44.2-.53.79.44-.29.53-.39.53-.59Zm-.09-.88c0-.1.09-.1.18-.29v-.1a.09.09,0,0,1-.09.1A1.06,1.06,0,0,0,319.67,56.48Zm.27.59c0,.1-.09.2-.18.29h.09A.38.38,0,0,0,319.93,57.07Zm.53-.59a.69.69,0,0,0-.53.59A.84.84,0,0,0,320.46,56.48ZM320,30.4h.18a.52.52,0,0,1-.09-.29c-.09,0-.09.1-.09.2Zm0,25.49c.18-.1.44-.2.44-.39s-.09-.1-.09-.2C320.11,55.4,320.11,55.6,320,55.89Zm.88-25.79V30l-.09.1h-.26v-.2c-.35,0-.35.1-.44.2h.26a.41.41,0,0,0-.18.39.39.39,0,0,1,.09.29C320.81,30.69,320.9,30.49,320.9,30.1Zm-.53,25.1a.31.31,0,0,1,.26-.1c.09-.1.09-.2.18-.2h-.09Zm.71.2-.35.78A1.54,1.54,0,0,0,321.08,55.4Zm.18-.29h-.09v.1A.09.09,0,0,0,321.25,55.11Zm0-.88c0-.1.09-.1.18-.2v-.1l-.09.1C321.34,54.13,321.25,54.13,321.25,54.22Zm.62.29c-.26.2-.53.29-.62.59C321.52,55,321.78,54.91,321.87,54.52Zm-.18-1s0,.1.09.1v-.2C321.7,53.44,321.7,53.54,321.7,53.54Zm.09-.1a.41.41,0,0,1,.26-.1.78.78,0,0,1,.18-.39c-.09,0-.09.1-.18.1-.18.2-.18.29-.26.29Zm.35,1-.09-.1c-.09,0-.09.1-.18.2H322A.26.26,0,0,0,322.14,54.42Zm.53-.78c-.26.2-.53.39-.53.78A1,1,0,0,0,322.67,53.63Zm-.44-.69a1.63,1.63,0,0,0,.71-.69A1,1,0,0,0,322.22,52.95Zm.79.1a1.1,1.1,0,0,1-.18.39.2.2,0,0,0-.18.2c.09,0,0-.1.18-.1a.2.2,0,0,1,.18-.2Zm.35-.59c0,.1-.09.1-.18.2C323.28,52.56,323.37,52.56,323.37,52.46Zm1-1.18h-.09c0,.2,0,.2-.09.29.09-.1.09-.1.18-.1Zm.62-1.57c0-.1.18-.29.26-.29v-.1l-.26.29Zm1.24-1.47c-.35.1-.53.2-.53.49l-.09.29A1.77,1.77,0,0,0,326.2,48.24ZM326,49.42c-.09,0-.09.1-.18.1-.09.2-.09.29-.18.29a.3.3,0,0,0,.18-.1Zm.26-.39c-.18,0-.18.1-.26.2Zm.35-1.27-.09.1A.09.09,0,0,0,326.64,47.75Zm-.09.78c0-.1.09-.1.27-.2C326.64,48.44,326.55,48.44,326.55,48.54Zm.53-1.57-.26.29v.29c.18-.1.18-.1.18-.2S327.08,47.16,327.08,47Zm.35.69c-.26.1-.35.29-.62.69C327.25,48.24,327.34,48,327.43,47.65Zm1.06-2a1.94,1.94,0,0,0-.88.78C328,46.38,328.22,46.18,328.49,45.69Zm.79-1.27c-.26.2-.44.29-.44.59-.09.1-.09.1-.09.2C329,45.1,329.2,44.91,329.28,44.42Zm0,1.08a.85.85,0,0,0-.53.59c.27-.1.53-.2.53-.49Zm.79-2.16a1.44,1.44,0,0,0-.53.88A1.21,1.21,0,0,0,330.08,43.34ZM330,44.52c-.18.1-.18.2-.18.2Zm.35-.49a1.08,1.08,0,0,0-.26.2c.09,0,.09-.1.26-.1Zm.35-1.67a.64.64,0,0,0-.44.39v.39A.89.89,0,0,0,330.7,42.36Z"/><path class="cls-4" d="M346.67,40.1v.1a2.4,2.4,0,0,1-.62,1.47,7.68,7.68,0,0,1-2.82,1.67,42.21,42.21,0,0,1-4.94,1.57l-4.15.78c-.18,0-.26.1-.35.1s-.18.1-.18.2.09.1.09.2c0,.79.18,1.37.18,2.06l.18,1.37a10.26,10.26,0,0,1,.35,1.76,2.39,2.39,0,0,0,.09.78c.09,1.18.18,2.35.18,3.43a21.17,21.17,0,0,1-.71,5.79l-.62,3.24-1.06,2.65a4.91,4.91,0,0,1-.88,1.47A3.05,3.05,0,0,1,330,69.91h-.26a2.2,2.2,0,0,1-.79-.1,9.88,9.88,0,0,1-3-2.35l-.53-1.18-.62-2.16c-.09-1.57-.26-3.24-.26-4.8a13.93,13.93,0,0,1,.09-2,124.79,124.79,0,0,1,1.15-14.12l.18-2.06,1-4.8c.35-1.86.88-3.82,1.24-5.59.44-1.57.79-3,1.15-4.71l.88-3.63.35-.88a12,12,0,0,0,.53-1.67l1.15-3A45.27,45.27,0,0,0,334,12.55c.71-1.37,1.59-2.65,2.21-3.82a9.72,9.72,0,0,1,1.94-2,1.3,1.3,0,0,1,1.24-.59,4.77,4.77,0,0,1,1.85.39,3.47,3.47,0,0,1,1.85,2.35,8.43,8.43,0,0,1,.18,1.37,2.12,2.12,0,0,1-.09.78c-.18,2.06-.62,3.82-1,5.79a43.85,43.85,0,0,1-1.59,5.2l-1.06,3.24a78.59,78.59,0,0,1-4.24,9.31,67,67,0,0,1-3.44,6.18c-.53.78-.88,1.67-1.41,2.45a8.92,8.92,0,0,0-1.32,4c-.44,3.92-1,7.75-1.24,11.57,0,.78-.09,1.67-.09,2.45a30.18,30.18,0,0,0,.35,4.8V67c.18.2.35.39.53.39a.3.3,0,0,0,.26-.1,10,10,0,0,0,1.32-2.06c.53-1.08,1-2.25,1.41-3.33a6.1,6.1,0,0,0,.26-1.76,16.22,16.22,0,0,0,.88-5.49v-.49a21.31,21.31,0,0,0-.18-2.25v-.29a33.9,33.9,0,0,0-1.24-5.79l-.18-.88a.64.64,0,0,1-.09-.39.92.92,0,0,1,.53-.79l1-.2c1.68-.29,3.71-.59,5.47-1.08a17,17,0,0,0,2.91-1c1.15-.49,2.91-1.67,4.41-1.67a2.37,2.37,0,0,1,.88.2h.18A.09.09,0,0,1,346.67,40.1ZM325.84,51.38c.09-.1.09-.1.09-.2v-.1s0-.1-.09-.1Zm.44,3.73V55c-.18,0-.18,0-.18.1v.2A.18.18,0,0,1,326.28,55.11Zm0-1.47c0,.1-.09.2-.09.29s0,.1.09.2v.2h.09A1.61,1.61,0,0,0,326.28,53.63Zm.53-3.53v-.79h-.18a6.36,6.36,0,0,1-.18,1.28l-.18,1.67a5.76,5.76,0,0,0,.09,1.27h-.09v.1h.09Zm-.09-6.37a.46.46,0,0,1,.09.29c.09,0,.18-.2.18-.2a7.4,7.4,0,0,1,.26-1.18c.44-3,1-6.08,1.68-9,.53-2.55,1.15-5.2,1.85-7.65a3.71,3.71,0,0,0,.09-1l-.26.69c-.62,2.16-1.24,4.41-1.68,6.67-.71,3.33-1.41,6.47-1.94,9.81A9.75,9.75,0,0,1,326.73,43.73Zm5.12-20.49a79,79,0,0,0-2.38,9.61c-.71,3.14-1.41,6.08-1.94,9.22v1.08c0,.1,0,.1.09.2a.09.09,0,0,0,.09-.1,2.53,2.53,0,0,0,.18-.78l2.21-11c1.06-3.73,1.85-7.65,3.18-11.28.79-2.26,1.68-4.61,2.65-6.77a1.84,1.84,0,0,0,.35-1.18c-.18.2-.35.29-.35.69A8.91,8.91,0,0,1,334.84,15,81.24,81.24,0,0,0,331.84,23.24Zm-2.47,16.67v-.29a.64.64,0,0,0-.09.39v.29A.64.64,0,0,0,329.37,39.91Zm.09-.39h-.09v.1h.09Zm0,0a1.39,1.39,0,0,0,.26-.69.64.64,0,0,0-.09-.39A1.79,1.79,0,0,0,329.46,39.52Zm.44-2.35a1,1,0,0,0-.27.78v.49A2.22,2.22,0,0,0,329.9,37.16Zm.09-.78a2.12,2.12,0,0,0-.09.78A1.87,1.87,0,0,0,330,36.38Zm7.5-23.24a.9.9,0,0,0-.44.39A8.85,8.85,0,0,0,336,15.39a82.68,82.68,0,0,0-4.5,14,35.57,35.57,0,0,1-1.41,5.29v.2c0,.29-.09.88-.09,1.27v.2a9.33,9.33,0,0,0,.62-1.37c.53-2.84,1.24-5.59,2-8.33a54.58,54.58,0,0,1,2.74-8.43,45.9,45.9,0,0,1,1.76-4.41A1,1,0,0,0,337.49,13.14ZM330.87,25c.09,0,.09-.1.18-.1l.88-3.43v-.29a1.19,1.19,0,0,0-.18.29,26.17,26.17,0,0,0-.79,3.14A.64.64,0,0,0,330.87,25Zm6.88-9.61a26,26,0,0,0-2,5.2A32.44,32.44,0,0,0,334,25.2c-.44,1.86-1,3.53-1.41,5.39A52.34,52.34,0,0,0,331.4,36c-.09.1-.09.1-.09.2v.2c0,.1.09.1.09.2h.09c.18-.2.35-.29.35-.49.53-1,1-1.77,1.41-2.75a43.59,43.59,0,0,1,1.94-4.12c.71-1.57,1.24-3.24,1.94-4.8.62-2,1.24-3.82,1.76-5.79s.88-3.82,1.24-5.69c0-.69.09-1.28.09-1.77v-.29c-.09,0-.09-.1-.09-.1H340a3.38,3.38,0,0,0-.53,1C338.9,12.94,338.2,14.22,337.76,15.39ZM331.67,65a.55.55,0,0,0-.26.49v.2A.94.94,0,0,0,331.67,65Zm.53-1.67a3.66,3.66,0,0,0-.53,1.67C332.11,64.62,332.11,64,332.2,63.34Zm-.26-42.26c.18-.1.18-.2.18-.39A.78.78,0,0,0,331.93,21.08Zm.26,44.42a.94.94,0,0,0-.26.69A.94.94,0,0,0,332.2,65.5Zm0-44.81a.81.81,0,0,0,.09-.49A1,1,0,0,0,332.2,20.69Zm1.5,36.87a.53.53,0,0,0-.18-.29c-.09.1-.09.39-.18.39a.28.28,0,0,0-.18.29.64.64,0,0,0,.09.39c-.18.1-.18.1-.18.2v.2A.39.39,0,0,1,333,59c-.09,0-.18,0-.18.1s.09.2.18.29v.1c0,.1-.09.2-.18.29s-.09.1-.09.2a.39.39,0,0,0-.09.29.28.28,0,0,0,.18.29,1.38,1.38,0,0,1-.09.59.73.73,0,0,1-.35.39v.1a.64.64,0,0,1,.09.39,1.53,1.53,0,0,1-.18.69.39.39,0,0,0-.09.29v.29c.09,0,.09-.1.09-.2v-.29a1.28,1.28,0,0,0,.44-.59,22.62,22.62,0,0,1,.62-2.65l.26-1.76C333.61,57.75,333.7,57.66,333.7,57.56ZM332.37,65a.41.41,0,0,0-.18.39A.53.53,0,0,0,332.37,65Zm-.09-44.91c0-.1.09-.2.09-.29A.39.39,0,0,0,332.28,20.1ZM333.08,63a8.41,8.41,0,0,0-.71,2.06A3,3,0,0,0,333.08,63Zm-.18-44.32H333v-.2h-.09Zm.26,43.93c-.18,0-.18.2-.18.29S333.17,62.66,333.17,62.56Zm0-.1a.53.53,0,0,0,.18-.39C333.17,62.17,333.17,62.26,333.17,62.46Zm.26-.69v-.39c-.09.1-.18.2-.18.29s.09.2.09.39A.39.39,0,0,0,333.43,61.77Zm.18-1a1.76,1.76,0,0,0-.18.49C333.61,61.19,333.61,61.09,333.61,60.79Zm.09-.2a4.7,4.7,0,0,0-.09-.49v.69C333.7,60.7,333.7,60.7,333.7,60.6Zm0-.59.09-.1v-.1C333.7,59.91,333.7,59.91,333.7,60Zm.53-26.57c0,.1-.09.1-.09.2,0-.1.09-.1.18-.2Zm1.15-2a1.22,1.22,0,0,0-.18.29c.09-.2.18-.2.26-.29Zm.09,1.57c0,.1-.09.1-.18.2l.27-.2Zm.44-2.94a.8.8,0,0,0-.26.69C335.9,30.69,335.9,30.49,335.9,30.1Zm.26-.78a1,1,0,0,0-.26.78A1.19,1.19,0,0,0,336.17,29.32Zm-.09,2.16a.39.39,0,0,0-.09.29C336,31.67,336.08,31.57,336.08,31.47Zm.09-.2a.09.09,0,0,0,.09-.1C336.17,31.18,336.17,31.28,336.17,31.28Zm.09-19a.41.41,0,0,0,.26-.39v-.2A.88.88,0,0,0,336.25,12.26Zm.26,16.57v-.2c-.26.1-.26.29-.26.69A.55.55,0,0,0,336.52,28.83Zm0,1.76a.93.93,0,0,0-.26.49v.1Zm0-18.92a.2.2,0,0,1,.18-.2h-.18Zm0,17a.74.74,0,0,0,.44-.79A.82.82,0,0,0,336.52,28.63Zm.35,1.47v-.2c-.35.1-.35.29-.35.69A.64.64,0,0,0,336.87,30.1Zm-.18-18.63c0-.1.09-.1.18-.2l.09-.1a.26.26,0,0,1-.18.1C336.79,11.37,336.7,11.37,336.7,11.47ZM337.23,29a1.29,1.29,0,0,0-.35.69C337.14,29.61,337.23,29.42,337.23,29Zm0-1.76a.41.41,0,0,0-.26.39v.2C337.23,27.75,337.23,27.55,337.23,27.26Zm0,0a1.12,1.12,0,0,0,.18-.59C337.23,26.77,337.23,27.06,337.23,27.26Zm.35,1.18a.41.41,0,0,0-.26.39V29C337.49,28.93,337.49,28.73,337.58,28.44Zm.09-2.45a.41.41,0,0,0-.26.39v.29C337.67,26.47,337.67,26.28,337.67,26Zm-.18-13.24V13c.27-.1.35-.59.35-1C337.67,12.26,337.49,12.35,337.49,12.75Zm.09,15.59c.26-.1.35-.29.35-.69C337.67,27.75,337.58,28.14,337.58,28.34Zm3.09-14.51a.65.65,0,0,0-.09.39v.39c-.35.29-.35.59-.35,1.27a.52.52,0,0,0-.18.29.52.52,0,0,0,.18.29A.68.68,0,0,0,340,17c-.18.1-.18.29-.18.49v.1a.64.64,0,0,0,.09.39,3.3,3.3,0,0,1-.26,1.28c0-.2,0-.29-.18-.39,0,.1.09.1.09.2s-.09.1-.09.2a.78.78,0,0,1-.18.39c0,.2-.09.29-.09.49a1,1,0,0,1-.09.49h.18a13.92,13.92,0,0,1-.62,1.77c-.09.2-.26.29-.26.49v.1l-.26.88a2.7,2.7,0,0,1-.18,1c-.26.2-.26.69-.35,1.18a1.72,1.72,0,0,0,.44-1.18l.35-.49a4.57,4.57,0,0,1,.26-1.18,56.46,56.46,0,0,0,2.56-8.63,21.4,21.4,0,0,0,.26-2.35v-.39l-.26.49-.18,1v-.29c-.09-.29-.18-.29-.18-.29h-.18a1.27,1.27,0,0,1,.18.59C340.67,13.33,340.67,13.63,340.67,13.83Zm-2.74,13.43c-.09.1-.09.1-.09.2s0,.1.09.2Zm.18-.39H338c0,.2-.09.29-.09.39a.2.2,0,0,1,.18-.2Zm0,0a.61.61,0,0,0,.18-.49C338.11,26.47,338.11,26.77,338.11,26.87Zm.62-1.67a1.63,1.63,0,0,0-.44,1v.2C338.55,26.18,338.64,25.79,338.73,25.2Zm0,0a1.92,1.92,0,0,0,.62-1.37A2.7,2.7,0,0,0,338.73,25.2Zm1.06-2.94a2,2,0,0,0-.44,1.28v.29A2.48,2.48,0,0,0,339.79,22.26Zm1.68-5.59v-.39a5.76,5.76,0,0,0-.44,2.06c-.26.1-.26.39-.26.59a14,14,0,0,0-.88,2.94c0,.1-.09.2-.09.39a.53.53,0,0,0,.18-.39l.27-.39.53-2a1.05,1.05,0,0,1,.18-.59,4.61,4.61,0,0,0,.09-.49A4.75,4.75,0,0,0,341.46,16.67ZM341,12h.09l-.09-.1Zm.53-.79c0,.1-.09.1-.09.2s0,.1.09.29Zm-.09,5.1a1,1,0,0,0,.35-.88V15A3.46,3.46,0,0,0,341.46,16.28Zm.44-1.47a.36.36,0,0,0-.09.2C341.81,14.9,341.9,14.9,341.9,14.81Z"/><path class="cls-4" d="M370.14,12.06a.53.53,0,0,1-.26.39c-.44.49-6.27,1.86-7,2.06l-6.26,1.77a2.9,2.9,0,0,0-1,.2.89.89,0,0,0-.71.69,2.67,2.67,0,0,1-.44,1.18c-.26,1.37-1.06,6.28-1.41,7.65L352,30.79a1.84,1.84,0,0,0-.09.69c-.44,1.77-.62,3.53-1.06,5.29-.35,1.47-.53,2.84-.79,4.31-.35,2.45-1.41,7.94-1.76,10.49,0,.29-.18.59-.18.88a6.72,6.72,0,0,1-.09,1.37,1.49,1.49,0,0,0-.18.59v.2a23.32,23.32,0,0,1-.35,3.14,21.21,21.21,0,0,0-.71,3.24v.2a1.19,1.19,0,0,1-.26.78c-.18.2-1.15,6.67-1.24,6.37a3.48,3.48,0,0,0-.88-.39c-.09,0-.26-.2-.35-.29a1.1,1.1,0,0,0-.62-.39c-.18-.1-.18-.78-.18-1.67,0-2.06.26-5.29.26-6.28v-.2c.09-.88.09-1.76.27-2.65V55.3a4.09,4.09,0,0,1,.09-1l.62-4.8c0-.39.09-.78.09-1.08.44-2.16,1.32-7.26,1.5-9.22l.44-2.55v-.1l.53-4.41c0-.1-.18-.2-.18-.2a.36.36,0,0,0,.09-.2v-.1a10.06,10.06,0,0,0,.71-3.14v-.29a3.46,3.46,0,0,0,.35-1.37,2.58,2.58,0,0,0,.35-1.08c0-.49.35-1.57.35-2.06a44,44,0,0,0,.88-4.71v-.2c0-.29-.09-.39-.26-.39h-.09l-5.56,1.08h-.35a1.3,1.3,0,0,1-1.24-.69c0-.2-.18-.39-.26-.59V18a.53.53,0,0,1,.18-.39c0-.1.18-.29.26-.39a14,14,0,0,1,2.38-.88c1.59-.49,5.65-1,6.18-2.75,1-2.65,1.41-5,2.56-7.75a23.92,23.92,0,0,1,1.68-3.82,8.07,8.07,0,0,1,1-1.47c.27-.29.44-.59.79-.59h.18a.91.91,0,0,1,.62.29c-.18.1-.18.2-.26.29.09-.1.18-.2.26-.2V.29h.18c.09,0,.09-.1.18-.1l.09.1a.36.36,0,0,0-.09.2,6.8,6.8,0,0,0-.71,1,1.15,1.15,0,0,0,.44-.29,1.11,1.11,0,0,0,.44-.49c.09-.1.18-.2.26-.2s.18.1.18.29.09.39.26.49.18.1.18.2v.29a12.14,12.14,0,0,1-.53,1.67l-1.94,6.67c-.35,1.18-.44,1.76-.88,2.94v.29c0,.2.09.29.26.29h.18a4.87,4.87,0,0,0,1.15-.1,69.59,69.59,0,0,1,12.09-2.16c0,.29.44.39.53.49A.2.2,0,0,1,370.14,12.06Z"/></g></g></svg>