<?xml version="1.0" encoding="UTF-8"?>
<svg width="117px" height="19px" viewBox="0 0 117 19" version="1.1" xmlns="http://www.w3.org/2000/svg" xmlns:xlink="http://www.w3.org/1999/xlink">
    <!-- Generator: Sketch 48.2 (47327) - http://www.bohemiancoding.com/sketch -->
    <title>powered_by_jifiti</title>
    <desc>Created with Sketch.</desc>
    <defs>
        <polygon id="path-1" points="9.44123314e-06 0.00174839125 9.75735867 0.00174839125 9.75735867 6.03989704 9.44123314e-06 6.03989704"></polygon>
        <polygon id="path-3" points="0 18.9773076 48.9770814 18.9773076 48.9770814 0 0 0"></polygon>
    </defs>
    <g id="main4@2x-copy-10@2x" stroke="none" stroke-width="1" fill="none" fill-rule="evenodd" transform="translate(-1382.000000, -1444.000000)">
        <g id="powered_by_jifiti" transform="translate(1381.000000, 1444.000000)">
            <text id="Powered-by" font-family="FranklinGothic-Book, Franklin Gothic Book" font-size="13" font-weight="normal" fill="#A3A3A6">
                <tspan x="0" y="16">Powered by</tspan>
            </text>
            <g id="Page-1" transform="translate(69.000000, 0.000000)">
                <path d="M39.3273882,3.04842162 C39.3273882,4.21465972 40.2520154,5.1726314 41.3780476,5.1726314 C42.5041271,5.1726314 43.4283766,4.21465972 43.4283766,3.04842162 C43.4283766,1.88184118 42.5041271,0.923893951 41.3780476,0.923893951 C40.2520154,0.923893951 39.3273882,1.88184118 39.3273882,3.04842162 Z" id="Fill-1" fill="#A3A3A6"></path>
                <g id="Group-5" transform="translate(0.000000, 12.937411)">
                    <mask id="mask-2" fill="white">
                        <use xlink:href="#path-1"></use>
                    </mask>
                    <g id="Clip-4"></g>
                    <path d="M2.49414721,0.00174839125 L1.56227389,2.09025676 L9.44123314e-06,2.64111004 C0.971512331,4.18042793 2.50566551,6.03990927 5.08460915,6.03990927 C7.37887601,6.03990927 8.93287938,5.02207658 9.75735867,3.40370206 C8.61867514,4.32408945 7.0380475,4.2461332 5.47195934,3.31520656 C4.42844345,2.69475997 3.51531098,1.67220785 2.87330713,0.615959459 C2.67983266,0.303180824 2.71082351,0.358395753 2.49414721,0.00174839125 Z" id="Fill-3" fill="#A3A3A6" mask="url(#mask-2)"></path>
                </g>
                <path d="M10.2848829,12.6612283 L10.2860158,1.30675985 L6.09203121,1.30675985 L6.0850447,12.3934188 C6.0850447,13.4645346 6.18554663,14.4768654 5.01285106,14.8945964 C5.68034624,15.5440443 6.70495607,16.1630237 7.9868631,16.1630237 C8.11026002,16.1630237 8.23323208,16.1539761 8.35393825,16.1355874 C9.39535347,16.0385089 10.2822629,15.1287341 10.2822629,14.026294 L10.2848829,12.6612283 Z" id="Fill-6" fill="#A3A3A6"></path>
                <path d="M44.8752645,16.8527653 C44.8752645,18.0190033 45.7999389,18.9769261 46.9260184,18.9769261 C48.0520506,18.9769261 48.977079,18.0190033 48.977079,16.8527653 C48.977079,15.6861359 48.0520506,14.7282131 46.9260184,14.7282131 C45.7999389,14.7282131 44.8752645,15.6861359 44.8752645,16.8527653 Z" id="Fill-8" fill="#A3A3A6"></path>
                <mask id="mask-4" fill="white">
                    <use xlink:href="#path-3"></use>
                </mask>
                <g id="Clip-11"></g>
                <polygon id="Fill-10" fill="#A3A3A6" mask="url(#mask-4)" points="11.5634099 18.6144247 15.415079 18.6144247 15.415079 7.36725611 11.5634099 7.36725611"></polygon>
                <polygon id="Fill-12" fill="#A3A3A6" mask="url(#mask-4)" points="26.0070096 18.6144247 29.8582775 18.6144247 29.8582775 7.36725611 26.0070096 7.36725611"></polygon>
                <path d="M26.0070049,3.04842162 C26.0070049,4.21465972 26.9312544,5.1726314 28.0573339,5.1726314 C29.1833662,5.1726314 30.1080406,4.21465972 30.1080406,3.04842162 C30.1080406,1.88184118 29.1833662,0.923893951 28.0573339,0.923893951 C26.9312544,0.923893951 26.0070049,1.88184118 26.0070049,3.04842162 Z" id="Fill-13" fill="#A3A3A6" mask="url(#mask-4)"></path>
                <path d="M11.4389249,3.04842162 C11.4389249,4.21465972 12.363198,5.1726314 13.4892303,5.1726314 C14.6149321,5.1726314 15.5395593,4.21465972 15.5395593,3.04842162 C15.5395593,1.88184118 14.6149321,0.923893951 13.4892303,0.923893951 C12.363198,0.923893951 11.4389249,1.88184118 11.4389249,3.04842162 Z" id="Fill-14" fill="#A3A3A6" mask="url(#mask-4)"></path>
                <path d="M23.378339,0 C21.5898626,0 20.0207533,0.968926641 19.1297133,2.42676705 C18.4212432,3.45636165 18.3466102,4.44996139 18.3399777,5.71325354 C18.3392461,5.76296654 18.3396237,5.77353024 18.3399777,5.7841184 C18.3396237,5.84478636 18.3392461,5.90547876 18.3392461,5.96773616 L18.3392461,7.39268726 L16.7372576,7.39268726 L16.7372576,10.6811055 L18.3392461,10.6811055 L18.3392461,18.6390734 L22.1908679,18.6390734 L22.1908679,11.1434633 L22.1908679,10.6811055 L24.6304118,10.6811055 L24.6304118,10.2504878 L24.6304118,7.39268726 L22.1908679,7.39268726 L22.1908679,5.85026384 C22.1908679,5.81387773 22.1923785,5.78018147 22.1927562,5.74494466 C22.2005452,5.26185071 22.2611579,4.87940541 22.3943973,4.59521236 C22.4021155,4.57875547 22.409102,4.56190734 22.4172687,4.54586615 C22.7614961,3.86859073 23.2262171,3.58518018 24.0094146,3.52996525 C24.2996145,3.50962033 24.7005365,3.61335006 24.8784802,3.74449163 L24.8784802,0.571540541 L24.8784802,0.238416988 C24.864932,0.234113256 24.8506757,0.226679537 24.8371276,0.223916345 C24.3755221,0.0791055341 23.8856165,0 23.378339,0 Z" id="Fill-15" fill="#A3A3A6" mask="url(#mask-4)"></path>
                <polygon id="Fill-16" fill="#A3A3A6" mask="url(#mask-4)" points="36.2393992 10.6560436 38.295393 10.6560436 38.295393 7.36725856 36.2393992 7.36725856 36.2393992 3.99110283 32.3877066 3.99110283 32.3877066 7.36725856 31.0153289 7.36725856 31.0153289 10.6560436 32.3877066 10.6560436 32.3877066 18.6144272 36.2393992 18.6144272"></polygon>
                <polygon id="Fill-17" fill="#A3A3A6" mask="url(#mask-4)" points="39.4524586 18.6144247 43.3036792 18.6144247 43.3036792 7.36725611 39.4524586 7.36725611"></polygon>
            </g>
        </g>
    </g>
</svg>