<svg height="70" viewBox="0 0 70 70" width="70" xmlns="http://www.w3.org/2000/svg"><g fill="none" fill-rule="evenodd"><circle cx="35" cy="35" fill="#b0aeae" fill-rule="nonzero" r="35"/><g fill="#545658" transform="translate(23 24)"><path d="m21 16h-2v3h-3v2h3v3h2v-3h3v-2h-3z"/><path d="m9.759 8.34905c-.211-.247-.527-.377-.854-.345-.323.031-.612.217-.773.5l-4 7.00005c-.177.31-.176.69.003.998s.509.498.865.498h10c.391 0 .745-.228.908-.582.163-.355.105-.772-.149-1.069z"/><path d="m2 2h19v12h2v-13c0-.552-.447-1-1-1h-21c-.553 0-1 .448-1 1v21c0 .552.447 1 1 1h13v-2h-12z"/><path d="m16 9c1.1046 0 2-.89543 2-2s-.8954-2-2-2-2 .89543-2 2 .8954 2 2 2z"/></g></g></svg>