<?xml version="1.0" encoding="UTF-8"?>
<svg width="105px" height="105px" viewBox="0 0 105 105" version="1.1" xmlns="http://www.w3.org/2000/svg" xmlns:xlink="http://www.w3.org/1999/xlink">
    <!-- Generator: Sketch 48.2 (47327) - http://www.bohemiancoding.com/sketch -->
    <title>addphoto</title>
    <desc>Created with Sketch.</desc>
    <defs>
        <circle id="path-1" cx="52.5" cy="52.5" r="52.5"></circle>
        <filter x="-5.7%" y="-5.7%" width="111.4%" height="111.4%" filterUnits="objectBoundingBox" id="filter-2">
            <feGaussianBlur stdDeviation="4.5" in="SourceAlpha" result="shadowBlurInner1"></feGaussianBlur>
            <feOffset dx="0" dy="3" in="shadowBlurInner1" result="shadowOffsetInner1"></feOffset>
            <feComposite in="shadowOffsetInner1" in2="SourceAlpha" operator="arithmetic" k2="-1" k3="1" result="shadowInnerInner1"></feComposite>
            <feColorMatrix values="0 0 0 0 0   0 0 0 0 0   0 0 0 0 0  0 0 0 0.0981091486 0" type="matrix" in="shadowInnerInner1"></feColorMatrix>
        </filter>
    </defs>
    <g id="settings_me" stroke="none" stroke-width="1" fill="none" fill-rule="evenodd" transform="translate(-1050.000000, -373.000000)">
        <g id="addphoto" transform="translate(1050.000000, 373.000000)">
            <g id="Oval">
                <use fill="#FFFFFF" fill-rule="evenodd" xlink:href="#path-1"></use>
                <use fill="black" fill-opacity="1" filter="url(#filter-2)" xlink:href="#path-1"></use>
            </g>
            <g id="settings_add_photo" transform="translate(32.000000, 26.000000)" fill="#4D4D4D" fill-rule="nonzero">
                <g id="noun_1062390_cc" transform="translate(0.550000, 0.587500)" stroke="#FFFFFF">
                    <g id="Group">
                        <path d="M19.097561,0.177005899 C13.5771723,0.177005899 9.07134146,4.78976545 9.07134146,10.4410508 C9.07134146,16.0923362 13.5771723,20.7050713 19.097561,20.7050713 C24.6179497,20.7050713 29.1237805,16.0923362 29.1237805,10.4410508 C29.1237805,4.78976545 24.6179497,0.177005899 19.097561,0.177005899 Z M19.097561,3.10959017 C23.0698059,3.10959017 26.2591463,6.37463174 26.2591463,10.4410508 C26.2591463,14.5074699 23.0698059,17.7725115 19.097561,17.7725115 C15.125316,17.7725115 11.9359756,14.5074699 11.9359756,10.4410508 C11.9359756,6.37463174 15.125316,3.10959017 19.097561,3.10959017 Z M19.575,21.6825994 C8.75522909,21.6825994 0,30.6455545 0,41.7219742 L0,43.1882663 L2.86463415,43.1882663 L2.86463415,41.7219742 C2.86463415,32.2194725 10.2926782,24.6152326 19.575,24.6152326 C28.8573218,24.6152326 36.2853659,32.2194725 36.2853659,41.7219742 L36.2853659,43.1882663 L39.15,43.1882663 L39.15,41.7219742 C39.15,30.6455545 30.3947709,21.6826483 19.575,21.6826483 L19.575,21.6825994 Z" id="Shape"></path>
                    </g>
                </g>
                <g id="noun_862299_cc" transform="translate(11.425000, 30.125000)">
                    <g id="Group">
                        <path d="M5.98125036,0.068265275 C5.76570786,0.073109725 5.57390911,0.22062794 5.49414099,0.3804684 L4.73515661,1.95326527 L1.81250036,1.95326527 C0.817782147,1.95326527 2.71875e-07,2.80375654 2.71875e-07,3.83826527 L2.71875e-07,12.1322747 C2.71875e-07,13.1667815 0.817782147,14.0172747 1.81250036,14.0172747 L14.4999998,14.0172747 C15.4947179,14.0172747 16.3124998,13.1667815 16.3124998,12.1322747 L16.3124998,3.83826527 C16.3124998,2.80375654 15.4947179,1.95326527 14.4999998,1.95326527 L11.5773439,1.95326527 L10.8183596,0.3804684 C10.7283872,0.19372145 10.5320933,0.067910895 10.3312502,0.068265275 L5.98125036,0.068265275 Z M6.32109411,1.19926527 L9.99140661,1.19926527 L10.7503908,2.77206215 C10.8403633,2.9588091 11.0366572,3.08461965 11.2375002,3.08426527 L14.4999998,3.08426527 C14.9110565,3.08426527 15.2249998,3.41076424 15.2249998,3.83826527 L15.2249998,12.1322747 C15.2249998,12.5597738 14.9110565,12.8862747 14.4999998,12.8862747 L1.81250036,12.8862747 C1.40144349,12.8862747 1.08750036,12.5597738 1.08750036,12.1322747 L1.08750036,3.83826527 C1.08750036,3.41076424 1.40144349,3.08426527 1.81250036,3.08426527 L5.07500036,3.08426527 C5.27584331,3.08464227 5.47213724,2.9588091 5.56210974,2.77206215 L6.32109411,1.19926527 Z M4.35000036,7.98525585 C4.35000036,10.1647871 6.06056536,11.9437747 8.15625036,11.9437747 C10.2519535,11.9437747 11.9624998,10.1647871 11.9624998,7.98525585 C11.9624998,5.80575287 10.2519533,4.02676527 8.15625018,4.02676527 C6.06058331,4.02676527 4.35000036,5.80574533 4.35000036,7.98525585 Z M10.8750002,7.98525585 C10.8750002,9.553557 9.66423224,10.8127747 8.15625036,10.8127747 C6.64832286,10.8127747 5.43750036,9.55353815 5.43750036,7.98525585 C5.43750036,6.41699428 6.64830474,5.15776527 8.15625036,5.15776527 C9.66423224,5.15776527 10.8750002,6.41698674 10.8750002,7.98525585 Z" id="Shape"></path>
                    </g>
                </g>
            </g>
        </g>
    </g>
</svg>