<?xml version="1.0" encoding="UTF-8"?>
<svg width="184px" height="61px" viewBox="0 0 184 61" version="1.1" xmlns="http://www.w3.org/2000/svg" xmlns:xlink="http://www.w3.org/1999/xlink">
    <!-- Generator: Sketch 47.1 (45422) - http://www.bohemiancoding.com/sketch -->
    <title>app_store_btn</title>
    <desc>Created with Sketch.</desc>
    <defs></defs>
    <g id="couples" stroke="none" stroke-width="1" fill="none" fill-rule="evenodd">
        <g id="regsetup_wedding_coregclosed@2x" transform="translate(-1884.000000, -1519.000000)">
            <g id="app_store_btn" transform="translate(1884.000000, 1519.000000)">
                <path d="M183.813125,52.753381 C183.813125,57.2869881 180.175891,60.9633274 175.689453,60.9633274 L8.12546875,60.9633274 C3.6383125,60.9633274 0,57.2869881 0,52.753381 L0,8.42308333 C0,3.88947619 3.6383125,0.2135 8.12546875,0.2135 L175.689453,0.2135 C180.175891,0.2135 183.813125,3.88947619 183.813125,8.42308333 L183.813125,52.753381" id="Fill-1" fill="#363636"></path>
                <path d="M16.0755625,42.8350714 L32.4440156,42.8350714 L32.4440156,18.1140952 L16.0755625,18.1140952 L16.0755625,42.8350714 Z M24.2596094,48.273875 C23.0646875,48.273875 22.0961719,47.2949702 22.0961719,46.0865893 C22.0961719,44.8792976 23.0646875,43.9003929 24.2596094,43.9003929 C25.4559687,43.9003929 26.4244844,44.8792976 26.4244844,46.0865893 C26.4244844,47.2949702 25.4559687,48.273875 24.2596094,48.273875 Z M31.74575,10.602744 L16.7731094,10.602744 C14.9794688,10.602744 13.524,12.0718274 13.524,13.8854881 L13.524,47.4002679 C13.524,49.2139286 14.9794688,50.6844643 16.7731094,50.6844643 L31.74575,50.6844643 C33.5411875,50.6844643 34.9966563,49.2139286 34.9966563,47.4002679 L34.9966563,13.8854881 C34.9966563,12.0718274 33.5411875,10.602744 31.74575,10.602744 L31.74575,10.602744 Z" id="Fill-2" fill="#FFFFFE"></path>
                <path d="M50.1324531,15.6835357 L49.2613281,13.1346071 C49.079125,12.5558333 48.9490312,12.0307976 48.8189375,11.5191964 L48.7808437,11.5191964 C48.6636875,12.0307976 48.5206563,12.5834286 48.3513906,13.1211726 L47.4935625,15.6835357 L50.1324531,15.6835357 Z M47.25925,16.5763869 L46.3493125,19.3606012 L45.1791875,19.3606012 L48.15625,10.5065238 L49.521875,10.5065238 L52.511875,19.3606012 L51.3025781,19.3606012 L50.3664062,16.5763869 L47.25925,16.5763869 L47.25925,16.5763869 Z" id="Fill-3" fill="#FFFFFE"></path>
                <path d="M53.6823594,13.0028036 L54.9171719,16.5633155 C55.1259687,17.1537083 55.294875,17.6798333 55.4253281,18.204869 L55.4641406,18.204869 C55.6071719,17.6798333 55.7882969,17.1537083 55.9967344,16.5633155 L57.2193281,13.0028036 L58.4156875,13.0028036 L55.9442656,19.3606012 L54.852125,19.3606012 L52.4612031,13.0028036 L53.6823594,13.0028036" id="Fill-4" fill="#FFFFFE"></path>
                <path d="M62.5625156,16.1159821 C61.3140469,16.0898393 59.8984687,16.3131429 59.8984687,17.5483929 C59.8984687,18.3098036 60.3915312,18.6518393 60.9632969,18.6518393 C61.7963281,18.6518393 62.3285625,18.1257143 62.511125,17.5876071 C62.5499375,17.4692381 62.5625156,17.3377976 62.5625156,17.2194286 L62.5625156,16.1159821 Z M63.6808906,17.8377798 C63.6808906,18.3885952 63.707125,18.9263393 63.7725313,19.3606012 L62.7454375,19.3606012 L62.6408594,18.5599762 L62.6020469,18.5599762 C62.2649531,19.0595952 61.5749531,19.5054762 60.6775937,19.5054762 C59.40325,19.5054762 58.7538594,18.5995536 58.7538594,17.6798333 C58.7538594,16.142125 60.1061875,15.3019226 62.537,15.314994 L62.537,15.1835536 C62.537,14.658881 62.3936094,13.698494 61.1074063,13.7130179 C60.5086875,13.7130179 59.8984687,13.8825833 59.4557188,14.1850417 L59.1948125,13.4091071 C59.7159062,13.0815952 60.4828125,12.8582917 61.2752344,12.8582917 C63.2137031,12.8582917 63.6808906,14.1850417 63.6808906,15.459869 L63.6808906,17.8377798 L63.6808906,17.8377798 Z" id="Fill-5" fill="#FFFFFE"></path>
                <path d="M65.4490156,19.3606012 L66.5932656,19.3606012 L66.5932656,13.0028036 L65.4490156,13.0028036 L65.4490156,19.3606012 Z M65.9938281,11.8336369 C65.5658125,11.8336369 65.2793906,11.4930536 65.2793906,11.0849345 C65.2793906,10.6775417 65.57875,10.3500298 66.0204219,10.3500298 C66.4631719,10.3500298 66.7492344,10.6775417 66.7492344,11.0849345 C66.7492344,11.4930536 66.4631719,11.8336369 66.0085625,11.8336369 L65.9938281,11.8336369 L65.9938281,11.8336369 Z" id="Fill-6" fill="#FFFFFE"></path>
                <polygon id="Fill-7" fill="#FFFFFE" points="68.4257188 19.3606012 69.5699688 19.3606012 69.5699688 10.0345 68.4257188 10.0345"></polygon>
                <path d="M74.7187344,16.1159821 C73.4702656,16.0898393 72.0525313,16.3131429 72.0525313,17.5483929 C72.0525313,18.3098036 72.5470313,18.6518393 73.1187969,18.6518393 C73.9518281,18.6518393 74.4844219,18.1257143 74.666625,17.5876071 C74.7057969,17.4692381 74.7187344,17.3377976 74.7187344,17.2194286 L74.7187344,16.1159821 Z M75.83675,17.8377798 C75.83675,18.3885952 75.8629844,18.9263393 75.9276719,19.3606012 L74.8995,19.3606012 L74.7956406,18.5599762 L74.7575469,18.5599762 C74.419375,19.0595952 73.7304531,19.5054762 72.832375,19.5054762 C71.5594688,19.5054762 70.9086406,18.5995536 70.9086406,17.6798333 C70.9086406,16.142125 72.2609688,15.3019226 74.6928594,15.314994 L74.6928594,15.1835536 C74.6928594,14.658881 74.5494688,13.698494 73.2614688,13.7130179 C72.6645469,13.7130179 72.0525313,13.8825833 71.6119375,14.1850417 L71.3506719,13.4091071 C71.8706875,13.0815952 72.6386719,12.8582917 73.4314531,12.8582917 C75.3684844,12.8582917 75.83675,14.1850417 75.83675,15.459869 L75.83675,17.8377798 L75.83675,17.8377798 Z" id="Fill-8" fill="#FFFFFE"></path>
                <path d="M78.7480469,16.813125 C78.7480469,16.9561845 78.7609844,17.1010595 78.7882969,17.2325 C79.0082344,18.0334881 79.6849375,18.585756 80.5035937,18.585756 C81.71325,18.585756 82.41475,17.6010417 82.41475,16.142125 C82.41475,14.8549524 81.765,13.7656667 80.543125,13.7656667 C79.7632813,13.7656667 79.03375,14.3168452 78.8130938,15.1835536 C78.7746406,15.3284286 78.7480469,15.4860119 78.7480469,15.6701012 L78.7480469,16.813125 Z M77.6034375,10.0345 L78.7480469,10.0345 L78.7480469,14.0143869 L78.7746406,14.0143869 C79.1771406,13.3052619 79.904875,12.8582917 80.9186719,12.8582917 C82.4797969,12.8582917 83.5719375,14.1723333 83.5719375,16.0898393 C83.5719375,18.3755238 82.1412656,19.5054762 80.7379063,19.5054762 C79.8283281,19.5054762 79.1117344,19.150369 78.6319687,18.3098036 L78.6042969,18.3098036 L78.53925,19.3606012 L77.5527656,19.3606012 C77.5915781,18.9263393 77.6034375,18.2836607 77.6034375,17.7194107 L77.6034375,10.0345 L77.6034375,10.0345 Z" id="Fill-9" fill="#FFFFFE"></path>
                <polygon id="Fill-10" fill="#FFFFFE" points="84.9364844 19.3606012 86.0800156 19.3606012 86.0800156 10.0345 84.9364844 10.0345"></polygon>
                <path d="M91.9044063,15.5517321 C91.9173438,14.8284464 91.6046875,13.6723512 90.3303438,13.6723512 C89.162375,13.6723512 88.6671563,14.7496548 88.575875,15.5517321 L91.9044063,15.5517321 Z M88.5632969,16.3792262 C88.5888125,17.9427143 89.5637969,18.585756 90.7084063,18.585756 C91.5285,18.585756 92.0348594,18.4416071 92.4510156,18.2702262 L92.658375,19.0846488 C92.2562344,19.268375 91.5532969,19.4924048 90.5524375,19.4924048 C88.6283437,19.4924048 87.4578594,18.1914345 87.4578594,16.287 C87.4578594,14.3560595 88.5888125,12.8448571 90.4234219,12.8448571 C92.4758125,12.8448571 93.0098438,14.6719524 93.0098438,15.8396667 C93.0098438,16.0764048 92.9965469,16.260494 92.9706719,16.3919345 L88.5632969,16.3792262 L88.5632969,16.3792262 Z" id="Fill-11" fill="#FFFFFE"></path>
                <path d="M99.6525312,18.6387679 C100.744672,18.6387679 101.563328,17.6010417 101.563328,16.1555595 C101.563328,15.078256 101.031094,13.725 99.6787656,13.725 C98.3386563,13.725 97.7546719,14.9863929 97.7546719,16.1951369 C97.7546719,17.5876071 98.5345156,18.6387679 99.6399531,18.6387679 L99.6525312,18.6387679 Z M99.6140781,19.5054762 C97.9239375,19.5054762 96.597125,18.2444464 96.597125,16.2343512 C96.597125,14.10625 97.9893437,12.8582917 99.7179375,12.8582917 C101.524516,12.8582917 102.74675,14.1850417 102.74675,16.1159821 C102.74675,18.4808214 101.120937,19.5054762 99.6266562,19.5054762 L99.6140781,19.5054762 L99.6140781,19.5054762 Z" id="Fill-12" fill="#FFFFFE"></path>
                <path d="M104.126031,14.7246012 C104.126031,14.0539643 104.111297,13.5289286 104.071766,13.0028036 L105.087,13.0028036 L105.151328,14.0401667 L105.177203,14.0401667 C105.489859,13.4501369 106.217594,12.8582917 107.257266,12.8582917 C108.128031,12.8582917 109.482875,13.3844167 109.482875,15.5648036 L109.482875,19.3606012 L108.336469,19.3606012 L108.336469,15.6951548 C108.336469,14.6719524 107.960563,13.8037917 106.880281,13.8037917 C106.138891,13.8037917 105.554906,14.3429881 105.346469,14.9863929 C105.294719,15.1309048 105.268484,15.3415 105.268484,15.5255893 L105.268484,19.3606012 L104.126031,19.3606012 L104.126031,14.7246012" id="Fill-13" fill="#FFFFFE"></path>
                <path d="M115.344281,11.479619 L115.344281,13.0028036 L116.981234,13.0028036 L116.981234,13.8825833 L115.344281,13.8825833 L115.344281,17.3116548 C115.344281,18.0995714 115.565656,18.5465417 116.201391,18.5465417 C116.514406,18.5465417 116.696969,18.5203988 116.866234,18.46775 L116.916547,19.3475298 C116.696969,19.4263214 116.3455,19.5054762 115.903828,19.5054762 C115.369078,19.5054762 114.939984,19.3213869 114.667219,19.020381 C114.356,18.6649107 114.225547,18.0995714 114.225547,17.350869 L114.225547,13.8825833 L113.251281,13.8825833 L113.251281,13.0028036 L114.225547,13.0028036 L114.225547,11.8336369 L115.344281,11.479619" id="Fill-14" fill="#FFFFFE"></path>
                <path d="M118.204188,10.0345 L119.348078,10.0345 L119.348078,14.0009524 L119.373234,14.0009524 C119.555078,13.6723512 119.8415,13.3713452 120.193328,13.1868929 C120.5315,12.9766607 120.933641,12.8582917 121.363813,12.8582917 C122.208344,12.8582917 123.559594,13.3844167 123.559594,15.577875 L123.559594,19.3606012 L122.416781,19.3606012 L122.416781,15.7096786 C122.416781,14.6719524 122.039078,13.8168631 120.959516,13.8168631 C120.219203,13.8168631 119.647078,14.3429881 119.426781,14.9729583 C119.361375,15.1309048 119.348078,15.3019226 119.348078,15.5255893 L119.348078,19.3606012 L118.204188,19.3606012 L118.204188,10.0345" id="Fill-15" fill="#FFFFFE"></path>
                <path d="M129.345891,15.5517321 C129.357391,14.8284464 129.046172,13.6723512 127.772547,13.6723512 C126.603141,13.6723512 126.106844,14.7496548 126.017,15.5517321 L129.345891,15.5517321 Z M126.004422,16.3792262 C126.030297,17.9427143 127.005281,18.585756 128.149172,18.585756 C128.968547,18.585756 129.475984,18.4416071 129.892859,18.2702262 L130.099859,19.0846488 C129.696281,19.268375 128.994422,19.4924048 127.992844,19.4924048 C126.069469,19.4924048 124.898625,18.1914345 124.898625,16.287 C124.898625,14.3560595 126.030297,12.8448571 127.863469,12.8448571 C129.917297,12.8448571 130.451687,14.6719524 130.451687,15.8396667 C130.451687,16.0764048 130.438031,16.260494 130.412156,16.3919345 L126.004422,16.3792262 L126.004422,16.3792262 Z" id="Fill-16" fill="#FFFFFE"></path>
                <path d="M134.493219,19.3606012 L135.637109,19.3606012 L135.637109,13.0028036 L134.493219,13.0028036 L134.493219,19.3606012 Z M135.040547,11.8336369 C134.610375,11.8336369 134.323953,11.4930536 134.323953,11.0849345 C134.323953,10.6775417 134.622953,10.3500298 135.065703,10.3500298 C135.507375,10.3500298 135.793797,10.6775417 135.793797,11.0849345 C135.793797,11.4930536 135.507375,11.8336369 135.050969,11.8336369 L135.040547,11.8336369 L135.040547,11.8336369 Z" id="Fill-17" fill="#FFFFFE"></path>
                <path d="M138.640766,14.8807321 C138.886938,14.9468155 139.21325,14.9729583 139.576938,14.9729583 C140.954781,14.9729583 141.773797,14.2907024 141.773797,13.0950298 C141.773797,11.9127917 140.954781,11.3481786 139.707031,11.3481786 C139.21325,11.3481786 138.836625,11.3997381 138.640766,11.4400417 L138.640766,14.8807321 Z M137.509094,10.6248929 C138.054625,10.5210476 138.7705,10.4408036 139.680797,10.4408036 C140.798453,10.4408036 141.618188,10.7036845 142.136766,11.1775238 C142.618328,11.5968988 142.918047,12.2413929 142.918047,13.0293095 C142.918047,13.8299345 142.683734,14.4617202 142.228047,14.9203095 C141.630766,15.5648036 140.655063,15.8923155 139.550344,15.8923155 C139.21325,15.8923155 138.900953,15.879244 138.640766,15.8149762 L138.640766,19.3606012 L137.509094,19.3606012 L137.509094,10.6248929 L137.509094,10.6248929 Z" id="Fill-18" fill="#FFFFFE"></path>
                <path d="M144.257438,10.0345 L145.402047,10.0345 L145.402047,14.0009524 L145.427922,14.0009524 C145.609766,13.6723512 145.896188,13.3713452 146.246578,13.1868929 C146.585469,12.9766607 146.989047,12.8582917 147.417422,12.8582917 C148.262313,12.8582917 149.614281,13.3844167 149.614281,15.577875 L149.614281,19.3606012 L148.47075,19.3606012 L148.47075,15.7096786 C148.47075,14.6719524 148.093047,13.8168631 147.013844,13.8168631 C146.273891,13.8168631 145.701766,14.3429881 145.480031,14.9729583 C145.414625,15.1309048 145.402047,15.3019226 145.402047,15.5255893 L145.402047,19.3606012 L144.257438,19.3606012 L144.257438,10.0345" id="Fill-19" fill="#FFFFFE"></path>
                <path d="M154.009437,18.6387679 C155.099781,18.6387679 155.920234,17.6010417 155.920234,16.1555595 C155.920234,15.078256 155.387281,13.725 154.034234,13.725 C152.695562,13.725 152.109422,14.9863929 152.109422,16.1951369 C152.109422,17.5876071 152.889266,18.6387679 153.994703,18.6387679 L154.009437,18.6387679 Z M153.969547,19.5054762 C152.279406,19.5054762 150.952594,18.2444464 150.952594,16.2343512 C150.952594,14.10625 152.344812,12.8582917 154.074125,12.8582917 C155.880703,12.8582917 157.102219,14.1850417 157.102219,16.1159821 C157.102219,18.4808214 155.477125,19.5054762 153.982844,19.5054762 L153.969547,19.5054762 L153.969547,19.5054762 Z" id="Fill-20" fill="#FFFFFE"></path>
                <path d="M158.480781,14.7246012 C158.480781,14.0539643 158.467484,13.5289286 158.428672,13.0028036 L159.442828,13.0028036 L159.507516,14.0401667 L159.534109,14.0401667 C159.846766,13.4501369 160.5745,12.8582917 161.613812,12.8582917 C162.484937,12.8582917 163.836187,13.3844167 163.836187,15.5648036 L163.836187,19.3606012 L162.693375,19.3606012 L162.693375,15.6951548 C162.693375,14.6719524 162.316031,13.8037917 161.236469,13.8037917 C160.495797,13.8037917 159.911094,14.3429881 159.703375,14.9863929 C159.650906,15.1309048 159.623234,15.3415 159.623234,15.5255893 L159.623234,19.3606012 L158.480781,19.3606012 L158.480781,14.7246012" id="Fill-21" fill="#FFFFFE"></path>
                <path d="M169.622844,15.5517321 C169.635422,14.8284464 169.323125,13.6723512 168.049141,13.6723512 C166.878297,13.6723512 166.384875,14.7496548 166.293594,15.5517321 L169.622844,15.5517321 Z M166.281016,16.3792262 C166.306891,17.9427143 167.282594,18.585756 168.426844,18.585756 C169.245141,18.585756 169.752578,18.4416071 170.168016,18.2702262 L170.376453,19.0846488 C169.972156,19.268375 169.271016,19.4924048 168.270156,19.4924048 C166.346062,19.4924048 165.175578,18.1914345 165.175578,16.287 C165.175578,14.3560595 166.306891,12.8448571 168.139703,12.8448571 C170.193891,12.8448571 170.727562,14.6719524 170.727562,15.8396667 C170.727562,16.0764048 170.714984,16.260494 170.68875,16.3919345 L166.281016,16.3792262 L166.281016,16.3792262 Z" id="Fill-22" fill="#FFFFFE"></path>
                <path d="M54.4751406,29.1278631 C54.7353281,30.1510655 55.016,31.2138452 55.3771719,32.3619524 L57.4547188,38.4408929 L51.5419219,38.4408929 L53.5910781,32.322375 C53.9030156,31.3307619 54.1987813,30.2589048 54.4751406,29.1278631 Z M52.6459219,25.3582083 L44.9369688,48.285131 L48.4671094,48.285131 L50.7689063,41.2450774 L58.233125,41.2450774 L60.5996094,48.285131 L64.2275,48.285131 L56.485125,25.3582083 L52.6459219,25.3582083 L52.6459219,25.3582083 Z" id="Fill-23" fill="#FFFFFE"></path>
                <path d="M73.3480781,34.1730714 C76.4085156,34.1730714 77.7780938,37.0375298 77.7780938,39.8758452 C77.7780938,43.5376607 76.0304531,45.8113631 73.217625,45.8113631 C71.2974844,45.8113631 69.6357344,44.4911488 69.1732188,42.59325 C69.0937969,42.2987798 69.0506719,41.9091786 69.0506719,41.4698333 L69.0506719,38.6801726 C69.0506719,38.4278214 69.1067344,38.121369 69.1602812,37.823994 C69.1771719,37.7295893 69.1955,37.6344583 69.2095156,37.5422321 C69.7212656,35.5579167 71.4211094,34.1730714 73.3480781,34.1730714 Z M74.2033906,31.3017143 C71.8649375,31.3017143 69.991875,32.2130833 68.7452031,33.9468631 L68.6082813,31.6662619 L65.4680625,31.6662619 L65.48675,31.9581905 C65.57875,33.378619 65.6179219,34.9421071 65.6179219,37.1874881 L65.6179219,54.8593333 L69.0506719,54.8593333 L69.0506719,46.6123512 C70.1158594,47.90025 71.8171406,48.6500417 73.7441094,48.6500417 C75.7508594,48.6500417 77.5994844,47.8552262 78.9467813,46.4151905 C80.4504063,44.8092202 81.2439063,42.5010238 81.2439063,39.7429524 C81.2439063,37.3058571 80.5549844,35.1988155 79.2490156,33.6509405 C77.97,32.135744 76.1792344,31.3017143 74.2033906,31.3017143 L74.2033906,31.3017143 Z" id="Fill-24" fill="#FFFFFE"></path>
                <path d="M91.0286094,34.1730714 C94.0879688,34.1730714 95.4575469,37.0375298 95.4575469,39.8758452 C95.4575469,43.5376607 93.7088281,45.8113631 90.8970781,45.8113631 C88.9772969,45.8113631 87.3144688,44.4911488 86.8523125,42.59325 C86.7728906,42.2987798 86.7315625,41.9091786 86.7315625,41.4698333 L86.7315625,38.6801726 C86.7315625,38.4267321 86.7858281,38.1188274 86.8411719,37.8214524 C86.8577031,37.7281369 86.8745938,37.6344583 86.8904063,37.5422321 C87.4007187,35.5579167 89.1009219,34.1730714 91.0286094,34.1730714 Z M91.8828438,31.3017143 C89.54475,31.3017143 87.6716875,32.2130833 86.4239375,33.9468631 L86.287375,31.6662619 L83.147875,31.6662619 L83.1654844,31.9581905 C83.2582031,33.3797083 83.297375,34.9421071 83.297375,37.1874881 L83.297375,54.8593333 L86.7315625,54.8593333 L86.7315625,46.6123512 C87.7960312,47.90025 89.4962344,48.6500417 91.4228437,48.6500417 C93.4303125,48.6500417 95.2785781,47.8552262 96.6273125,46.4151905 C98.1295,44.8092202 98.9233594,42.5010238 98.9233594,39.7429524 C98.9233594,37.3058571 98.2333594,35.1988155 96.92775,33.6509405 C95.6498125,32.135744 93.8583281,31.3017143 91.8828438,31.3017143 L91.8828438,31.3017143 Z" id="Fill-25" fill="#FFFFFE"></path>
                <path d="M114.031125,35.0724583 C110.826938,33.8190536 109.800203,32.8328869 109.800203,31.0112381 C109.800203,29.4775238 111.006625,27.9307381 113.702656,27.9307381 C115.927188,27.9307381 117.350672,28.712119 117.733047,28.9528512 L118.0245,29.1343988 L118.993016,26.2394405 L118.801469,26.1261548 C118.226469,25.7855714 116.587359,24.9925714 113.801844,24.9925714 C109.423219,24.9925714 106.365656,27.6046786 106.365656,31.342744 C106.365656,34.3571607 108.280406,36.4638393 112.392375,37.9739524 C115.305109,39.0748571 116.389703,40.2019048 116.389703,42.1339345 C116.389703,44.3212202 114.716813,45.6784702 112.025813,45.6784702 C110.273141,45.6784702 108.469438,45.1617857 107.077578,44.2609464 L106.779656,44.0674167 L105.858219,47.0295476 L106.027484,47.1424702 C107.323031,48.0171667 109.762828,48.6500417 111.829234,48.6500417 C117.730172,48.6500417 119.822453,45.014369 119.822453,41.9011905 C119.822453,38.6921548 118.144891,36.7125595 114.031125,35.0724583" id="Fill-26" fill="#FFFFFE"></path>
                <path d="M126.002984,27.7165119 L122.635281,28.784375 L122.635281,31.6662619 L120.170687,31.6662619 L120.170687,34.4388571 L122.635281,34.4388571 L122.635281,42.9309286 C122.635281,44.9842321 123.024125,46.4231786 123.824094,47.332006 C124.591359,48.1816488 125.771187,48.6500417 127.145437,48.6500417 C128.444219,48.6500417 129.365656,48.3907917 129.799422,48.2353869 L129.991687,48.167125 L129.827453,45.3894464 L129.498266,45.4918393 C129.0645,45.6261845 128.618156,45.6784702 127.901563,45.6784702 C126.570797,45.6784702 126.002984,44.827375 126.002984,42.8310774 L126.002984,34.4388571 L130.144062,34.4388571 L130.144062,31.6662619 L126.002984,31.6662619 L126.002984,27.7165119" id="Fill-27" fill="#FFFFFE"></path>
                <path d="M138.553797,34.0401786 C141.642625,34.0401786 143.047781,37.0821905 143.047781,39.9099762 C143.047781,43.3873393 141.129437,45.9112143 138.488391,45.9112143 L138.455328,45.9112143 C135.851297,45.9112143 133.960984,43.4298214 133.960984,40.0098274 C133.960984,37.0389821 135.380875,34.0401786 138.553797,34.0401786 Z M138.652625,31.3017143 C133.848859,31.3017143 130.494453,34.9239524 130.494453,40.1085893 C130.494453,45.1381845 133.740688,48.6500417 138.389203,48.6500417 L138.421547,48.6500417 C142.351672,48.6500417 146.580078,45.883619 146.580078,39.810125 C146.580078,37.3399881 145.823953,35.2187857 144.392203,33.6745417 C142.951828,32.1226726 140.966641,31.3017143 138.652625,31.3017143 L138.652625,31.3017143 Z" id="Fill-28" fill="#FFFFFE"></path>
                <path d="M157.09575,31.4622024 L156.890187,31.4095536 C156.587594,31.3333036 156.340703,31.3017143 156.035953,31.3017143 C154.239797,31.3017143 152.628359,32.3699405 151.731,34.0939167 L151.630016,31.6662619 L148.549453,31.6662619 L148.569219,31.9581905 C148.6605,33.3314167 148.698953,34.872756 148.698953,36.9532917 L148.666609,48.285131 L152.100437,48.285131 L152.100437,39.4444881 C152.100437,38.9633869 152.1335,38.5080655 152.194594,38.1003095 C152.582719,35.9762024 154.000453,34.6040655 155.807031,34.6040655 C156.158859,34.6040655 156.435219,34.6331131 156.728828,34.6621607 L157.09575,34.7006488 L157.09575,31.4622024" id="Fill-29" fill="#FFFFFE"></path>
                <path d="M164.585844,33.9076488 C165.631625,33.9076488 166.480469,34.2347976 167.1065,34.8792917 C168.094063,35.894506 168.267281,37.3900952 168.288484,38.1082976 L160.4595,38.1082976 C160.777187,36.1047381 162.01775,33.9076488 164.585844,33.9076488 Z M164.815484,31.2690357 C160.244594,31.2690357 157.051547,34.9580833 157.051547,40.2414821 C157.051547,45.3288095 160.227703,48.6166369 165.143234,48.6166369 C167.728219,48.6166369 169.526531,48.0436726 170.5795,47.5632976 L170.785781,47.4688929 L170.126688,44.884381 L169.839547,45.0012976 C168.904094,45.3854524 167.661016,45.7786845 165.537469,45.7786845 C164.046063,45.7786845 160.606844,45.281244 160.395531,40.7490893 L171.477937,40.782131 L171.522141,40.561006 C171.592219,40.2088036 171.626,39.733875 171.626,39.1129821 C171.626,35.4947381 169.842422,31.2690357 164.815484,31.2690357 L164.815484,31.2690357 Z" id="Fill-30" fill="#FFFFFE"></path>
            </g>
        </g>
    </g>
</svg>