<svg height="38" viewBox="0 0 71 38" width="71" xmlns="http://www.w3.org/2000/svg"><g fill="none" fill-rule="evenodd" transform="translate(1 1)"><g stroke="#cf2975" stroke-linecap="square" stroke-width="2"><path d="m.37636364 9.87179487v-8.71794872"/><path d="m68.6236364 9.87179487v-8.71794872"/><path d="m.37636364.38461539h68.24727276"/><g transform="matrix(-1 0 0 -1 69 36)"><path d="m.37636364 9.87179487v-8.71794872"/><path d="m68.6236364 9.87179487v-8.71794872"/><path d="m.37636364.38461539h68.24727276"/></g></g><g fill="#000" fill-rule="nonzero" transform="translate(12 6)"><path d="m.95129079 0h-.90258158c-.02679007 0-.04870921.02370448-.04870921.05267663v23.89464677c0 .0294989.02191914.0526766.04870921.0526766h.90258158c.02679007 0 .04870921-.0231777.04870921-.0526766v-23.89464677c0-.01369592-.00535801-.02739185-.01412567-.03740041-.00974184-.00948179-.02191914-.01527622-.03458354-.01527622z"/><path d="m6.9497992 0h-.8995984c-.02761044 0-.0502008.02370396-.0502008.05267548v11.92888812 11.9657609c0 .0294983.02259036.0526755.0502008.0526755h.8995984c.02761044 0 .0502008-.0231772.0502008-.0526755v-11.9399499-11.95469912c0-.02897152-.02259036-.05267548-.0502008-.05267548z"/><path d="m10.9358974 0h-1.87179484c-.03525641 0-.06410256.02370448-.06410256.05267663v11.92967667 11.9649701c0 .0294989.02884615.0526766.06410256.0526766h1.87179484c.0352564 0 .0641026-.0231777.0641026-.0526766v-11.9122934-11.98235337c0-.02897215-.0288462-.05267663-.0641026-.05267663z"/><path d="m20.9361022 0h-1.8722044c-.0351438 0-.0638978.02370448-.0638978.05267663v23.89464677c0 .0294989.028754.0526766.0638978.0526766h1.8722044c.0351438 0 .0638978-.0231777.0638978-.0526766v-23.89464677c0-.02897215-.028754-.05267663-.0638978-.05267663z"/><path d="m4.93662864 0h-1.87325728c-.03485425 0-.06337136.02370448-.06337136.05267663v23.89464677c0 .0294989.02851711.0526766.06337136.0526766h1.87325728c.03485425 0 .06337136-.0231777.06337136-.0526766v-23.89464677c0-.02897215-.02851711-.05267663-.06337136-.05267663z"/><path d="m2.526 0h-.426c-.055 0-.1.02370448-.1.05267663v23.89464677c0 .0294989.045.0526766.1.0526766h.426c.055 0 .1-.0231777.1-.0526766v-23.89464677c0-.02897215-.045-.05267663-.1-.05267663z"/><path d="m22.9505685 0h-.901137c-.0271873 0-.0494315.02370448-.0494315.05267663v23.89464677c0 .0294989.0222442.0526766.0494315.0526766h.901137c.0276816 0 .0494315-.0231777.0494315-.0526766v-23.89464677c0-.02897215-.0217499-.05267663-.0494315-.05267663z"/><path d="m24.555 0h-.455c-.056 0-.1.02370448-.1.05267663v23.89464677c0 .0294989.044.0526766.1.0526766h.455c.056 0 .1-.0231777.1-.0526766v-23.89464677c0-.02897215-.044-.05267663-.1-.05267663z"/><path d="m26.496 0h-.396c-.056 0-.1.02370448-.1.05267663v23.89464677c0 .0294989.044.0526766.1.0526766h.396c.056 0 .1-.0231777.1-.0526766v-23.89464677c0-.02897215-.044-.05267663-.1-.05267663z"/><path d="m29.9302893 0h-1.8605786c-.039038 0-.0697107.02370448-.0697107.05267663v23.89464677c0 .0294989.0306727.0526766.0697107.0526766h1.8605786c.039038 0 .0697107-.0231777.0697107-.0526766v-23.89464677c-.0006971-.02897215-.0313698-.05267663-.0697107-.05267663z"/><path d="m31.9502982 0h-.9005964c-.027833 0-.0497018.02370448-.0497018.05267663v23.89464677c0 .0294989.0218688.0526766.0497018.0526766h.9005964c.027833 0 .0497018-.0231777.0497018-.0526766v-23.89464677c-.000497-.02897215-.0223658-.05267663-.0497018-.05267663z"/><path d="m33.524 0h-.424c-.056 0-.1.02370448-.1.05267663v23.89464677c0 .0294989.044.0526766.1.0526766h.424c.056 0 .1-.0231777.1-.0526766v-23.89464677c0-.02897215-.044-.05267663-.1-.05267663z"/><path d="m35.9373826 0h-1.8747652c-.0350657 0-.0626174.02370448-.0626174.05267663v23.89464677c0 .0294989.0275517.0526766.0626174.0526766h1.8747652c.0350657 0 .0626174-.0231777.0626174-.0526766v-23.89464677c0-.02897215-.0275517-.05267663-.0626174-.05267663z"/><path d="m37.456 0h-.356c-.056 0-.1.02370448-.1.05267663v23.89464677c0 .0294989.044.0526766.1.0526766h.356c.056 0 .1-.0231777.1-.0526766v-23.89464677c0-.02897215-.044-.05267663-.1-.05267663z"/><path d="m39.9298574 0h-2.8597148c-.0392798 0-.0701426.02370448-.0701426.05267663v23.89464677c0 .0294989.0308628.0526766.0701426.0526766h2.8597148c.0392798 0 .0701426-.0231777.0701426-.0526766v-23.89464677c-.0007014-.02897215-.0308628-.05267663-.0701426-.05267663z"/><path d="m42.9339498 0h-1.8678996c-.0369881 0-.0660502.02370448-.0660502.05267663v23.89464677c0 .0294989.0290621.0526766.0660502.0526766h1.8678996c.0369881 0 .0660502-.0231777.0660502-.0526766v-23.89464677c0-.02897215-.0290621-.05267663-.0660502-.05267663z"/><path d="m44.525 0h-.425c-.056 0-.1.02370448-.1.05267663v23.89464677c0 .0294989.044.0526766.1.0526766h.425c.056 0 .1-.0231777.1-.0526766v-23.89464677c0-.02897215-.044-.05267663-.1-.05267663z"/><path d="m45.9497487 0h-.8994974c-.0281407 0-.0502513.02370448-.0502513.05267663v23.89464677c0 .0294989.0221106.0526766.0502513.0526766h.8994974c.0281407 0 .0502513-.0231777.0502513-.0526766v-23.89464677c0-.02897215-.0221106-.05267663-.0502513-.05267663z"/><path d="m11.953271 0h-.906542c-.025701 0-.046729.02370396-.046729.05267548v11.92888812 11.9657609c0 .0294983.021028.0526755.046729.0526755h.906542c.025701 0 .046729-.0231772.046729-.0526755v-11.9510118-11.94363722c0-.02897152-.021028-.05267548-.046729-.05267548z"/><path d="m14.514 0h-.414c-.055 0-.1.02370396-.1.05267548v11.94732452 11.9473245c0 .0294983.045.0526755.1.0526755h.414c.055 0 .1-.0231772.1-.0526755v-11.9473245-11.94732452c0-.02897152-.045-.05267548-.1-.05267548z"/><path d="m14.9490316 0h-.8980632c-.0280326 0-.0509684.02370448-.0509684.05267663v11.93389087 11.9607559c0 .0294989.0229358.0526766.0509684.0526766h.8980632c.0280326 0 .0509684-.0231777.0509684-.0526766v-11.9370515-11.95759527c0-.02897215-.0229358-.05267663-.0509684-.05267663z"/><path d="m16.525 0h-.425c-.055 0-.1.02370396-.1.05267548v11.94732452 11.9473245c0 .0294983.045.0526755.1.0526755h.425c.055 0 .1-.0231772.1-.0526755v-11.9473245-11.94732452c0-.02897152-.045-.05267548-.1-.05267548z"/></g><path d="m66 18.5h-61.5" stroke="#cf2975" stroke-linecap="square" stroke-width="2"/></g></svg>