<?xml version="1.0" encoding="UTF-8"?>
<svg width="11px" height="11px" viewBox="0 0 11 11" version="1.1" xmlns="http://www.w3.org/2000/svg" xmlns:xlink="http://www.w3.org/1999/xlink">
    <!-- Generator: Sketch 52.2 (67145) - http://www.bohemiancoding.com/sketch -->
    <title>close</title>
    <desc>Created with Sketch.</desc>
    <g id="Design" stroke="none" stroke-width="1" fill="none" fill-rule="evenodd">
        <g id="POPUP_ADDED-Copy" transform="translate(-268.000000, -191.000000)" fill="#545658" fill-rule="nonzero">
            <g id="Group-12" transform="translate(30.000000, 181.000000)">
                <path d="M238.174134,20.8258657 C238.406602,21.0580448 238.783201,21.0580448 239.015669,20.8258657 L243.507164,16.334371 L247.998659,20.8258657 C248.233264,21.0444734 248.598856,21.038023 248.825603,20.8112753 C249.052351,20.5845276 249.058801,20.2189362 248.840194,19.9843307 L244.348699,15.492836 L248.840194,11.0013412 C249.058801,10.7667358 249.052351,10.4011444 248.825603,10.1743967 C248.598856,9.94764898 248.233264,9.94119855 247.998659,10.1598062 L243.507164,14.6513009 L239.015669,10.1598062 C238.781064,9.94119855 238.415472,9.94764898 238.188725,10.1743967 C237.961977,10.4011444 237.955527,10.7667358 238.174134,11.0013412 L242.665629,15.492836 L238.174134,19.9843307 C237.941955,20.2167988 237.941955,20.5933976 238.174134,20.8258657 Z" id="close"></path>
            </g>
        </g>
    </g>
</svg>