<svg height="24" viewBox="0 0 24 24" width="24" xmlns="http://www.w3.org/2000/svg"><g fill="none" fill-rule="evenodd"><circle cx="12" cy="12" fill="#e9e9e9" r="12"/><g fill="#545658" fill-rule="nonzero" stroke="#545658" stroke-width=".5" transform="translate(7.304348 6.26087)"><path d="m2.90183628 2.54187892v.45492241h5.46589266c.12282905 0 .20471508.09098448.20471508.2274612v6.07321407c0 .13647672-.08188603.2274612-.20471508.2274612h-5.46589266c-.12282905 0-.20471509-.09098448-.20471509-.2274612v-6.07321407c0-.13647672.08188604-.2274612.20471509-.2274612v-.45492241-.4549224c-.57320223 0-1.02357541.50041464-1.02357541 1.13730601v6.07321407c0 .63689137.45037318 1.137306 1.02357541 1.137306h5.46589266c.57320223 0 1.02357541-.50041463 1.02357541-1.137306v-6.07321407c0-.63689137-.45037318-1.13730601-1.02357541-1.13730601h-5.46589266z"/><path d="m7.07109974 7.39028133h-6.03253197c-.08838874 0-.1546803-.07365729-.1546803-.17186701v-6.72736573c0-.27007672-.19887468-.49104859-.44194374-.49104859-.24306905 0-.44194373.22097187-.44194373.49104859v6.7028133c0 .63836317.46404092 1.1539642 1.03856777 1.1539642h6.03253197c.24306906 0 .44194374-.22097187.44194374-.4910486 0-.24552429-.19887468-.46649616-.44194374-.46649616z" transform="matrix(1 0 0 -1 0 8.347826)"/></g></g></svg>