<svg height="17" viewBox="0 0 20 17" width="20" xmlns="http://www.w3.org/2000/svg"><g style="stroke:#333;stroke-width:2;fill:none;fill-rule:evenodd;stroke-linecap:round;stroke-linejoin:round" transform="translate(1 1)"><path d="m0 8.18181818v4.90909092c0 .4339636.17239909.8501727.47928273 1.1570727.30687545.3069.72309272.4792909 1.15708091.4792909h14.72727276c.4339636 0 .8501727-.1723909 1.1570727-.4792909s.4792909-.7231091.4792909-1.1570727v-4.90909092"/><path d="m18 4.09090909v-2.45454545c0-.43398819-.1723909-.85020546-.4792909-1.15708091-.3069-.30688364-.7231091-.47928273-1.1570727-.47928273h-14.72727276c-.43398819 0-.85020546.17239909-1.15708091.47928273-.30688364.30687545-.47928273.72309272-.47928273 1.15708091v2.45454545l9 4.90909091z"/></g></svg>