<?xml version="1.0" encoding="UTF-8"?>
<svg width="20px" height="20px" viewBox="0 0 20 20" version="1.1" xmlns="http://www.w3.org/2000/svg" xmlns:xlink="http://www.w3.org/1999/xlink">
    <!-- Generator: sketchtool 52.2 (67145) - http://www.bohemiancoding.com/sketch -->
    <title>07F3C9BC-92B5-41F0-881A-BCB2F4F2D50E</title>
    <desc>Created with sketchtool.</desc>
    <g id="Design" stroke="none" stroke-width="1" fill="none" fill-rule="evenodd">
        <g id="settings" transform="translate(-22.000000, -33.000000)" fill="#2F3337" fill-rule="nonzero">
            <g id="headerMobileIcon_cancel" transform="translate(13.000000, 33.000000)">
                <path d="M9.31660775,19.6833922 C9.73927709,20.1055359 10.4240021,20.1055359 10.8466714,19.6833922 L19.0130255,11.5170382 L27.1793796,19.6833922 C27.605935,20.0808607 28.2706466,20.0691327 28.6829151,19.6568641 C29.0951837,19.2445956 29.1069117,18.579884 28.7094432,18.1533286 L20.5430892,9.9869745 L28.7094432,1.82062044 C29.1069117,1.39406502 29.0951837,0.72935344 28.6829151,0.317084886 C28.2706466,-0.0951836682 27.605935,-0.106911728 27.1793796,0.290556756 L19.0130255,8.45691081 L10.8466714,0.290556756 C10.420116,-0.106911728 9.75540444,-0.0951836682 9.34313589,0.317084886 C8.93086733,0.72935344 8.91913927,1.39406502 9.31660775,1.82062044 L17.4829618,9.9869745 L9.31660775,18.1533286 C8.89446408,18.5759979 8.89446408,19.2607229 9.31660775,19.6833922 Z"></path>
            </g>
        </g>
    </g>
</svg>