<svg height="19" viewBox="0 0 49 19" width="49" xmlns="http://www.w3.org/2000/svg"><g fill="none" fill-rule="evenodd"><g fill="#f5f5f5"><path d="m39.3273882 3.04842162c0 1.1662381.9246272 2.12420978 2.0506594 2.12420978 1.1260795 0 2.050329-.95797168 2.050329-2.12420978 0-1.16658044-.9242495-2.12452767-2.050329-2.12452767-1.1260322 0-2.0506594.95794723-2.0506594 2.12452767z"/><path d="m2.49414721 12.9391594-.93187332 2.0885084-1.56226445.5508532c.97150289 1.5393179 2.50565607 3.3987993 5.08459971 3.3987993 2.29426686 0 3.84827023-1.0178327 4.67274952-2.6362072-1.13868353.9203873-2.71931117.8424311-4.28539933-.0884955-1.04351589-.6204466-1.95664836-1.6429988-2.59865221-2.6992471-.19347447-.3127787-.16248362-.2575638-.37915992-.6142111z"/><path d="m10.2848829 12.6612283.0011329-11.35446845h-4.19398459l-.00698651 11.08665895c0 1.0711158.10050193 2.0834466-1.07219364 2.5011776.66749518.6494479 1.69210501 1.2684273 2.97401204 1.2684273.12339692 0 .24636898-.0090476.36707515-.0274363 1.04141522-.0970785 1.92832465-1.0068533 1.92832465-2.1092934z"/><path d="m44.8752645 16.8527653c0 1.166238.9246744 2.1241608 2.0507539 2.1241608 1.1260322 0 2.0510606-.9579228 2.0510606-2.1241608 0-1.1666294-.9250284-2.1245522-2.0510606-2.1245522-1.1260795 0-2.0507539.9579228-2.0507539 2.1245522z"/><path d="m11.5634099 18.6144247h3.8516691v-11.24716859h-3.8516691z"/><path d="m26.0070096 18.6144247h3.8512679v-11.24716859h-3.8512679z"/><path d="m26.0070049 3.04842162c0 1.1662381.9242495 2.12420978 2.050329 2.12420978 1.1260323 0 2.0507067-.95797168 2.0507067-2.12420978 0-1.16658044-.9246744-2.12452767-2.0507067-2.12452767-1.1260795 0-2.050329.95794723-2.050329 2.12452767z"/><path d="m11.4389249 3.04842162c0 1.1662381.9242731 2.12420978 2.0503054 2.12420978 1.1257018 0 2.050329-.95797168 2.050329-2.12420978 0-1.16658044-.9246272-2.12452767-2.050329-2.12452767-1.1260323 0-2.0503054.95794723-2.0503054 2.12452767z"/><path d="m23.378339 0c-1.7884764 0-3.3575857.96892664-4.2486257 2.42676705-.7084701 1.0295946-.7831031 2.02319434-.7897356 3.28648649-.0007316.049713-.000354.0602767 0 .07086486-.000354.06066796-.0007316.12136036-.0007316.18361776v1.4249511h-1.6019885v3.28841824h1.6019885v7.9579679h3.8516218v-7.4956101-.4623578h2.4395439v-.4306177-2.85780054h-2.4395439v-1.54242342c0-.03638611.0015106-.07008237.0018883-.10531918.007789-.48309395.0684017-.86553925.2016411-1.1497323.0077182-.01645689.0147047-.03330502.0228714-.04934621.3442274-.67727542.8089484-.96068597 1.5921459-1.0159009.2901999-.02034492.6911219.08338481.8690656.21452638v-3.17295109-.33312355c-.0135482-.00430373-.0278045-.01173745-.0413526-.01450064-.4616055-.14481082-.9515111-.22391635-1.4587886-.22391635z"/><path d="m36.2393992 10.6560436h2.0559938v-3.28878504h-2.0559938v-3.37615573h-3.8516926v3.37615573h-1.3723777v3.28878504h1.3723777v7.9583836h3.8516926z"/></g><path d="m0 18.9773076h48.9770814v-18.9773076h-48.9770814z"/><path d="m39.4524586 18.6144247h3.8512206v-11.24716859h-3.8512206z" fill="#f5f5f5"/></g></svg>