<svg height="21" viewBox="0 0 17 21" width="17" xmlns="http://www.w3.org/2000/svg"><g style="stroke:#333;stroke-width:2;fill:none;fill-rule:evenodd;stroke-linecap:round;stroke-linejoin:round" transform="translate(1 1)"><path d="m7.49983333.0002c-.54875-.00545333-1.093.09859167-1.601.30605833-.507975.20745834-.969475.51416667-1.357475.90216667-.38800833.38800833-.69471666.84950833-.902175 1.3575-.20746666.50798333-.31150833 1.05225-.30605 1.60095v2.5h8.33336667v-2.5c.0054167-.5487-.0986667-1.09296667-.3060833-1.60095-.2075-.50799167-.5141667-.96949167-.9021667-1.3575-.388-.388-.8495-.69470833-1.3575-.90216667-.508-.20746666-1.05225-.31151166-1.60091667-.30605833z"/><path d="m13.3333333 6.66686667h-11.66666663c-.920475 0-1.66666667.74619166-1.66666667 1.66663333v8.3333333c0 .9205.74619167 1.6666667 1.66666667 1.6666667h11.66666663c.9205 0 1.6666667-.7461667 1.6666667-1.6666667v-8.3333333c0-.92044167-.7461667-1.66663333-1.6666667-1.66663333z"/><path d="m7.5 13.3335c.9205 0 1.66666667-.7461667 1.66666667-1.6666667 0-.9204166-.74616667-1.6666666-1.66666667-1.6666666s-1.66666667.74625-1.66666667 1.6666666c0 .9205.74616667 1.6666667 1.66666667 1.6666667z"/><path d="m7.5 13.3335v1.6666667"/></g></svg>