<svg height="16" viewBox="0 0 27 16" width="27" xmlns="http://www.w3.org/2000/svg"><g fill="none" fill-rule="evenodd"><g fill="#545658" transform="translate(9)"><path d="m12 6h-11c-.6 0-1-.4-1-1s.4-1 1-1h11c.6 0 1 .4 1 1s-.4 1-1 1z"/><path d="m17 2h-16c-.6 0-1-.4-1-1s.4-1 1-1h16c.6 0 1 .4 1 1s-.4 1-1 1z"/><path d="m12 16h-11c-.6 0-1-.4-1-1s.4-1 1-1h11c.6 0 1 .4 1 1s-.4 1-1 1z"/><path d="m17 12h-16c-.6 0-1-.4-1-1s.4-1 1-1h16c.6 0 1 .4 1 1s-.4 1-1 1z"/></g><g fill-rule="nonzero" stroke="#545658" stroke-width="1.7"><rect height="5.3" rx="1" width="5.3" x=".85" y=".85"/><rect height="5.3" rx="1" width="5.3" x=".85" y="9.85"/></g></g></svg>