<?xml version="1.0" encoding="UTF-8"?>
<svg width="116px" height="25px" viewBox="0 0 116 25" version="1.1" xmlns="http://www.w3.org/2000/svg" xmlns:xlink="http://www.w3.org/1999/xlink">
    <!-- Generator: Sketch 52.6 (67491) - http://www.bohemiancoding.com/sketch -->
    <title>Artboard</title>
    <desc>Created with Sketch.</desc>
    <defs>
        <polygon id="path-1" points="0 0.137301587 24.8608871 0.137301587 24.8608871 24.6030159 0 24.6030159"></polygon>
    </defs>
    <g id="Artboard" stroke="none" stroke-width="1" fill="none" fill-rule="evenodd">
        <g id="Group-4" transform="translate(38.000000, 0.000000)" fill="#444444">
            <g id="Group">
                <path d="M12,6.48665986 L13.2425864,6.48665986 L13.2425864,9.22850756 L13.2854342,9.22850756 C13.6282184,8.27678707 14.16024,7.54412435 14.8815151,7.03049742 C15.6027901,6.51687049 16.4633083,6.28272055 17.4630955,6.32804057 L17.4630955,7.75561417 C16.8489405,7.72540082 16.2919246,7.81226289 15.792031,8.016203 C15.2921374,8.2201431 14.860093,8.51094222 14.4958848,8.88860908 C14.1316766,9.26627594 13.849598,9.71569276 13.6496406,10.236873 C13.4496832,10.7580533 13.3497059,11.3283217 13.3497059,11.9476954 L13.3497059,18.1791674 L12,18.1791674 L12,6.48665986 Z M26.3111678,11.5171573 C26.2968851,10.973317 26.2076197,10.4521446 26.043369,9.9536243 C25.8791182,9.45510405 25.6470282,9.01324045 25.3470921,8.62802025 C25.0471559,8.24280005 24.6829532,7.93311787 24.254473,7.69896442 C23.8259928,7.46481097 23.3403891,7.347736 22.7976475,7.347736 C22.2406233,7.347736 21.7478784,7.46481097 21.3193982,7.69896442 C20.890918,7.93311787 20.5267152,8.24280005 20.2267791,8.62802025 C19.9268429,9.01324045 19.6876117,9.45888066 19.5090783,9.96495425 C19.3305449,10.4710278 19.2127146,10.9884237 19.1555839,11.5171573 L26.3111678,11.5171573 Z M19.1555839,12.7181319 C19.1555839,13.2317588 19.2234256,13.7642611 19.359111,14.3156547 C19.4947964,14.8670483 19.7126039,15.3617845 20.01254,15.7998781 C20.3124762,16.2379716 20.6909614,16.6005264 21.1480069,16.8875532 C21.6050525,17.17458 22.1549272,17.3180912 22.7976475,17.3180912 C23.783152,17.3180912 24.5544049,17.0461752 25.1114292,16.5023349 C25.6684534,15.9584946 26.0540799,15.2333851 26.26832,14.3269847 L27.6180259,14.3269847 C27.3323724,15.656372 26.807492,16.6836105 26.043369,17.4087308 C25.2792459,18.1338512 24.1973496,18.496406 22.7976475,18.496406 C21.9264044,18.496406 21.1730047,18.3340116 20.5374257,18.0092181 C19.9018467,17.6844246 19.3841075,17.2387844 18.9841927,16.6722841 C18.5842778,16.1057839 18.2879167,15.4486534 18.0951006,14.700873 C17.9022845,13.9530926 17.8058779,13.1637807 17.8058779,12.3329136 C17.8058779,11.5624732 17.9022845,10.8071508 18.0951006,10.0669238 C18.2879167,9.32669675 18.5842778,8.66578966 18.9841927,8.08418269 C19.3841075,7.50257573 19.9018467,7.03427585 20.5374257,6.679269 C21.1730047,6.32426215 21.9264044,6.14676139 22.7976475,6.14676139 C23.6831733,6.14676139 24.4401437,6.33559199 25.0685813,6.71325885 C25.697019,7.09092571 26.2076169,7.58566187 26.6003905,8.19748218 C26.993164,8.8093025 27.2752426,9.51175232 27.4466347,10.3048527 C27.6180268,11.0979531 27.6894391,11.9023715 27.6608737,12.7181319 L19.1555839,12.7181319 Z M38.8227276,17.2274517 C38.8227276,18.0885321 38.7334622,18.8665142 38.5549288,19.5614212 C38.3763954,20.2563282 38.0943168,20.8454797 37.7086846,21.3288932 C37.3230524,21.8123068 36.8195957,22.1824148 36.1982994,22.4392283 C35.5770031,22.6960417 34.8164621,22.8244465 33.9166536,22.8244465 C33.3596293,22.8244465 32.8168959,22.7564675 32.2884369,22.6205074 C31.759978,22.4845474 31.2850862,22.2730571 30.8637473,21.9860303 C30.4424085,21.6990035 30.0924882,21.3326721 29.813976,20.8870252 C29.5354639,20.4413783 29.3747862,19.9088761 29.3319382,19.2895024 L30.6816442,19.2895024 C30.7530575,19.727596 30.8923115,20.0939273 31.0994103,20.3885075 C31.306509,20.6830876 31.5564521,20.9210142 31.8492469,21.1022943 C32.1420417,21.2835744 32.4669677,21.4157558 32.8240345,21.4988425 C33.1811014,21.5819292 33.5453041,21.6234719 33.9166536,21.6234719 C35.1735289,21.6234719 36.0804651,21.2458107 36.6374894,20.490477 C37.1945137,19.7351433 37.4730217,18.647479 37.4730217,17.2274517 L37.4730217,15.6412588 L37.4301739,15.6412588 C37.115955,16.3663791 36.6553457,16.9479774 36.0483321,17.3860709 C35.4413184,17.8241645 34.730766,18.043208 33.9166536,18.043208 C33.0311278,18.043208 32.2741575,17.8883669 31.6457198,17.5786801 C31.0172822,17.2689933 30.499543,16.8422361 30.0924868,16.2983958 C29.6854306,15.7545555 29.3890695,15.1163081 29.2033948,14.3836344 C29.01772,13.6509607 28.924884,12.869202 28.924884,12.0383349 C28.924884,11.2376812 29.0355731,10.4785822 29.2569545,9.76101517 C29.478336,9.04344813 29.7996913,8.41653055 30.2210302,7.88024361 C30.6423691,7.34395667 31.1636789,6.92097613 31.7849752,6.6112893 C32.4062715,6.30160248 33.1168239,6.14676139 33.9166536,6.14676139 C34.3308512,6.14676139 34.7200482,6.20718718 35.0842564,6.32804057 C35.4484646,6.44889397 35.7805318,6.61884151 36.0804679,6.83788829 C36.3804041,7.05693507 36.6482002,7.30996807 36.8838643,7.59699488 C37.1195284,7.88402169 37.3016298,8.18615065 37.4301739,8.50339081 L37.4730217,8.50339081 L37.4730217,6.48665986 L38.8227276,6.48665986 L38.8227276,17.2274517 Z M33.9166536,16.8422334 C34.5022433,16.8422334 35.0164118,16.710052 35.4591747,16.4456852 C35.9019376,16.1813184 36.2732816,15.8338701 36.5732177,15.4033298 C36.8731539,14.9727896 37.0981026,14.4780535 37.2480707,13.9191065 C37.3980388,13.3601596 37.4730217,12.7861145 37.4730217,12.1969542 C37.4730217,11.6229006 37.4087506,11.0488556 37.2802065,10.474802 C37.1516625,9.90074834 36.9445668,9.37957589 36.6589133,8.91126898 C36.3732598,8.44296207 36.0054865,8.06530088 35.5555823,7.77827407 C35.105678,7.49124725 34.559374,7.347736 33.9166536,7.347736 C33.2739333,7.347736 32.7240586,7.48747064 32.267013,7.76694412 C31.8099675,8.04641759 31.4314823,8.41274895 31.1315461,8.86594918 C30.83161,9.31914942 30.6138025,9.83654525 30.4781171,10.4181522 C30.3424317,10.9997592 30.27459,11.5926873 30.27459,12.1969542 C30.27459,12.7861145 30.3460023,13.3601596 30.488829,13.9191065 C30.6316558,14.4780535 30.8530339,14.9727896 31.15297,15.4033298 C31.4529062,15.8338701 31.8313914,16.1813184 32.2884369,16.4456852 C32.7454825,16.710052 33.288216,16.8422334 33.9166536,16.8422334 Z M41.41502,2 L42.7647259,2 L42.7647259,4.28864973 L41.41502,4.28864973 L41.41502,2 Z M41.41502,6.48665986 L42.7647259,6.48665986 L42.7647259,18.1791674 L41.41502,18.1791674 L41.41502,6.48665986 Z M51.9770046,9.90830451 C51.9627219,9.47021095 51.8770271,9.08877314 51.7199177,8.76397964 C51.5628083,8.43918614 51.352142,8.17104669 51.0879126,7.95955325 C50.8236831,7.74805981 50.5201808,7.59321872 50.1773967,7.49502534 C49.8346125,7.39683195 49.4704098,7.347736 49.0847776,7.347736 C48.7848414,7.347736 48.4813391,7.38172551 48.1742616,7.44970554 C47.8671842,7.51768558 47.5851056,7.63098393 47.3280174,7.78960401 C47.0709293,7.9482241 46.8638336,8.15593775 46.7067242,8.41275122 C46.5496148,8.66956468 46.4710613,8.98680009 46.4710613,9.36446695 C46.4710613,9.68170711 46.5460442,9.94984656 46.6960123,10.1688933 C46.8459804,10.3879401 47.0352229,10.5729941 47.2637457,10.7240608 C47.4922685,10.8751276 47.7422116,10.9997558 48.0135824,11.0979492 C48.2849532,11.1961425 48.5348962,11.2754514 48.763419,11.3358781 L50.5630269,11.7664162 C50.9486591,11.8268429 51.3307149,11.9363646 51.7092058,12.0949847 C52.0876966,12.2536048 52.4233344,12.4613184 52.7161293,12.7181319 C53.0089241,12.9749454 53.2481553,13.2921808 53.43383,13.6698476 C53.6195048,14.0475145 53.7123408,14.4931547 53.7123408,15.0067816 C53.7123408,15.6412619 53.5766574,16.1813175 53.3052866,16.6269644 C53.0339158,17.0726112 52.6875662,17.435166 52.2662273,17.7146395 C51.8448884,17.9941129 51.3699966,18.1942734 50.8415377,18.3151268 C50.3130787,18.4359802 49.791769,18.496406 49.2775927,18.496406 C47.9778694,18.496406 46.924538,18.1716173 46.1175669,17.5220303 C45.3105958,16.8724433 44.8499865,15.8300984 44.7357251,14.3949644 L46.085431,14.3949644 C46.1425617,15.3617915 46.4746289,16.0906776 47.0816425,16.5816446 C47.6886562,17.0726115 48.4420559,17.3180912 49.3418644,17.3180912 C49.6703659,17.3180912 50.0095743,17.2803251 50.3594998,17.2047918 C50.7094253,17.1292584 51.0343513,17.0008536 51.3342875,16.8195735 C51.6342236,16.6382934 51.880596,16.4079201 52.0734121,16.1284466 C52.2662282,15.8489731 52.3626348,15.5053014 52.3626348,15.0974212 C52.3626348,14.7499677 52.2947932,14.4591686 52.1591078,14.2250151 C52.0234224,13.9908617 51.841321,13.7944779 51.6127982,13.6358578 C51.3842754,13.4772377 51.1236205,13.3450563 50.8308257,13.2393096 C50.5380309,13.1335628 50.2416699,13.0429241 49.9417337,12.9673908 L48.2063975,12.5595126 C47.7636346,12.4386592 47.3565845,12.2989246 46.985235,12.1403045 C46.6138855,11.9816844 46.2889595,11.7853006 46.0104474,11.5511471 C45.7319352,11.3169937 45.5141277,11.0299712 45.3570183,10.690071 C45.1999089,10.3501708 45.1213553,9.9309669 45.1213553,9.43244664 C45.1213553,8.84328634 45.2463269,8.33722034 45.4962737,7.91423346 C45.7462205,7.49124657 46.0711464,7.1513515 46.4710613,6.89453803 C46.8709762,6.63772457 47.317303,6.44889397 47.8100553,6.32804057 C48.3028075,6.20718718 48.7919818,6.14676139 49.2775927,6.14676139 C49.834617,6.14676139 50.3523561,6.22229363 50.8308257,6.37336037 C51.3092953,6.52442712 51.7306279,6.75857706 52.094836,7.07581722 C52.4590442,7.39305738 52.748264,7.78582502 52.9625042,8.25413193 C53.1767443,8.72243884 53.2981452,9.27382418 53.3267105,9.90830451 L51.9770046,9.90830451 Z M57.8043064,6.48665986 L60.0538163,6.48665986 L60.0538163,7.68763447 L57.8043064,7.68763447 L57.8043064,15.5732791 C57.8043064,16.041586 57.8650069,16.4079173 57.9864096,16.6722841 C58.1078123,16.9366509 58.4113146,17.0839388 58.8969255,17.1141522 C59.2825577,17.1141522 59.6681841,17.0914925 60.0538163,17.0461725 L60.0538163,18.2471471 C59.8538589,18.2471471 59.6539045,18.2547003 59.453947,18.269807 C59.2539896,18.2849137 59.0540351,18.2924669 58.8540777,18.2924669 C57.9542692,18.2924669 57.325841,18.1074129 56.9687742,17.7372994 C56.6117073,17.3671858 56.4403178,16.6836191 56.4546005,15.6865786 L56.4546005,7.68763447 L54.5264491,7.68763447 L54.5264491,6.48665986 L56.4546005,6.48665986 L56.4546005,2.97437563 L57.8043064,2.97437563 L57.8043064,6.48665986 Z M62.0033916,6.48665986 L63.245978,6.48665986 L63.245978,9.22850756 L63.2888258,9.22850756 C63.63161,8.27678707 64.1636316,7.54412435 64.8849066,7.03049742 C65.6061817,6.51687049 66.4666999,6.28272055 67.4664871,6.32804057 L67.4664871,7.75561417 C66.8523321,7.72540082 66.2953161,7.81226289 65.7954226,8.016203 C65.295529,8.2201431 64.8634846,8.51094222 64.4992764,8.88860908 C64.1350682,9.26627594 63.8529896,9.71569276 63.6530322,10.236873 C63.4530747,10.7580533 63.3530975,11.3283217 63.3530975,11.9476954 L63.3530975,18.1791674 L62.0033916,18.1791674 L62.0033916,6.48665986 Z M67.5093349,6.48665986 L68.9447364,6.48665986 L72.5868001,16.4570151 L75.9932008,6.48665986 L77.3429067,6.48665986 L72.5439523,19.9466395 C72.3439948,20.4451597 72.1583229,20.8568104 71.9869308,21.1816039 C71.8155387,21.5063974 71.6262961,21.763207 71.4191973,21.9520405 C71.2120985,22.1408739 70.9692967,22.2768319 70.6907846,22.3599186 C70.4122724,22.4430053 70.0587816,22.4845481 69.6303013,22.4845481 C69.3589305,22.4694414 69.1482643,22.4581115 68.9982962,22.4505582 C68.8483281,22.4430049 68.7162153,22.4165686 68.601954,22.3712486 L68.601954,21.170274 C68.7590634,21.2004873 68.9125998,21.2269236 69.0625679,21.2495836 C69.212536,21.2722436 69.3660724,21.2835735 69.5231818,21.2835735 C69.823118,21.2835735 70.0694904,21.2382541 70.2623065,21.1476141 C70.4551226,21.056974 70.6229415,20.9323458 70.7657682,20.7737257 C70.908595,20.6151057 71.0299959,20.4224984 71.1299746,20.1958983 C71.2299533,19.9692982 71.3370718,19.7200418 71.4513332,19.4481217 L71.9226591,18.1338476 L67.5093349,6.48665986 Z" id="registry"></path>
                <rect id="Rectangle" x="0" y="0" width="1" height="25"></rect>
            </g>
        </g>
        <g id="Group-6" transform="translate(1.000000, 0.000000)">
            <g id="Group-3" transform="translate(0.000000, 0.259643)">
                <mask id="mask-2" fill="white">
                    <use xlink:href="#path-1"></use>
                </mask>
                <g id="Clip-2"></g>
                <path d="M0,0.137142857 L0,12.9585714 C1.92096774,7.86492063 7.24314516,3.97047619 12.6495968,3.97047619 C18.6387097,3.97047619 22.4616935,8.74865079 21.1887097,14.6423016 C20.2072581,19.1859524 16.4834677,23.0633333 12.0854839,24.6030159 L24.8608871,24.6030159 L24.8608871,0.137142857 L0,0.137142857 Z" id="Fill-1" fill="#FF1F2C" mask="url(#mask-2)"></path>
            </g>
            <path d="M17.2179839,14.9021429 C17.2179839,9.80769841 14.1405645,5.67753968 10.3445968,5.67753968 C6.54862903,5.67753968 3.47120968,9.80769841 3.47120968,14.9021429 C3.47120968,19.9965873 6.54862903,24.126746 10.3445968,24.126746 C14.1405645,24.126746 17.2179839,19.9965873 17.2179839,14.9021429" id="Fill-4" fill="#FF1F2C"></path>
        </g>
    </g>
</svg>