<?xml version="1.0" encoding="UTF-8"?>
<svg width="97px" height="101px" viewBox="0 0 97 101" version="1.1" xmlns="http://www.w3.org/2000/svg" xmlns:xlink="http://www.w3.org/1999/xlink">
    <!-- Generator: Sketch 49.3 (51167) - http://www.bohemiancoding.com/sketch -->
    <title>Group 23</title>
    <desc>Created with Sketch.</desc>
    <defs></defs>
    <g id="Desktop" stroke="none" stroke-width="1" fill="none" fill-rule="evenodd">
        <g id="Group-23">
            <polygon id="Rectangle-4-Copy" fill="#0F4899" points="48.2034407 0 96.8747633 0 0 100.694336 0 50.878418"></polygon>
            <path d="M5.68074815,40.9084938 L4.80403917,40.9084938 L4.80403917,33.9102028 L9.09017198,33.9102028 L9.09017198,34.6792457 L5.68074815,34.6792457 L5.68074815,36.8889625 L8.50569932,36.8889625 L8.50569932,37.5964821 L5.68074815,37.5964821 L5.68074815,40.9084938 Z M13.9527088,33.9102028 L14.6807362,33.9102028 L14.6807362,38.478318 C14.6807362,39.3943382 14.456007,40.0514361 14.0065418,40.4496315 C13.5570767,40.8478268 12.9683375,41.0469215 12.2403065,41.0469215 C11.4302438,41.0469215 10.8303963,40.8418454 10.4407459,40.4316871 C10.0510956,40.0215288 9.85627328,39.3704123 9.85627328,38.478318 L9.85627328,33.9102028 L10.7329823,33.9102028 L10.7329823,38.478318 C10.7329823,39.0217778 10.7962141,39.4045864 10.9226795,39.6267555 C11.049145,39.8489246 11.2405493,40.0129854 11.4968983,40.118943 C11.7532472,40.2249006 12.0215551,40.2778785 12.3018299,40.2778785 C12.8418717,40.2778785 13.2520238,40.1360343 13.5322987,39.8523414 C13.8125735,39.5686486 13.9527088,39.1106454 13.9527088,38.478318 L13.9527088,33.9102028 Z M20.2866812,40.1394508 L20.2866812,40.9084938 L16.154357,40.9084938 L16.154357,33.9102028 L17.0515738,33.9102028 L17.0515738,40.1394508 L20.2866812,40.1394508 Z M25.2568841,40.1394508 L25.2568841,40.9084938 L21.1245599,40.9084938 L21.1245599,33.9102028 L22.0217767,33.9102028 L22.0217767,40.1394508 L25.2568841,40.1394508 Z M29.9348506,33.9102028 L27.591833,37.9656227 L27.591833,40.9084938 L26.7151241,40.9084938 L26.7151241,37.9656227 L24.3721065,33.9102028 L25.4026241,33.9102028 L27.263708,37.1299293 L29.1350459,33.9102028 L29.9348506,33.9102028 Z M33.8664673,40.9084938 L32.9897583,40.9084938 L32.9897583,33.9102028 L37.2758911,33.9102028 L37.2758911,34.6792457 L33.8664673,34.6792457 L33.8664673,36.8889625 L36.6914185,36.8889625 L36.6914185,37.5964821 L33.8664673,37.5964821 L33.8664673,40.9084938 Z M42.138428,33.9102028 L42.8664553,33.9102028 L42.8664553,38.478318 C42.8664553,39.3943382 42.6417261,40.0514361 42.192261,40.4496315 C41.7427958,40.8478268 41.1540566,41.0469215 40.4260256,41.0469215 C39.615963,41.0469215 39.0161155,40.8418454 38.6264651,40.4316871 C38.2368147,40.0215288 38.0419924,39.3704123 38.0419924,38.478318 L38.0419924,33.9102028 L38.9187014,33.9102028 L38.9187014,38.478318 C38.9187014,39.0217778 38.9819332,39.4045864 39.1083987,39.6267555 C39.2348641,39.8489246 39.4262685,40.0129854 39.6826174,40.118943 C39.9389664,40.2249006 40.2072742,40.2778785 40.4875491,40.2778785 C41.0275908,40.2778785 41.437743,40.1360343 41.7180178,39.8523414 C41.9982926,39.5686486 42.138428,39.1106454 42.138428,38.478318 L42.138428,33.9102028 Z M49.492664,40.9084938 L48.6415898,40.9084938 L45.0219609,34.8074196 L45.0322148,35.2688453 C45.0424688,35.4431626 45.0475957,35.5901338 45.0475957,35.7097633 L45.0475957,40.9084938 L44.3400761,40.9084938 L44.3400761,33.9102028 L45.4372441,33.9102028 L48.8210332,39.6165016 L48.8107793,39.129441 C48.8039433,38.9380338 48.8005254,38.7688461 48.8005254,38.6218727 L48.8005254,33.9102028 L49.492664,33.9102028 L49.492664,40.9084938 Z M51.0688239,40.9084938 L51.0688239,33.9102028 L53.4169685,33.9102028 C54.4047664,33.9102028 55.1738016,34.2468693 55.7240974,34.9202125 C56.2743931,35.5935557 56.5495368,36.417278 56.5495368,37.3914039 C56.5495368,38.3792018 56.2812289,39.2123234 55.7446052,39.8907936 C55.2079814,40.5692638 54.5278124,40.9084938 53.7040778,40.9084938 L51.0688239,40.9084938 Z M51.9455329,40.1650856 L53.3656989,40.1650856 C54.1176558,40.1650856 54.6884509,39.9053226 55.0781013,39.3857887 C55.4677517,38.8662549 55.6625739,38.180959 55.6625739,37.3298805 C55.6625739,36.6394474 55.477151,36.0190922 55.1062995,35.4687965 C54.735448,34.9185008 54.1552537,34.6433571 53.3656989,34.6433571 L51.9455329,34.6433571 L51.9455329,40.1650856 Z M62.2170053,40.1394508 L62.2170053,40.9084938 L57.6899057,40.9084938 L57.6899057,33.9102028 L62.1195932,33.9102028 L62.1195932,34.6792457 L58.5666147,34.6792457 L58.5666147,36.9043434 L61.3864389,36.9043434 L61.3864389,37.6169899 L58.5666147,37.6169899 L58.5666147,40.1394508 L62.2170053,40.1394508 Z M63.270216,40.9084938 L63.270216,33.9102028 L65.6183605,33.9102028 C66.6061584,33.9102028 67.3751937,34.2468693 67.9254894,34.9202125 C68.4757851,35.5935557 68.7509289,36.417278 68.7509289,37.3914039 C68.7509289,38.3792018 68.482621,39.2123234 67.9459972,39.8907936 C67.4093734,40.5692638 66.7292045,40.9084938 65.9054699,40.9084938 L63.270216,40.9084938 Z M64.146925,40.1650856 L65.567091,40.1650856 C66.3190479,40.1650856 66.8898429,39.9053226 67.2794933,39.3857887 C67.6691437,38.8662549 67.863966,38.180959 67.863966,37.3298805 C67.863966,36.6394474 67.678543,36.0190922 67.3076916,35.4687965 C66.9368401,34.9185008 66.3566457,34.6433571 65.567091,34.6433571 L64.146925,34.6433571 L64.146925,40.1650856 Z" id="FULLY-FUNDED" fill="#FFFFFF" transform="translate(36.777484, 37.478562) rotate(314.000000) translate(-36.777484, -37.478562) "></path>
        </g>
    </g>
</svg>