<?xml version="1.0" encoding="UTF-8"?>
<svg width="97px" height="101px" viewBox="0 0 97 101" version="1.1" xmlns="http://www.w3.org/2000/svg" xmlns:xlink="http://www.w3.org/1999/xlink">
    <!-- Generator: Sketch 49.3 (51167) - http://www.bohemiancoding.com/sketch -->
    <title>Group 20</title>
    <desc>Created with Sketch.</desc>
    <defs></defs>
    <g id="Desktop" stroke="none" stroke-width="1" fill="none" fill-rule="evenodd">
        <g id="Group-20">
            <polygon id="Rectangle-4" fill="#4A4A4A" points="48.2034407 0 96.8747633 0 0 100.694336 0 50.878418"></polygon>
            <path d="M-3.12669532,40.5224161 L-4.00340431,40.5224161 L-4.00340431,33.5241251 L-1.52195899,33.5241251 C-0.746076208,33.5241251 -0.173572168,33.7351826 0.195570303,34.1573038 C0.564712774,34.5794251 0.74928124,35.0604994 0.74928124,35.6005411 C0.74928124,36.2021066 0.548477584,36.6994161 0.146864248,37.0924845 C-0.254749088,37.4855529 -0.780256528,37.6820841 -1.42967384,37.6820841 L-3.12669532,37.6820841 L-3.12669532,40.5224161 Z M-3.12669532,36.9540568 L-1.51683204,36.9540568 C-1.10325575,36.9540568 -0.770007134,36.8301566 -0.517076182,36.5823527 C-0.264145229,36.3345487 -0.13768165,36.0072814 -0.13768165,35.6005411 C-0.13768165,35.2519066 -0.250473491,34.9408745 -0.476060557,34.6674357 C-0.701647622,34.3939968 -1.02806037,34.2572794 -1.4553086,34.2572794 L-3.12669532,34.2572794 L-3.12669532,36.9540568 Z M5.98608567,40.5224161 L5.08886887,40.5224161 L4.38134934,38.4767618 L1.79223801,38.4767618 L1.16674973,40.5224161 L0.433595432,40.5224161 L2.70483567,33.5241251 L3.70459153,33.5241251 L5.98608567,40.5224161 Z M4.19677903,37.8205118 L3.12011887,34.4572306 L2.03320481,37.8205118 L4.19677903,37.8205118 Z M11.7612202,40.5224161 L10.8434956,40.5224161 L9.55150337,37.4923868 L7.5468647,37.4923868 L7.5468647,40.5224161 L6.7265522,40.5224161 L6.7265522,33.5241251 L9.48485298,33.5241251 C10.2333919,33.5241251 10.7879518,33.7283467 11.1485493,34.136796 C11.5091468,34.5452453 11.6894428,34.9921403 11.6894428,35.4774943 C11.6894428,35.8500547 11.5886138,36.2072289 11.3869526,36.5490275 C11.1852914,36.890826 10.8520428,37.1352084 10.3871967,37.2821818 L11.7612202,40.5224161 Z M7.5468647,36.7797404 L9.37718697,36.7797404 C9.85912297,36.7797404 10.2188606,36.6524223 10.4564106,36.3977823 C10.6939606,36.1431424 10.8127338,35.8312559 10.8127338,35.4621134 C10.8127338,35.0929709 10.6871247,34.8058644 10.4359028,34.6007853 C10.1846808,34.3957061 9.8676674,34.2931681 9.48485298,34.2931681 L7.5468647,34.2931681 L7.5468647,36.7797404 Z M15.0138937,40.5224161 L14.1423117,40.5224161 L14.1423117,34.2931681 L12.137673,34.2931681 L12.137673,33.5241251 L17.0236594,33.5241251 L17.0236594,34.2931681 L15.0138937,34.2931681 L15.0138937,40.5224161 Z M18.7074853,40.5224161 L17.8307763,40.5224161 L17.8307763,33.5241251 L18.7074853,33.5241251 L18.7074853,40.5224161 Z M24.9953151,40.5224161 L24.0980983,40.5224161 L23.3905788,38.4767618 L20.8014674,38.4767618 L20.1759792,40.5224161 L19.4428249,40.5224161 L21.7140651,33.5241251 L22.7138209,33.5241251 L24.9953151,40.5224161 Z M23.2060084,37.8205118 L22.1293483,34.4572306 L21.0424342,37.8205118 L23.2060084,37.8205118 Z M29.8681058,39.7533732 L29.8681058,40.5224161 L25.7357816,40.5224161 L25.7357816,33.5241251 L26.6329984,33.5241251 L26.6329984,39.7533732 L29.8681058,39.7533732 Z M34.8383087,39.7533732 L34.8383087,40.5224161 L30.7059845,40.5224161 L30.7059845,33.5241251 L31.6032013,33.5241251 L31.6032013,39.7533732 L34.8383087,39.7533732 Z M39.5162752,33.5241251 L37.1732577,37.579545 L37.1732577,40.5224161 L36.2965487,40.5224161 L36.2965487,37.579545 L33.9535311,33.5241251 L34.9840487,33.5241251 L36.8451327,36.7438517 L38.7164706,33.5241251 L39.5162752,33.5241251 Z M43.4478919,40.5224161 L42.5711829,40.5224161 L42.5711829,33.5241251 L46.8573157,33.5241251 L46.8573157,34.2931681 L43.4478919,34.2931681 L43.4478919,36.5028849 L46.2728431,36.5028849 L46.2728431,37.2104044 L43.4478919,37.2104044 L43.4478919,40.5224161 Z M51.7198526,33.5241251 L52.4478799,33.5241251 L52.4478799,38.0922404 C52.4478799,39.0082606 52.2231507,39.6653585 51.7736856,40.0635538 C51.3242204,40.4617492 50.7354812,40.6608439 50.0074502,40.6608439 C49.1973876,40.6608439 48.5975401,40.4557678 48.2078897,40.0456095 C47.8182393,39.6354512 47.623417,38.9843347 47.623417,38.0922404 L47.623417,33.5241251 L48.500126,33.5241251 L48.500126,38.0922404 C48.500126,38.6357001 48.5633578,39.0185088 48.6898233,39.2406779 C48.8162888,39.4628469 49.0076931,39.6269078 49.264042,39.7328654 C49.520391,39.8388229 49.7886988,39.8918009 50.0689737,39.8918009 C50.6090154,39.8918009 51.0191676,39.7499566 51.2994424,39.4662638 C51.5797173,39.182571 51.7198526,38.7245677 51.7198526,38.0922404 L51.7198526,33.5241251 Z M59.0740886,40.5224161 L58.2230144,40.5224161 L54.6033855,34.4213419 L54.6136394,34.8827677 C54.6238934,35.057085 54.6290203,35.2040562 54.6290203,35.3236857 L54.6290203,40.5224161 L53.9215008,40.5224161 L53.9215008,33.5241251 L55.0186687,33.5241251 L58.4024578,39.2304239 L58.3922039,38.7433634 C58.3853679,38.5519562 58.38195,38.3827684 58.38195,38.235795 L58.38195,33.5241251 L59.0740886,33.5241251 L59.0740886,40.5224161 Z M60.6502485,40.5224161 L60.6502485,33.5241251 L62.9983931,33.5241251 C63.986191,33.5241251 64.7552263,33.8607917 65.305522,34.5341349 C65.8558177,35.2074781 66.1309614,36.0312003 66.1309614,37.0053263 C66.1309614,37.9931242 65.8626536,38.8262458 65.3260298,39.5047159 C64.789406,40.1831861 64.109237,40.5224161 63.2855024,40.5224161 L60.6502485,40.5224161 Z M61.5269575,39.7790079 L62.9471235,39.7790079 C63.6990804,39.7790079 64.2698755,39.5192449 64.6595259,38.9997111 C65.0491763,38.4801772 65.2439985,37.7948813 65.2439985,36.9438029 C65.2439985,36.2533697 65.0585756,35.6330146 64.6877241,35.0827189 C64.3168727,34.5324231 63.7366783,34.2572794 62.9471235,34.2572794 L61.5269575,34.2572794 L61.5269575,39.7790079 Z M71.7984299,39.7533732 L71.7984299,40.5224161 L67.2713303,40.5224161 L67.2713303,33.5241251 L71.7010178,33.5241251 L71.7010178,34.2931681 L68.1480393,34.2931681 L68.1480393,36.5182657 L70.9678635,36.5182657 L70.9678635,37.2309122 L68.1480393,37.2309122 L68.1480393,39.7533732 L71.7984299,39.7533732 Z M72.8516406,40.5224161 L72.8516406,33.5241251 L75.1997851,33.5241251 C76.187583,33.5241251 76.9566183,33.8607917 77.506914,34.5341349 C78.0572098,35.2074781 78.3323535,36.0312003 78.3323535,37.0053263 C78.3323535,37.9931242 78.0640456,38.8262458 77.5274218,39.5047159 C76.9907981,40.1831861 76.3106291,40.5224161 75.4868945,40.5224161 L72.8516406,40.5224161 Z M73.7283496,39.7790079 L75.1485156,39.7790079 C75.9004725,39.7790079 76.4712676,39.5192449 76.8609179,38.9997111 C77.2505683,38.4801772 77.4453906,37.7948813 77.4453906,36.9438029 C77.4453906,36.2533697 77.2599676,35.6330146 76.8891162,35.0827189 C76.5182647,34.5324231 75.9380703,34.2572794 75.1485156,34.2572794 L73.7283496,34.2572794 L73.7283496,39.7790079 Z" id="PARTIALLY-FUNDED-Copy" fill="#FFFFFF" transform="translate(37.164475, 37.092484) rotate(314.000000) translate(-37.164475, -37.092484) "></path>
        </g>
    </g>
</svg>