<svg height="18" viewBox="0 0 20 18" width="20" xmlns="http://www.w3.org/2000/svg"><path d="m104.316473 39.33053h-14.9829118l6.3149692-6.1872351c.2671224-.2614853.2671224-.6855951 0-.9470804-.2671223-.2614853-.6996582-.2617533-.9665072 0l-7.4813397 7.3301616c-.006015.0058941-.010663.0136636-.016678.0198257-.0243336.0257198-.0478469.0517076-.0678059.0809104-.0090226.0133958-.015311.0281311-.0232399.0417948-.013944.0241123-.0287082.0476889-.039918.0731408-.0071087.0168787-.0109364.0350969-.0166781.0522435-.0079289.0241124-.0172248.0476889-.0226931.0726051-.0087491.0434022-.0136705.0878762-.0136705.132618v.0002679c0 .0050904.0013671.009645.0016405.0150033.0008202.0393835.0041011.0787671.01203.1173469.0068353.0337573.0183186.0659071.0303486.097789.003281.0088412.0049214.0179504.0084758.0270595.0158578.0375081.0358168.072605.0579631.1063623.0019138.0026792.0030075.0056263.0046479.0080375.0257007.0375081.0546822.0723371.0872181.1039511l7.478879 7.3285541c.1334245.1307427.3084074.196114.4833903.196114s.3496924-.0653713.4833903-.196114c.2671223-.2617532.2671223-.6855951 0-.9470804l-6.3138756-6.1866993h14.982365c.37758 0 .683527-.2997972.683527-.6697881 0-.369991-.305947-.6697882-.683527-.6697882z" fill="#333" stroke="#333" stroke-width=".8" transform="translate(-86 -31)"/></svg>