<svg height="22" viewBox="0 0 24 22" width="24" xmlns="http://www.w3.org/2000/svg"><g fill="#333" fill-rule="evenodd" stroke="#333" transform="translate(1)"><path d="m16.7375241 19.3968627c0-.7142417.5787944-1.2927989 1.292799-1.2927989s1.292799.5785572 1.292799 1.2927989c0 .7140046-.5787944 1.2925618-1.292799 1.2925618-.7135301-.0011861-1.2913757-.5792688-1.292799-1.2925618m3.5368133 0c0-1.2382404-1.0034017-2.2416422-2.2416422-2.2416422-1.2380032 0-2.241405 1.0034018-2.241405 2.2416422 0 1.2380033 1.0034018 2.2414051 2.241405 2.2414051 1.2370544-.0026094 2.2390329-1.0045879 2.2416422-2.2414051" stroke-width=".6"/><path d="m20.9054131 5.12146828-1.3497296 5.47245362c-.1572707.6357249-.728 1.0821557-1.3831762 1.0814441h-11.18662499l-1.57033562-6.55389772zm-17.85011404-4.38602802h-2.5808537c-.26188075 0-.47442164.21230368-.47442164.47442164 0 .26188074.21254089.47442163.47442164.47442163h2.5808537c.32924861-.00047442.61579928.22535028.69265558.54558488l2.40294559 10.02903619v.0239583c-.79773998.8029586-.7937074 2.1005018.00925122 2.898479.38451874.3821466.90495927.5961107 1.4472232.5953991h12.73822095c.2618807 0 .4744216-.2123037.4744216-.4744216 0-.2618808-.2125409-.4744217-.4744216-.4744217h-12.72873252c-.60915738.0004745-1.10326751-.4931613-1.10350472-1.1023186-.00023721-.6091574.49316129-1.1032675 1.10255588-1.1035048h.00094884 10.55564422c1.0923558.0026094 2.0452316-.7405721 2.3082984-1.8004301l1.4944282-6.06073636c.0628609-.25429-.092275-.51166374-.346565-.5745246-.0372421-.00901401-.0754331-.01375823-.113624-.01375823h-16.32484848l-.51711959-2.16336266c-.17909416-.74816292-.84850309-1.27524535-1.61777777-1.27382209z"/><path d="m6.34543682 19.3968627c0-.7142417.5787944-1.2927989 1.29279896-1.2927989s1.29279895.5785572 1.29279895 1.2927989c0 .7140046-.57879439 1.2925618-1.29279895 1.2925618-.71353014-.0011861-1.29161291-.5792688-1.29279896-1.2925618m3.53681329 0c0-1.2382404-1.00363897-2.2416422-2.24164222-2.2416422-1.23800326 0-2.24164223 1.0034018-2.24164223 2.2416422 0 1.2380033 1.00363897 2.2414051 2.24164223 2.2414051 1.2368172-.0026094 2.23903291-1.0045879 2.24164222-2.2414051" stroke-width=".6"/></g></svg>