<svg height="28" viewBox="0 0 34 28" width="34" xmlns="http://www.w3.org/2000/svg"><g fill="#333" fill-rule="evenodd" stroke="#333"><g fill-rule="nonzero" transform="translate(1 6.496782)"><path d="m16.4008498 18.5185349c0-.6998749.567152-1.2667944 1.2667944-1.2667944s1.2667944.5669195 1.2667944 1.2667944c0 .6996424-.567152 1.2665619-1.2667944 1.2665619-.6991775-.0011622-1.2653998-.5676169-1.2667944-1.2665619m3.4656705 0c0-1.2133334-.9832184-2.1965518-2.1965517-2.1965518-1.2131009 0-2.1963193.9832184-2.1963193 2.1965518 0 1.2131009.9832184 2.1963193 2.1963193 2.1963193 1.2121711-.0025569 2.1939949-.9843806 2.1965517-2.1963193" stroke-width=".6"/><path d="m20.4849019 4.53028914-1.3225798 5.36237548c-.1541073.62293738-.7133563 1.06038828-1.3553538 1.05969098h-10.96160661l-1.53874841-6.42206646zm-17.49106001-4.29780332h-2.52893997c-.25661303 0-.46487868.20803321-.46487868.46487868 0 .25661302.20826565.46487867.46487868.46487867h2.52893997c.3226258-.00046488.60341252.22081737.67872286.53461047l2.35461047 9.82730266v.0234764c-.78169348.7868071-.77774201 2.0582503.00906514 2.8401762.37678416.3744598.88675606.5841201 1.41811239.5834228h12.48199235c.256613 0 .4648787-.2080332.4648787-.4648787 0-.256613-.2082657-.4648787-.4648787-.4648787h-12.47269478c-.59690422.0004649-1.08107535-.4832413-1.08130779-1.0801456-.00023244-.5969042.48324138-1.0810753 1.08037803-1.0813078h.00092976 10.34331798c1.0703832.0025569 2.004092-.7256756 2.2618672-1.7642145l1.4643678-5.93882505c.0615964-.24917496-.0904189-.50137164-.3395938-.56296807-.036493-.00883269-.0739158-.01348148-.1113385-.01348148h-15.99647509l-.50671775-2.11984674c-.1754917-.73311367-.8314355-1.24959387-1.58523627-1.24819924z"/><path d="m6.21779872 18.5185349c0-.6998749.56715198-1.2667944 1.26679438-1.2667944s1.26679438.5669195 1.26679438 1.2667944c0 .6996424-.56715198 1.2665619-1.26679438 1.2665619-.69917752-.0011622-1.26563218-.5676169-1.26679438-1.2665619m3.4656705 0c0-1.2133334-.98345083-2.1965518-2.19655172-2.1965518-1.2131009 0-2.19655173.9832184-2.19655173 2.1965518 0 1.2131009.98345083 2.1963193 2.19655173 2.1963193 1.21193869-.0025569 2.19399489-.9843806 2.19655172-2.1963193" stroke-width=".6"/></g><circle cx="25.378353" cy="8.664407" r="7.221648" stroke-width="1.2"/></g></svg>