<svg height="116" viewBox="0 0 77 116" width="77" xmlns="http://www.w3.org/2000/svg"><g fill="none" fill-rule="evenodd" transform="matrix(.98768834 -.15643447 .15643447 .98768834 -19 -9.847699)"><path d="m71.4870359 96.0919453c.2260548-.2667898-10.2672458-5.106717-20.7584289-18.3792455-9.0720519-11.476915-15.3337098-25.1588967-17.4078193-39.6076777-1.162157-8.0951082-1.7004329-17.0875195.6183578-25.0766791 1.0399696-3.58256749 2.9219238-7.46425988 6.7298495-8.90189441 5.9696213-2.25376773 11.0903982 1.72356251 12.7617487 7.16194311 2.6017169 8.4551397-1.7056491 16.8257385-2.7570702 25.4243079-1.0285449 8.2594173-.4540031 16.7325439 1.5847699 24.8648396 3.2064913 12.8820655 10.0694609 24.816995 19.2285925 34.5144061" fill="#ffedf5" opacity=".740904" transform="matrix(.93358042879 -.35836795265 .35836795265 .93358042879 5.37952572353 31.28595399307)"/><path d="m54.2898638 20.1251448s-10.8468185-2.7148713-19.3254625 4.0495858c-2.8115862 2.2435591-5.3196982 5.1530678-8.8752719 6.7624464-3.8226144 1.7300217-8.6483908 1.5192985-10.8890482-.8469143-.8744029-.9237238-1.4084841-2.0778759-1.6370213-3.4511962-.5204187-3.1322963.9621744-6.4491766 3.8830609-9.2263801.2711808-.2581762.552298-.5099181.8408675-.7564321 8.4798861-7.23818227 16.4869654-6.66110623 24.2684056-4.360845 7.7810263 2.3002613 11.7344699 7.8297355 11.7344699 7.8297355" fill="#ffe7f2" opacity=".911607" transform="matrix(.93358043 -.35836795 .35836795 .93358043 20.326914 111.258658)"/><path d="m18.0823102 5.46359894c-4.2673136 3.38120947-4.0920489 10.04972906-.8616058 14.23774736 5.9306954 7.6878485 16.160913 10.4789343 21.523238 18.7370825 3.5917554 5.5313753 6.1160324 12.1304444 7.3778795 18.5582132.7011154-5.4504404.975033-10.3700536.9057502-14.81088l-.0001675-.0110108c-.2773537-17.6425624-5.9710075-27.7100855-11.7940581-33.35425986-1.1319967-1.09710166-2.3779662-2.08173037-3.7219946-2.9006662-2.2507891-1.37147834-4.9357356-2.30855785-7.5438669-2.34832472-2.1003079-.03202396-4.1509141.51773978-5.8851748 1.89209852" fill="#d2e9f0" transform="matrix(.65605902861 -.75470958303 .75470958303 .65605902861 -7.11187904781 79.44841689687)"/><path d="m53.9467376 83.2276611c-2.5325932-.0201063-5.1437738.887942-6.3139352 3.2076473-1.4814751 2.9374622.3013185 6.5647235 3.1296477 8.0556916 5.1931145 2.7368299 11.5014401 1.6942145 16.5275723 4.8884496 3.3659105 2.1398934 6.4175836 5.1359174 8.7345158 8.3569284-4.947866-15.8048091-12.3707609-21.7254811-18.1500215-23.7774175-.8979015-.318541-1.8286564-.5465479-2.7718358-.6585673-.3500439-.0414091-.706118-.0658629-1.0643863-.0716113z" fill="#d8d8d8" transform="matrix(.89100652 -.4539905 .4539905 .89100652 -36.638022 38.355367)"/><g fill="#cf2975"><path d="m64.0802434 105.878039c-1.5596851-.006581-3.239475.372301-5.0865479 1.313879-.1562859.07963-.3100998.163023-.4597071.249856-1.6125193.935112-2.63347 2.271712-2.730522 3.744386-.0426798.646182.0759336 1.226377.3732105 1.739739.7605523 1.315181 2.9157776 1.939394 4.8247909 1.576419 1.7747575-.337828 3.2151829-1.377635 4.7219727-2.08344 4.5438952-2.128052 9.1510896.288499 9.1510896.288499s-1.1978517-2.933244-4.4659459-4.825909c-1.9225297-1.113194-3.9428181-1.965739-6.2160588-2.002295z" opacity=".847824" transform="matrix(.93358043 -.35836795 .35836795 .93358043 -35.167385 30.736062)"/><path d="m79.3438047 32.4349445c-1.1132143.000677-2.2962225.429185-3.4038532 1.2124137-.1430777.1008652-.2833636.2068076-.4219047.3161346-4.0665472 3.2138101-4.4095847 6.8172036-3.9220737 10.4524137.4871621 3.6352101 2.7924578 5.817013 2.7924578 5.817013s-.4473795-5.0297227 3.395478-8.2794109c1.2747873-1.077701 2.8399177-1.9695799 3.8725199-3.4260332.6424537-.9064332 1.0039866-2.0115506 1.0116639-3.0103872v-.064987c-.0052345-.7026719-.1880948-1.3484802-.5744046-1.8301286-.3685123-.4596476-.8720759-.785598-1.5023157-.9924055-.3985237-.130651-.8158918-.1942841-1.2433801-.1946226z" opacity=".832757"/></g></g></svg>