<svg height="20" viewBox="0 0 20 20" width="20" xmlns="http://www.w3.org/2000/svg"><path d="m.31660776 19.6833922c.42266933.4221437 1.10739435.4221437 1.53006368 0l8.16635406-8.166354 8.1663541 8.166354c.4265554.3974685 1.091267.3857405 1.5035355-.0265281.4122686-.4122685.4239966-1.0769801.0265281-1.5035355l-8.166354-8.1663541 8.166354-8.16635406c.3974685-.42655542.3857405-1.091267-.0265281-1.50353555-.4122685-.41226856-1.0769801-.42399662-1.5035355-.02652813l-8.1663541 8.16635405-8.16635406-8.16635405c-.42655542-.39746849-1.091267-.38574043-1.50353555.02652813-.41226856.41226855-.42399662 1.07698013-.02652813 1.50353555l8.16635405 8.16635406-8.16635405 8.1663541c-.42214368.4226693-.42214368 1.1073943 0 1.5300636z" fill="#333" fill-rule="evenodd" transform=""/></svg>