<svg height="23" viewBox="0 0 18 23" width="18" xmlns="http://www.w3.org/2000/svg"><path d="m13.2022465 6.52849543c1.4535974.00489283 2.728238-.98805779 3.1047793-2.4186368.3765414-1.430579-.2394059-2.94017663-1.500329-3.67708957-1.2609231-.73691293-2.8507408-.51641585-3.8724902.5370885s-1.2193039 2.67592923-.4812048 3.95191506l-5.02367312 3.28512099c-1.25459292-1.25111822-3.26486317-1.2364153-4.50170061.03292501-1.23683743 1.26934028-1.23683743 3.31773558 0 4.58707588 1.23683744 1.2693403 3.24710769 1.2840432 4.50170061.032925l4.88884872 3.2224051c-.7062443 1.5231789-.1577109 3.3437822 1.2656647 4.2007897s3.2531078.4683463 4.2218535-.8967818c.9687457-1.3651282.7576548-3.2574091-.4870629-4.3661759-1.2447178-1.1087668-3.1133798-1.0690834-4.3116786.091564l-4.90350359-3.222405c.38499973-.8530006.38499973-1.8348257 0-2.6878263l5.12918789-3.36276928c.5617037.44912743 1.2556104.69217536 1.9696081.68987541zm0-5.31293658c1.1153029 0 2.0194345.92125486 2.0194345 2.05768033 0 1.13642546-.9041316 2.05768032-2.0194345 2.05768032s-2.0194345-.92125486-2.0194345-2.05768032c.0016142-1.13574347.9048009-2.05603552 2.0194345-2.05768033zm-10.00045083 11.38443745c-1.11692162 0-2.02236549-.9225919-2.02236549-2.0606668 0-1.1380748.90544387-2.06066679 2.02236549-2.06066679s2.0223655.92259199 2.0223655 2.06066679c0 1.1380749-.90544388 2.0606668-2.0223655 2.0606668zm10.00045083 2.8102717c.8185027-.0012078 1.5570148.5004143 1.87079 1.2707032.3137753.770289.1409366 1.6573422-.4378328 2.2470729s-1.4493352.7658427-2.2053069.4461249-1.2482702-1.0722164-1.2470848-1.9062207c.0016142-1.1357434.9048009-2.0560355 2.0194345-2.0576803z" fill="#333" stroke="#333" stroke-width=".7" transform="translate(1 1)"/></svg>