<svg height="27" viewBox="0 0 29 27" width="29" xmlns="http://www.w3.org/2000/svg"><g fill="#008846" fill-rule="evenodd" stroke="#008846" stroke-width=".1" transform="translate(1)"><path d="m21.2437806 23.9867871c0-.9065376.7346237-1.6408602 1.6408603-1.6408602.9062365 0 1.6408602.7343226 1.6408602 1.6408602 0 .9062366-.7346237 1.6405591-1.6408602 1.6405591-.9056344-.0015053-1.6390538-.7352258-1.6408603-1.6405591m4.4890323 0c0-1.5716129-1.2735484-2.8451613-2.8451613-2.8451613-1.5713118 0-2.8448602 1.2735484-2.8448602 2.8451613 0 1.5713118 1.2735484 2.8448602 2.8448602 2.8448602 1.5701075-.0033118 2.8418495-1.2750538 2.8451613-2.8448602"/><path d="m8.05382366 23.9867871c0-.9065376.73462365-1.6408602 1.64086021-1.6408602.90623653 0 1.64086023.7343226 1.64086023 1.6408602 0 .9062366-.7346237 1.6405591-1.64086023 1.6405591-.90563441-.0015053-1.63935484-.7352258-1.64086021-1.6405591m4.48903224 0c0-1.5716129-1.2738494-2.8451613-2.84516128-2.8451613-1.57131182 0-2.84516129 1.2735484-2.84516129 2.8451613 0 1.5713118 1.27384947 2.8448602 2.84516129 2.8448602 1.56980648-.0033118 2.84184948-1.2750538 2.84516128-2.8448602"/><path d="m26.5337935 5.8680172-1.7131182 6.9458065c-.1996129.8068817-.924 1.3735053-1.7555699 1.3726021h-14.19840863l-1.99311828-8.3184086zm-22.65591393-5.56688172h-3.27569892c-.3323871 0-.60215054.26946237-.60215054.60215054 0 .3323871.26976344.60215054.60215054.60215054h3.27569892c.41789247-.00060215.7815914.2860215.87913978.69247312l3.04989248 12.72916132v.0304086c-1.01251613 1.0191398-1.00739785 2.6660215.01174193 3.6788387.48804301.4850322 1.14860215.7566021 1.83686022.7556989h16.16774192c.3323871 0 .6021506-.2694624.6021506-.6021505 0-.3323871-.2697635-.6021506-.6021506-.6021506h-16.15569891c-.77316129.0006022-1.40030108-.6259355-1.40060215-1.3990967-.00030108-.7731613.62593548-1.4003011 1.39939785-1.4006022h.0012043 13.39754841c1.3864516.0033118 2.5958709-.939957 2.9297634-2.2851613l1.8967742-7.6924731c.079785-.32275269-.1171183-.64941936-.439871-.72920431-.0472688-.01144086-.0957419-.01746236-.144215-.01746236h-20.72000001l-.65634409-2.74580645c-.22731182-.9495914-1.07694623-1.61858065-2.05333333-1.6167742z"/></g></svg>