<svg width="167" height="36" viewBox="0 0 167 36" fill="none" xmlns="http://www.w3.org/2000/svg">
<path d="M13.1647 25.619C15.8388 30.1699 20.7427 33.2234 26.2005 33.2234C34.2649 33.2234 38.7037 25.9991 38.7037 25.9991L39.275 27.9232C35.5418 32.9639 28.8719 36 21.4102 36C12.8186 36 5.40902 31.7459 1.9999 25.6106C0.716302 23.2994 0 20.7184 0 18C0 8.05873 9.58455 0 21.4096 0C29.7646 0 36.492 3.71514 40.0234 9.09919L26.004 17.8134L34.005 5.06012C31.7158 3.56601 28.908 2.16624 26.004 2.16624C17.796 2.16624 11.0359 9.27676 11.0359 17.7968C11.0359 20.6518 11.817 23.3341 13.1647 25.619ZM50.7024 25.6134C50.6604 25.904 50.6396 26.1975 50.6396 26.4916C50.6396 29.726 53.1654 32.348 56.2812 32.348C59.397 32.348 61.9227 29.726 61.9227 26.4916C61.9227 26.1968 61.902 25.902 61.8593 25.6099C61.451 22.7951 59.109 20.6351 56.2805 20.6351C53.4527 20.6351 51.11 22.7958 50.7024 25.6134ZM71.6362 25.6106L74.44 35.4153H64.6042L62.6704 28.7015C61.3755 32.5699 57.0048 35.4153 51.813 35.4153C45.6008 35.4153 40.566 31.3422 40.566 26.3175C40.566 26.0823 40.5773 25.8486 40.5987 25.6106C41.0404 20.9209 45.8928 17.2203 51.8137 17.2203C55.174 17.2203 58.1902 18.4127 60.2516 20.3022L57.5721 11.0039H46.283C46.283 11.0039 48.1613 9.83445 56.4903 6.68879C64.8194 3.54312 67.4587 11.0039 67.4587 11.0039L71.6362 25.6106ZM103.084 25.6106V35.4153H92.9636V13.8735C92.9636 12.2886 91.7255 11.0032 90.1986 11.0032C89.0587 11.0032 88.0357 11.7288 87.6221 12.8317V35.4153H77.6894V11.0032H71.8968C71.8968 11.0032 79.9553 5.93549 82.7503 5.93549C85.3983 5.93549 87.3588 8.04763 87.604 10.7383C91.5016 8.55607 95.3664 5.93549 98.0252 5.93549C100.772 5.93549 103.009 8.20856 103.085 11.0421L103.084 25.6106ZM118.674 25.6106L120.083 30.4432C120.11 32.5145 121.749 34.1716 123.762 34.1716C125.819 34.1716 127.487 32.4409 127.487 30.3052C127.487 30.154 127.479 30.0049 127.462 29.8585L126.265 25.6106L122.06 10.6932C121.853 8.76 120.275 7.25757 118.358 7.25757C116.46 7.25757 114.65 9.0985 114.419 11.0032L118.674 25.6106ZM134.781 25.612C132.864 31.6453 127.39 36 120.936 36C114.481 36 109.008 31.6453 107.09 25.6099C106.605 24.0805 106.358 22.4802 106.36 20.8696C106.36 12.5133 112.885 5.73988 120.935 5.73988C128.985 5.73988 135.511 12.5133 135.511 20.8696C135.511 22.526 135.256 24.1207 134.781 25.612ZM151.538 25.6106V35.4153H141.605V11.0032H136.05C136.05 11.0032 143.871 5.93549 146.665 5.93549C149.314 5.93549 151.273 8.04763 151.519 10.7383C155.417 8.55607 159.281 5.93549 161.94 5.93549C164.687 5.93549 166.924 8.20856 167 11.0421V35.416H156.88V13.8735C156.88 12.2886 155.641 11.0032 154.115 11.0032C152.975 11.0032 151.952 11.7288 151.538 12.8317V25.6106Z" fill="#626669"/>
</svg>
