<svg width="264" height="52" viewBox="0 0 264 52" fill="none" xmlns="http://www.w3.org/2000/svg">
<path d="M69.9507 15.9783C69.7171 15.6537 69.4834 15.3616 69.2444 15.1073C69.0053 14.853 68.6956 14.6312 68.3098 14.4419C67.3807 13.9766 66.2615 13.744 64.9629 13.744C63.8654 13.744 62.8711 13.9225 61.9746 14.285C61.0781 14.6474 60.312 15.156 59.6871 15.8214C59.0569 16.4814 58.5733 17.2659 58.2364 18.1639C57.8996 19.062 57.7311 20.0303 57.7311 21.069C57.7311 22.1078 57.9159 23.1086 58.2853 24.077C58.6548 25.0454 59.1655 25.911 59.8175 26.6738C60.4695 27.4366 61.2193 28.0317 62.0669 28.4645C62.9145 28.8918 63.8002 29.1082 64.7184 29.1082C65.1585 29.1082 65.6312 29.0758 66.1365 29.0055C66.6418 28.9351 67.158 28.8323 67.6796 28.6863C68.2012 28.5456 68.6847 28.3563 69.1357 28.1236C69.5867 27.891 69.9724 27.6259 70.2876 27.3284C70.4234 27.1931 70.5973 26.9875 70.8037 26.717C70.9667 26.5115 71.0645 26.4087 71.0917 26.4087C71.1732 26.4087 71.2167 26.452 71.2167 26.5331C71.2167 26.6142 71.1732 26.7603 71.0808 26.9713C70.9939 27.1823 70.8526 27.4852 70.6625 27.8802C70.5375 28.1128 70.4614 28.2643 70.4343 28.3292C70.2821 28.67 70.0322 28.9297 69.6736 29.1082C68.8369 29.5194 67.9893 29.8061 67.1254 29.9792C66.2615 30.1469 65.2889 30.2335 64.2077 30.2335C63.0449 30.2335 61.9365 30.0117 60.8825 29.5681C59.8284 29.1245 58.9047 28.5023 58.1115 27.7071C57.3182 26.9118 56.6988 25.9867 56.2533 24.9372C55.8077 23.8876 55.585 22.7786 55.585 21.6046C55.585 20.4199 55.8023 19.2892 56.2315 18.2072C56.6608 17.1306 57.2802 16.1839 58.0789 15.367C58.8776 14.5501 59.8338 13.9063 60.9422 13.4464C62.0506 12.9812 63.2568 12.7485 64.5554 12.7485C65.0498 12.7485 65.5986 12.7864 66.2071 12.8622C66.8157 12.9379 67.4405 13.0353 68.0871 13.1597L68.4131 13.2192C68.9618 13.3436 69.3693 13.4032 69.6464 13.4032C69.7279 13.4032 69.8312 13.3815 69.9561 13.3436C70.0376 13.3004 70.1083 13.2841 70.1626 13.2841C70.2332 13.2841 70.2767 13.3707 70.2984 13.5384C70.3202 13.7115 70.331 13.9441 70.331 14.2417C70.331 14.431 70.3528 14.7556 70.3908 15.2047C70.418 15.5725 70.4343 15.8376 70.4343 15.9999C70.4343 16.2325 70.3854 16.3462 70.293 16.3462C70.2278 16.3462 70.1137 16.2271 69.9507 15.9783Z" fill="#626669"/>
<path d="M81.4141 30.0122V29.9095C82.0443 29.639 82.3649 29.2062 82.3812 28.6219C82.4084 27.6698 82.4247 26.2199 82.4247 24.2885V24.1641C81.1098 24.1208 79.8167 24.1046 78.5453 24.1046C77.1869 24.1046 75.8395 24.1262 74.4975 24.1641V24.2669C74.4975 25.219 74.5409 26.6527 74.6224 28.5624C74.6496 28.8762 74.742 29.1467 74.8995 29.3793C75.0571 29.6119 75.2907 29.7904 75.6059 29.9095V30.0339H75.5461C74.7257 29.9798 74.128 29.9527 73.7585 29.9527C73.3347 29.9527 72.7642 29.9798 72.0525 30.0339V29.9095C72.3404 29.785 72.5686 29.6173 72.7425 29.3955C72.9109 29.1791 73.0033 28.9249 73.0196 28.6381C73.0305 27.6698 73.0413 26.2253 73.0413 24.3048C73.0413 23.569 73.0304 22.817 73.0087 22.0542C72.987 21.2914 72.9598 20.5557 72.9164 19.847C72.8892 19.4791 72.8131 19.1707 72.6882 18.9165C72.5632 18.6622 72.3187 18.4296 71.9492 18.2132V18.132C72.6882 18.1861 73.275 18.2132 73.7151 18.2132C73.9487 18.2132 74.2964 18.2024 74.7637 18.1699C75.0788 18.1428 75.3124 18.1266 75.4646 18.1266V18.2078C75.1657 18.343 74.9484 18.5648 74.818 18.8624C74.6876 19.1653 74.6116 19.5061 74.579 19.8848C74.5246 20.388 74.4975 21.1724 74.4975 22.2382V23.4229C76.2796 23.477 77.627 23.5041 78.5453 23.5041C79.8167 23.5041 81.1152 23.4825 82.4247 23.4446L82.3812 22.2382C82.3812 22.0326 82.354 21.2319 82.2997 19.8253C82.2725 19.4683 82.1965 19.1653 82.0715 18.9165C81.9465 18.6622 81.702 18.4296 81.3326 18.2132V18.1104C82.0443 18.1645 82.6311 18.1915 83.0984 18.1915C83.3429 18.1915 83.6852 18.1807 84.1253 18.1483C84.4948 18.1212 84.7338 18.105 84.8425 18.105V18.2078C84.5437 18.3322 84.3263 18.5432 84.1959 18.8407C84.0655 19.1383 83.9786 19.4899 83.9406 19.8848C83.8971 20.388 83.8808 21.1995 83.8808 22.3193V24.2398C83.8808 25.6735 83.9243 27.1017 84.0058 28.5353C84.0492 29.2008 84.3752 29.6606 84.9892 29.9041V30.0068C84.3589 29.9636 83.7341 29.9473 83.1201 29.9473C82.5442 29.9473 81.9737 29.969 81.4141 30.0122Z" fill="#626669"/>
<path d="M89.1565 18.2289C89.7977 18.1857 90.2867 18.1694 90.6127 18.1694C90.9822 18.1694 91.4114 18.2181 91.9058 18.3101C92.4003 18.4075 92.8078 18.5427 93.1392 18.7212C93.6608 18.9917 94.0574 19.3758 94.3291 19.8682C94.6008 20.3605 94.742 20.8636 94.742 21.3829C94.742 21.9402 94.6008 22.4649 94.3128 22.9572C94.0248 23.4496 93.6336 23.8445 93.1446 24.142C92.8186 24.3043 92.5578 24.4071 92.3622 24.4504C92.4872 24.6127 92.7045 24.9156 93.0196 25.3484C93.4978 26.0301 93.9216 26.6089 94.2911 27.085C94.6605 27.5611 95.0572 28.021 95.481 28.4538C95.9048 28.892 96.3503 29.2436 96.8176 29.5087C97.2848 29.7738 97.7412 29.909 98.1922 29.909C98.2737 29.909 98.3987 29.9036 98.5617 29.8874C98.7247 29.8712 98.8551 29.8657 98.9529 29.8657C99.0235 29.8657 99.0561 29.8928 99.0561 29.9469C99.0561 30.0713 98.8659 30.1903 98.491 30.304C98.1161 30.4176 97.7956 30.4771 97.5348 30.4771C96.9317 30.4771 96.3829 30.3797 95.883 30.1795C95.3832 29.9848 94.9322 29.7197 94.5247 29.3897C94.1226 29.0651 93.7532 28.7026 93.4163 28.3185C93.0794 27.929 92.6937 27.4367 92.2536 26.8362C91.4712 25.8245 90.8572 25.105 90.4062 24.6668H89.5423C89.3902 24.6668 89.1728 24.683 88.8849 24.7101C88.6132 24.7263 88.4176 24.7317 88.3089 24.7317C88.3089 26.2573 88.3524 27.5395 88.4339 28.5782C88.4611 28.9623 88.548 29.249 88.6893 29.4384C88.8305 29.6277 89.0751 29.7954 89.4174 29.9307V30.0551H89.3576C88.5371 30.001 87.934 29.974 87.5483 29.974C87.2494 29.974 86.9234 29.9794 86.5811 29.9956C86.2388 30.0118 85.9237 30.028 85.6357 30.0551V29.909C85.9346 29.7738 86.2062 29.6007 86.4453 29.3897C86.6844 29.1787 86.8093 28.9352 86.8256 28.6647C86.8365 27.6964 86.8474 26.2519 86.8474 24.3314C86.8474 23.72 86.8365 23.0384 86.8148 22.2972C86.793 21.5561 86.7659 20.7392 86.7224 19.8519C86.6952 19.5111 86.6137 19.219 86.4779 18.9809C86.3421 18.7429 86.0758 18.5373 85.6792 18.3588V18.2181C85.9509 18.2452 86.2551 18.2668 86.5811 18.2885C86.9071 18.3101 87.2223 18.3209 87.5265 18.3209C87.9014 18.3101 88.4448 18.283 89.1565 18.2289ZM88.3144 22.1944V24.0338C88.5046 24.0338 88.8088 24.0284 89.2163 24.0122C89.5586 24.0122 89.7705 24.0122 89.852 24.0122C91.0419 24.0122 91.8786 23.7958 92.3568 23.3576C92.8349 22.9194 93.074 22.2269 93.074 21.2693C93.074 20.8473 92.9653 20.447 92.748 20.0629C92.5306 19.6788 92.221 19.3813 91.8243 19.1649C91.5635 19.0134 91.2538 18.916 90.9007 18.8673C90.5421 18.8186 90.1454 18.797 89.7107 18.797C89.4662 18.797 89.1022 18.8186 88.6241 18.8565L88.5208 18.8781C88.4665 18.9755 88.4339 19.0891 88.4176 19.2244C88.4013 19.3596 88.3959 19.5868 88.3959 19.9006C88.3415 20.3983 88.3144 21.1611 88.3144 22.1944Z" fill="#626669"/>
<path d="M99.8171 30.0279V29.9035C100.105 29.779 100.333 29.6113 100.507 29.3895C100.676 29.1731 100.768 28.9188 100.784 28.6321C100.795 27.6637 100.806 26.2193 100.806 24.2988C100.806 23.563 100.795 22.811 100.773 22.0482C100.752 21.2854 100.724 20.5497 100.681 19.841C100.654 19.4839 100.578 19.1809 100.453 18.9213C100.328 18.6616 100.083 18.4236 99.7139 18.2072V18.126C100.453 18.1801 101.04 18.2072 101.48 18.2072C101.713 18.2072 102.061 18.1963 102.528 18.1639C102.843 18.1368 103.077 18.1206 103.229 18.1206V18.2018C102.93 18.337 102.713 18.5588 102.583 18.8563C102.452 19.1593 102.376 19.5001 102.344 19.8788C102.289 20.3982 102.262 21.2151 102.262 22.3349V24.2555C102.262 25.2076 102.306 26.6413 102.387 28.551C102.414 28.8648 102.507 29.1352 102.664 29.3679C102.822 29.6005 103.055 29.779 103.371 29.898V30.0225H103.311C102.49 29.9684 101.893 29.9413 101.523 29.9413C101.099 29.9467 100.529 29.9738 99.8171 30.0279Z" fill="#626669"/>
<path d="M106.224 30.0389C105.893 29.9794 105.458 29.8712 104.909 29.7197L104.665 29.6602C104.458 29.6169 104.328 29.5304 104.263 29.3951C104.203 29.2599 104.17 29.0543 104.17 28.7838L104.148 28.681C104.121 28.5295 104.094 28.3618 104.067 28.1779C104.04 27.9939 104.023 27.8208 104.023 27.6585C104.023 27.5503 104.051 27.4421 104.105 27.3339C104.159 27.2257 104.23 27.1716 104.311 27.1716C104.339 27.1716 104.382 27.2474 104.436 27.3988C104.518 27.6044 104.605 27.7938 104.692 27.9615C104.779 28.1346 104.898 28.2915 105.05 28.443C105.311 28.7297 105.708 28.9731 106.24 29.1787C106.773 29.3843 107.235 29.4871 107.615 29.4871C108.245 29.4871 108.832 29.2977 109.381 28.9136C109.929 28.5295 110.201 28.021 110.201 27.3772C110.201 26.7767 109.973 26.2682 109.511 25.8462C109.055 25.4242 108.359 24.9319 107.425 24.3747C106.947 24.088 106.55 23.8445 106.235 23.6389C105.92 23.4333 105.632 23.2061 105.371 22.9519C105.11 22.6976 104.898 22.4217 104.735 22.1133C104.572 21.805 104.491 21.4695 104.491 21.1016C104.491 20.2956 104.795 19.5977 105.404 19.008C106.012 18.4129 106.892 18.1099 108.044 18.0991C108.278 18.0991 108.631 18.1424 109.114 18.2236C109.582 18.3047 109.929 18.348 110.163 18.348C110.261 18.348 110.38 18.3209 110.533 18.2668C110.696 18.2127 110.842 18.1857 110.962 18.1857C111.032 18.1857 111.065 18.2344 111.065 18.3263C111.065 18.5698 111.092 18.9106 111.147 19.3488C111.19 19.787 111.206 20.1116 111.206 20.3334C111.206 20.3767 111.19 20.4254 111.163 20.4849C111.136 20.5444 111.109 20.5769 111.081 20.5769C111 20.5769 110.864 20.42 110.668 20.1062C110.451 19.7546 110.266 19.5219 110.114 19.4083C109.826 19.1757 109.468 19.008 109.044 18.8998C108.62 18.7916 108.218 18.7375 107.832 18.7375C107.327 18.7375 106.854 18.9052 106.414 19.2406C105.974 19.576 105.757 19.9439 105.757 20.3551C105.757 20.8744 105.974 21.3289 106.414 21.7238C106.854 22.1187 107.517 22.5948 108.408 23.1574C108.93 23.482 109.348 23.7579 109.674 23.9743C109.995 24.1907 110.304 24.445 110.598 24.7317C110.891 25.0185 111.13 25.3268 111.304 25.6623C111.483 25.9977 111.576 26.3601 111.592 26.7551C111.592 27.6802 111.223 28.4808 110.484 29.1463C109.745 29.8171 108.685 30.1471 107.3 30.1471C106.919 30.1309 106.555 30.1038 106.224 30.0389Z" fill="#626669"/>
<path d="M123.745 18.8401C123.485 19.2891 123.327 19.6191 123.273 19.8247C123.229 19.9329 123.164 19.987 123.066 19.987C123.023 19.987 122.99 19.8625 122.963 19.6191C122.963 19.5109 122.958 19.4189 122.941 19.354C122.898 19.2188 122.795 19.1106 122.621 19.0348C122.447 18.9591 122.284 18.9158 122.116 18.8996C121.502 18.8833 120.518 18.8779 119.176 18.8779L119.073 19.9004C119.029 20.4198 119.013 21.2367 119.013 22.3565V24.2771C119.013 25.8027 119.062 27.2363 119.154 28.5725C119.182 29.2163 119.513 29.6653 120.138 29.925V30.0495H120.078C119.258 29.9954 118.654 29.9683 118.269 29.9683C117.856 29.9683 117.296 29.9954 116.584 30.0495V29.925C116.856 29.8006 117.084 29.6329 117.264 29.4111C117.443 29.1947 117.53 28.9404 117.53 28.6537C117.557 27.6853 117.573 26.2409 117.573 24.3203C117.573 23.3141 117.573 22.4647 117.573 21.7723C117.573 21.0852 117.557 20.3873 117.53 19.6732V18.8779C116.106 18.8779 115.003 18.9537 114.221 19.1051C114.042 19.1322 113.841 19.1917 113.612 19.2783C113.384 19.3648 113.183 19.473 113.004 19.5974C112.96 19.6245 112.901 19.6732 112.819 19.7381C112.613 19.9166 112.46 20.0032 112.368 20.0032C112.287 20.0032 112.243 19.9761 112.243 19.922C112.254 19.8247 112.368 19.6516 112.569 19.3919C112.732 19.1863 112.841 19.0402 112.895 18.9429L113.036 18.6994C113.227 18.3748 113.335 18.1314 113.362 17.9853H113.591C113.754 18.1476 114.074 18.2396 114.558 18.2504C115.476 18.2666 116.845 18.272 118.665 18.272C119.306 18.272 120.393 18.245 121.909 18.1909C122.306 18.1909 122.637 18.1855 122.892 18.1692C123.137 18.1692 123.425 18.1151 123.756 18.0069C123.865 17.9636 123.947 17.9366 124.001 17.9258H124.142C124.148 18.0881 124.006 18.391 123.745 18.8401Z" fill="#626669"/>
<path d="M133.265 18.5483C134.135 18.8566 134.868 19.2786 135.466 19.825C136.063 20.3714 136.514 21.0098 136.824 21.7347C137.134 22.4651 137.286 23.2495 137.286 24.0989C137.286 24.9699 137.107 25.7814 136.753 26.5226C136.395 27.2637 135.9 27.9129 135.265 28.4647C134.629 29.0165 133.885 29.4385 133.037 29.7307C132.189 30.0228 131.293 30.1689 130.348 30.1689C129.418 30.1689 128.527 30.012 127.68 29.6982C126.832 29.3844 126.082 28.9516 125.441 28.3998C124.8 27.848 124.3 27.2042 123.942 26.4684C123.583 25.7327 123.409 24.9537 123.409 24.1368C123.409 23.3036 123.588 22.5192 123.953 21.7834C124.317 21.0477 124.816 20.4039 125.452 19.8521C126.088 19.3002 126.832 18.8674 127.68 18.5537C128.527 18.2399 129.418 18.083 130.348 18.083C131.423 18.0884 132.396 18.2399 133.265 18.5483ZM128.256 19.138C127.62 19.376 127.066 19.7168 126.604 20.1604C126.137 20.604 125.778 21.1342 125.528 21.7455C125.273 22.3569 125.148 23.0277 125.148 23.7472C125.148 24.483 125.273 25.1971 125.528 25.8842C125.784 26.5712 126.142 27.188 126.615 27.7236C127.088 28.2646 127.642 28.6865 128.277 28.9895C128.913 29.2979 129.603 29.4493 130.342 29.4493C131.108 29.4493 131.815 29.3357 132.467 29.1139C133.119 28.8867 133.684 28.5621 134.173 28.1347C134.656 27.7073 135.037 27.1934 135.303 26.6037C135.569 26.0086 135.705 25.354 135.705 24.6291C135.705 23.731 135.569 22.9141 135.303 22.1838C135.037 21.4534 134.662 20.8367 134.173 20.3336C133.684 19.8304 133.119 19.4463 132.467 19.1758C131.815 18.9107 131.108 18.7755 130.342 18.7755C129.587 18.7809 128.891 18.8999 128.256 19.138Z" fill="#626669"/>
<path d="M140.403 18.2289C141.045 18.1857 141.534 18.1694 141.86 18.1694C142.229 18.1694 142.653 18.2181 143.126 18.3209C143.598 18.4237 144 18.5644 144.326 18.7429C144.859 19.0134 145.272 19.3921 145.56 19.879C145.848 20.3659 145.994 20.8582 145.994 21.3613C145.994 21.9077 145.82 22.4379 145.473 22.9572C145.125 23.4766 144.696 23.8823 144.19 24.1853C143.767 24.445 143.316 24.6127 142.832 24.6884C142.354 24.7642 141.805 24.802 141.191 24.802C140.849 24.802 140.512 24.7696 140.186 24.7101C139.855 24.6506 139.692 24.5424 139.692 24.3909C139.692 24.2827 139.719 24.2286 139.773 24.2286C139.909 24.2286 140.137 24.2556 140.452 24.3097C140.768 24.3638 140.99 24.3909 141.132 24.3909C141.582 24.3909 142.033 24.3151 142.49 24.1637C142.941 24.0122 143.31 23.8012 143.598 23.5307C143.87 23.271 144.066 22.9518 144.174 22.5677C144.283 22.1836 144.337 21.7562 144.337 21.2802C144.337 20.869 144.223 20.4849 143.989 20.1224C143.756 19.76 143.441 19.4624 143.044 19.2352C142.772 19.0729 142.452 18.9539 142.088 18.889C141.724 18.8186 141.354 18.7862 140.969 18.7862C140.789 18.7862 140.556 18.8024 140.268 18.8294C140.023 18.8565 139.855 18.8727 139.773 18.8727C139.719 18.9701 139.686 19.0891 139.67 19.2298C139.654 19.3704 139.648 19.5923 139.648 19.8952C139.594 20.4146 139.567 21.2315 139.567 22.3513V24.2719C139.567 26.1816 139.61 27.6152 139.692 28.5674C139.719 28.9623 139.806 29.2544 139.947 29.4438C140.088 29.6331 140.333 29.79 140.675 29.9144V30.0389H140.615C139.795 29.9848 139.192 29.9577 138.806 29.9577C138.507 29.9577 138.181 29.9631 137.839 29.9794C137.497 29.9956 137.182 30.0118 136.894 30.0389V29.9144C137.225 29.763 137.502 29.5844 137.725 29.3734C137.953 29.1625 138.073 28.919 138.083 28.6485C138.094 27.6801 138.105 26.2357 138.105 24.3151C138.105 23.7038 138.094 23.0276 138.073 22.2918C138.051 21.5561 138.024 20.7446 137.98 19.8573C137.953 19.5165 137.872 19.2244 137.736 18.9863C137.6 18.7483 137.334 18.5319 136.937 18.3426V18.2181C137.252 18.2452 137.562 18.2668 137.861 18.2776C138.16 18.2884 138.469 18.2993 138.784 18.2993C139.148 18.2884 139.692 18.2722 140.403 18.2289Z" fill="#626669"/>
<path d="M156.116 30.0122V29.9095C156.746 29.639 157.067 29.2062 157.083 28.6219C157.11 27.6698 157.121 26.2199 157.121 24.2885V24.1641C155.806 24.1208 154.513 24.1046 153.242 24.1046C151.889 24.1046 150.536 24.1262 149.194 24.1641V24.2669C149.194 25.219 149.237 26.6527 149.319 28.5624C149.346 28.8762 149.438 29.1467 149.596 29.3793C149.753 29.6119 149.987 29.7904 150.302 29.9095V30.0339H150.242C149.422 29.9798 148.824 29.9527 148.455 29.9527C148.031 29.9527 147.461 29.9798 146.749 30.0339V29.9095C147.037 29.785 147.265 29.6173 147.439 29.3955C147.607 29.1791 147.705 28.9249 147.716 28.6381C147.727 27.6698 147.738 26.2253 147.738 24.3048C147.738 23.569 147.727 22.817 147.705 22.0542C147.683 21.2914 147.656 20.5557 147.613 19.847C147.585 19.4791 147.509 19.1707 147.384 18.9165C147.259 18.6622 147.015 18.4296 146.646 18.2132V18.132C147.384 18.1861 147.971 18.2132 148.411 18.2132C148.645 18.2132 148.993 18.2024 149.46 18.1699C149.775 18.1428 150.009 18.1266 150.161 18.1266V18.2078C149.862 18.343 149.645 18.5648 149.514 18.8624C149.384 19.1653 149.308 19.5061 149.281 19.8848C149.226 20.388 149.199 21.1724 149.199 22.2382V23.4229C150.981 23.477 152.329 23.5041 153.247 23.5041C154.518 23.5041 155.817 23.4825 157.126 23.4446L157.088 22.2382C157.088 22.0326 157.061 21.2319 157.007 19.8253C156.98 19.4683 156.904 19.1653 156.779 18.9165C156.654 18.6622 156.409 18.4296 156.04 18.2132V18.1104C156.752 18.1645 157.338 18.1915 157.806 18.1915C158.05 18.1915 158.392 18.1807 158.832 18.1483C159.202 18.1212 159.441 18.105 159.55 18.105V18.2078C159.245 18.3322 159.034 18.5432 158.903 18.8407C158.773 19.1383 158.686 19.4899 158.648 19.8848C158.604 20.388 158.588 21.1995 158.588 22.3193V24.2398C158.588 25.6735 158.631 27.1017 158.713 28.5353C158.756 29.2008 159.082 29.6606 159.696 29.9041V30.0068C159.066 29.9636 158.441 29.9473 157.827 29.9473C157.246 29.9473 156.675 29.969 156.116 30.0122Z" fill="#626669"/>
<path d="M161.898 29.9306C161.686 29.9468 161.376 29.9631 160.963 29.9901L160.534 30.0334V29.8062C160.806 29.6818 161.077 29.4437 161.343 29.0921C161.61 28.7404 161.751 28.4104 161.767 28.1129C161.778 27.1607 161.789 25.8786 161.789 24.2664C161.789 23.5144 161.778 22.7624 161.756 22.005C161.735 21.2476 161.697 20.5173 161.642 19.8086C161.626 19.4948 161.517 19.2027 161.311 18.9376C161.104 18.6725 160.789 18.4507 160.365 18.2722L160.344 18.1099L160.751 18.1532C161.219 18.1802 161.637 18.2072 162.006 18.2343C162.376 18.2613 162.669 18.2776 162.892 18.2776C163.001 18.2776 163.283 18.2722 163.734 18.2559C164.076 18.2451 164.419 18.2289 164.761 18.2127C164.897 18.2018 165.098 18.1856 165.359 18.1694C166.098 18.1261 166.641 18.1099 166.983 18.1099C167.434 18.1099 167.815 18.1315 168.124 18.1694C168.434 18.2127 168.586 18.2938 168.586 18.4128C168.586 18.6292 168.613 18.8889 168.668 19.1919C168.711 19.4245 168.727 19.6084 168.727 19.7437C168.727 19.8248 168.7 19.8681 168.646 19.8681C168.575 19.8681 168.51 19.7978 168.439 19.6625C168.396 19.5814 168.358 19.5111 168.314 19.457C168.151 19.2514 167.847 19.0782 167.402 18.9376C166.956 18.7969 166.315 18.7212 165.478 18.7212C165.261 18.7212 164.897 18.7428 164.392 18.7807C164.066 18.8078 163.75 18.8294 163.446 18.8402C163.392 18.9755 163.348 19.2081 163.321 19.5381C163.321 19.6733 163.316 19.7761 163.299 19.8465C163.261 20.3658 163.234 20.9014 163.229 21.464C163.223 22.0213 163.218 22.7137 163.218 23.5306C163.479 23.5306 163.854 23.536 164.348 23.5523C164.826 23.5685 165.174 23.5739 165.397 23.5739C165.44 23.5739 165.56 23.5685 165.766 23.5523C165.956 23.5523 166.076 23.5523 166.114 23.5523C166.511 23.5415 166.858 23.4765 167.163 23.3575C167.461 23.2439 167.739 23.0275 167.983 22.7137H168.086C168.086 22.7841 168.07 22.9193 168.043 23.1249C167.999 23.4387 167.983 23.7092 167.983 23.9418C167.983 24.3259 167.988 24.683 168.005 25.0238H167.88C167.728 24.7641 167.483 24.5748 167.141 24.4612C166.799 24.3476 166.402 24.2664 165.951 24.2285C165.391 24.2015 164.479 24.1852 163.218 24.1852C163.218 24.2015 163.218 24.2123 163.218 24.2285C163.218 24.6938 163.223 25.1049 163.24 25.4674C163.251 25.8299 163.272 26.3276 163.299 26.9714C163.327 27.3663 163.348 27.7504 163.359 28.1183C163.376 28.3617 163.473 28.5727 163.669 28.7404C163.859 28.9136 164.104 29.038 164.397 29.13C164.69 29.2165 165 29.2814 165.321 29.3139C165.641 29.3464 165.962 29.368 166.277 29.368C166.782 29.368 167.222 29.3355 167.592 29.276C167.961 29.2165 168.293 29.0813 168.575 28.8757C168.847 28.6863 169.173 28.3942 169.542 27.9993C169.803 27.7288 169.966 27.5881 170.037 27.5881C170.135 27.5881 170.178 27.6368 170.178 27.7288C170.178 27.8532 170.048 28.1021 169.787 28.4862C169.526 28.8703 169.363 29.1624 169.292 29.368C169.249 29.5465 169.167 29.6872 169.043 29.79C168.918 29.8927 168.673 29.9414 168.304 29.9414H165.821C165.109 29.9414 164.484 29.936 163.951 29.9198C163.24 29.9198 162.751 29.9198 162.495 29.9198C162.311 29.909 162.11 29.9144 161.898 29.9306Z" fill="#626669"/>
<path d="M174.357 18.2289C174.998 18.1857 175.487 18.1694 175.813 18.1694C176.183 18.1694 176.612 18.2181 177.107 18.3101C177.601 18.4075 178.008 18.5427 178.34 18.7212C178.862 18.9917 179.258 19.3758 179.53 19.8682C179.801 20.3605 179.943 20.8636 179.943 21.3829C179.943 21.9402 179.802 22.4649 179.514 22.9572C179.226 23.4496 178.834 23.8445 178.34 24.142C178.014 24.3043 177.753 24.4071 177.558 24.4504C177.682 24.6127 177.9 24.9156 178.215 25.3484C178.693 26.0301 179.117 26.6089 179.486 27.085C179.856 27.5611 180.252 28.021 180.676 28.4538C181.1 28.892 181.546 29.2436 182.013 29.5087C182.48 29.7738 182.937 29.909 183.387 29.909C183.469 29.909 183.594 29.9036 183.757 29.8874C183.92 29.8712 184.05 29.8657 184.148 29.8657C184.213 29.8657 184.251 29.8928 184.251 29.9469C184.251 30.0713 184.061 30.1903 183.686 30.304C183.311 30.4176 182.991 30.4771 182.73 30.4771C182.127 30.4771 181.578 30.3797 181.078 30.1795C180.578 29.9848 180.127 29.7197 179.72 29.3897C179.318 29.0651 178.948 28.7026 178.612 28.3185C178.275 27.929 177.889 27.4367 177.449 26.8362C176.666 25.8245 176.052 25.105 175.602 24.6668H174.738C174.585 24.6668 174.368 24.683 174.08 24.7101C173.809 24.7263 173.613 24.7317 173.504 24.7317C173.504 26.2573 173.548 27.5395 173.629 28.5782C173.656 28.9623 173.743 29.249 173.885 29.4384C174.031 29.6277 174.27 29.7954 174.613 29.9307V30.0551H174.553C173.732 30.001 173.129 29.974 172.744 29.974C172.445 29.974 172.119 29.9794 171.776 29.9956C171.434 30.0118 171.119 30.028 170.831 30.0551V29.909C171.13 29.7738 171.402 29.6007 171.641 29.3897C171.88 29.1787 172.005 28.9352 172.021 28.6647C172.032 27.6964 172.043 26.2519 172.043 24.3314C172.043 23.72 172.032 23.0384 172.01 22.2972C171.988 21.5561 171.961 20.7392 171.918 19.8519C171.891 19.5111 171.809 19.219 171.673 18.9809C171.537 18.7429 171.271 18.5373 170.875 18.3588V18.2181C171.146 18.2452 171.45 18.2668 171.776 18.2885C172.108 18.3101 172.423 18.3209 172.722 18.3209C173.102 18.3101 173.646 18.283 174.357 18.2289ZM173.515 22.1944V24.0338C173.705 24.0338 174.01 24.0284 174.417 24.0122C174.759 24.0122 174.971 24.0122 175.053 24.0122C176.243 24.0122 177.079 23.7958 177.558 23.3576C178.036 22.9194 178.275 22.2269 178.275 21.2693C178.275 20.8473 178.166 20.447 177.949 20.0629C177.731 19.6788 177.422 19.3813 177.025 19.1649C176.764 19.0134 176.455 18.916 176.101 18.8673C175.743 18.8186 175.346 18.797 174.911 18.797C174.667 18.797 174.303 18.8186 173.825 18.8565L173.722 18.8781C173.667 18.9755 173.629 19.0891 173.618 19.2244C173.602 19.3596 173.597 19.5868 173.597 19.9006C173.542 20.3983 173.515 21.1611 173.515 22.1944Z" fill="#626669"/>
<path d="M190.395 29.9899V29.8276C190.738 29.6491 191.02 29.4057 191.238 29.0919C191.455 28.7781 191.575 28.4156 191.585 28.0099C191.613 26.6358 191.629 24.5692 191.629 21.8155C191.629 20.766 191.613 19.6948 191.585 18.6074C191.558 17.5146 191.515 16.4596 191.46 15.4372C191.433 14.9448 191.341 14.5121 191.183 14.1388C191.026 13.7655 190.721 13.4247 190.271 13.1271V12.9864C191.172 13.0676 191.906 13.1109 192.466 13.1109C192.797 13.1109 193.264 13.0838 193.884 13.0297C194.21 13.0189 194.465 13.0027 194.644 12.9864V13.1271C194.259 13.3165 193.987 13.6302 193.824 14.0576C193.661 14.485 193.558 14.9773 193.514 15.5183C193.487 16.0918 193.465 16.7355 193.454 17.4497C193.438 18.1638 193.433 19.3702 193.433 21.0581C194.351 20.16 195.247 19.2295 196.122 18.2666C196.997 17.3036 197.758 16.4109 198.404 15.5778C198.649 15.2478 198.85 14.9178 199.002 14.577C199.154 14.2361 199.23 13.9224 199.23 13.6356C199.23 13.4571 199.181 13.2624 199.089 13.0405L199.214 12.8999C200.034 12.9811 200.724 13.0243 201.289 13.0243C201.577 13.0243 202.061 13.0027 202.745 12.9648C203.196 12.9215 203.479 12.9053 203.588 12.9053L203.463 13.046C202.903 13.2353 202.338 13.5437 201.778 13.9656C201.219 14.3876 200.654 14.8799 200.094 15.4372C199.491 16.0377 198.882 16.6652 198.268 17.3198C197.649 17.9744 196.921 18.7643 196.073 19.6948C195.992 19.7759 195.861 19.9112 195.682 20.1059C196.024 20.582 196.405 21.0851 196.823 21.6099C197.241 22.1347 197.779 22.8001 198.437 23.6062C199.051 24.3582 199.496 24.8992 199.773 25.24C200.936 26.7115 201.887 27.7989 202.631 28.4914C203.37 29.1892 204.098 29.5355 204.81 29.5355C205.044 29.5355 205.25 29.503 205.424 29.4327C205.549 29.3894 205.652 29.3732 205.734 29.3732C205.815 29.3732 205.864 29.384 205.886 29.4111C205.908 29.4381 205.918 29.4814 205.918 29.5355C205.918 29.6329 205.685 29.7627 205.218 29.9358C204.75 30.1035 204.223 30.1901 203.636 30.1901C203.077 30.1901 202.566 30.1089 202.104 29.9466C201.648 29.7843 201.24 29.5625 200.882 29.2812C200.523 28.9999 200.203 28.7024 199.915 28.3832C199.627 28.064 199.274 27.615 198.85 27.0415C198.545 26.6574 198.323 26.3761 198.171 26.1813C197.953 25.9108 197.687 25.5592 197.372 25.1372C196.725 24.3203 196.182 23.6387 195.731 23.0922C195.28 22.5458 194.818 22.0427 194.356 21.5775L194.253 21.6802C194.074 21.8696 193.808 22.1725 193.454 22.5783C193.465 24.1472 193.52 25.9216 193.617 27.8963C193.645 28.3453 193.759 28.7402 193.954 29.0702C194.155 29.4057 194.449 29.6599 194.845 29.8385V30.0007C193.954 29.9304 193.183 29.898 192.525 29.898C191.857 29.8871 191.151 29.9196 190.395 29.9899Z" fill="#626669"/>
<path d="M216.976 18.1046C217.274 18.1479 217.508 18.1641 217.676 18.1641C218.073 18.1641 218.654 18.1371 219.421 18.083V18.1858C219.122 18.321 218.904 18.5428 218.774 18.8404C218.644 19.1379 218.568 19.4842 218.54 19.8629C218.486 20.366 218.459 21.1775 218.459 22.2973V24.2179C218.459 24.5749 218.453 25.0835 218.437 25.7543C218.421 26.6794 218.415 27.3286 218.415 27.6965C218.415 28.1617 218.432 28.7081 218.459 29.3303C218.459 29.4817 218.464 29.6386 218.481 29.8009C218.497 29.9091 218.502 29.9795 218.502 30.0065C218.502 30.1959 218.448 30.2932 218.339 30.2932C218.269 30.2932 218.106 30.1526 217.845 29.8658L208.728 20.7447H208.625C208.597 21.0044 208.581 21.3939 208.581 21.9078C208.581 22.1783 208.586 22.5841 208.603 23.1142C208.619 23.6174 208.625 23.9852 208.625 24.2179C208.625 25.4838 208.657 26.9174 208.728 28.5134C208.755 28.8434 208.847 29.1193 209.005 29.3519C209.162 29.5845 209.407 29.7631 209.733 29.8821V30.0065C209.173 29.9524 208.548 29.9254 207.864 29.9254C207.576 29.9254 207.31 29.9416 207.065 29.9632C206.913 29.9795 206.804 29.9849 206.739 29.9849V29.8604C207.011 29.736 207.239 29.5683 207.418 29.3465C207.598 29.1301 207.685 28.8758 207.685 28.5891C207.712 27.6207 207.728 26.1763 207.728 24.2557C207.728 24.1043 207.733 23.6228 207.75 22.8059C207.75 22.2324 207.75 21.7131 207.75 21.2532C207.75 20.5716 207.744 20.0738 207.728 19.7601V19.6573C207.701 19.3597 207.614 19.0838 207.462 18.8296C207.31 18.5753 207.06 18.3481 206.701 18.1425L206.663 18.0181H206.788C207.087 18.0451 207.364 18.0668 207.619 18.0884C207.869 18.11 208.108 18.1209 208.326 18.1209L217.448 27.4476H217.551C217.568 26.7389 217.573 25.6677 217.573 24.2341C217.573 23.4983 217.562 22.7464 217.541 21.9836C217.519 21.2207 217.486 20.485 217.448 19.7763V19.733C217.421 19.3651 217.356 19.0622 217.253 18.8241C217.149 18.5861 216.921 18.3643 216.563 18.1587V18.0343C216.655 18.0613 216.796 18.0776 216.976 18.1046Z" fill="#626669"/>
<path d="M220.181 30.0279V29.9035C220.469 29.779 220.698 29.6113 220.871 29.3895C221.045 29.1731 221.138 28.9188 221.148 28.6321C221.159 27.6637 221.17 26.2193 221.17 24.2988C221.17 23.563 221.159 22.811 221.138 22.0482C221.116 21.2854 221.089 20.5497 221.045 19.841C221.018 19.4839 220.942 19.1809 220.817 18.9213C220.692 18.6616 220.448 18.4236 220.078 18.2072V18.126C220.817 18.1801 221.409 18.2072 221.844 18.2072C222.078 18.2072 222.425 18.1963 222.893 18.1639C223.208 18.1368 223.441 18.1206 223.593 18.1206V18.2018C223.295 18.337 223.077 18.5588 222.947 18.8563C222.817 19.1593 222.74 19.5001 222.713 19.8788C222.659 20.3982 222.632 21.2151 222.632 22.3349V24.2555C222.632 25.2076 222.675 26.6413 222.757 28.551C222.784 28.8648 222.876 29.1352 223.034 29.3679C223.191 29.6005 223.425 29.779 223.74 29.898V30.0225H223.68C222.86 29.9684 222.262 29.9413 221.893 29.9413C221.458 29.9467 220.893 29.9738 220.181 30.0279Z" fill="#626669"/>
<path d="M236.499 29.0595C236.477 29.1623 236.439 29.2272 236.384 29.2542C236.287 29.2813 236.091 29.3354 235.787 29.4166C235.455 29.4977 235.227 29.568 235.086 29.6221C234.526 29.8277 233.939 29.9684 233.331 30.0495C232.722 30.1307 232.054 30.1739 231.326 30.1739C230.397 30.1739 229.506 30.0171 228.658 29.7033C227.811 29.3895 227.061 28.9567 226.42 28.4049C225.773 27.8531 225.273 27.2093 224.92 26.4735C224.562 25.7378 224.388 24.9587 224.388 24.1418C224.388 23.3087 224.562 22.5134 224.909 21.7614C225.257 21.004 225.757 20.3386 226.398 19.7652C227.039 19.1917 227.811 18.7427 228.696 18.4181C229.587 18.0935 230.56 17.9258 231.614 17.9258C231.983 17.9258 232.402 17.9474 232.864 17.9961C233.331 18.0448 233.858 18.1151 234.445 18.2125C234.57 18.2396 234.738 18.2937 234.955 18.3748C235.254 18.483 235.488 18.5371 235.656 18.5371C235.819 18.5371 235.977 18.5317 236.129 18.5155C236.2 18.4992 236.254 18.4938 236.292 18.4938C236.33 18.4938 236.352 18.5263 236.352 18.5966C236.352 18.6074 236.352 18.6561 236.352 18.7373C236.336 18.8455 236.33 18.9537 236.33 19.0619C236.33 19.1701 236.336 19.3757 236.352 19.6732C236.368 19.9058 236.374 20.0844 236.374 20.2034C236.374 20.3008 236.368 20.3981 236.352 20.5009C236.336 20.6037 236.308 20.6524 236.27 20.6524C236.227 20.6524 236.135 20.555 235.982 20.3657C235.765 20.079 235.548 19.8355 235.336 19.6407C235.124 19.446 234.858 19.2783 234.543 19.1376C233.776 18.7968 232.907 18.6237 231.935 18.6237C231.043 18.6237 230.239 18.7481 229.522 19.0024C228.805 19.2566 228.191 19.6137 227.686 20.0735C227.18 20.5388 226.795 21.0798 226.523 21.7019C226.257 22.3241 226.121 23.0003 226.121 23.7361C226.121 24.4718 226.257 25.186 226.534 25.873C226.806 26.5601 227.191 27.1768 227.686 27.7232C228.18 28.2696 228.756 28.697 229.414 29C230.071 29.3083 230.772 29.4598 231.511 29.4598C231.897 29.4598 232.342 29.4003 232.858 29.2759C233.369 29.1515 233.95 28.9892 234.591 28.7836C234.744 28.7295 234.847 28.6375 234.901 28.5077C234.955 28.3778 234.994 28.1993 235.004 27.9667L235.026 27.8423C235.01 27.6367 234.999 27.3283 234.983 26.9226C234.966 26.5114 234.955 26.2138 234.939 26.0245C234.912 25.5755 234.841 25.2455 234.733 25.0453C234.624 24.8397 234.374 24.6287 233.994 24.4123V24.3095C234.733 24.3636 235.32 24.3907 235.76 24.3907C235.977 24.3907 236.265 24.369 236.623 24.3312C236.939 24.3041 237.172 24.2879 237.324 24.2879L237.303 24.3907C237.031 24.5151 236.852 24.7045 236.77 24.9641C236.689 25.2238 236.634 25.5592 236.607 25.965V26.0894C236.564 26.5384 236.542 26.9388 236.537 27.285C236.531 27.6313 236.526 28.1181 236.526 28.7457C236.531 28.8593 236.52 28.9567 236.499 29.0595Z" fill="#626669"/>
<path d="M247.457 30.0122V29.9095C248.087 29.639 248.408 29.2062 248.424 28.6219C248.451 27.6698 248.468 26.2199 248.468 24.2885V24.1641C247.153 24.1208 245.86 24.1046 244.588 24.1046C243.23 24.1046 241.882 24.1262 240.54 24.1641V24.2669C240.54 25.219 240.584 26.6527 240.665 28.5624C240.693 28.8762 240.785 29.1467 240.943 29.3793C241.1 29.6119 241.334 29.7904 241.649 29.9095V30.0339H241.589C240.769 29.9798 240.171 29.9527 239.801 29.9527C239.378 29.9527 238.807 29.9798 238.095 30.0339V29.9095C238.383 29.785 238.612 29.6173 238.785 29.3955C238.954 29.1791 239.046 28.9249 239.063 28.6381C239.079 27.6698 239.084 26.2253 239.084 24.3048C239.084 23.569 239.073 22.817 239.052 22.0542C239.03 21.2914 238.997 20.5557 238.959 19.847C238.932 19.4791 238.856 19.1707 238.731 18.9165C238.606 18.6622 238.362 18.4296 237.992 18.2132V18.132C238.731 18.1861 239.323 18.2132 239.758 18.2132C239.992 18.2132 240.339 18.2024 240.807 18.1699C241.122 18.1428 241.355 18.1266 241.508 18.1266V18.2078C241.203 18.343 240.991 18.5648 240.861 18.8624C240.731 19.1653 240.655 19.5061 240.622 19.8848C240.568 20.388 240.54 21.1724 240.54 22.2382V23.4229C242.323 23.477 243.67 23.5041 244.588 23.5041C245.86 23.5041 247.158 23.4825 248.468 23.4446L248.424 22.2382C248.424 22.0326 248.397 21.2319 248.343 19.8253C248.316 19.4683 248.239 19.1653 248.12 18.9165C247.995 18.6622 247.75 18.4296 247.381 18.2132V18.1104C248.093 18.1645 248.685 18.1915 249.147 18.1915C249.391 18.1915 249.734 18.1807 250.174 18.1483C250.543 18.1212 250.782 18.105 250.891 18.105V18.2078C250.592 18.3322 250.375 18.5432 250.244 18.8407C250.114 19.1383 250.027 19.4899 249.989 19.8848C249.951 20.388 249.929 21.1995 249.929 22.3193V24.2398C249.929 25.6735 249.967 27.1017 250.049 28.5353C250.092 29.2008 250.418 29.6606 251.038 29.9041V30.0068C250.407 29.9636 249.783 29.9473 249.169 29.9473C248.587 29.9473 248.017 29.969 247.457 30.0122Z" fill="#626669"/>
<path d="M263.172 18.8401C262.911 19.2891 262.753 19.6191 262.699 19.8247C262.656 19.9329 262.59 19.987 262.493 19.987C262.449 19.987 262.417 19.8625 262.389 19.6191C262.389 19.5109 262.384 19.4189 262.368 19.354C262.324 19.2188 262.221 19.1106 262.047 19.0348C261.873 18.9591 261.71 18.9158 261.542 18.8996C260.928 18.8833 259.944 18.8779 258.602 18.8779L258.499 19.9004C258.461 20.4198 258.439 21.2367 258.439 22.3565V24.2771C258.439 25.8027 258.488 27.2363 258.586 28.5725C258.613 29.2163 258.939 29.6653 259.569 29.925V30.0495H259.51C258.689 29.9954 258.086 29.9683 257.7 29.9683C257.287 29.9683 256.728 29.9954 256.016 30.0495V29.925C256.288 29.8006 256.516 29.6329 256.695 29.4111C256.875 29.1947 256.961 28.9404 256.961 28.6537C256.989 27.6853 256.999 26.2409 256.999 24.3203C256.999 23.3141 256.999 22.4647 256.999 21.7723C256.999 21.0852 256.983 20.3873 256.961 19.6732V18.8779C255.538 18.8779 254.435 18.9537 253.653 19.1051C253.473 19.1322 253.272 19.1917 253.044 19.2783C252.816 19.3648 252.615 19.473 252.435 19.5974C252.392 19.6245 252.332 19.6732 252.251 19.7381C252.044 19.9166 251.892 20.0032 251.8 20.0032C251.718 20.0032 251.675 19.9761 251.675 19.922C251.691 19.8247 251.8 19.6516 252.001 19.3919C252.164 19.1863 252.278 19.0402 252.332 18.9429L252.479 18.6994C252.669 18.3748 252.778 18.1314 252.81 17.9853H253.033C253.196 18.1476 253.517 18.2396 254 18.2504C254.919 18.2666 256.288 18.272 258.108 18.272C258.749 18.272 259.836 18.245 261.352 18.1909C261.748 18.1909 262.08 18.1855 262.335 18.1692C262.585 18.1692 262.868 18.1151 263.199 18.0069C263.308 17.9636 263.389 17.9366 263.443 17.9258H263.585C263.579 18.0881 263.433 18.391 263.172 18.8401Z" fill="#626669"/>
<path d="M38.007 30.1305C37.4963 31.2774 37.7136 32.1376 38.2895 32.7922C38.4308 32.9545 38.5992 33.106 38.7785 33.2467C39.9956 34.0744 41.2942 34.7723 42.4895 35.5946C42.7286 35.7569 42.9622 35.93 43.1904 36.1031C44.6574 37.1635 45.5865 38.6999 45.8527 40.4311C47.8902 37.5963 49.3464 34.3232 50.0636 30.7851C49.1182 31.0015 48.0913 30.9853 47.2708 30.4335C46.6025 29.9844 45.8473 29.8925 45.7821 30.6661C45.7223 31.391 47.0481 31.5858 47.6131 31.456C47.2437 31.6453 46.8851 31.7697 46.5319 31.8238C46.1787 31.8833 45.831 31.8725 45.4778 31.7914C44.7443 31.5642 44.3314 30.915 43.6848 30.6445C43.4458 30.3848 43.223 30.1035 43.022 29.8384C42.7394 29.4543 42.1961 28.9295 41.8429 29.6112C41.7614 29.7681 41.7832 29.9358 41.8647 30.1035C41.9462 30.2658 42.0983 30.4281 42.2722 30.5741C42.609 30.8717 43.0437 30.8879 43.4675 31.1097C42.8209 31.0935 42.3917 31.0827 41.7234 30.942C41.555 30.8771 41.392 30.796 41.2344 30.6986C40.7617 30.401 40.3433 29.9466 40.0608 29.5084C39.6859 28.8916 39.4523 28.0964 39.0882 27.4959C38.8329 27.0793 38.5558 26.7547 38.2787 26.5059C38.5069 27.22 38.4145 28.21 38.2189 29.1838C38.1591 29.503 38.0831 29.8221 38.007 30.1305Z" fill="#626669"/>
<path d="M43.0436 37.1746C42.8099 37.0177 42.5654 36.8825 42.3101 36.7635C41.6744 36.4659 40.9844 36.2766 40.2889 36.1792C40.0553 36.1467 39.827 36.1251 39.5989 36.1089C37.3114 36.0818 34.5024 36.6445 32.4757 35.0269C32.2801 34.8754 32.0954 34.7131 31.9107 34.5237C31.8237 34.3939 31.7205 34.2533 31.6064 34.1072C30.9327 33.55 30.3078 32.6736 29.683 32.019C30.3024 32.89 31.1391 33.7718 31.7748 34.6915C31.9759 34.8646 32.2095 35.0431 32.4323 35.227C32.6659 35.4056 32.8289 35.5949 32.9484 35.7951C33.5896 38.5487 31.3619 41.27 29.3896 42.7144C30.7153 41.3403 31.8292 39.4143 31.7911 37.6074C31.7857 37.3045 31.7477 37.0069 31.6716 36.7148C31.3239 34.8484 28.5583 33.9124 29.232 31.5699C29.2483 31.3481 29.2701 31.1317 29.3081 30.9153C29.1342 30.7963 28.9549 30.6827 28.7593 30.5691C26.3035 29.3627 23.5325 28.4322 20.6691 28.351C20.066 28.3077 19.4629 28.2861 18.8761 28.2915C18.2893 28.3023 17.7134 28.3348 17.1646 28.4051C16.4039 28.4971 15.7628 28.8703 15.1434 29.1138C15.138 29.4384 15.1651 29.7684 15.2249 30.1201C15.2521 30.3851 15.2792 30.6556 15.2847 30.9315C15.339 35.1026 12.8886 39.252 11.3292 41.4972C10.8402 42.2005 10.4381 43.5043 9.59054 43.1364C11.9432 39.1114 13.5949 33.6095 12.2583 28.0426C9.61771 27.8857 8.49301 24.8508 5.83611 25.619C6.50984 28.9028 9.09611 31.8404 8.09637 35.7951C7.59107 30.6178 4.09201 28.2644 3.35851 23.3089C6.01541 22.3406 9.68291 23.9581 12.3507 24.6776C13.3667 22.5894 13.2961 18.3534 12.0029 16.8008C11.8019 15.708 14.1437 15.7999 13.182 14.864C12.8505 16.633 10.2317 15.167 9.51991 14.7666C9.13958 15.4537 8.53647 15.8973 7.64541 16.0434C7.35201 16.0921 7.02058 16.1083 6.66197 16.0921C6.25447 15.5457 7.54761 15.3671 6.91734 14.9235C6.48811 14.9127 6.03714 15.7566 5.82524 15.5348C5.00481 14.0146 5.89588 12.9651 7.60194 12.6784C7.90078 12.5431 8.18874 12.4025 8.47128 12.251C8.65058 12.159 8.82444 12.0617 8.99288 11.9697C9.16674 11.8723 9.34061 11.7749 9.51448 11.683C9.90568 11.4395 10.2806 11.2393 10.6663 11.0662C10.8565 10.9797 11.0467 10.9039 11.2423 10.8336C11.7747 10.3521 12.8397 10.8065 12.8505 10.3792C13.0787 9.95719 12.4485 9.29717 12.2529 8.65339C13.2037 9.16192 14.035 9.90308 14.9043 10.4441C15.051 10.536 15.1977 10.6172 15.3444 10.6929C15.4205 10.7416 15.4911 10.7903 15.5672 10.8444C16.0399 10.8011 16.5561 10.628 17.0342 10.5956C17.5232 10.5739 18.1154 10.6767 18.5229 10.958C18.8978 11.2177 19.0608 11.5098 19.289 11.8398C19.0174 11.5207 18.0448 11.1203 17.8112 11.5585C17.5612 12.0346 18.0828 12.1266 18.4143 12.132C18.8815 12.1428 19.414 12.1861 19.8378 12.3484C20.6528 12.6405 21.0657 13.2302 21.1907 14.0796C21.0331 13.7063 20.392 13.0408 20.0008 13.3654C19.5824 13.7117 19.941 14.1066 20.4681 14.3014C21.7775 14.7883 22.1578 16.6385 22.1578 17.4878C21.8318 16.7358 21.4352 16.1624 20.6311 15.7783C20.5876 15.7566 20.5441 15.7404 20.5061 15.7242C20.4844 15.735 20.4572 15.7512 20.4355 15.7729C20.0225 16.1245 20.3866 16.514 20.9136 16.7034C22.2285 17.1741 22.636 19.0134 22.6468 19.8628C22.3969 19.3056 22.1035 18.8457 21.6362 18.4941C21.533 18.4724 21.4298 18.4887 21.332 18.559C20.8973 18.8836 21.2342 19.2948 21.7449 19.522C23.0272 20.0846 23.3043 21.9456 23.2554 22.795C23.1358 22.4758 23.0054 22.1891 22.8316 21.924C22.837 21.9727 22.8479 22.0214 22.8533 22.07C22.7175 21.6914 22.1144 20.9881 21.7069 21.291C21.2722 21.6156 21.6036 22.0268 22.1198 22.254C22.5979 22.465 22.9348 22.8545 23.1684 23.3089C26.7327 25.0022 31.7585 21.7292 35.6977 23.5361C36.2628 23.8175 36.7463 24.1799 37.143 24.5911C37.1647 24.6127 37.1864 24.6398 37.2082 24.6614C37.7298 24.3639 38.2405 24.1529 38.5339 24.0663C39.5065 23.785 40.9517 23.5848 42.0221 24.088C42.6143 24.3639 43.087 24.7263 43.5163 25.4675C43.0381 24.8616 42.1743 24.7913 41.6038 24.8021C41.0822 24.8075 40.6529 25.4242 40.9626 25.9382C41.2234 26.3872 42.0004 26.2844 42.4514 26.1978C42.9566 26.1167 43.4565 26.1275 43.9672 26.1059C45.1572 26.0518 46.1352 26.6956 46.722 27.3231C47.5098 28.1671 48.1074 28.8487 49.1452 29.4168C49.5201 29.6223 49.8841 29.7576 50.2482 29.8387C50.4655 28.4754 50.5796 27.0743 50.5688 25.646C50.4655 11.7425 39.0664 0.549281 25.1027 0.65207C11.139 0.754859 -0.102528 12.1049 0.000705352 26.0085C0.103939 39.9121 11.5031 51.1052 25.4667 51.0025C33.5298 50.9429 40.6855 47.1343 45.2713 41.2429C44.8909 39.647 44.2715 38.1809 43.0436 37.1746Z" fill="#626669"/>
<path d="M234.058 41.7945V37.8128H229.185V41.7945H228.527V33.6255H229.185V37.2772H234.058V33.6255H234.716V41.7945H234.058Z" fill="#626669"/>
<path d="M243.604 39.4522C243.403 39.9824 243.131 40.426 242.789 40.7885C242.447 41.151 242.045 41.4269 241.588 41.6108C241.132 41.7947 240.643 41.8867 240.121 41.8867C239.513 41.8867 238.986 41.7894 238.54 41.5892C238.095 41.389 237.725 41.1131 237.421 40.756C237.122 40.399 236.899 39.9662 236.752 39.4631C236.606 38.9599 236.535 38.4027 236.535 37.786C236.535 37.0989 236.633 36.493 236.834 35.9574C237.035 35.4272 237.301 34.9782 237.649 34.6211C237.991 34.2641 238.393 33.9882 238.85 33.8042C239.306 33.6203 239.795 33.5283 240.311 33.5283C240.871 33.5283 241.371 33.6203 241.816 33.8042C242.262 33.9882 242.637 34.2587 242.947 34.6157C243.256 34.9728 243.49 35.4002 243.653 35.9087C243.816 36.4173 243.897 36.9907 243.897 37.6291C243.903 38.3161 243.805 38.9221 243.604 39.4522ZM242.409 35.0323C241.882 34.3831 241.154 34.0639 240.219 34.0639C239.822 34.0639 239.442 34.1451 239.083 34.302C238.725 34.4588 238.41 34.6915 238.138 34.9944C237.866 35.2974 237.649 35.6707 237.486 36.1143C237.323 36.5579 237.242 37.061 237.242 37.6291C237.242 38.1809 237.301 38.6786 237.421 39.1331C237.54 39.5875 237.731 39.977 237.98 40.3016C238.23 40.6316 238.54 40.8859 238.91 41.0644C239.279 41.2429 239.714 41.3349 240.214 41.3349C240.61 41.3349 240.985 41.2538 241.344 41.0969C241.697 40.94 242.017 40.7074 242.289 40.4044C242.566 40.1014 242.784 39.7281 242.947 39.2845C243.11 38.8409 243.191 38.3378 243.191 37.7697C243.197 36.5904 242.936 35.6761 242.409 35.0323Z" fill="#626669"/>
<path d="M253.791 41.795L253.003 36.2877C252.922 35.7413 252.862 35.303 252.829 34.9893C252.791 34.6701 252.764 34.4104 252.753 34.2102H252.731C252.688 34.3455 252.639 34.5186 252.579 34.7242C252.52 34.9298 252.443 35.1624 252.357 35.4221L250.167 41.8004H249.33L247.266 35.8116C247.168 35.5303 247.07 35.2435 246.967 34.9568C246.863 34.6701 246.793 34.4212 246.755 34.2102H246.744C246.728 34.5186 246.7 34.8432 246.668 35.1894C246.63 35.5357 246.586 35.9252 246.527 36.3634L245.88 41.795H245.185L246.315 33.626H247.211L249.287 39.6905C249.395 39.9989 249.488 40.2802 249.569 40.5345C249.651 40.7941 249.711 41.0213 249.749 41.2269H249.77C249.835 40.9618 249.901 40.7292 249.966 40.5236C250.031 40.3235 250.113 40.08 250.21 39.7987L252.351 33.626H253.313L254.503 41.795H253.791Z" fill="#626669"/>
<path d="M256.504 41.795V33.626H260.487V34.1561H257.156V37.2993H260.329V37.8295H257.156V41.254H260.487V41.7842H256.504V41.795Z" fill="#626669"/>
</svg>
