<svg width="265" height="44" viewBox="0 0 265 44" fill="none" xmlns="http://www.w3.org/2000/svg">
<path fill-rule="evenodd" clip-rule="evenodd" d="M7.69092 37.9454C8.80484 38.8883 10.0055 39.683 11.2661 40.3161C18.55 43.9396 27.488 41.7372 27.488 41.7372V38.9758C27.488 38.9758 20.4443 41.2523 14.0476 38.6121C13.574 38.4168 13.0938 38.1946 12.6269 37.9386L7.69092 37.9454ZM35.4989 37.9454L35.5123 41.8854H32.8575V37.9454H35.4989ZM40.3615 37.9454L40.3748 41.8854H37.7134V37.9454H40.3615ZM45.3575 37.9454L45.3708 41.8854H42.7161V37.9454H45.3575ZM54.0687 37.9454V41.8854H51.414V37.9454H54.0687ZM59.1914 37.9454V41.8854H56.41V37.9454H59.1914ZM64.2608 37.9454V41.8854L61.7328 41.8921V37.9386H64.2608V37.9454ZM73.7991 37.9454C73.7725 39.8447 73.7324 41.8854 73.7324 41.8854H71.4579C71.4579 41.8854 71.5179 40.1006 71.4712 37.9454H73.7991ZM78.9418 37.9454C78.9485 40.2353 78.8685 41.8854 78.8685 41.8854H76.3405C76.3405 41.8854 76.4539 40.2016 76.4272 37.9386L78.9418 37.9454ZM83.8244 37.9454C83.8644 40.242 83.8378 41.8854 83.8378 41.8854H81.5499C81.5499 41.8854 81.5032 40.2487 81.3898 37.9386L83.8244 37.9454ZM92.549 37.9454C93.863 39.1779 95.3238 40.2016 96.8713 40.9761C104.155 44.5996 113.093 42.3972 113.093 42.3972V39.6359C113.093 39.6359 106.049 41.9123 99.6528 39.2654C98.7923 38.9085 97.9385 38.4707 97.0914 37.9454H92.549ZM109.538 37.9454C107.83 38.1878 105.689 38.3091 103.515 37.9454H109.538ZM125.153 37.9454C127.447 39.7436 130.669 41.0637 135.105 41.0637C139.06 41.0637 141.895 39.7302 143.909 37.9454L147.832 37.9521C145.417 41.0435 141.368 43.623 134.791 43.623C128.141 43.623 123.819 41.0637 121.131 37.9588L125.153 37.9454ZM138.16 37.9454C137.166 38.1676 136.045 38.2889 134.791 38.2889C133.497 38.2889 132.337 38.1609 131.289 37.9319L138.16 37.9454ZM162.319 37.9454C163.887 39.225 165.588 39.7504 166.755 39.8379C168.015 39.9389 174.192 39.8245 174.192 39.8245V42.4174L167.422 42.4444C164.34 42.4444 161.059 41.4813 158.424 37.9386L162.319 37.9454ZM201.66 37.9454C200.126 38.4236 198.492 38.6795 196.797 38.6795C195.103 38.6795 193.469 38.4236 191.935 37.9454H201.66ZM207.643 37.9454C204.561 40.0871 200.826 41.3398 196.797 41.3398C192.775 41.3398 189.04 40.0871 185.952 37.9454H181.783C185.691 41.6968 190.981 44.0002 196.797 44.0002C202.614 44.0002 207.903 41.6968 211.812 37.9454H207.643ZM221.317 37.9454C221.337 40.7943 221.344 42.7475 221.344 42.7475H224.005V37.9454H221.317ZM226.566 37.9454L226.586 42.606L229.208 42.6734L229.188 37.9454H226.566ZM231.816 37.9454L231.829 42.6734H234.451C234.451 42.6734 234.444 40.7472 234.437 37.9454H231.816ZM241.874 37.9454L241.868 42.6734H244.509C244.509 42.6734 244.509 40.7539 244.509 37.9521L241.874 37.9454ZM247.144 37.9454L247.157 42.6734L249.799 42.606L249.785 37.9454H247.144ZM252.28 37.9454V42.7475H255.028L255.021 37.9454H252.28Z" fill="#626669"/>
<path fill-rule="evenodd" clip-rule="evenodd" d="M2.46826 31.2911C3.79563 33.9043 5.58991 36.1807 7.69768 37.952L12.6336 37.9453C9.94553 36.5175 7.34417 34.2612 5.46985 31.2911H2.46826ZM11.9866 31.2911C14.0811 33.1634 16.6824 34.2747 19.0904 34.6788C23.546 35.4264 27.4881 33.682 27.4881 33.682V36.4703C27.4881 36.4703 21.5383 38.5245 16.1155 36.8609C13.2139 35.9719 10.3324 34.0928 8.25798 31.2843L11.9866 31.2911ZM16.2889 31.2911C17.2494 31.7692 18.2499 32.0925 19.2505 32.2542C22.8857 32.8266 26.6143 31.5672 27.3547 31.2911H16.2889ZM35.4857 31.2911L35.499 37.9453H32.8576V31.2911H35.4857ZM40.3416 31.2911L40.3616 37.9453H37.7135V31.2911H40.3416ZM45.3375 31.2911L45.3576 37.9453H42.7095V31.2911H45.3375ZM54.0688 31.2911V37.9453H51.4141V31.2911H54.0688ZM59.1915 31.2911V37.9453H56.41V31.2911H59.1915ZM64.2609 31.2911V37.9453H61.7329V31.2911H64.2609ZM73.5191 31.2911C73.8526 32.5707 73.8326 34.012 73.8326 35.1974C73.8326 35.8103 73.8192 36.8542 73.8059 37.9318L71.478 37.9453C71.4647 37.3728 71.4446 36.7734 71.4113 36.174C71.3379 34.7259 71.4313 33.0556 71.0444 31.9713C70.9244 31.6817 70.7043 31.4527 70.4241 31.2776L73.5191 31.2911ZM78.6084 31.2911C78.8619 33.554 78.9353 35.9786 78.9419 37.9385L76.4273 37.9453C76.4073 35.9248 76.2872 33.4463 75.887 31.2911H78.6084ZM83.5177 31.2911C83.7111 33.5877 83.7912 35.9989 83.8245 37.9385L81.3899 37.952C81.2965 36.0123 81.1498 33.6079 80.9497 31.2978L83.5177 31.2911ZM87.7533 31.2911C88.9539 33.8638 90.6014 36.1268 92.5558 37.9453H97.1049C94.6302 36.4097 92.3157 34.1467 90.6681 31.2843L87.7533 31.2911ZM96.9047 31.2911C99.0992 33.5675 102.014 34.8876 104.702 35.3388C109.158 36.0864 113.1 34.342 113.1 34.342V37.1371C113.1 37.1371 111.653 37.6355 109.538 37.9453L103.515 37.952C102.915 37.851 102.314 37.7096 101.721 37.5277C98.599 36.5713 95.504 34.47 93.4029 31.2978H96.9047V31.2911ZM100.8 31.2911C102.067 32.1531 103.475 32.6919 104.862 32.9142C108.924 33.554 113.1 31.9039 113.1 31.9039V31.2911H100.8ZM120.591 31.2911C121.251 33.3991 122.645 35.9652 125.153 37.9385L121.124 37.952C119.223 35.7631 118.149 33.3048 117.649 31.2911H120.591ZM126.06 31.2911C127.181 33.2644 129.655 35.6352 134.785 35.6352C139.687 35.6352 141.795 33.3048 142.656 31.3045L145.444 31.2911C144.71 33.7426 142.749 36.8946 138.16 37.9385L131.283 37.9453C126.42 36.8879 124.106 33.7089 123.152 31.2911H126.06ZM139.587 31.2911C138.794 32.1801 137.359 32.9681 134.785 32.9681C131.99 32.9681 130.369 32.1397 129.422 31.2978L139.587 31.2911ZM150.847 31.2911C150.453 33.2644 149.553 35.7362 147.825 37.9453H143.903C146.204 35.8911 147.418 33.2442 147.978 31.2843L150.847 31.2911ZM158.551 31.2911C158.831 32.6448 159.378 34.2141 160.412 35.7901C160.985 36.6656 161.646 37.3728 162.326 37.9318L158.431 37.9453C158.384 37.8779 158.337 37.8106 158.29 37.75C156.656 35.4803 155.956 33.1365 155.669 31.2911H158.551ZM163.7 31.2911C163.913 32.0319 164.227 32.8132 164.607 33.3991C165.221 34.3555 166.468 35.0559 167.635 35.0559L174.232 35.0425V37.7028L168.096 37.6489C166.268 37.6489 164.013 37.2516 162.553 35.2243C161.579 33.8706 161.119 32.4495 160.912 31.2911H163.7ZM174.232 31.2911V33.096L172.118 33.1162C168.663 33.352 166.962 32.4293 166.121 31.2843L174.232 31.2911ZM203.274 31.2911C201.447 32.5909 199.212 33.3587 196.797 33.3587C194.389 33.3587 192.155 32.5909 190.321 31.2911H203.274ZM207.196 31.2911C204.655 34.1871 200.94 36.0191 196.797 36.0191C192.662 36.0191 188.94 34.1939 186.399 31.2911H183.077C185.165 34.4229 188.28 36.8138 191.935 37.9453H201.66C205.315 36.8071 208.43 34.4229 210.518 31.2911H207.196ZM213.6 31.2911C212.152 33.9514 210.104 36.2346 207.643 37.9453H211.812C213.773 36.0595 215.394 33.81 216.548 31.2978L213.6 31.2911ZM221.284 31.2911C221.297 33.7022 221.31 36.0258 221.317 37.9453H224.005V31.2911H221.284ZM226.54 31.2911L226.566 37.9453H229.188L229.161 31.2911H226.54ZM231.803 31.2911L231.816 37.9453H234.437C234.431 36.0258 234.417 33.6955 234.411 31.2911H231.803ZM241.881 31.2911L241.875 37.9453H244.516C244.516 36.0325 244.516 33.7022 244.509 31.2911H241.881ZM247.124 31.2911L247.137 37.9453H249.779L249.765 31.2911H247.124ZM252.28 31.2911V37.9453H255.028L255.021 31.2911H252.28ZM181.783 37.9453C179.815 36.0595 178.208 33.81 177.04 31.2978L179.995 31.2911C181.436 33.9514 183.49 36.2346 185.952 37.9453H181.783Z" fill="#626669"/>
<path fill-rule="evenodd" clip-rule="evenodd" d="M0.114258 23.3035C0.407746 26.1659 1.23485 28.8667 2.46883 31.2913H5.46374C4.02298 29.0216 3.00912 26.3343 2.70896 23.3035H0.114258ZM7.92504 23.3035C8.30524 26.7721 9.89275 29.4122 11.9872 31.2845L8.26522 31.2913C6.69106 29.1563 5.57714 26.4892 5.27031 23.3102L7.92504 23.3035ZM10.5864 23.3035C11.2001 27.1694 13.548 29.8837 16.2895 31.2778L27.3553 31.2845C27.442 31.2576 27.4887 31.2374 27.4887 31.2374V28.5164C27.4887 28.5164 23.9868 30.1329 20.3049 29.8365C17.0432 29.5738 13.8815 27.3311 13.0878 23.2968L10.5864 23.3035ZM35.4662 23.3035L35.4862 31.2845H32.8582V23.3102L35.4662 23.3035ZM40.3221 23.3035L40.3421 31.2845H37.7074V23.3102L40.3221 23.3035ZM45.3181 23.3035L45.3381 31.2845H42.7101V23.3102L45.3181 23.3035ZM54.0694 23.3035V31.2913H51.4147V23.3102L54.0694 23.3035ZM59.1921 23.3035V31.2913H56.4106V23.3102L59.1921 23.3035ZM64.2614 23.3035V31.2913H61.7334V23.3102L64.2614 23.3035ZM75.0338 23.3035C74.4335 23.8625 73.9932 24.1521 73.9932 24.1521C73.9932 24.1521 77.6351 25.6541 78.2355 28.7522C78.3889 29.5469 78.5156 30.4023 78.609 31.2778L75.8876 31.2845C75.7675 30.6582 75.6341 30.0588 75.4673 29.4998C74.747 27.1021 71.7854 26.0649 69.831 26.0649C69.0106 26.0649 66.5293 25.9234 66.5293 25.9234V23.4382C66.5293 23.4382 67.8767 23.6066 69.5442 23.3035H75.0338ZM80.8502 23.3035C80.8302 23.3439 80.8168 23.3574 80.8168 23.3574C80.8168 23.3574 82.7312 25.1961 83.1914 28.4019C83.3248 29.3112 83.4249 30.2878 83.5116 31.2913H80.9502C80.8835 30.5437 80.8102 29.8028 80.7368 29.0957C80.2765 24.9199 77.4484 23.7144 77.5484 23.6335C77.6351 23.5662 77.7419 23.4584 77.8686 23.317L80.8502 23.3035ZM85.6661 23.3035C85.8728 26.139 86.6066 28.8532 87.7538 31.298L90.662 31.2913C89.3413 28.9946 88.4542 26.3141 88.2607 23.3102L85.6661 23.3035ZM93.4768 23.3035C93.697 26.698 95.0377 29.3381 96.9053 31.2778L93.4101 31.2845C91.9827 29.1159 91.0155 26.4488 90.8221 23.3035H93.4768ZM96.1049 23.3035C96.4851 26.9809 98.3928 29.6884 100.801 31.298L113.101 31.2913V29.1765C113.101 29.1765 109.599 30.7929 105.917 30.5033C102.482 30.2271 99.1598 27.7621 98.5929 23.3102L96.1049 23.3035ZM120.111 23.3035V28.5838C120.111 29.2708 120.258 30.2204 120.591 31.2913H117.65C117.416 30.3282 117.309 29.4728 117.309 28.7993C117.309 28.4019 117.323 26.24 117.336 23.3102L120.111 23.3035ZM125.234 23.3035L125.214 28.8061C125.214 29.1428 125.414 30.1531 126.067 31.298L123.152 31.2913C122.739 30.2406 122.579 29.3314 122.579 28.8061L122.606 23.3102L125.234 23.3035ZM130.503 23.3035C130.496 26.3612 130.483 28.4558 130.476 28.3211C130.55 28.5164 130.69 28.7858 130.923 29.0552C131.243 29.4257 132.164 30.308 134.785 30.308C136.86 30.308 137.487 29.6681 137.66 29.4661C137.78 29.3179 137.887 29.0351 137.927 28.9004L137.94 23.3102H140.575L140.568 28.9071C140.568 29.2304 140.455 30.3214 139.594 31.2845L129.429 31.2913C129.242 31.1364 129.089 30.9747 128.949 30.8131C128.489 30.281 128.202 29.7355 128.028 29.2977C127.955 29.1024 127.902 28.9273 127.868 28.7858L127.882 23.317L130.503 23.3035ZM145.844 23.3035L145.831 28.9071C145.831 29.4863 145.731 30.3349 145.438 31.2913H142.649C143.07 30.3147 143.19 29.4122 143.19 28.9071L143.203 23.3102H145.844V23.3035ZM151.107 23.3035L151.101 28.9138C151.101 29.5469 151.027 30.3618 150.84 31.2845L147.979 31.2913C148.272 30.281 148.386 29.4526 148.386 28.9879V23.3102L151.107 23.3035ZM158.251 23.3035V28.2471C158.251 29.0148 158.291 30.0722 158.544 31.2778L155.663 31.2845C155.516 30.3416 155.476 29.5267 155.476 28.9206L155.463 23.3035H158.251ZM163.374 23.3035L163.387 29.5065C163.387 29.9375 163.507 30.5976 163.707 31.2845H160.912C160.786 30.5706 160.752 29.9578 160.752 29.5065L160.739 23.2968H163.374V23.3035ZM168.076 23.3035V24.9064C168.076 25.7955 167.963 29.2573 168.683 30.0049C169.637 30.9949 170.938 30.6851 172.112 30.6851L174.226 30.6717V31.2913H166.115C165.241 30.0924 165.301 28.6646 165.301 28.0585L165.315 23.3102H168.076V23.3035ZM205.309 23.3035C204.689 27.486 201.114 30.6919 196.798 30.6919C192.482 30.6919 188.907 27.4792 188.287 23.2968L185.632 23.3035C186.006 26.597 187.773 29.4661 190.328 31.2845H203.281C205.836 29.4593 207.604 26.597 207.977 23.2968L205.309 23.3035ZM210.619 23.3035C210.338 26.3545 209.091 29.1159 207.197 31.2845H210.519C212.059 28.9677 213.04 26.24 213.26 23.3035H210.619ZM215.908 23.3035C215.715 26.1794 214.901 28.8936 213.6 31.2845H216.548C217.682 28.8397 218.383 26.139 218.549 23.29L215.908 23.3035ZM221.238 23.3035C221.251 25.7618 221.264 28.5771 221.284 31.2913H224.012V23.3102H221.238V23.3035ZM226.507 23.3035L226.54 31.2845H229.168L229.142 23.3035H226.507ZM231.776 23.3035L231.803 31.2913H234.418C234.405 28.5703 234.398 25.7416 234.391 23.3102L231.776 23.3035ZM241.888 23.3035L241.882 31.2913H244.51C244.51 28.5703 244.51 25.7483 244.503 23.3035H241.888ZM247.111 23.3035L247.131 31.2913H249.773L249.753 23.3102L247.111 23.3035ZM252.281 23.3035V31.2913H255.015L255.002 23.3102L252.281 23.3035ZM70.4247 31.2913C69.1307 30.4763 66.536 30.7255 66.536 30.7255L66.5293 28.3346C66.5293 28.3346 68.9372 28.4087 69.8844 28.4087C71.3452 28.4828 72.2256 28.9273 72.7259 29.5873C73.1061 30.0924 73.3596 30.6717 73.5196 31.298L70.4247 31.2913ZM177.048 31.2913C175.914 28.8465 175.213 26.1457 175.053 23.2968L177.695 23.3035C177.888 26.1861 178.702 28.8936 180.002 31.2845H177.048V31.2913ZM183.077 31.2913C181.537 28.9744 180.556 26.2467 180.329 23.3102H182.977C183.258 26.3612 184.505 29.1226 186.399 31.2913H183.077Z" fill="#626669"/>
<path fill-rule="evenodd" clip-rule="evenodd" d="M0.493783 16.6424C0.166944 18.0635 -0.00648474 19.5519 0.000185449 21.101C0.000185449 21.8486 0.0402104 22.5827 0.113582 23.3101L2.70828 23.3033C2.64825 22.677 2.6149 22.0506 2.6149 21.4041C2.6149 19.6934 2.82167 18.0971 3.1952 16.6356L0.493783 16.6424ZM8.6114 16.6424C8.11113 18.1106 7.83099 19.7809 7.83099 21.66C7.83099 22.2257 7.86434 22.778 7.9177 23.3101L5.25629 23.3033C5.19626 22.7107 5.16958 22.1045 5.16958 21.4781C5.16958 19.7203 5.40971 18.1039 5.82993 16.6289L8.6114 16.6424ZM11.3395 16.6424C10.7592 17.9624 10.4257 19.5048 10.4257 21.2828C10.4257 21.99 10.479 22.6702 10.5858 23.3101L13.0871 23.3033C12.9604 22.6703 12.9003 21.9967 12.9003 21.2761C12.9003 19.4307 13.4139 17.8816 14.241 16.6424H11.3395ZM35.4456 16.6424L35.4656 23.3033H32.8575V16.6424H35.4456ZM40.3014 16.6424L40.3215 23.3033H37.7134V16.6424H40.3014ZM45.2974 16.6424L45.3174 23.3033H42.7094V16.6424H45.2974ZM54.0687 16.6424V23.3033H51.414V16.6424H54.0687ZM59.1914 16.6424V23.3033H56.4099V16.6424H59.1914ZM64.2607 16.6424V23.3033H61.7327V16.6424H64.2607ZM73.0987 16.6424C72.3984 22.4143 66.542 21.1818 66.542 21.1818V18.6561C66.542 18.6561 70.2773 19.1007 70.6708 16.6491L73.0987 16.6424ZM78.3749 16.6424C78.0414 19.9358 76.2204 22.1651 75.0331 23.2966L69.5369 23.3033C72.0515 22.8588 75.3066 21.3569 75.8135 16.6424H78.3749ZM83.4509 16.6424C82.9039 20.3062 81.1096 22.9464 80.8495 23.3168L77.8679 23.3101C78.7484 22.3335 80.476 19.7001 81.0429 16.6558L83.4509 16.6424ZM86.2657 16.6424C85.8321 18.252 85.5987 19.9695 85.6053 21.761C85.6053 22.2796 85.6254 22.7915 85.6587 23.2966L88.2534 23.3033C88.2267 22.8992 88.2134 22.4817 88.2134 22.0641C88.2134 20.0907 88.4802 18.2857 88.9738 16.6424H86.2657ZM94.47 16.6424C93.8163 18.2588 93.4428 20.1446 93.4428 22.32C93.4428 22.6568 93.4562 22.9801 93.4762 23.3033H90.8214C90.8014 22.9262 90.7881 22.5355 90.7881 22.1382C90.7881 20.1177 91.1016 18.2857 91.6485 16.6424H94.47ZM97.2715 16.6424C96.4978 18.0904 96.0309 19.8483 96.0309 21.9429C96.0309 22.4143 96.0575 22.8723 96.1042 23.3168L98.5855 23.3101C98.5322 22.879 98.4988 22.421 98.4988 21.9496C98.4988 19.7607 99.2192 17.9894 100.333 16.6558L97.2715 16.6424ZM120.11 16.6424V23.3033H117.335C117.349 21.33 117.362 19.0131 117.375 16.6491L120.11 16.6424ZM125.26 16.6424L125.233 23.3033H122.598L122.625 16.6424H125.26ZM130.522 16.6424C130.516 19.0333 130.509 21.3636 130.502 23.2966L127.881 23.3033L127.901 16.6424H130.522ZM140.588 16.6424L140.574 23.3033H137.94L137.953 16.6424H140.588ZM145.864 16.6424L145.85 23.3033H143.216L143.229 16.6424H145.864ZM151.12 16.6424L151.107 23.3033H148.385V16.6424H151.12ZM158.25 16.6424V23.3033H155.456L155.442 16.6424H158.25ZM163.36 16.6424L163.373 23.3033H160.738L160.725 16.6424H163.36ZM168.062 16.6424L168.082 23.3033H165.327L165.347 16.6424H168.062ZM203.588 16.6424C204.728 18.1241 205.415 19.983 205.415 21.9967C205.415 22.4413 205.382 22.8723 205.315 23.2966L207.977 23.3033C208.023 22.8723 208.05 22.4413 208.05 21.9967C208.05 20.0638 207.57 18.2386 206.723 16.6424H203.588ZM209.631 16.6424C210.304 18.2925 210.678 20.0975 210.678 21.9967C210.678 22.4413 210.658 22.8723 210.618 23.3101L213.259 23.3033C213.293 22.8723 213.313 22.4345 213.313 21.9967C213.313 20.1244 213.013 18.3261 212.446 16.6491L209.631 16.6424ZM215.207 16.6424C215.687 18.3463 215.954 20.1446 215.954 21.9967C215.954 22.4345 215.941 22.8723 215.914 23.3033H218.555C218.582 22.8656 218.596 22.4345 218.596 21.9967C218.596 20.1513 218.369 18.3598 217.948 16.6491L215.207 16.6424ZM221.204 16.6424C221.21 17.6796 221.224 20.212 221.237 23.3033H224.005V16.6424H221.204ZM226.48 16.6424L226.506 23.3033H229.141L229.114 16.6424H226.48ZM231.762 16.6424C231.762 16.6693 231.762 16.703 231.756 16.7367L231.776 23.3033H234.391C234.377 19.6327 234.37 16.8512 234.377 16.6491C234.377 16.6424 234.377 16.6356 234.384 16.6289L231.762 16.6424ZM241.814 16.6424C241.848 16.7569 241.874 16.8848 241.894 17.0061L241.888 23.3033H244.503C244.496 19.8887 244.482 17.2216 244.469 16.6356L241.814 16.6424ZM247.097 16.6424L247.111 23.3033H249.752L249.732 16.6424H247.097ZM252.28 16.6424V23.3033H255.008L255.001 16.6424H252.28ZM175.053 23.3033C175.026 22.8656 175.013 22.4345 175.013 21.9967C175.013 20.1513 175.233 18.3598 175.66 16.6491L178.388 16.6424C177.907 18.3463 177.647 20.1446 177.647 21.9967C177.647 22.4345 177.661 22.8723 177.687 23.3033H175.053ZM180.329 23.3033C180.295 22.8723 180.282 22.4345 180.282 21.9967C180.282 20.1244 180.589 18.3261 181.149 16.6491L183.971 16.6424C183.29 18.2925 182.923 20.0975 182.923 21.9967C182.923 22.4413 182.943 22.8723 182.983 23.3101L180.329 23.3033ZM185.625 23.3033C185.578 22.8723 185.551 22.4413 185.551 21.9967C185.551 20.0638 186.032 18.2386 186.872 16.6424L190.007 16.6356C188.866 18.1173 188.186 19.9762 188.186 21.99C188.186 22.4345 188.219 22.8656 188.28 23.2899L185.625 23.3033Z" fill="#626669"/>
<path fill-rule="evenodd" clip-rule="evenodd" d="M3.37517 10.0018C2.05448 11.9751 1.04728 14.2044 0.493652 16.6493H3.19507C3.86209 14.0495 5.05606 11.8404 6.5902 10.0085L3.37517 10.0018ZM14.1275 10.0018C11.6729 11.4094 9.65849 13.5848 8.61794 16.656L5.84314 16.6493C6.62355 13.9485 8.03096 11.7327 9.77855 10.0152L14.1275 10.0018ZM35.4321 10.0018L35.4521 16.6425H32.8574V10.0018H35.4321ZM40.2813 10.0018L40.3013 16.6425H37.7066V10.0018H40.2813ZM45.2839 10.0018L45.304 16.6425H42.7159V10.0018H45.2839ZM54.0686 10.0018V16.6425H51.4138V10.0018H54.0686ZM59.1913 10.0018V16.6425H56.4098V10.0018H59.1913ZM76.7739 10.0018C77.4876 10.9783 78.0279 12.2041 78.2747 13.7397C78.4481 14.7836 78.4681 15.7535 78.3747 16.6493H75.8134C75.8534 16.3192 75.8734 15.9757 75.8801 15.6053C75.9268 12.7092 74.5661 11.0053 72.9719 10.0085L76.7739 10.0018ZM82.8037 10.0018C83.6775 12.386 83.7442 14.6692 83.4508 16.6493H81.0361C81.2629 15.4167 81.2963 14.1034 81.0028 12.8103C80.756 11.7529 80.4091 10.8234 79.9822 10.0085H82.8037V10.0018ZM89.4606 10.0018C88.0332 11.9415 86.9259 14.1775 86.2656 16.6425L88.987 16.6493C89.7674 14.0293 91.1081 11.8202 92.7757 10.0085L89.4606 10.0018ZM101.04 10.0018C98.1918 11.268 95.7706 13.4232 94.4699 16.6493H91.6551C92.5755 13.9014 94.1697 11.6855 96.0974 10.0152L101.04 10.0018ZM113.1 10.0018V10.022C113.1 10.022 113.08 10.0085 113.04 9.99502L113.1 10.0018ZM120.11 10.0018V16.6425H117.369C117.382 14.3863 117.395 12.0829 117.402 10.0018H120.11ZM125.286 10.0018L125.259 16.6425H122.631L122.658 10.0018H125.286ZM130.536 10.0018C130.536 12.0896 130.529 14.3997 130.522 16.656L127.894 16.6493L127.914 10.0085H130.536V10.0018ZM140.601 10.0018L140.588 16.6425H137.946L137.96 10.0018H140.601ZM145.877 10.0018L145.857 16.6425H143.216L143.229 10.0018H145.877ZM151.126 10.0018L151.12 16.6425H148.385V10.0018H151.126ZM158.25 10.0018V16.6425H155.442L155.422 10.0018H158.25ZM163.346 10.0018L163.36 16.6425H160.718L160.705 10.0018H163.346ZM168.049 10.0018L168.062 16.6425H165.341L165.361 10.0018H168.049ZM203.968 10.0018C206.489 11.5374 208.49 13.8609 209.631 16.6425L212.452 16.6493C211.598 14.1101 210.151 11.8404 208.283 10.0152L203.968 10.0018ZM211.818 10.0018C213.346 11.9482 214.513 14.1977 215.207 16.6493L217.935 16.6425C217.341 14.2516 216.354 12.0088 215.053 9.99502L211.818 10.0018ZM222.844 10.0018C221.644 12.3792 221.203 14.7163 221.203 16.1845C221.203 16.2654 221.203 16.4203 221.203 16.6358L224.012 16.6425V16.3933C224.012 14.9655 224.518 12.4196 226.053 10.0018H222.844ZM229.188 10.0018C227.013 12.2715 226.473 15.0665 226.473 16.1778V16.6425H229.108V16.1711C229.108 15.4369 229.695 11.571 233.99 10.0085L229.188 10.0018ZM242.174 10.0018C246.097 11.4498 247.097 14.8779 247.097 16.0768L247.104 16.6493H249.738V16.0768C249.738 14.6961 249.091 12.1098 247.07 10.0085H242.174V10.0018ZM250.379 10.0018C251.753 12.2176 252.28 14.5277 252.28 15.996V16.6425H255.001V16.0633C255.001 14.6557 254.568 12.359 253.387 9.98828L250.379 10.0018ZM14.2409 16.6425C15.775 14.3593 18.3764 13.1133 20.8044 12.9315C24.1528 12.6823 27.4345 14.5008 27.4345 14.5008L27.4946 11.9414C27.4946 11.9414 24.2862 10.0287 19.9839 10.5742C16.5755 11.012 12.9802 12.918 11.3394 16.656L14.2409 16.6425ZM61.7326 16.6425V10.7426H66.7886C68.3695 10.7426 73.3654 11.443 73.152 15.9623C73.1386 16.2047 73.1253 16.4337 73.0986 16.6493L70.6707 16.6425C70.6907 16.5078 70.704 16.3529 70.704 16.1913C70.6974 13.8475 68.116 13.1807 66.8487 13.1807L64.2606 13.174V16.6425H61.7326ZM100.34 16.6425C101.9 14.7769 104.222 13.7532 106.41 13.5915C109.758 13.3423 113.04 15.1608 113.04 15.1608L113.1 12.6015C113.1 12.6015 109.891 10.6887 105.589 11.2343C102.394 11.6451 99.0323 13.3491 97.2714 16.6425H100.34ZM175.659 16.6425C176.253 14.2516 177.234 12.0088 178.534 9.99502L181.776 10.0018C180.248 11.9482 179.081 14.1977 178.387 16.6493L175.659 16.6425ZM181.149 16.6425C182.003 14.1034 183.45 11.8337 185.318 10.0085L189.627 10.0018C187.105 11.5374 185.104 13.8609 183.964 16.6425H181.149ZM186.879 16.6425C188.773 13.0729 192.502 10.6416 196.797 10.6416C201.093 10.6416 204.828 13.0729 206.722 16.6493L203.587 16.6425C202.013 14.6153 199.559 13.3087 196.804 13.3087C194.049 13.3087 191.594 14.6153 190.02 16.6493L186.879 16.6425ZM234.377 16.6425C234.584 15.6794 235.471 14.6759 238.079 14.6759C239.96 14.6759 241.454 15.4908 241.814 16.6425H244.462C244.462 16.5752 244.456 16.5415 244.456 16.5213C244.322 15.2618 243.295 12.0088 237.946 12.0088C234.644 12.0088 231.889 13.7128 231.762 16.6358L234.377 16.6425Z" fill="#626669"/>
<path fill-rule="evenodd" clip-rule="evenodd" d="M6.5902 10.0016C9.31163 6.73506 13.0736 4.64718 16.7556 3.65039C22.4586 2.10806 27.4946 4.0949 27.4946 4.0949V1.29986C27.4946 1.29986 19.7705 -0.484923 13.0669 2.16869C9.3183 3.65714 5.80978 6.38482 3.38184 10.0083L6.5902 10.0016ZM9.77187 10.0016C12.2665 7.55 15.4482 6.08849 18.4631 5.63724C23.846 4.82903 27.4946 6.60035 27.4946 6.60035V9.36172C27.4946 9.36172 23.4391 7.44897 19.1035 8.23024C17.3559 8.54679 15.6616 9.126 14.1275 10.0016H9.77187ZM32.8574 10.0016V1.36722H35.4121L35.4321 10.0016H32.8574ZM37.7066 10.0016V1.36722H40.2613L40.2813 10.0016H37.7066ZM42.7093 10.0016V1.36722H45.2639L45.2839 10.0016H42.7093ZM51.4138 10.0016V1.87234C51.4138 1.87234 67.4823 1.9397 69.0098 1.87234C73.0119 1.69723 79.9155 3.27996 82.5169 9.27416C82.6236 9.51663 82.717 9.75908 82.8104 10.0083L79.9889 10.0016C77.3275 4.92333 71.6378 4.10839 69.2833 4.10839H54.0752V10.0016H51.4138ZM56.4098 10.0016V6.08847H67.4223C69.5834 6.08847 74.2659 6.55321 76.7739 9.99482L72.9785 10.0016C70.7907 8.63434 68.176 8.58045 68.176 8.58045H59.1913V10.0016H56.4098ZM92.7757 10.0016C95.4371 7.11222 98.9389 5.23987 102.361 4.31043C108.07 2.7681 113.1 4.75495 113.1 4.75495V1.9599C113.1 1.9599 105.376 0.175099 98.6721 2.82871C95.1569 4.22287 91.8618 6.70812 89.4606 10.0016H92.7757ZM96.0907 10.0016C98.4653 7.94737 101.334 6.70812 104.068 6.29728C109.451 5.48907 113.1 7.26039 113.1 7.26039V10.0016H113.04C112.526 9.76583 108.737 8.16961 104.709 8.89026C103.448 9.11925 102.207 9.48296 101.04 10.0016H96.0907ZM117.409 10.0016C117.429 5.63725 117.449 2.23602 117.449 2.23602H120.11V10.0016H117.409ZM122.658 10.0016L122.691 2.37747L125.313 2.31012L125.286 10.0016H122.658ZM127.914 10.0016L127.934 2.31012H130.556C130.556 2.31012 130.549 5.68439 130.536 10.0016H127.914ZM137.96 10.0016L137.973 2.31012H140.614L140.601 10.0016H137.96ZM143.236 10.0016L143.256 2.31012L145.897 2.37747L145.877 10.0016H143.236ZM148.385 10.0016V2.23602H151.133L151.126 10.0016H148.385ZM155.429 10.0016L155.409 1.89927H158.257V10.0016H155.429ZM160.705 10.0016L160.691 1.92622H163.333L163.346 10.0016H160.705ZM165.361 10.0016L165.387 1.92622H168.035L168.055 10.0016H165.361ZM178.534 10.0016C182.423 3.98042 189.153 0 196.797 0C204.441 0 211.171 3.98041 215.06 9.99482L211.818 10.0016C208.31 5.52948 202.887 2.66033 196.797 2.66033C190.714 2.66033 185.291 5.52948 181.776 9.99482L178.534 10.0016ZM185.318 10.0016C188.293 7.11222 192.335 5.32069 196.797 5.32069C201.26 5.32069 205.302 7.10547 208.277 10.0083L203.968 10.0016C201.88 8.7219 199.425 7.98777 196.804 7.98777C194.182 7.98777 191.728 8.72189 189.64 9.99482L185.318 10.0016ZM226.053 10.0016C228.054 6.85629 231.789 3.92653 238.419 3.92653C244.756 3.92653 248.431 6.86303 250.385 10.0016H253.387C251.286 5.78542 246.824 1.36722 238.219 1.36722C229.514 1.36722 224.985 5.75847 222.851 9.99482L226.053 10.0016ZM233.99 10.0016C235.111 9.60419 236.471 9.35498 238.146 9.35498C239.747 9.35498 241.067 9.60418 242.168 10.0083H247.057C245.289 8.16961 242.481 6.69465 238.139 6.69465C233.723 6.69465 230.922 8.17636 229.181 10.0016H233.99ZM258.837 6.10196V4.27676H260.037C260.651 4.27676 261.305 4.41146 261.305 5.13885C261.305 6.04135 260.638 6.09522 259.89 6.09522H258.837V6.10196ZM258.837 6.85628H259.85L261.385 9.40213H262.378L260.718 6.81587C261.571 6.70811 262.225 6.25013 262.225 5.19272C262.225 4.03429 261.545 3.52242 260.171 3.52242H257.949V9.40213H258.83V6.85628H258.837ZM255.788 6.45217C255.788 4.04102 257.589 2.21582 259.904 2.21582C262.185 2.21582 263.986 4.03429 263.986 6.45217C263.986 8.91047 262.185 10.7155 259.904 10.7155C257.589 10.7087 255.788 8.90373 255.788 6.45217ZM259.904 11.5641C262.652 11.5641 265 9.40886 265 6.45217C265 3.52916 262.652 1.37394 259.904 1.37394C257.129 1.37394 254.774 3.52916 254.774 6.45217C254.774 9.40213 257.129 11.5641 259.904 11.5641Z" fill="#626669"/>
</svg>
