<svg width="172" height="50" viewBox="0 0 172 50" fill="none" xmlns="http://www.w3.org/2000/svg">
<path d="M166.595 0.0428061C168.412 0.261104 170.133 1.01017 171.187 2.54681C171.95 3.73247 172.095 5.1407 171.95 6.63454L171.427 8.56926L160.05 39.0282H13.722L12.3367 42.6323L12.6229 42.7222H158.57C156.181 47.2037 151.158 50.3241 145.567 49.9731L5.45162 49.9303C3.58518 49.712 1.7229 48.9201 0.719172 47.2508C-0.23893 45.757 -0.139388 43.4713 0.432985 41.8447L13.386 7.29799C15.4432 3.34295 19.9351 0.265382 24.6676 0L166.595 0.0428061Z" fill="#626669"/>
<path d="M39.8181 9.66945C40.3905 10.4613 40.8218 11.3388 41.0624 12.2633C39.7227 13.1408 38.1466 13.8471 36.7115 14.5919C36.5664 13.2307 35.7078 11.9123 34.3225 11.296C32.6966 10.594 30.8427 10.7139 29.1587 11.9123C24.8079 15.1226 22.9912 19.6469 22.0829 24.351C21.8423 27.1632 22.228 30.0653 24.8079 31.7347C26.7199 32.5265 28.3914 31.1654 29.8265 30.1509L32.5058 33.755C30.0214 35.8652 27.1056 37.4489 23.5179 37.0509C20.6022 36.6571 18.0223 34.0204 17.3048 31.5121C14.9158 23.6876 18.1634 16.1285 23.7585 10.3714C27.0559 7.16117 31.8837 5.09804 36.5208 6.98567C37.8107 7.51644 39.0508 8.5694 39.8181 9.66945Z" fill="white"/>
<path d="M53.4886 34.8976H48.8516L58.5072 7.11816H63.1443L53.4886 34.8976Z" fill="white"/>
<path d="M158.179 13.4057C157.221 14.1076 156.027 14.5913 155.168 15.3404C155.118 15.5587 155.359 15.7342 155.55 15.8241C156.599 15.3404 157.557 14.724 158.561 14.1547C159.519 15.6058 160.091 17.3179 160.378 19.0771L155.405 19.167C155.118 19.2569 155.069 19.5608 155.164 19.7834L155.5 19.9589H160.519C160.759 21.8936 160.614 23.9139 160.183 25.7159L155.45 23.1649C155.21 23.1649 155.069 23.3832 155.019 23.5159L155.069 23.824L159.897 26.5506C158.943 30.3302 155.5 34.4179 151.195 35.4281C147.085 36.4382 143.211 34.9016 140.535 31.9995C139.055 30.3302 138.001 28.5281 137.429 26.5506L142.161 23.824C142.257 23.7341 142.352 23.5587 142.257 23.4302L141.921 23.1649C140.345 23.9139 138.81 24.7914 137.284 25.6689C136.757 23.9524 136.662 21.8893 136.852 19.9546L141.921 19.9118C142.161 19.8219 142.352 19.4709 142.112 19.2954L141.68 19.1199H136.948C137.284 17.4078 137.806 15.7342 138.669 14.1975L141.68 15.8241C141.871 15.8241 142.016 15.6486 142.112 15.5159V15.2077L139.146 13.4913C141.108 10.281 144.596 7.9525 148.565 7.90969C152.634 7.81981 156.126 10.1954 158.179 13.4057Z" fill="white"/>
<path d="M149.864 10.1533C150.436 10.5043 150.913 11.1635 151.585 11.2063C151.726 11.339 151.726 11.5573 151.631 11.69C151.299 11.7328 151.39 12.041 151.39 12.3063C152.489 12.041 152.921 13.2309 153.684 13.7146C154.161 13.5391 154.065 14.0228 154.256 14.2411V14.3309H153.157L153.062 22.2881C152.775 22.6819 152.153 22.4208 151.676 22.5064C151.676 22.8146 151.581 23.1228 151.295 23.2983C151.15 24.0003 151.627 25.0575 150.913 25.4513L146.276 25.4085C145.654 24.7493 146.372 23.5166 145.654 22.9045V22.5535C145.173 22.3352 144.078 22.8189 144.219 21.9842V14.3352C143.837 14.2924 143.406 14.3352 143.024 14.3352C143.17 14.0698 143.074 13.5005 143.647 13.7188C144.364 13.2352 144.795 12.0923 145.895 12.3577C145.94 12.1822 145.895 12.0067 145.94 11.874C145.749 11.8312 145.559 11.6557 145.604 11.4802C145.559 11.0864 146.036 11.2148 146.272 11.0864L147.421 10.1619H149.864V10.1533Z" fill="#626669"/>
<path d="M152.062 14.3262H145.177V21.7526H152.062V14.3262Z" fill="white"/>
<path d="M49.5243 18.0202C52.1166 21.1406 50.8143 26.033 48.4709 29.2733C46.0818 32.659 42.1125 35.865 37.8115 35.163C36.2354 34.9447 34.7049 33.6264 34.1284 32.2182C32.6684 28.0962 35.2275 22.0224 39.6737 18.5467C42.1623 16.4793 47.0358 15.1182 49.5243 18.0202Z" fill="white"/>
<path d="M74.2859 18.9878C75.5758 21.4918 74.908 24.7021 73.8545 27.0734L62.6684 27.1162C62.4776 28.2591 62.4278 29.7101 63.2408 30.5876C63.6721 31.1141 64.3399 31.2468 65.0077 31.1141C66.2519 30.8059 67.3967 29.7957 68.1142 28.7856H72.8964C70.889 32.0814 67.2557 35.3773 62.9546 35.2489C61.1379 35.2489 59.4167 34.3243 58.6037 32.7877C56.6419 28.8327 58.4586 24.3896 60.9928 21.1837C63.527 18.3287 66.7289 15.9103 70.889 16.4368C72.4527 16.6636 73.7135 17.7123 74.2859 18.9878Z" fill="white"/>
<path d="M112.864 17.4037C113.104 17.2282 113.15 16.7873 113.295 16.4791H117.982L111.574 34.8975H106.937L107.177 34.1955C105.601 34.9874 103.399 35.6465 101.537 34.8975C99.0977 33.8445 98.5254 31.4261 98.6664 29.0976C99.1931 23.867 102.681 18.371 108.372 16.5262C109.948 16.218 111.765 16.3036 112.864 17.4037Z" fill="white"/>
<path d="M90.73 18.4146C92.5467 16.9207 94.9357 15.9962 97.3745 16.7024C98.8096 17.0962 99.5728 18.4617 99.6226 19.7372L99.5272 21.0556L94.6952 34.8982H90.0581L94.6454 21.4023C94.6454 20.9186 94.4546 20.4777 93.9776 20.3022C92.5923 19.994 91.3149 20.5719 90.5351 21.8389L86.0888 34.8469L81.402 34.8897L85.9437 21.6591C86.0391 21.2182 86.0391 20.7345 85.6077 20.4264C85.2386 20.2295 84.1312 20.1225 83.4675 20.4178C82.3933 20.8929 82.2067 21.124 82.0698 21.749L77.5779 34.8469L72.8496 34.8982L79.2535 16.5269L83.9404 16.4842L83.6044 17.3616C85.6616 16.3044 89.5811 15.688 90.73 18.4146Z" fill="white"/>
<path d="M132.751 18.3288C133.182 19.2962 133.133 20.439 132.892 21.4492L128.255 34.8553L123.187 34.8981L127.824 21.4492C127.919 21.0083 127.678 20.6145 127.297 20.3962C125.862 19.8698 124.667 20.79 123.568 21.4963L123.091 22.5493L118.84 34.8981H114.107L120.466 16.4797H125.194L124.572 18.2817H124.667C126.339 17.0961 128.301 15.9104 130.549 16.6552C131.461 16.8778 132.365 17.537 132.751 18.3288Z" fill="white"/>
<path d="M45.7003 21.3163C46.7538 23.8203 45.804 26.4441 44.2196 28.5672C43.2615 29.7528 41.9716 31.2039 40.2503 31.1611C39.7236 31.1183 39.1968 30.8529 38.865 30.412C37.7659 28.0835 38.7696 25.3997 40.0595 23.3794C40.8725 22.1038 42.3076 20.5672 43.979 20.3917C44.6924 20.3489 45.3644 20.6999 45.7003 21.3163Z" fill="#626669"/>
<path d="M69.8391 21.3589C70.175 22.108 70.3658 23.0283 70.175 23.8201H63.9121C64.7707 22.4119 66.2058 20.6099 68.1178 20.3916C68.881 20.306 69.5031 20.7426 69.8391 21.3589Z" fill="#626669"/>
<path d="M109.852 21.1835C110.935 23.6233 109.781 26.5169 108.176 28.7426C107.363 29.8427 106.169 31.2038 104.593 31.161C104.066 31.1182 103.589 30.8101 103.398 30.3692C102.266 27.9422 104.066 23.4692 106.841 21.0508C107.708 20.3275 109.28 19.9979 109.852 21.1835Z" fill="#626669"/>
<path d="M152.061 26.0207C154.69 26.6799 153.351 29.4493 153.736 31.2941H143.6C143.936 29.4022 142.642 26.4573 145.466 25.9736L152.061 26.0207Z" fill="#626669"/>
<path d="M153.737 31.7769H143.601V32.8298H153.737V31.7769Z" fill="#626669"/>
<path d="M8.23916 42.7051C9.53736 42.7051 10.5867 41.7377 10.5867 40.5435C10.5867 39.3536 9.53736 38.3862 8.23916 38.3862C6.94095 38.3862 5.8916 39.3536 5.8916 40.5435C5.8916 41.7377 6.94095 42.7051 8.23916 42.7051Z" fill="white"/>
<path d="M8.23954 42.508C9.41747 42.508 10.3756 41.6305 10.3756 40.5433C10.3756 39.4604 9.42161 38.5786 8.23954 38.5786C7.06162 38.5786 6.10352 39.4561 6.10352 40.5433C6.10352 41.6305 7.06162 42.508 8.23954 42.508Z" fill="#626669"/>
<path d="M7.72382 41.746H7.26758V39.2163H8.31278C8.97225 39.2163 9.31651 39.4303 9.31651 39.944C9.31651 40.3977 9.01373 40.5903 8.59482 40.6331L9.36213 41.746H8.87271L8.16346 40.6502H7.72382V41.746Z" fill="white"/>
<path d="M8.22257 40.3113C8.55853 40.3113 8.85716 40.2685 8.85716 39.909C8.85716 39.6008 8.53364 39.5537 8.2599 39.5537H7.7207V40.3113H8.22257Z" fill="#626669"/>
</svg>
