<svg width="265" height="44" viewBox="0 0 265 44" fill="none" xmlns="http://www.w3.org/2000/svg">
<path d="M133.947 11.3899H122.254V43.0107H133.947V11.3899Z" fill="#626669"/>
<path d="M88.3469 11.3899H76.6543V43.0107H88.3469V11.3899Z" fill="#626669"/>
<path d="M148.094 15.1893H148.245C151.246 11.5069 155.066 10.4099 158.291 10.4099C168.854 10.4099 172.38 15.9193 172.38 23.764V43.0108H160.684V24.4416C160.684 20.7714 158.364 18.9887 154.846 18.9887C151.319 18.9887 148.995 20.7714 148.995 24.4416V43.0108H137.307V11.4102H148.094V15.1893Z" fill="#626669"/>
<path d="M36.941 12.5555C34.1728 10.9624 31.0213 9.55479 27.5804 9.55479C18.8802 9.55479 12.7404 14.6407 12.7404 21.8724C12.7404 29.1605 18.5092 34.4279 27.5804 34.4279C31.0172 34.4279 34.5438 32.8993 37.2386 31.3062L35.669 42.4581C33.5694 43.3777 28.9991 43.9868 26.6753 43.9868C11.0118 43.9868 0 35.162 0 22.1144C0 9.55076 11.0118 0 26.6019 0C29.4517 0 32.4441 0.362994 35.0004 1.34308L36.941 12.5555Z" fill="#626669"/>
<path d="M62.1123 11.3899H73.8008V43.0107H63.0132V38.7152H62.8665C60.616 42.8816 56.0458 43.9867 52.8209 43.9867C42.2576 43.9867 38.7393 38.4732 38.7393 30.6326V11.519H50.4278V29.955C50.4278 33.6374 52.7516 35.412 56.27 35.412C59.7884 35.412 62.1123 33.6374 62.1123 29.955V11.3899Z" fill="#626669"/>
<path d="M95.5955 33.1412C97.9152 35.0449 100.765 36.017 104.055 36.017C106.008 36.017 109.31 35.775 109.31 33.5083C109.31 29.1564 91.3229 33.5083 91.3229 20.6986C91.3229 13.6566 98.2903 10.4138 105.939 10.4138C110.582 10.4138 115.373 12.253 118.748 14.8222L112.303 20.1541C110.652 19.1095 108.336 18.3755 106.159 18.3755C104.736 18.3755 102.192 18.6134 102.192 20.2751C102.192 25.5466 120.171 20.2751 120.171 33.3873C120.171 40.3083 112.604 43.9867 105.034 43.9867C98.5186 43.9867 94.8453 42.9461 89.6758 39.6993L95.5955 33.1412Z" fill="#626669"/>
<path d="M181.085 11.8216C184.081 10.9584 188.423 10.4099 191.652 10.4099C201.241 10.4099 207.837 13.6567 207.837 21.4409V43.0108H197.645V40.373H197.494C195.244 43.1882 191.868 43.9828 187.905 43.9828C179.209 43.9828 174.492 39.3365 174.492 32.5928C174.492 26.2163 180.86 22.2354 188.276 22.2354C191.199 22.2354 194.494 23.159 196.972 24.6312C197.046 24.3166 197.046 24.0141 197.046 23.643C197.046 19.2952 194.567 18.3756 189.548 18.3756C186.103 18.3756 182.585 19.1056 179.433 20.2753L181.085 11.8216ZM191.203 36.6342C194.351 36.6342 196.972 35.0975 196.972 32.4638C196.972 29.8906 194.351 28.3579 191.203 28.3579C187.979 28.3579 185.361 29.8906 185.361 32.4638C185.357 35.1015 187.979 36.6342 191.203 36.6342Z" fill="#626669"/>
<path d="M210.854 11.3456H221.193V16.859H221.344C223.582 11.3456 227.728 10.8616 234.097 10.8616V19.8315C228.254 19.771 222.543 21.7635 222.543 26.4743V42.9623H210.854V11.3456Z" fill="#626669"/>
<path d="M261.237 34.8556L259.525 43.9667C258.999 44.0272 258.632 43.9869 258.029 43.9869C247.686 43.9869 242.223 39.9415 242.223 31.5443V19.7873H235.508V11.1844H242.223V5.57006L253.915 1.89575V11.1844H260.581V19.7873H253.915V30.8183C253.915 33.94 256.202 34.7951 259.505 34.7951L261.237 34.8556Z" fill="#626669"/>
<path d="M88.1635 2.40771H76.7358V8.85691H88.1635V2.40771Z" fill="#626669"/>
<path d="M133.499 2.40771H122.076V8.85691H133.499V2.40771Z" fill="#626669"/>
<path d="M257.482 26.7122C257.482 24.7762 258.954 23.304 260.834 23.304C262.697 23.304 264.173 24.7762 264.173 26.7122C264.173 28.6764 262.693 30.1243 260.834 30.1243C258.954 30.1243 257.482 28.6764 257.482 26.7122ZM260.834 30.8019C263.08 30.8019 265 29.0797 265 26.7162C265 24.3769 263.08 22.6265 260.834 22.6265C258.571 22.6265 256.655 24.3729 256.655 26.7162C256.655 29.0797 258.571 30.8019 260.834 30.8019ZM259.961 27.0268H260.789L262.04 29.0797H262.852L261.498 27.0026C262.191 26.9138 262.725 26.5508 262.725 25.7079C262.725 24.7802 262.171 24.3729 261.054 24.3729H259.248V29.0797H259.965V27.0268H259.961ZM259.961 26.4339V24.9698H260.948C261.437 24.9698 261.975 25.0827 261.975 25.6595C261.975 26.3895 261.437 26.4298 260.825 26.4298H259.961V26.4339Z" fill="#626669"/>
</svg>
