<svg width="125" height="92" viewBox="0 0 125 92" fill="none" xmlns="http://www.w3.org/2000/svg">
<mask id="path-1-inside-1" fill="white">
<path d="M124.21 31.2475C124.21 35.1534 121.97 51.9507 104.928 60.7161C83.1126 71.9387 68.0913 81.5843 62.5455 91.0282V91.0099C56.9997 81.5477 41.9784 71.902 20.1627 60.6977C3.12139 51.9323 0.899414 35.1534 0.899414 31.2475C0.899414 22.0786 3.67229 14.6886 9.21806 9.11392C14.7455 3.53928 22.0174 0.751953 31.0155 0.751953C47.01 0.751953 58.4321 12.4514 62.5639 16.8341C66.9711 11.6995 78.2279 0.751953 94.0939 0.751953C103.092 0.751953 110.364 3.52094 115.91 9.09559C121.437 14.6886 124.21 22.0603 124.21 31.2475ZM106.342 24.8843C104.873 24.8843 103.735 26.0579 103.735 27.4699C103.735 28.8819 104.892 30.0555 106.342 30.0555C107.756 30.0555 108.932 28.9003 108.932 27.4699C108.932 26.0579 107.775 24.8843 106.342 24.8843ZM106.324 25.4161C107.481 25.4161 108.381 26.3697 108.381 27.4883C108.381 28.6435 107.462 29.5604 106.324 29.5604C105.167 29.5604 104.267 28.6252 104.267 27.4883C104.286 26.3513 105.167 25.4161 106.324 25.4161ZM105.222 26.0212V28.9919H105.736V27.8H106.342C106.856 27.8367 106.948 27.965 106.967 28.4418C106.985 28.8086 107.003 28.9003 107.059 28.9919H107.573C107.499 28.8636 107.499 28.8086 107.481 28.3134C107.462 27.9284 107.389 27.69 106.985 27.5799V27.5616C107.389 27.4699 107.536 27.1765 107.536 26.8464C107.536 26.0396 106.673 26.0396 106.489 26.0396H105.222V26.0212ZM105.736 26.498H106.416C106.673 26.498 106.985 26.5347 107.022 26.8464C107.022 27.3232 106.563 27.3232 106.361 27.3232H105.755V26.498H105.736ZM39.481 55.1964C39.4259 53.0693 37.3509 51.8773 35.4594 51.8773C32.7967 51.8773 31.0706 53.9128 31.0706 56.4617C31.0706 59.0107 32.7967 61.0462 35.4594 61.0462C37.6998 61.0462 39.3525 59.7075 39.481 57.452H37.1856C37.0938 58.4605 36.4878 59.084 35.4043 59.084C33.9169 59.084 33.3476 57.7821 33.3476 56.4801C33.3476 55.1781 33.9169 53.8761 35.4043 53.8761C36.3592 53.8761 37.057 54.3529 37.1856 55.2331H39.481V55.1964ZM40.4359 60.8444H42.7313V57.2319H45.7613V60.8444H48.0568V52.0424H45.7613V55.2515H42.7313V52.0424H40.4359V60.8444ZM49.3422 60.8444H51.6376V52.0424H49.3422V60.8444ZM52.9782 60.8444H59.387V58.8823H55.2736V52.0607H52.9782V60.8444ZM60.2684 60.8444H64.0513C66.7324 60.8444 68.3667 59.2857 68.3667 56.4067C68.3667 53.6928 66.7507 52.0424 64.0513 52.0424H60.2684V60.8444ZM62.5639 54.0228H63.6473C65.2082 54.0228 66.0713 54.793 66.0713 56.4067C66.0713 58.1671 65.3735 58.8456 63.6473 58.8823H62.5639V54.0228ZM69.3951 60.8444H71.6905V57.6353H73.435C74.5001 57.6353 74.6654 58.5522 74.7205 59.4324C74.7388 59.6708 74.7756 60.5327 74.9776 60.8444H77.2546C76.9425 60.5327 76.9057 59.2307 76.8874 58.864C76.8139 58.0204 76.5385 56.9752 75.6019 56.7551V56.7368C76.5201 56.3884 76.9792 55.4715 76.9792 54.5363C76.9792 52.7575 75.455 52.0607 73.8941 52.0607H69.3951V60.8444ZM71.6905 53.8945H73.5085C74.1512 53.8945 74.6654 54.1879 74.6654 54.848C74.6654 55.5082 74.2981 55.8749 73.6003 55.8749H71.6721V53.8945H71.6905ZM78.0443 60.8444H85.1876V58.8823H80.3397V57.2136H84.6551V55.4348H80.3397V53.8945H85.0591V52.0607H78.0443V60.8444ZM86.216 60.8444H88.3829V55.3798H88.4012L91.4679 60.8628H93.8185V52.0607H91.6516V57.4887H91.6332L88.5665 52.0607H86.216V60.8444ZM19.0609 44.3222C19.0609 47.0179 20.4565 47.8614 22.605 47.8614H29.8769C37.9569 47.8614 42.6395 43.0019 42.6395 34.6033C42.6395 24.2241 36.598 21.3451 29.9871 21.3451H22.5866C20.4381 21.3451 19.0425 22.1887 19.0425 24.8843V44.3222H19.0609ZM25.1024 26.2046H30.1524C34.578 26.2046 36.5796 29.377 36.5796 34.6033C36.5796 38.6926 35.0371 43.0019 30.1891 43.0019H25.1024V26.2046ZM61.2784 39.2427C63.0781 39.2427 63.6473 38.7659 63.6473 36.9138C63.6473 32.4944 60.1032 28.1117 53.9147 28.1117C47.5242 28.1117 43.7413 32.3111 43.7413 38.5642C43.7413 43.2403 46.5877 48.3198 54.0983 48.3198C57.3487 48.3198 62.5455 46.8161 62.5455 43.5704C62.5455 42.5801 61.6273 41.4799 60.3235 41.4799C58.1383 41.4799 58.1383 44.1388 54.0983 44.1388C50.9582 44.1388 49.1218 42.085 49.1218 39.2427H61.2784ZM49.1218 36.1436C49.7095 33.5213 51.3438 31.871 54.0249 31.871C56.4305 31.871 58.2668 33.668 58.5606 36.1436H49.1218ZM65.5571 45.6609C65.5571 47.4213 66.6222 48.3565 68.2565 48.3565C69.8909 48.3565 70.956 47.4396 70.956 45.6609V23.5457C70.956 21.7852 69.8909 20.85 68.2565 20.85C66.6222 20.85 65.5571 21.7669 65.5571 23.5457V45.6609ZM75.0877 43.552C75.0877 46.7244 76.7037 48.3382 80.6151 48.3382C83.2044 48.3382 84.5266 47.4946 84.5266 45.9359C84.5266 44.799 83.8287 44.1388 82.6535 44.1388H81.8822C80.9273 44.1388 80.4866 43.6987 80.4866 42.8919V32.1277H82.1026C83.6818 32.1277 84.5449 31.6509 84.5449 30.3673C84.5449 29.0836 83.7002 28.6068 82.1026 28.6068H80.4866V25.3244C80.4866 23.564 79.4215 22.6288 77.7872 22.6288C76.1528 22.6288 75.0877 23.5457 75.0877 25.3244V28.6068H74.1696C72.6638 28.6068 72.021 29.1937 72.021 30.3673C72.021 31.5409 72.6454 32.1277 74.1696 32.1277H75.0877V43.552ZM103.367 33.6497C103.367 29.7805 99.7866 28.1301 94.6264 28.1301C89.0991 28.1301 86.0691 30.8624 86.0691 32.9895C86.0691 34.0898 86.9873 35.0434 88.3645 35.0434C90.4947 35.0434 90.6232 32.091 94.5897 32.091C96.3893 32.091 97.987 32.7512 97.987 34.3099C97.987 35.8502 96.9586 36.1436 95.6548 36.2903L92.3677 36.6571C88.236 37.1339 84.8387 38.3808 84.8387 42.8369C84.8387 46.2293 87.8687 48.3198 90.917 48.3198C93.7634 48.3198 96.1873 47.513 98.2991 45.1841C98.3726 46.8345 99.1439 48.3198 101.476 48.3198C102.761 48.3198 103.918 47.4763 103.918 46.266C103.918 45.4225 103.367 44.909 103.367 42.6535V33.6497ZM97.987 40.9114C97.987 42.8919 96.1873 44.8173 93.2308 44.8173C91.3945 44.8173 90.2376 43.8271 90.2376 42.5985C90.2376 40.9848 91.4496 40.2696 93.7083 39.9395L95.6548 39.6461C96.2792 39.5361 97.381 39.3527 97.987 38.8026V40.9114ZM28.5915 33.8698C27.9855 33.8514 27.4162 34.0348 26.8837 34.4199C26.2593 34.8783 25.8921 35.4285 25.7819 36.0886C25.6901 36.7488 25.8737 37.3722 26.3512 37.9774C26.7735 38.5275 27.251 38.8576 27.7651 38.986C28.2793 39.1143 29.0506 39.0593 30.0606 38.8209L30.2075 38.7842C31.8418 38.3992 33.0538 38.4175 33.8251 38.8576C33.6047 38.0324 33.9169 36.9321 34.78 35.5201L34.8534 35.4101C35.386 34.5482 35.6431 33.8698 35.6614 33.338C35.6798 32.8245 35.4778 32.2927 35.0554 31.7426C34.578 31.1374 33.9903 30.7707 33.3109 30.679C32.6315 30.5873 31.9704 30.7707 31.3276 31.2291C30.7951 31.6142 30.4462 32.091 30.2993 32.6411C30.1524 33.1913 30.1891 33.8147 30.4462 34.5116C29.8035 34.1081 29.1975 33.8881 28.5915 33.8698Z"/>
</mask>
<path d="M124.21 31.2475C124.21 35.1534 121.97 51.9507 104.928 60.7161C83.1126 71.9387 68.0913 81.5843 62.5455 91.0282V91.0099C56.9997 81.5477 41.9784 71.902 20.1627 60.6977C3.12139 51.9323 0.899414 35.1534 0.899414 31.2475C0.899414 22.0786 3.67229 14.6886 9.21806 9.11392C14.7455 3.53928 22.0174 0.751953 31.0155 0.751953C47.01 0.751953 58.4321 12.4514 62.5639 16.8341C66.9711 11.6995 78.2279 0.751953 94.0939 0.751953C103.092 0.751953 110.364 3.52094 115.91 9.09559C121.437 14.6886 124.21 22.0603 124.21 31.2475ZM106.342 24.8843C104.873 24.8843 103.735 26.0579 103.735 27.4699C103.735 28.8819 104.892 30.0555 106.342 30.0555C107.756 30.0555 108.932 28.9003 108.932 27.4699C108.932 26.0579 107.775 24.8843 106.342 24.8843ZM106.324 25.4161C107.481 25.4161 108.381 26.3697 108.381 27.4883C108.381 28.6435 107.462 29.5604 106.324 29.5604C105.167 29.5604 104.267 28.6252 104.267 27.4883C104.286 26.3513 105.167 25.4161 106.324 25.4161ZM105.222 26.0212V28.9919H105.736V27.8H106.342C106.856 27.8367 106.948 27.965 106.967 28.4418C106.985 28.8086 107.003 28.9003 107.059 28.9919H107.573C107.499 28.8636 107.499 28.8086 107.481 28.3134C107.462 27.9284 107.389 27.69 106.985 27.5799V27.5616C107.389 27.4699 107.536 27.1765 107.536 26.8464C107.536 26.0396 106.673 26.0396 106.489 26.0396H105.222V26.0212ZM105.736 26.498H106.416C106.673 26.498 106.985 26.5347 107.022 26.8464C107.022 27.3232 106.563 27.3232 106.361 27.3232H105.755V26.498H105.736ZM39.481 55.1964C39.4259 53.0693 37.3509 51.8773 35.4594 51.8773C32.7967 51.8773 31.0706 53.9128 31.0706 56.4617C31.0706 59.0107 32.7967 61.0462 35.4594 61.0462C37.6998 61.0462 39.3525 59.7075 39.481 57.452H37.1856C37.0938 58.4605 36.4878 59.084 35.4043 59.084C33.9169 59.084 33.3476 57.7821 33.3476 56.4801C33.3476 55.1781 33.9169 53.8761 35.4043 53.8761C36.3592 53.8761 37.057 54.3529 37.1856 55.2331H39.481V55.1964ZM40.4359 60.8444H42.7313V57.2319H45.7613V60.8444H48.0568V52.0424H45.7613V55.2515H42.7313V52.0424H40.4359V60.8444ZM49.3422 60.8444H51.6376V52.0424H49.3422V60.8444ZM52.9782 60.8444H59.387V58.8823H55.2736V52.0607H52.9782V60.8444ZM60.2684 60.8444H64.0513C66.7324 60.8444 68.3667 59.2857 68.3667 56.4067C68.3667 53.6928 66.7507 52.0424 64.0513 52.0424H60.2684V60.8444ZM62.5639 54.0228H63.6473C65.2082 54.0228 66.0713 54.793 66.0713 56.4067C66.0713 58.1671 65.3735 58.8456 63.6473 58.8823H62.5639V54.0228ZM69.3951 60.8444H71.6905V57.6353H73.435C74.5001 57.6353 74.6654 58.5522 74.7205 59.4324C74.7388 59.6708 74.7756 60.5327 74.9776 60.8444H77.2546C76.9425 60.5327 76.9057 59.2307 76.8874 58.864C76.8139 58.0204 76.5385 56.9752 75.6019 56.7551V56.7368C76.5201 56.3884 76.9792 55.4715 76.9792 54.5363C76.9792 52.7575 75.455 52.0607 73.8941 52.0607H69.3951V60.8444ZM71.6905 53.8945H73.5085C74.1512 53.8945 74.6654 54.1879 74.6654 54.848C74.6654 55.5082 74.2981 55.8749 73.6003 55.8749H71.6721V53.8945H71.6905ZM78.0443 60.8444H85.1876V58.8823H80.3397V57.2136H84.6551V55.4348H80.3397V53.8945H85.0591V52.0607H78.0443V60.8444ZM86.216 60.8444H88.3829V55.3798H88.4012L91.4679 60.8628H93.8185V52.0607H91.6516V57.4887H91.6332L88.5665 52.0607H86.216V60.8444ZM19.0609 44.3222C19.0609 47.0179 20.4565 47.8614 22.605 47.8614H29.8769C37.9569 47.8614 42.6395 43.0019 42.6395 34.6033C42.6395 24.2241 36.598 21.3451 29.9871 21.3451H22.5866C20.4381 21.3451 19.0425 22.1887 19.0425 24.8843V44.3222H19.0609ZM25.1024 26.2046H30.1524C34.578 26.2046 36.5796 29.377 36.5796 34.6033C36.5796 38.6926 35.0371 43.0019 30.1891 43.0019H25.1024V26.2046ZM61.2784 39.2427C63.0781 39.2427 63.6473 38.7659 63.6473 36.9138C63.6473 32.4944 60.1032 28.1117 53.9147 28.1117C47.5242 28.1117 43.7413 32.3111 43.7413 38.5642C43.7413 43.2403 46.5877 48.3198 54.0983 48.3198C57.3487 48.3198 62.5455 46.8161 62.5455 43.5704C62.5455 42.5801 61.6273 41.4799 60.3235 41.4799C58.1383 41.4799 58.1383 44.1388 54.0983 44.1388C50.9582 44.1388 49.1218 42.085 49.1218 39.2427H61.2784ZM49.1218 36.1436C49.7095 33.5213 51.3438 31.871 54.0249 31.871C56.4305 31.871 58.2668 33.668 58.5606 36.1436H49.1218ZM65.5571 45.6609C65.5571 47.4213 66.6222 48.3565 68.2565 48.3565C69.8909 48.3565 70.956 47.4396 70.956 45.6609V23.5457C70.956 21.7852 69.8909 20.85 68.2565 20.85C66.6222 20.85 65.5571 21.7669 65.5571 23.5457V45.6609ZM75.0877 43.552C75.0877 46.7244 76.7037 48.3382 80.6151 48.3382C83.2044 48.3382 84.5266 47.4946 84.5266 45.9359C84.5266 44.799 83.8287 44.1388 82.6535 44.1388H81.8822C80.9273 44.1388 80.4866 43.6987 80.4866 42.8919V32.1277H82.1026C83.6818 32.1277 84.5449 31.6509 84.5449 30.3673C84.5449 29.0836 83.7002 28.6068 82.1026 28.6068H80.4866V25.3244C80.4866 23.564 79.4215 22.6288 77.7872 22.6288C76.1528 22.6288 75.0877 23.5457 75.0877 25.3244V28.6068H74.1696C72.6638 28.6068 72.021 29.1937 72.021 30.3673C72.021 31.5409 72.6454 32.1277 74.1696 32.1277H75.0877V43.552ZM103.367 33.6497C103.367 29.7805 99.7866 28.1301 94.6264 28.1301C89.0991 28.1301 86.0691 30.8624 86.0691 32.9895C86.0691 34.0898 86.9873 35.0434 88.3645 35.0434C90.4947 35.0434 90.6232 32.091 94.5897 32.091C96.3893 32.091 97.987 32.7512 97.987 34.3099C97.987 35.8502 96.9586 36.1436 95.6548 36.2903L92.3677 36.6571C88.236 37.1339 84.8387 38.3808 84.8387 42.8369C84.8387 46.2293 87.8687 48.3198 90.917 48.3198C93.7634 48.3198 96.1873 47.513 98.2991 45.1841C98.3726 46.8345 99.1439 48.3198 101.476 48.3198C102.761 48.3198 103.918 47.4763 103.918 46.266C103.918 45.4225 103.367 44.909 103.367 42.6535V33.6497ZM97.987 40.9114C97.987 42.8919 96.1873 44.8173 93.2308 44.8173C91.3945 44.8173 90.2376 43.8271 90.2376 42.5985C90.2376 40.9848 91.4496 40.2696 93.7083 39.9395L95.6548 39.6461C96.2792 39.5361 97.381 39.3527 97.987 38.8026V40.9114ZM28.5915 33.8698C27.9855 33.8514 27.4162 34.0348 26.8837 34.4199C26.2593 34.8783 25.8921 35.4285 25.7819 36.0886C25.6901 36.7488 25.8737 37.3722 26.3512 37.9774C26.7735 38.5275 27.251 38.8576 27.7651 38.986C28.2793 39.1143 29.0506 39.0593 30.0606 38.8209L30.2075 38.7842C31.8418 38.3992 33.0538 38.4175 33.8251 38.8576C33.6047 38.0324 33.9169 36.9321 34.78 35.5201L34.8534 35.4101C35.386 34.5482 35.6431 33.8698 35.6614 33.338C35.6798 32.8245 35.4778 32.2927 35.0554 31.7426C34.578 31.1374 33.9903 30.7707 33.3109 30.679C32.6315 30.5873 31.9704 30.7707 31.3276 31.2291C30.7951 31.6142 30.4462 32.091 30.2993 32.6411C30.1524 33.1913 30.1891 33.8147 30.4462 34.5116C29.8035 34.1081 29.1975 33.8881 28.5915 33.8698Z" fill="#626669" stroke="#626669" stroke-width="2" mask="url(#path-1-inside-1)"/>
</svg>
