<svg width="206" height="41" viewBox="0 0 206 41" fill="none" xmlns="http://www.w3.org/2000/svg">
<path d="M88.0682 40.7972V37.1775H84.5446V40.7972H82.8223V32.1821H84.5446V35.4748H88.0682V32.1821H89.7906V40.7972H88.0682Z" fill="#626669"/>
<path d="M97.2317 40.9321C94.9802 40.9321 93.4492 39.2857 93.4492 36.5005C93.4492 33.7153 95.014 32.0464 97.2542 32.0464C99.4944 32.0464 101.025 33.6927 101.025 36.478C101.025 39.2632 99.4606 40.9321 97.2317 40.9321ZM97.2204 33.7604C96.0159 33.7604 95.2166 34.7301 95.2166 36.478C95.2166 38.2258 96.0497 39.2181 97.2542 39.2181C98.4587 39.2181 99.258 38.2483 99.258 36.5005C99.258 34.7527 98.4137 33.7604 97.2204 33.7604Z" fill="#626669"/>
<path d="M111 40.7967V37.6394C111 37.177 111.022 36.072 111.022 35.7449C110.899 36.0607 110.64 36.6809 110.426 37.177L108.681 40.9997L106.936 37.177C106.711 36.6809 106.452 36.072 106.339 35.7449C106.339 36.072 106.362 37.177 106.362 37.6394V40.7967H104.685V32.1816H106.339L108.129 36.0832C108.354 36.5681 108.613 37.2109 108.715 37.5266C108.827 37.2109 109.075 36.5794 109.289 36.0832L111.022 32.1816H112.722V40.7967H111Z" fill="#626669"/>
<path d="M116.853 40.7967V32.1816H122.819V33.8618H118.575V35.3615H121.04V37.0304H118.575V39.1053H123.01V40.7854H116.853V40.7967Z" fill="#626669"/>
<path d="M85.8954 10.1825C86.3456 10.1825 86.6721 9.86675 86.6721 9.19018C86.6721 8.43467 85.7152 6.67557 85.2086 6.21325C84.8372 5.88623 84.4657 5.71709 84.1505 5.71709C83.6326 5.71709 83.1486 6.0441 83.1486 6.60792C83.1486 6.98003 83.3624 7.12662 83.5538 7.31832C84.173 7.91596 84.6908 8.42339 85.1186 9.48336C85.2199 9.73144 85.3775 10.1825 85.8954 10.1825ZM137.364 15.4936C136.767 15.4711 132.557 15.4485 130.407 15.674C130.171 15.6966 129.99 15.674 129.912 15.4485C129.81 15.144 129.371 14.0615 128.347 13.182C128.2 13.0467 128.279 12.9339 128.493 12.8662C131.825 11.8627 138.231 8.78423 138.231 4.33011C138.231 2.0072 136.261 0.699157 133.131 0.699157C128.167 0.687881 121.829 4.20607 119.904 5.22094C119.69 5.3337 119.499 5.39008 119.431 5.05179C119.24 4.10459 118.497 2.68378 116.515 2.68378C111.686 2.6725 105.472 9.88931 103.581 11.9754C99.9895 15.9672 95.2615 22.2819 91.2876 22.2706C90.5897 22.2706 90.0043 22.0226 89.8917 21.9211C89.7904 21.8196 89.7679 21.6617 89.9705 21.5264C95.2727 17.918 94.9463 15.2004 94.9463 14.7494C94.9575 13.2496 93.8543 11.6033 91.5803 11.6033C88.2819 11.6033 84.8034 15.5387 84.7921 18.9554C84.7921 20.1507 85.1073 20.9062 85.4 21.5038C85.5013 21.7068 85.4451 21.876 85.2199 21.9887C84.9723 22.1015 83.8915 22.4736 83.0022 22.4736C81.1448 22.4736 80.368 21.2896 80.368 20.286C80.368 19.0569 81.6964 17.4444 82.5519 16.8806C82.9234 16.6325 83.2836 16.3619 83.2836 15.7755C83.2949 15.1102 82.4168 14.5013 81.6513 14.5013C80.8183 14.5013 80.1654 15.144 79.7714 15.5387C78.9608 16.3506 78.3529 17.2527 77.8914 18.3916C77.7788 18.6622 77.7563 18.8765 77.4749 19.226C76.7769 20.0943 75.336 21.7294 73.4672 21.7294C72.0826 21.7294 71.4184 20.5905 71.2158 19.9477C71.1707 19.7786 71.182 19.6094 71.3734 19.429C75.5273 16.08 80.3792 9.64123 80.3792 6.61919C80.3792 6.20197 80.3004 4.98414 78.9045 4.98414C76.6868 4.98414 73.0395 7.52129 70.7767 10.6561C69.6848 12.1671 69.1444 13.1594 68.424 14.817C68.2889 15.1215 68.1538 15.1102 67.9399 15.0877C67.7373 15.0538 66.0261 14.7494 64.5064 14.7381C59.1592 14.7268 56.7388 17.918 56.7388 20.3424C56.7388 20.5341 56.66 20.7032 56.3898 20.7822C56.2097 20.8386 55.2303 21.2558 54.0258 21.2558C51.8869 21.2445 51.1664 19.9816 50.9638 19.4065C50.8963 19.1922 50.8625 18.978 51.1101 18.7975C53.0239 17.3993 55.5455 15.4147 57.6507 13.306C60.0147 10.9605 61.8159 8.58126 61.8159 7.17173C61.8159 6.68685 61.5795 5.7622 60.0485 5.7622C55.7257 5.75092 49.2189 11.468 47.6091 15.8206C47.5303 16.0236 47.4177 16.1138 47.1588 15.9785C46.8661 15.8319 43.9955 14.5351 41.2487 14.5351C36.8358 14.5238 34.1903 17.1061 33.8864 19.7109C33.8526 19.9816 33.7401 20.2409 33.4474 20.4101C29.451 22.8119 25.3646 23.8493 23.0681 23.838C20.8504 23.838 19.0605 23.3193 18.0361 22.0564C17.8897 21.876 17.9685 21.7294 18.1149 21.6617C28.5279 16.7114 37.3424 12.5167 45.9993 6.63047C47.4403 5.64944 48.8924 4.67967 48.8924 3.08972C48.9037 0.304486 42.8923 2.78319e-05 41.001 2.78319e-05C33.8189 -0.0112484 23.7886 3.40546 23.7773 7.51002C23.7773 9.29166 25.4546 10.284 26.6029 10.7125C26.7492 10.7576 26.7042 10.8478 26.5691 10.8478H25.4659C12.1485 10.8252 9.6043 17.3542 9.6043 19.8575C9.59304 21.2558 10.0659 22.1692 10.4599 22.8908C10.5274 23.0261 10.4711 23.0938 10.3923 23.1389C9.53676 23.59 1.0262 27.3901 0.744767 27.5254C0.193157 27.8073 -0.15582 28.2358 0.0693265 28.8109C0.260701 29.2957 0.801054 29.4762 1.30763 29.307C1.67913 29.1943 11.5406 24.7401 11.6869 24.6725C11.822 24.6048 11.9683 24.6048 12.1034 24.7063C14.141 26.2286 16.1673 27.0969 19.5671 27.1081C24.5315 27.1194 29.7437 24.8867 33.6613 22.7668C34.1791 22.4849 34.3705 22.53 34.4493 22.6879C35.0572 23.8268 36.2617 24.9544 38.0404 24.9544C40.9335 24.9544 45.2 22.4736 47.4065 21.2332C47.5753 21.143 47.823 21.1092 47.9806 21.3122C49.1063 22.7555 50.3221 23.59 52.7762 23.59C54.2284 23.59 55.7819 23.2291 56.7726 22.7893C56.9865 22.6991 57.2679 22.6653 57.448 22.9021C58.2135 23.9846 59.6094 24.5597 60.9491 24.5597C63.8872 24.5597 66.8817 22.7893 67.9399 22.0677C68.1313 21.9323 68.4915 21.8985 68.6603 22.1353C69.4033 23.1502 70.2927 24.4131 72.7355 24.4131C75.0996 24.4244 76.8895 22.4285 77.306 22.1128C77.4861 21.9775 77.7563 21.9211 77.9139 22.2594C78.488 23.511 79.7038 24.6386 82.2029 24.6499C83.4525 24.6499 85.31 24.0974 86.4695 23.5336C86.7059 23.4208 86.9648 23.4321 87.1787 23.5561C88.1356 24.1199 89.0024 24.5935 90.6122 24.5935C94.1245 24.6048 96.8375 22.0338 99.1565 19.756C100.417 18.5044 100.631 18.1661 103.052 15.4372C104.616 13.6781 106.755 11.1974 109.581 8.72785C112.147 6.48387 114.444 5.07434 115.761 5.07434C116.932 5.07434 117.157 5.96517 117.146 6.45005C117.146 6.6643 117.101 6.82217 116.876 6.96876C114.996 8.08511 111.157 10.8252 107.948 13.9826C104.74 17.1512 101.779 20.8611 101.768 23.2629C101.768 24.7063 102.579 25.1461 103.682 25.1461C106.294 25.1461 109.716 22.3834 112.429 19.508C114.523 17.2978 116.223 14.817 117.191 13.2384C117.326 13.0016 117.416 12.855 117.664 13.1481C118.373 14.0051 120.084 14.2194 121.412 14.2307C122.977 14.2307 123.99 13.9713 124.486 13.9037C124.767 13.8585 125.026 13.8022 125.285 14.2194C125.555 14.6817 125.87 15.1666 125.926 15.8206C125.949 16.0574 125.893 16.2153 125.51 16.2829C121.705 16.9144 117.36 18.0759 114.005 19.5756C112.26 20.3537 111.314 21.5377 111.314 22.7104C111.303 25.0784 114.061 28.1568 118.834 28.1681C121.48 28.1794 122.955 27.4352 124.474 26.6345C127.75 24.8867 130.171 21.6166 130.328 18.245C130.339 17.8954 130.429 17.6925 130.868 17.6812C131.33 17.6699 132.658 17.6135 133.109 17.6135C133.694 17.6135 134.628 17.6474 134.899 17.6474C135.079 17.6474 135.27 17.7038 135.101 17.918C134.448 18.7412 133.413 20.1733 133.401 21.7294C133.401 23.1615 134.302 24.8191 136.925 24.8303C139.874 24.8303 142.531 22.7442 143.679 21.8421C143.837 21.7181 144.265 21.5151 144.4 21.8647C144.715 22.6428 145.334 24.1425 147.18 24.1425C149.229 24.1538 150.681 22.7781 151.616 22.0789C151.807 21.9436 152.257 21.6392 152.471 22.0789C152.708 22.5413 153.597 24.5484 155.713 24.5484C158.291 24.5484 160.34 22.2255 160.577 22.0226C160.745 21.8872 161.218 21.5828 161.443 21.9775C162.367 23.5674 163.841 24.7289 166.217 24.7289C167.793 24.7289 168.423 24.2553 169.391 24.041C169.56 23.9959 169.785 23.9508 170.022 24.0185C170.258 24.0861 171.226 24.6048 172.87 24.6048C179.208 24.6161 182.72 18.1435 183.643 16.8242C183.823 16.5648 183.879 16.4521 184.104 16.5197C184.341 16.5987 185.016 16.8919 185.241 17.0836C185.478 17.2753 185.568 17.5346 185.5 17.7601C185.343 18.2788 184.33 20.2522 184.33 21.2445C184.33 21.8534 184.555 22.203 184.712 22.4059C184.881 22.6202 186.435 24.8755 187.842 24.8755C188.562 24.8755 189.452 24.5259 189.97 24.3004C192.615 23.1276 197.76 20.162 201.294 18.4367C201.733 18.2225 202.961 17.591 203.658 17.591C204.289 17.591 204.379 18.1661 204.379 18.3239C204.379 18.4931 204.154 19.1358 204.086 19.3501C204.019 19.5643 204.075 19.7448 204.255 19.7448C204.446 19.7448 204.548 19.6433 204.649 19.5305C205.662 18.4818 206 17.5459 206 16.4408C206 14.9975 204.886 14.0728 203.613 14.0615C201.992 14.0615 200.822 14.7494 199.595 15.3583C198.244 16.0461 190.634 20.5905 190.217 20.8273C189.801 21.0641 188.99 21.5264 188.461 21.5264C187.932 21.5264 187.437 21.2219 187.448 20.6469C187.448 20.2296 187.594 20.0041 187.673 19.7899C187.853 19.2486 188.968 17.6586 188.968 16.5085C188.968 15.6966 188.517 15.3019 188.225 15.0764C187.628 14.6141 186.986 14.4675 186.052 13.9713C184.172 12.9677 184.296 12.5731 183.406 12.5731C182.326 12.5731 181.133 13.7232 181.133 14.817C181.133 15.347 181.335 15.674 181.459 15.8544C181.56 16.0123 181.639 16.1815 181.639 16.3393C181.639 16.5085 181.56 16.8017 181.481 16.937C180.457 18.6848 177.147 22.1579 173.725 22.1579C173.421 22.1579 173.264 22.1804 173.264 21.9662C173.264 21.876 173.354 21.7858 173.478 21.6955C174.705 20.7709 177.474 18.0871 177.474 15.7191C177.474 15.3696 177.305 14.7606 177.035 14.2758C176.753 13.7909 175.999 12.3926 174.795 12.3926C173.759 12.3926 171.564 13.1594 169.943 14.6028C168.389 15.9898 167.173 17.8391 167.173 19.7673C167.173 20.6807 167.522 21.6279 167.702 21.8872C167.849 22.1015 167.871 22.3947 167.511 22.5187C167.286 22.5864 166.554 22.7104 166.16 22.7104C164.595 22.7104 163.639 21.6843 163.639 20.2071C163.65 18.7073 164.505 16.8693 165.282 15.8206C165.597 15.3921 165.316 15.0087 164.967 14.8847C164.618 14.7719 164.246 14.7043 163.875 14.7043C163.504 14.7043 162.828 14.7606 162.423 15.3808C161.905 16.1589 161.027 18.2112 160.734 18.7186C160.329 19.4177 158.618 21.6843 156.321 21.673C155.781 21.673 154.678 21.3798 154.678 20.1733C154.678 18.775 155.849 16.9595 156.682 16.0236C156.85 15.8432 157.008 15.6966 157.008 15.3357C157.008 14.8396 156.389 14.569 155.567 14.569C154.779 14.569 154.363 14.8509 154.025 15.2681C153.102 16.4183 152.426 17.5797 151.537 18.7299C150.636 19.8801 149.432 20.8273 148.261 20.8273C147.169 20.8273 146.269 20.1281 146.269 19.4516C146.269 19.102 146.392 18.8427 146.505 18.6622C146.73 18.2901 147.023 17.7827 147.372 17.1963C147.709 16.6325 148.036 16.1927 148.047 15.4598C148.047 14.5238 147.158 13.2722 144.321 13.2722C142.07 13.2722 139.593 14.3773 138.265 15.2117C138.017 15.3696 137.904 15.5162 137.364 15.4936ZM171.068 20.4664C170.956 20.5454 170.888 20.5905 170.742 20.5905C170.19 20.5905 170.01 19.305 170.01 18.9892C170.01 18.0759 170.506 16.9257 171.226 16.1364C172.082 15.1891 173.297 14.569 173.872 14.569C174.389 14.569 174.491 15.2004 174.491 15.4711C174.491 17.4444 172.239 19.5982 171.068 20.4664ZM125.791 18.6961C125.803 19.5643 123.304 25.7663 119.341 25.7437C116.504 25.7212 115.221 24.3455 115.221 23.1389C115.221 21.9436 116.369 21.2896 117.078 20.9175C118.879 19.9816 122.088 18.9892 125.274 18.4142C125.566 18.3578 125.791 18.3578 125.791 18.6961ZM133.807 4.57819C133.807 7.36342 128.955 10.4644 126.309 11.2537C126.05 11.3327 125.893 11.3552 125.656 11.2425C125.42 11.1297 123.81 10.3291 121.705 10.3178C119.893 10.3178 118.733 10.9605 118.553 11.0508C118.373 11.141 118.339 11.0395 118.418 10.8365C118.868 9.85548 119.273 8.37829 119.318 8.11893C119.363 7.85958 119.499 7.71299 119.712 7.58895C122.729 5.77347 128.527 3.13483 131.825 3.1461C133.491 3.15738 133.807 4.01438 133.807 4.57819ZM116.133 10.3404C115.221 12.246 113.093 15.7755 110.605 18.2901C110.189 18.7073 107.487 21.4475 106.226 21.4475C105.72 21.4475 105.573 20.9964 105.573 20.7483C105.573 20.0605 107.025 18.1097 107.464 17.591C109.446 15.3019 113.431 11.7386 115.761 10.1374C116.088 9.91186 116.2 10.2163 116.133 10.3404ZM88.5971 20.2184C88.3945 20.3424 88.1918 20.2973 88.0117 20.0943C87.7641 19.8011 87.629 19.1471 87.629 18.6284C87.629 16.3393 89.7679 14.0277 91.6704 14.0277C92.2107 14.0277 92.8862 14.3773 92.8862 15.1891C92.8749 17.1512 89.8692 19.4065 88.5971 20.2184ZM75.5724 12.122C74.0189 14.1856 73.3659 15.0651 71.531 16.9031C71.4184 17.0159 71.2946 17.1287 71.1707 17.1287C70.9681 17.1287 71.0131 16.8806 71.0131 16.7227C71.0131 16.4746 71.3171 14.1517 73.062 11.2988C74.7168 8.59254 76.4842 7.44236 77.0808 7.44236C77.4073 7.44236 77.5649 7.75809 77.5649 7.98362C77.5649 9.15635 76.0902 11.4454 75.5724 12.122ZM60.7464 20.0943C60.7464 18.8765 62.2662 16.7565 65.7672 16.7565C66.4201 16.7565 67.0168 16.858 67.2982 16.9257C67.6022 17.0046 67.7035 17.2076 67.7035 17.4106C67.7035 17.7263 67.6697 18.1097 67.6697 18.4818C67.6697 18.8539 67.7372 19.2712 67.7372 19.6884C67.7372 20.0605 67.3545 20.3988 67.1293 20.5454C66.4764 20.9964 64.7428 22.0902 62.9754 22.0902C61.8046 22.0902 60.7464 21.1994 60.7464 20.0943ZM56.3223 11.6935C54.3185 13.836 52.4273 15.4147 51.1327 16.3393C51.0426 16.407 50.9525 16.531 50.8175 16.531C50.7161 16.531 50.6261 16.3957 50.6711 16.1927C51.0539 14.0953 52.2584 12.2911 53.8232 10.5884C54.6337 9.69761 56.9752 7.66788 58.0559 7.67916C58.54 7.67916 58.6188 7.96107 58.6188 8.13021C58.6301 8.7504 57.8308 10.081 56.3223 11.6935ZM46.8211 19.3163C45.2563 20.1733 42.6221 21.8534 40.4157 21.8534C39.2449 21.8534 38.1192 21.1543 38.1192 19.9139C38.1192 18.5495 39.6276 16.8242 42.7234 16.8355C43.579 16.8355 45.3802 17.1963 46.6973 17.8842C47.0688 18.0759 47.0125 18.1097 47.0688 18.5833C47.1025 18.8201 47.1476 19.1358 46.8211 19.3163ZM44.9524 3.92417C44.9524 5.55922 38.1192 9.24656 34.4605 11.3214C34.3029 11.4116 34.1341 11.4342 33.8977 11.4342C32.119 11.4342 29.2934 10.0923 29.3047 8.15276C29.3047 7.39725 29.755 6.17942 30.7794 5.24349C32.6931 3.50694 36.2054 2.30038 40.3594 2.31166C42.048 2.30038 44.9524 2.61612 44.9524 3.92417ZM30.9032 12.9001C31.1621 12.9564 31.1171 13.1143 30.982 13.1932C28.8093 14.3773 21.2444 18.2337 17.3494 19.8688C17.1467 19.9477 17.0454 19.8462 17.0004 19.6771C16.9553 19.5305 16.9441 19.3388 16.9441 18.9667C16.9441 17.8954 17.6983 16.1251 19.3982 14.9072C21.5371 13.3624 24.768 12.5843 27.5598 12.5843C28.9782 12.5956 30.2728 12.776 30.9032 12.9001ZM142.61 19.5756C141.372 20.8273 139.672 21.7519 138.051 21.7519C137.814 21.7519 136.655 21.6843 136.666 20.7371C136.666 19.0456 138.67 17.1963 141.146 16.0687C141.923 15.7191 142.599 15.55 143.387 15.55C144.58 15.55 144.636 16.204 144.636 16.3844C144.636 16.9031 144.479 17.6925 142.61 19.5756Z" fill="#626669"/>
<path d="M190.869 13.2384H190.52V13.6105H190.869C190.993 13.6105 191.083 13.5541 191.083 13.4301C191.083 13.2948 190.993 13.2384 190.869 13.2384ZM191.027 13.8022L191.297 14.3322H191.038L190.791 13.8247H190.532V14.3322H190.306V13.0354H190.881C191.106 13.0354 191.308 13.1594 191.308 13.4301C191.297 13.6218 191.196 13.7458 191.027 13.8022ZM190.757 12.6971C190.194 12.6971 189.755 13.1256 189.755 13.7007C189.755 14.2645 190.194 14.693 190.757 14.693C191.331 14.693 191.759 14.2645 191.759 13.7007C191.759 13.1256 191.331 12.6971 190.757 12.6971ZM190.757 14.8847C190.081 14.8847 189.563 14.366 189.563 13.6894C189.563 13.0128 190.081 12.4941 190.757 12.4941C191.432 12.4941 191.95 13.0128 191.95 13.6894C191.95 14.3773 191.432 14.8847 190.757 14.8847Z" fill="#626669"/>
</svg>
