<svg width="194" height="75" viewBox="0 0 194 75" fill="none" xmlns="http://www.w3.org/2000/svg">
<path d="M61.7174 5.18456L59.9306 3.41162L35.749 27.4006H38.2182V43.0107H44.2871V41.3773H39.781V25.3588L59.8889 5.41199L60.6495 6.15632L61.7174 5.18456Z" fill="#626669"/>
<path d="M66.9521 0.703125L92.8163 28.3051H88.6593V43.0107H45.1095V27.659H40.9473L66.9521 0.703125Z" fill="#626669"/>
<path d="M86.4512 20.0503H151.578V43.0106H89.5715V29.2096H95.0309L86.4512 20.0503Z" fill="#626669"/>
<path d="M151.578 12.5918C150.145 12.5918 148.979 13.7445 148.979 15.1711C148.979 16.5977 150.14 17.7504 151.578 17.7504C153.011 17.7504 154.177 16.5977 154.177 15.1711C154.177 13.7445 153.016 12.5918 151.578 12.5918ZM151.578 17.5126C150.27 17.5126 149.218 16.4633 149.218 15.1659C149.218 13.8685 150.276 12.8192 151.578 12.8192C152.885 12.8192 153.943 13.8685 153.943 15.1659C153.943 16.4633 152.885 17.5126 151.578 17.5126Z" fill="#626669"/>
<path d="M150.588 16.6801V13.6562H151.697C151.927 13.6562 152.099 13.6821 152.208 13.739C152.317 13.7958 152.411 13.8889 152.479 14.0232C152.552 14.1525 152.583 14.3075 152.583 14.4781C152.583 14.7055 152.526 14.8916 152.406 15.0364C152.286 15.1759 152.109 15.269 151.88 15.3051C151.974 15.362 152.047 15.4189 152.093 15.4705C152.192 15.5894 152.281 15.7135 152.354 15.8582L152.791 16.6801H152.375L152.041 16.0495C151.911 15.8014 151.812 15.6359 151.75 15.5532C151.687 15.4654 151.619 15.4085 151.557 15.3827C151.494 15.3517 151.411 15.3413 151.296 15.3413H150.916V16.6852H150.588V16.6801ZM150.916 14.9898H151.63C151.786 14.9898 151.906 14.9692 151.984 14.933C152.062 14.8968 152.13 14.8348 152.177 14.7572C152.224 14.6745 152.25 14.5867 152.25 14.4781C152.25 14.323 152.203 14.2042 152.114 14.1163C152.026 14.0284 151.89 13.9871 151.713 13.9871H150.921V14.9898H150.916Z" fill="#626669"/>
<path d="M0.143555 69.3878V68.5711C0.971834 68.566 1.4563 68.5039 1.59174 68.3851C1.69593 68.3075 1.75844 68.0749 1.77928 67.6924C1.85742 66.426 1.89909 64.9684 1.89909 63.3144C1.89909 62.0893 1.88346 60.7764 1.847 59.3705C1.81574 57.9645 1.75844 57.1582 1.6803 56.9411C1.63863 56.8429 1.58653 56.7757 1.5136 56.7395C1.40421 56.6671 0.945787 56.6103 0.143555 56.5638V55.7471C1.28439 55.7781 2.26895 55.7936 3.09202 55.7936C4.29537 55.7936 5.55602 55.7832 6.87398 55.7677C7.74393 55.7522 8.47323 55.7471 9.06709 55.7471C9.49425 55.7471 9.89537 55.7574 10.2809 55.7832L10.3798 55.9848C10.2444 56.7964 10.1558 57.7474 10.1246 58.8484H9.30151L9.22337 57.8095C9.20253 57.4787 9.16086 57.2771 9.09314 57.1995C9.02542 57.1272 8.78058 57.0496 8.36904 56.9721C7.9523 56.8946 7.36365 56.8532 6.59267 56.8532C6.02486 56.8532 5.42579 56.8842 4.79025 56.9411C4.71732 58.0421 4.68086 58.8174 4.68086 59.2723L4.70169 61.3657L4.69128 61.8154C5.08197 61.836 5.55602 61.8464 6.10821 61.8464C7.10839 61.8464 7.70746 61.8205 7.91063 61.774C8.01481 61.7482 8.08774 61.6965 8.13463 61.619C8.20756 61.4794 8.26486 61.0762 8.31174 60.3939H9.15565C9.13481 60.9677 9.12439 61.5363 9.12439 62.0997C9.12439 62.6321 9.13481 63.4798 9.15565 64.6428H8.31174C8.25965 63.8002 8.19714 63.3092 8.12421 63.1645C8.08774 63.0869 8.00439 63.0301 7.87937 62.9991C7.56681 62.9164 6.93128 62.875 5.96756 62.875L4.68607 62.906L4.72253 66.6328C4.74858 67.5322 4.79546 68.0543 4.85797 68.1938C4.90486 68.2869 4.97258 68.3541 5.06114 68.3954C5.19137 68.4574 5.73835 68.5195 6.69686 68.5711V69.3878C5.64979 69.3413 4.67044 69.3206 3.75881 69.3206C2.95658 69.3206 1.74802 69.3413 0.143555 69.3878Z" fill="#626669"/>
<path d="M10.958 61.5048V60.7554C11.9999 60.6571 12.9792 60.4711 13.8856 60.2023L14.8546 59.8611C14.9692 59.8611 15.0317 59.9335 15.0317 60.0834L14.99 60.6571C14.8806 62.151 14.8233 63.5879 14.8233 64.9784C14.8233 65.8726 14.8702 66.467 14.9588 66.7668C15.0525 67.0614 15.214 67.2889 15.4536 67.4491C15.6933 67.6145 16.011 67.692 16.4069 67.692C16.8706 67.692 17.2769 67.568 17.6259 67.3095C17.9749 67.0563 18.1885 66.7771 18.2719 66.4722C18.3552 66.1672 18.3969 65.2988 18.3969 63.8619C18.3969 62.7144 18.3761 62.0424 18.3396 61.846C18.3135 61.7426 18.2667 61.6702 18.2041 61.6289C18.1052 61.5772 17.6624 61.5307 16.8706 61.4945V60.745C18.2041 60.5951 19.1887 60.4245 19.8138 60.223L20.8505 59.856C20.9599 59.856 21.0172 59.9231 21.0172 60.0627L20.9963 60.3263C20.8921 61.4583 20.8401 63.5052 20.8401 66.4722C20.8401 67.3819 20.8661 67.9556 20.9182 68.1882C20.9494 68.2968 21.0015 68.3795 21.0745 68.4209C21.1787 68.4777 21.585 68.5346 22.2987 68.5863V69.3823C21.5485 69.3409 20.8088 69.3254 20.0743 69.3254C19.4752 69.3254 18.923 69.3461 18.4073 69.3823L18.3188 69.2065C18.35 68.8809 18.3761 68.3743 18.3969 67.6817C17.7874 68.1676 17.204 68.7051 16.6309 69.2841C16.1673 69.4857 15.7089 69.5839 15.2609 69.5839C14.6618 69.5839 14.1409 69.465 13.6929 69.2272C13.2501 68.9894 12.9219 68.6741 12.7083 68.2865C12.4948 67.8988 12.3906 67.3561 12.3906 66.6583L12.4114 65.5986C12.4322 64.9422 12.4427 64.4098 12.4427 64.0014C12.4427 62.8488 12.4218 62.1561 12.3749 61.9287C12.3437 61.7788 12.276 61.6754 12.1666 61.6134C12.0676 61.5565 11.6613 61.5203 10.958 61.5048Z" fill="#626669"/>
<path d="M23.0332 69.3878V68.5918C23.6896 68.5608 24.0699 68.5194 24.1688 68.4729C24.247 68.4367 24.3095 68.3747 24.3564 68.2868C24.4293 68.1318 24.471 67.7855 24.4814 67.2531C24.5074 66.3071 24.5231 65.4439 24.5231 64.6634C24.5231 63.1645 24.5022 62.2754 24.4658 61.9963C24.4449 61.836 24.3876 61.7223 24.2886 61.65C24.1897 61.5828 23.7729 61.5311 23.0332 61.5104V60.7609C24.3459 60.6369 25.2888 60.4818 25.8566 60.3009L26.862 59.9287C26.9506 59.9287 26.9975 59.9907 26.9975 60.1148L26.9923 60.2492C26.9714 60.6575 26.961 61.2416 26.961 62.0066C27.2944 61.6913 27.6643 61.2881 28.0706 60.8023C28.3727 60.4404 28.6332 60.2027 28.852 60.0941C29.076 59.9856 29.3729 59.9287 29.7428 59.9287C29.9512 59.9287 30.1647 59.9649 30.3783 60.0373C30.321 60.6834 30.2793 61.5673 30.2585 62.6837L29.8157 62.8388C29.6646 62.5855 29.4979 62.4098 29.3208 62.3064C29.1385 62.203 28.9093 62.1565 28.6176 62.1565C28.2269 62.1565 27.8883 62.2599 27.607 62.4563C27.3257 62.6579 27.1433 62.8905 27.0652 63.1489C27.0131 63.3454 26.9871 64.007 26.9871 65.139C26.9871 66.7827 27.0131 67.7441 27.0548 68.0181C27.0808 68.199 27.1433 68.323 27.2423 68.3902C27.3934 68.4884 27.8831 68.5556 28.7218 68.5918V69.3878L27.6226 69.3568C26.9246 69.3361 26.3203 69.3258 25.8098 69.3258C25.3253 69.3258 24.7627 69.3361 24.1219 69.3568L23.0332 69.3878Z" fill="#626669"/>
<path d="M31.1966 69.3876V68.5916C31.9103 68.5554 32.3114 68.4986 32.4 68.421C32.4937 68.3487 32.5458 68.1781 32.5667 67.9197C32.6083 67.2632 32.624 66.1105 32.624 64.4565C32.624 63.6398 32.6083 62.9368 32.5823 62.3424C32.5667 61.9806 32.5458 61.7635 32.5042 61.7014C32.4729 61.6498 32.4208 61.6136 32.3479 61.5826C32.2749 61.5567 31.8895 61.536 31.1914 61.5154V60.7659C31.5456 60.7659 32.0978 60.6935 32.848 60.5384C33.5981 60.3885 34.2284 60.2128 34.7389 60.0164L35.0046 59.9285C35.0932 59.9285 35.1401 60.0009 35.1401 60.1508L35.1296 60.2386C35.1088 60.4196 35.1036 60.8848 35.1036 61.6394L36.6195 60.373C36.807 60.2128 37.005 60.0991 37.2082 60.0422C37.4947 59.9647 37.8437 59.9233 38.2552 59.9233C38.9481 59.9233 39.5107 60.0422 39.9535 60.28C40.3962 60.5178 40.714 60.8434 40.9224 61.2621C41.1255 61.6808 41.2297 62.3321 41.2297 63.2159C41.2297 63.6088 41.2193 64.0585 41.1985 64.5702C41.1672 65.6247 41.1464 66.5292 41.1464 67.2994C41.1464 67.7336 41.1829 68.0385 41.2558 68.2039C41.3079 68.3228 41.3808 68.4004 41.4746 68.4365C41.5683 68.4727 41.9278 68.5244 42.5477 68.5813V69.3773L41.3443 69.3359L40.5682 69.3153L38.5522 69.3721L38.4428 69.2481C38.6147 68.0127 38.698 66.7515 38.698 65.4541C38.698 63.8052 38.599 62.7921 38.3959 62.4096C38.1354 61.9134 37.6562 61.6704 36.9633 61.6704C36.5205 61.6704 36.135 61.7841 35.8068 62.0064C35.4787 62.2287 35.2703 62.4716 35.1713 62.7249C35.1244 62.8283 35.1036 63.1591 35.1036 63.7122C35.1036 66.064 35.114 67.4079 35.1296 67.7542C35.1505 68.0954 35.2078 68.3022 35.2963 68.3849C35.4162 68.4831 35.8537 68.5503 36.6091 68.5864V69.3825C35.4735 69.3411 34.5149 69.3256 33.7283 69.3256C33.2699 69.3308 32.4208 69.3514 31.1966 69.3876Z" fill="#626669"/>
<path d="M43.5059 69.3879V68.5919C44.2456 68.566 44.6675 68.5195 44.7873 68.4575C44.902 68.3955 44.9749 68.2146 45.0061 67.9148C45.0582 67.5064 45.0843 66.6019 45.0843 65.2063C45.0843 64.6015 45.0739 64.0433 45.0582 63.5315L45.027 62.3944C45.027 62.017 44.9853 61.7844 44.902 61.6966C44.8186 61.6087 44.5998 61.557 44.2404 61.5467L43.5059 61.5157V60.7662C45.0791 60.6473 46.3762 60.3681 47.3972 59.934L47.642 60.1252C47.5431 61.3658 47.4962 63.1697 47.4962 65.5422C47.4962 66.912 47.517 67.7442 47.5639 68.0285C47.5952 68.2301 47.6577 68.3593 47.7462 68.4162C47.8348 68.473 48.262 68.535 49.0225 68.5919V69.3879C47.8452 69.3466 46.9336 69.3311 46.2928 69.3311C45.9438 69.3311 45.0166 69.3517 43.5059 69.3879ZM46.2303 55.2871C46.6471 55.2871 47.0065 55.437 47.3034 55.7316C47.6004 56.0263 47.7514 56.3829 47.7514 56.8068C47.7514 57.2203 47.6004 57.5769 47.3034 57.8716C47.0065 58.1662 46.6471 58.3161 46.2251 58.3161C45.8084 58.3161 45.4489 58.1662 45.152 57.8716C44.8551 57.5769 44.704 57.2203 44.704 56.8068C44.704 56.3829 44.8551 56.0263 45.152 55.7316C45.4437 55.4318 45.8032 55.2871 46.2303 55.2871Z" fill="#626669"/>
<path d="M49.7939 61.5721L51.0963 60.7295C51.0806 59.582 51.0494 58.5793 50.9973 57.7161C51.8881 57.4421 52.732 57.1113 53.5238 56.7236L53.8155 56.9459C53.6697 57.8866 53.5759 59.1479 53.5238 60.7295C53.8259 60.7812 54.1229 60.8071 54.4146 60.8071C55.0814 60.8071 55.6752 60.7606 56.2066 60.6727L56.2952 60.7295L56.2066 61.081C56.1076 61.4428 56.0347 61.7788 55.9878 62.0838C55.222 62.0321 54.6646 62.0063 54.3052 62.0063C54.0395 62.0063 53.7738 62.0166 53.5238 62.0476C53.5082 62.7041 53.503 63.283 53.503 63.7792C53.503 65.9605 53.5707 67.201 53.7009 67.4956C53.8312 67.7954 54.1437 67.9453 54.6334 67.9453C54.774 67.9453 54.9303 67.9298 55.097 67.8988C55.2637 67.8678 55.4408 67.8213 55.6336 67.7644L55.8003 68.1314C55.4096 68.5656 55.0241 69.0153 54.6542 69.4805C54.4146 69.5219 54.1906 69.5477 53.9874 69.5684C53.7843 69.5891 53.5967 69.5994 53.43 69.5994C52.8831 69.5994 52.4194 69.5064 52.0548 69.3151C51.6849 69.129 51.4192 68.8809 51.2526 68.5863C51.0859 68.2865 51.0025 67.842 51.0025 67.2527C51.0025 66.9426 51.0181 66.1259 51.0494 64.8026C51.0806 63.6396 51.1015 62.7247 51.1015 62.0476L50.6014 62.0269C50.393 62.0269 50.1221 62.0476 49.7992 62.0838V61.5721H49.7939Z" fill="#626669"/>
<path d="M56.6328 61.5048V60.7554C57.6747 60.6571 58.654 60.4711 59.5604 60.2023L60.5294 59.8611C60.6492 59.8611 60.7065 59.9335 60.7065 60.0834L60.6648 60.6571C60.5554 62.151 60.4981 63.5879 60.4981 64.9784C60.4981 65.8726 60.545 66.467 60.6336 66.7668C60.7221 67.0614 60.8888 67.2889 61.1284 67.4491C61.3681 67.6145 61.6858 67.692 62.0817 67.692C62.5454 67.692 62.9517 67.568 63.3007 67.3095C63.6497 67.0563 63.8633 66.7771 63.9467 66.4722C64.03 66.1672 64.0717 65.2988 64.0717 63.8619C64.0717 62.7144 64.0509 62.0424 64.0144 61.846C63.9883 61.7426 63.9415 61.6702 63.879 61.6289C63.78 61.5772 63.3372 61.5307 62.5454 61.4945V60.745C63.8842 60.5951 64.8635 60.4245 65.4886 60.223L66.5253 59.856C66.6347 59.856 66.692 59.9231 66.692 60.0627L66.6711 60.3263C66.567 61.4532 66.5149 63.5052 66.5149 66.4722C66.5149 67.3819 66.5409 67.9556 66.593 68.1882C66.6243 68.2968 66.6763 68.3795 66.7493 68.4209C66.8535 68.4777 67.2598 68.5346 67.9735 68.5863V69.3823C67.2285 69.3409 66.4836 69.3254 65.7491 69.3254C65.15 69.3254 64.5978 69.3461 64.0821 69.3823L63.9936 69.2065C64.0248 68.8809 64.0509 68.3743 64.0717 67.6817C63.4622 68.1676 62.8788 68.7051 62.311 69.2841C61.8473 69.4857 61.3889 69.5839 60.9409 69.5839C60.3418 69.5839 59.8157 69.465 59.3729 69.2272C58.9301 68.9894 58.6019 68.6741 58.3884 68.2865C58.1748 67.8988 58.0706 67.3561 58.0706 66.6583L58.0914 65.5986C58.1123 64.9422 58.1227 64.4098 58.1227 64.0014C58.1227 62.8488 58.1018 62.1561 58.055 61.9287C58.0237 61.7788 57.956 61.6754 57.8518 61.6134C57.7424 61.5565 57.3361 61.5203 56.6328 61.5048Z" fill="#626669"/>
<path d="M68.7083 69.3878V68.5918C69.3647 68.5608 69.745 68.5194 69.844 68.4729C69.9221 68.4367 69.9846 68.3747 70.0315 68.2868C70.1044 68.1318 70.1461 67.7855 70.1565 67.2531C70.1826 66.3071 70.193 65.4439 70.193 64.6634C70.193 63.1645 70.1721 62.2754 70.1357 61.9963C70.1148 61.836 70.0575 61.7223 69.9586 61.65C69.8596 61.5828 69.4428 61.5311 68.7031 61.5104V60.7609C70.0211 60.6369 70.9588 60.4818 71.5266 60.3009L72.5372 59.9287C72.6257 59.9287 72.6726 59.9907 72.6726 60.1148L72.6674 60.2492C72.6466 60.6575 72.6362 61.2416 72.6362 62.0066C72.9695 61.6913 73.3394 61.2881 73.7457 60.8023C74.0479 60.4404 74.3083 60.2027 74.5271 60.0941C74.7511 59.9856 75.0481 59.9287 75.4179 59.9287C75.6263 59.9287 75.8399 59.9649 76.0535 60.0373C75.9961 60.6834 75.9545 61.5673 75.9336 62.6837L75.4909 62.8388C75.3398 62.5855 75.1783 62.4098 74.996 62.3064C74.8136 62.203 74.5792 62.1565 74.2927 62.1565C73.902 62.1565 73.5634 62.2599 73.2821 62.4563C73.0008 62.6579 72.8237 62.8905 72.7455 63.1489C72.6935 63.3454 72.6674 64.007 72.6674 65.139C72.6674 66.7827 72.6882 67.7441 72.7351 68.0181C72.7612 68.199 72.8237 68.323 72.9227 68.3902C73.0737 68.4884 73.5634 68.5556 74.4021 68.5918V69.3878L73.3029 69.3568C72.6049 69.3361 72.0006 69.3258 71.4901 69.3258C71.0056 69.3258 70.443 69.3361 69.8023 69.3568L68.7083 69.3878Z" fill="#626669"/>
<path d="M85.0601 67.5112L85.3414 67.7955L84.9038 68.7259C84.435 69.0154 83.9297 69.2325 83.3879 69.3772C82.8513 69.5219 82.2783 69.5943 81.6688 69.5943C80.2467 69.5943 79.1215 69.186 78.3036 68.3641C77.4858 67.5422 77.0742 66.3896 77.0742 64.9061C77.0742 63.9654 77.194 63.19 77.4337 62.5697C77.6316 62.0684 77.9546 61.6548 78.4026 61.324C78.8506 60.9932 79.3663 60.6779 79.9498 60.3781C80.5332 60.0783 81.1739 59.9336 81.8772 59.9336C82.9503 59.9336 83.8307 60.2282 84.5339 60.8226C85.232 61.4171 85.581 62.3733 85.581 63.6914C85.581 63.8516 85.5654 64.0997 85.5393 64.4357L83.9349 64.7252C83.44 64.7614 82.7211 64.7717 81.7834 64.7717H79.6632C79.7622 65.8934 80.0956 66.7307 80.6738 67.2993C81.2469 67.8627 81.9814 68.147 82.867 68.147C83.2368 68.147 83.6067 68.0953 83.9713 67.9868C84.336 67.8782 84.7006 67.718 85.0601 67.5112ZM79.6007 63.7431C80.1894 63.7948 80.778 63.8206 81.3615 63.8206C81.8772 63.8206 82.419 63.7948 82.9868 63.7431L82.9972 63.2831C82.9972 62.487 82.8513 61.8978 82.5544 61.536C82.2627 61.169 81.8616 60.9829 81.3615 60.9829C81.0072 60.9829 80.7051 61.0708 80.4498 61.2413C80.1946 61.4119 80.0071 61.6548 79.882 61.9701C79.7622 62.2803 79.6685 62.8695 79.6007 63.7431Z" fill="#626669"/>
<path d="M92.3066 66.607C92.3066 65.3096 92.5984 64.0535 93.1766 62.844C93.5152 62.1307 94.1976 61.4587 95.2291 60.8229C96.2553 60.1872 97.2607 59.8667 98.24 59.8667C98.985 59.8667 99.6049 59.9856 100.1 60.2234C100.595 60.4611 100.964 60.7919 101.199 61.2261C101.433 61.6551 101.553 62.2289 101.553 62.9319C101.553 63.8209 101.392 64.71 101.058 65.6042C100.725 66.4932 100.35 67.16 99.9174 67.5942C99.3548 68.1525 98.5838 68.6538 97.5941 69.1139C96.9012 69.4292 96.1719 69.5894 95.4114 69.5894C94.3539 69.5894 93.5725 69.3413 93.0672 68.8451C92.5619 68.3437 92.3066 67.5994 92.3066 66.607ZM94.6508 66.395C94.6508 67.2065 94.8019 67.7803 95.0988 68.1266C95.401 68.4729 95.8542 68.6435 96.4637 68.6435C96.8908 68.6435 97.2659 68.4988 97.5941 68.2041C98.0265 67.8165 98.4015 67.098 98.7297 66.0591C99.0527 65.0149 99.2142 63.9605 99.2142 62.8905C99.2142 62.1514 99.0579 61.6035 98.7401 61.2468C98.4276 60.8901 98.0056 60.7144 97.4743 60.7144C97.0106 60.7144 96.5887 60.8746 96.2188 61.2003C95.8438 61.5208 95.5208 62.141 95.2343 63.0507C94.8436 64.3275 94.6508 65.444 94.6508 66.395Z" fill="#626669"/>
<path d="M103.022 61.2723L103.121 60.7658C103.36 60.6831 103.694 60.5797 104.116 60.466C104.548 60.3419 104.892 60.2231 105.163 60.1042L105.288 59.5769C105.444 58.8946 105.647 58.3778 105.892 58.0263C106.137 57.6748 106.7 57.1424 107.585 56.4342C108.471 55.7261 109.164 55.2454 109.658 54.9921C109.935 54.8577 110.273 54.7905 110.685 54.7905C111.029 54.7905 111.32 54.8422 111.544 54.9456C111.258 55.8605 111.06 56.6927 110.956 57.4422L110.664 57.5094C110.159 56.7082 109.664 56.305 109.174 56.305C108.914 56.305 108.684 56.4084 108.481 56.6152C108.283 56.8219 108.106 57.2458 107.955 57.8815C107.663 59.1014 107.481 59.8922 107.418 60.2644H107.674C107.919 60.2644 108.403 60.2437 109.111 60.1972C109.466 60.1714 109.737 60.1404 109.924 60.1093L110.023 60.2644C109.862 60.6934 109.752 61.0294 109.7 61.2775L108.502 61.2568L107.189 61.2775L106.502 64.1824C105.71 67.5009 105.033 69.77 104.47 70.9951C103.902 72.2201 103.095 73.2487 102.037 74.0757C101.355 74.603 100.771 74.8614 100.271 74.8614C100.042 74.8614 99.792 74.8046 99.5264 74.6857C99.9066 73.6984 100.131 72.9851 100.204 72.5354L100.516 72.4785C100.756 73.042 101.094 73.3263 101.527 73.3263C101.683 73.3263 101.834 73.2797 101.985 73.1919C102.131 73.104 102.261 72.9593 102.371 72.7525C102.485 72.5509 102.642 72.034 102.845 71.2018L103.376 68.7724L104.897 61.2723L103.959 61.2517L103.022 61.2723Z" fill="#626669"/>
<path d="M114.826 68.5033C115.441 68.4723 115.821 68.4103 115.962 68.3172C116.061 68.2552 116.212 68.0071 116.421 67.5781C116.822 66.7356 117.327 65.5674 117.947 64.0684L121.416 55.6431H122.859L127.287 66.0791C127.86 67.3972 128.214 68.1208 128.35 68.2449C128.485 68.3689 128.897 68.4568 129.59 68.4982V69.382C128.527 69.3355 127.522 69.3148 126.573 69.3148C125.443 69.3148 124.37 69.3355 123.349 69.382V68.4982C124.125 68.4671 124.573 68.4258 124.693 68.3689C124.813 68.3121 124.875 68.219 124.875 68.0795C124.875 67.9606 124.74 67.5471 124.464 66.8441L123.818 65.2211C123.005 65.2004 122.104 65.1901 121.099 65.1901C120.229 65.1901 119.437 65.2004 118.728 65.2211L118.296 66.3117C118.176 66.6115 118.035 67.056 117.864 67.6453C117.827 67.7797 117.806 67.8986 117.806 68.0019C117.806 68.1467 117.869 68.25 117.999 68.3121C118.124 68.3741 118.588 68.4361 119.374 68.4982V69.382C118.733 69.3355 117.936 69.3148 116.983 69.3148C116.077 69.3148 115.358 69.3355 114.821 69.382V68.5033H114.826ZM121.255 59.0752L119.187 64.0736C119.786 64.1046 120.447 64.1201 121.177 64.1201C121.932 64.1201 122.661 64.1046 123.354 64.0736L121.255 59.0752Z" fill="#626669"/>
<path d="M130.418 69.3875V68.5915C131.095 68.5657 131.475 68.5243 131.569 68.4623C131.663 68.4003 131.725 68.2917 131.746 68.1263C131.798 67.811 131.824 67.0564 131.824 65.8675C131.824 63.3709 131.793 62.0167 131.725 61.8099C131.673 61.6342 131.444 61.5411 131.043 61.536L130.407 61.5153V60.7658C131.209 60.6831 131.892 60.5745 132.46 60.4453C133.028 60.3161 133.538 60.161 133.991 59.9801C134.085 59.9491 134.153 59.9336 134.194 59.9336C134.288 59.9336 134.33 60.0111 134.33 60.1765C134.33 60.3006 134.325 60.466 134.304 60.6728C134.293 60.7658 134.288 60.926 134.288 61.1586V61.5101L135.893 60.3161C136.231 60.0628 136.747 59.9388 137.44 59.9388C138.138 59.9388 138.69 60.0732 139.102 60.3419C139.513 60.6107 139.826 61.0397 140.039 61.629L141.706 60.3161C142.024 60.0628 142.472 59.9388 143.05 59.9388C144.076 59.9388 144.832 60.1869 145.316 60.6883C145.801 61.1896 146.04 62.0012 146.04 63.1228L146.019 63.9343C145.993 64.8286 145.983 65.6297 145.983 66.3327C145.983 67.2631 146.009 67.8627 146.072 68.1315C146.113 68.2814 146.176 68.3848 146.275 68.4468C146.368 68.5088 146.733 68.5605 147.374 68.5967V69.3927C146.561 69.3514 145.853 69.3359 145.248 69.3359C144.665 69.3359 144.056 69.3565 143.425 69.3927L143.305 69.2066C143.477 67.811 143.561 66.4464 143.561 65.118C143.561 63.5415 143.441 62.5594 143.191 62.1666C142.946 61.7737 142.508 61.5773 141.889 61.5773C141.482 61.5773 141.128 61.6807 140.821 61.8771C140.513 62.0787 140.31 62.3113 140.211 62.5697C140.149 62.7507 140.112 63.3192 140.112 64.2755C140.112 65.9916 140.133 67.1752 140.18 67.8317C140.201 68.1212 140.258 68.3124 140.362 68.3899C140.466 68.4726 140.878 68.5398 141.612 68.5915V69.3875C140.758 69.3462 139.919 69.3307 139.096 69.3307C138.07 69.3307 137.153 69.3514 136.335 69.3875V68.5915C136.981 68.5915 137.362 68.4985 137.471 68.3176C137.58 68.1315 137.638 67.3148 137.638 65.8727C137.638 64.229 137.606 63.2055 137.539 62.8023C137.476 62.3992 137.315 62.0942 137.065 61.8874C136.815 61.6807 136.466 61.5721 136.023 61.5721C135.695 61.5721 135.398 61.6445 135.132 61.7944C134.866 61.9443 134.642 62.1562 134.455 62.4302C134.351 62.5801 134.299 62.8127 134.299 63.1228L134.309 63.495C134.33 63.6759 134.34 64.1876 134.34 65.025L134.33 66.1725C134.33 67.2786 134.351 67.9299 134.387 68.1315C134.408 68.2607 134.46 68.3538 134.549 68.4158C134.637 68.4726 134.991 68.5347 135.622 68.5915V69.3875C134.84 69.3462 133.981 69.3307 133.054 69.3307C132.736 69.3307 131.855 69.3514 130.418 69.3875Z" fill="#626669"/>
<path d="M156.402 67.5112L156.683 67.7955L156.246 68.7259C155.777 69.0154 155.271 69.2325 154.73 69.3772C154.193 69.5219 153.62 69.5943 153.011 69.5943C151.588 69.5943 150.463 69.186 149.645 68.3641C148.828 67.5422 148.416 66.3896 148.416 64.9061C148.416 63.9654 148.536 63.19 148.781 62.5697C148.973 62.0684 149.296 61.6548 149.744 61.324C150.192 60.9932 150.708 60.6779 151.292 60.3781C151.875 60.0783 152.516 59.9336 153.219 59.9336C154.287 59.9336 155.172 60.2282 155.871 60.8226C156.569 61.4171 156.918 62.3733 156.918 63.6914C156.918 63.8516 156.907 64.0997 156.881 64.4357L155.277 64.7252C154.782 64.7614 154.063 64.7717 153.125 64.7717H151.005C151.104 65.8934 151.443 66.7307 152.016 67.2993C152.589 67.8627 153.323 68.147 154.209 68.147C154.579 68.147 154.948 68.0953 155.318 67.9868C155.678 67.8782 156.042 67.718 156.402 67.5112ZM150.943 63.7431C151.531 63.7948 152.12 63.8206 152.703 63.8206C153.219 63.8206 153.761 63.7948 154.329 63.7431L154.339 63.2831C154.339 62.487 154.193 61.8978 153.901 61.536C153.604 61.169 153.209 60.9829 152.703 60.9829C152.349 60.9829 152.047 61.0708 151.792 61.2413C151.536 61.4119 151.344 61.6548 151.224 61.9701C151.104 62.2803 151.005 62.8695 150.943 63.7431Z" fill="#626669"/>
<path d="M157.887 69.3878V68.5918C158.543 68.5608 158.923 68.5194 159.022 68.4729C159.1 68.4367 159.163 68.3747 159.21 68.2868C159.283 68.1318 159.324 67.7855 159.335 67.2531C159.361 66.3071 159.377 65.4439 159.377 64.6634C159.377 63.1645 159.356 62.2754 159.319 61.9963C159.298 61.836 159.241 61.7172 159.142 61.65C159.043 61.5828 158.626 61.5311 157.887 61.5104V60.7609C159.205 60.6369 160.142 60.4818 160.71 60.3009L161.716 59.9287C161.809 59.9287 161.851 59.9907 161.851 60.1148L161.841 60.2492C161.82 60.6575 161.809 61.2416 161.809 62.0066C162.143 61.6913 162.507 61.2881 162.914 60.8023C163.216 60.4404 163.476 60.2027 163.7 60.0941C163.924 59.9856 164.221 59.9287 164.591 59.9287C164.799 59.9287 165.013 59.9649 165.227 60.0373C165.169 60.6834 165.128 61.5673 165.107 62.6837L164.664 62.8388C164.513 62.5855 164.346 62.4098 164.169 62.3064C163.987 62.203 163.752 62.1565 163.466 62.1565C163.075 62.1565 162.737 62.2599 162.455 62.4563C162.174 62.6579 161.997 62.8905 161.913 63.1489C161.861 63.3454 161.835 64.007 161.835 65.139C161.835 66.7827 161.856 67.7441 161.903 68.0181C161.929 68.199 161.992 68.323 162.091 68.3902C162.242 68.4884 162.731 68.5556 163.57 68.5918V69.3878L162.471 69.3568C161.773 69.3361 161.169 69.3258 160.658 69.3258C160.174 69.3258 159.611 69.3361 158.97 69.3568L157.887 69.3878Z" fill="#626669"/>
<path d="M166.102 69.3879V68.5919C166.841 68.566 167.268 68.5195 167.383 68.4575C167.498 68.3955 167.571 68.2146 167.602 67.9148C167.654 67.5064 167.68 66.6019 167.68 65.2063C167.68 64.6015 167.67 64.0433 167.654 63.5315L167.623 62.3944C167.623 62.017 167.581 61.7844 167.503 61.6966C167.425 61.6087 167.201 61.557 166.841 61.5467L166.107 61.5157V60.7662C167.68 60.6473 168.977 60.3681 169.998 59.934L170.243 60.1252C170.144 61.3658 170.097 63.1697 170.097 65.5422C170.097 66.912 170.118 67.7442 170.165 68.0285C170.196 68.2301 170.259 68.3593 170.342 68.4162C170.43 68.473 170.858 68.535 171.623 68.5919V69.3879C170.446 69.3466 169.534 69.3311 168.894 69.3311C168.545 69.3311 167.612 69.3517 166.102 69.3879ZM168.826 55.2871C169.243 55.2871 169.602 55.437 169.899 55.7316C170.196 56.0263 170.347 56.3829 170.347 56.8068C170.347 57.2203 170.196 57.5769 169.899 57.8716C169.602 58.1662 169.243 58.3161 168.816 58.3161C168.399 58.3161 168.039 58.1662 167.742 57.8716C167.446 57.5769 167.294 57.2203 167.294 56.8068C167.294 56.3829 167.446 56.0263 167.742 55.7316C168.045 55.4318 168.404 55.2871 168.826 55.2871Z" fill="#626669"/>
<path d="M179.875 63.4327H179.073C179.026 62.6625 178.969 62.218 178.906 62.0991C178.823 61.9182 178.63 61.7528 178.333 61.6029C178.036 61.453 177.661 61.3806 177.213 61.3806C176.52 61.3806 176.015 61.577 175.697 61.9699C175.379 62.3627 175.223 63.0708 175.223 64.0891C175.223 65.3813 175.52 66.3789 176.114 67.0871C176.708 67.7952 177.474 68.1467 178.406 68.1467C178.745 68.1467 179.057 68.1157 179.338 68.0588C179.625 68.002 179.88 67.9141 180.12 67.8056L180.287 68.0175C180.146 68.3276 180.01 68.6378 179.891 68.9582C179.458 69.1702 179.021 69.3304 178.573 69.4389C178.125 69.5423 177.672 69.5992 177.213 69.5992C175.791 69.5992 174.681 69.2115 173.884 68.4258C173.093 67.6453 172.691 66.534 172.691 65.0919C172.691 64.5595 172.744 64.0788 172.848 63.6498C172.952 63.2156 173.093 62.8486 173.275 62.5488C173.452 62.249 173.65 62.0009 173.869 61.8148C173.999 61.7114 174.562 61.3548 175.557 60.7345C176.14 60.3727 176.562 60.1504 176.822 60.0625C177.083 59.9747 177.442 59.9385 177.885 59.9385C178.276 59.9385 178.656 59.9643 179.031 60.0263C179.401 60.0832 179.766 60.1711 180.115 60.29L180.281 60.4657C180.042 61.5357 179.912 62.5281 179.875 63.4327Z" fill="#626669"/>
<path d="M190.663 68.5916V69.3876L189.908 69.3566C189.507 69.3359 189.111 69.3256 188.71 69.3256C188.095 69.3256 187.512 69.3463 186.96 69.3824L186.861 69.2739L186.96 67.9403L184.918 69.46C184.553 69.5427 184.23 69.584 183.949 69.584C183.256 69.584 182.719 69.3825 182.344 68.9741C181.969 68.5658 181.776 67.9713 181.776 67.1857C181.776 66.2191 182.032 65.5419 182.547 65.1439C183.214 64.627 184.683 64.1618 186.954 63.7535C186.944 62.9885 186.809 62.4303 186.553 62.0839C186.194 61.6084 185.642 61.3706 184.892 61.3706C184.714 61.3706 184.537 61.3913 184.35 61.4327C184.162 61.474 183.975 61.5412 183.787 61.6342L183.35 62.6732L182.672 62.5078L182.693 62.0736L182.683 61.6446L182.672 61.2569C183.673 60.6418 184.391 60.2541 184.829 60.0991C185.147 59.9802 185.595 59.9233 186.163 59.9233C186.934 59.9233 187.559 60.0371 188.043 60.2697C188.528 60.5023 188.882 60.8124 189.101 61.2104C189.319 61.6084 189.434 62.1873 189.434 62.942C189.434 63.2625 189.424 63.831 189.392 64.6477C189.366 65.4903 189.351 66.1726 189.351 66.6843C189.351 67.4958 189.377 67.9868 189.418 68.1626C189.444 68.266 189.507 68.3487 189.611 68.4055C189.721 68.4727 190.07 68.5347 190.663 68.5916ZM186.96 64.596C185.814 64.8441 185.069 65.1129 184.725 65.4024C184.381 65.6918 184.209 66.0795 184.209 66.5706C184.209 66.9686 184.319 67.2787 184.543 67.5061C184.761 67.7336 185.043 67.8473 185.381 67.8473C185.897 67.8473 186.423 67.5578 186.96 66.9789V64.596Z" fill="#626669"/>
<path d="M191.289 54.1445C189.856 54.1445 188.689 55.2972 188.689 56.7238C188.689 58.1504 189.851 59.3031 191.289 59.3031C192.721 59.3031 193.888 58.1504 193.888 56.7238C193.888 55.2972 192.727 54.1445 191.289 54.1445ZM191.289 59.0705C189.981 59.0705 188.929 58.0212 188.929 56.7238C188.929 55.4264 189.987 54.3771 191.289 54.3771C192.596 54.3771 193.654 55.4264 193.654 56.7238C193.654 58.0212 192.596 59.0705 191.289 59.0705Z" fill="#626669"/>
<path d="M190.299 58.2382V55.2144H191.408C191.638 55.2144 191.81 55.2402 191.919 55.2971C192.028 55.3539 192.122 55.447 192.19 55.5813C192.263 55.7106 192.294 55.8656 192.294 56.0362C192.294 56.2636 192.237 56.4497 192.117 56.5945C191.997 56.734 191.82 56.8271 191.591 56.8632C191.685 56.9201 191.757 56.977 191.804 57.0286C191.903 57.1475 191.992 57.2716 192.065 57.4163L192.502 58.2382H192.086L191.752 57.6076C191.622 57.3594 191.523 57.194 191.46 57.1113C191.398 57.0235 191.33 56.9666 191.268 56.9408C191.205 56.9098 191.122 56.8994 191.007 56.8994H190.627V58.2433H190.299V58.2382ZM190.627 56.5479H191.341C191.497 56.5479 191.617 56.5273 191.695 56.4911C191.773 56.4549 191.841 56.3929 191.888 56.3153C191.935 56.2326 191.961 56.1448 191.961 56.0362C191.961 55.8811 191.914 55.7623 191.825 55.6744C191.737 55.5865 191.601 55.5452 191.424 55.5452H190.632V56.5479H190.627Z" fill="#626669"/>
</svg>
