<?xml version="1.0" encoding="UTF-8"?>
<svg width="200px" height="67px" viewBox="0 0 200 67" version="1.1" xmlns="http://www.w3.org/2000/svg" xmlns:xlink="http://www.w3.org/1999/xlink">
    <!-- Generator: Sketch 52.2 (67145) - http://www.bohemiancoding.com/sketch -->
    <title>graco</title>
    <desc>Created with Sketch.</desc>
    <defs>
        <polygon id="path-1" points="0.0223880597 0.106517871 199.798507 0.106517871 199.798507 66.0633484 0.0223880597 66.0633484"></polygon>
    </defs>
    <g id="Multi-&amp;-Experience-cards" stroke="none" stroke-width="1" fill="none" fill-rule="evenodd">
        <g id="graco">
            <g id="Group-4">
                <mask id="mask-2" fill="white">
                    <use xlink:href="#path-1"></use>
                </mask>
                <g id="Clip-2"></g>
                <path d="M198.21903,33.0854899 C198.21903,50.972327 154.199254,65.4702629 99.9,65.4702629 C45.6,65.4702629 1.58097015,50.972327 1.58097015,33.0854899 C1.58097015,15.1975393 45.6,0.69849001 99.9,0.69849001 C154.199254,0.69849001 198.21903,15.1975393 198.21903,33.0854899" id="Fill-1" fill="#FFFFFE" mask="url(#mask-2)"></path>
                <path d="M103.681716,60.4138187 C53.3436567,60.4138187 12.5406716,47.4843307 12.5406716,31.5337435 C12.5406716,15.5831562 53.3436567,2.65329707 103.681716,2.65329707 C154.018657,2.65329707 194.821642,15.5831562 194.821642,31.5337435 C194.821642,47.4843307 154.018657,60.4138187 103.681716,60.4138187 Z M99.9,0.106517871 C44.7264925,0.106517871 0,14.8713051 0,33.0854899 C0,51.2989323 44.7264925,66.0633484 99.9,66.0633484 C155.072015,66.0633484 199.798507,51.2989323 199.798507,33.0854899 C199.798507,14.8713051 155.072015,0.106517871 99.9,0.106517871 Z" id="Fill-3" fill="#626669" mask="url(#mask-2)"></path>
            </g>
            <path d="M63.9485796,32.0093484 L48.6473685,32.0093484 C48.5146269,32.0093484 48.2930127,32.0605453 48.2930127,32.4021018 C48.2930127,32.8116771 48.4817252,33.2494107 48.8322991,33.2494107 C48.8058264,33.2494107 52.8334562,33.7357813 52.8334562,33.7357813 C53.0944012,33.7910008 53.1394047,33.846586 53.1757101,34.1859484 C53.3912734,35.9335914 53.5561604,39.8859927 53.5860367,42.545672 C53.5860367,43.1293168 53.4990551,43.3410526 53.4211497,43.4160195 C53.1783574,43.6511596 52.4980094,43.8226692 51.814636,43.8226692 C44.3814847,43.8226692 39.9435283,37.6717264 39.9435283,31.7233771 C39.9435283,27.6619996 41.2474971,24.0387213 43.8240456,20.9541076 C46.043591,18.2852859 49.3159929,16.7559611 52.7975289,16.7559611 C54.0595196,16.7559611 55.0045944,17.0452237 55.7670077,17.6643406 C56.0665272,17.9291017 56.3369267,18.2560305 56.4863083,18.5332252 L59.2757728,24.0186082 C59.3775035,24.2354637 59.5904195,24.2354637 59.6925285,24.2354637 C60.0283534,24.2354637 60.4330072,23.8262541 60.4330072,23.5710009 C60.4330072,23.5629557 60.1512623,17.1128767 60.1512623,17.1128767 C60.1512623,16.7983814 59.9742735,16.5628756 59.6566013,16.4597504 C58.6075266,15.9700886 56.1175816,15.3846154 52.6326419,15.3846154 C45.6544426,15.3846154 40.2313242,17.1494459 36.0569602,20.7771125 C32.6457659,23.7070384 30.7692308,27.7621992 30.7692308,32.1936573 C30.7692308,40.8587339 37.1722166,45.2488688 49.7955266,45.2488688 C54.9845508,45.2488688 58.1597601,45.0488351 60.0911314,44.5957425 C60.4269563,44.5156559 60.607727,44.2856355 60.607727,43.9378622 C60.607727,43.9466389 60.6795814,41.3977642 60.6795814,41.3977642 C60.7537049,38.6711632 60.8384175,35.5803327 60.9492246,34.3018728 C60.9881772,33.784784 61.1262134,33.7639396 61.3330785,33.7321244 C61.3455585,33.7321244 63.8071399,33.2417311 63.8071399,33.2417311 C64.1217866,33.1481139 64.2533937,32.7180599 64.2533937,32.3589502 C64.2533937,32.070419 64.0888848,32.0093484 63.9485796,32.0093484" id="Fill-5" fill="#626669"></path>
            <path d="M99.1553993,36.6676072 C99.1531561,36.6646579 100.063897,34.1625734 100.063897,34.1625734 C101.071843,31.2380063 102.326542,27.5963986 103.346078,24.989615 C103.348321,24.9859284 103.887811,23.5241979 103.955855,23.3343388 C103.979783,23.3343388 103.979783,23.3343388 104.003336,23.3343388 C104.045583,23.4298213 104.095308,23.5474234 104.095308,23.5474234 L104.766399,25.0533929 C106.106714,28.0793411 108.997455,34.445703 110.066342,36.7232746 L99.1553993,36.6676072 Z M75.3864134,33.8938214 L75.3449141,33.8938214 C74.2921039,33.8938214 74.2098531,33.6409217 74.2098531,33.286641 C74.2098531,32.574393 74.5182936,24.589252 74.6928896,21.6064369 C74.7194342,21.2492069 74.8648685,21.079624 76.0500278,21.079624 C79.5374618,21.079624 81.7877689,23.3321269 81.7877689,26.8163174 C81.7877689,29.660517 80.0829341,33.8938214 75.3864134,33.8938214 Z M122.708664,44.1557966 C122.688101,44.1498981 120.755207,43.7403186 120.755207,43.7403186 C120.45387,43.6750661 120.284508,43.5379251 120.158889,43.2577448 C118.431248,39.6168744 114.028961,28.7598845 111.65939,22.9277086 L110.624526,20.381385 C110.553117,20.1668258 110.230096,20.0698687 110.138124,20.0698687 C109.153732,19.9928191 107.867255,19.9526353 106.328791,19.9526353 L106.290282,19.9526353 C104.03848,19.9526353 103.555443,20.0433253 103.063434,21.0519746 C103.063434,21.0530806 100.119229,27.4260784 100.119229,27.4260784 C97.5638463,33.0105158 94.3796187,39.9634133 92.604123,43.1585756 C92.4074689,43.4767278 92.1296855,43.7753412 91.7494625,43.7753412 C91.3729781,43.7753412 91.0824832,43.5058519 90.9045224,43.260694 C89.1024821,40.5186128 86.4226015,36.5323096 83.8814256,33.3810175 C86.7280511,32.2868394 89.6782377,30.0310187 89.6782377,26.8373309 L89.6782377,26.7986218 C89.6782377,22.1634797 85.4610149,19.9095023 76.7947714,19.9095023 C71.0880613,19.9095023 66.156752,20.3563162 64.7805465,20.4923512 C64.6470759,20.4923512 64.4874346,20.5723501 64.4874346,20.8005496 C64.4874346,21.2230321 64.6683863,21.5304933 64.9207468,21.5304933 C64.8942022,21.52865 66.9568279,21.838323 66.9568279,21.838323 C67.0050568,21.8475395 67.1000191,21.8637604 67.1000191,22.3253208 C67.173671,23.7254854 67.2181612,27.4422994 67.2510615,30.1559939 L67.2951778,33.272632 C67.3280781,35.0886433 67.4050948,41.9508507 67.3968697,43.3982036 C67.393131,43.7403186 67.2776061,43.7753412 67.0869337,43.8037278 L64.6212791,44.1782848 C64.3532162,44.1875012 64.2533937,44.5768045 64.2533937,44.910809 C64.2533937,45.2164268 64.4429444,45.2488688 64.5296816,45.2488688 C65.4336927,45.210897 67.8406502,45.1696072 70.5358594,45.1696072 L76.6792464,45.2488688 C76.8041181,45.2488688 76.9996507,45.2042611 76.9996507,44.9038045 C76.9996507,44.6177256 76.7809383,44.2612329 76.5547486,44.1875012 C76.5334382,44.181234 74.3164053,43.7314708 74.3164053,43.7314708 C74.0733915,43.6971856 74.0057215,43.6216106 74.0057215,43.3952543 C74.0057215,41.462747 74.1268545,36.571756 74.1743357,35.0340818 C74.669336,35.0713163 75.4634301,35.0956478 75.7359793,35.0783208 C75.8548691,35.0746342 75.978993,35.1332509 76.1046124,35.2552769 C78.9000181,37.8439961 81.8173044,40.6410074 84.2515542,43.572579 C84.2515542,43.572579 84.3139901,43.6879691 84.3203458,43.6971856 C84.3083821,43.7108259 84.2459462,43.7664933 83.916943,43.8192115 C83.9139521,43.8192115 81.83525,44.181234 81.83525,44.181234 C81.5327914,44.2542284 81.3578215,44.6752363 81.3578215,44.9450943 C81.3578215,45.1320041 81.4912921,45.2488688 81.7077613,45.2488688 C81.7103784,45.2488688 89.5537399,45.1408519 91.3344698,45.1408519 C93.1144519,45.1408519 99.3075633,45.210897 100.164467,45.2488688 C100.38131,45.2488688 100.484124,45.1463817 100.484124,44.9450943 C100.484124,44.6811348 100.359626,44.1875012 100.057915,44.1782848 C100.057915,44.1757042 97.0927736,43.6971856 97.0927736,43.6971856 C97.0251036,43.6846512 96.942105,43.664375 96.9035967,43.6083389 C96.8796692,43.5792149 96.8740612,43.5357132 96.8740612,43.4947921 C96.8740612,43.4616129 96.8763044,43.4335948 96.8819124,43.4044708 C97.1735289,42.0124167 98.4028045,38.3199341 98.4028045,38.3199341 C98.4028045,38.3199341 105.486094,38.0036252 108.318512,37.9309995 C108.318512,37.9309995 109.948574,37.8985576 110.161678,37.8930277 C110.67425,38.9131055 112.320388,42.191216 112.827352,43.3723975 C112.839315,43.4074201 112.845297,43.4479725 112.845297,43.4855756 C112.845297,43.5379251 112.836325,43.5880627 112.810154,43.6264032 C112.774263,43.6820706 112.7208,43.7108259 112.643783,43.7222543 C112.641166,43.7222543 109.737713,44.1432622 109.737713,44.1432622 C109.458808,44.1498981 109.296923,44.614039 109.296923,44.9450943 C109.296923,45.1463817 109.403475,45.2488688 109.607607,45.2488688 C110.407683,45.210897 113.396378,45.1696072 116.575371,45.1696072 L121.781099,45.2308045 L122.729974,45.2488688 C122.824189,45.2488688 123.076923,45.2488688 123.076923,44.9801168 C123.076923,44.5447312 122.934106,44.2284223 122.708664,44.1557966 Z" id="Fill-6" fill="#626669"></path>
            <path d="M146.433234,41.3406325 C146.310935,41.2455389 146.173959,41.2804943 146.128426,41.2928978 C144.028261,42.0295917 142.880528,42.3716281 141.17699,42.6125571 C140.395402,42.7414785 139.244281,42.8749103 138.551502,42.8749103 C133.749459,42.8749103 128.580517,39.8687482 128.580517,33.266693 C128.580517,29.3344015 130.00446,25.7809811 132.592317,23.2611873 C134.811771,21.0255468 137.533217,20.2302181 139.338734,20.2302181 C140.562858,20.2302181 141.312084,20.6992967 141.645867,20.9793155 C141.858104,21.1518372 142.162912,21.5085324 142.36273,21.9231106 C143.14206,23.3897328 144.556219,26.5327095 144.971285,27.4607183 C145.071758,27.663685 145.163953,27.7294612 145.343451,27.7294612 C145.624928,27.7294612 146.125039,27.3941903 146.125039,27.0630539 C146.125039,27.0525297 145.819102,20.6992967 145.819102,20.6992967 C145.819102,20.4440849 145.747228,20.3027599 145.52596,20.1482797 C144.304846,19.427748 141.932236,19.0045249 139.160741,19.0045249 C133.854448,19.0045249 129.12428,20.5331647 125.483141,23.4239365 C124.283854,24.3733695 120.361991,27.9185209 120.361991,33.6854058 L120.361991,33.7275026 C120.361991,41.2654597 125.728869,45.2488688 135.88462,45.2488688 C137.124925,45.2488688 139.013229,45.018464 139.999151,44.8068524 C141.833268,44.4227192 145.08079,43.1079461 146.331631,42.5204703 C146.531074,42.3953076 146.606335,42.2524791 146.606335,42.0322227 C146.606335,41.6206514 146.560802,41.4387331 146.433234,41.3406325" id="Fill-7" fill="#626669"></path>
            <path d="M170.704646,32.4872809 C170.714052,36.7931057 169.82834,44.0145794 163.791653,44.0292366 L163.749512,44.0292366 C162.116551,44.0329948 160.638233,43.3828179 159.345409,42.0982487 C157.16725,39.9282363 155.806324,36.1256409 155.796918,32.1708364 C155.78563,24.8065493 158.667392,20.2267482 163.328479,20.2166009 C168.157377,20.2094603 170.693734,26.3831344 170.704646,32.4872809 Z M164.558467,19.0045659 C154.503342,19.0256121 147.496661,24.7024458 147.511335,32.8093628 C147.516603,36.3488808 148.5848,39.2017669 150.681687,41.290977 C153.334684,43.9288913 157.499487,45.2608145 163.053434,45.2487881 L163.092565,45.2487881 C168.34814,45.2390166 172.61679,43.7372207 175.444371,40.9087632 C177.898703,38.4437283 179.190398,35.0586742 179.185507,31.1189028 C179.169327,23.7444684 173.429508,18.9884055 164.558467,19.0045659 Z" id="Fill-8" fill="#626669"></path>
            <path d="M182.292199,23.8143314 C182.606876,23.8143314 182.763867,23.686693 182.763867,23.4812858 C182.763867,23.2682063 182.603396,23.1527738 182.263655,23.1527738 L181.820182,23.1527738 L181.820182,23.8143314 L182.292199,23.8143314 Z M182.81817,25.1873164 L182.620452,24.7988213 C182.402893,24.3726624 182.230934,24.1975954 181.98309,24.1975954 L181.820182,24.1975954 L181.820182,25.1873164 L181.327279,25.1873164 L181.327279,22.7761358 L182.540042,22.7761358 C183.032249,22.7761358 183.282181,23.0858159 183.282181,23.4505968 C183.282181,23.8216549 183.032249,24.0758856 182.631939,24.124709 L182.631939,24.1369149 C182.838708,24.2094526 182.888833,24.2701331 183.141898,24.7022206 L183.425596,25.1873164 L182.81817,25.1873164 Z M182.354508,25.8066766 C183.360502,25.8066766 184.176437,24.994115 184.176437,23.9852135 C184.176437,22.9710808 183.360502,22.1571243 182.354508,22.1571243 C181.347469,22.1571243 180.527357,22.9710808 180.527357,23.9852135 C180.527357,24.994115 181.347469,25.8066766 182.354508,25.8066766 Z M182.354508,21.719457 C183.603124,21.719457 184.615385,22.7346359 184.615385,23.9852135 C184.615385,25.2302112 183.603124,26.2443439 182.354508,26.2443439 C181.104847,26.2443439 180.090498,25.2302112 180.090498,23.9852135 C180.090498,22.7346359 181.104847,21.719457 182.354508,21.719457 Z" id="Fill-9" fill="#626669"></path>
        </g>
    </g>
</svg>