<svg width="176" height="60" viewBox="0 0 176 60" fill="none" xmlns="http://www.w3.org/2000/svg">
<path d="M127.958 32.7186C126.922 32.4041 125.677 31.9895 124.804 31.7519C124.419 31.5608 123.683 31.2836 122.814 30.9715C121.29 30.3658 120.726 30.0024 118.907 29.3245C118.681 29.2476 118.232 29.0985 118.277 29.1125C117.749 28.5254 117.317 28.0409 116.814 27.3909C113.766 24.1342 109.809 19.6848 106.64 15.7758C106.173 15.3238 105.344 14.3501 104.695 13.6349C103.244 11.9576 100.203 8.50055 100.203 8.50055C100.203 8.50055 93.8935 4.91769 91.2956 3.39183C89.4363 2.38314 85.2505 0 85.2505 0C85.2505 0 82.1335 1.79609 80.7886 2.5695C80.0099 3.04473 79.5781 3.36854 78.6178 3.92297C77.5135 4.54496 77.1997 4.61019 76.0931 5.22985C75.0266 5.84486 74.6066 6.17565 73.2923 6.90015C72.4759 7.29151 70.2862 8.45396 70.2862 8.45396C70.2862 8.45396 68.9224 9.91692 68.342 10.5203C67.4406 11.7014 66.4473 12.964 65.1519 14.5061C63.6559 16.237 62.8324 17.0384 61.3365 18.7692C58.9651 21.6299 57.6485 23.1581 54.9869 26.1143C53.9299 27.3746 52.2947 29.2825 52.3183 29.2569C50.7704 29.809 49.3783 30.3005 47.552 30.9831C46.4761 31.3675 46.7804 31.1299 45.5063 31.6051C43.3544 32.4158 41.1128 33.2474 39.3644 33.9649C36.901 34.8851 33.4868 36.0243 33.5623 36.3597C34.7232 35.9544 36.3277 35.4442 36.9742 35.1577C37.2691 35.1134 37.4838 35.1041 38.3356 34.8059C40.1076 34.0744 41.3936 33.6877 43.7909 32.8304C45.2703 32.3878 47.1816 31.7495 47.5402 31.8148C48.6586 31.4304 48.845 31.2626 50.2702 30.8084C50.82 30.6733 52.0257 30.24 52.3136 30.2237C52.4504 30.1771 52.5873 30.1282 52.7241 30.0792L52.8539 30.035C52.8539 30.035 59.7438 22.3125 62.8065 18.6225C63.1816 18.2824 64.0382 17.2783 64.7248 16.5072C66.5157 14.385 71.0319 9.32521 71.0106 9.34851C71.223 9.22737 71.4188 9.11555 71.6076 9.00606C73.7217 7.7947 75.5291 6.68583 77.2327 5.7773C79.7386 4.27939 85.2269 1.18109 85.2882 1.14847C85.2977 1.14381 85.2953 1.14381 85.2882 1.14847C85.2882 1.14847 89.6605 3.74127 91.3192 4.68474C93.6835 5.97065 95.3493 6.99333 97.933 8.41203C98.4616 8.72652 99.4903 9.33919 99.4903 9.33919C102.539 12.9104 105.505 16.216 108.936 20.2998C109.646 21.0825 109.582 20.7517 110.519 21.8606C111.144 22.5827 111.767 23.3072 112.392 24.0294C112.893 24.5326 113.428 25.0847 114.138 25.886C114.721 26.5523 115.271 27.1906 115.507 27.526C115.882 27.7916 117.746 29.9045 117.746 29.9045C117.746 29.9045 118.895 30.2889 119.322 30.4193C120.302 30.7338 120.167 30.7711 120.998 31.0507C121.368 31.1182 121.998 31.3069 123.083 31.7146C123.614 31.845 124.844 32.304 125.825 32.6464C126.318 32.7303 126.606 32.7186 127.668 33.0727C129.221 33.6295 130.348 33.9277 132.812 34.8199C134.086 35.167 136.887 36.2362 137.057 36.0592C134.447 34.9876 130.719 33.8228 127.958 32.7186Z" fill="#626669"/>
<path d="M120.961 32.5485L117.604 31.3604L116.273 29.8112C115.237 28.7676 114.421 27.5399 113.706 26.9762C111.681 24.4626 107.675 19.9642 105.745 17.8629C105.391 17.2759 103.151 14.8136 102.047 13.4834C100.924 12.1579 100.712 12.0787 99.6806 10.8836C99.6806 10.8836 99.5202 10.7881 99.4093 10.7229C97.7505 9.61632 96.7076 9.09683 95.0441 8.05551C92.3589 6.52267 85.2968 2.41333 85.2968 2.41333L70.913 10.8766C70.913 10.8766 67.0457 15.4612 65.4129 17.439C63.6291 19.5635 60.6726 22.8575 59.6415 24.2343C59.0539 24.812 57.801 26.3006 56.6991 27.5819C55.852 28.4158 54.9955 29.5107 54.6628 30.0302C54.5637 30.0256 54.585 29.8532 53.7167 30.8991L53.1409 31.5701L53.148 31.5677L53.1338 31.5771L53.1386 31.5724L46.7442 33.8344C44.899 34.6218 40.7321 36.0312 40.2012 36.4645C41.0624 36.2664 42.2162 35.896 43.4975 35.4441C43.4951 35.4954 43.4904 35.5466 43.4739 35.5559C43.4857 35.9729 43.5211 36.2408 43.4951 36.7417C43.5612 36.6275 43.573 36.758 43.6579 36.7417C43.7169 36.5343 43.6791 36.2641 43.7004 36.0428C43.7405 35.8425 43.7664 35.5955 43.79 35.3393C44.7952 34.9829 45.8735 34.5798 46.9495 34.1722C46.9518 34.2211 46.9518 34.27 46.9542 34.3166C46.94 34.489 46.8905 34.5379 46.8905 34.7662C46.9636 35.0481 46.8457 35.3626 46.9377 35.5885C46.8692 35.6049 46.9164 35.9869 46.933 36.0428C47.0179 36.129 46.8645 36.1733 46.8999 36.4039C47.0509 36.3969 47.0226 36.9164 47.0934 37.147C47.2657 36.8162 47.1689 36.1826 47.1689 35.698C47.1689 35.5373 47.2043 35.3835 47.2019 35.2461C47.1996 35.0621 47.1784 34.9433 47.1784 34.7895C47.1807 34.5519 47.1854 34.3166 47.1901 34.0813C48.2401 33.683 49.2831 33.2846 50.2505 32.9212C50.267 33.0121 50.2835 33.1029 50.3024 33.1868C50.2646 33.3522 50.3095 33.3405 50.3024 33.5618C50.3071 33.7365 50.2316 33.8763 50.2458 34.2025C50.2292 34.2793 50.2009 34.3329 50.1585 34.3632C50.1136 34.4028 50.1655 34.6241 50.0711 34.5775C50.0428 35.2391 49.939 35.7889 50.0145 36.2897C50.0263 36.4435 50.1372 36.4155 50.1585 36.5576C50.2245 36.7044 50.2245 36.97 50.3897 36.9304C50.4888 36.6904 50.3803 36.4388 50.3614 36.129C50.3614 35.9659 50.2174 36.0778 50.2174 35.9147C50.2387 35.542 50.3142 35.2741 50.3047 34.8454C50.3614 34.7918 50.4062 34.7126 50.4487 34.6311C50.4935 34.284 50.5525 33.9881 50.5053 33.7226C50.569 33.5362 50.5808 33.259 50.5926 32.9748C50.5737 32.9142 50.5478 32.8676 50.5195 32.821C50.7059 32.7511 50.8923 32.6813 51.074 32.616C51.8762 32.3481 53.3368 31.8613 53.3368 31.8613C53.3368 31.8613 53.4264 31.7611 53.4406 31.7448C53.4382 31.7634 53.4359 31.782 53.4359 31.8077C53.4972 31.8403 53.4878 32.0872 53.509 32.2503C53.5491 32.3062 53.5774 32.3924 53.5963 32.5182C53.594 32.5788 53.594 32.6393 53.594 32.6976C53.5538 32.6882 53.5397 32.5415 53.509 32.6417C53.5161 32.8001 53.4972 32.8676 53.4925 32.9841C53.5232 33.0633 53.5515 33.1542 53.5869 33.2217C53.5869 33.2986 53.5845 33.3755 53.5845 33.4523C53.5633 33.6038 53.5751 33.7109 53.5609 33.9159C53.568 33.9159 53.5751 33.9206 53.5822 33.9229C53.5822 34.2164 53.5869 34.503 53.5963 34.7802C53.5987 34.899 53.6081 34.9689 53.6175 35.0248C53.5845 35.1366 53.5586 35.2787 53.5656 35.5256C53.6199 35.6398 53.6317 35.8891 53.6978 35.9706C53.6765 36.115 53.5751 36.2525 53.6034 36.4062C53.6341 36.3666 53.6529 36.4994 53.7096 36.4109C53.7473 36.5134 53.8747 36.5949 53.8913 36.3689C53.8747 36.2245 53.8441 36.129 53.8134 36.0335C53.8158 35.9962 53.8181 35.9566 53.8181 35.9193C53.8417 35.9007 53.8559 35.8495 53.8936 35.8821C53.9101 35.6375 53.8488 35.6421 53.8511 35.4418C53.837 35.4138 53.8252 35.3835 53.8134 35.3533C53.8063 35.1273 53.7969 34.885 53.7898 34.6311C53.804 34.6451 53.8181 34.6451 53.8252 34.6125C53.7969 34.6055 53.8441 34.4494 53.8275 34.3189C53.7992 34.2607 53.778 34.1885 53.7544 34.1209C53.7733 34.0627 53.7733 33.9485 53.7709 33.8274C53.7969 33.7855 53.8157 33.7109 53.8464 33.683C53.8464 33.634 53.8464 33.5851 53.8464 33.5362C53.804 33.3056 53.7615 33.068 53.7308 32.8001V32.7977C53.7355 32.665 53.7379 32.5322 53.7426 32.3947C53.7544 32.3877 53.7686 32.3784 53.7804 32.3621C53.7804 32.2759 53.7851 32.2107 53.7969 32.1664C53.7709 32.1152 53.7568 32.022 53.7497 31.9125C53.752 31.7518 53.752 31.584 53.752 31.4023C53.752 31.4 53.752 31.4 53.752 31.3977C54.8374 30.1677 55.8473 29.0145 56.8006 27.9243C56.7935 28.0874 56.7534 28.2341 56.7204 28.3786C56.7369 28.7653 56.7251 28.756 56.6826 29.0704C56.7416 29.9883 56.7982 30.9131 56.9044 31.7122C56.9374 33.0913 57.0861 34.715 57.1073 35.6654C57.0932 35.8122 57.0436 35.8541 57.0436 36.0475C57.1168 36.2874 56.9988 36.553 57.0908 36.7463C57.0224 36.7603 57.0696 37.0841 57.0861 37.133C57.171 37.2053 57.0177 37.2425 57.053 37.4382C57.2041 37.4312 57.1757 37.8738 57.2465 38.0695C57.4188 37.7876 57.322 37.2519 57.322 36.8395C57.322 36.7021 57.3574 36.5716 57.3551 36.4551C57.3527 36.2991 57.3315 36.1966 57.3315 36.0684C57.3362 35.7074 57.3598 35.3533 57.348 34.9898C57.407 34.9316 57.3008 34.6684 57.2984 34.5239C57.3834 34.6078 57.3527 34.3562 57.3598 34.2188C57.2347 33.2706 57.2465 31.9754 57.0884 31.1111C57.0483 30.1537 56.9846 29.6878 56.9799 28.7094C57.0436 28.4065 57.0719 27.9196 57.1097 27.7146C57.1144 27.6844 57.1215 27.6191 57.1309 27.5539C58.2493 26.2703 59.2923 25.0706 60.2927 23.9245C60.3045 24.2692 60.3281 24.4603 60.3446 24.7538C60.3894 25.5388 60.3706 26.1329 60.3446 26.8807C60.3753 27.4095 60.4154 27.908 60.4602 28.3832C60.4225 28.7723 60.4673 28.7396 60.4602 29.2591C60.4649 29.6668 60.3894 29.9976 60.4036 30.7617C60.3871 30.9411 60.3588 31.0669 60.3163 31.1368C60.2715 31.2299 60.3234 31.7494 60.229 31.6376C60.2007 33.1844 60.0969 34.4727 60.1724 35.6445C60.1842 36.0055 60.2951 35.9403 60.3163 36.2711C60.3824 36.6136 60.3824 37.2379 60.5475 37.147C60.6466 36.5833 60.5381 35.9962 60.5192 35.2694C60.5192 34.8897 60.3753 35.1483 60.3753 34.7685C60.3965 33.895 60.472 33.2706 60.4626 32.2643C60.5192 32.1385 60.5641 31.9521 60.6065 31.7634C60.6514 30.9504 60.7103 30.2562 60.6632 29.6365C60.7269 29.2009 60.7387 28.5486 60.7505 27.8847C60.6915 27.4677 60.5688 27.3419 60.5782 26.6337C60.5664 26.3309 60.6301 26.3612 60.6065 26.0071C60.6514 25.9954 60.7056 26.0234 60.6938 25.7578C60.7245 25.2919 60.6325 25.3525 60.6065 25.1312C60.59 24.8703 60.5452 24.7258 60.5192 24.5045C60.5405 24.1225 60.4697 24.1364 60.4909 23.7544C60.5027 23.7474 60.5098 23.7148 60.5145 23.6752C60.8614 23.2768 61.2035 22.8855 61.5433 22.4988C62.3479 21.5506 63.0817 20.6934 63.766 19.8967C63.8037 20.0178 63.8462 20.111 63.8792 20.2554C63.8839 20.069 63.9311 20.111 63.9264 19.8617C63.9193 19.8221 63.9146 19.7755 63.9075 19.7313C65.059 18.3918 66.0571 17.234 66.9726 16.1484C66.9985 16.5235 67.0268 16.8892 67.0599 17.234C67.0929 19.0883 67.2416 21.2711 67.2628 22.5477C67.2486 22.7434 67.1991 22.8016 67.1991 23.0602C67.2722 23.384 67.1543 23.7404 67.2463 23.999C67.1779 24.02 67.2251 24.4533 67.2416 24.5185C67.3265 24.6163 67.1731 24.6676 67.2085 24.9308C67.3595 24.9238 67.3312 25.5155 67.402 25.7811C67.5743 25.4037 67.4775 24.6816 67.4775 24.1271C67.4775 23.9431 67.5129 23.766 67.5106 23.6123C67.5082 23.4026 67.487 23.2652 67.487 23.0905C67.4917 22.6036 67.5153 22.1284 67.5035 21.6392C67.5625 21.5623 67.4563 21.2082 67.4539 21.0125C67.5389 21.1243 67.5082 20.7865 67.5153 20.6025C67.3902 19.3282 67.402 17.5857 67.2439 16.4256C67.2368 16.2206 67.2298 16.0342 67.2227 15.8572C68.1099 14.7973 68.9239 13.7979 69.7309 12.7472C69.9645 12.484 70.2028 12.2138 70.4458 11.9412C70.4435 12.1509 70.4529 12.3489 70.4883 12.4933C70.4671 12.9872 70.4128 13.3879 70.375 13.8351C70.4553 14.2009 70.4836 14.7227 70.5355 15.177C70.5095 15.2865 70.4765 15.4355 70.4671 15.58C70.4623 15.6499 70.4907 15.6965 70.4907 15.7151C70.493 15.7827 70.4694 15.7943 70.4671 15.8479C70.4623 16.2532 70.493 16.3604 70.5119 16.5864C70.5473 17.008 70.5331 17.3248 70.5119 17.7278C70.5379 18.012 70.5685 18.2776 70.6039 18.5339C70.5732 18.7412 70.611 18.7249 70.6039 19.0044C70.6063 19.2234 70.5473 19.4005 70.5591 19.8105C70.5473 19.906 70.5237 19.9735 70.4907 20.0108C70.4553 20.0597 70.4954 20.3393 70.4222 20.2787C70.401 21.108 70.3184 21.7976 70.3774 22.4266C70.3868 22.6199 70.4765 22.585 70.4907 22.762C70.5426 22.946 70.5426 23.2792 70.6747 23.2302C70.7526 22.9274 70.6653 22.6129 70.6511 22.2239C70.6511 22.0212 70.5355 22.1587 70.5355 21.956C70.552 21.4877 70.6134 21.1523 70.6039 20.6142C70.6488 20.5466 70.6841 20.4464 70.7172 20.3463C70.7526 19.9106 70.7998 19.5379 70.762 19.2048C70.8116 18.9718 70.8234 18.6224 70.8304 18.266C70.7832 18.0423 70.6865 17.9748 70.6936 17.595C70.6841 17.4343 70.7361 17.4483 70.7172 17.2596C70.7526 17.2526 70.7974 17.2689 70.7856 17.1245C70.8092 16.8752 70.7384 16.9078 70.7172 16.789C70.703 16.6492 70.67 16.5724 70.6488 16.4536C70.6653 16.2486 70.6086 16.2556 70.6252 16.0506C70.6511 16.0389 70.6511 15.9434 70.6488 15.8479C70.7172 15.8036 70.7714 15.7128 70.8092 15.58C70.8304 15.0908 70.7361 14.9417 70.6936 14.6412C70.6629 14.3523 70.6228 14.0867 70.6016 13.7699C70.6157 13.2947 70.6936 13.0082 70.6936 12.4957C70.7809 12.4397 70.8234 12.251 70.8304 11.9599C70.8281 11.7898 70.8068 11.678 70.788 11.5568C70.9083 11.4217 71.1584 11.1375 71.1466 11.1515C72.0173 10.653 72.9139 10.1312 73.8341 9.58836C73.8459 9.87257 73.8648 10.0752 73.879 10.3548C73.9238 11.2493 73.9049 11.9226 73.879 12.7775C73.912 13.3809 73.9498 13.9446 73.9946 14.4874C73.9568 14.93 74.0017 14.8951 73.9946 15.4845C73.9993 15.9504 73.9238 16.3231 73.938 17.1944C73.9214 17.3994 73.8931 17.5415 73.8507 17.6207C73.8058 17.7255 73.8577 18.3172 73.7633 18.1891C73.735 19.9502 73.6312 21.4155 73.7067 22.748C73.7185 23.158 73.8294 23.0835 73.8507 23.4609C73.9167 23.8522 73.9167 24.5604 74.0819 24.4579C74.181 23.815 74.0725 23.1487 74.0536 22.3217C74.0536 21.8908 73.9096 22.1843 73.9096 21.751C73.9309 20.7586 74.0064 20.0457 73.9969 18.9019C74.0536 18.7598 74.0984 18.5455 74.1409 18.3312C74.1857 17.4064 74.2447 16.6143 74.1975 15.9108C74.2612 15.4146 74.273 14.6738 74.2848 13.9167C74.2258 13.4438 74.1031 13.2993 74.1126 12.491C74.1008 12.1485 74.1645 12.1812 74.1409 11.7781C74.1857 11.7642 74.24 11.7968 74.2282 11.4939C74.2589 10.9628 74.1668 11.0327 74.1409 10.7811C74.1244 10.4852 74.0795 10.3198 74.0536 10.0683C74.0701 9.74677 74.0347 9.6699 74.0253 9.47655C75.1012 8.84291 76.2078 8.18364 77.3404 7.50574C77.3758 9.92382 77.4041 12.1229 77.4136 13.8235C77.3994 14.4595 77.3499 14.6482 77.3499 15.4845C77.423 16.5328 77.305 17.6929 77.397 18.5315C77.3286 18.5968 77.3758 20.0038 77.3923 20.2135C77.4773 20.5326 77.3239 20.6957 77.3593 21.5483C77.5103 21.5227 77.482 23.4469 77.5528 24.3042C77.725 23.0765 77.6283 20.7353 77.6283 18.9392C77.6283 18.3428 77.6637 17.7698 77.6613 17.2666C77.659 16.584 77.6377 16.1414 77.6377 15.5753C77.6424 13.9982 77.666 12.456 77.6542 10.8673C77.7132 10.6134 77.607 9.4649 77.6047 8.83126C77.6896 9.197 77.659 8.09745 77.666 7.50341C77.6637 7.44284 77.6613 7.37761 77.6613 7.31472C78.6429 6.72767 79.6433 6.12897 80.6603 5.51863C80.6367 5.60482 80.6084 5.67937 80.5895 5.79119C80.5636 6.32466 80.5353 6.9979 80.6178 7.39159C80.5895 8.12773 80.5211 8.72643 80.4739 9.39268C80.5754 9.94013 80.6108 10.7159 80.6745 11.3914C80.6438 11.5568 80.6013 11.7758 80.5872 11.9901C80.5801 12.095 80.6155 12.1625 80.6155 12.1905C80.6178 12.293 80.5872 12.307 80.5872 12.3908C80.5801 12.9965 80.6202 13.1549 80.6438 13.4904C80.6886 14.117 80.6697 14.5922 80.6438 15.1909C80.6745 15.6126 80.7146 16.011 80.7594 16.3907C80.7216 16.7005 80.7665 16.6772 80.7594 17.0895C80.7641 17.4157 80.6886 17.6789 80.7028 18.2893C80.6863 18.4337 80.6579 18.5339 80.6155 18.5898C80.5706 18.6643 80.6226 19.079 80.5282 18.9905C80.4999 20.2251 80.396 21.2548 80.4715 22.1913C80.4833 22.4801 80.5942 22.4266 80.6155 22.6921C80.6815 22.967 80.6815 23.4655 80.8467 23.391C80.9458 22.9391 80.8373 22.4731 80.8184 21.8908C80.8184 21.5879 80.6745 21.7929 80.6745 21.4901C80.6957 20.7935 80.7712 20.2927 80.7618 19.489C80.8184 19.3888 80.8632 19.2397 80.9057 19.0883C80.9505 18.4384 81.0095 17.8839 80.9623 17.3877C81.026 17.0406 81.0378 16.5188 81.0496 15.9877C80.9906 15.6545 80.8679 15.5544 80.8774 14.9883C80.8656 14.746 80.9293 14.7716 80.9057 14.4874C80.9505 14.4781 81.0048 14.5014 80.993 14.2871C81.0237 13.9144 80.9317 13.9633 80.9057 13.7862C80.8892 13.5789 80.8443 13.4624 80.8184 13.2854C80.8396 12.9802 80.7688 12.9918 80.7901 12.6867C80.8231 12.6704 80.8208 12.5283 80.8184 12.3862C80.9057 12.3186 80.9718 12.1858 81.019 11.9855C81.0473 11.2563 80.9269 11.035 80.875 10.5854C80.8373 10.1544 80.7877 9.75842 80.7594 9.28552C80.7759 8.57734 80.875 8.15103 80.875 7.3846C80.9859 7.30074 81.0378 7.02119 81.0473 6.58557C81.0425 6.16624 80.9694 5.99386 80.96 5.58618C80.9647 5.48601 80.9741 5.39982 80.9836 5.31596C81.4578 5.03175 81.9321 4.74754 82.4134 4.46101C82.9019 4.19544 83.8268 3.67828 83.8481 3.6643C83.8551 3.79476 83.8245 4.00675 83.782 3.8693C83.7749 4.16982 83.7702 4.43073 83.7702 4.65902C83.7206 4.79181 83.7584 4.98516 83.7607 5.14357C83.7607 5.20414 83.7442 5.26238 83.7442 5.31363C83.7466 5.38351 83.7584 5.42777 83.7584 5.48368C83.7584 5.64209 83.749 5.8005 83.7584 5.96124C83.7277 5.98687 83.7867 6.10335 83.7891 6.16624C83.7419 6.12897 83.7607 6.24079 83.7584 6.30136C83.8127 6.59721 83.8292 6.96761 83.8669 7.29375C83.8551 7.46381 83.848 7.64551 83.815 7.67114C83.874 8.36535 83.8268 8.87319 83.874 9.6466C83.8646 10.0123 83.8079 10.0659 83.8056 10.4876C83.8929 10.5808 83.8811 11.2936 83.9094 11.7618C83.9684 11.9296 84.0132 12.1905 84.0368 12.5795C84.025 12.6051 84.0132 12.6331 84.0085 12.6797C84.0463 12.7892 84.0179 12.8241 84.0392 12.9546C84.0439 12.9662 84.0486 12.9755 84.0533 12.9849C84.0533 13.0035 84.0557 13.0221 84.0557 13.0431C83.9731 13.1572 83.9566 12.5679 83.9047 12.8917C83.9118 13.1899 83.9023 13.3786 83.8929 13.5626C83.8622 13.6138 83.8315 13.6674 83.7867 13.6907C83.782 13.8468 83.8197 13.9143 83.8481 14.0005C83.8693 14.0099 83.8858 14.0052 83.9023 13.9936C83.9542 14.2684 84.0014 14.5643 84.0698 14.732C84.1029 14.7227 84.0887 14.3733 84.1359 14.4548C84.143 14.4595 84.1501 14.4734 84.1572 14.4851C84.1619 14.5247 84.1666 14.5666 84.1619 14.6272C84.1312 14.7646 84.0675 14.8275 84.0345 14.9627C84.0368 14.9813 84.0392 14.9976 84.0392 15.0162C84.0345 15.0162 84.0297 15.0139 84.025 15.0116C83.9684 15.5777 84.0014 15.8735 83.9778 16.5561C84.0321 16.5561 84.0604 16.6958 84.0722 16.9008C84.0722 16.9964 84.0699 17.0919 84.0604 17.1757C84.0675 17.199 84.0722 17.2293 84.0793 17.2643C84.0769 17.4413 84.0699 17.637 84.0604 17.8303C84.0982 17.9585 84.1147 18.2264 84.1878 18.1215C84.2256 18.2986 84.32 18.8437 84.3601 18.5548C84.32 18.5362 84.386 18.0843 84.3624 17.7115C84.3365 17.5974 84.3129 17.4646 84.2893 17.3318C84.2775 17.2386 84.2681 17.1454 84.2657 17.0499C84.2751 16.9381 84.2798 16.789 84.2798 16.6213C84.2869 16.4955 84.2964 16.3674 84.2964 16.2323C84.327 16.1088 84.3506 15.9504 84.3884 15.8805C84.3884 15.7407 84.3884 15.5986 84.3907 15.4588C84.3671 15.2142 84.3459 14.965 84.3247 14.7134C84.3294 14.6924 84.3341 14.6691 84.3318 14.6342C84.3341 14.3779 84.3129 14.1706 84.2681 14.0099C84.2539 13.8235 84.2421 13.6348 84.2303 13.4368C84.2492 13.3786 84.268 13.325 84.2869 13.2691C84.2445 13.1549 84.2728 13.0338 84.2421 12.8591C84.2421 12.7566 84.1642 12.8218 84.1642 12.7193C84.1949 12.6145 84.235 12.5353 84.2445 12.3815C84.2445 12.307 84.2397 12.2371 84.2374 12.1672C84.2563 12.1509 84.2751 12.1229 84.2964 12.0693C84.2964 11.8247 84.3034 11.6314 84.32 11.5079C84.2492 11.2237 84.2421 10.5295 84.2397 9.812C84.1807 9.31115 84.1807 8.43523 84.117 7.97398C84.2067 7.89711 84.176 7.46847 84.1406 7.13068C84.2397 7.12602 84.1996 6.18721 84.2114 5.58618C84.1454 5.45573 84.0604 5.43244 84.0628 4.87334C84.084 4.87567 84.1052 4.87567 84.1265 4.878C84.11 4.2397 84.1524 4.00209 84.2161 3.89959C84.2138 3.72953 84.2067 3.59674 84.1996 3.46862C84.2704 3.42669 84.3459 3.38476 84.4143 3.34515L85.3322 2.76975L86.2477 3.3568C86.6606 3.58976 87.0358 3.79942 87.3921 3.99976C87.3591 4.12322 87.3001 4.1605 87.293 4.37249C87.2552 5.12726 87.4558 5.13425 87.4652 5.73994C87.477 6.10801 87.3874 6.15926 87.3496 6.37823C87.3237 6.86511 87.2953 7.47778 87.3779 7.83887C87.3496 8.50978 87.2812 9.05489 87.234 9.66291C87.3355 10.1614 87.3708 10.8696 87.4346 11.487C87.4039 11.636 87.3614 11.8387 87.3473 12.0344C87.3402 12.1299 87.3756 12.1928 87.3756 12.2161C87.3779 12.3093 87.3473 12.3233 87.3473 12.3978C87.3402 12.9499 87.3803 13.0943 87.4039 13.4018C87.4487 13.9749 87.4298 14.4059 87.4039 14.9533C87.4369 15.34 87.4747 15.7011 87.5195 16.0482C87.4818 16.3301 87.5266 16.3091 87.5195 16.6865C87.5242 16.9847 87.4487 17.2247 87.4629 17.7814C87.4464 17.9119 87.418 18.0051 87.3756 18.054C87.3307 18.1215 87.3826 18.5012 87.2883 18.4197C87.26 19.5472 87.1561 20.486 87.2316 21.3386C87.2434 21.6019 87.3543 21.553 87.3756 21.7952C87.4416 22.0445 87.4416 22.4988 87.6068 22.4335C87.7059 22.0212 87.5974 21.5949 87.5785 21.0661C87.5785 20.7889 87.4346 20.9776 87.4346 20.7003C87.4558 20.0644 87.5313 19.6078 87.5219 18.8763C87.5785 18.7855 87.6233 18.648 87.6658 18.5106C87.7106 17.9189 87.7696 17.411 87.7224 16.9591C87.7861 16.6423 87.7979 16.167 87.8097 15.6825C87.7531 15.3796 87.628 15.2865 87.6375 14.7693C87.6257 14.5503 87.6894 14.5713 87.6658 14.3127C87.7106 14.3034 87.7649 14.3244 87.7531 14.131C87.7838 13.7909 87.6918 13.8351 87.6658 13.6744C87.6493 13.4857 87.6045 13.3809 87.5785 13.2178C87.5997 12.9383 87.5289 12.9499 87.5502 12.6704C87.5832 12.6541 87.5809 12.5259 87.5785 12.3955C87.6658 12.3349 87.7319 12.2138 87.779 12.0297C87.8074 11.3635 87.687 11.1631 87.6351 10.7531C87.5974 10.3594 87.5478 9.99837 87.5195 9.5674C87.536 8.92211 87.6351 8.53307 87.6351 7.83421C87.746 7.75733 87.7979 7.50108 87.8074 7.10506C87.8027 6.72301 87.7295 6.5646 87.7201 6.1942C87.7319 5.96124 87.7602 5.77488 87.8074 5.64675C87.772 5.15289 87.6658 4.878 87.6068 4.46101C87.6398 4.38413 87.6658 4.28163 87.687 4.16516C87.8805 4.27465 88.0693 4.37948 88.251 4.48431C89.0697 4.95488 90.771 5.97522 90.8441 6.01482C90.8795 6.4621 90.9054 6.98392 90.9739 7.21687C90.955 7.89245 91.0069 8.10211 90.988 8.77768C90.9408 9.39967 90.8488 9.68853 90.8016 10.3012C90.8134 10.816 90.8323 11.3029 90.837 11.8667C90.6671 12.9849 90.7521 15.4868 90.9031 16.2416C90.896 16.5211 90.8441 16.9777 90.8299 17.4739C90.804 18.4057 90.8299 19.5286 90.7922 20.4278C90.8229 20.8471 90.8677 21.744 90.8276 22.1493C90.8819 22.5267 90.8701 23.0206 90.8417 23.7101C90.9172 24.3647 91.0447 24.4766 91.1508 23.9245C91.1933 22.3637 91.0824 21.101 91.0848 19.7056C91.0895 18.1355 91.1862 16.5631 91.1343 14.7274C91.1084 14.2451 91.0494 13.9912 91.0541 13.3087C91.1603 12.3046 91.1556 11.6058 91.139 10.0519C91.1461 9.46257 91.2358 9.47887 91.2358 8.82427C91.2429 7.76665 91.224 6.88608 91.1768 6.18488C91.3207 6.2571 91.4623 6.32233 91.5921 6.37823C92.1584 6.76028 93.0927 7.31938 94.0838 7.90642C94.1309 8.18597 94.2253 8.32574 94.2301 8.73575C94.2419 9.10382 94.1522 9.15507 94.1144 9.37404C94.0885 9.86092 94.0602 10.4736 94.1427 10.8347C94.1144 11.5056 94.046 12.0507 93.9988 12.6587C94.1003 13.1572 94.1357 13.8654 94.1994 14.4828C94.1687 14.6319 94.1262 14.8345 94.1121 15.0302C94.105 15.1257 94.1404 15.1863 94.1404 15.2119C94.1427 15.3051 94.1121 15.3191 94.1121 15.3936C94.105 15.9457 94.1451 16.0902 94.1687 16.3977C94.2135 16.9707 94.1947 17.4017 94.1687 17.9491C94.2017 18.3359 94.2395 18.6969 94.2843 19.044C94.2466 19.3259 94.2914 19.3049 94.2843 19.6823C94.289 19.9805 94.2135 20.2205 94.2277 20.7772C94.2112 20.9077 94.1829 21.0009 94.1404 21.0498C94.0956 21.1173 94.1475 21.4971 94.0531 21.4155C94.0248 22.543 93.9209 23.4818 93.9965 24.3345C94.0083 24.5977 94.1192 24.5488 94.1404 24.791C94.2065 25.0403 94.2065 25.4946 94.3716 25.4293C94.4707 25.017 94.3622 24.5907 94.3433 24.0619C94.3433 23.7847 94.1994 23.9734 94.1994 23.6962C94.2206 23.0602 94.2961 22.6036 94.2867 21.8721C94.3433 21.7813 94.3881 21.6438 94.4306 21.5064C94.4754 20.9147 94.5344 20.4068 94.4872 19.9549C94.551 19.6381 94.5627 19.1628 94.5745 18.6783C94.5179 18.3755 94.3929 18.2823 94.4023 17.7651C94.3905 17.5461 94.4542 17.5671 94.4306 17.3085C94.4754 17.2992 94.5297 17.3202 94.5179 17.1268C94.5486 16.7867 94.4566 16.831 94.4306 16.6702C94.4141 16.4815 94.3693 16.3767 94.3433 16.2136C94.3645 15.9341 94.2938 15.9457 94.315 15.6662C94.348 15.6499 94.3457 15.5217 94.3433 15.3913C94.4306 15.3307 94.4967 15.2096 94.5439 15.0255C94.5722 14.3593 94.4519 14.159 94.3999 13.749C94.3622 13.3553 94.3126 12.9942 94.2843 12.5632C94.3008 11.9179 94.3999 11.5289 94.3999 10.83C94.5108 10.7531 94.5627 10.4969 94.5722 10.1009C94.5675 9.71882 94.4943 9.56041 94.4849 9.19001C94.4967 8.95705 94.525 8.77069 94.5722 8.64256C94.558 8.4562 94.5344 8.30012 94.5061 8.15802C95.4287 8.70313 96.3607 9.25291 97.0568 9.69086C97.1488 9.74444 97.2385 9.79802 97.3305 9.8516C97.3423 10.1242 97.3918 10.3944 97.4036 10.6809C97.3824 10.8417 97.3824 11.1375 97.3376 11.1678C97.3966 11.7735 97.3494 12.2161 97.3966 12.894C97.3871 13.2132 97.3305 13.2597 97.3281 13.6278C97.4154 13.7093 97.4036 14.3313 97.432 14.7413C97.5122 14.9394 97.5664 15.2888 97.5782 15.8572C97.4957 15.9574 97.4791 15.4425 97.4272 15.7244C97.439 16.1251 97.4107 16.2952 97.4013 16.584C97.4626 16.8496 97.5145 17.1664 97.5924 17.3341C97.6254 17.3248 97.6113 17.022 97.6585 17.0919C97.6773 17.1012 97.6962 17.1408 97.7151 17.1967C97.7222 17.2829 97.7269 17.39 97.7293 17.5624C97.734 17.6859 97.7316 17.8024 97.7269 17.9258C97.6939 17.6719 97.6302 17.5834 97.5499 17.5764C97.4933 18.0703 97.5263 18.3289 97.5004 18.9252C97.6113 18.9276 97.616 19.4168 97.5877 19.9293C97.5853 19.9269 97.583 19.9293 97.5806 19.9246C97.5877 20.5769 97.5806 21.1802 97.5759 21.751C97.5311 22.0305 97.498 22.3823 97.5051 22.9856C97.557 23.179 97.583 23.5214 97.6231 23.7893C97.6254 23.8266 97.6278 23.8639 97.6302 23.8988C97.6396 24.0456 97.6608 24.1201 97.6844 24.1807C97.642 24.5138 97.5193 24.84 97.5594 25.2011C97.6042 25.0986 97.6302 25.4363 97.7104 25.2104C97.7552 25.413 97.8779 25.5831 97.9369 25.3641C97.9558 25.3897 97.9794 25.3967 98.0053 25.3781C98.069 24.9052 97.9982 24.4207 97.9534 23.8522C97.9605 23.8546 97.9652 23.8616 97.9747 23.8709C97.9982 23.2582 97.9109 23.2652 97.9133 22.7597C97.8708 22.6059 97.8331 22.4265 97.7977 22.2448C97.8095 21.7556 97.8236 21.2804 97.8071 20.6701C97.8354 20.7493 97.8638 20.7749 97.8803 20.6677C97.852 20.6561 97.8755 20.4581 97.885 20.2298C97.8968 20.1669 97.9086 20.104 97.9227 20.0388C97.944 19.2304 97.9794 18.5408 97.9204 17.9282C97.9676 17.4949 97.9605 16.8496 97.9534 16.188C97.8944 15.8059 97.7906 15.6662 97.7694 15.0861C97.7859 15.0698 97.8 15.0442 97.8166 15.0069C97.8166 14.7926 97.8236 14.6249 97.8402 14.5154C97.826 14.4665 97.8142 14.3966 97.8048 14.3197C97.8354 14.3104 97.8614 14.2754 97.8472 14.0774C97.8614 13.6674 97.8 13.6697 97.7646 13.5253C97.7623 13.3669 97.7623 13.2038 97.7599 13.0361C97.7104 12.675 97.7033 12.0903 97.6656 11.671C97.7245 11.5778 97.7694 11.431 97.8 11.2237C97.8 10.7485 97.7694 10.4503 97.7316 10.1917C97.7316 10.1591 97.7316 10.1218 97.7316 10.0869C98.364 10.4573 99.4895 11.1166 99.4895 11.1166C99.9307 11.6291 100.363 12.1276 100.787 12.6191C100.813 13.1759 100.844 13.7163 100.879 14.2288C100.912 16.817 101.061 19.8687 101.082 21.6508C101.068 21.9234 101.018 22.0049 101.018 22.366C101.092 22.8156 100.974 23.3164 101.066 23.6775C100.997 23.7055 101.044 24.3112 101.061 24.402C101.146 24.5395 100.993 24.6093 101.028 24.9774C101.179 24.9658 101.151 25.7951 101.221 26.1632C101.394 25.6343 101.297 24.6257 101.297 23.8546C101.297 23.5983 101.332 23.3514 101.33 23.1347C101.328 22.8412 101.306 22.6502 101.306 22.4056C101.311 21.7277 101.335 21.0638 101.323 20.3789C101.382 20.2694 101.276 19.7755 101.273 19.503C101.358 19.6614 101.328 19.1885 101.335 18.9322C101.21 17.1548 101.221 14.718 101.063 13.0967C101.061 13.0408 101.061 12.9872 101.059 12.9336C102.198 14.2475 103.284 15.4938 104.345 16.7121C104.371 17.4716 104.4 18.2031 104.43 18.9089C104.393 19.7173 104.437 19.652 104.43 20.7306C104.435 21.5809 104.36 22.2658 104.374 23.8569C104.357 24.232 104.329 24.4929 104.286 24.6373C104.242 24.8307 104.294 25.9116 104.199 25.6786C104.171 28.8957 104.067 31.577 104.143 34.0138C104.154 34.7639 104.265 34.6288 104.286 35.316C104.353 36.0288 104.353 37.3264 104.518 37.1377C104.617 35.9636 104.508 34.7452 104.489 33.2334C104.489 32.4436 104.345 32.9818 104.345 32.1897C104.367 30.375 104.442 29.0728 104.433 26.9808C104.489 26.7199 104.534 26.3309 104.577 25.9395C104.621 24.2483 104.68 22.8039 104.633 21.5134C104.697 20.6072 104.709 19.2514 104.721 17.8699C104.699 17.5415 104.666 17.2992 104.638 17.0453C104.935 17.3854 105.233 17.7255 105.528 18.0633C106.219 18.8553 106.91 19.6427 107.599 20.4255C107.583 20.5629 107.564 20.6817 107.533 20.7586C107.58 21.122 107.514 21.4062 107.465 21.6904C107.481 22.2122 107.469 22.2029 107.427 22.6269C107.486 23.8685 107.543 25.1172 107.649 26.1958C107.682 28.0594 107.83 30.2562 107.852 31.5374C107.838 31.7355 107.788 31.7937 107.788 32.0523C107.861 32.3761 107.743 32.7372 107.835 32.9957C107.767 33.0167 107.814 33.4523 107.83 33.5176C107.915 33.6177 107.762 33.6667 107.797 33.9322C107.948 33.9229 107.92 34.5216 107.991 34.7872C108.163 34.4075 108.066 33.6806 108.066 33.1239C108.066 32.9398 108.102 32.7605 108.099 32.6044C108.097 32.3924 108.076 32.2549 108.076 32.0802C108.081 31.591 108.104 31.1135 108.092 30.6219C108.151 30.5427 108.045 30.1886 108.043 29.9906C108.128 30.1048 108.097 29.7623 108.104 29.5783C107.979 28.297 107.991 26.5452 107.833 25.3781C107.793 24.0852 107.729 23.4516 107.724 22.1307C107.788 21.7207 107.816 21.0638 107.854 20.7865C107.856 20.7702 107.859 20.7446 107.861 20.7143C108.937 21.9373 109.999 23.1464 111.032 24.3275C111.039 24.7841 111.068 24.9867 111.089 25.3292C111.134 26.1352 111.115 26.7409 111.089 27.5096C111.122 28.0524 111.16 28.5626 111.205 29.0495C111.167 29.4478 111.212 29.4152 111.205 29.9464C111.209 30.3657 111.134 30.7035 111.148 31.4862C111.131 31.6702 111.103 31.7984 111.061 31.8706C111.016 31.9661 111.068 32.4972 110.973 32.3831C110.945 33.9695 110.841 35.2904 110.917 36.4901C110.929 36.8605 111.039 36.7929 111.061 37.1307C111.127 37.4825 111.127 38.1208 111.292 38.0276C111.391 37.4499 111.282 36.8488 111.264 36.1034C111.264 35.7143 111.12 35.9799 111.12 35.5885C111.141 34.694 111.216 34.0534 111.207 33.0214C111.264 32.8932 111.308 32.6999 111.351 32.5089C111.396 31.6749 111.455 30.9644 111.408 30.3284C111.471 29.8811 111.483 29.2149 111.495 28.5323C111.438 28.106 111.313 27.9756 111.323 27.2487C111.311 26.9389 111.375 26.9692 111.351 26.6081C111.396 26.5965 111.45 26.6244 111.438 26.3519C111.469 25.8743 111.377 25.9372 111.351 25.7112C111.334 25.4457 111.29 25.2966 111.264 25.0706C111.278 24.7934 111.247 24.7165 111.235 24.5558C112.009 25.4433 112.767 26.3169 113.496 27.1695C113.831 27.5376 114.163 27.908 114.496 28.2807C114.539 28.5486 114.529 29.1054 114.506 29.6505C114.543 29.8043 114.56 30.1281 114.633 29.9999C114.671 30.2143 114.765 30.8712 114.805 30.5241C114.763 30.5008 114.831 29.958 114.808 29.5061C114.768 29.3034 114.737 29.0565 114.701 28.8189C114.711 28.749 114.716 28.6511 114.72 28.537C115.61 29.5433 117.427 31.6423 117.427 31.6423C117.427 31.6423 117.774 31.7634 117.941 31.8217C117.922 32.0173 117.903 32.248 117.91 32.5881C117.894 32.7325 117.866 32.835 117.823 32.8909C117.778 32.9655 117.83 33.3848 117.736 33.2939C117.708 34.5402 117.604 35.5816 117.679 36.525C117.691 36.8162 117.802 36.7626 117.823 37.0305C117.889 37.3078 117.889 37.8109 118.054 37.7364C118.153 37.2821 118.045 36.8092 118.026 36.2222C118.026 35.917 117.882 36.1243 117.882 35.8192C117.903 35.1156 117.979 34.6101 117.969 33.7994C118.026 33.6993 118.071 33.5479 118.113 33.3964C118.153 32.835 118.196 32.3481 118.179 31.9055C119.199 32.2596 120.244 32.6184 121.329 32.9771C121.327 33.0307 121.325 33.0866 121.325 33.1588C121.398 33.634 121.28 34.1582 121.372 34.5379C121.303 34.5682 121.351 35.2042 121.367 35.2997C121.452 35.4441 121.299 35.5187 121.334 35.9054C121.485 35.8937 121.457 36.765 121.528 37.154C121.7 36.5972 121.603 35.5373 121.603 34.7243C121.603 34.4541 121.639 34.1955 121.636 33.9672C121.634 33.6573 121.613 33.457 121.613 33.2008C121.613 33.1565 121.613 33.1146 121.615 33.0703C121.978 33.1891 122.342 33.3079 122.712 33.4267C123.219 33.5828 123.887 33.8088 124.595 34.0534C124.588 34.2234 124.586 34.4168 124.588 34.6497C124.659 34.9409 124.675 35.5699 124.76 35.7772C124.732 36.143 124.6 36.4924 124.638 36.8861C124.678 36.7836 124.701 37.1237 124.774 36.8954C124.824 37.154 124.991 37.3637 125.01 36.7859C124.968 36.0288 124.84 35.8005 124.8 35.0364C124.838 35.2042 124.885 35.33 124.897 35.6631C124.944 35.6701 124.956 35.4534 125.015 35.5466C125.036 34.9293 124.956 34.9363 124.961 34.4261C124.94 34.3446 124.921 34.2537 124.904 34.1605C125.949 34.5216 127.04 34.9037 127.816 35.1459C127.802 35.514 127.797 35.8634 127.83 36.1942C127.842 36.4225 127.953 36.3829 127.974 36.5926C128.04 36.8116 128.04 37.2076 128.205 37.1493C128.304 36.7906 128.196 36.4179 128.177 35.9566C128.177 35.7143 128.033 35.8797 128.033 35.6375C128.038 35.4884 128.047 35.3533 128.059 35.2205C128.099 35.2321 128.144 35.2461 128.182 35.2577C130.73 36.2059 132.195 36.511 131.287 36.0917C128.097 34.8105 124.128 33.6434 120.961 32.5485ZM53.6128 31.5631C53.6105 31.5607 53.6105 31.5607 53.6081 31.5584C53.6105 31.5561 53.6105 31.5561 53.6128 31.5538C53.6128 31.5561 53.6128 31.5584 53.6128 31.5631ZM53.7237 33.5805C53.719 33.5525 53.7143 33.5292 53.7096 33.5083C53.7119 33.4221 53.7143 33.3359 53.7167 33.2497C53.752 33.3335 53.7709 33.485 53.7237 33.5805ZM83.9236 9.16671C83.9188 9.18302 83.9165 9.22495 83.9094 9.2599C83.9 8.89183 83.9118 8.48182 83.9472 8.24421C83.9519 8.24188 83.9566 8.24887 83.9613 8.25353C83.9731 8.3933 83.9825 8.53773 83.9873 8.72876C83.9542 8.86154 83.9424 9.07586 83.9236 9.16671ZM84.0722 9.23427C84.0769 9.43694 84.0887 9.59535 84.0934 9.80501C84.0675 9.85393 84.0439 9.77706 84.0203 9.71183C84.0203 9.70251 84.0179 9.69319 84.0179 9.68388C84.0439 9.55342 84.0392 9.35075 84.0722 9.23427ZM97.4721 13.0198C97.4485 12.8497 97.4367 12.6028 97.4367 12.3582C97.4508 12.5818 97.4697 12.7403 97.4862 12.9243C97.4791 12.9476 97.4744 12.9779 97.4721 13.0198ZM97.6042 12.1858C97.6042 12.1788 97.6042 12.1718 97.6042 12.1672C97.6042 12.1742 97.6042 12.1788 97.6042 12.1858Z" fill="#626669"/>
<path d="M84.0816 19.5195C84.0155 19.8899 83.9565 20.3069 83.9683 21.2015C84.0462 21.5323 84.0651 22.2474 84.1594 22.4827C84.1288 22.8974 83.9825 23.2957 84.0249 23.7407C84.0698 23.6242 84.0957 24.0109 84.176 23.75C84.2326 24.0435 84.4143 24.2835 84.4355 23.6265C84.3907 22.7669 84.2491 22.506 84.2043 21.6394C84.2467 21.8305 84.2963 21.9749 84.3104 22.3499C84.3624 22.3569 84.3742 22.1123 84.4402 22.2172C84.4638 21.516 84.3765 21.523 84.3789 20.9452C84.2751 20.5073 84.1995 19.8829 84.0816 19.5195Z" fill="#626669"/>
<path d="M114.522 31.6914C114.456 32.1364 114.397 32.6419 114.409 33.7205C114.487 34.1211 114.505 34.9807 114.6 35.2649C114.569 35.7635 114.423 36.2457 114.465 36.7815C114.51 36.6394 114.536 37.1076 114.616 36.7931C114.673 37.1472 114.855 37.4361 114.876 36.644C114.831 35.6074 114.69 35.2929 114.645 34.2493C114.687 34.4799 114.737 34.6523 114.751 35.1065C114.803 35.1135 114.815 34.82 114.881 34.9458C114.904 34.1002 114.817 34.1095 114.819 33.4129C114.715 32.8841 114.64 32.1294 114.522 31.6914Z" fill="#626669"/>
<path d="M63.8699 26.2285C63.8416 26.1656 63.8275 26.0794 63.8039 26.0072C63.8015 25.9956 63.8015 25.9816 63.7992 25.97C63.8605 25.928 63.8393 25.6858 63.8157 25.4947C63.8345 25.4947 63.8463 25.4481 63.8534 25.3783C63.8652 25.355 63.877 25.327 63.8841 25.2967C63.877 25.1942 63.8652 25.0964 63.8629 24.9846C63.9856 24.7632 63.9313 24.2624 63.8298 24.111C63.8345 24.0551 63.8747 23.9642 63.8841 23.8664C63.9053 23.68 63.8888 23.4564 63.9195 23.277C63.8983 23.1931 63.8699 23.0138 63.9006 22.9345C63.8935 22.9182 63.8865 22.8996 63.8841 22.881C63.8817 22.846 63.8794 22.8134 63.877 22.7831C63.8794 22.7365 63.8865 22.683 63.8959 22.6224C63.8817 22.5874 63.8652 22.5618 63.8463 22.5409C63.8298 22.443 63.8133 22.3522 63.7992 22.2357C63.785 22.0726 63.7708 21.9189 63.7567 21.7558C63.7661 21.5438 63.6741 21.4599 63.7142 21.3551C63.7567 21.4949 63.8463 21.6533 63.8652 21.2829C63.8487 20.7308 63.6576 20.2695 63.5962 20.8706C63.5915 21.2107 63.667 21.1361 63.6694 21.4297C63.6835 21.8886 63.6175 21.5345 63.6222 21.8233C63.634 22.1052 63.7142 22.033 63.7095 22.3848C63.6576 22.4011 63.6434 22.6177 63.6316 22.8577C63.6411 23.0743 63.693 23.058 63.6906 23.3376C63.6505 23.1256 63.6175 23.4144 63.5844 23.4913C63.6387 23.4354 63.6128 23.7662 63.5679 23.6497C63.5561 24.1086 63.5443 24.4045 63.608 24.6048C63.542 24.8797 63.608 25.1383 63.6293 25.4179C63.608 25.4668 63.5774 25.4924 63.5774 25.5833C63.5703 25.7813 63.5821 25.9467 63.608 26.0841C63.6151 26.2961 63.6104 26.4988 63.6222 26.7364C63.6104 26.7667 63.5962 26.7969 63.5844 26.8296C63.6151 26.9111 63.6033 26.9973 63.6104 27.1091C63.5986 27.1813 63.5844 27.2489 63.5844 27.384C63.6033 27.4003 63.6151 27.4562 63.6245 27.5308C63.6175 27.5634 63.6104 27.5983 63.6057 27.6379C63.6033 27.8383 63.6198 28.0037 63.6009 28.2296C63.6222 28.3857 63.6222 28.4649 63.6033 28.6024C63.6293 28.6792 63.6387 28.7841 63.6529 28.8819C63.6505 29.045 63.6387 29.1475 63.634 29.2919C63.6599 29.3967 63.6835 29.5109 63.7118 29.6111C63.7118 29.6297 63.7095 29.6483 63.7095 29.6646C63.7307 29.7438 63.7284 29.8626 63.7331 29.9721C63.7213 30.0863 63.7166 30.1818 63.7142 30.2773C63.7001 30.3915 63.6906 30.5079 63.6505 30.5615C63.6741 30.671 63.6387 30.7549 63.6104 30.8387C63.6175 30.9948 63.6104 30.9902 63.5844 31.1159C63.6104 31.4863 63.6363 31.8591 63.6906 32.1806C63.6953 32.4042 63.7095 32.6441 63.726 32.8748C63.7142 33.0169 63.7071 33.1916 63.7095 33.4245C63.7378 33.5177 63.7543 33.6668 63.7708 33.8066C63.759 33.8415 63.7425 33.8672 63.7425 33.9277C63.7826 34.0256 63.7142 34.1304 63.7638 34.2096C63.726 34.2143 63.7496 34.3447 63.759 34.3657C63.8039 34.396 63.7213 34.4099 63.7402 34.4891C63.7543 34.4891 63.7638 34.4961 63.7732 34.5055C63.7496 34.6196 63.7331 34.7361 63.7472 34.8595C63.7779 34.7943 63.7968 35.011 63.8534 34.8642C63.8912 35.0296 64.0186 35.1647 64.0351 34.7943C64.0092 34.4076 63.9431 34.2329 63.9006 33.9324C63.903 33.8858 63.9053 33.8392 63.9077 33.7926C63.9266 33.8625 63.9431 33.9417 63.9478 34.0745C63.9832 34.0791 63.9926 33.9394 64.0375 33.9999C64.054 33.6039 63.9926 33.6086 63.995 33.2824C63.9549 33.145 63.9195 32.9749 63.8817 32.8142C63.8581 32.509 63.8487 32.1829 63.7921 31.9406C63.785 31.7845 63.7756 31.6611 63.7685 31.5423C63.7897 31.6191 63.8039 31.7426 63.8511 31.6867C63.877 31.7869 63.9431 32.0944 63.9714 31.9313C63.9431 31.922 63.9903 31.6657 63.9738 31.4561C63.9454 31.3606 63.9242 31.2464 63.9006 31.1346C63.9195 31.0414 63.9195 30.855 63.9171 30.6594C63.9431 30.5895 63.962 30.4707 63.9926 30.4241C63.9926 30.3449 63.9926 30.2657 63.9926 30.1865C63.9502 29.8091 63.9077 29.4247 63.877 28.9891C63.8322 28.8027 63.7708 28.4206 63.8039 28.2692C63.8463 28.3624 63.8817 28.3647 63.9242 28.2762C63.9242 28.1388 63.9289 28.0293 63.9407 27.9594C63.8912 27.7987 63.8865 27.4073 63.8841 27.0043C63.8723 26.9274 63.8652 26.8319 63.8581 26.7317C63.8723 26.7154 63.8841 26.6968 63.8865 26.6618C63.9761 26.6385 64.0139 26.4964 64.0965 26.4592C64.1059 26.3171 64.0705 26.2542 64.0422 26.175C63.9667 26.1447 63.9171 26.3008 63.8699 26.2285ZM63.6883 26.5267C63.6812 26.5593 63.6741 26.5896 63.6647 26.6199C63.6623 26.5081 63.6647 26.3939 63.6717 26.2938C63.6741 26.2984 63.6765 26.3031 63.6765 26.3077C63.6623 26.4149 63.6977 26.4289 63.6883 26.5267ZM63.8865 30.1934C63.8817 30.0723 63.8794 29.9465 63.8817 29.8114C63.9006 29.9279 63.9053 30.0746 63.8865 30.1934ZM63.7638 31.491C63.752 31.3373 63.7449 31.1858 63.7449 30.9785C63.7496 30.9599 63.7543 30.9389 63.759 30.9179C63.7803 31.0437 63.7756 31.2674 63.7638 31.491ZM63.7449 26.953C63.7638 26.9251 63.7685 26.8645 63.7708 26.8435C63.7732 26.8296 63.7803 26.8202 63.785 26.8109C63.7874 26.8715 63.7921 26.9321 63.7944 27.002C63.7779 27.0276 63.7614 26.9903 63.7449 26.953Z" fill="#626669"/>
<path d="M63.568 23.5728C63.5727 23.5518 63.5609 23.4516 63.5538 23.4936C63.5491 23.5145 63.5609 23.6147 63.568 23.5728Z" fill="#626669"/>
<path d="M27.8474 47.2387C27.9842 47.3738 27.9842 48.4524 27.8025 48.5875C27.2575 48.6784 26.7101 48.7669 26.3019 48.902C25.4383 49.1723 25.2094 49.7547 25.1646 51.0592C25.1197 52.408 25.0725 55.1918 25.1646 56.0468C25.2094 56.72 25.3014 56.946 26.3019 57.349C26.3467 57.4841 26.257 58.1574 26.165 58.2925C24.6643 58.7421 20.2048 60 16.2455 60C5.59684 60 0 54.698 0 45.219C0 39.288 3.04853 34.6615 8.0083 32.46C10.5566 31.2929 13.3314 30.7525 16.8826 30.7525C20.5682 30.7525 23.1613 31.4723 25.8913 31.7402C25.5279 33.4035 25.1174 36.8606 25.0725 38.8826C24.9357 39.1062 23.7984 39.1971 23.5719 39.0177C23.2085 35.6492 22.6611 34.3912 21.3421 33.6271C19.9311 32.8188 18.1119 32.3692 15.153 32.3692C8.05549 32.3692 4.64123 37.3567 4.64123 44.7228C4.64123 52.4499 8.82706 58.4253 17.0642 58.4253C18.3384 58.4253 19.4757 58.2459 20.1128 57.8405C20.7498 57.526 21.0236 56.7177 21.1132 55.9536C21.2501 54.5605 21.2501 52.8995 21.2052 51.3714C21.1132 49.8898 20.8419 49.3493 19.5205 48.9906C18.7018 48.8112 17.883 48.7203 16.472 48.541C16.2455 48.4058 16.3351 47.3738 16.5168 47.2387C17.9278 47.2387 20.1104 47.3738 22.8876 47.3738C25.5704 47.3738 26.9366 47.2853 27.8474 47.2387ZM64.5973 58.4416C64.7129 58.5278 64.6256 59.1894 64.5383 59.2755C63.8092 59.2476 62.2944 59.1894 61.0131 59.1894C59.5856 59.1894 57.7806 59.2476 57.1671 59.2755C57.0798 59.1614 57.0515 58.5557 57.1671 58.4416C57.7499 58.3833 58.3327 58.2692 58.7409 58.1247C59.1491 57.9524 59.1774 57.6658 59.0901 57.4049C58.7409 56.1679 57.8372 53.7522 57.3417 52.4593C57.3134 52.3731 57.1388 52.2589 57.0798 52.2589C56.6433 52.231 55.6239 52.2589 54.312 52.2589C52.4763 52.2589 52.2451 52.231 51.9242 52.2589C51.8085 52.2589 51.6339 52.4313 51.6339 52.5175C51.0228 54.0713 50.0908 56.4871 50.0601 57.1766C50.0318 57.6658 50.0601 58.0106 50.9638 58.2109C51.3437 58.2971 51.7496 58.3554 52.363 58.4416C52.4503 58.5557 52.3914 59.1614 52.3041 59.2755C51.7212 59.2755 51.0511 59.1894 48.9535 59.1894C48.0215 59.1894 45.9238 59.2755 45.1074 59.2755C43.5643 59.2755 42.8635 58.7863 41.7876 57.6355C40.6809 56.3403 38.7579 53.4377 37.6513 51.8839C37.4484 51.5973 37.1841 51.4529 36.9528 51.4529C36.5446 51.4249 35.2917 51.4249 34.8835 51.4249C34.8245 51.4249 34.7679 51.5694 34.7679 51.5973C34.7679 53.1791 34.7679 55.8534 34.8269 56.8039C34.8859 57.7823 35.0888 58.0409 35.7589 58.1853C36.1954 58.2715 36.7193 58.3577 37.3894 58.4439C37.5357 58.558 37.4767 59.1637 37.3304 59.2779C36.7193 59.2779 35.3484 59.1917 33.456 59.1917C31.5613 59.1917 30.3107 59.2779 29.7562 59.2779C29.6099 59.1637 29.6099 58.558 29.7562 58.4439C30.398 58.3577 30.8629 58.2995 31.2427 58.2133C31.9412 58.0688 32.1748 57.7241 32.2338 56.6315C32.2621 55.9699 32.2927 52.0586 32.2927 50.4768C32.2927 47.5439 32.2927 44.6669 32.2644 43.7747C32.2361 42.9686 32.0308 42.6239 31.3017 42.4515C30.8652 42.3653 30.3107 42.2791 29.7279 42.2209C29.6123 42.1067 29.6689 41.4731 29.7869 41.4148C30.4853 41.4148 32.2338 41.501 33.1375 41.501C35.2917 41.501 36.8372 41.4428 38.0028 41.4428C41.41 41.4428 43.1891 43.5138 43.1891 45.9295C43.1891 48.2591 41.6743 49.7267 39.8692 50.5024C39.8103 50.5607 39.7819 50.6469 39.8103 50.7028C40.8296 52.3125 43.2174 55.476 44.645 56.9437C45.3151 57.6332 46.0135 58.1224 47.0635 58.1527C47.6463 58.1247 47.9672 57.9524 48.491 56.7154C49.9775 53.235 53.1228 44.9814 53.7623 43.169C53.9652 42.5353 54.1988 41.8738 54.2578 41.4731C54.3734 41.4731 54.6943 41.501 55.1898 41.501C55.7726 41.501 56.0628 41.4731 56.1808 41.4731C56.2681 41.904 56.4427 42.4515 56.6173 42.9966C57.2001 44.6366 60.4327 53.7242 61.452 56.112C62.3274 58.0386 62.5303 58.183 64.5973 58.4416ZM40.5653 46.6796C40.5653 44.0053 39.1661 42.4235 36.0491 42.4235C35.8155 42.4235 35.32 42.4515 35.0298 42.568C34.9425 42.6262 34.8269 42.8545 34.8269 42.9989C34.7679 43.9773 34.7679 47.8887 34.7679 50.132C34.7679 50.1903 34.8269 50.2765 34.8835 50.2765C36.8655 50.3347 38.1161 50.2765 38.6423 50.0458C39.5767 49.6405 40.5653 48.6644 40.5653 46.6796ZM56.7636 50.6772C56.1525 48.895 55.0742 45.7315 54.5787 44.5225C54.5503 44.4945 54.463 44.4945 54.4324 44.5225C53.9369 45.9598 52.7712 49.1816 52.2474 50.6772C52.2474 50.7913 52.2757 50.8775 52.363 50.9078C52.6533 50.9357 53.5853 50.9357 54.7226 50.9357C55.421 50.9357 56.353 50.9357 56.6456 50.9078C56.7046 50.9078 56.7919 50.7913 56.7636 50.6772ZM77.0109 41.5034C75.9915 41.5034 74.6796 41.4451 73.8066 41.4172C73.6603 41.4754 73.6037 42.0788 73.7193 42.2232C74.3611 42.3373 74.7103 42.3676 75.0878 42.4538C75.9042 42.6262 75.9325 43.0292 75.6706 43.5743C75.1161 44.8975 73.0775 48.5503 72.0582 50.1879C72.0299 50.2159 71.9119 50.2159 71.8836 50.2159C71.2724 49.2095 68.9695 44.837 68.2121 43.2272C68.0092 42.8242 68.0375 42.5377 68.415 42.4212C68.618 42.363 69.1441 42.2768 69.4627 42.2209C69.609 42.1067 69.5783 41.501 69.4343 41.4148C69.0851 41.4428 67.1904 41.501 66.2018 41.501C64.8616 41.501 63.3184 41.4148 62.5893 41.4148C62.4737 41.529 62.443 42.1044 62.5303 42.2209C63.1414 42.3071 63.5213 42.335 63.8705 42.4212C64.9182 42.6798 65.1824 42.9104 66.3174 44.8649C67.483 46.9638 69.2008 50.1274 69.8142 51.5088C69.9605 51.8536 70.0478 52.4872 70.0478 52.8902C70.0478 54.1272 70.0478 55.1918 70.0195 56.6012C69.9912 57.4934 69.8166 57.9826 69.0285 58.183C68.533 58.2971 67.8063 58.3833 67.0465 58.4695C66.9309 58.5557 66.9309 59.1894 67.0465 59.2755C67.8629 59.2755 69.1724 59.1894 71.2418 59.1894C72.9312 59.1894 74.5333 59.2755 75.2624 59.2755C75.3781 59.1894 75.437 58.586 75.3497 58.4695C74.564 58.3833 74.0378 58.3251 73.573 58.2109C72.7873 58.0385 72.641 57.5773 72.6103 56.3123C72.582 54.8447 72.5513 53.4074 72.5513 52.2869C72.5513 52.0283 72.6669 51.5391 72.7849 51.2805C73.455 49.9853 75.6116 46.2184 76.8622 44.2918C77.6196 43.1131 78.0278 42.6821 78.9009 42.4515C79.3374 42.3653 79.7739 42.2791 80.1255 42.2209C80.2411 42.1347 80.2411 41.4731 80.0971 41.4148C79.1061 41.4731 78.4077 41.5034 77.0109 41.5034ZM106.175 53.6963C106.175 56.084 104.747 57.6938 102.534 58.6419C101.194 59.2173 99.5634 59.3617 98.0179 59.3617C96.706 59.3617 93.2988 59.2173 91.3758 59.2755C91.2295 59.1894 91.2012 58.5278 91.3475 58.4416C91.8713 58.3833 92.716 58.3274 93.2115 58.2109C93.8533 58.0385 94.0562 57.78 94.1435 56.7433C94.2025 55.8231 94.2025 53.2932 94.2025 50.2159C94.2025 46.6214 94.2308 44.7508 94.1742 43.6885C94.1459 42.8825 93.884 42.6239 93.3885 42.4794C92.9803 42.3653 92.2535 42.2791 91.699 42.2209C91.5834 42.1347 91.6117 41.4731 91.7273 41.4148C92.3975 41.4148 93.3885 41.501 95.0779 41.501C96.7673 41.501 97.874 41.4428 99.7687 41.4428C101.748 41.4428 104.896 42.0764 104.896 45.4683C104.896 47.1083 103.761 48.4594 102.072 49.149C102.013 49.1769 102.013 49.2352 102.072 49.2631C104.341 49.7849 106.175 51.1664 106.175 53.6963ZM96.6517 48.923C96.6517 48.9812 96.739 49.0674 96.798 49.0674C97.1189 49.0954 97.789 49.1257 98.6031 49.1257C100.031 49.1257 100.613 48.9812 100.963 48.7809C101.895 48.2334 102.331 47.2271 102.331 46.1066C102.331 43.6046 100.757 42.4538 97.9919 42.4538C97.671 42.4538 97.2628 42.4818 96.9726 42.54C96.857 42.5983 96.739 42.8568 96.739 42.9989C96.7083 43.8329 96.6517 46.88 96.6517 48.923ZM103.466 54.3299C103.466 51.5973 101.484 50.1017 98.1925 50.1017C97.756 50.1017 96.9986 50.1017 96.7933 50.16C96.7343 50.16 96.647 50.2182 96.647 50.2741C96.647 52.0865 96.647 55.5948 96.7343 56.7736C96.7933 57.1487 97.0552 57.6658 97.4044 57.8662C97.8999 58.183 98.9782 58.2692 99.6483 58.2692C101.982 58.2692 103.466 57.0042 103.466 54.3299ZM126.394 58.4416C126.509 58.5278 126.422 59.1614 126.335 59.2755C125.577 59.2476 124.091 59.1894 122.781 59.1894C121.354 59.1894 119.577 59.2476 118.966 59.2755C118.879 59.1614 118.82 58.5557 118.938 58.4416C119.577 58.3554 120.103 58.2692 120.54 58.1247C120.917 57.9524 120.948 57.6658 120.861 57.4049C120.511 56.1679 119.638 53.7522 119.112 52.4593C119.084 52.3731 118.909 52.2589 118.85 52.2589C118.442 52.231 117.423 52.2589 116.111 52.2589C114.247 52.2589 114.044 52.231 113.692 52.2589C113.577 52.2589 113.43 52.4313 113.402 52.5175C112.819 54.0713 111.887 56.4871 111.828 57.1766C111.8 57.6658 111.857 57.9826 112.76 58.2109C113.11 58.2971 113.605 58.3833 114.16 58.4416C114.247 58.5557 114.188 59.1614 114.101 59.2755C113.489 59.2755 112.003 59.1894 110.372 59.1894C108.711 59.1894 107.81 59.2755 107.256 59.2755C107.14 59.1614 107.14 58.5557 107.256 58.4416C109.353 58.183 109.702 57.9826 110.663 55.7672C112.149 52.2869 114.886 44.9534 115.528 43.1131C115.762 42.5097 115.965 41.8761 116.024 41.4731C116.139 41.4731 116.491 41.501 116.986 41.501C117.569 41.501 117.859 41.4731 117.947 41.4731C118.062 41.904 118.209 42.4212 118.414 42.9686C118.997 44.6087 122.229 53.7242 123.249 56.112C124.093 58.0386 124.296 58.183 126.394 58.4416ZM118.527 50.6772C117.944 48.895 116.838 45.7012 116.373 44.4642C116.344 44.4642 116.257 44.4363 116.227 44.4922C115.731 45.9295 114.537 49.1792 114.042 50.7051C114.042 50.8193 114.07 50.8775 114.157 50.9054C114.447 50.9334 115.382 50.9334 116.488 50.9334C117.187 50.9334 118.15 50.9334 118.44 50.9054C118.499 50.9078 118.586 50.7913 118.527 50.6772ZM175.864 32.6837C175.045 32.8188 174.453 32.9539 173.861 33.1333C172.679 33.5386 172.405 34.347 172.313 35.5583C172.039 39.0177 172.086 44.7671 171.95 53.2583C171.95 55.3246 171.994 57.9314 172.042 59.413C171.541 59.3687 169.448 59.3687 168.901 59.413C166.49 55.9979 153.975 40.5436 151.245 37.175C151.2 37.1308 151.063 37.175 151.063 37.2193C150.971 41.8458 150.971 52.3591 151.108 54.875C151.2 56.6711 151.79 57.3001 152.974 57.5703C153.656 57.7939 154.567 57.8848 155.704 58.0199C155.886 58.1993 155.749 59.1428 155.612 59.3221C154.52 59.3221 152.471 59.187 149.923 59.187C147.148 59.187 146.193 59.3012 145.237 59.3012C143.984 59.3594 141.655 59.2732 140.577 58.7537C140.141 58.5534 139.673 58.2063 139.178 57.6029C138.071 56.3077 136.294 53.433 135.188 51.8792C134.985 51.5927 134.692 51.4482 134.459 51.4482C134.051 51.39 132.798 51.4203 132.389 51.4203C132.33 51.4203 132.274 51.5647 132.274 51.5927C132.274 53.1744 132.274 55.8488 132.333 56.7992C132.392 57.7776 132.595 58.0362 133.265 58.1807C133.701 58.2668 134.225 58.353 134.895 58.4392C135.042 58.5534 134.983 59.1591 134.836 59.2732C134.282 59.2732 132.885 59.187 130.962 59.187C129.067 59.187 127.817 59.2732 127.262 59.2732C127.116 59.1591 127.116 58.5534 127.262 58.4392C127.904 58.353 128.369 58.2948 128.749 58.2086C129.447 58.0642 129.681 57.7194 129.74 56.6268C129.768 55.9652 129.799 52.0539 129.799 50.4721C129.799 47.5392 129.799 44.6622 129.77 43.77C129.742 42.964 129.537 42.6192 128.808 42.4468C128.371 42.3606 127.817 42.2744 127.234 42.2162C127.118 42.1021 127.175 41.4684 127.293 41.4102C127.991 41.4102 129.74 41.4964 130.643 41.4964C132.798 41.4964 134.312 41.4381 135.478 41.4381C138.885 41.4381 140.693 43.4509 140.693 45.8666C140.693 48.2824 139.119 49.7197 137.373 50.4978C137.314 50.556 137.285 50.6422 137.314 50.6981C138.333 52.3078 140.634 55.4714 142.061 56.911C143.062 57.9244 143.515 58.0712 144.664 58.2296C145.726 58.3507 146.374 58.0572 146.938 57.752C147.899 57.2325 148.512 56.713 148.604 54.9612C148.786 52.6247 148.923 45.3029 149.015 35.8682C149.015 35.1949 148.788 34.2049 147.785 33.6667C146.922 33.082 145.919 32.8584 144.145 32.679C144.008 32.5439 144.053 31.5561 144.237 31.421C145.374 31.421 147.649 31.5562 149.926 31.5562C150.836 31.5562 151.61 31.5562 151.974 31.5119C152.155 31.9615 152.429 32.4554 153.611 33.937C158.252 39.6886 167.582 50.9194 169.765 53.4353C169.857 53.4796 169.901 53.4353 169.946 53.3911C169.946 47.2364 169.991 38.836 169.765 35.6003C169.673 34.298 169.401 33.5782 168.035 33.2195C167.216 32.9958 166.216 32.8141 164.987 32.6813C164.805 32.502 164.85 31.5585 164.987 31.4234C166.169 31.4234 168.264 31.5585 171.039 31.5585C172.587 31.5585 175.272 31.4234 175.862 31.4234C176.046 31.5608 176.046 32.5043 175.864 32.6837ZM138.076 46.7076C138.076 44.003 136.677 42.4235 133.56 42.4235C133.326 42.4235 132.831 42.4515 132.54 42.568C132.453 42.6262 132.337 42.8545 132.337 42.9989C132.278 43.9773 132.278 47.8887 132.278 50.132C132.278 50.1903 132.337 50.2765 132.425 50.2765C134.376 50.3347 135.629 50.2765 136.181 50.0458C137.113 49.6125 138.076 48.5782 138.076 46.7076ZM70.088 30.3122C70.298 29.7484 70.4938 29.2126 70.6755 28.9307C70.8548 28.6326 71.0506 28.5301 71.3078 28.5138C71.8788 28.4998 72.9926 28.4998 73.2497 28.5138C73.2946 28.5138 73.3559 28.5743 73.3559 28.6326C73.3559 31.0996 73.3418 34.2794 73.2969 35.4372C73.2828 36.1198 73.2073 36.4179 72.7259 36.5065C72.4994 36.567 72.1242 36.6113 71.6571 36.6555C71.6122 36.7138 71.5981 37.012 71.6571 37.0865C72.0487 37.0865 72.8156 37.0423 73.9293 37.0423C74.8472 37.0423 75.7343 37.0865 76.1709 37.0865C76.2464 37.0562 76.277 36.7301 76.2299 36.6555C75.7037 36.595 75.4465 36.567 75.2058 36.4925C74.859 36.404 74.7386 36.2246 74.6938 35.7051C74.6489 34.948 74.6489 30.8317 74.6489 28.6465C74.6489 28.6023 74.6796 28.5417 74.7245 28.5277C75.0713 28.5137 76.1237 28.5137 76.8315 28.5277C77.117 28.5417 77.2987 28.6605 77.4191 28.9587C77.5394 29.2406 77.6149 29.7601 77.6597 30.2819C77.7046 30.3401 78.0963 30.3401 78.1411 30.2679C78.2166 29.4665 78.3369 28.2761 78.4879 27.7566C78.4738 27.7264 78.3818 27.6821 78.3369 27.6821C77.9004 27.8755 77.5701 27.9057 76.8764 27.9057H71.3078C70.751 27.9057 70.3593 27.8172 70.088 27.6821C70.0573 27.6681 69.9228 27.7124 69.9228 27.7427C69.8921 28.381 69.7411 29.5714 69.6208 30.1934C69.6514 30.2679 70.029 30.3564 70.088 30.3122ZM90.045 36.6579C89.5778 36.6136 89.2923 36.5694 89.0823 36.4948C88.7968 36.4063 88.7071 36.2432 88.6623 35.8262C88.6316 35.3207 88.6316 33.6877 88.6316 32.3948C88.6316 30.6267 88.6316 29.7507 88.6623 29.2289C88.693 28.6931 88.752 28.5301 89.0823 28.4276C89.2781 28.3693 89.533 28.3227 89.8657 28.2785C89.927 28.2202 89.9105 27.922 89.8657 27.8615C89.625 27.8615 88.752 27.9057 87.9993 27.9057C87.2017 27.9057 86.4632 27.8452 86.1187 27.8452C86.0432 27.9197 86.029 28.2156 86.1046 28.2761C86.4962 28.3204 86.7676 28.3647 86.9917 28.4392C87.2017 28.5138 87.2772 28.6908 87.2938 28.9307C87.3244 29.4665 87.3244 31.1438 87.3244 31.9172C87.3244 31.9475 87.2796 32.0058 87.2348 32.0058C87.1003 32.0197 86.5269 32.0197 84.8729 32.036C82.6903 32.036 82.4189 32.0221 82.3151 32.0058C82.2703 31.9918 82.2396 31.9172 82.2396 31.8567C82.2396 30.4007 82.2255 29.6436 82.2538 29.0938C82.2679 28.6186 82.3741 28.4998 82.6761 28.4112C82.8413 28.367 83.1268 28.3227 83.3981 28.2785C83.4571 28.2342 83.4571 27.936 83.4123 27.8615C82.9899 27.8615 82.5393 27.9057 81.5317 27.9057C80.7201 27.9057 79.9674 27.8615 79.6064 27.8615C79.5474 27.9197 79.5309 28.2179 79.5922 28.2785C79.998 28.339 80.2694 28.367 80.4959 28.4415C80.7979 28.5161 80.8876 28.6791 80.9183 29.0961C80.9324 29.364 80.9489 30.9388 80.9489 32.3808C80.9489 33.6737 80.9348 34.9363 80.9348 35.4419C80.89 36.1244 80.8451 36.3923 80.4086 36.5274C80.1986 36.5717 79.9579 36.6159 79.5969 36.6602C79.5521 36.7184 79.5521 37.0306 79.6111 37.0912C79.9131 37.0912 80.7248 37.0469 81.612 37.0469C82.5747 37.0469 83.2825 37.0912 83.568 37.0912C83.627 37.0609 83.6884 36.7348 83.627 36.6602C83.1764 36.5996 82.9498 36.5414 82.7233 36.4808C82.3458 36.376 82.2868 36.1687 82.2561 35.6632C82.242 35.351 82.242 33.6434 82.242 32.8258C82.242 32.8118 82.2561 32.7372 82.2868 32.7372C82.4378 32.7233 83.6719 32.7233 84.8446 32.7233C85.6728 32.7233 86.9516 32.7233 87.2371 32.7372C87.282 32.7372 87.3268 32.7955 87.3268 32.8421C87.3268 33.7785 87.3268 35.3976 87.3126 35.8286C87.282 36.2898 87.1923 36.4366 86.921 36.5111C86.6803 36.5857 86.4538 36.6159 86.0621 36.6602C86.0031 36.7348 86.0031 37.0306 86.0621 37.0912C86.4538 37.0772 87.2065 37.0469 87.9733 37.0469C88.7402 37.0469 89.5377 37.0912 89.9907 37.0912C90.0733 37.0446 90.0898 36.7161 90.045 36.6579ZM93.2493 37.0446C94.8136 37.0446 95.899 37.1052 97.1614 37.1052C97.9141 37.1052 98.0037 37.0306 98.0934 36.8675C98.3199 36.4226 98.6503 35.2928 98.7258 34.8315C98.6668 34.757 98.3647 34.6521 98.2892 34.6684C98.0934 35.1134 97.7772 35.7098 97.5365 35.9753C97.2652 36.3178 97.0694 36.4505 96.4228 36.4669C95.8046 36.4669 94.4975 36.4529 94.1954 36.3783C94.0161 36.3178 93.8486 36.1104 93.8486 35.8146C93.8179 35.1017 93.8179 33.527 93.8179 32.8421C93.8179 32.7978 93.8627 32.7233 93.8934 32.7233C94.4503 32.7093 95.6985 32.7093 96.1515 32.7535C96.4983 32.7838 96.6022 32.9772 96.6635 33.1845C96.7225 33.3639 96.739 33.4827 96.7839 33.7949C96.8594 33.8694 97.2204 33.8554 97.2959 33.7809C97.2817 33.4105 97.2652 32.9795 97.2652 32.4297C97.2652 31.9102 97.3265 31.3302 97.3714 31.032C97.3124 30.9575 96.9655 30.9435 96.8735 30.9877C96.8287 31.2114 96.7673 31.4187 96.7084 31.5818C96.6328 31.8194 96.5267 31.9988 96.1963 32.0267C95.6536 32.071 94.4951 32.071 93.8934 32.057C93.8486 32.057 93.8179 31.9964 93.8179 31.9522C93.8179 31.2836 93.8179 29.6343 93.8321 28.8026C93.8321 28.7281 93.9076 28.551 94.0137 28.5207C94.2096 28.5068 96.0312 28.5068 96.3167 28.5207C96.8145 28.565 96.949 28.7281 97.0694 29.0845C97.1283 29.3081 97.1897 29.5597 97.2345 29.9907C97.2794 30.035 97.6404 30.035 97.7017 29.9604C97.7465 29.3664 97.8527 28.3716 97.9731 27.9244C97.9731 27.9104 97.9282 27.8661 97.9141 27.8498C97.5979 27.8941 96.8145 27.9104 96.2435 27.9104H93.2776C92.4352 27.9104 91.6518 27.8498 91.2767 27.8498C91.2177 27.9244 91.187 28.2062 91.2625 28.2668C91.6094 28.3111 91.8642 28.3553 92.06 28.4159C92.4211 28.5044 92.4824 28.6395 92.5107 29.173C92.5249 29.4409 92.5249 30.7618 92.5249 32.1152C92.5249 33.7949 92.5249 35.4279 92.5107 35.7121C92.4659 36.2316 92.3597 36.4249 91.9987 36.5134C91.7273 36.588 91.3215 36.6183 90.8543 36.6625C90.7953 36.7371 90.8095 37.0492 90.8685 37.0935C91.4867 37.0888 92.2394 37.0446 93.2493 37.0446Z" fill="#626669"/>
</svg>
