<svg width="126" height="49" viewBox="0 0 126 49" fill="none" xmlns="http://www.w3.org/2000/svg">
<path d="M60.8807 28.0596H62.2628V35.6264H66.3609V36.8264H60.877V28.0596H60.8807Z" fill="#626669"/>
<path d="M71.9561 28.0596H73.327V36.8264H71.9561V28.0596Z" fill="#626669"/>
<path d="M78.7363 28.0596H80.2113L82.2065 32.7641C82.4703 33.3439 82.7415 34.3237 82.7415 34.3237C82.7415 34.3237 82.9905 33.3585 83.2617 32.7641L85.2345 28.0596H86.5795L82.7935 36.9181H82.6263L78.7363 28.0596Z" fill="#626669"/>
<path d="M92.0068 28.0596H93.3778V36.8264H92.0068V28.0596Z" fill="#626669"/>
<path d="M101.505 31.7067C101.152 31.3323 100.669 30.7269 100.669 30.7269C100.669 30.7269 100.758 31.4461 100.758 31.9929V36.8258H99.4766V27.9673H99.6623L104.559 33.1635C104.897 33.5231 105.384 34.1433 105.384 34.1433C105.384 34.1433 105.291 33.3727 105.291 32.8773V28.059H106.573V36.9175H106.402L101.505 31.7067Z" fill="#626669"/>
<path d="M112.228 32.4406C112.228 29.8241 114.148 27.9526 116.783 27.9526C118.142 27.9526 119.212 28.3269 119.93 29.1232L119.001 30.0407C118.495 29.5122 117.838 29.1746 116.783 29.1746C114.929 29.1746 113.636 30.5691 113.636 32.4369C113.636 34.3084 114.94 35.7139 116.95 35.7139C117.864 35.7139 118.648 35.4827 119.142 35.1451V33.5965H116.753V32.3966H120.409V35.813C119.837 36.3304 118.607 36.9322 116.95 36.9322C114.186 36.9396 112.228 35.0607 112.228 32.4406Z" fill="#626669"/>
<path d="M24.1946 0.642578C10.8341 0.642578 0 11.3433 0 24.5393C0 37.7353 10.8341 48.436 24.1946 48.436C37.5588 48.436 48.3892 37.7353 48.3892 24.5393C48.3892 11.3433 37.5588 0.642578 24.1946 0.642578ZM17.4252 6.503H19.6135V17.2037H21.5492V6.503H23.7376V29.4603H21.5492V19.5963H19.6135V29.4603H17.4252V6.503ZM30.6408 42.5756H28.5676V34.1171H19.5021V42.5756H17.4252V32.0657H30.6445V42.5756H30.6408ZM30.6408 29.464H25.521V6.50667H27.7391V27.2181H30.6408V29.464Z" fill="#626669"/>
<path d="M60.8799 12.2358H62.262V16.955H66.531V12.2358H67.9131V21.0063H66.531V18.166H62.262V21.0063H60.8799V12.2358Z" fill="#626669"/>
<path d="M77.6106 12.144H77.7667L81.6567 21.0062H80.2225L79.7135 19.7659H75.6526L75.1436 21.0062H73.8135L77.6106 12.144ZM79.2157 18.6173L78.1085 15.8834C77.8855 15.3697 77.6626 14.5807 77.6626 14.5807C77.6626 14.5807 77.4546 15.3697 77.2316 15.8834L76.1244 18.6173H79.2157Z" fill="#626669"/>
<path d="M89.5776 15.8832C89.2247 15.5089 88.7417 14.9034 88.7417 14.9034C88.7417 14.9034 88.8345 15.6226 88.8345 16.1657V21.0023H87.5527V12.1401H87.7348L92.6317 17.34C92.9698 17.6997 93.4565 18.3162 93.4565 18.3162C93.4565 18.3162 93.3636 17.5455 93.3636 17.0538V12.2319H94.6454V21.0904H94.4745L89.5776 15.8832Z" fill="#626669"/>
<path d="M101.229 12.2358H103.673C106.519 12.2358 108.414 13.9899 108.414 16.6174C108.414 19.2522 106.534 21.0063 103.673 21.0063H101.229V12.2358ZM103.577 19.8063C105.888 19.8063 106.972 18.4889 106.972 16.6174C106.972 14.7495 105.891 13.4358 103.577 13.4358H102.611V19.8063H103.577Z" fill="#626669"/>
<path d="M116.469 18.2284L113.1 12.2358H114.63L116.64 15.8468C116.912 16.3385 117.175 17.1091 117.175 17.1091C117.175 17.1091 117.447 16.3385 117.71 15.8468L119.657 12.2358H121.08L117.855 18.155V21.0063H116.469V18.2284Z" fill="#626669"/>
<path d="M122.6 29.7249C122.6 29.4203 122.674 29.1451 122.826 28.8809C122.979 28.624 123.183 28.4185 123.447 28.268C123.71 28.1176 123.989 28.0479 124.298 28.0479C124.766 28.0479 125.167 28.2093 125.501 28.5359C125.832 28.8625 125.999 29.2625 125.999 29.7249C125.999 30.1836 125.832 30.5799 125.501 30.9065C125.171 31.2368 124.769 31.4019 124.298 31.4019C123.829 31.4019 123.432 31.2368 123.097 30.9065C122.763 30.5799 122.6 30.1836 122.6 29.7249ZM125.665 29.7249C125.665 29.3542 125.531 29.035 125.264 28.7708C124.996 28.5066 124.676 28.3745 124.301 28.3745C123.926 28.3745 123.606 28.5066 123.335 28.7708C123.068 29.035 122.938 29.3542 122.938 29.7249C122.938 30.0918 123.071 30.4111 123.335 30.6753C123.603 30.9359 123.926 31.0716 124.301 31.0716C124.676 31.0716 124.996 30.9359 125.264 30.6753C125.527 30.4111 125.665 30.0918 125.665 29.7249ZM125.193 30.6203H124.74C124.558 30.2606 124.431 30.0515 124.353 29.9854C124.279 29.9194 124.197 29.89 124.112 29.89H123.989V30.6239H123.621V28.8405H124.528C124.699 28.8405 124.833 28.8882 124.933 28.9799C125.033 29.0717 125.081 29.1891 125.081 29.3359C125.081 29.4717 125.041 29.5818 124.955 29.6735C124.87 29.7616 124.755 29.8166 124.598 29.835V29.846C124.662 29.8643 124.717 29.8937 124.758 29.9304C124.799 29.9707 124.873 30.0808 124.977 30.2606L125.193 30.6203ZM123.989 29.6038H124.346C124.584 29.6038 124.699 29.5231 124.699 29.3579C124.699 29.1965 124.576 29.1157 124.324 29.1157H123.993V29.6038H123.989Z" fill="#626669"/>
</svg>
