<svg width="274" height="25" viewBox="0 0 274 25" fill="none" xmlns="http://www.w3.org/2000/svg">
<path fill-rule="evenodd" clip-rule="evenodd" d="M48.9893 23.8565V10.2373H37.9541V23.8565H48.9893Z" fill="#626669"/>
<path fill-rule="evenodd" clip-rule="evenodd" d="M43.3418 8.93157C46.4215 8.93157 48.914 7.50917 48.914 5.75695C48.914 4.00472 46.4215 2.58233 43.3418 2.58233C40.262 2.58233 37.7695 4.00472 37.7695 5.75695C37.7695 7.50917 40.262 8.93157 43.3418 8.93157Z" fill="#626669"/>
<path fill-rule="evenodd" clip-rule="evenodd" d="M236.71 23.8565V10.2373H225.675V23.8565H236.71Z" fill="#626669"/>
<path fill-rule="evenodd" clip-rule="evenodd" d="M231.062 8.93157C234.142 8.93157 236.635 7.50917 236.635 5.75695C236.635 4.00472 234.142 2.58233 231.062 2.58233C227.983 2.58233 225.49 4.00472 225.49 5.75695C225.49 7.50917 227.983 8.93157 231.062 8.93157Z" fill="#626669"/>
<path fill-rule="evenodd" clip-rule="evenodd" d="M101.276 2.9672V23.8496H112.571V16.9781C112.571 15.3908 113.882 14.7312 115.07 14.7312C116.252 14.7312 117.433 14.3326 117.433 17.2461V23.8565H127.942V15.1297C127.942 12.8827 127.021 9.66689 121.373 9.57756C117.235 9.50884 113.95 10.6976 112.571 11.426V2.9672H101.276Z" fill="#626669"/>
<path fill-rule="evenodd" clip-rule="evenodd" d="M53.332 10.2372V14.7311H57.0127V19.0945C57.0127 21.0735 58.5901 23.8496 63.5819 23.8496C68.5737 23.8496 70.4106 22.7914 72.1178 22.1317V18.8265C71.3325 19.0945 67.5221 20.675 67.5221 17.5072V14.7311H72.1178V10.2372H67.5221V5.87381H57.0127V10.2372H53.332Z" fill="#626669"/>
<path fill-rule="evenodd" clip-rule="evenodd" d="M97.5956 11.4259C95.1032 9.90735 92.1463 9.30953 87.7418 9.30953C83.3441 9.30953 75.3955 11.2267 75.3955 16.7788C75.3955 22.331 82.354 24.31 86.8268 24.31C91.2927 24.31 96.544 23.3205 97.5956 22.5921V18.7578C96.2845 19.548 86.8268 21.4033 86.8268 16.9712C86.8268 14.5937 90.6372 14.0646 91.7503 14.0646C92.8702 14.0646 96.6123 14.5937 97.5956 15.3221V11.4259Z" fill="#626669"/>
<path fill-rule="evenodd" clip-rule="evenodd" d="M159.402 10.2372V23.8496H170.697V16.9781C170.697 15.3908 172.008 14.4632 173.196 14.4632C175.361 14.4632 175.559 14.5937 175.559 17.2392V23.8496H186.068V15.1228C186.068 12.4773 184.887 9.34392 179.24 9.44012C175.368 9.50883 171.885 10.7594 170.704 11.426V10.2372H159.402Z" fill="#626669"/>
<path fill-rule="evenodd" clip-rule="evenodd" d="M212.004 0.857742H197.684C198.34 0.9883 199.46 2.77488 199.132 3.50326L188.097 23.8566H194.27L196.831 18.703H206.357L208.856 23.8566H223.107L212.004 0.857742ZM198.907 14.532L201.897 8.51943L204.397 14.532H198.907Z" fill="#626669"/>
<path fill-rule="evenodd" clip-rule="evenodd" d="M257.189 2.9672V10.567C255.81 9.90739 252.594 9.30957 250.559 9.30957C247.342 9.30957 240.377 10.4296 240.377 16.449C240.377 22.922 247.206 23.8496 249.903 23.8496C252.594 23.8496 255.68 23.4511 257.189 22.5921V23.8496H267.699V2.9672H257.189ZM257.189 17.1774C257.189 17.7065 256.076 18.4967 254.895 18.4967C253.768 18.4967 251.153 18.7647 251.153 16.2498C251.153 14.4013 253.911 13.673 254.765 13.673C255.619 13.673 257.196 13.8722 257.196 15.1915V17.1774H257.189Z" fill="#626669"/>
<path fill-rule="evenodd" clip-rule="evenodd" d="M146.34 20.2834C144.701 20.2834 142.529 19.9536 141.676 17.4386H156.781C156.781 14.3327 155.469 8.58131 144.305 8.51947C137.606 8.51947 130.907 10.7664 130.838 16.3186C130.77 21.8707 138.063 23.8497 144.824 23.8497C151.591 23.8497 154.609 22.7915 155.531 22.1319L156.125 18.9572C154.814 19.5551 151.331 20.414 146.34 20.2834ZM144.236 12.2232C145.745 12.2232 146.34 12.9516 146.34 14.3396H141.744C141.805 13.2127 142.659 12.2232 144.236 12.2232Z" fill="#626669"/>
<path fill-rule="evenodd" clip-rule="evenodd" d="M0 0.857699V23.8565H11.9502V16.8476C12.8721 16.8476 14.6407 16.2498 16.0884 18.4968L19.4413 23.8496H34.1503L27.5811 13.405C26.6593 12.0857 26.3315 10.7595 22.9171 10.4297L31.3233 0.843956H22.8557L16.4162 8.97291C15.6924 9.83184 16.0201 10.6221 11.9502 10.6221V0.857699H0Z" fill="#626669"/>
<path fill-rule="evenodd" clip-rule="evenodd" d="M273.244 4.02546C272.814 3.59256 272.288 3.37267 271.673 3.37267C271.066 3.37267 270.547 3.59256 270.117 4.02546C269.686 4.45837 269.468 4.98747 269.468 5.59903C269.468 6.21746 269.679 6.74657 270.11 7.17947C270.54 7.61924 271.059 7.83226 271.673 7.83226C272.288 7.83226 272.807 7.61237 273.244 7.17947C273.674 6.73969 273.893 6.21746 273.893 5.59903C273.893 4.9806 273.674 4.45837 273.244 4.02546ZM273.026 6.95958C272.657 7.33751 272.206 7.52304 271.673 7.52304C271.148 7.52304 270.697 7.33751 270.328 6.95958C269.959 6.58165 269.775 6.12813 269.775 5.59216C269.775 5.06306 269.959 4.60954 270.328 4.23848C270.704 3.86055 271.148 3.67502 271.673 3.67502C272.199 3.67502 272.65 3.86055 273.026 4.23848C273.394 4.60954 273.579 5.06306 273.579 5.59216C273.579 6.12813 273.394 6.58852 273.026 6.95958Z" fill="#626669"/>
<path fill-rule="evenodd" clip-rule="evenodd" d="M272.663 6.78091C272.656 6.7603 272.643 6.71907 272.643 6.65035C272.636 6.58851 272.636 6.52667 272.636 6.4717V6.29304C272.636 6.16935 272.588 6.04566 272.499 5.91511C272.41 5.78455 272.274 5.70896 272.076 5.67461C272.226 5.64712 272.342 5.61276 272.431 5.55779C272.588 5.45472 272.67 5.29667 272.67 5.07679C272.67 4.76757 272.547 4.56143 272.294 4.45835C272.151 4.39651 271.932 4.36903 271.632 4.36903H270.778V6.81527H271.215V5.85326H271.55C271.775 5.85326 271.939 5.88075 272.028 5.92885C272.178 6.01818 272.26 6.21058 272.26 6.49231V6.68471L272.267 6.7603C272.267 6.77404 272.274 6.78091 272.274 6.78778C272.274 6.79466 272.281 6.80153 272.281 6.8084H272.684L272.663 6.78091ZM272.007 5.49595C271.919 5.5303 271.782 5.55092 271.598 5.55092H271.215V4.6645H271.577C271.816 4.6645 271.987 4.69198 272.096 4.75383C272.206 4.81567 272.26 4.93249 272.26 5.11114C272.253 5.29667 272.171 5.42723 272.007 5.49595Z" fill="#626669"/>
</svg>
