<svg width="103" height="47" viewBox="0 0 103 47" fill="none" xmlns="http://www.w3.org/2000/svg">
<path d="M0.917969 0.865959V39.2138L7.15287 38.1133V15.9622L21.5814 35.748L25.6277 35.3233V4.72906L19.8112 3.95278V22.4783L5.85623 1.83858L0.917969 0.865959Z" fill="#626669"/>
<path d="M36.4008 33.9626V6.0031L31.5361 5.41405V34.5517L36.4008 33.9626Z" fill="#626669"/>
<path d="M45.9047 6.93477L42.0332 6.59686V33.5381L47.1922 32.9445V17.1907L58.3929 32.1865L62.4806 31.9307V8.2042L57.3216 7.77954V22.1269L45.9047 6.93477Z" fill="#626669"/>
<path d="M91.3841 22.5967H85.0158L88.216 14.4367L91.3841 22.5967ZM85.1997 9.13523L75.9531 31.3321L82.0639 31.0809L83.5352 27.0626H92.8738L94.2808 30.5969H100.06L91.3703 9.28135L85.1997 9.13523Z" fill="#626669"/>
<path d="M70.5497 40.6801C70.5497 40.6801 72.8257 34.5384 72.8257 26.004V8.6292L67.3633 8.37348V25.9994C67.3633 37.9129 63.0273 45.703 63.0273 45.703L70.5497 40.6801Z" fill="#626669"/>
<path d="M73.6671 26.3055C73.6671 34.9404 71.3635 41.1186 71.3405 41.1825L71.2853 41.3286L63.2158 46.6895L64.6228 47L72.1313 41.9953L72.3015 41.5433C72.398 41.283 74.6924 35.0911 74.6924 26.3101V9.62932L73.6717 8.5471V26.3055H73.6671Z" fill="#626669"/>
<path d="M7.92517 17.7114V38.8808L1.34082 40.0772L2.25123 40.9356L8.95052 39.7301V19.2092L7.92517 17.7114Z" fill="#626669"/>
<path d="M26.4684 36.1092L21.9531 36.5978L22.606 37.5293L27.4937 37.027V5.80714L26.4684 5.09936V36.1092Z" fill="#626669"/>
<path d="M37.2426 34.7483L31.7158 35.4104L32.5113 36.3191L38.268 35.6525V6.86188L37.2426 5.93492V34.7483Z" fill="#626669"/>
<path d="M64.3477 9.27269L63.3223 8.09914V32.7389L58.499 33.0175L59.2853 33.9901L64.3477 33.6933V9.27269Z" fill="#626669"/>
<path d="M47.9649 33.7348L41.96 34.3649L42.7646 35.2645L48.9857 34.6389V20.4971L47.9649 18.8578V33.7348Z" fill="#626669"/>
<path d="M86.0127 22.4331H87.1254L88.9554 17.5837L88.5692 15.9444L86.0127 22.4331Z" fill="#626669"/>
<path d="M82.6796 31.908L75.8838 32.1683L76.2286 33.1957L83.4061 32.8943L85.2361 27.8897H84.151L82.6796 31.908Z" fill="#626669"/>
<path d="M92.0459 9.12656L101.155 31.4375L94.5932 31.4604L95.1633 32.4604L102.672 32.4513L93.4943 9.97132L92.0459 9.12656Z" fill="#626669"/>
<path d="M96.2989 11.264H96.4966L96.8138 11.6978H97.0391L96.7127 11.2595C96.7817 11.2595 97.0253 11.1773 97.0253 10.9353C97.0253 10.7298 96.8184 10.6019 96.6115 10.6019H96.1104V11.7024H96.2989V11.264ZM96.2989 10.7389H96.6115C96.7173 10.7389 96.8322 10.812 96.8322 10.9353C96.8322 11.0494 96.7173 11.1225 96.6115 11.1225H96.2989V10.7389Z" fill="#626669"/>
<path d="M96.5294 12.1044C97.1271 12.1044 97.6007 11.6752 97.6007 11.1455C97.6007 10.6112 97.1225 10.1866 96.5294 10.1866C95.9362 10.1866 95.458 10.6112 95.458 11.1455C95.4534 11.6752 95.9362 12.1044 96.5294 12.1044ZM96.5294 10.3464C97.026 10.3464 97.426 10.7025 97.426 11.15C97.426 11.5884 97.026 11.9537 96.5294 11.9537C96.0328 11.9537 95.6328 11.593 95.6328 11.15C95.6328 10.698 96.0328 10.3464 96.5294 10.3464Z" fill="#626669"/>
</svg>
