<svg height="75" viewBox="0 0 197 75" width="197" xmlns="http://www.w3.org/2000/svg"><path d="m196.563529 5.63461538c.025966-1.40742703-.517595-2.76663387-1.509486-3.77456526s-2.349639-1.58077949-3.770514-1.59081935c-2.198923-.03904604-4.203343 1.24314108-5.072286 3.2446393-.868942 2.00149823-.429847 4.3248373 1.111153 5.87932694 1.540999 1.55448969 3.877882 2.03142939 5.9136 1.20692019 2.035717-.82450927 3.366004-2.78673121 3.366357-4.96550182m-.99 0c0 2.36845191-1.93808 4.28846154-4.328824 4.28846154-2.390743 0-4.328823-1.92000963-4.328823-4.28846154-.065277-2.43581952 1.870325-4.46516006 4.328823-4.53846153 1.182629.03509526 2.302342.53580574 3.111189 1.39125377.808848.85544802 1.240087 1.99504527 1.198223 3.16643853m-3.41647.11538462c.695276-.1462909 1.190395-.7574088 1.184117-1.46153846.037662-.47991529-.165624-.94742915-.543529-1.25-.582121-.35062026-1.262926-.50574542-1.941177-.44230769-.566264.00497468-1.131139.05643284-1.688823.15384615v5.98076923h1.048235v-2.57692308h.679412c.317578-.0496731.641443.03752971.889949.23962508s.397943.49980112.410639.81806723c.0356.52773395.174032 1.04364299.407647 1.51923077h1.009412c-.199541-.47171039-.323963-.97124685-.368824-1.48076923-.11647-.88461539-.485294-1.34615385-1.009411-1.44230769m-1.281177-.38461539h-.737647v-2.03846154h.698824c1.087058 0 1.455882.51923077 1.455882 1.03846154s-.679412 1.01923077-1.455882 1.01923077m-20.518236 31.07692304c-1.805294-2.2115384-1.591764-1.9230769.291177-5.0192307 1.572353-2.5769231 7.764706-11.5384616 10.734706-16.173077 3.164117-4.9807692.679411-10.51923072-3.882353-13.46153842-2.202994-1.51555066-4.934079-2.07675592-7.563785-1.55426718s-4.931141 2.08359087-6.373862 4.32349795c-2.795294 4.67307693-7.900589 13.15384615-10.307647 16.96153845-.407647.6346154-3.086471 5.3076923-3.086471.6346154v-10.9807692c0-8.46153849-5.551765-10.98076926-10.734706-10.98076926s-10.754117 2.51923077-10.754117 10.98076926v50.6346154c0 8.4615384 5.571176 10.9807692 10.754117 10.9807692s10.734706-2.5384616 10.734706-10.9807692v-13.4615385c0-.4807692-.271765-3.8461539 3.125294.8076923 1.475294 2.0384615 9.705883 13.6346154 11.491765 15.9807692 5.435294 7.4807693 12.248823 9.923077 18.615882 5.0576923 6.367059-4.8653846 5.144118-11.2884615-.524117-18.3461538-4.309412-5.3653846-11.821765-14.5576923-12.54-15.3846154m-50.354118 10.2692308v-35.5769231c0-8.46153846-5.532353-10.98076923-10.734706-10.98076923s-10.7541176 2.51923077-10.7541176 10.98076923v34.3653846c0 5.1153846-3.0670588 7.2692308-6.1923529 7.2692308s-6.2117647-2.1538462-6.2117647-7.2692308v-34.3653846c0-8.46153846-5.532353-10.98076923-10.7347059-10.98076923-5.202353 0-10.7541177 2.51923077-10.7541177 10.98076923v35.5769231c0 15.9615384 10.6764706 27.4807692 27.7005883 27.4807692 17.0241175 0 27.7005885-11.5384615 27.7005885-27.4807692m-64.0588238 15.0769231v-50.6346154c0-8.46153849-5.4935294-10.98076926-10.7735294-10.98076926s-10.7347059 2.51923077-10.7347059 10.98076926v11.3653846c0 6.1538461-3.0864706.9230769-3.882353-.3461539-1.6305882-2.6346153-5.94-9.7115384-9.6088235-15.73076919-1.8985934-3.85892315-5.8578886-6.30200477-10.1911765-6.28846154-5.22176466 0-10.8123529 2.53846154-10.8123529 11.00000003v50.6346154c0 8.4615384 5.61 10.9807692 10.7929412 10.9807692s10.7152941-2.5384616 10.7152941-10.9807692c0-8.4423077 0-11.0384616 0-12.5769231 0-5.5384616 2.6594118-.7115385 3.1447059 0 2.5235294 4.5192307 7.1629412 11.8461538 10.6764706 17.7115384 1.9355793 3.5930206 5.7310469 5.8179192 9.8417647 5.7692308 5.2411764 0 10.7735294-2.5384615 10.7735294-11" fill="#626669"/></svg>