<svg height="50" viewBox="0 0 162 50" width="162" xmlns="http://www.w3.org/2000/svg"><g fill="none" fill-rule="evenodd"><path d="m161.413 20.7858h-19.936v-19.87369h19.936z" fill="#626669"/><path d="m146.78 12.1065 3.205-3.5982h-2.966v-1.271h5.194v1.271l-3.206 3.5982h3.431v1.271h-5.66v-1.271z" fill="#fff"/><path d="m154.108.91211h7.304v1.25174l-5.628 6.72825h5.628v1.4221h-7.727v-1.3436l5.495-6.63492h-5.072z" fill="#fff"/><g fill="#626669"><path d="m15.1204 10.8491c8.7659 0 14.4112 5.7906 14.4112 14.6357 0 8.7918-5.6453 14.5809-14.4112 14.5809-8.7109 0-14.3577-5.7906-14.3577-14.5809 0-8.8466 5.6468-14.6357 14.3577-14.6357zm0 23.4793c5.2158 0 6.7761-4.4485 6.7761-8.8451 0-4.4485-1.5603-8.8984-6.7761-8.8984-5.1624 0-6.7212 4.4499-6.7212 8.8984 0 4.3966 1.5588 8.8451 6.7212 8.8451z" fill-rule="nonzero"/><path d="m50.8139 19.7491c-.1605-4.1819-3.3881-6.0587-7.2591-6.0587-3.0106 0-6.5607 1.1806-6.5607 4.7714 0 3.0027 3.4416 4.0737 5.7538 4.6647l4.5174 1.0177c3.8711.5896 7.9055 2.8412 7.9055 7.666 0 6.0039-5.9692 8.3088-11.1316 8.3088-6.4522 0-10.8626-3.0027-11.4005-9.7561h3.388c.269 4.5566 3.6571 6.9149 8.1745 6.9149 3.1726 0 7.5831-1.3939 7.5831-5.2528 0-3.2175-3.0122-4.2885-6.0778-5.0396l-4.3554-.9658c-4.409-1.1792-7.7436-2.6798-7.7436-7.3978 0-5.6292 5.5383-7.7741 10.4332-7.7741 5.5383 0 9.9488 2.8945 10.1642 8.8999h-3.391z"/><path d="m59.209 1.03955h3.3881v38.27495h-3.3881z"/><path d="m70.5819 26.3958c.0535 4.9314 2.6347 10.882 9.1418 10.882 4.9469 0 7.6366-2.8945 8.7124-7.0764h3.3881c-1.4518 6.272-5.1089 9.9176-12.099 9.9176-8.8194 0-12.5299-6.7549-12.5299-14.6357 0-7.2897 3.7105-14.6356 12.5299-14.6356 8.9264 0 12.4768 7.774 12.2075 15.5467h-21.3508zm17.9612-2.8412c-.162-5.0928-3.3345-9.8642-8.8194-9.8642-5.5383 0-8.6039 4.8247-9.1418 9.8642z" fill-rule="nonzero"/><path d="m99.326 26.3958c.054 4.9314 2.635 10.882 9.142 10.882 4.947 0 7.636-2.8945 8.712-7.0764h3.388c-1.451 6.272-5.108 9.9176-12.099 9.9176-8.819 0-12.53-6.7549-12.53-14.6357 0-7.2897 3.711-14.6356 12.53-14.6356 8.927 0 12.477 7.774 12.208 15.5467h-21.351zm17.961-2.8412c-.162-5.0928-3.334-9.8642-8.819-9.8642-5.538 0-8.604 4.8247-9.142 9.8642z" fill-rule="nonzero"/><path d="m125.209 11.6535h3.119v5.2543h.107c1.56-3.7537 5.431-6.0587 9.895-6.0587 8.442 0 12.475 6.8098 12.475 14.6357 0 7.8274-4.033 14.6357-12.475 14.6357-4.14 0-8.174-2.0902-9.626-6.0572h-.107v15.4919h-3.388zm13.121 2.0368c-7.474 0-9.733 5.521-9.733 11.7945 0 5.7358 2.528 11.7945 9.733 11.7945 6.453 0 9.089-6.0573 9.089-11.7945 0-5.7358-2.635-11.7945-9.089-11.7945z" fill-rule="nonzero"/></g></g></svg>