<svg height="37" viewBox="0 0 164 37" width="164" xmlns="http://www.w3.org/2000/svg"><g fill="#626669" transform="translate(0 -1)"><path d="m105.57 37.7999h1.09v-1.11h-1.09zm-7.21-3.8c-.0228-.3811.0326-.7629.1627-1.1218.1302-.3589.3323-.6874.5941-.9653.2618-.278.5777-.4994.9282-.6508.35-.1513.728-.2294 1.11-.2294s.76.0781 1.11.2294c.351.1514.666.3728.928.6508.262.2779.464.6064.594.9653s.186.7407.163 1.1218c.023.3811-.033.7628-.163 1.1217-.13.359-.332.6875-.594.9654s-.577.4993-.928.6507c-.35.1513-.728.2294-1.11.2294s-.76-.0781-1.11-.2294c-.3505-.1514-.6664-.3728-.9282-.6507s-.4639-.6064-.5941-.9654c-.1301-.3589-.1855-.7406-.1627-1.1217zm-1.09 0c-.062.5444-.0083 1.0959.1576 1.6181.1659.5223.4403 1.0036.8052 1.4125.365.4088.8121.7359 1.3123.9599.4999.224 1.0419.3398 1.5899.3398s1.09-.1158 1.59-.3398.947-.5511 1.312-.9599c.365-.4089.639-.8902.805-1.4125.166-.5222.22-1.0737.158-1.6181 0-1.0317-.41-2.0212-1.139-2.7507-.73-.7295-1.719-1.1393-2.751-1.1393s-2.0211.4098-2.7506 1.1393c-.7296.7295-1.1394 1.719-1.1394 2.7507zm-7.27 0c-.0261.5211.0551 1.0421.2387 1.5306.1835.4885.4655.9341.8283 1.3091.3629.3751.7989.6716 1.2811.8711.4821.1996 1.0001.298 1.5219.2892.5455.0077 1.0871-.0945 1.5922-.3007s.9635-.512 1.3478-.8993l-.57-.8c-.6229.621-1.4606.979-2.34 1-.3843-.0035-.7639-.0849-1.1158-.2393s-.6688-.3787-.9315-.6591c-.2627-.2805-.4657-.6114-.5968-.9726-.1311-.3613-.1876-.7454-.1659-1.129-.0207-.3778.0368-.7559.1688-1.1104.1321-.3546.3359-.6781.5987-.9503s.579-.4872.9287-.6317c.3497-.1444.7255-.2151 1.1038-.2076.8043.0136 1.5787.3071 2.19.83l.53-.79c-.7546-.6801-1.7449-1.0389-2.76-1-.5091-.0096-1.0148.0838-1.4869.2745-.4721.1908-.9007.4749-1.2603.8354-.3595.3605-.6426.7899-.8321 1.2625-.1895.4725-.2816.9785-.2707 1.4876zm-8.4 3.8h4.58v-.92h-3.52v-2.44h2.72v-.92h-2.72v-2.38h3.34v-.92h-4.4zm-9 0h1.06l.34-4.8c0-.46 0-1.14 0-1.14s.24.73.41 1.14l1.59 3.43h.94l1.5-3.43c.18-.42.41-1.12.41-1.12v1.12l.38 4.78h1.05l-.61-7.58h-1.09l-1.74 4.1c-.17.42-.38 1-.38 1s-.2-.6-.38-1l-1.74-4.1h-1.12zm-7.45-3.8c-.0228-.3811.0326-.7629.1627-1.1218.1302-.3589.3323-.6874.5941-.9653.2618-.278.5776-.4994.9282-.6508.3505-.1513.7282-.2294 1.11-.2294s.7595.0781 1.11.2294c.3506.1514.6664.3728.9282.6508.2618.2779.4639.6064.5941.9653.1301.3589.1855.7407.1627 1.1218.0228.3811-.0326.7628-.1627 1.1217-.1302.359-.3323.6875-.5941.9654s-.5776.4993-.9282.6507c-.3505.1513-.7282.2294-1.11.2294s-.7595-.0781-1.11-.2294c-.3506-.1514-.6664-.3728-.9282-.6507s-.4639-.6064-.5941-.9654c-.1301-.3589-.1855-.7406-.1627-1.1217zm-1.09 0c0 1.0317.4098 2.0211 1.1394 2.7506.7295.7295 1.7189 1.1394 2.7506 1.1394s2.0211-.4099 2.7506-1.1394c.7296-.7295 1.1394-1.7189 1.1394-2.7506s-.4098-2.0212-1.1394-2.7507c-.7295-.7295-1.7189-1.1393-2.7506-1.1393s-2.0211.4098-2.7506 1.1393c-.7296.7295-1.1394 1.719-1.1394 2.7507zm-7.06 3.8h1.06v-3.33h3.94v3.33h1v-7.58h-1v3.33h-3.95v-3.33h-1.05z"/><path d="m147.79 23.47h3v-7.38c-.025-.7173.07-1.4338.28-2.12.279-1.1116.924-2.097 1.831-2.7972.907-.70033 2.023-1.0747 3.169-1.0628 2.52 0 3 1.74 3 4v7.41c0 1.4.59 2 2 2h3v-2.63h-1.28c-.092.0113-.185.0015-.273-.0286-.087-.0302-.167-.0799-.233-.1455-.065-.0655-.115-.1452-.145-.2328-.03-.0877-.04-.1811-.029-.2731v-6.82c0-4-1.68-6-5.42-6-1.239-.04104-2.463.27815-3.525.91888-1.061.64074-1.914 1.57553-2.455 2.69112h-.06c.041-.29829.061-.59898.06-.9v-.63c0-1.15-.65-1.74-2-1.74h-2.89v2.58h1.28c.092-.01133.186-.00155.273.02862.088.03016.168.07991.233.14547.066.06555.115.14519.146.23285.03.08766.04.18105.028.27306zm-15.47-9.71c.135-1.1257.685-2.1603 1.544-2.90056.859-.74021 1.963-1.1324 3.096-1.09944 2 0 3.61 1.4 3.7 4zm-3.24 1.84c-.035 1.1033.158 2.202.567 3.2271.41 1.0251 1.027 1.9543 1.813 2.7292s1.724 1.3787 2.755 1.7735c1.031.3947 2.133.5718 3.235.5202 2.235-.0055 4.393-.8229 6.07-2.3l-1.31-2.15c-1.272 1.1374-2.904 1.789-4.61 1.84-.701.0186-1.399-.1029-2.053-.3575-.653-.2546-1.249-.6371-1.753-1.1252-.504-.488-.906-1.0718-1.181-1.717s-.419-1.3388-.423-2.0403h11.48s.09-.84.09-1.24c0-4.08-2.37-7.38-6.78-7.38s-7.9 3.24-7.9 8.25zm-16.71 4.54v-15.97h3.55c4.86 0 8.09 2.89 8.09 8.28s-3.21 8.34-8.09 8.34h-2.86c-.091.0094-.184-.0017-.271-.0326-.086-.0308-.165-.0806-.23-.1458-.066-.0651-.115-.1439-.146-.2307-.031-.0867-.042-.1793-.033-.2709zm-3.1 1.34c0 1.4.59 2 2 2h4.89c6.69 0 11.11-4 11.11-11s-4.44-10.98-11.13-10.98h-8.9v2.67h2z"/><path d="m88.87 17c0-2.15 1.68-3.24 4.26-3.24h3.33v2.4c0 2.68-1.43 4-3.8 4s-3.8-1.49-3.8-3.21zm-4.12-.05c0 3.86 3.24 6.85 7.9 6.85 4.86 0 7.75-3 7.75-7.5v-2.57h2.65v-3.49003h-2.65v-2.64h-4v2.64h-3.26c-2.68 0-3.36-1.68-3.36-2.93-.0017-.41776.0839-.83126.2512-1.21402.1674-.38277.4129-.72637.7207-1.00878.3078-.28242.6712-.49743 1.067-.63126.3957-.13384.815-.18355 1.2311-.14594.5018.01311 1.001.07676 1.49.19l1-3.170004c-.9809-.2466096-1.9886-.3708873-3-.3700003-3.86 0-6.72 2.2700043-6.72 5.8200043-.0724.98089.146 1.96136.6281 2.81871.482.85735 1.2062 1.55352 2.0819 2.00132v.06c-1.1142.3729-2.08 1.0922-2.7564 2.0529-.6765.9606-1.0281 2.1124-1.0036 3.2871z"/><path d="m63.51 23.4701h3v-7.38c-.0168-.7085.0846-1.4149.3-2.09.287-1.1095.9332-2.0927 1.8376-2.7964.9045-.70366 2.0164-1.0882 3.1624-1.09363 2.52 0 3 1.74003 3 4.00003v7.41c0 1.4.59 2 2 2h3v-2.63h-1.36c-.092.0113-.1854.0015-.2731-.0286-.0876-.0302-.1673-.08-.2328-.1455-.0656-.0656-.1153-.1452-.1455-.2329-.0301-.0876-.0399-.181-.0286-.273v-6.82c0-4.00003-1.68-6.00003-5.38-6.00003-1.2077-.02408-2.3976.29357-3.4326.91635-1.0351.62278-1.873 1.52533-2.4174 2.60365h-.06s.06-.56.06-1.31v-6.17c0-1.34-.59-1.929996-2-1.929996h-3v2.579996h1.28c.092-.01133.1854-.00154.2731.02862.0876.03017.1673.07992.2328.14547.0656.06556.1153.14519.1455.23285.0301.08767.0399.18105.0286.27306zm-17.22-7.87c-.036 1.1059.1578 2.2073.5692 3.2345s1.0315 1.9579 1.8209 2.7333c.7895.7753 1.7312 1.3785 2.7656 1.7713 1.0345.3928 2.1392.5668 3.2443.5109 1.1977.0155 2.3856-.2172 3.4888-.6836 1.1033-.4665 2.0979-1.1564 2.9212-2.0264l-1.3-2.14c-1.2824 1.3378-3.0377 2.1203-4.89 2.18-.7395.0256-1.4764-.1022-2.1641-.3754-.6877-.2731-1.3114-.6857-1.8319-1.2118-.5204-.526-.9263-1.1542-1.192-1.8448s-.3856-1.4288-.352-2.168c-.0426-.7294.0654-1.4597.3174-2.1454.252-.6858.6425-1.3123 1.1473-1.8405.5047-.5282 1.1129-.9468 1.7865-1.22966s1.3983-.42395 2.1288-.41447c1.15 0 2.93.5 2.93 1.62003v.87h2.74v-1.64003c0-2.68-3.77-3.45-5.66-3.45-1.1074-.05388-2.2141.12101-3.251.51378-1.0368.39277-1.9816.99498-2.7754 1.76908-.7938.77409-1.4196 1.70347-1.8383 2.73007-.4187 1.0267-.6213 2.1286-.5953 3.2371zm-9.51 7.87h3v-6.47c-.0188-.9566.1059-1.9105.37-2.83.2338-1.0137.7918-1.9235 1.5895-2.5912.7977-.66779 1.7915-1.05708 2.8305-1.10883.3023-.00043.6038.02972.9.09v-3c-.2684-.03797-.539-.05801-.81-.06-2.43 0-4.23 1.8-5 4.11003h-.06c.0417-.3618.0617-.72582.06-1.09003v-1c0-1.27999-.65-1.84-2-1.84h-2.84v2.63h1.28c.092-.01133.1854-.00154.2731.02862.0876.03017.1673.07992.2328.14547.0656.06556.1153.14519.1455.23285.0301.08767.0399.18105.0286.27306zm-16.89-7.9c0-1.4322.5689-2.8057 1.5816-3.8184s2.3862-1.58163 3.8184-1.58163 2.8057.56893 3.8184 1.58163 1.5816 2.3862 1.5816 3.8184c.0449.7368-.0615 1.4749-.3126 2.169-.2511.6942-.6416 1.3296-1.1474 1.8671-.5059.5376-1.1164.966-1.7939 1.2588-.6776.2928-1.408.4439-2.1461.4439s-1.4685-.1511-2.1461-.4439c-.6775-.2928-1.288-.7212-1.7939-1.2588-.5058-.5375-.8963-1.1729-1.1474-1.8671-.2511-.6941-.3575-1.4322-.3126-2.169zm-3.08 0c-.0086 1.1058.2061 2.2021.6311 3.223.425 1.021 1.0517 1.9457 1.8425 2.7188.7908.773 1.7295 1.3786 2.7599 1.7803 1.0303.4018 2.1311.5915 3.2365.5579 1.1069.0385 2.2102-.1462 3.2442-.5432s1.9775-.9981 2.7742-1.7675c.7967-.7695 1.4303-1.6914 1.863-2.711.4328-1.0195.6558-2.1157.6558-3.2233s-.223-2.2038-.6558-3.2234c-.4327-1.0195-1.0663-1.9415-1.863-2.71092-.7967-.76943-1.7402-1.37056-2.7742-1.76755s-2.1373-.58171-3.2442-.54316c-1.1014-.03768-2.199.1473-3.2273.54386-1.0282.39657-1.9658.99657-2.7566 1.76406-.7908.7675-1.4186 1.68671-1.8458 2.70261-.4272 1.0158-.645 2.1075-.6403 3.2095zm-11.67-2.9v-8.50003h4.07c.56066-.04661 1.1247.03054 1.6523.226.5275.19545 1.0057.50445 1.4006.90511.395.40067.6971.88323.8849 1.41354.1879.53031.2569 1.09542.2022 1.65535.0551.56673-.014 1.13865-.2023 1.67599-.1884.53733-.4916 1.02714-.8884 1.43544-.3969.4083-.878.7253-1.4097.9288-.5318.2035-1.10154.2888-1.6696.2498zm-3.14 10.8h3.14v-8.12h4.54c.9243.0394 1.8466-.1156 2.7072-.455.8606-.3395 1.6404-.8558 2.2889-1.5156s1.1512-1.4484 1.4758-2.3148c.3245-.86632.4635-1.79115.4081-2.71463.0462-.91433-.1003-1.82817-.4301-2.6822-.3298-.85404-.8355-1.62918-1.4843-2.27512-.6487-.64594-1.4261-1.14825-2.2815-1.47431-.8555-.326065-1.77-.468604-2.6841-.418366h-9.68v2.669996h2z"/></g></svg>