<svg width="245" height="28" viewBox="0 0 245 28" fill="none" xmlns="http://www.w3.org/2000/svg">
<path d="M25.4348 19.9886C24.2419 21.5079 22.5931 21.0243 20.727 21.3966C19.7002 21.602 19.8024 21.5592 18.7927 21.7005L18.0812 21.7347C16.0404 22.0215 13.8718 21.7775 11.7799 22.0215C10.0928 22.2183 7.96252 22.7704 7.00391 21.3068C6.32223 20.2625 4.8481 18.388 6.28389 16.8687C7.87731 14.7075 10.0928 13.8986 12.0398 12.4606C13.8718 11.4249 14.8177 10.5048 15.0051 10.0683C14.9327 9.58468 14.8432 9.50765 14.6472 9.3065C11.7416 8.34785 8.51639 9.57184 6.73976 11.3907C4.83105 13.3465 4.44335 16.2524 4.38796 17.3052C4.33257 18.358 4.56691 20.5706 4.41353 21.7861C4.26015 23.0015 4.60525 24.3325 2.8201 24.585C1.02643 24.2255 0.758021 22.8346 0.272324 20.9045C-0.213373 18.9786 0.0848625 13.1197 0.15303 12.2638C0.229719 11.3608 0.36605 9.99981 1.6655 10.0683C2.91383 10.1325 4.40927 9.20379 4.77141 8.94701C5.12929 8.69451 10.1695 5.35635 11.618 5.06533C13.0709 4.77859 18.307 4.22652 20.1774 7.02543C20.7994 8.31362 20.9017 10.1881 20.1774 10.9071C19.4531 11.6261 15.7592 15.9058 12.6533 17.4251C12.3764 17.9044 12.9345 18.2382 13.4117 18.2639C14.741 18.3324 19.4275 18.251 22.8061 17.7032C23.671 17.562 25.1536 17.1426 25.831 17.8231C26.7471 18.8288 25.5541 19.03 25.4348 19.9886Z" fill="#626669"/>
<path d="M53.4254 16.3901C52.4838 16.9337 51.555 17.3103 51.555 17.3103L46.8557 18.47C46.3232 19.6384 49.2373 22.5186 47.1327 23.3489C46.8174 23.5201 44.7042 23.6442 44.4272 22.7882C43.8691 21.0978 41.1211 18.0678 40.0091 18.47C38.3859 18.8895 31.9227 17.8752 30.4954 21.1106C29.7669 22.7626 28.0882 26.7427 25.9154 27.6285C24.8162 28.0779 24.2708 26.8368 24.045 25.9894C23.5039 23.978 27.3086 19.3089 26.8314 18.8295C25.9154 18.3502 24.8417 17.9907 24.322 16.9508C23.8831 16.112 24.5989 15.1533 25.3573 14.8708C27.3086 13.7496 29.8563 16.9508 30.6914 13.4286C31.5265 11.9478 33.4778 5.45984 34.3554 4.27009C34.7857 3.73513 37.5423 1.06889 39.3317 3.07177C39.3317 3.07177 40.0261 3.75225 40.4139 4.45411C40.8016 5.16026 42.5824 15.6583 46.566 14.4429C48.0614 14.2888 52.2964 13.0777 52.8673 13.3516C54.286 14.0277 54.2818 16.1719 53.4254 16.3901ZM36.622 12.0291C35.6378 11.9008 35.1308 13.3216 34.8283 14.0277C34.7474 14.3872 34.594 15.072 35.0286 15.149C35.4589 15.226 37.9342 15.9878 38.9695 14.8708C39.8089 13.0691 37.6062 12.1575 36.622 12.0291Z" fill="#626669"/>
<path d="M154.816 7.92838C151.57 8.78431 148.293 8.43766 145.473 8.59601C143.16 8.7244 140.565 7.97546 138.256 9.05822C136.705 9.7772 136.688 11.0611 137.497 11.8914C138.367 12.7815 138.903 12.5504 141.438 12.452C143.973 12.3536 149.231 11.8571 150.756 11.8914C152.494 11.8186 153.342 10.7701 153.662 12.9313C151.868 15.2894 147.011 15.0926 147.011 15.0926C147.011 15.0926 140.122 15.1739 137.016 16.2138C136.577 16.6118 136.944 17.0398 137.084 17.8187C138.222 19.5948 138.639 20.2924 142.048 20.4593C144.178 20.5791 144.821 20.8059 146.738 19.9157C148.123 19.308 148.443 18.6661 148.443 18.6661C148.869 18.0969 149.188 17.4892 149.934 17.4892C150.841 17.9428 151.668 18.221 152.541 18.2124C152.844 18.6318 153.129 19.201 152.541 19.813C150.803 22.0385 147.991 22.6804 146.312 23.1982C144.468 23.7674 142.763 23.913 142.763 23.913C140.492 24.1997 140.207 23.913 138.729 23.4935C137.08 23.0271 136.645 22.3894 134.945 20.6561C133.25 18.9229 133.948 14.7373 130.647 16.4963C130.647 16.4963 129.59 16.2181 128.934 15.8543C128.278 15.4948 128.619 15.666 127.741 15.2937C126.859 14.9214 127.741 15.0155 127.622 15.0155H127.264C128.218 13.9756 128.022 12.0968 129.535 11.7758C130.57 11.8956 131.963 12.0968 133.079 11.9769C133.556 11.6175 133.637 10.937 133.475 10.4577C132.163 9.13953 128.857 10.3763 129.057 7.45761C129.535 6.41765 130.659 6.37914 131.605 6.33634C134.106 6.22079 135.678 5.55744 137.301 5.73719C142.572 6.31922 148.332 4.97541 153.866 4.89838C153.866 4.89838 154.164 5.22363 154.501 5.93833C154.842 6.65304 154.931 6.78571 155.097 7.05961C155.268 7.32067 154.816 7.92838 154.816 7.92838Z" fill="#626669"/>
<path d="M173.789 20.5105C170.887 22.9071 169.187 23.4763 167.624 24.0498C164.509 25.1882 162.797 25.1924 161.727 24.6703C158.962 23.3351 157.543 21.1952 156.751 18.6317C156.551 17.9127 156.406 17.0568 156.474 15.9141C156.581 14.0653 156.836 12.2122 157.032 10.2349C157.262 7.92391 158.055 5.87821 158.545 4.47447C158.894 3.47303 161.173 3.35321 161.45 5.03513C160.892 7.3162 160.816 10.8298 160.811 12.2335C160.807 13.6373 160.189 18.5076 163.295 19.83C165.724 20.5105 166.491 20.3436 169.81 18.8328C170.951 18.315 172.08 17.8742 172.758 16.5518C173.793 16.2736 174.236 16.9027 174.509 17.5104C175.012 18.6274 174.871 18.9141 174.445 19.7701C174.441 19.7658 174.138 20.2194 173.789 20.5105Z" fill="#626669"/>
<path d="M131.315 16.4582C130.374 17.0018 129.445 17.3784 129.445 17.3784L124.746 18.5382C124.213 19.7065 127.127 22.5868 125.023 23.417C124.707 23.5882 122.594 23.7123 122.317 22.8564C121.759 21.1659 119.011 18.1359 117.895 18.5382C115.786 18.6238 109.962 18.3413 108.381 21.1787C107.653 22.8307 105.974 26.8108 103.801 27.6967C102.702 28.1461 102.157 26.905 101.931 26.0576C101.39 24.0461 105.194 19.377 104.717 18.8977C103.801 18.4183 102.727 18.0589 102.208 17.0189C101.769 16.1801 102.485 15.2214 103.243 14.939C105.194 13.8177 107.742 17.0189 108.577 13.4967C109.412 12.0159 111.363 5.52793 112.241 4.33817C112.671 3.80321 115.428 1.13696 117.217 3.13985C117.217 3.13985 117.912 3.82033 118.3 4.5222C118.687 5.22835 120.468 15.7264 124.452 14.5067C125.947 14.3526 130.182 13.1415 130.753 13.4154C132.18 14.0959 132.172 16.2443 131.315 16.4582ZM114.512 12.1015C113.528 11.9731 113.021 13.394 112.723 14.1001C112.642 14.4596 112.488 15.1444 112.923 15.2214C113.353 15.2985 115.828 16.0602 116.864 14.9432C117.699 13.1415 115.496 12.2299 114.512 12.1015Z" fill="#626669"/>
<path d="M67.1999 23.9343C66.0837 24.5334 64.797 24.8587 64.0386 25.154C62.6455 25.6932 57.5584 27.6448 53.5834 26.0142C53.0679 25.7917 50.2389 23.9343 50.2006 22.1368C50.0983 18.7045 51.1166 18.0583 51.2359 17.4163C53.7027 13.8171 56.6339 10.4576 62.5816 6.65723C63.8597 5.83981 65.091 5.05664 66.3649 4.41897C66.6035 3.77702 66.842 3.01951 67.2425 2.49739C67.6388 1.85544 68.0776 1.21777 69.1938 1.37611C69.3131 1.49595 70.4038 1.29053 71.4221 3.81553C70.7447 7.05097 71.503 9.81563 70.587 10.7358C70.0289 11.4162 69.1512 11.7372 68.2778 11.2964C67.43 10.2821 67.6771 10.5903 66.842 8.81847C66.8207 8.44614 66.842 8.57881 66.842 8.57881C63.6637 10.2094 63.3825 10.5731 62.1853 11.5403C60.9839 12.5033 58.6406 14.7801 57.5669 15.5804C57.5669 15.5804 56.8895 16.2993 56.7702 16.3806C56.7319 16.5005 56.4166 16.7829 55.3345 18.3022C54.4184 19.3422 53.6601 20.5405 54.1415 21.9827C54.8573 23.2624 56.57 22.8216 57.8439 22.9842C63.1141 22.6546 68.2011 20.074 69.2705 19.4235C70.3399 18.7773 70.3442 18.1439 71.2218 18.743C71.2218 18.743 71.9887 19.2438 72.3381 19.8215C72.223 21.7131 67.8901 23.5962 67.1999 23.9343Z" fill="#626669"/>
<path d="M97.9269 13.295C95.9032 13.7744 94.3396 13.9156 94.4248 15.0968C94.706 19.1668 97.0919 23.2154 94.625 27.097C93.8667 27.3752 92.2008 26.99 92.2008 25.8688C91.8813 24.0756 91.5405 21.5078 91.2081 20.0741C90.7267 18.0155 90.8801 17.4763 90.4881 15.5761C90.4881 15.2166 90.4881 14.8143 90.1302 14.6175C87.7827 14.8186 85.2349 14.258 83.0834 15.0968C82.8064 16.9756 83.8758 19.4792 84.0164 20.9086C84.0164 24.4137 84.8131 24.5035 82.8831 25.2996C82.0864 25.6291 81.0128 24.5378 80.8125 23.6176C80.3396 21.8202 80.0797 20.4935 79.6963 17.4592C79.4705 16.6032 79.4705 13.3592 74.0426 14.1809C73.1564 14.3136 72.6707 13.1923 72.6494 12.101C72.9945 9.28926 76.1132 11.4205 78.1028 11.1424C79.2191 9.54176 78.5033 8.34345 78.3798 6.06238C78.2605 3.78131 79.0189 4.54308 79.4151 3.7813C80.0542 3.30198 81.0085 3.22066 81.6433 3.69999C82.7979 4.73995 82.2398 9.73862 82.5167 10.6588C83.4327 12.178 85.3457 11.5404 86.2617 11.5404C87.1777 11.5404 89.3676 11.6217 90.045 10.3806C89.5678 7.46183 88.5325 3.86262 89.9257 1.34189C90.6031 0.460273 91.4382 0.943877 92.1966 1.34189C93.8667 3.30198 92.6737 6.22072 93.2319 8.70294L93.5301 9.86274C93.9945 10.7914 95.9075 10.0724 96.7766 9.90126C98.4339 9.58028 98.4637 9.49897 100.002 9.2593C102.417 8.88269 102.43 8.98112 103.108 9.53748C103.189 10.1794 103.943 10.8556 103.385 11.5361C101.868 12.4562 100.1 12.7815 97.9269 13.295Z" fill="#626669"/>
<path d="M177.777 24.6581V21.9362H180.363V5.70339H177.777V3.01146H188.19C190.026 3.01146 191.709 3.10133 193.247 4.25257C194.692 5.30965 195.292 7.18415 195.292 8.90887C195.292 11.8405 193.456 13.9589 190.538 14.2884C193.034 14.6222 193.456 15.4996 194.087 17.7635L195.262 21.9362H197.069V24.6581H191.684C190.993 22.6338 190.21 17.5538 188.855 16.0731C188.224 15.4397 187.351 15.5295 186.537 15.5295H184.492V21.9362H186.989V24.6581H177.777ZM184.492 5.73333V12.8077H186.597C187.802 12.8077 189.063 12.7178 189.996 11.8704C190.84 11.1129 191.108 10.0858 191.108 8.99874C191.108 8.00157 190.657 6.91453 189.873 6.27686C189.149 5.73334 188.066 5.73333 187.193 5.73333H184.492Z" fill="#626669"/>
<path d="M198.211 24.6581V21.9363H199.928L207 3.01151H211.934L218.947 21.9363H220.664V24.6581H211.938V21.9363H214.524L213.17 18.0375H205.164L203.779 21.9363H206.395V24.6581H198.211ZM212.117 15.3156L209.169 6.52084H209.139L206.191 15.3156H212.117Z" fill="#626669"/>
<path d="M218.163 3.01151H226.71V5.73338H224.362L228.243 12.6879L232.274 5.73338H230.046V3.01151H237.902V5.73338H236.487L230.046 16.3427V21.9363H233.053V24.6581H222.977V21.9363H225.926V16.3427L219.548 5.73338H218.163V3.01151Z" fill="#626669"/>
<path d="M241.992 3.02377V3.37042H241.17V5.72426H240.765V3.37042H239.947V3.02377H241.992ZM244.595 5.72426L244.489 4.09798C244.476 3.88827 244.489 3.63148 244.48 3.36614H244.459C244.391 3.61864 244.31 3.9011 244.229 4.14076L243.667 5.6943H243.356L242.81 4.10225C242.742 3.88398 242.674 3.61864 242.614 3.37042H242.593C242.585 3.6272 242.593 3.8583 242.58 4.10225L242.478 5.72854H242.086L242.295 3.02805H242.827L243.356 4.4917C243.424 4.69713 243.479 4.91967 243.543 5.17217H243.556C243.616 4.91967 243.679 4.68428 243.743 4.48742L244.272 3.02805H244.8L245 5.72854H244.595V5.72426Z" fill="#626669"/>
</svg>
