<svg width="228" height="32" viewBox="0 0 228 32" fill="none" xmlns="http://www.w3.org/2000/svg">
<path d="M227.185 30.6839C225.498 30.6839 223.811 30.6839 222.061 30.6839C222.061 26.3898 222.061 22.1053 222.061 17.7952C218.373 17.7952 214.748 17.7952 211.067 17.7952C211.067 22.0797 211.067 26.3642 211.067 30.6775C209.423 30.6775 207.831 30.6775 206.207 30.6775C206.207 21.1151 206.207 11.5496 206.207 1.94876C207.792 1.94876 209.38 1.94876 211.027 1.94876C211.027 6.47357 211.027 11.0016 211.027 15.5616C214.718 15.5616 218.35 15.5616 222.041 15.5616C222.041 11.0432 222.041 6.52805 222.041 1.91992C223.794 1.91992 225.491 1.91992 227.185 1.91992C227.185 11.5079 227.185 21.0959 227.185 30.6839Z" fill="#626669"/>
<path d="M45.7672 0.792145C46.2492 0.920326 46.9458 1.1126 47.7877 1.37537C48.1343 1.48112 48.5701 1.61251 48.8904 1.73428C49.8412 2.0996 50.7425 2.58989 51.6042 3.21798C51.1882 4.47416 50.7722 5.72714 50.3595 6.98331C50.1813 6.97691 50.0855 6.9737 50.0855 6.9737C50.0855 6.9737 50.0228 6.87756 49.9799 6.81027C49.9204 6.71413 49.8808 6.64043 49.8709 6.62441C48.6758 4.26586 46.5892 3.20196 46.5892 3.20196C45.163 2.49696 43.6476 2.32071 42.0893 2.65078C40.4451 3.00007 39.4118 4.18575 39.0915 5.94504C38.7746 7.6819 39.4283 9.07908 40.63 10.3C41.6535 11.3383 42.875 12.117 44.0966 12.9053C45.9983 14.1294 47.9296 15.3151 49.7719 16.6162C51.2278 17.6416 52.3966 18.9587 53.1097 20.5962C54.3643 23.4675 53.4861 26.8483 50.9505 28.9504C49.029 30.5431 46.7741 31.3538 44.2782 31.5621C41.2837 31.8121 38.4774 31.2321 35.9155 29.6811C35.2288 29.2645 34.5982 28.755 33.9346 28.2807C34.4661 26.8899 34.9712 25.5793 35.4797 24.2494C35.6216 24.275 35.7207 24.2942 35.8197 24.3135C35.79 24.3359 35.7636 24.3583 35.7339 24.384C36.3843 25.3101 36.9653 26.2939 37.7016 27.1527C39.0816 28.7646 40.8446 29.7259 43.0665 29.6682C44.5456 29.6298 45.9256 29.21 47.1472 28.3832C49.0653 27.0854 49.4912 24.9383 48.24 22.8939C47.3255 21.3973 46.0412 20.2309 44.5852 19.2663C43.0929 18.2793 41.5214 17.4109 39.9928 16.4784C38.5534 15.6003 37.2262 14.5909 36.2291 13.229C34.0336 10.2295 34.2944 5.80084 36.8333 3.25323C38.4312 1.65096 41.3596 0.978008 41.6337 0.913917C42.0629 0.811372 42.4293 0.750486 42.6902 0.712031C43.017 0.660759 43.3868 0.622304 43.7863 0.612691C44.5621 0.587054 45.2356 0.679986 45.7672 0.792145Z" fill="#626669"/>
<path d="M0.332031 15.7636C1.65263 15.754 2.96993 15.7443 4.29053 15.7379C5.07959 15.7347 5.86535 15.7379 6.75345 15.7379C5.66065 14.1581 4.61408 12.6488 3.52128 11.0657C5.70357 11.0657 7.80003 11.0657 9.98562 11.0657C8.88952 9.48268 7.84625 7.97334 6.75015 6.3903C8.94565 6.3903 11.0355 6.3903 13.2277 6.3903C12.1349 4.81366 11.0916 3.30432 10.0087 1.7373C12.2207 1.7373 14.3469 1.7373 16.5688 1.7373C15.4859 3.30112 14.4459 4.80405 13.3664 6.36146C15.5222 6.36146 17.6121 6.36146 19.834 6.36146C18.7247 7.96373 17.6781 9.47947 16.5886 11.0529C18.761 11.0529 20.8542 11.0529 23.0497 11.0529C21.9569 12.6327 20.9103 14.1421 19.8208 15.7187C21.9767 15.7187 24.0665 15.7187 26.2422 15.7187C26.1498 15.8854 26.1068 15.9815 26.0441 16.068C25.189 17.3018 24.3207 18.5259 23.4855 19.7693C23.3303 20 23.2279 20.3076 23.2279 20.58C23.2114 23.8102 23.218 27.0404 23.2147 30.2705C23.2147 30.4468 23.1982 30.623 23.1883 30.8185C23.0563 30.8185 22.9539 30.8185 22.8549 30.8185C22.8285 30.7768 22.7954 30.7448 22.7921 30.7128C22.7789 30.5718 22.7723 30.4308 22.7723 30.293C22.7723 27.0628 22.7756 23.8326 22.7591 20.6024C22.7591 20.3429 22.6568 20.048 22.5115 19.8301C21.7951 18.7534 21.049 17.6991 20.3127 16.6352C20.2335 16.5231 20.1509 16.4141 19.9958 16.318C19.9958 21.1376 19.9958 25.9572 19.9958 30.8089C19.8241 30.8089 19.7052 30.8089 19.5303 30.8089C19.5303 25.9668 19.5303 21.144 19.5303 16.2058C19.3883 16.3756 19.3223 16.4429 19.2661 16.5231C18.4738 17.6575 17.6781 18.7887 16.9023 19.9359C16.7966 20.0929 16.757 20.314 16.7537 20.5095C16.7438 23.7781 16.7471 27.0468 16.7471 30.3154C16.7471 30.4692 16.7471 30.6198 16.7471 30.8057C16.6117 30.8217 16.5028 30.8377 16.3542 30.8538C16.341 30.716 16.3212 30.6038 16.3212 30.4948C16.3179 28.2388 16.3212 25.9829 16.3212 23.7269C16.3212 22.6501 16.3245 21.5734 16.3146 20.4967C16.3146 20.3397 16.2849 20.1538 16.199 20.0288C15.3539 18.7919 14.4922 17.5613 13.6371 16.3308C13.6173 16.3051 13.5843 16.2891 13.5083 16.2314C13.5083 21.112 13.5083 25.9476 13.5083 30.8153C13.3631 30.8153 13.2541 30.8153 13.1055 30.8153C13.1055 25.9604 13.1055 21.1216 13.1055 16.1738C12.9735 16.318 12.9074 16.3788 12.8579 16.4526C12.0392 17.6318 11.2138 18.8047 10.4115 19.9936C10.3059 20.1506 10.2696 20.3749 10.2696 20.5672C10.2596 23.823 10.2629 27.0788 10.2629 30.3346C10.2629 30.4852 10.2629 30.6358 10.2629 30.8153C10.1111 30.8153 10.0021 30.8153 9.83375 30.8153C9.83375 30.639 9.83375 30.4756 9.83375 30.3154C9.83375 27.0596 9.83705 23.8038 9.82385 20.548C9.82385 20.3108 9.73801 20.0416 9.60265 19.843C8.8466 18.7118 8.06415 17.603 7.28829 16.4878C7.22556 16.3981 7.15293 16.3148 7.02417 16.1545C7.02417 21.0863 7.02417 25.9252 7.02417 30.7993C6.8723 30.7993 6.75345 30.7993 6.59168 30.7993C6.59168 25.9444 6.59168 21.1087 6.59168 16.2731C6.56526 16.2667 6.53885 16.2571 6.51244 16.2507C6.2054 16.6897 5.89506 17.1287 5.59132 17.5709C5.08289 18.3048 4.55795 19.0258 4.07924 19.7789C3.92407 20.0224 3.81511 20.3397 3.81511 20.6249C3.79531 23.8422 3.80521 27.0596 3.80191 30.2769C3.80191 30.4532 3.7821 30.6262 3.7722 30.8377C3.62363 30.8281 3.51468 30.8185 3.36281 30.8089C3.36281 30.5974 3.36281 30.4211 3.36281 30.2449C3.36281 27.0788 3.35951 23.9127 3.36941 20.7466C3.36941 20.3589 3.28688 20.0352 3.05247 19.7116C2.13135 18.4298 1.23994 17.1319 0.335333 15.8405C0.332031 15.8148 0.332031 15.7892 0.332031 15.7636ZM10.0483 11.1362C8.97536 12.6872 7.94529 14.1741 6.87891 15.7091C9.02819 15.7091 11.0883 15.7091 13.2211 15.7091C12.1514 14.1677 11.1147 12.6776 10.0483 11.1362ZM16.5226 11.1554C15.4628 12.684 14.4261 14.1805 13.3697 15.7027C15.5057 15.7027 17.5626 15.7027 19.6788 15.7027C18.6124 14.1677 17.5824 12.684 16.5226 11.1554ZM13.2838 6.47041C12.2174 8.00859 11.1775 9.50511 10.121 11.0273C12.2571 11.0273 14.3271 11.0273 16.4467 11.0273C15.3803 9.49229 14.3436 8.00218 13.2838 6.47041Z" fill="#626669"/>
<path d="M114.247 30.6842C113.28 30.6842 112.362 30.6842 111.392 30.6842C115.066 20.9104 118.724 11.175 122.386 1.42676C122.521 1.42676 122.633 1.42676 122.765 1.42676C126.717 11.1654 130.662 20.8943 134.628 30.6746C132.799 30.6746 131.029 30.6746 129.226 30.6746C128.226 28.1879 127.219 25.6883 126.209 23.176C123.218 23.176 120.24 23.176 117.219 23.176C116.232 25.6659 115.241 28.1686 114.247 30.6842ZM121.702 11.9793C120.481 15.0268 119.295 17.9814 118.104 20.952C120.537 20.952 122.894 20.952 125.311 20.952C124.112 17.9686 122.927 15.0204 121.702 11.9793Z" fill="#626669"/>
<path d="M83.183 30.6906C81.3474 30.6906 79.5844 30.6906 77.7817 30.6906C76.7715 28.1846 75.7612 25.6787 74.751 23.1695C71.7466 23.1695 68.7786 23.1695 65.7676 23.1695C64.7804 25.6658 63.79 28.1686 62.7962 30.6874C61.8553 30.6874 60.9408 30.6874 59.9404 30.6874C63.6117 20.9167 67.2698 11.1813 70.9344 1.43311C71.0632 1.43311 71.1754 1.43311 71.3174 1.43311C75.266 11.1717 79.2146 20.9103 83.183 30.6906ZM70.251 11.9792C69.0328 15.0204 67.8442 17.9781 66.6524 20.952C69.079 20.952 71.4462 20.952 73.8629 20.952C72.6611 17.9685 71.4726 15.0172 70.251 11.9792Z" fill="#626669"/>
<path d="M198.585 1.95557C198.585 2.62532 198.585 3.27584 198.585 3.99045C194.616 3.99045 190.654 3.99045 186.666 3.99045C186.666 7.88076 186.666 11.707 186.666 15.5973C189.859 15.5973 193.041 15.5973 196.257 15.5973C196.257 16.3407 196.257 17.0233 196.257 17.7539C193.061 17.7539 189.885 17.7539 186.676 17.7539C186.676 21.3559 186.676 24.9097 186.676 28.5372C190.638 28.5372 194.6 28.5372 198.585 28.5372C198.585 29.2935 198.585 29.9825 198.585 30.7099C192.88 30.7099 187.191 30.7099 181.479 30.7099C181.479 21.1187 181.479 11.5596 181.479 1.95877C187.171 1.95557 192.853 1.95557 198.585 1.95557Z" fill="#626669"/>
<path d="M148.464 31.3729C148.332 31.3729 148.23 31.3729 148.098 31.3729C144.179 21.5926 140.256 11.8156 136.314 1.97763C138.137 1.97763 139.897 1.97763 141.716 1.97763C144.205 8.31942 146.704 14.6932 149.24 21.1536C151.772 14.6965 154.265 8.33224 156.771 1.94238C157.708 1.94238 158.636 1.94238 159.626 1.94238C155.902 11.7675 152.191 21.551 148.464 31.3729Z" fill="#626669"/>
<path d="M96.6335 17.7505C96.6335 22.0991 96.6335 26.3739 96.6335 30.6744C94.8936 30.6744 93.1999 30.6744 91.4766 30.6744C91.4766 21.1025 91.4766 11.5465 91.4766 1.95215C97.1551 1.95215 102.824 1.95215 108.535 1.95215C108.535 2.60267 108.535 3.2564 108.535 3.9678C104.587 3.9678 100.645 3.9678 96.6665 3.9678C96.6665 7.86773 96.6665 11.7132 96.6665 15.6067C99.8591 15.6067 103.035 15.6067 106.244 15.6067C106.244 16.3341 106.244 17.0167 106.244 17.7505C103.055 17.7505 99.8789 17.7505 96.6335 17.7505Z" fill="#626669"/>
<path d="M172.904 1.93555C172.904 11.5331 172.904 21.0859 172.904 30.6771C171.214 30.6771 169.534 30.6771 167.813 30.6771C167.813 21.1051 167.813 11.5331 167.813 1.93555C169.514 1.93555 171.184 1.93555 172.904 1.93555Z" fill="#626669"/>
</svg>
