<svg width="100" height="79" viewBox="0 0 100 79" fill="none" xmlns="http://www.w3.org/2000/svg">
<path d="M30.2093 35.2022C30.2429 35.2022 28.6021 33.7966 27.994 33.1912C27.0559 32.2572 27.0773 30.8668 27.0773 30.1275V25.6186C27.0773 24.8124 28.0246 24.3043 28.7029 24.3378C29.3812 24.3713 30.2765 24.7759 30.2765 25.6186V31.4266H34.5848V24.3256C34.5848 23.3155 33.2343 19.6129 28.7029 19.5977C24.1715 19.5825 22.8057 22.1959 22.8057 24.3256V32.0685C22.829 32.9978 23.0491 33.9116 23.4513 34.7504C23.8536 35.5892 24.429 36.3341 25.1401 36.9364C26.4998 38.0377 26.9979 38.4941 26.9979 38.4941" fill="#626669"/>
<path d="M26.9948 38.5218C26.9612 38.5218 28.7884 40.0765 29.3996 40.685C30.3346 41.619 30.3162 43.0094 30.3162 43.7487C30.3162 44.488 30.2979 47.8863 30.2979 48.6926C30.2979 49.4988 29.3507 50.0069 28.6754 49.9704C28.0001 49.9339 27.1018 49.5323 27.1018 48.6926L27.1232 42.4526H22.824C22.824 42.4526 22.8057 48.6926 22.8057 49.9704C22.8057 50.9835 24.1593 54.6831 28.6907 54.7013C33.2221 54.7196 34.5726 52.1244 34.5726 49.9704C34.5726 47.8164 34.5909 42.9729 34.5909 41.7955C34.5677 40.8665 34.3481 39.9528 33.9464 39.1141C33.5447 38.2753 32.9699 37.5303 32.2596 36.9276C30.8998 35.8232 30.2123 35.2178 30.2123 35.2178" fill="#626669"/>
<path d="M54.0484 54.4036H49.8164V28.1416H54.0484V29.3068C54.9222 28.5675 55.3745 28.2968 56.9847 28.2968V32.5409C55.13 32.5409 54.0484 33.4354 54.0484 34.8106V54.4067V54.4036Z" fill="#626669"/>
<path d="M65.406 54.3515H61.2443V32.5374H58.9648V28.2963H61.2443V22.2358H65.406V28.2963H69.0573V32.5374H65.406V54.3515Z" fill="#626669"/>
<path d="M94.7914 26.4554C94.4859 26.0599 94.0703 26.355 94.3484 26.6988C96.6462 29.5587 100.903 38.6981 94.4981 49.8059C88.6589 59.931 73.809 71.0388 48.2828 70.19C27.1995 69.4963 7.31088 56.4992 7.5095 39.1575C7.68366 23.985 22.0326 3.49136 50.5317 2.60298C54.3206 2.48433 59.5151 2.52996 63.5209 3.12019C73.5859 4.60488 78.2976 6.27212 82.5478 8.19492C83.0887 8.44136 83.1376 8.0215 82.8198 7.82679C79.6389 5.87661 70.7473 1.1335 53.7248 0.728859C28.8862 0.141675 3.91922 14.4197 0.683384 38.6677C-2.44245 62.0516 22.8484 78.3923 49.9634 78.9856C77.0784 79.5789 97.5323 61.4431 99.442 42.9209C100.582 31.8861 94.7914 26.4676 94.7914 26.4676V26.4554Z" fill="#626669"/>
<path d="M75.1438 41.8289C74.8871 42.1331 74.7374 42.4374 74.7374 43.3501C74.7374 44.2628 74.6855 48.3336 74.7374 49.0911C74.7647 49.4004 74.9129 49.6866 75.1501 49.888C75.3873 50.0895 75.6945 50.1901 76.0055 50.1681C76.5616 50.1681 77.2277 49.8639 77.2277 49.0911V40.2134C77.2277 40.2134 75.3944 41.5247 75.1499 41.8289H75.1438ZM81.4719 54.3514H77.2216C77.2216 54.3514 77.2552 52.9976 77.2216 53.0402C76.7632 53.6487 75.5471 54.3149 74.4349 54.3514C72.9071 54.4032 70.4627 53.5604 70.5268 51.309C70.591 49.0577 70.5268 45.2516 70.5268 43.2315C70.5026 42.4588 70.6598 41.6912 70.9861 40.9898C71.3123 40.2884 71.7985 39.6725 72.406 39.1911C73.3227 38.4823 74.1782 37.6699 75.0399 37.0615C75.9016 36.453 77.1788 35.3638 77.2216 34.3872C77.2463 33.9332 77.2463 33.4782 77.2216 33.0242C77.2216 31.792 76.4088 31.5608 75.9994 31.5608C75.5899 31.5608 74.7313 31.792 74.7313 32.9725V36.1031H70.5268V31.8103C70.5268 29.1847 73.671 27.5874 76.0055 27.5874C78.4896 27.5874 81.481 29.2181 81.481 31.8103V54.3514H81.4719Z" fill="#626669"/>
<path d="M43.394 33.4289C43.3969 33.2733 43.3683 33.1188 43.3099 32.9745C43.2516 32.8302 43.1646 32.699 43.0543 32.5889C42.9439 32.4787 42.8124 32.3918 42.6676 32.3333C42.5228 32.2748 42.3677 32.246 42.2115 32.2484C42.0554 32.2405 41.8993 32.266 41.7539 32.323C41.6084 32.38 41.4769 32.4674 41.3681 32.5792C41.2593 32.6909 41.1758 32.8246 41.1231 32.9711C41.0704 33.1177 41.0498 33.2738 41.0626 33.4289V38.3424H43.394V33.4289ZM47.6534 42.4344H41.0626V49.0851C41.0642 49.2377 41.0961 49.3885 41.1565 49.5288C41.2169 49.669 41.3046 49.796 41.4145 49.9023C41.5245 50.0087 41.6545 50.0923 41.797 50.1484C41.9396 50.2045 42.0918 50.2319 42.2451 50.2291C42.3965 50.2311 42.5469 50.2029 42.6872 50.1461C42.8275 50.0894 42.955 50.0052 43.0621 49.8986C43.1692 49.7919 43.2537 49.665 43.3107 49.5253C43.3677 49.3856 43.396 49.2359 43.394 49.0851V45.6472H47.6534V50.1621C47.6534 53.6609 44.882 54.6679 42.2787 54.7075C40.0451 54.744 36.8337 53.6974 36.8001 50.1439C36.7665 46.5903 36.8001 34.7554 36.8001 31.8225C36.8001 28.6949 40.2162 27.6514 42.1443 27.6514C44.0723 27.6514 47.6443 28.7253 47.6443 31.8225V42.4466L47.6534 42.4344Z" fill="#626669"/>
<path d="M96.2277 66.0525C96.5333 66.0525 96.8175 66.0312 96.8175 65.66C96.8175 65.3558 96.5486 65.3071 96.2919 65.3071H95.7939V66.0525H96.2277ZM95.7939 67.4064H95.4272V64.9968H96.3439C96.9153 64.9968 97.1964 65.2097 97.1964 65.6813C97.2013 65.7664 97.1889 65.8516 97.1597 65.9317C97.1305 66.0118 97.0852 66.0851 97.0265 66.1472C96.9679 66.2093 96.8972 66.2588 96.8187 66.2927C96.7402 66.3267 96.6555 66.3443 96.57 66.3446L97.2575 67.4064H96.848L96.2125 66.3598H95.7908V67.4064H95.7939ZM96.2369 67.9418C96.5839 67.9491 96.9253 67.8533 97.2174 67.6667C97.5095 67.48 97.7392 67.211 97.8772 66.8939C98.0153 66.5768 98.0553 66.226 97.9923 65.8861C97.9293 65.5463 97.7661 65.2328 97.5235 64.9856C97.2809 64.7384 96.9699 64.5688 96.6301 64.4983C96.2903 64.4278 95.9372 64.4596 95.6156 64.5897C95.294 64.7198 95.0187 64.9423 94.8246 65.2288C94.6305 65.5154 94.5265 65.8529 94.5258 66.1985C94.5179 66.4262 94.5565 66.6532 94.6392 66.8656C94.7219 67.078 94.847 67.2716 95.007 67.4345C95.1669 67.5975 95.3583 67.7264 95.5697 67.8136C95.7811 67.9008 96.0081 67.9444 96.2369 67.9418ZM94.098 66.1985C94.0901 65.7757 94.2088 65.3601 94.439 65.0048C94.6692 64.6494 95.0004 64.3703 95.3905 64.203C95.7806 64.0357 96.2118 63.9879 96.6293 64.0655C97.0468 64.1432 97.4316 64.3428 97.7347 64.639C98.0378 64.9352 98.2455 65.3146 98.3313 65.7287C98.4171 66.1429 98.3772 66.5731 98.2165 66.9646C98.0558 67.356 97.7818 67.691 97.4292 67.9268C97.0767 68.1626 96.6616 68.2886 96.2369 68.2887C95.9577 68.2948 95.6801 68.2452 95.4204 68.1428C95.1608 68.0404 94.9243 67.8873 94.725 67.6925C94.5257 67.4977 94.3675 67.2652 94.2598 67.0086C94.1522 66.752 94.0971 66.4766 94.098 66.1985Z" fill="#626669"/>
</svg>
