<svg width="216" height="53" viewBox="0 0 216 53" fill="none" xmlns="http://www.w3.org/2000/svg">
<path d="M93.1206 28.3196C93.1206 28.437 93.2215 28.532 93.3336 28.532H95.8778V33.2053C95.8778 33.3227 95.9731 33.4233 96.0964 33.4233H98.5286C98.6126 33.4233 98.6911 33.373 98.7303 33.2892L100.837 28.532H116.714L118.821 33.2892C118.855 33.373 118.927 33.4233 119.017 33.4233H121.461C121.573 33.4233 121.668 33.3283 121.668 33.2053V28.532H124.235C124.352 28.532 124.448 28.437 124.448 28.3196V16.5244H93.1318V28.3196H93.1206ZM108.795 19.9791C109.468 19.9791 110.017 20.5213 110.017 21.1978C110.017 21.8742 109.468 22.4164 108.795 22.4164C108.123 22.4164 107.574 21.8742 107.574 21.1978C107.574 20.5213 108.123 19.9791 108.795 19.9791Z" fill="#626669"/>
<path d="M93.1206 3.18677V15.1161H124.436V3.18677H93.1206ZM108.795 7.96073C109.468 7.96073 110.017 8.50297 110.017 9.17938C110.017 9.85578 109.468 10.4036 108.795 10.4036C108.123 10.4036 107.574 9.85578 107.574 9.17938C107.574 8.50856 108.123 7.96073 108.795 7.96073Z" fill="#626669"/>
<path d="M125.434 0H92.1626V1.83915H125.434V0Z" fill="#626669"/>
<path d="M31.8064 16.9715C30.3269 21.2815 28.4663 24.2946 25.81 26.6816C25.0422 27.3692 24.6219 27.3244 24.4706 27.2741C24.2408 27.1959 24.1792 26.9443 24.1624 26.8437C24.0615 26.2232 24.2464 25.5244 24.437 24.9319C25.4737 21.7455 27.1494 18.9337 29.419 16.5691C29.4751 16.6585 29.5367 16.7312 29.5983 16.7871C30.0018 17.1337 30.7248 17.1952 31.8064 16.9715ZM83.1511 29.9518C83.5098 29.6667 83.8797 29.3704 83.8797 28.6717C83.8797 27.7158 82.9326 26.9555 81.9463 27.2965C81.6548 27.3971 81.4699 27.6095 81.2514 27.794C81.1393 27.8946 80.4668 28.3642 80.1249 28.5207C79.9624 28.5934 79.8615 28.5319 79.8671 28.3474C79.8896 27.5481 79.9344 27.0841 80.1361 26.4524C80.534 25.2058 80.9655 23.948 81.3858 22.735C81.8062 21.5163 82.2377 20.2585 82.6412 19.0119C83.168 17.374 82.5851 15.7641 81.1225 14.8194C79.8559 13.9976 78.4773 14.1821 77.2444 15.3281C75.6585 16.8038 74.3359 18.1678 73.2095 19.5039C72.5314 20.3033 71.8925 21.1418 71.2704 21.9803C72.3913 19.571 73.6018 17.2063 74.7842 14.8976L75.8434 12.8237C77.1491 10.2634 78.4997 7.61928 79.6598 4.93602C79.996 4.16458 80.0465 3.53849 79.8055 3.01861C79.5477 2.44842 78.9649 2.03475 77.973 1.7217C77.816 1.67139 77.6423 1.74406 77.5695 1.89499C77.0203 3.01861 76.4655 4.14222 75.9106 5.26584C75.2269 6.65778 74.5376 8.05531 73.8539 9.44725C73.4112 10.3528 72.9797 11.2752 72.5538 12.192C70.8053 15.9486 68.9952 19.8337 66.0418 22.9306C64.2373 24.8313 62.1974 26.8493 59.8101 29.1021C59.5467 29.3593 58.9022 29.5102 58.5996 29.3872C58.4819 29.3369 58.1456 29.0742 58.4146 27.5872C59.1936 23.2828 61.099 19.4703 63.0436 15.5461C63.1613 15.3057 63.6769 15.0206 64.0468 14.9982L64.9939 14.9367C66.4509 14.8417 67.9584 14.7411 69.4155 14.6908C71.1191 14.6349 71.2817 14.3945 71.3041 14.1206C71.3657 13.6119 71.2536 13.1926 70.9622 12.874C70.2225 12.0578 68.5076 12.0858 66.5238 12.1193C65.9241 12.1305 65.3133 12.1417 64.7024 12.1249C64.8313 11.8566 64.9658 11.5939 65.0947 11.3311C65.5431 10.4311 65.9634 9.58141 66.35 8.69817C66.7704 7.75344 67.3083 6.52361 67.4597 5.50062C67.5549 4.85776 67.0842 3.73414 66.4565 3.42669C65.8401 3.11364 64.9939 4.14781 64.7417 4.61738C63.5088 6.89815 62.4552 8.98327 61.5249 10.9957C61.0542 12.0075 60.5722 12.3317 59.457 12.3653C58.3866 12.3988 57.3667 12.3876 56.2907 12.3765C56.2907 12.3765 55.7863 12.3653 55.6126 12.3709C55.3716 12.3765 55.2595 12.5889 55.2763 12.7454C55.5958 15.3672 57.5068 15.2889 59.0367 15.2218C59.1824 15.2162 59.3337 15.2107 59.4794 15.2051C58.5491 18.1399 56.5765 20.538 54.7047 22.802C53.4046 24.3785 51.9475 25.9325 50.3784 27.4195C50.2214 27.5648 49.9973 27.7269 49.8011 27.6431C49.5265 27.5257 49.2351 26.9331 49.2351 25.9157C49.2351 21.7511 49.5546 21.0412 51.5328 18.4977C51.9195 18.0001 52.0764 17.4747 51.9923 16.9436C51.8915 16.2951 51.4375 15.6746 50.6754 15.1548C49.3472 14.238 48.6243 15.2218 48.0919 15.9374C48.0919 15.9374 42.2468 23.5679 39.5624 26.9331C39.3775 27.1623 39.0749 27.4922 38.649 27.7437C38.408 27.8891 38.2006 27.9282 38.083 27.8555C37.9485 27.7717 37.87 27.5369 37.8868 27.2462C37.9316 26.4636 38.0718 26.1729 38.4528 25.2896C38.9964 24.0319 39.7306 22.5617 40.3358 21.3598C40.8009 20.4374 41.2773 19.4815 41.72 18.5256C42.4037 17.0442 42.3197 15.5125 41.4846 14.4169C40.7393 13.4386 39.512 12.9858 38.2006 13.2038C36.5979 13.4665 35.18 13.6342 33.8631 13.7237C33.157 13.774 32.2715 13.8299 31.7727 13.5169C29.9122 12.3429 28.528 13.1926 27.6481 13.9305C25.4233 15.8088 23.6748 18.3076 22.2962 21.5666C21.6798 23.0145 21.265 24.5462 21.0913 25.994C20.8728 27.8723 21.6405 29.2754 23.2489 29.9462C25.5578 30.9077 28.6681 28.8394 30.5454 26.2959C31.5542 24.9375 34.5692 20.8623 34.6645 16.4684C36.1271 16.2784 37.6402 16.0827 39.4448 15.8479C39.4448 15.8479 37.9092 19.1629 37.601 19.7778C36.9285 21.1306 36.2336 22.5337 35.6844 23.9704C35.365 24.8033 34.8662 26.4133 35.1744 27.822C35.4322 29.0294 36.3065 30.3375 37.2984 31.0027C38.705 31.9531 40.1004 30.5667 40.7673 29.9071C41.2437 29.4375 41.7817 28.9065 42.258 28.3419C43.4461 26.9387 44.6229 25.5188 45.7494 24.1604L46.1304 23.7021C46.1361 23.8753 46.1361 24.0486 46.1417 24.2275C46.1585 25.3288 46.1753 26.4748 46.405 27.576C46.646 28.7443 47.3577 29.6667 48.3553 30.1195C49.4032 30.5891 50.6474 30.494 51.7626 29.8568C52.4799 29.4431 53.1132 28.8785 53.7296 28.3363C54.1779 27.945 54.9457 27.2294 55.394 26.7822C55.2875 28.4592 55.4837 30.4493 57.3835 31.5785C58.0504 31.9754 58.6836 32.132 59.2777 32.132C60.4769 32.132 61.5193 31.4891 62.3655 30.8462C63.3406 30.1083 65.3581 28.2971 65.4702 28.1965C65.1564 30.1027 65.5262 30.9692 67.3532 31.5841C67.4933 31.6344 67.6446 31.5785 67.7343 31.4611C71.2929 26.4859 74.9972 21.3095 79.912 17.3349C79.8167 17.8492 79.6598 18.3355 79.4973 18.8386C79.2787 19.5095 79.0041 20.3088 78.7743 20.9741C78.2195 22.5728 77.6479 24.2219 77.2837 25.899C76.8521 27.8499 77.547 29.6276 79.1498 30.6562C80.2987 31.3996 81.6268 31.2264 83.1511 29.9518ZM148.007 16.2672C147.161 15.479 146.365 14.7355 145.844 14.1541C144.499 12.6504 143.9 11.5156 143.961 10.5765C144.006 9.90005 144.393 9.26277 145.189 8.58078C148.114 6.05404 153.197 4.40496 156.346 4.89689C156.313 5.24907 156.117 5.62919 155.898 6.05963C155.399 7.03231 154.643 8.50252 156.559 9.928C156.739 10.0622 157.181 10.1572 157.422 9.73234C157.669 9.30749 157.882 8.88264 158.106 8.47457C158.582 7.6081 159.031 6.79753 159.423 5.94783C160 4.70683 159.782 3.84036 159.496 3.32607C158.986 2.42047 157.843 1.8335 156.184 1.63785C152.743 1.22977 145.104 3.43787 142.213 6.92051C140.184 9.36339 140.005 12.6839 141.781 14.9926C142.342 15.725 143.698 16.966 145.127 18.274C146.814 19.8225 148.915 21.7511 149.33 22.5505C150.064 23.9704 150.03 25.4014 149.246 26.6872C148.019 28.6996 145.155 29.9462 141.781 29.9462C137.668 29.9462 135.953 28.7387 135.718 27.6095C135.499 26.5474 136.452 25.3232 138.049 24.63C139.669 24.0207 139.618 22.3716 139.366 21.5834C139.243 21.2089 138.856 21.125 138.604 21.2144C132.131 23.5902 131.968 26.8157 132.198 28.0847C132.736 31.0866 136.782 33.2612 141.826 33.2612C146.59 33.2612 150.686 31.3437 152.788 28.135C153.987 26.3015 154.273 24.3505 153.578 22.7741C152.597 20.5492 150.053 18.1734 148.007 16.2672ZM215.257 25.0269C212.455 27.4083 210.454 28.7108 207.91 28.7108C206.172 28.7108 205.399 27.2238 205.18 26.458C209.002 24.1772 213.884 20.5716 215.369 17.7262C216.103 16.5076 216.047 15.0262 215.234 14.1206C214.181 12.9467 212.04 12.6672 210.056 13.4106C208.745 13.897 207.237 15.0653 206.357 15.9877C203.679 18.7883 202.205 21.8517 201.964 25.094C201.459 25.3735 199.89 26.2344 199.279 26.5307C198.198 27.0505 197.391 27.3021 196.819 27.3021C196.466 27.3021 195.878 27.3189 195.883 26.2623C195.894 24.9151 197.48 20.4095 199.644 17.7821C200.428 16.8262 200.708 15.9933 200.479 15.2945C200.226 14.551 199.447 14.0367 198.086 13.7069C197.761 13.6287 196.942 13.4386 196.942 13.4386C197.217 12.7342 197.312 12.2255 197.111 11.7951C196.881 11.3088 196.32 11.0628 195.368 10.7833C195.222 10.7386 195.065 10.8001 194.987 10.9342C194.785 11.2752 194.639 11.538 194.51 11.7783C194.247 12.2647 194.056 12.6168 193.541 13.2206C193.048 13.7964 191.91 14.7187 190.862 15.1603C190.683 14.2771 189.909 13.2541 189.237 12.9299C187.712 12.192 185.841 12.5162 184.232 13.7908C182.686 15.015 181.357 16.4908 180.035 17.8827C179.082 18.889 177.591 20.5828 176.487 21.9635C175.165 23.6182 173.747 25.2841 171.999 27.0114C171.382 27.6207 170.715 27.9058 170.429 27.8276C170.278 27.7884 170.166 27.699 170.082 27.5536C169.908 27.2574 169.897 26.7654 170.043 26.2344C170.379 25.0045 170.939 23.4952 171.533 21.902C171.937 20.8231 172.352 19.7051 172.699 18.6598C173.209 17.1225 172.565 15.5349 171.046 14.6125C169.791 13.8467 168.474 13.9864 167.134 15.0262C166.243 15.7138 165.307 16.474 164.534 17.3629C163.133 18.9449 160.157 22.4946 160.017 22.6623C160.286 22.1704 160.555 21.6784 160.83 21.1921C162.298 18.52 163.822 15.7641 165.29 13.0305C166.675 10.4535 168.087 7.70872 169.488 4.88571C169.779 4.30993 169.83 3.54408 169.634 3.01302C169.415 2.42047 168.367 1.54282 168.149 1.52046C167.521 1.45897 166.854 2.7391 166.848 2.75587C166.434 3.54967 166.019 4.34347 165.599 5.13726C163.934 8.31245 162.214 11.5939 160.617 14.8641C158.554 19.0958 156.621 23.3611 154.844 27.3356C153.959 29.3257 154.441 30.5164 156.514 31.45C156.699 31.5338 156.856 31.4332 156.918 31.3437C160.689 26.335 164.59 21.1585 169.83 17.1281C169.734 17.6368 169.572 18.1119 169.404 18.6039C169.404 18.6039 168.888 20.0964 168.659 20.7337C168.087 22.3604 167.493 24.0375 167.033 25.7313C166.579 27.4139 167.616 29.8344 169.084 30.5276C171.035 31.4388 172.542 30.4326 173.753 29.3257C174.532 28.6158 175.624 27.3636 176.28 26.5866C176.375 27.2182 176.661 28.0623 177.44 28.8282C178.757 30.1195 181.677 30.0301 184.098 28.6269C186.945 26.9779 188.856 24.753 190.29 21.4157C190.918 19.9623 191.142 18.7101 191.26 17.6591C192.543 17.4076 195.009 16.4461 195.889 15.5517C196.214 15.6746 196.427 15.7864 196.494 15.8368C196.909 16.1554 197.038 16.256 196.264 17.3405C193.972 20.566 193.227 22.925 192.818 25.4797C192.532 27.235 193.182 28.8226 194.471 29.527C195.3 29.9798 196.135 30.0301 196.46 30.0301C197.693 30.0301 199.201 29.6052 200.966 28.7555C201.437 28.5543 202.547 28.0288 202.547 28.0288C203.146 29.3369 204.205 30.3152 205.562 30.7959C205.578 30.8015 205.803 30.8798 205.937 30.9189C205.943 30.9189 205.948 30.9245 205.959 30.9245C206.615 31.1257 207.276 31.2264 207.932 31.2264C210.308 31.2264 212.499 30.1251 213.76 29.0909C215.447 27.7102 215.873 26.2511 215.974 25.4965C215.991 25.3567 216.008 25.2337 215.996 25.1331C215.952 24.725 215.598 24.7362 215.257 25.0269ZM212.505 15.7976C212.628 15.7809 212.852 15.7864 212.802 16.0268C212.774 16.161 212.505 16.72 210.527 18.9896C208.868 20.9014 206.122 22.6679 204.951 23.3834C205.55 19.5989 210.426 16.1107 212.505 15.7976ZM179.407 23.8865C181.077 20.7057 182.506 18.6989 185.919 16.1889C186.227 17.374 186.872 18.1399 187.696 18.2852C187.701 18.3076 187.701 18.3355 187.707 18.3579C187.785 18.8331 187.886 19.4815 187.315 20.8846C186.648 22.5337 185.443 24.0766 183.739 25.4573C182.226 26.6872 180.567 26.9667 179.71 26.6089C179.418 26.4859 179.211 26.2623 179.093 25.9493C178.892 25.4014 179.009 24.6524 179.407 23.8865ZM22.0216 4.74037C22.0496 5.10372 21.7918 5.64597 21.5901 6.06522C21.0913 7.08822 20.4132 8.48016 22.2177 9.89446C22.5204 10.1292 22.9239 10.0007 23.0808 9.70439C23.3049 9.27395 23.5179 8.85469 23.7309 8.44661C24.1792 7.58574 24.6051 6.76958 24.9806 5.92547C25.4849 4.7795 25.4289 3.6447 24.8293 2.81177C24.2128 1.95649 23.0976 1.53164 21.775 1.65462C16.7201 2.11301 12.4778 3.8739 9.1658 6.87579C6.88493 8.94973 6.54868 12.2311 8.38682 14.5119C8.93603 15.1939 10.0512 16.1666 11.3402 17.2958C13.3465 19.0511 15.8459 21.2312 16.3278 22.4946C16.8602 23.8865 16.6529 25.4853 15.7674 26.771C14.4897 28.6269 12.0071 29.6499 8.77911 29.6499C5.08601 29.6499 3.50565 28.5096 3.25907 27.4474C3.01249 26.3741 3.97079 25.1331 5.70246 24.289C6.45341 23.9257 6.90174 23.4337 7.03624 22.83C7.22678 21.9971 6.7168 21.3318 6.66076 21.2592C6.50945 21.0691 6.26287 20.9964 6.0331 21.0747C0.922161 22.7853 -0.389199 25.7983 0.0927541 28.0456C0.61954 30.522 3.48324 32.9537 8.59978 32.9537C9.12657 32.9537 9.68137 32.9257 10.253 32.8754C14.1534 32.5065 17.1741 30.8574 18.7656 28.23C20.0265 26.1505 20.2115 23.6406 19.27 21.3486C18.3957 19.2132 15.4704 16.6585 13.3296 14.7914C12.8309 14.3554 12.3825 13.9641 12.0407 13.6454C10.8975 12.5833 10.3258 11.538 10.3875 10.6324C10.4379 9.88887 10.8919 9.20687 11.7381 8.60314C14.7811 6.42858 20.5365 4.20371 22.0216 4.74037Z" fill="#626669"/>
<path d="M69.7851 52.8318C69.7851 52.8318 69.6562 52.8933 69.3984 52.8933C69.1406 52.8933 69.0117 52.8318 69.0117 52.8318V45.3467H73.1419C73.1644 45.4194 73.2036 45.5256 73.2036 45.6709C73.2036 45.8162 73.17 45.9225 73.1419 45.9951H69.7907V48.8573H72.7216C72.7553 48.9188 72.7833 49.0362 72.7833 49.1703C72.7833 49.3157 72.7497 49.4331 72.7216 49.5057H69.7907V52.8318H69.7851Z" fill="#626669"/>
<path d="M82.8155 50.4342C82.8155 52.0777 81.7844 53.0001 80.2488 53.0001C78.7021 53.0001 77.6934 52.0553 77.6934 50.4342V45.4143C77.6934 45.4143 77.8279 45.3528 78.08 45.3528C78.3434 45.3528 78.4667 45.4143 78.4667 45.4143V50.5516C78.4667 51.6808 79.128 52.346 80.2656 52.346C81.3921 52.346 82.0421 51.6864 82.0421 50.5516V45.4143C82.0421 45.4143 82.1654 45.3528 82.4176 45.3528C82.6698 45.3528 82.8043 45.4143 82.8043 45.4143V50.4342H82.8155Z" fill="#626669"/>
<path d="M90.5207 45.3467C91.8657 45.3467 92.6951 46.2076 92.6951 47.4933C92.6951 48.5498 92.1403 49.3268 91.182 49.556L92.9977 52.8263C92.9977 52.8263 92.8408 52.8877 92.5438 52.8877C92.2468 52.8877 92.0898 52.8263 92.0898 52.8263L90.3245 49.6399H88.6881V52.8263C88.6881 52.8263 88.5593 52.8877 88.3071 52.8877C88.0213 52.8877 87.9092 52.8263 87.9092 52.8263V45.3467H90.5207ZM88.6938 48.9858H90.4478C91.3389 48.9858 91.8769 48.4436 91.8769 47.4989C91.8769 46.5653 91.3389 46.0119 90.4478 46.0119H88.6938V48.9858Z" fill="#626669"/>
<path d="M98.8646 47.4994C98.4892 46.8733 98.2986 46.3478 98.2986 46.3478H98.265C98.265 46.3478 98.3154 46.9124 98.3154 47.941V52.838C98.3154 52.838 98.1978 52.8994 97.9456 52.8994C97.7046 52.8994 97.5869 52.838 97.5869 52.838V45.4143C97.5869 45.4143 97.755 45.3528 98.0465 45.3528C98.3603 45.3528 98.5116 45.4143 98.5116 45.4143L101.594 50.6858C101.953 51.2951 102.193 51.9044 102.193 51.9044H102.227C102.227 51.9044 102.165 51.2336 102.165 50.3448V45.4199C102.165 45.4199 102.283 45.3584 102.541 45.3584C102.793 45.3584 102.888 45.4199 102.888 45.4199V52.8435C102.888 52.8435 102.754 52.905 102.446 52.905C102.132 52.905 101.975 52.8435 101.975 52.8435L98.8646 47.4994Z" fill="#626669"/>
<path d="M108.056 45.4143C108.056 45.4143 108.179 45.3528 108.442 45.3528C108.706 45.3528 108.829 45.4143 108.829 45.4143V52.838C108.829 52.838 108.695 52.8994 108.442 52.8994C108.168 52.8994 108.056 52.838 108.056 52.838V45.4143Z" fill="#626669"/>
<path d="M118.289 45.3467C118.289 45.3467 118.351 45.4697 118.351 45.6821C118.351 45.8833 118.289 46.0287 118.289 46.0287H116.238V52.8318C116.238 52.8318 116.103 52.8933 115.851 52.8933C115.577 52.8933 115.464 52.8318 115.464 52.8318V46.0287H113.363C113.363 46.0287 113.301 45.8945 113.301 45.6821C113.301 45.4808 113.363 45.3467 113.363 45.3467H118.289Z" fill="#626669"/>
<path d="M127.877 50.4342C127.877 52.0777 126.846 53.0001 125.31 53.0001C123.764 53.0001 122.755 52.0553 122.755 50.4342V45.4143C122.755 45.4143 122.889 45.3528 123.142 45.3528C123.405 45.3528 123.528 45.4143 123.528 45.4143V50.5516C123.528 51.6808 124.19 52.346 125.327 52.346C126.454 52.346 127.104 51.6864 127.104 50.5516V45.4143C127.104 45.4143 127.227 45.3528 127.479 45.3528C127.731 45.3528 127.866 45.4143 127.866 45.4143V50.4342H127.877Z" fill="#626669"/>
<path d="M135.589 45.3467C136.934 45.3467 137.763 46.2076 137.763 47.4933C137.763 48.5498 137.208 49.3268 136.25 49.556L138.066 52.8263C138.066 52.8263 137.909 52.8877 137.612 52.8877C137.315 52.8877 137.158 52.8263 137.158 52.8263L135.392 49.6399H133.756V52.8263C133.756 52.8263 133.627 52.8877 133.375 52.8877C133.089 52.8877 132.977 52.8263 132.977 52.8263V45.3467H135.589ZM133.762 48.9858H135.516C136.407 48.9858 136.945 48.4436 136.945 47.4989C136.945 46.5653 136.407 46.0119 135.516 46.0119H133.762V48.9858Z" fill="#626669"/>
<path d="M146.831 45.3474C146.876 45.4424 146.892 45.5375 146.892 45.6604C146.892 45.7834 146.87 45.9008 146.831 45.9958H143.435V48.7518H146.304C146.349 48.8468 146.366 48.953 146.366 49.0536C146.366 49.1766 146.343 49.2828 146.304 49.389H143.435V52.24H146.932C146.977 52.335 146.993 52.4412 146.993 52.5531C146.993 52.6704 146.971 52.7822 146.932 52.8885H142.656V45.3418H146.831V45.3474Z" fill="#626669"/>
</svg>
