<svg width="265" height="49" viewBox="0 0 265 49" fill="none" xmlns="http://www.w3.org/2000/svg">
<path d="M23.2815 18.2307C23.1712 18.3873 22.8216 18.6543 22.7848 18.8845C22.7848 19.041 22.8584 19.2251 22.8584 19.3448C22.7848 19.8789 22.6284 19.842 22.5549 20.109C22.2881 20.8733 22.1317 21.6007 21.8282 22.2912C21.7546 22.4477 21.635 22.5214 21.5614 22.6779C21.4878 22.9081 21.3315 23.1751 21.3315 23.4053C21.2947 24.1327 20.7979 25.2468 20.2644 26.1583C19.9609 26.6555 19.7677 26.5819 19.6941 26.8121C19.5837 27.0422 19.5837 27.3093 19.4641 27.5026C19.041 28.1195 18.7007 28.764 18.2407 29.3441C17.7808 29.915 17.2841 30.4122 16.7506 30.9186C16.5942 31.0751 16.4838 31.3053 16.2906 31.4158C16.1343 31.5263 15.8307 31.5723 15.6375 31.646C15.4076 31.7565 15.1408 32.0695 14.8741 32.18H14.5705C13.807 32.4838 13.4575 32.981 12.6572 33.2112C11.4706 33.5979 10.2104 33.3678 8.79382 33.5519C8.60065 33.5887 8.40748 33.6256 8.2603 33.6256C7.53362 33.6256 6.73334 33.5887 6.15383 33.4322C5.35356 33.202 3.8542 32.7785 3.1735 32.3641C2.83316 32.0603 2.60319 31.4066 2.10647 31.4066C1.72013 31.4066 1.11303 30.3753 0.95665 30.0623C0.653098 29.4454 0.386339 28.5339 0.156375 27.8433C0.0459927 27.4566 0 27.0422 0 26.5819C0 25.8913 0.110383 25.2008 0.266758 24.6667C0.303552 24.5931 0.303552 24.4734 0.303552 24.3997C0.303552 24.2064 0.266758 24.059 0.266758 23.9393C0.266758 23.9025 0.303552 23.8289 0.303552 23.7828C0.340347 23.746 0.76348 22.6687 0.800274 22.5214C1.75692 20.4958 4.16695 19.308 5.81349 18.9581C6.11704 18.8845 6.57697 18.8845 7.07369 18.8845H8.37069C8.75703 18.8845 9.29054 19.041 9.66768 19.1146C10.468 19.308 11.1211 19.8052 11.6178 20.4129C11.6546 20.4866 11.6546 20.6062 11.6546 20.6799C11.6914 20.7536 11.8477 20.8364 11.8845 20.9101C12.0777 21.1771 12.0777 21.3336 12.1513 21.6375C12.1881 21.794 12.2249 21.9413 12.2249 22.0979C12.2249 22.6687 11.9581 23.212 11.7282 23.5158C11.5718 23.7092 11.3418 23.8565 11.0751 23.8565C10.9647 23.8565 10.8083 23.8196 10.6887 23.746C10.4588 23.6355 10.422 23.5526 10.3484 23.1291C10.3484 22.8252 10.6151 22.5582 10.7347 22.0979C10.7715 21.9874 10.7715 21.9045 10.7715 21.794C10.7715 21.4073 10.6151 20.993 10.4312 20.6799C10.1644 20.1459 9.17096 19.7223 7.86477 19.6855C7.10129 19.6855 6.33781 19.842 5.80429 20.1827C5.30757 20.4866 4.84764 20.6799 4.42451 21.0206C3.89099 21.3613 2.28124 23.5526 2.28124 24.28L2.17086 25.2376C2.09727 25.698 2.06048 26.1583 2.06048 26.6187C2.06048 27.963 2.40082 29.2244 3.2103 30.2925C4.27733 31.7841 6.11704 32.6312 8.18672 32.6312C8.9502 32.6312 9.75967 32.5207 10.5599 32.2905C11.213 32.0603 11.7466 32.18 12.2801 31.9498C12.7032 31.7565 12.8964 31.4894 13.2735 31.2593C14.9201 30.228 16.2906 28.7364 17.2933 27.0054C17.56 26.4714 17.6336 25.9742 17.9096 25.3941C18.1396 25.0534 18.5995 24.5931 18.6363 24.2432V24.013C18.6363 23.9393 18.6363 23.9025 18.6731 23.8196C19.0594 22.7055 19.3262 21.6743 19.9333 20.063L20.0437 19.7592C20.43 18.8016 21.0371 17.4205 21.0371 16.7299C21.0739 16.2695 21.957 14.3912 22.0305 13.894C22.2973 13.1298 22.9872 11.5553 23.1436 11.141L23.4103 10.2203C23.6403 9.6494 23.7967 8.95884 23.9806 8.42481C24.1738 7.96443 24.5509 7.20022 24.7809 6.70302C24.9373 6.36234 25.2776 5.58892 25.8112 4.78787C25.388 4.78787 24.4682 4.63134 23.8611 4.52085C23.8243 4.52085 23.7507 4.48402 23.7047 4.48402C22.5917 4.25384 21.865 4.09731 20.8715 3.75663C20.1448 3.48962 19.6481 3.10291 18.8478 3.10291H18.3143C17.6612 3.10291 16.9713 2.68857 16.3182 2.68857H15.472C15.012 2.68857 14.5153 2.30186 14.0922 2.30186C13.6691 2.30186 13.4391 2.26503 13.1723 2.26503C13.016 2.26503 12.832 2.26503 12.556 2.33869C12.3261 2.37552 12.2157 2.56888 11.9857 2.56888C11.8293 2.56888 11.1854 2.67936 10.9923 2.79906C10.7991 2.87272 10.422 3.02925 10.192 3.2226C9.65849 3.60932 9.5389 3.60932 9.12497 3.98682C9.01459 4.06048 8.73863 4.44719 8.59145 4.52085C8.43508 4.63134 8.20511 4.63134 8.02114 4.90756C7.59801 5.47843 7.25766 6.01246 7.0277 7.12656C6.9909 7.31991 6.9909 7.51327 6.9909 7.69742C6.9909 8.46164 7.22087 9.30872 7.87396 9.6494C8.03034 9.72306 8.33389 9.72306 8.49027 9.72306C8.9134 9.72306 8.98699 9.45604 9.25375 9.41921C9.36413 9.41921 9.44692 9.38238 9.52051 9.38238C9.71368 9.38238 9.86085 9.45604 10.054 9.57574C10.1644 9.68622 10.2104 9.80592 10.2104 9.96245C10.2104 10.1926 10.1 10.4597 9.94364 10.6162C9.87005 10.7267 9.71368 10.92 9.5573 10.9569C9.32734 11.0305 9.06058 11.0673 8.75703 11.0673C8.2971 11.0673 7.80038 10.9569 7.18407 10.5333C6.9909 10.3768 6.76094 10.1098 6.61376 9.91641C6.22742 9.29951 5.88708 8.38798 5.88708 7.54089V7.39357C5.96067 6.04929 6.347 4.98122 6.95411 4.06048C7.11048 3.83029 7.71759 3.63694 7.91076 3.40675C8.21431 3.06608 8.48107 2.60571 8.83062 2.33869C9.52051 1.87832 9.52051 2.14533 9.94364 1.91515C10.0172 1.84149 10.1368 1.52843 10.2472 1.45478C10.6335 1.06806 11.8569 1.03123 12.4273 0.883914C13.0803 0.690558 14.037 0.653728 14.6441 0.653728C15.9411 0.653728 17.0909 0.994403 17.8912 0.994403H18.8478C19.3446 0.994403 20.0345 1.41795 20.5312 1.41795C20.9175 1.68496 21.3315 1.72179 21.6442 1.72179H21.9478C22.2145 1.72179 22.6376 2.06247 22.9044 2.18216C23.4379 2.37552 24.1646 2.41235 24.6245 2.56888C24.8177 2.64253 25.0385 2.68857 25.2316 2.68857C25.7284 2.68857 26.1883 3.07528 27.1817 3.07528C27.1817 3.07528 27.6417 2.65174 27.7153 2.45839C27.7888 2.26503 28.5155 1.69417 28.8283 1.6113C29.1318 1.53764 29.325 1.64813 29.5182 1.41795C29.7113 1.18776 29.8217 0.957574 30.0517 0.847084C30.668 0.580069 30.9715 0.349883 32.1582 0.156526C32.6917 0.0460372 33.2712 0 33.8415 0C34.7981 0 35.6812 0.193356 36.3619 0.764217C36.9322 1.26142 37.3185 1.95198 37.3185 2.87272C37.3185 3.02925 37.3186 3.17657 37.2818 3.36992C37.1254 4.55768 36.0583 5.3219 35.672 5.51526C35.1753 5.78227 34.375 6.01246 33.9151 6.01246C33.6851 5.97563 33.4552 5.90197 33.2252 5.90197C33.1148 5.90197 33.032 5.9388 32.9216 5.97563C32.848 6.01246 32.7285 6.04929 32.6181 6.04929C32.3513 6.04929 32.0846 5.9388 31.8178 5.89276C30.8612 5.6994 30.8244 5.66258 29.9781 5.55209C29.4446 5.47843 28.9111 5.4416 28.3683 5.24824C27.9084 5.86514 27.9452 6.13215 27.5313 6.70302C27.2277 7.12656 27.3381 7.58693 27.0714 8.08413C26.7678 8.77469 26.0779 9.57574 26.0043 10.386C26.0043 10.653 25.8939 10.8832 25.8939 11.1502C25.8939 11.2607 25.5536 11.5369 25.4708 11.6474C25.434 11.6842 25.434 11.7579 25.434 11.8039C25.434 11.9144 25.5076 12.0341 25.5076 12.1446C25.5076 12.1814 25.5076 12.2551 25.4708 12.3011C25.3604 12.4577 25.0845 12.605 25.0109 12.7615C24.7441 13.1851 24.6245 13.7559 24.5142 14.2163C24.275 15.2015 23.6679 17.5033 23.2815 18.2307ZM30.7048 4.09731C30.8612 4.29067 31.5419 4.3275 31.7718 4.40116C31.8454 4.43799 32.0754 4.43799 32.2685 4.43799C32.4617 4.43799 32.6917 4.43799 32.7653 4.47482C32.9216 4.54847 33.4184 4.63134 33.7587 4.66817C33.9519 4.66817 34.145 4.705 34.2922 4.705C35.3225 4.705 35.856 4.40116 36.1687 3.90395C36.3987 3.56328 36.4723 3.13974 36.4723 2.75302C36.4723 2.21899 36.3159 1.75862 36.0859 1.52843C35.6628 1.10489 35.396 1.06806 35.1661 1.06806H34.8717C34.7981 1.06806 34.7613 1.06806 34.6786 1.03123C34.375 0.957574 34.3014 0.847084 33.9979 0.847084C33.9243 0.847084 33.8047 0.883914 33.6943 0.883914C33.0412 0.957574 32.3513 1.22459 31.3579 1.80466C30.898 2.07167 30.5116 2.65174 30.2908 2.7254C29.7849 2.87272 29.9045 3.10291 29.4446 3.79346C29.5918 3.86712 30.5484 3.91316 30.7048 4.09731Z" fill="#626669"/>
<path d="M40.8407 31.3606C40.8039 31.3974 40.7671 31.4342 40.7304 31.4342C40.6936 31.4342 40.62 31.3974 40.574 31.3974C40.344 31.5539 40.6108 31.5539 40.0037 32.0143C39.8933 32.0879 39.6633 32.0511 39.5805 32.0879C39.4702 32.1248 39.1574 32.5115 39.1206 32.5115C38.9642 32.5483 38.6607 32.5851 38.3571 32.5851C38.0904 32.5851 37.7868 32.5483 37.5569 32.3918C37.1337 32.1248 36.867 31.8578 36.6738 31.3606C36.5634 31.0935 36.5174 30.7437 36.5174 30.3662C36.5174 29.9058 36.591 29.4086 36.6278 29.0679C36.6278 29.0311 36.5174 28.6444 36.5174 28.3773V28.2208C36.7842 27.2633 36.7842 26.0387 37.1337 25.1179C37.4741 24.1235 37.6304 24.0038 37.75 23.0923V22.8621C37.75 22.5214 37.5936 22.3649 37.4097 22.3649C37.2993 22.3649 37.2165 22.4386 37.1061 22.4754C36.8394 22.6319 36.683 22.7792 36.453 22.9726C36.2966 23.0831 36.1127 23.0831 35.9931 23.2396C35.9195 23.3501 35.7999 23.5066 35.6527 23.5803C35.5424 23.6171 35.4964 23.6171 35.386 23.6171C35.2296 23.6539 35.1928 23.8841 35.1192 24.0038C34.9629 24.1603 34.7329 24.234 34.5857 24.3445C34.4293 24.501 34.4293 24.6852 34.3558 24.768C34.1994 25.035 33.9326 25.2284 33.7394 25.4954C33.5095 25.7624 33.0128 25.9558 32.8196 26.2596C32.4333 26.8305 32.0561 27.4106 31.5962 27.8709C31.5226 27.9446 31.403 27.9446 31.3294 28.0275C31.1363 28.2577 30.9891 28.6812 30.7591 28.8285C30.7591 28.8285 30.5659 28.8653 30.5292 28.939C30.5292 29.0495 30.4924 29.1692 30.4188 29.2428C30.152 29.5099 29.8025 29.7032 29.6185 30.0439C29.5081 30.2373 29.5449 30.4674 29.4253 30.6976C29.1586 31.3145 28.7722 31.9222 28.3951 32.4562C28.2019 32.7601 28.1651 32.9903 27.7052 33.1836C27.512 33.2941 27.2453 33.377 27.0153 33.377C26.8589 33.377 26.7117 33.3402 26.5922 33.2665C26.2058 33.0731 26.2058 32.9627 26.2058 32.3458C26.2058 32.1156 26.2794 31.9222 26.3622 31.6552C26.4726 31.3882 26.6658 31.1212 26.7485 30.8081L26.8221 30.0071C26.9325 29.5099 27.3556 28.939 27.3556 28.4326C27.3556 28.2024 27.3556 27.9354 27.3924 27.6684C27.466 27.2817 27.696 26.941 27.8156 26.5174C27.926 26.1768 28.6986 24.2156 28.9654 23.1844C29.0022 23.0278 29.0022 22.8437 29.0022 22.7608H28.8458C28.7354 22.7608 28.6526 22.7976 28.5055 22.9173C28.3951 23.0278 28.2755 23.3777 28.1651 23.4882C27.6316 24.0222 27.4384 24.4826 26.8681 24.9061C26.445 25.21 26.2518 25.523 26.0219 25.7901C25.9851 25.8269 25.9115 25.8269 25.8287 25.8269C25.7551 25.8269 25.6723 25.8269 25.6723 25.8637C25.6355 25.9005 25.6355 25.9742 25.6355 26.1307C25.4791 26.3609 25.2952 26.6648 25.1388 26.7845C25.0284 26.8581 24.8352 26.941 24.7157 26.941C24.6421 26.941 24.5593 26.941 24.5225 26.8673C24.4489 26.7568 24.4121 26.7108 24.4121 26.6371C24.4121 26.6003 24.4489 26.5267 24.4489 26.4806C24.4489 26.4438 24.7157 26.2136 24.8352 26.0939L25.2216 25.6335C25.4883 25.2929 25.6815 24.9798 25.8747 24.7864C26.1414 24.4826 26.5278 24.2524 26.7577 23.9025C27.604 22.7516 28.2479 22.0242 28.9378 21.2968C29.2781 20.9562 29.4345 20.3393 29.5541 20.0722L29.7105 19.5014C30.4004 18.0466 31.2006 16.3248 31.8169 14.9069C32.2033 14.023 32.47 13.0654 32.9668 12.3012C33.5371 11.2331 34.6133 9.58497 35.2664 8.59057C35.3768 8.39721 35.6895 8.24989 35.8367 8.09336C35.9471 8.01971 35.8367 7.70665 35.9931 7.59616C36.6094 6.90561 37.75 5.80071 38.5595 5.30351C38.7895 5.14699 39.6265 4.84314 40.1692 4.84314C40.2428 4.84314 40.3256 4.87997 40.3992 4.87997C41.0155 4.99046 41.3926 5.26668 41.6962 5.76388C41.7698 5.92041 41.8066 6.18743 41.8066 6.45444C41.8066 6.87798 41.7698 7.33836 41.733 7.67903C41.6226 9.09698 40.9695 9.98089 40.5832 10.9385C40.39 11.4725 39.5161 12.7339 39.093 13.1943C38.7895 13.581 38.4031 13.6915 38.3663 13.8112C38.4031 13.7375 38.3663 14.1979 37.2993 15.4225C37.1061 15.6527 36.8026 15.8829 36.6094 16.113C36.2691 16.4998 36.0391 16.7668 35.7631 17.1443C35.6068 17.3376 35.11 17.531 34.9629 17.7151C34.3466 18.5162 33.7027 19.1331 32.976 19.8973C32.7828 20.0907 32.2125 20.818 32.1757 20.8917C32.1389 21.1219 32.1021 21.1955 32.0193 21.4257C31.7158 22.3096 31.219 23.1844 30.8695 24.1788C30.7131 24.7128 30.7131 25.2468 30.5659 25.7901C30.4096 26.3241 30.106 26.8581 30.106 27.5487C30.106 27.6223 30.1428 27.6592 30.2164 27.6592C30.29 27.6592 30.4096 27.6223 30.4832 27.5487C30.8235 27.208 31.0995 26.9318 31.403 26.5174C31.5962 26.2873 31.7434 25.9005 32.0193 25.7164C32.2125 25.5599 32.516 25.4494 32.7092 25.256C32.7092 25.1824 32.746 25.0627 32.746 24.989C32.9392 24.6852 33.4359 24.3721 33.7027 24.1419L34.4661 23.3409C34.9629 22.8805 35.4228 22.5398 35.9563 22.1531C36.0667 22.0795 36.2231 21.8493 36.2966 21.7664C36.4898 21.6559 36.683 21.6928 36.8302 21.5731C37.0601 21.4165 37.2533 21.1495 37.4833 21.0022C37.5201 20.9654 38.7803 20.4682 38.8263 20.4682C39.0562 20.4682 39.7461 20.6247 39.8933 20.7352C40.3164 21.0759 40.5096 21.6928 40.5096 22.3465C40.5096 22.6503 40.4728 22.9634 40.3992 23.2672C40.3992 23.4606 40.1324 23.6908 40.0957 23.8841C39.9853 24.3077 40.0589 24.6852 39.9393 25.1087C39.8289 25.5323 39.5989 26.1031 39.5161 26.5267C39.4794 26.7568 39.4793 26.9502 39.4793 27.1436V27.7605C39.4793 27.917 39.4426 28.2208 39.369 28.4142C39.2954 28.451 39.2586 28.5247 39.2126 28.5707C39.1758 28.6075 39.1758 28.6444 39.1758 28.6812C39.1758 28.7917 39.2494 28.9114 39.2494 29.0679C39.2494 29.3718 39.139 29.6848 39.139 29.915C39.139 30.1452 39.139 30.3754 39.2494 30.5687C39.3598 30.7621 39.5529 30.8357 39.7829 30.8357C39.8933 30.8357 40.0497 30.7989 40.206 30.7621L40.6292 30.6884C40.8959 30.5779 41.1995 30.1912 41.4294 30.1912C41.6226 30.1912 41.6962 30.228 41.6962 30.3477C41.6962 30.6148 41.2363 31.0751 41.2363 31.0751C41.1811 31.1304 40.9143 31.2869 40.8407 31.3606ZM33.1507 18.728C33.2611 18.6543 33.5371 18.3412 33.6107 18.2676C33.951 17.8809 34.1442 18.0006 34.4109 17.6139C34.5213 17.4205 34.8709 17.1535 34.9813 16.997C35.3676 16.4261 35.6344 16.3801 35.8183 16.1499C36.2783 15.4961 36.6186 15.1186 37.1153 14.4649C37.2257 14.3544 37.5385 13.8941 37.612 13.7744C37.7224 13.6178 38.0352 13.4705 38.3019 13.0838C38.5687 12.5866 39.5989 11.5554 39.8289 11.0582C40.3624 10.0638 40.712 8.98649 40.9419 7.7619C40.9787 7.65141 40.9787 7.49488 40.9787 7.37519C40.9787 6.87798 40.7855 6.38078 40.482 6.38078C40.1416 6.38078 39.6449 6.45444 39.415 6.68463C39.185 6.91481 38.8446 7.21866 38.6515 7.44884C38.6147 7.48567 38.6147 7.5225 38.6147 7.55933C38.6147 7.59616 38.6147 7.66982 38.5779 7.66982C38.1548 8.05654 37.0049 9.1246 36.7014 9.65863C36.2782 10.3492 36.4346 10.3492 36.0115 11.0766C35.9011 11.3804 35.7447 11.5738 35.6252 11.8776C35.432 12.3012 34.8985 12.8352 34.7053 13.2587C34.4017 13.9861 34.2822 14.4097 33.9786 15.1371C33.6751 15.7908 33.2151 16.555 33.022 17.3192C32.9852 17.3929 32.562 18.6635 32.562 19.041C32.562 19.1147 32.562 19.1515 32.5988 19.1515C32.6908 19.0686 33.0772 18.7648 33.1507 18.728Z" fill="#626669"/>
<path d="M58.0698 28.6811C57.9594 28.7548 57.7295 28.7916 57.6467 28.8745C57.4903 29.031 57.4535 29.2612 57.3063 29.3717C57.0764 29.5282 56.8464 29.5651 56.6165 29.7584C56.3129 29.9518 54.9331 30.5687 54.5836 30.7989C54.3536 30.9554 54.0868 30.9554 53.8937 31.1027C53.6269 31.2592 52.2287 31.8025 51.962 31.8577C51.1985 32.0234 50.2602 32.3089 49.3864 32.3089C49.3128 32.3089 47.6387 32.5207 47.5559 32.5207C47.2891 32.5207 46.8752 32.5207 46.5256 32.5207C46.452 32.5207 46.4152 32.4838 46.3325 32.4838C46.2497 32.4838 45.3022 32.3733 45.2194 32.3733C44.226 32.1063 43.8029 31.7564 43.5361 30.8817C43.4625 30.6884 43.3061 30.4582 43.2693 30.228C43.113 29.7308 43.0762 29.3809 43.0762 29.0034C43.0762 28.6167 43.113 28.276 43.2693 27.7788C43.3797 27.2816 43.3429 26.8949 43.5361 26.4345C43.7661 25.744 44.1064 25.0534 44.5663 24.3629C44.6031 24.2892 44.8699 24.1327 44.9067 24.059C45.0999 23.792 45.0999 23.6355 45.293 23.3316C45.4494 23.0278 45.6794 22.8713 45.8633 22.6411C46.3969 21.9873 47.0499 21.4165 47.6203 20.9561C48.0802 20.6523 49.2668 19.9985 50.4534 19.9985C51.0237 19.9985 51.5664 20.2287 51.9068 20.6523C52.2471 21.039 52.4035 21.4993 52.4035 21.9505C52.4035 22.5674 52.1735 23.1014 51.9804 23.3685C51.87 23.4789 51.7136 23.5618 51.64 23.6723C51.4101 23.9393 51.4469 24.326 51.2537 24.593C51.0973 24.8232 50.7202 25.0166 50.6006 25.2468C50.4902 25.3204 50.3338 25.5506 50.2602 25.6703C49.7267 26.2412 49.2668 26.4345 48.7333 26.6647C48.6965 26.7016 48.3469 26.7015 48.1998 26.7752C47.933 26.8489 47.703 27.1159 47.5099 27.2356C47.0867 27.5394 46.3233 27.3921 45.9001 27.7328C45.7897 27.8433 45.6334 28.6167 45.5966 28.8008C45.5598 28.9113 45.5598 29.1047 45.5598 29.298C45.5598 29.5651 45.5598 29.7952 45.5966 30.0254C45.7897 31.0567 46.4796 31.4802 47.4363 31.4802C47.6663 31.4802 48.6229 31.4434 48.8897 31.4065C50.343 31.1395 52.5783 31.1395 54.2616 29.9886C54.8319 29.5651 56.2945 29.252 56.828 28.7916C57.1316 28.5615 57.3983 28.1011 57.7847 27.9446C58.171 27.788 58.6217 26.4161 59.3484 26.3701C59.422 26.3701 59.5784 26.4437 59.5784 26.5266C59.5784 26.6371 59.5784 26.9133 59.5048 27.0238C59.4312 27.254 58.9345 27.4842 58.7413 27.6775C58.5298 27.9169 58.1894 28.5707 58.0698 28.6811ZM50.7018 21.2139C50.5086 21.2139 50.2051 21.2876 49.9751 21.4809C49.7083 21.7111 49.5152 22.015 49.2116 22.2452C48.9449 22.4753 48.6413 22.5858 48.3285 22.7792C48.2182 22.8897 48.2182 23.0462 48.1354 23.1659C47.979 23.3224 47.749 23.4329 47.6019 23.5894C47.2615 23.8933 47.2615 24.3537 47.0316 24.7772C46.7648 25.3112 46.4612 25.4309 46.4612 26.232C46.6176 26.3056 46.8016 26.3425 46.9948 26.3425C47.5283 26.3425 48.025 26.0754 48.4113 25.9189C48.6781 25.8084 49.1012 25.6151 49.4416 25.3481C49.552 25.2744 49.6347 25.081 49.7451 24.9613C50.7018 24.0406 51.2721 23.0094 51.2721 21.8216C51.2721 21.7479 51.2353 21.3981 50.9317 21.2507C50.8949 21.2139 50.8214 21.2139 50.7018 21.2139Z" fill="#626669"/>
<path d="M75.7959 9.15222C77.3229 9.15222 78.8223 9.57576 79.7789 10.1466C80.5056 10.607 81.2323 11.2147 81.6922 12.0618C82.3085 13.2127 82.6489 13.5534 82.7225 15.312C82.7225 15.6527 82.6856 16.997 82.5661 17.264C82.3729 17.9914 82.2257 18.0282 82.0694 18.8384C81.9958 19.2252 81.4163 19.5658 81.0391 20.1827C80.6528 20.7996 80.3124 20.6431 80.156 20.8733C79.8525 21.214 79.8893 21.6007 79.3926 21.9414C79.1626 22.0979 78.3991 22.4386 77.5989 22.4386C77.4885 22.4386 77.1389 22.6319 77.0285 22.7056C76.725 22.8161 76.4122 22.8621 76.1087 22.8621C75.8051 22.8621 75.4924 22.8253 75.3084 22.8253C74.8485 22.8253 74.3518 22.5583 73.8918 22.4846C73.3215 22.3741 72.4385 21.527 72.2821 21.2232C71.9785 20.6891 71.8589 20.1091 71.8589 19.575C71.8589 18.6543 72.1993 17.8164 72.7788 17.2364C73.2019 16.8128 73.8458 16.6195 74.4253 16.6195C74.7289 16.6195 74.9957 16.6563 75.2256 16.776C75.566 16.8865 75.7223 17.1627 75.7223 17.6967C75.7223 18.0374 75.382 18.1571 75.2256 18.1939C75.152 18.1939 75.1152 18.2308 75.0325 18.2308C74.7657 18.2308 74.4621 18.1203 74.1494 18.1203C73.9562 18.1203 73.5791 18.2768 73.3859 18.4241C73.0456 18.728 72.8156 19.1147 72.8156 19.575C72.8156 19.8421 72.8892 20.1091 73.0456 20.4221C73.2387 20.726 73.5791 21.2692 74.0758 21.4534C74.4161 21.6099 74.8761 21.6467 75.2992 21.6467C77.2125 21.6467 78.206 21.0759 79.0522 20.1183C80.0457 19.0042 80.3952 17.8993 80.5056 16.8588C80.5792 16.1315 80.9655 16.2051 80.9655 15.7447C80.9655 15.358 80.7724 15.0542 80.7724 14.9437C80.7724 13.2587 80.202 12.0341 79.1626 11.3068C78.5463 10.8832 77.8196 10.6899 77.0929 10.5794C76.8998 10.5425 76.6698 10.5425 76.4766 10.5425C75.6304 10.5425 74.7565 10.7727 74.1402 11.1134C73.6803 11.3436 73.2939 11.1502 72.88 11.3436C72.5396 11.5001 72.3097 11.9973 71.8498 11.9973C71.7762 11.9973 71.7394 11.9605 71.6566 11.9605C71.1231 11.9605 70.6631 12.4577 70.2768 12.7247C70.0468 12.8352 69.6237 12.7984 69.4765 12.9181C69.2834 13.0286 69.2466 13.535 69.0534 13.6823C68.897 13.7559 68.7498 13.7191 68.667 13.8756C68.5107 14.069 68.4371 14.3728 68.2439 14.5294C67.8576 14.7596 67.554 14.7964 67.3241 15.1463C67.1309 15.4133 67.0205 15.6803 66.8273 15.8737C66.717 16.0302 66.3306 16.1038 66.211 16.2143C66.0547 16.4077 66.0179 16.6379 65.9075 16.8312C65.5671 17.2548 65.0704 17.6323 64.6841 18.019C64.6473 18.0926 64.6473 18.2123 64.5737 18.3228C64.4633 18.5162 64.1873 18.553 64.077 18.7464C64.0034 18.9397 64.0034 19.1699 63.8838 19.4001C63.8102 19.5935 63.4607 19.8236 63.3871 20.017C63.3135 20.1735 63.3503 20.284 63.2767 20.4405C63.1663 20.7076 62.2832 20.9746 62.2832 21.1679C62.2832 21.4349 62.2832 21.6651 62.32 21.9321C62.32 22.1255 62.0165 22.4662 61.8969 22.6595C61.6302 23.0002 61.4002 23.5434 61.2438 24.3445C61.0874 25.0719 60.3607 25.7993 60.3607 26.5635C60.3975 26.7568 60.3975 26.9042 60.3975 27.1804C60.3975 27.8709 59.8272 28.6352 59.8272 29.3257C59.864 29.7493 59.9008 30.0531 59.9008 30.8173C59.9008 31.204 59.8272 31.2777 59.8272 31.8486C59.8272 33.2297 59.9836 33.5703 59.9836 33.8742C59.9836 34.2977 59.9468 34.7949 59.9468 35.2185C59.9836 35.7525 60.2136 35.909 60.3699 36.3326C60.4435 36.5628 60.4435 36.8298 60.5263 37.06C60.6367 37.4006 61.2162 37.5572 61.2162 37.9071C61.2162 38.1741 61.7865 38.9015 61.7865 39.058C61.8601 39.1316 62.0165 39.1685 62.0901 39.2882C62.2832 39.4815 62.2465 39.592 62.55 39.7117C62.6604 39.7485 62.7064 39.9419 62.7432 40.0156C63.0835 40.2457 63.2767 40.2826 63.5894 40.5128C63.9298 40.7798 64.3897 40.8995 64.7761 40.9731C65.1624 41.0468 65.5763 41.0836 65.9995 41.0836C67.0665 41.0836 68.0691 40.8534 68.3727 40.7798C68.759 40.6693 69.0258 40.5496 69.2925 40.5496C69.3661 40.5128 69.9824 40.2457 70.0928 40.126C70.1296 40.0892 70.1664 40.0892 70.2492 40.0892C70.3596 40.0892 70.4792 40.0892 70.516 40.0524C70.6263 40.0156 70.5895 39.7485 70.7459 39.7117C71.2794 39.5184 71.813 39.2882 72.3189 38.9475C72.7052 38.6805 73.8458 37.7966 74.1954 37.4559C74.3518 37.2625 75.1152 36.572 75.2624 36.4247C75.8787 35.8906 76.2191 35.3566 76.7158 34.7765C76.8262 34.62 76.9825 34.5832 77.1021 34.5832C77.2953 34.5832 77.4885 34.6937 77.4885 34.8502C77.4885 34.887 77.4885 34.9238 77.4517 34.9607C77.2217 35.4947 76.7986 35.9182 76.4214 36.3418C76.3478 36.4154 76.1179 36.4154 76.0351 36.4983C75.9615 36.572 75.9615 36.8022 75.8787 36.885C75.7683 36.9587 74.7657 38.0728 74.6185 38.1833C73.855 38.9107 73.2019 39.4447 72.8984 39.5644C72.8248 39.6012 72.5948 39.7209 72.512 39.7209C72.4017 39.7946 72.2453 40.0616 72.0889 40.1445C71.8222 40.301 71.4726 40.2181 71.2886 40.4483C71.1323 40.5588 71.1323 40.7522 70.9851 40.8718C70.7919 41.0652 70.7551 40.9455 70.4884 41.102C69.7617 41.5256 69.265 41.7926 68.8418 41.7926C68.5751 41.7926 68.4187 41.9031 68.1151 41.9031C68.0048 41.9031 67.462 42.0964 67.3517 42.1333C67.0481 42.2069 66.3214 42.2438 65.9351 42.2438C64.0954 42.2438 62.0349 41.857 60.7747 41.0928C60.5079 40.9363 60.2412 40.8626 59.9744 40.6693C59.5881 40.4023 59.3581 39.8682 59.0913 39.5184C58.7878 39.1777 58.5578 38.9015 58.3279 38.5608C58.0979 38.2938 58.1347 37.9899 57.9875 37.7229C57.8771 37.5664 57.5644 37.3362 57.5276 37.1889C56.9113 35.6973 56.6445 33.8926 56.6445 32.0235C56.6445 28.2669 57.2976 25.1271 58.1347 22.991C58.5946 21.8769 59.1649 20.8088 59.7444 19.8513C59.9008 19.5106 59.9744 19.0502 60.2044 18.7832C60.3148 18.7095 60.4343 18.6727 60.5079 18.553C60.5815 18.4425 60.5447 18.286 60.6183 18.1295C60.7747 17.7059 61.345 17.4757 61.6485 17.0982C62.642 15.6066 63.8654 14.6122 65.2452 13.3876C65.5119 13.1575 65.6683 12.8168 65.9719 12.5406C66.2386 12.3104 66.5882 12.3104 66.9285 12.117C67.6184 11.6566 68.2715 10.8556 69.1454 10.6254C69.4857 10.5518 69.7985 10.5518 70.102 10.4321C71.0219 10.1282 71.9417 9.7415 72.9352 9.47448C73.5055 9.31796 74.315 9.36399 74.8853 9.28113C75.1888 9.18905 75.4924 9.15222 75.7959 9.15222Z" fill="#626669"/>
<path d="M92.3176 32.3181C92.1244 32.7048 91.7841 33.0823 91.6277 33.4322C91.1678 34.3898 90.9746 35.5407 90.6711 36.5351C90.5975 36.8021 90.5607 37.106 90.5607 37.4559C90.5607 38.1464 90.7539 38.837 91.177 39.0672C91.2506 39.104 91.3334 39.1408 91.4437 39.1408C92.0141 39.1408 92.8603 38.57 93.1271 38.3766C94.1205 37.5295 95.0404 36.6548 95.9234 35.7341C96.2638 35.3934 96.8065 34.666 97.2204 34.666C97.2572 34.666 97.6804 34.7397 97.6804 34.8962C97.6804 34.933 97.524 35.2369 97.4136 35.3566C97.2204 35.6604 97.0733 35.7801 96.7973 35.9735C96.5673 36.084 96.0706 36.5904 95.8407 36.8113C95.6475 36.9679 95.7671 37.1981 95.5739 37.3454C95.1876 37.6124 94.6908 37.8057 94.4241 38.1925C94.3137 38.3858 94.1573 38.7265 93.9641 38.8462L93.5778 38.9567C93.3478 39.1132 93.1179 39.3802 92.8879 39.5275C92.658 39.6841 92.428 39.6841 92.198 39.7946C92.0417 39.8682 91.8945 40.0984 91.7013 40.1813C91.5449 40.3378 91.0114 40.5219 90.4043 40.5219C90.2111 40.5219 90.018 40.5219 89.788 40.4483C89.6316 40.4114 89.5948 40.2181 89.4845 40.1076C89.0981 39.8038 88.6014 39.8774 88.3714 39.4907C88.0311 38.9935 87.9115 38.4226 87.9115 37.8057C87.9115 37.152 88.0679 36.4615 88.2518 35.8538C88.4082 35.3566 88.3622 35.2 88.4082 34.7857C88.4082 34.6752 88.3714 34.6292 88.2978 34.6292C88.261 34.6292 88.2243 34.6292 88.1875 34.666C87.6539 35.2 87.0376 35.6236 86.4673 36.084C86.2374 36.2405 86.127 36.5075 85.9338 36.7009C85.6671 36.9679 85.4739 36.9679 85.2071 37.1981C84.8208 37.4651 84.4069 38.0451 84.0573 38.3122C83.5238 38.6989 82.9903 39.2697 82.4476 39.6104C81.6473 40.1076 81.4173 40.6048 80.6906 41.0283C80.6171 41.0652 80.5343 41.102 80.4975 41.102C80.4239 41.102 80.3411 41.0652 80.2307 41.0652C79.8904 41.1757 79.6604 41.2217 79.4304 41.2217C78.7037 41.2217 78.2438 40.7245 78.1702 40.0708V39.7301C78.1702 38.8094 78.5106 37.5848 78.9337 36.6272C79.3201 35.7801 79.4672 35.0159 79.8536 34.2148C80.1203 33.5979 80.6538 32.7601 80.6538 32.226V32.0695C80.6171 31.9959 80.617 31.959 80.5435 31.959C80.3871 31.959 80.1571 32.1524 80.0099 32.3457C79.2465 33.2665 78.3634 34.1412 77.5263 35.0619C77.37 35.2553 77.0296 35.4026 76.7629 35.4026C76.6065 35.4026 76.4961 35.3658 76.4961 35.2092C76.4961 35.1724 76.4961 35.1356 76.5329 35.0527C76.7996 34.4358 77.2964 34.3622 77.5631 33.865C77.7195 33.5611 77.7563 33.5979 78.0231 33.4046L78.5934 32.8706C79.0901 32.3734 78.7038 32.4838 79.2097 32.0235C79.55 31.7196 79.596 31.4526 80.0559 31.1027C80.3963 30.8357 80.6722 30.449 80.7826 30.1452C80.8562 29.915 81.0494 29.4178 81.2426 29.2981C81.7761 28.9574 82.0796 29.0311 82.5855 28.7272C83.0087 28.4602 83.3858 28.1932 83.8457 28.0735C84.2321 28.0735 84.4988 28.2668 84.6092 28.4602C84.6828 28.5707 84.6828 28.6536 84.6828 28.764C84.6828 29.0311 84.5264 29.2612 84.4528 29.4546C84.3425 29.7216 84.3425 30.1452 84.3425 30.3017C84.3425 30.7621 83.4594 31.7933 83.4594 32.1432C83.4594 32.18 83.303 32.4102 83.2662 32.5667C83.1558 32.8706 83.2294 33.1836 83.0363 33.4506C82.236 34.6752 81.1598 37.7781 81.1598 38.5423C81.1966 38.8094 81.4633 38.8462 81.6933 38.8462C81.8497 38.8462 81.9968 38.8094 82.1164 38.8094C82.5395 38.7357 83.533 37.8886 83.9561 37.4651C84.0665 37.3546 84.0665 37.1244 84.1861 37.0415C84.5724 36.7377 84.9864 36.5443 85.3359 36.2405C85.5659 36.0471 85.7222 35.7801 85.9522 35.5868C86.1454 35.4302 86.4489 35.3197 86.6421 35.1264C86.9457 34.7857 87.3688 34.4727 87.6355 34.0952C87.9023 33.7084 88.4818 33.2941 88.7486 32.8706C89.0889 32.4102 89.2821 31.913 89.6316 31.4526C89.8984 31.0291 90.4319 30.7252 90.7447 30.3017C91.085 29.8781 91.2046 29.1139 91.7381 29.0403C91.8485 29.0403 92.0785 28.8469 92.3084 28.8469C92.3452 28.8469 92.4188 28.8469 92.4648 28.8837C93.0351 29.1876 93.1915 29.9518 93.1915 30.4122C93.1915 30.5687 93.1915 30.6792 93.1547 30.716C92.8143 31.1304 92.5476 31.7473 92.3176 32.3181Z" fill="#626669"/>
<path d="M103.943 39.0212V39.4815C103.943 39.7854 103.98 40.1353 104.247 40.5496C104.44 40.9731 104.247 41.6176 104.707 41.8478C104.863 41.9215 105.36 42.5384 105.626 42.6949C105.783 42.7686 106.197 42.9251 106.776 42.9619C106.933 42.9619 107.31 42.7318 107.466 42.7318C107.889 42.6949 108.156 42.345 108.46 42.345C108.533 42.345 108.57 42.4187 108.57 42.5384C108.57 42.6121 108.266 42.8422 108.266 42.8791C107.733 43.3394 106.887 43.6065 106.05 43.6065C105.82 43.6065 105.553 43.5696 105.323 43.5328C104.099 43.3026 102.913 42.5752 102.343 41.5072C102.113 41.0836 101.809 40.8166 101.772 40.126C101.772 40.0524 101.809 39.9695 101.809 39.8959C101.809 39.7854 101.772 39.7025 101.616 39.6288C101.423 39.5552 101.542 39.1316 101.459 38.9015C101.423 38.7449 101.386 38.6344 101.386 38.4779C101.386 38.1741 101.459 37.8242 101.459 37.4835C101.459 37.2902 101.459 37.1428 101.386 36.9495C101.386 36.6088 101.496 35.9182 101.579 35.6881C101.772 34.9607 101.846 34.3898 102.076 33.6993C102.186 33.2757 102.609 32.7785 102.609 32.3181C102.609 32.2445 102.609 32.1248 102.572 32.0511C102.379 31.6276 102.113 31.2132 101.542 31.1304C101.505 31.0935 101.432 31.0567 101.386 31.0567C101.349 31.0567 101.312 31.0935 101.276 31.1304L101.165 31.2409C100.742 31.6276 100.328 31.9314 100.015 32.355C99.629 32.889 99.215 33.3862 98.7551 33.8466C98.4883 34.0399 97.9916 34.3438 97.8352 34.574C97.5685 34.9607 97.6053 35.0712 97.2649 35.1909C97.035 35.1909 96.8418 35.0804 96.8418 34.9238C96.8418 34.8502 96.8786 34.7673 96.9522 34.6937C97.1821 34.4635 97.2925 34.3069 97.5225 34.0031C97.5961 33.8926 97.7892 33.7729 97.9456 33.6164C98.286 33.2757 98.7091 32.8153 99.1322 32.3181C99.3622 32.088 99.5922 31.8946 99.7853 31.6644C99.8957 31.5079 100.089 31.0475 100.126 31.0107C100.236 30.8173 100.392 30.8173 100.586 30.67C100.622 30.6332 100.779 30.2096 100.779 29.9794C100.742 29.8229 100.742 29.6756 100.742 29.4822V28.9482C100.742 27.917 101.009 27.0331 101.579 26.5727C101.735 26.4162 101.919 26.3057 102.113 26.232C102.186 26.232 102.269 26.1952 102.306 26.1952C102.499 26.1952 102.646 26.3057 102.839 26.499C103.032 26.7292 103.143 26.9594 103.143 27.2264C103.143 27.3829 103.106 27.5303 103.069 27.6868C102.913 28.1472 102.379 28.451 102.223 28.9114C102.186 29.0219 102.149 29.1416 102.149 29.2521C102.149 29.5559 102.343 29.7861 102.646 29.9794C103.069 30.2465 104.486 30.67 104.826 30.937C105.056 31.1304 105.323 31.6276 105.323 32.088C105.323 32.1616 105.286 32.2445 105.286 32.3181C105.093 33.2757 104.596 34.1965 104.256 34.9238C103.952 35.5407 103.989 36.3786 103.833 36.9495C103.759 37.1797 103.722 37.4835 103.722 37.7966C103.722 37.9531 103.722 38.1004 103.759 38.2569C103.833 38.524 103.943 38.7541 103.943 39.0212Z" fill="#626669"/>
<path d="M115.921 35.3381L115.728 35.2645C115.424 35.6051 115.038 35.8814 114.661 36.1484C114.467 36.3049 114.467 36.4522 114.357 36.5351C114.164 36.7284 113.897 36.8021 113.667 36.9955C113.511 37.152 113.4 37.3822 113.207 37.5295C112.867 37.8333 112.554 38.1832 112.214 38.4502C111.331 39.0211 110.641 39.6748 109.767 40.172C109.5 40.3286 109.151 40.5587 108.81 40.7061C108.617 40.7797 108.387 40.8165 108.157 40.8165C108.047 40.8165 107.927 40.8165 107.854 40.7797C107.513 40.6232 106.971 40.3562 106.823 40.0155C106.63 39.6288 106.557 39.1316 106.557 38.5976C106.557 37.64 106.823 36.6087 107.053 36.0287V35.688C107.127 35.6143 107.247 35.5315 107.32 35.421C107.513 35.1171 107.55 34.7304 107.78 34.4634C107.854 34.4266 107.973 34.4266 108.01 34.3898V34.1227C108.047 33.9662 108.203 33.6992 108.314 33.5058C108.387 33.3493 108.93 32.7785 109.077 32.6588C109.187 32.5851 109.27 32.6588 109.344 32.5483C109.417 32.4378 109.454 32.2076 109.454 32.0511C109.491 31.6275 110.3 31.517 110.567 31.2132C110.641 31.1027 110.604 30.983 110.678 30.8725C110.908 30.6055 111.441 30.3753 111.708 30.1083C112.168 29.7216 112.701 29.5743 113.198 29.2244C113.538 28.9942 113.998 29.1139 114.421 28.9205C114.615 28.8101 114.762 28.8469 115.038 28.764C115.268 28.6904 115.534 28.497 115.921 28.4602C116.114 28.4602 116.307 28.4233 116.454 28.4233C117.025 28.4233 117.604 28.5338 118.174 28.6167C119.784 28.8469 121.008 30.1083 121.008 31.4526C121.008 31.6091 121.008 31.7196 120.971 31.8761C120.934 32.0695 120.778 32.3365 120.244 32.3365C119.941 32.3365 119.747 32.0695 119.747 31.913C119.747 31.2961 120.088 31.1119 120.088 30.8817C120.088 30.6147 119.784 30.1912 119.554 30.0346C119.094 29.7308 118.441 29.5743 117.76 29.5743C116.923 29.5743 116.04 29.8045 115.424 30.1083C115.231 30.182 115.12 30.1451 114.891 30.2188C114.661 30.2925 114.32 30.5595 114.127 30.7528L113.86 31.0567C113.667 31.25 113.4 31.1672 113.17 31.3605C112.977 31.517 113.06 31.8209 112.747 31.8209C112.444 31.8209 112.361 32.2444 112.177 32.5114C112.103 32.668 111.754 32.8982 111.643 32.8982C111.45 33.0547 111.413 33.3954 111.257 33.6255C111.147 33.8557 110.834 34.0491 110.687 34.2793C110.346 34.7765 110.034 35.3473 109.73 35.8077C109.307 36.4983 109.077 37.2256 108.884 38.0635C108.847 38.174 108.847 38.3305 108.847 38.4871C108.847 38.8277 108.921 39.1408 109.344 39.1776C109.611 39.1776 109.997 39.104 110.144 38.9843C110.484 38.7173 110.871 38.6436 111.211 38.3674C111.441 38.2108 111.551 37.9807 111.745 37.7965C112.085 37.4558 112.361 37.3361 112.701 37.0323C113.354 36.4983 113.888 35.8814 114.578 35.3842L115.498 34.2701L115.764 33.6532C115.994 33.1928 116.298 32.8889 116.684 32.6588C116.914 32.5483 117.531 32.1984 117.714 32.1247C117.788 32.0879 117.825 32.0879 117.908 32.0879C118.404 32.0879 118.828 32.7048 118.975 33.1191C119.011 33.2296 119.048 33.3861 119.048 33.5058C119.048 33.8097 118.938 34.1227 118.938 34.4266C118.938 34.8133 118.552 35.4578 118.404 35.7709C118.211 36.2312 118.174 36.885 117.908 37.419C117.871 37.5295 117.751 37.5755 117.641 37.8794C117.604 37.953 117.604 38.0359 117.604 38.1096V38.3398C117.531 38.6436 117.494 38.9566 117.494 39.1868C117.494 39.2973 117.494 39.3802 117.531 39.4538C117.567 39.684 117.797 39.7945 118.064 39.7945C118.174 39.7945 118.331 39.7945 118.45 39.7209C118.717 39.6104 119.14 39.1868 120.327 38.4226C120.75 38.1556 120.943 37.9254 121.284 37.5755C121.357 37.465 121.67 37.419 121.743 37.3085C122.01 37.0783 122.24 36.8481 122.433 36.5443C122.544 36.3878 122.93 36.2036 123.086 36.0471C123.546 35.7433 124.31 34.4726 124.696 34.4726C124.963 34.4726 125.156 34.5831 125.156 34.8593C125.156 34.8962 125.156 34.933 125.119 35.0159C125.009 35.2461 124.393 36.0103 124.163 36.13L123.896 36.2036L123.206 37.0047C122.479 37.8886 121.679 38.4226 121.182 38.8462C121.072 38.9198 120.842 38.9198 120.722 39.0395C120.612 39.1132 120.686 39.3065 120.529 39.3802L119.839 39.8774C119.536 40.1076 118.846 40.3378 118.542 40.4943C118.046 40.7245 117.512 40.9178 116.969 40.9178C116.896 40.9178 116.859 40.881 116.776 40.881C116.16 40.7705 115.553 40.4206 115.286 39.9971C115.176 39.8406 115.093 39.4631 115.093 39.0027C115.093 38.6988 115.13 38.349 115.203 37.9715C115.424 37.0231 115.617 36.2589 115.921 35.3381Z" fill="#626669"/>
<path d="M132.33 25.1915C131.871 25.2652 130.988 25.2283 130.721 25.5322C130.38 25.9557 130.224 26.4898 129.92 26.9133C129.691 27.2171 129.691 27.7604 129.497 28.1379L129.001 29.1323C128.927 29.4361 128.927 29.7031 128.771 30.0162C128.541 30.5134 128.2 31.1303 128.044 31.6643C127.74 32.5482 127.51 33.423 127.244 34.27C126.977 35.0711 126.94 35.7616 126.554 36.489C126.443 36.6824 126.167 37.2533 126.131 37.4834C126.057 38.5515 125.634 39.6288 125.634 40.6232C125.634 40.8534 125.671 41.0467 125.708 41.2769C125.781 41.6636 125.708 42.3081 125.818 43.3486C125.818 43.6156 126.158 44.2325 126.158 44.4995C126.158 44.8033 126.655 45.1901 127.152 45.6873C127.382 45.9174 127.648 45.9543 127.878 45.9543C128.072 45.9543 128.219 45.9174 128.375 45.9174C128.605 45.9174 128.798 45.9911 128.872 46.2213C128.909 46.295 128.909 46.3778 128.909 46.4515C128.909 46.7553 128.679 46.9855 128.338 46.9855C128.265 46.9855 128.228 46.9487 128.145 46.9487C127.805 46.875 127.152 46.6448 126.885 46.4515C124.705 44.877 124.052 43.0816 123.941 39.4814V39.3249C123.941 39.2144 123.941 39.1316 123.978 39.0579C123.978 39.0211 123.941 38.8646 123.941 38.6712C123.941 38.5147 123.978 38.3673 124.052 38.3305C124.052 38.0635 124.015 37.8333 124.015 37.5663C124.208 35.955 124.898 33.736 125.505 32.2444C125.579 31.9774 125.468 31.6275 125.662 31.3973C125.892 31.0935 126.278 30.5963 126.278 30.1727C126.278 29.8321 126.351 29.4085 126.471 29.1047C126.581 28.9481 126.811 28.718 126.894 28.5338C126.894 28.4233 126.821 28.3036 126.821 28.1931C126.821 28.1563 126.821 28.1195 126.857 28.0826C127.124 27.3184 127.584 26.8581 127.621 26.011C127.621 25.7439 127.051 25.744 126.857 25.744C126.701 25.744 126.591 25.7808 126.434 25.7808C126.094 25.7808 125.864 25.3941 125.744 25.1639C125.744 25.1271 126.131 24.9705 126.315 24.9705C126.581 24.9705 126.885 24.9337 127.198 24.86L128.541 24.5194C128.614 23.8656 129.074 23.3684 129.341 22.8712C129.534 22.6042 129.534 22.3004 129.681 21.9505C129.985 21.3796 130.601 21.0297 130.978 20.4589C131.365 19.842 131.861 19.1975 132.468 18.6634C133.002 18.2031 133.195 17.2823 133.959 17.2823C134.069 17.2823 134.299 17.2455 134.455 17.2455C134.529 17.2455 134.612 17.2455 134.649 17.2823C134.722 17.356 134.805 17.4757 134.805 17.5862C134.805 17.623 134.805 17.6598 134.768 17.6966C134.308 18.5437 133.811 19.4184 133.315 20.376C133.048 20.8364 132.551 21.2968 132.321 21.7203C132.248 21.7203 132.211 21.7571 132.128 21.794C132.018 21.9505 132.091 22.1346 131.972 22.328C131.972 22.4016 131.631 22.6687 131.585 22.7147C131.549 22.8252 131.549 22.9449 131.549 23.0185V23.2856C131.475 23.5526 131.245 23.8196 131.245 24.2063C131.355 24.3168 131.475 24.3628 131.585 24.3628C131.815 24.3628 132.045 24.2892 132.202 24.2523C132.735 24.2155 133.499 24.059 133.959 24.059H134.115C134.501 24.059 134.768 24.1695 134.768 24.2892C134.768 24.326 134.768 24.3628 134.695 24.3997C134.501 24.5102 134.235 25.0166 133.848 25.1271C133.627 25.1915 132.441 25.1915 132.33 25.1915Z" fill="#626669"/>
<path d="M142.54 36.2957C142.43 36.3694 142.2 36.4062 142.117 36.4891C141.961 36.6456 141.924 36.8758 141.777 36.9863C141.547 37.1428 141.317 37.1797 141.087 37.373C140.783 37.5664 140.057 38.5608 139.707 38.791C139.477 38.9475 139.21 38.9475 139.017 39.0948C138.75 39.2513 137.987 40.0156 137.72 40.0156C136.957 40.0524 136.23 40.7429 135.347 40.7429C135.273 40.7429 135.154 40.7061 135.08 40.7061C134.813 40.7061 134.51 40.9363 134.16 40.9363C134.087 40.9363 134.05 40.8995 133.967 40.8995C133.884 40.8995 132.937 40.789 132.854 40.789C131.861 40.522 131.438 40.1721 131.171 39.2974C131.097 39.104 130.941 38.8738 130.904 38.6436C130.748 38.1464 130.711 37.7966 130.711 37.4191C130.711 37.0323 130.748 36.6917 130.904 36.1945C131.014 35.6973 130.978 35.3106 131.171 34.8502C131.401 34.1596 131.741 33.4691 132.201 32.7785C132.238 32.7048 132.505 32.5483 132.541 32.4747C132.735 32.2076 132.735 32.0511 132.928 31.7473C133.084 31.4434 133.314 31.2869 133.498 31.0567C134.032 30.403 134.685 29.8321 135.255 29.3718C135.715 29.0679 136.902 28.4142 138.088 28.4142C138.658 28.4142 139.201 28.6444 139.542 29.0679C139.882 29.4546 140.038 29.915 140.038 30.3662C140.038 30.9831 139.808 31.5171 139.615 31.7841C139.505 31.8946 139.348 31.9775 139.275 32.088C139.045 32.355 139.082 32.7417 138.888 33.0087C138.732 33.2389 138.355 33.4322 138.235 33.6624C138.125 33.7361 137.969 33.9663 137.895 34.086C137.362 34.6568 136.902 34.8502 136.368 35.0804C136.331 35.1172 135.982 35.1172 135.835 35.1909C135.568 35.2645 135.338 35.5315 135.145 35.6512C134.722 35.9551 133.958 35.8078 133.535 36.1484C133.425 36.2589 133.268 37.0323 133.231 37.2165C133.195 37.327 133.195 37.5203 133.195 37.7137C133.195 37.9807 133.195 38.2109 133.231 38.4411C133.425 39.4723 134.114 39.8959 135.071 39.8959C135.301 39.8959 135.531 39.859 135.798 39.8222C137.251 39.5552 137.711 39.1316 139.394 37.9807C139.965 37.5572 140.774 36.8666 141.308 36.4062C141.611 36.1761 141.878 35.7157 142.264 35.5592C142.651 35.4026 143.101 34.0307 143.828 33.9847C143.902 33.9847 144.058 34.0583 144.058 34.1412C144.058 34.2517 144.058 34.5279 143.984 34.6384C143.911 34.8686 143.414 35.0988 143.221 35.2921C143 35.5315 142.66 36.1853 142.54 36.2957ZM138.337 29.6388C138.143 29.6388 137.84 29.7124 137.61 29.9058C137.343 30.136 137.15 30.4398 136.846 30.67C136.58 30.9002 136.276 31.0107 135.963 31.204C135.853 31.3145 135.853 31.4711 135.77 31.5907C135.614 31.7473 135.384 31.8578 135.237 32.0143C134.896 32.3181 134.896 32.7785 134.666 33.2021C134.4 33.7361 134.096 33.8558 134.096 34.6568C134.252 34.7305 134.436 34.7673 134.63 34.7673C135.163 34.7673 135.66 34.5003 136.046 34.3438C136.313 34.2333 136.736 34.0399 137.076 33.7729C137.187 33.6993 137.27 33.5059 137.38 33.3862C138.337 32.4655 138.907 31.4342 138.907 30.2465C138.907 30.1728 138.87 29.8229 138.567 29.6756C138.521 29.6388 138.447 29.6388 138.337 29.6388Z" fill="#626669"/>
<path d="M154.931 41.01C155.124 41.2402 155.124 41.3967 155.584 41.7374C155.695 41.811 156.118 41.9307 156.467 41.9307C156.89 41.9307 157.387 41.7374 157.534 41.7374C157.645 41.7374 157.691 41.811 157.691 41.8939C157.691 42.1609 157.194 42.3174 157.038 42.3911C156.614 42.5476 156.237 42.6213 155.851 42.6213C155.428 42.6213 155.051 42.5476 154.664 42.3911C153.634 42.0044 153.211 41.323 152.981 40.7061L152.641 40.1353C152.567 39.9051 152.53 39.5184 152.448 39.2882C152.411 39.1777 152.374 39.1317 152.374 39.058C152.374 38.9475 152.448 38.791 152.448 38.5608C152.374 38.1004 152.374 37.6401 152.374 37.1797C152.374 36.526 152.411 35.8814 152.411 35.3382C152.411 35.1817 152.448 34.6476 152.448 34.3438L152.291 34.3806C152.135 34.6108 151.675 35.0712 151.601 35.2277C151.371 35.6881 151.031 35.9919 150.718 36.4155C150.608 36.572 150.295 36.6457 150.221 36.8022C150.221 36.839 150.185 36.9587 150.185 37.0324C150.028 37.3362 149.614 37.6861 149.384 37.9531L148.924 38.4135C148.731 38.6068 148.584 38.837 148.391 38.9843C148.161 39.1777 147.738 39.2882 147.591 39.4816C147.324 39.8222 146.708 40.2089 146.367 40.4023C146.211 40.476 146.064 40.5128 145.871 40.5588C145.834 40.6325 145.834 40.7522 145.714 40.789C145.254 40.9824 144.914 41.056 144.647 41.056C144.344 41.056 144.15 40.9824 143.957 40.8995C143.617 40.743 143.194 40.6693 142.807 39.7486C142.577 39.2145 142.504 38.6345 142.504 38.1373C142.504 37.9071 142.504 37.7137 142.541 37.5204C142.541 37.4099 142.504 37.2165 142.504 37.0232C142.504 36.9127 142.504 36.8298 142.541 36.7561C142.577 36.6457 142.807 36.2958 142.807 36.1853C142.807 35.9551 142.771 35.8814 142.771 35.6513C142.771 35.2645 143.231 34.2701 143.424 33.8926C143.617 33.6256 144.187 32.8614 144.344 32.5483C144.96 31.2041 144.84 31.8578 145.76 30.937C145.917 30.7805 146.101 30.2097 146.22 30.09C146.68 29.6664 148.097 28.9759 148.63 28.7917C149.053 28.6352 149.743 28.5247 150.47 28.5247C150.93 28.5247 151.427 28.5615 151.85 28.6812C152.08 28.7549 152.733 29.4086 153.073 29.4086C153.147 29.4086 153.183 29.3718 153.229 29.335V29.1048C153.229 29.0311 153.229 28.9482 153.266 28.8378L153.533 27.7697V27.429C153.533 27.3185 153.533 27.1988 153.57 27.0883C153.8 26.0571 153.993 25.2929 154.37 24.142C154.563 23.5251 154.756 22.7977 154.986 22.19L155.603 20.4682C155.833 19.8513 156.063 19.437 156.293 18.8201L156.752 18.0927C156.826 17.9361 156.909 17.6323 156.982 17.4389C157.093 17.2456 157.369 17.2456 157.442 17.0522C157.939 15.9381 159.319 14.3729 160.469 14.069C160.662 13.9954 160.855 13.9954 161.039 13.9954C161.306 13.9954 161.573 14.0322 161.802 14.1519C162.226 14.3821 162.566 14.6491 162.722 15.0358C162.833 15.5698 162.916 15.9197 162.916 16.8773C162.916 17.6415 162.842 18.1755 162.612 18.8293C162.538 19.1331 162.115 19.4462 162.115 19.7132C162.115 19.9065 162.189 20.017 162.189 20.0539C162.189 20.2104 161.885 20.7076 161.729 21.0483C161.462 21.6652 161.619 21.8953 161.232 22.4294C161.122 22.5859 160.929 22.5859 160.809 22.6964C160.772 22.77 160.772 22.8529 160.772 22.9266C160.772 23.0371 160.772 23.1936 160.735 23.3133C160.699 23.5066 160.239 24.2709 160.165 24.4642C159.475 25.9927 158.482 27.604 157.562 28.6352L155.842 30.937C155.226 31.7749 154.775 32.1616 154.618 32.7785C154.508 33.0087 154.508 33.2389 154.508 33.5059C154.508 33.5796 154.398 34.1597 154.398 34.4267C154.398 35.0436 154.398 36.1485 154.324 36.7285C154.287 36.9219 154.168 36.9219 154.168 37.1152C154.168 37.1889 154.324 37.4559 154.324 37.5388C154.324 38.303 154.517 38.9567 154.591 39.4539C154.664 40.0892 154.701 40.8535 154.931 41.01ZM148.391 37.7137C148.547 37.6032 148.695 37.1797 148.851 37.06C149.918 36.4431 150.304 35.6052 151.068 34.6845C151.408 34.2241 151.905 33.6164 152.181 33.11C152.337 32.8062 152.714 31.9959 152.714 31.4619C152.714 31.3882 152.714 31.3053 152.678 31.158C152.678 30.9647 152.834 30.7713 152.834 30.5872C152.834 30.5503 152.834 30.4767 152.797 30.4306C152.724 30.3938 152.687 30.3938 152.604 30.3938C152.567 30.2833 152.337 29.9703 152.218 29.8966C151.951 29.7401 151.528 29.6664 151.068 29.6664C150.764 29.6664 150.451 29.7033 150.148 29.8229L149.458 30.2097C149.265 30.3662 149.118 30.3662 148.924 30.5503C147.894 31.4342 146.901 32.576 146.128 33.8834C146.018 34.1136 146.055 34.2241 145.788 34.5372C145.447 34.9239 145.401 35.4579 145.254 35.9183C145.098 36.4155 144.951 36.9495 144.914 37.4927C144.914 37.6032 144.721 37.7598 144.721 37.8795C144.721 37.9992 144.914 38.0728 144.914 38.1833C144.914 38.57 144.988 38.9475 145.144 39.2145C145.254 39.4079 145.484 39.6381 145.797 39.6381C146.22 39.6381 146.597 39.3711 146.79 39.1777C147.361 38.5976 147.857 38.1373 148.391 37.7137ZM161.931 18.3413C162.005 18.0743 162.124 17.4574 162.124 16.9233C162.124 16.5827 162.088 16.2328 161.931 15.9658C161.821 15.6987 161.508 15.5422 161.241 15.5422C161.205 15.5422 161.131 15.579 161.085 15.579C160.588 15.7356 160.092 16.6103 159.972 16.8773V17.1075C159.862 17.3008 159.586 17.531 159.402 17.6783L158.785 18.5991C158.482 19.0226 158.289 19.5198 157.985 19.9434C157.911 20.1367 157.682 20.3669 157.599 20.5142C157.442 20.7812 157.525 21.0483 157.406 21.3153C157.295 21.4718 157.065 21.702 157.019 21.8861C157.019 21.923 157.13 22.19 157.13 22.3465C157.13 22.8069 156.743 23.2304 156.596 23.6079C156.486 23.8749 156.486 24.1788 156.366 24.455C156.366 24.4918 156.21 24.5287 156.21 24.5655C156.017 24.8693 156.099 25.3297 155.98 25.7164L155.639 27.3277C155.529 27.6316 155.409 27.9815 155.409 28.359C155.409 28.8193 155.069 29.3534 155.069 29.8137C155.069 29.9242 155.143 30.2005 155.226 30.2005L155.419 30.0071C155.842 29.6204 156.532 28.893 156.716 28.4418C156.789 28.2853 157.249 27.9446 157.332 27.7881C157.829 27.0239 158.169 26.5635 158.629 25.7993C158.666 25.6888 159.015 25.0719 159.089 24.9983C159.512 24.6115 160.156 22.7424 160.772 21.5547C160.965 21.168 161.076 20.7536 161.232 20.3669C161.398 20.0999 161.747 18.5346 161.931 18.3413Z" fill="#626669"/>
<path d="M171.802 8.04733C171.802 6.93323 171.691 5.7915 171.305 4.90759C171.195 4.6774 170.689 3.98685 170.459 3.64617C170.229 3.37916 170.192 3.07531 169.925 2.84512C169.125 2.15457 168.352 1.77706 167.478 1.73102C166.982 1.69419 166.448 1.46401 165.639 1.46401C165.409 1.46401 164.415 1.69419 163.955 1.73102C162.502 1.84151 161.582 2.45841 160.589 3.11214C160.322 3.37916 159.899 3.41599 159.669 3.64617C159.282 3.91319 158.942 4.2999 158.556 4.53009L158.096 4.72344C157.903 4.7971 157.985 5.11015 157.866 5.25747C157.71 5.45083 157.332 5.56132 157.213 5.75468C156.872 6.21505 156.826 6.37157 156.642 6.71225C156.486 6.97926 156.486 7.36598 156.256 7.59616C156.146 7.75269 155.989 7.86318 155.916 8.0197C155.879 8.09336 155.842 8.21306 155.842 8.32355C155.842 8.48008 155.879 8.6274 155.879 8.74709C155.842 8.82075 155.539 9.05094 155.539 9.17064C155.502 9.47448 155.116 10.1282 155.116 10.4321V10.7727C155.116 11.3896 155.189 11.6935 155.189 12.5313C155.152 12.872 155.152 13.1851 155.152 13.5626C155.152 14.0966 155.575 14.6306 155.723 15.091C155.759 15.1647 155.759 15.2475 155.759 15.3212V15.5882C155.759 15.6619 155.759 15.7447 155.796 15.8184C156.063 16.2788 156.633 16.3893 157.056 16.776C157.25 16.9325 157.286 17.2732 157.516 17.3929C157.553 17.4297 157.59 17.4297 157.627 17.4297C157.7 17.4297 157.82 17.3929 157.893 17.3929C158.197 17.5494 158.583 17.8164 158.961 17.9269C159.347 18.0374 159.761 18.0834 160.221 18.0834C160.717 18.0834 161.251 18.0466 161.748 17.8901C163.201 17.4665 164.461 16.509 164.848 15.8184C164.958 15.5882 164.921 15.3949 165.041 15.1647C165.151 14.9345 165.537 14.5938 165.611 14.3176C165.804 13.8572 165.878 13.2864 165.878 12.6695C165.878 11.6751 165.611 10.6807 164.811 10.4136C164.774 10.3768 164.737 10.3768 164.654 10.3768C164.388 10.3768 163.965 10.5333 163.587 10.5333H163.394C163.091 10.4965 162.934 10.1927 162.934 9.87961C162.934 9.76912 162.971 9.68625 163.008 9.57576C163.238 9.07856 163.624 8.92203 164.231 8.92203C164.654 8.92203 165.078 9.15222 165.418 9.34558C166.034 9.64942 166.448 10.4597 166.641 11.141C166.641 11.1779 166.834 11.9421 166.834 12.3288C166.761 13.9769 166.448 15.312 165.611 16.3524C164.691 17.5034 163.275 18.3781 161.941 18.728C161.601 18.8384 160.754 18.995 159.761 18.995C159.264 18.995 158.767 18.9581 158.234 18.8384C156.321 18.4149 154.941 17.2271 153.984 15.8092C153.414 14.9253 152.871 13.3232 152.871 11.6751C152.871 11.1779 152.908 10.6807 153.027 10.2203C153.064 9.9901 153.101 9.79674 153.101 9.64942V9.15222C153.101 8.95886 153.101 8.72868 153.211 8.42483C153.368 8.08416 153.441 7.57775 153.782 6.97006C153.892 6.73987 154.168 6.58334 154.278 6.3992C154.508 6.09535 154.545 5.7823 154.775 5.44162C155.612 4.21703 157.572 2.5689 158.675 1.99804C159.402 1.65737 160.552 1.11413 161.315 1.11413C161.426 1.11413 161.582 0.9576 161.812 0.9576C162.732 0.616924 163.799 0.616925 164.378 0.570887C164.682 0.570887 164.995 0.534058 165.262 0.534058C166.789 0.534058 168.058 0.801073 169.318 1.15096C171.112 1.68499 172.262 2.49524 173.108 3.98685C173.724 5.01808 174.138 6.13218 174.221 7.31994C174.258 7.62379 174.258 7.8908 174.258 8.12099C174.258 8.58136 174.221 8.96807 174.101 9.57576C173.871 11.2239 173.991 12.9089 173.761 13.6731C173.605 13.9769 173.301 14.4741 173.145 14.824C173.108 14.9345 173.108 15.0542 173.108 15.1647C173.108 15.4685 173.218 15.6987 173.218 15.9657C173.218 16.0762 173.182 16.2327 173.108 16.3893C172.841 17.0798 172.455 17.6875 172.418 18.4609C172.418 18.8016 172.418 19.1883 172.151 19.4922L171.848 19.9894C171.655 20.2932 171.655 20.7168 171.581 21.0574C171.544 21.0943 171.471 21.1311 171.388 21.1311C171.314 21.5546 171.314 21.9321 171.231 22.3189C171.121 22.6595 170.891 23.0462 170.771 23.4698H171.001C171.388 23.0094 171.655 22.4754 171.885 22.0518C172.538 20.9377 173.034 20.4774 173.531 19.796C173.641 19.3725 174.644 18.0374 174.984 17.577C175.058 17.5034 175.867 16.4629 175.978 16.3893C176.245 16.1222 176.318 15.5422 176.548 15.2383C176.741 14.9713 177.082 14.6214 177.808 13.5534C178.149 12.9825 179.188 11.7579 179.648 11.2147C179.841 10.9845 179.915 10.7175 180.071 10.561C180.182 10.4505 180.458 10.4044 180.531 10.2571C181.221 8.876 182.638 7.65141 184.008 6.35316C184.238 6.12297 184.542 6.04931 184.891 5.81913C185.232 5.58894 185.232 5.32193 185.692 4.97204C186.492 4.43801 187.678 3.85794 188.791 3.85794C189.215 3.85794 189.592 3.9316 189.978 4.12496C191.045 4.74186 191.358 5.19302 191.588 6.23346C191.661 6.50048 191.698 7.11738 191.698 7.7619C191.698 8.48928 191.661 9.2535 191.468 9.71387C191.395 10.0177 191.045 10.3676 191.008 10.561C191.008 11.1318 190.456 13.5902 190.263 13.8112C190.19 13.9677 189.923 14.3084 189.923 14.4649C189.923 14.6951 189.886 14.8885 189.886 15.1186C189.886 15.3857 189.389 15.7724 189.316 15.846C189.353 16.0394 189.426 16.2696 189.426 16.4629C189.426 16.9233 188.929 17.3837 188.773 17.7612C188.58 18.1847 188.663 18.9121 188.47 19.3356C188.396 19.5658 188.046 19.7592 187.936 19.9894C187.936 20.0999 187.899 20.2564 187.899 20.4129C187.899 20.7536 187.191 22.4662 187.035 22.8437V23.2672C187.035 23.5711 186.538 23.8841 186.464 24.2248C186.464 24.2616 186.538 24.5286 186.538 24.7588C186.538 24.8325 186.538 24.9154 186.501 24.9522C186.391 25.4494 185.848 25.8729 185.738 26.3333C185.544 26.987 185.701 27.7144 185.471 28.3221C185.434 28.4326 185.048 28.626 185.048 28.7456C185.048 29.0127 185.011 29.2429 185.011 29.5099C185.011 29.8505 184.588 30.357 184.551 30.7713C184.441 31.425 184.137 34.2425 183.99 34.887C183.833 35.6881 183.144 37.1428 183.144 38.4503C183.144 39.2145 183.217 43.8643 183.447 44.3246C183.484 44.4351 184.063 45.6873 184.137 45.8807C184.174 45.9543 184.174 46.0372 184.174 46.1109V46.3042C184.174 46.4147 184.174 46.5344 184.247 46.6081C184.321 46.8383 184.781 46.7186 184.937 46.9119C185.13 47.1053 185.13 47.446 185.36 47.5657C185.397 47.6025 185.471 47.6025 185.517 47.6025C185.59 47.6025 185.673 47.5657 185.784 47.5657C186.17 47.5657 186.851 47.7222 187.393 47.7222C187.55 47.7222 187.66 47.7222 187.78 47.6853C188.58 47.4183 189.5 47.5288 189.996 47.0316C190.07 46.9211 190.65 46.8014 190.76 46.6909C191.1 46.3503 191.063 46.2674 191.257 45.8899C191.293 45.7794 191.413 45.5492 191.523 45.4664C191.597 45.4295 191.717 45.3927 191.827 45.3927C191.901 45.3927 191.937 45.3927 191.983 45.4295C192.177 45.54 192.324 45.8162 192.324 46.1201C192.324 46.2766 192.287 46.4608 192.167 46.6173C191.707 47.4183 190.604 47.9155 189.757 48.3022C189.141 48.5693 187.384 48.9191 186.197 48.9191C185.894 48.9191 185.627 48.8823 185.434 48.8455C184.937 48.689 184.404 48.3851 183.944 48.1918C183.64 48.0813 183.374 48.1549 183.098 47.9984C182.987 47.8879 182.987 47.5749 182.831 47.4644C182.371 47.1605 181.488 45.6781 181.221 44.9507C181.147 44.7574 181.184 44.5272 181.111 44.3338C181.037 44.1037 180.734 39.8406 180.734 39.5736C180.734 39.1501 180.77 38.7725 180.77 38.3858C180.77 37.9623 181 36.5443 181 35.6696C181 35.4395 181 35.2461 181.037 35.1356C181.147 34.6752 181.755 31.7841 181.791 31.2869C181.948 28.451 182.978 26.3517 183.705 24.4366C183.861 23.9762 183.778 23.5527 183.935 23.0555L185.388 18.8661C185.655 18.2492 185.618 17.798 185.848 17.1811C185.958 16.9141 186.308 16.5274 186.308 16.2235C186.308 16.067 186.345 15.9197 186.345 15.8C186.685 14.8056 187.301 13.7283 187.568 12.7339C187.724 12.3104 187.724 11.8868 187.872 11.4725C188.175 10.3584 188.755 9.17064 188.902 7.94605C188.939 7.55933 189.012 7.145 189.012 6.75829C189.012 6.5281 188.975 6.26108 188.856 6.06773C188.663 5.68102 188.47 5.34034 188.056 5.34034C187.945 5.34034 187.826 5.37717 187.715 5.414C187.329 5.52449 186.602 5.48766 186.262 5.75468C185.921 6.02169 185.802 6.37157 185.462 6.37157C184.845 6.37157 184.698 7.09896 184.165 7.40281C182.904 8.20385 182.058 9.39161 181.258 10.6991C181.147 10.8924 181.147 11.1226 181.028 11.3528C180.761 11.85 180.034 12.1538 179.731 12.6142C179.574 12.8076 179.62 13.1114 179.427 13.2679C179.317 13.3416 179.087 13.6915 178.931 13.8388C178.36 14.4097 178.507 14.7227 178.011 15.3672L177.477 15.7908C175.684 18.6267 173.31 21.4994 171.701 24.0222C171.59 24.2156 171.664 24.3629 171.59 24.5563C171.48 24.7864 171.02 24.9798 170.937 25.1732C170.827 25.4033 170.827 25.5967 170.67 25.8269C170.44 26.3241 169.944 26.895 169.677 27.4014V27.742C169.291 28.4326 168.84 29.1232 168.564 29.961C168.26 30.7621 167.994 32.9903 167.267 33.2205C167.11 33.377 167 33.4138 166.844 33.4138C166.614 33.4138 166.384 33.3033 166.117 33.2205C165.887 32.8798 165.501 32.6036 165.427 32.1892C165.39 32.0327 165.354 31.8486 165.354 31.6552C165.354 31.0843 165.583 30.4674 165.694 30.1636C166.191 28.672 166.651 27.2909 167.074 25.8361C167.23 25.4126 167.267 24.989 167.377 24.5747C167.488 24.1511 167.8 23.6171 167.948 23.1936C168.021 22.9265 167.948 22.6227 168.058 22.3465C168.168 22.0058 168.481 21.5823 168.628 21.2784L168.739 20.6615C168.932 20.238 169.309 19.7408 169.309 19.2804C169.346 19.1239 169.346 18.9766 169.346 18.8569C169.502 18.3228 169.879 17.6691 169.999 17.1719C170.155 16.6379 170.155 16.1038 170.302 15.5606C170.376 15.1002 170.873 14.4465 170.873 13.9953C170.909 13.7283 170.909 13.4981 170.909 13.2311C170.983 11.8132 171.71 10.5518 171.71 9.17064C171.765 8.81154 171.802 8.42483 171.802 8.04733Z" fill="#626669"/>
<path d="M200.105 27.9169H200.445C200.675 27.9169 200.905 27.9169 201.172 27.8064C201.438 27.7328 201.632 27.6499 201.861 27.5026C201.898 27.4658 202.285 27.3461 202.432 27.2356C202.735 27.0422 203.002 26.812 203.278 26.5818C203.434 26.4714 203.582 26.3148 203.775 26.3148C203.812 26.3148 204.042 26.6187 204.042 26.7752C204.042 26.9317 202.892 27.6591 202.699 27.7696C202.542 27.8801 202.432 27.9998 202.202 28.0366C202.128 28.0366 201.972 28.0366 201.898 28.0734C201.788 28.1103 201.742 28.23 201.632 28.2668C201.015 28.497 200.482 28.5706 199.985 28.5706C199.369 28.5706 198.918 28.4141 198.568 28.1471C198.265 28.718 198.108 28.6443 197.768 29.1047L197.695 29.2152C197.308 29.7124 197.005 30.2096 196.508 30.5963C196.315 30.7068 196.204 30.6699 196.048 30.8265C195.938 30.937 195.892 31.25 195.781 31.3237C195.744 31.3237 195.744 31.3605 195.625 31.4342C195.165 31.8209 194.825 32.0879 194.365 32.2812C193.794 32.5114 193.178 32.6219 192.608 32.6219C191.495 32.6219 190.464 32.1984 189.968 31.2408C189.627 30.6239 189.508 29.7492 189.508 28.8653C189.508 28.1379 189.581 27.4105 189.775 26.8765C189.968 26.4161 189.885 25.9557 190.161 25.5782C190.234 25.4677 190.354 25.3849 190.428 25.3112C190.658 24.9245 190.694 24.3905 190.924 24.013C191.348 23.3592 191.807 22.7884 192.341 22.1347C192.451 21.9781 192.608 21.9781 192.727 21.8676C192.838 21.7111 192.994 21.4441 193.114 21.3336C193.73 20.7167 194.493 20.2655 195.257 19.9157C195.294 19.8788 195.367 19.8788 195.45 19.8788H195.717C196.214 19.8788 196.784 19.5382 197.207 19.4553C197.4 19.4185 197.63 19.4185 197.823 19.4185C198.55 19.4185 199.12 19.6486 199.737 20.2195C200.077 20.5234 200.463 21.1771 200.463 22.2083V22.4753C200.463 22.6319 200.39 22.7055 200.353 22.862C200.353 22.9725 200.353 23.3592 200.316 23.4789C200.243 23.9025 200.123 24.28 199.93 24.7772C199.93 25.8084 199.433 26.8857 199.01 27.5762C199.221 27.8064 199.608 27.9169 200.105 27.9169ZM198.274 20.8364C198.2 20.8364 198.081 20.8732 198.007 20.8732C197.087 21.0298 196.627 21.3336 195.864 21.8676C195.441 22.1715 195.174 22.595 194.834 22.9817C194.53 23.3224 194.144 23.6355 193.877 24.0498C193.721 24.3168 193.84 24.547 193.38 24.8508C193.187 24.9613 192.884 25.0442 192.764 25.2376C192.764 25.4309 192.838 25.6611 192.838 25.7716C192.838 26.3056 192.267 27.1527 192.111 27.6499C192.001 27.9906 191.807 28.3036 191.725 28.6443V29.4085C191.725 30.1727 191.918 30.8633 192.451 31.1671C192.718 31.3237 192.985 31.3605 193.334 31.3605C193.905 31.3605 194.521 31.1671 195.018 30.7896C195.551 30.3661 195.901 30.0254 196.278 29.5651C196.811 28.9942 197.345 28.3405 197.842 27.4934C197.575 27.1895 197.225 26.4621 197.152 26.1491C197.115 25.9189 197.078 25.7624 197.078 25.5782V24.5838C197.078 24.1235 197.465 23.7367 197.878 23.4697C198.145 23.3132 198.449 23.2395 198.725 23.2395C198.918 23.2395 199.111 23.2764 199.221 23.3961C199.295 23.4697 199.378 23.5066 199.415 23.5894L199.488 23.0554C199.488 22.9817 199.599 22.8252 199.599 22.7515C199.599 22.6411 199.488 22.4845 199.488 22.4109C199.451 22.0242 199.415 21.6098 199.221 21.3428C199.001 20.9837 198.614 20.8364 198.274 20.8364Z" fill="#626669"/>
<path d="M210.896 20.2196C210.933 20.3761 210.933 20.5234 210.933 20.68C210.933 21.3705 210.703 22.0611 210.546 22.7885C210.509 23.0186 209.856 24.6668 209.82 25.2376C209.82 25.2745 209.893 25.2745 209.93 25.2745C210.316 25.2745 211.383 23.8934 211.613 23.6632C212.23 23.0923 212.533 22.5951 213.103 22.2452C213.177 22.2084 213.444 22.2084 213.527 22.1716C213.637 22.0979 213.72 21.8309 213.793 21.7112C214.18 21.214 214.86 20.9101 215.55 20.4866C215.891 20.2564 216.581 20.0631 217.234 20.0631C217.694 20.0631 218.117 20.1367 218.383 20.4037C218.77 20.7444 218.917 21.2048 218.917 21.702C218.917 22.1992 218.761 22.7332 218.613 23.1568C218.613 23.2304 218.54 23.3133 218.54 23.3869C218.466 23.6908 218.503 24.1512 218.347 24.5379C218.153 25.1087 217.887 25.7256 217.887 26.0663C218.043 25.8361 218.347 25.7625 218.54 25.5691C218.733 25.3758 218.843 25.0351 219.073 24.8786C219.267 24.7681 219.377 24.6484 219.46 24.4918C219.616 24.2617 220.03 23.5343 220.72 23.0002C220.793 22.9266 221.023 22.9266 221.106 22.8437C221.217 22.7332 221.336 22.457 221.447 22.3465C222.33 21.6191 223.286 21.0022 224.013 21.0022C224.087 21.0022 224.169 21.0391 224.243 21.0391C224.629 21.1127 224.933 21.2692 225.163 21.5731C225.356 21.8769 225.466 22.6043 225.549 23.4146C225.549 23.7184 225.439 23.8749 225.439 24.1051C225.439 24.2617 225.595 24.4918 225.595 24.6392C225.595 25.2929 225.558 25.8637 225.485 26.2136C225.448 26.407 225.448 26.6003 225.448 26.7845V27.6684C225.411 27.8249 225.411 28.0091 225.411 28.1656C225.411 28.7825 225.604 29.3534 225.945 29.5836C226.101 29.694 226.285 29.7401 226.515 29.7401C226.819 29.7401 227.205 29.6296 227.472 29.4362C228.198 28.9022 228.769 28.2116 229.385 27.6408C229.578 27.4843 229.808 27.4106 230.001 27.2541C230.231 27.0607 230.498 26.14 230.958 26.0295C231.068 25.9927 231.151 25.9558 231.225 25.9558C231.261 25.9558 231.298 25.9558 231.335 25.9927C231.445 26.0663 231.528 26.2228 231.528 26.3794C231.528 26.453 231.528 26.5359 231.455 26.5727C230.075 27.917 229.045 29.3257 227.702 30.2097C227.435 30.403 227.242 30.4767 226.975 30.6332C226.865 30.67 226.708 30.8634 226.589 30.9002C226.202 31.0936 225.788 31.2409 225.328 31.3606C224.868 31.3606 224.179 31.2501 223.949 31.0936C223.608 30.9002 223.378 30.4767 223.222 30.136C223.185 30.0255 223.148 29.9426 223.148 29.869C223.148 29.7585 223.185 29.602 223.185 29.4454C223.185 29.3718 223.185 29.2889 223.148 29.2153C223.112 29.1048 222.918 28.9114 222.918 28.7917V28.6352C222.918 28.3682 222.992 28.1012 222.992 27.8341C222.992 27.0331 222.836 26.2597 222.836 25.2653C222.836 24.9246 222.872 24.501 222.909 24.0775V23.8473C222.909 23.3133 222.679 23.0002 222.339 23.0002C222.182 23.0002 221.998 23.0739 221.805 23.2304C221.575 23.4238 221.382 23.7276 221.115 23.8841C221.042 23.921 221.005 23.9578 220.959 23.9578C220.729 24.0683 220.619 24.2985 220.426 24.455C220.159 24.6484 220.039 24.989 219.892 25.2561C219.699 25.5599 218.972 25.9466 218.779 26.2505C218.705 26.4438 218.669 26.6372 218.586 26.7845L218.429 26.8582C218.273 27.0515 218.199 27.3185 218.006 27.5487L217.813 27.6592C217.583 27.9999 217.583 28.3129 217.427 28.6904C217.316 28.9943 217.004 29.2613 216.93 29.5743C216.82 29.915 216.93 30.0347 216.774 30.4951C216.737 30.5687 216.314 30.6884 216.24 30.7253C216.24 30.7253 216.627 30.7621 216.627 30.9923C216.627 31.066 216.397 31.4527 216.24 31.6092C216.167 31.7197 215.937 31.8394 215.78 31.913C215.587 31.9867 215.394 32.0235 215.21 32.0235C215.026 32.0235 214.87 31.9867 214.713 31.867C214.327 31.5632 214.18 31.4435 214.18 31.1764C214.18 31.1028 214.18 31.0199 214.217 30.9094C214.29 30.6424 214.253 30.4122 214.29 30.1452L214.594 29.2245C214.75 28.7273 214.667 28.3037 214.86 27.8065L215.284 26.6924C215.32 26.4991 215.32 26.3886 215.32 26.232C215.32 26.0755 215.32 25.965 215.394 25.7717C215.697 24.7404 216.314 23.8197 216.314 22.9358C216.314 22.6319 216.24 22.3649 216.084 22.0887C216.01 21.9322 215.817 21.8585 215.624 21.8585C215.394 21.8585 215.164 21.9322 214.971 22.015C214.244 22.3189 213.398 23.166 212.561 23.8934C212.257 24.1604 212.101 24.6576 211.76 24.9246C210.804 25.652 209.654 26.8766 209.121 27.9907C208.927 28.3774 208.964 28.7549 208.78 29.1416C208.743 29.1784 208.624 29.1784 208.587 29.2153C208.394 29.4454 208.431 29.7861 208.32 30.0163C208.247 30.1268 208.09 30.1728 208.053 30.2465C207.943 30.403 207.86 30.7069 207.824 30.8173C207.713 31.158 207.824 31.3514 207.667 31.7381C207.511 32.0419 207.207 32.3918 206.94 32.4655C206.83 32.5023 206.747 32.5023 206.674 32.5023C206.481 32.5023 206.444 32.3918 206.214 32.2721C205.873 32.1616 205.45 31.8118 205.45 31.5079C205.45 31.2041 205.643 30.4398 205.873 29.9795C206.26 29.1784 206.177 28.405 206.637 27.5671C206.71 27.4106 207.097 27.2264 207.134 27.0699V26.5359C207.207 25.919 207.594 25.2745 207.824 24.6576C208.09 24.0407 208.164 23.3593 208.477 22.8161C208.55 22.7424 208.587 22.5859 208.587 22.4294C208.587 22.3557 208.587 22.2728 208.513 22.1992C208.247 22.7332 207.667 23.0002 207.364 23.4974C207.06 23.9946 206.067 24.9522 205.643 25.3389C205.027 25.873 205.184 26.453 204.383 26.6832C204.31 26.72 204.227 26.72 204.153 26.72C203.997 26.72 203.85 26.6832 203.73 26.5635C203.693 26.5267 203.693 26.4899 203.693 26.453C203.693 26.3794 203.73 26.2965 203.804 26.186C203.914 26.0295 204.07 26.0295 204.264 25.8453C204.42 25.7348 204.457 25.5415 204.604 25.385C204.797 25.1916 204.99 25.1179 205.174 24.8878C205.285 24.7773 205.367 24.5471 205.478 24.4274C205.634 24.2709 205.551 24.234 205.708 24.0867C205.818 23.9302 205.975 23.8565 206.131 23.7C206.701 23.0463 207.244 22.3189 207.704 21.8217C208.237 21.2048 208.504 20.2104 209.194 19.75C209.231 19.7132 209.921 19.2528 210.307 19.2528C210.418 19.2528 210.537 19.2896 210.611 19.3633C210.813 19.6487 210.813 19.9157 210.896 20.2196Z" fill="#626669"/>
<path d="M238.933 26.8489C238.629 27.1895 238.243 27.4658 237.866 27.7328C237.672 27.8893 237.672 28.0366 237.562 28.1195C237.369 28.3129 237.102 28.3865 236.872 28.5799C236.716 28.7364 236.605 28.9666 236.412 29.1139C236.072 29.4177 235.759 29.7676 235.419 30.0346C234.536 30.6055 233.846 31.2592 232.972 31.7564C232.705 31.913 232.356 32.1432 232.015 32.2905C231.822 32.3641 231.592 32.401 231.362 32.401C231.252 32.401 231.132 32.401 231.059 32.3641C230.718 32.2076 230.176 31.9406 230.028 31.5999C229.835 31.2132 229.762 30.716 229.762 30.182C229.762 29.2244 230.028 28.1932 230.258 27.6131V27.2724C230.332 27.1988 230.452 27.1159 230.525 27.0054C230.718 26.7016 230.755 26.3148 230.985 26.0478C231.059 26.011 231.178 26.011 231.215 25.9742V25.7071C231.252 25.5506 231.408 25.2836 231.519 25.0903C231.592 24.9337 232.135 24.3629 232.282 24.2432C232.393 24.1695 232.475 24.2432 232.549 24.1327C232.622 24.0222 232.659 23.792 232.659 23.6355C232.696 23.2119 233.506 23.1014 233.772 22.7884C233.846 22.6779 233.809 22.5582 233.883 22.4477C234.113 22.1807 234.646 21.9505 234.913 21.6835C235.373 21.2968 235.906 21.1495 236.403 20.7996C236.743 20.5694 237.203 20.6891 237.626 20.4957C237.82 20.3852 237.967 20.4221 238.243 20.3392C238.473 20.2656 238.74 20.0722 239.126 20.0354C239.319 20.0354 239.512 19.9985 239.659 19.9985C240.23 19.9985 240.809 20.109 241.379 20.1919C242.989 20.4221 244.213 21.6835 244.213 23.0278C244.213 23.1843 244.213 23.2948 244.176 23.4513C244.139 23.6447 243.983 23.9117 243.449 23.9117C243.146 23.9117 242.952 23.6447 242.952 23.4882C242.952 22.8713 243.293 22.6871 243.293 22.4569C243.293 22.1899 242.989 21.7664 242.759 21.6098C242.299 21.306 241.646 21.1495 240.966 21.1495C240.128 21.1495 239.245 21.3797 238.629 21.6835C238.436 21.7572 238.326 21.7203 238.096 21.794C237.866 21.8676 237.525 22.1347 237.332 22.328L237.065 22.6319C236.872 22.8252 236.605 22.7424 236.375 22.9357C236.182 23.0922 236.265 23.3961 235.952 23.3961C235.649 23.3961 235.566 23.8196 235.382 24.0866C235.308 24.2432 234.959 24.4734 234.849 24.4734C234.655 24.6299 234.619 24.9706 234.462 25.2007C234.352 25.4309 234.039 25.6243 233.892 25.8545C233.552 26.3517 233.239 26.9225 232.935 27.3829C232.512 28.0735 232.282 28.8008 232.089 29.6387C232.052 29.7492 232.052 29.9057 232.052 30.0623C232.052 30.4029 232.126 30.716 232.549 30.7528C232.816 30.7528 233.202 30.6792 233.349 30.5595C233.689 30.2925 234.076 30.2188 234.416 29.9426C234.646 29.786 234.757 29.5559 234.95 29.3717C235.29 29.031 235.566 28.9113 235.906 28.6075C236.559 28.0735 237.093 27.4566 237.783 26.9594L238.703 25.8453L238.969 25.2284C239.199 24.768 239.503 24.4641 239.889 24.234C240.119 24.1235 240.736 23.7736 240.92 23.6999C240.993 23.6631 241.03 23.6631 241.113 23.6631C241.609 23.6631 242.033 24.28 242.18 24.6943C242.217 24.8048 242.253 24.9613 242.253 25.081C242.253 25.3849 242.143 25.6979 242.143 26.0018C242.143 26.3885 241.803 26.6923 241.646 26.9962C241.49 27.3369 241.453 28.184 241.453 29.0679V29.8321C241.453 29.9426 241.343 30.0991 241.343 30.2188C241.343 30.3753 241.536 30.4121 241.536 30.716C241.499 30.9094 241.499 31.1395 241.499 31.2869C241.499 31.6736 241.573 31.9038 241.729 32.0142C241.922 32.2444 241.922 32.668 242.382 33.0086C242.493 33.0823 242.879 33.1191 242.998 33.202C243.109 33.2757 243.265 33.3125 243.385 33.3125C243.725 33.3125 244.075 33.0823 244.222 33.0823C244.332 33.0823 244.378 33.156 244.378 33.2388C244.378 33.2757 244.378 33.3125 244.341 33.3493C244.268 33.423 244.038 33.6163 243.725 33.736C243.302 33.8926 242.925 33.9662 242.538 33.9662C242.115 33.9662 241.738 33.8926 241.352 33.736C240.322 33.3493 239.935 32.8521 239.705 32.2444L239.365 31.7472C239.291 31.517 239.255 31.1303 239.172 30.9001C239.061 30.5134 239.015 29.9426 238.979 29.3717V29.1415C238.979 28.5246 239.089 27.6867 239.135 26.9225L238.933 26.8489Z" fill="#626669"/>
<path d="M256.943 32.5852C257.136 32.8154 257.136 32.9719 257.596 33.3126C257.706 33.3862 258.129 33.5059 258.479 33.5059C258.902 33.5059 259.399 33.3126 259.546 33.3126C259.656 33.3126 259.702 33.3862 259.702 33.4691C259.702 33.7361 259.206 33.8926 259.049 33.9663C258.626 34.1228 258.249 34.1965 257.863 34.1965C257.44 34.1965 257.062 34.1228 256.676 33.9663C255.646 33.5796 255.223 32.8982 254.993 32.2813L254.652 31.7105C254.579 31.4803 254.542 31.0936 254.459 30.8634C254.422 30.7529 254.386 30.7069 254.386 30.6332C254.386 30.5227 254.459 30.3662 254.459 30.136C254.386 29.6756 254.386 29.2153 254.386 28.7549C254.386 28.1012 254.422 27.4566 254.422 26.9134C254.422 26.7569 254.459 26.2228 254.459 25.919L254.303 25.9558C254.147 26.186 253.687 26.6464 253.613 26.8029C253.383 27.2633 253.043 27.5671 252.73 27.9907C252.62 28.1472 252.307 28.2209 252.233 28.3774C252.233 28.4142 252.196 28.5339 252.196 28.6076C252.04 28.9114 251.626 29.2613 251.396 29.5283L250.936 29.9887C250.743 30.182 250.596 30.4122 250.403 30.5595C250.173 30.7529 249.75 30.8634 249.602 31.0567C249.336 31.3974 248.719 31.7841 248.379 31.9775C248.223 32.0511 248.075 32.088 247.882 32.134C247.846 32.2077 247.845 32.3274 247.726 32.3642C247.266 32.5576 246.926 32.6312 246.659 32.6312C246.355 32.6312 246.162 32.5576 245.969 32.4747C245.629 32.3182 245.206 32.2445 244.819 31.3238C244.589 30.7897 244.516 30.2097 244.516 29.7125C244.516 29.4823 244.516 29.2889 244.552 29.0956C244.552 28.9851 244.516 28.7917 244.516 28.5984C244.516 28.4879 244.516 28.405 244.552 28.3313C244.589 28.2209 244.819 27.871 244.819 27.7605C244.819 27.5303 244.782 27.4566 244.782 27.2265C244.782 26.8397 245.242 25.8453 245.435 25.4678C245.629 25.2008 246.199 24.4366 246.355 24.1235C246.972 22.7793 246.852 23.433 247.772 22.5122C247.928 22.3557 248.112 21.7849 248.232 21.6652C248.692 21.2416 250.108 20.5511 250.642 20.3669C251.065 20.2104 251.755 20.0999 252.482 20.0999C252.942 20.0999 253.438 20.1367 253.861 20.2564C254.091 20.3301 254.744 20.9838 255.085 20.9838C255.158 20.9838 255.195 20.947 255.241 20.9101V20.68C255.241 20.6063 255.241 20.5234 255.278 20.4129L255.545 19.3449V19.0042C255.545 18.8937 255.545 18.774 255.581 18.6635C255.811 17.6323 256.005 16.8681 256.382 15.7172C256.575 15.1003 256.768 14.3729 256.998 13.7652L257.614 12.0434C257.844 11.4265 258.074 11.0122 258.304 10.3953L258.764 9.66787C258.838 9.51134 258.921 9.20749 258.994 9.01414C259.105 8.82078 259.38 8.82078 259.454 8.62743C259.951 7.51333 261.331 5.94806 262.48 5.64422C262.674 5.57056 262.867 5.57056 263.051 5.57056C263.317 5.57056 263.584 5.60739 263.814 5.72708C264.237 5.95727 264.578 6.22428 264.734 6.611C264.844 7.14503 264.927 7.49491 264.927 8.45248C264.927 9.2167 264.854 9.75073 264.624 10.4045C264.55 10.7083 264.127 11.0214 264.127 11.2884C264.127 11.4817 264.201 11.5922 264.201 11.6291C264.201 11.7856 263.897 12.2828 263.741 12.6235C263.474 13.2404 263.63 13.4705 263.244 14.0046C263.133 14.1611 262.94 14.1611 262.821 14.2716C262.784 14.3452 262.784 14.4281 262.784 14.5018C262.784 14.6123 262.784 14.7688 262.747 14.8885C262.71 15.0818 262.25 15.8461 262.177 16.0394C261.487 17.5678 260.494 19.1792 259.574 20.2104L257.854 22.5122C257.237 23.3501 256.786 23.7368 256.63 24.3537C256.52 24.5839 256.52 24.8141 256.52 25.0811C256.52 25.1548 256.409 25.7348 256.409 26.0019C256.409 26.6188 256.409 27.7237 256.336 28.3037C256.299 28.4971 256.179 28.4971 256.179 28.6904C256.179 28.7641 256.336 29.0311 256.336 29.114C256.336 29.8782 256.529 30.5319 256.603 31.0291C256.676 31.6736 256.713 32.4379 256.943 32.5852ZM250.403 29.2981C250.559 29.1876 250.706 28.7641 250.863 28.6444C251.93 28.0275 252.316 27.1896 253.079 26.2689C253.42 25.8085 253.926 25.2008 254.192 24.6944C254.349 24.3906 254.726 23.5803 254.726 23.0463C254.726 22.9726 254.726 22.8897 254.689 22.7424C254.689 22.5491 254.846 22.3557 254.846 22.1716C254.846 22.1347 254.846 22.0611 254.809 22.015C254.735 21.9782 254.698 21.9782 254.616 21.9782C254.579 21.8677 254.349 21.5547 254.229 21.481C253.963 21.3245 253.539 21.2508 253.079 21.2508C252.776 21.2508 252.463 21.2877 252.16 21.4074L251.47 21.7941C251.277 21.9506 251.129 21.9506 250.936 22.1347C249.906 23.0187 248.913 24.1604 248.14 25.4678C248.029 25.698 248.066 25.8085 247.799 26.1216C247.459 26.5083 247.413 27.0423 247.266 27.5027C247.11 27.9999 246.962 28.5339 246.926 29.0771C246.926 29.1876 246.732 29.3442 246.732 29.4639C246.732 29.5836 246.926 29.6572 246.926 29.7677C246.926 30.1544 246.999 30.5319 247.156 30.7989C247.266 30.9923 247.496 31.2225 247.809 31.2225C248.232 31.2225 248.609 30.9555 248.802 30.7621C249.372 30.1728 249.869 29.7217 250.403 29.2981ZM263.943 9.91647C264.017 9.64945 264.136 9.03255 264.136 8.49852C264.136 8.15785 264.099 7.80796 263.943 7.54095C263.833 7.27393 263.52 7.11741 263.253 7.11741C263.216 7.11741 263.143 7.15424 263.097 7.15424C262.6 7.31076 262.103 8.18547 261.984 8.45248V8.68267C261.873 8.87603 261.597 9.10621 261.413 9.25353L260.797 10.1743C260.494 10.5978 260.3 11.095 259.997 11.5186C259.923 11.7119 259.693 11.9421 259.61 12.0894C259.454 12.3564 259.537 12.6235 259.417 12.8905C259.307 13.047 259.077 13.2772 259.031 13.4613C259.031 13.4982 259.141 13.7652 259.141 13.9217C259.141 14.3821 258.755 14.8056 258.608 15.1831C258.497 15.4501 258.497 15.754 258.378 16.0302C258.378 16.067 258.221 16.1039 258.221 16.1407C258.028 16.4445 258.111 16.9049 257.992 17.2916L257.651 18.9029C257.541 19.2068 257.421 19.5567 257.421 19.9342C257.421 20.3945 257.081 20.9286 257.081 21.3889C257.081 21.4994 257.154 21.7756 257.237 21.7756L257.43 21.5823C257.854 21.1956 258.543 20.4682 258.727 20.017C258.801 19.8605 259.261 19.5198 259.344 19.3633C259.84 18.5991 260.181 18.1387 260.641 17.3745C260.677 17.264 261.027 16.6471 261.101 16.5734C261.524 16.1867 262.168 14.3176 262.784 13.1299C262.977 12.7432 263.088 12.3288 263.244 11.9421C263.409 11.6843 263.75 10.1098 263.943 9.91647Z" fill="#626669"/>
<path d="M51.0152 38.7818C50.9232 38.4595 50.4448 38.1464 49.9665 38.1464C49.6814 38.1464 49.3962 38.2293 49.1111 38.5424C48.2556 39.3434 48.5407 39.7393 47.023 39.9787C45.68 40.126 42.6721 40.2734 41.3751 40.2918C40.6944 40.2089 38.7351 40.0708 37.0242 40.0708C35.7915 40.0708 34.8349 40.1537 34.4578 40.3102C34.0806 40.5496 33.3171 40.5496 32.4617 40.5496C31.321 40.5496 30.1804 40.4667 29.9873 40.4667C29.7021 40.4667 25.4248 40.1445 23.999 40.0708C23.907 40.0708 23.7138 39.9879 23.5207 39.9879C21.9017 39.7485 20.5771 39.5091 20.292 39.0304C19.7217 38.4779 19.7217 37.6769 19.2433 37.0416C19.0502 36.8022 18.765 36.6456 18.4799 36.6456C18.1027 36.6456 17.7164 36.885 17.4312 37.2809C17.2381 37.6032 17.0541 37.8426 17.0541 38.1556C17.0541 38.6344 17.3392 39.0304 17.7164 39.3526C17.9095 39.5091 17.9095 39.592 17.9095 39.6749C17.9095 40.1537 16.4838 40.1537 16.2906 40.1537C15.9135 40.1537 14.3865 39.9971 13.2459 39.9971C12.8687 39.9971 12.4824 40.08 12.1972 40.08C11.2498 40.1629 9.43767 40.1629 7.44159 41.3506C5.4455 42.3819 5.06836 43.1829 5.06836 43.6617C5.16034 44.5364 5.06836 45.0152 6.30097 45.3375C6.67811 45.4203 6.96326 45.494 7.24842 45.494C7.91071 45.494 8.29705 45.1717 8.38904 44.6193V43.984C8.38904 43.2658 8.38904 42.5476 8.58221 42.4739C8.86736 42.3174 11.3418 42.078 12.5744 41.6729C13.9082 41.3506 15.1408 41.277 16.0882 41.1112C16.2814 41.1112 16.4654 41.0284 16.6585 41.0284C17.3208 41.0284 17.9923 41.1849 19.133 41.2678C20.8439 41.3506 23.6035 41.3506 25.1212 41.3506C26.547 41.3506 27.7796 41.3506 29.0214 41.4335C30.3552 41.59 31.4958 41.6729 31.4958 41.9952C31.4958 42.078 29.8769 43.3486 29.6929 44.2234C29.4997 44.785 29.2146 45.1809 29.2146 45.6597C29.2146 45.8991 29.3066 46.1385 29.4077 46.295C29.7849 46.7738 30.7415 47.492 31.4958 47.492C31.689 47.492 31.873 47.4091 32.0661 47.3355C32.7284 46.7738 33.1148 46.1385 33.1148 45.5861C33.1148 45.4295 33.0228 45.3467 33.0228 45.1901C33.0228 45.1073 32.9308 45.0336 32.9308 44.8679C32.9308 44.2326 33.5931 43.275 34.6417 42.8791C35.8743 42.4003 36.6378 42.0044 38.4407 41.9215H42.4329C43.7851 42.0596 45.0821 42.0872 46.3975 42.253C47.4461 42.3911 48.6327 42.5476 49.5802 43.3394C49.7734 43.496 49.9573 43.5788 50.1505 43.5788C50.8128 43.5788 51.3831 42.787 51.3831 41.5072C51.2083 40.2181 51.2083 39.3434 51.0152 38.7818Z" fill="#626669"/>
<path d="M163.992 41.3322C164.084 40.0616 164.084 39.1777 164.259 38.6252C164.434 38.303 164.783 37.9899 165.225 37.9899C165.492 37.9899 165.841 38.0728 166.099 38.3858C166.89 39.1869 166.623 39.5828 167.938 39.8222C169.254 39.9787 172.326 40.1445 173.375 40.1445C174.515 40.1445 177.045 40.3839 178.452 40.3839C179.326 40.301 180.292 39.9879 181.175 39.9879C181.617 39.9879 182.141 40.0708 182.49 40.3839C182.932 40.7798 183.456 40.8626 183.898 40.8626C184.165 40.8626 184.422 40.7798 184.597 40.7798H185.213C185.738 40.6233 188.286 40.8626 189.601 40.4575H190.392C191.533 40.4575 192.039 40.6509 192.894 40.6877C193.418 40.6877 195.056 40.522 195.497 40.522C196.114 40.522 194.375 40.6969 194.807 40.614C195.598 40.4575 198.229 40.3747 199.37 39.8959C199.637 39.7393 199.719 39.7393 199.719 39.7393C199.811 39.7393 199.894 39.6565 199.986 39.6565C200.86 39.3342 201.568 39.0212 201.568 38.6252C201.568 38.2293 200.694 37.5111 200.694 36.397C200.786 35.6789 201.311 35.2001 201.835 35.2001C202.102 35.2001 202.534 35.5223 202.626 35.596C203.242 35.9919 203.767 36.2313 203.767 37.0324V37.3546C203.767 38.0728 203.5 38.3858 203.242 39.104C203.068 39.3434 202.893 39.5828 202.893 39.7393C202.893 39.8959 203.068 40.0616 203.509 40.0616C204.208 39.9051 206.582 39.8222 207.805 39.8222C208.854 39.8222 210.003 39.5828 210.785 39.3434C211.227 39.2606 213.158 39.104 214.823 39.104C215.964 39.104 216.93 39.1869 217.279 39.3434C217.546 39.5828 218.678 39.4263 219.459 39.4263C220.508 39.4263 223.268 39.3526 223.442 39.3526C223.617 39.3526 225.521 39.1869 226.929 39.104C228.244 38.8646 233.129 38.6252 233.478 38.0728C234.002 37.5203 234.002 36.7193 234.444 36.084C234.536 35.8446 234.793 35.6881 235.06 35.6881C235.41 35.6881 235.759 35.9275 236.026 36.3234C236.293 36.6456 236.376 36.9587 236.376 37.281C236.376 37.6769 236.201 38.1557 235.759 38.3951C235.585 38.5516 235.585 38.6344 235.585 38.7173C235.585 39.1961 239.595 39.1685 239.77 39.1685C241.003 39.1685 243.771 39.1132 245.436 39.1132C246.402 39.1961 251.802 39.3526 253.384 40.3839C255.49 41.5808 255.573 42.3727 255.573 42.8515C255.481 43.5696 255.573 44.0484 254.34 44.3615C253.991 44.4443 253.724 44.518 253.467 44.518C252.85 44.518 252.593 44.1957 252.501 43.6433V42.7686C252.501 42.1333 252.501 41.5716 252.234 41.498C252.059 41.3414 241.72 41.102 240.487 40.6969C239.347 40.3747 239.016 40.6417 238.142 40.4851C237.967 40.4851 236.928 40.3654 236.753 40.3654C236.136 40.3654 235.493 40.2273 234.444 40.301C232.862 40.3839 228.465 40.5036 227.057 40.5036C225.65 40.5036 224.28 40.4575 222.964 40.5404C221.824 40.6969 219.993 40.6969 219.993 41.102C220.26 41.5808 221.575 42.6121 221.658 43.2566C221.75 43.6525 222.099 44.2142 222.099 44.7666C222.099 44.9231 222.007 45.1625 221.925 45.3283C221.483 45.807 220.609 46.5252 219.91 46.5252C219.735 46.5252 219.561 46.4424 219.469 46.3687C218.852 45.807 218.42 45.0981 218.42 44.5364C218.42 44.4535 218.512 44.297 218.512 44.2142C218.512 44.1313 218.604 44.0576 218.604 43.8919C218.604 43.2566 217.73 41.8202 216.847 41.8202C215.881 41.3414 215.09 41.0192 213.6 40.9455H208.688C207.547 40.9455 206.14 41.1849 205.174 41.4243C204.3 41.5808 204.034 41.9031 203.242 41.9031C203.068 41.9031 202.718 41.9031 202.451 41.8202H201.927C200.52 41.8202 198.413 42.2161 197.098 42.2161C196.132 42.2161 195.571 42.6949 194.081 42.6305C193.115 42.3082 191.827 42.3819 190.953 42.3819H190.134C188.295 42.3819 186.805 42.299 185.48 42.299C181.617 42.299 179.952 42.4555 178.544 42.4555H177.845C176.006 42.3727 173.825 42.0596 172.86 42.0596H172.335C171.103 42.2161 169.879 42.0596 168.913 42.3819C167.948 42.5384 166.457 42.3819 165.666 43.1737C165.492 43.3302 165.317 43.4131 165.142 43.4131C164.526 43.4131 164.001 42.6213 164.001 41.6637V41.3322H163.992Z" fill="#626669"/>
</svg>
