<?xml version="1.0" encoding="UTF-8"?>
<svg width="178px" height="56px" viewBox="0 0 178 56" version="1.1" xmlns="http://www.w3.org/2000/svg" xmlns:xlink="http://www.w3.org/1999/xlink">
    <!-- Generator: Sketch 48.2 (47327) - http://www.bohemiancoding.com/sketch -->
    <title>borsheims_logo_big</title>
    <desc>Created with Sketch.</desc>
    <defs></defs>
    <g id="main4@2x-copy-10@2x" stroke="none" stroke-width="1" fill="none" fill-rule="evenodd" transform="translate(-249.000000, -52.000000)">
        <g id="borsheims_logo_big" transform="translate(249.000000, 52.000000)" fill="#545554">
            <path d="M61.6896886,44.8505277 C61.1736866,47.2826059 57.2612861,48.4772117 55.695822,48.8203257 C58.134548,49.4003909 62.0521678,52.2078697 62.4236461,55.5986971 C61.4116198,55.6187622 60.6339272,55.6072704 59.6793145,55.6612638 C59.3179151,52.790671 56.7521234,50.0563388 52.8733792,49.2944104 C51.4913145,48.9992704 48.8209545,48.9047818 46.4653792,49.0673094 C46.217547,49.0735114 46.1370961,49.206671 46.1370961,49.2393225 L46.1455551,55.6056287 C45.1434277,55.6196743 44.3884125,55.6081824 43.4336198,55.6621759 L43.3774661,41.1767818 C44.3056218,41.2023192 45.1380283,41.174228 46.093361,41.1205993 L46.1370961,47.5906971 C46.1370961,47.69157 46.1705723,47.737355 46.2386047,47.7674528 C46.3183357,47.802658 46.4443215,47.8150619 46.6311405,47.8258241 C50.0836926,48.0691596 53.1816845,47.9898111 55.4042548,47.4394788 C57.6234055,46.8898762 58.9410374,45.6536808 58.9410374,44.4950098 C58.9410374,43.1437134 58.5835976,42.5216938 57.2870233,41.8487818 C54.5471911,40.6408599 48.8133953,41.3754267 46.8204793,43.4554528 C46.778544,43.4992313 46.7288696,43.4806254 46.72491,43.4197003 C46.6772154,42.6997264 46.6307806,42.2150619 46.6516582,41.5023844 C50.8261092,40.5305016 58.3825602,39.4157915 60.9191951,42.1524951 C61.5059292,42.8378111 61.934821,43.7874397 61.6896886,44.8505277 Z M173.174742,43.0370033 C173.174742,43.0869837 173.136946,43.1101498 173.093751,43.0869837 C171.027583,42.0120391 168.405278,41.233329 165.102649,41.233329 C161.242083,41.233329 157.836866,42.5931987 157.836866,44.221759 C157.836866,45.08 158.945541,45.8114658 159.856239,46.0425798 C162.253569,46.6881303 164.74089,46.7154919 167.192214,46.9579153 C169.584146,47.1948664 171.833893,47.6375765 173.628291,49.1158306 C174.504793,49.9184365 175.019535,51.1590098 174.337412,52.6250423 C172.514216,56.2874788 165.208837,56.0184235 160.435774,55.5574723 C158.274216,55.2796612 156.81998,54.9540586 155.21726,54.3739935 L155.180544,52.7598436 C155.180544,52.7087687 155.21762,52.6859674 155.262075,52.7100456 C156.634601,53.4509967 158.105035,53.9850945 158.990536,54.1813681 C163.117472,55.1107492 170.642427,55.5332117 172.030071,52.588013 C172.458423,51.5291205 171.396542,50.5988274 170.574034,50.2341889 C168.821031,49.4821107 167.3182,49.2956873 165.687583,49.1676352 C164.053367,49.0392182 162.294965,48.9689902 160.038018,48.4463844 C156.711992,47.6819023 155.594317,46.1775635 155.594317,44.515987 C155.594317,42.2236352 158.169828,41.1196873 160.864125,40.7521303 C165.072053,40.1873876 169.474358,40.3282085 173.135147,41.4877915 L173.174742,43.0370033 Z M82.2225015,43.0370033 C82.2225015,43.0869837 82.1857856,43.1101498 82.1413306,43.0869837 C80.0760627,42.0120391 77.4535774,41.233329 74.1504085,41.233329 C70.2903822,41.233329 66.8855248,42.5931987 66.8855248,44.221759 C66.8855248,45.08 67.9925804,45.8114658 68.9047179,46.0425798 C71.3006087,46.6881303 73.7893691,46.7154919 76.2406936,46.9579153 C78.6322649,47.1948664 80.8812922,47.6375765 82.6762305,49.1158306 C83.553272,49.9184365 84.0667543,51.1590098 83.3860708,52.6250423 C81.5632356,56.2874788 74.2562366,56.0184235 69.4842528,55.5574723 C67.3217958,55.2796612 65.8675592,54.9540586 64.2653792,54.3739935 L64.2283033,52.7598436 C64.2283033,52.7087687 64.2657391,52.6859674 64.3103741,52.7100456 C65.6830799,53.4509967 67.1535147,53.9850945 68.0384752,54.1813681 C72.1657715,55.1107492 79.6894661,55.5332117 81.0772902,52.588013 C81.506362,51.5291205 80.4448413,50.5988274 79.6226936,50.2341889 C77.8687907,49.4821107 76.3666795,49.2956873 74.7360627,49.1676352 C73.1011264,49.0392182 71.3430839,48.9689902 69.0852376,48.4463844 C65.7604712,47.6819023 64.6422568,46.1775635 64.6422568,44.515987 C64.6422568,42.2236352 67.2186673,41.1196873 69.9120647,40.7521303 C74.1203519,40.1873876 78.5221173,40.3282085 82.1834459,41.4877915 L82.2225015,43.0370033 Z M123.489885,54.6456026 L123.545678,55.6047166 L110.232034,55.6612638 L107.573013,55.6612638 L107.517219,54.7021498 L107.51308,42.0797134 L107.51308,41.1767818 L123.486285,41.1202345 L123.541899,42.0797134 L110.287648,42.1357134 L110.287648,48.0018502 L123.486285,48.0018502 L123.541899,48.9611466 L110.287648,49.017329 L110.287648,54.6456026 L123.489885,54.6456026 Z M30.9504024,54.8424235 C35.403822,54.8424235 38.9945986,51.8266319 38.9945986,48.1282606 C38.9945986,44.4295244 35.403822,41.4139153 30.9504024,41.4139153 C26.4969828,41.4139153 22.9062063,44.4295244 22.9062063,48.1282606 C22.9062063,51.8266319 26.4969828,54.8424235 30.9504024,54.8424235 Z M30.9504024,40.4270749 C36.8954944,40.4270749 41.7504489,43.8580326 41.7504489,48.1282606 C41.7504489,52.3981238 36.8954944,55.8292638 30.9504024,55.8292638 C25.0053104,55.8292638 20.1503559,52.3981238 20.1503559,48.1282606 C20.1503559,43.8580326 25.0053104,40.4270749 30.9504024,40.4270749 Z M129.245098,41.1205993 L129.303951,55.6047166 C128.414311,55.5965081 127.543749,55.6072704 126.588237,55.6612638 L126.529383,41.1767818 C127.578305,41.1614593 128.288686,41.174228 129.245098,41.1205993 Z M13.6214095,48.8190489 C10.1933347,48.3205212 6.7008271,48.6180326 3.26465319,48.8418502 C3.09601213,48.8418502 2.95220829,48.9120782 2.95220829,49.0545407 L3.02546006,53.2479739 C3.02546006,54.1366775 6.13281092,54.9073616 9.03624469,54.9073616 C11.2543155,54.9073616 13.919636,55.0153485 15.6846977,53.3785798 C16.304908,52.7322997 16.5196239,51.7494723 16.2563134,50.8604039 C15.9463883,49.7363909 14.8310536,48.972456 13.6214095,48.8190489 Z M18.4896825,44.8508925 C18.15582,46.3583322 16.6189727,47.2610814 15.3312174,47.7448339 C16.0669747,47.929798 16.7508979,48.1722215 17.4103438,48.5144235 C18.5010212,49.0868274 19.2738544,50.2084691 19.224,51.4601694 C19.1242912,53.5624495 16.7607968,54.8265537 15.2237695,55.2150879 C10.7356138,56.324873 4.87133266,55.8385668 0.224974722,54.7588795 L0.17764004,41.1767818 C1.27065723,41.174228 1.96483923,41.174228 2.8933549,41.1205993 L2.95220829,47.3646906 C2.95220829,47.5036873 3.01286148,47.5481954 3.43347422,47.5998176 C6.86784833,47.8887557 10.2734257,47.8030228 13.2150152,46.9661238 C14.1813266,46.6503713 15.6227846,45.7512704 15.7413913,44.4895375 C15.8605379,43.2921954 15.0995834,42.258658 14.0877371,41.849329 C12.5026552,41.0104235 8.52834176,41.1421238 6.14037007,41.9739153 C5.24065116,42.3153876 4.36828918,42.777798 3.61759353,43.4578241 C3.57637816,43.4955831 3.53192315,43.4786189 3.5252639,43.4229837 C3.50060667,43.217772 3.31666734,41.4841433 3.49646714,41.4482085 C7.06276643,40.7377199 10.7887078,40.0166515 14.854091,40.7129121 C16.0793933,40.9708404 16.9020809,41.3321954 17.7182892,42.1510358 C18.3622568,42.8721042 18.7394944,43.798202 18.4896825,44.8508925 Z M133.098285,43.1672443 L133.098285,55.6047166 C132.710789,55.619127 132.534049,55.6187622 132.16221,55.660899 L132.096158,41.1767818 C133.176036,41.1917394 133.85618,41.174228 134.812053,41.1205993 L143.089862,52.2428925 L150.472093,41.1479609 C151.443264,41.1614593 152.223296,41.174228 153.179709,41.1205993 L153.242342,55.6047166 C152.264332,55.5965081 151.482499,55.6072704 150.526987,55.6612638 L150.464354,43.2444039 L142.263755,55.8011726 C142.238918,55.8442215 142.196263,55.8451336 142.169086,55.8033616 L133.098285,43.1672443 Z M85.7121294,55.6612638 L85.653276,41.1767818 C86.5997897,41.1917394 87.3908008,41.1917394 88.367911,41.1205993 L88.4276643,48.0018502 L101.982481,48.0018502 L101.980681,41.1767818 C102.990548,41.1614593 103.740164,41.174228 104.696576,41.1205993 L104.759209,55.6047166 C103.856431,55.5965081 102.999367,55.6072704 102.043674,55.6612638 L101.982841,49.017329 L88.4276643,49.017329 L88.4276643,55.6047166 C87.4203175,55.5965081 86.667822,55.6072704 85.7121294,55.6612638 Z M175.788049,54.2433876 C175.788049,53.9980456 175.788049,53.8849511 175.77545,53.5863453 C175.833043,53.5932769 175.919434,53.5996612 176.049019,53.5996612 L176.48277,53.5863453 C176.723943,53.5863453 177.01911,53.6660586 177.01911,53.9582801 C177.01911,54.2233225 176.803134,54.3561173 176.552963,54.3894984 C176.763539,54.6481564 176.979515,54.9201303 177.19549,55.1789707 C177.116299,55.1720391 177.051507,55.1656547 176.974115,55.1656547 C176.887725,55.1656547 176.84273,55.1720391 176.763539,55.1789707 C176.567361,54.9201303 176.403579,54.6747883 176.193003,54.4358306 C176.13541,54.6747883 176.140809,54.9265147 176.148008,55.1789707 C176.083215,55.1720391 176.023822,55.1656547 175.959029,55.1656547 C175.899636,55.1656547 175.840243,55.1720391 175.768251,55.1789707 C175.788049,54.7344365 175.788049,54.4825277 175.788049,54.2433876 Z M176.13541,53.745772 L176.13541,54.2833355 C176.187604,54.2897199 176.246997,54.2897199 176.30459,54.2897199 C176.560162,54.2897199 176.659151,54.1239088 176.659151,53.9912964 C176.659151,53.7857199 176.507968,53.732456 176.31179,53.732456 C176.284793,53.732456 176.175005,53.7393876 176.13541,53.745772 Z M177.575248,54.4028143 C177.575248,53.732456 177.064105,53.2151401 176.403579,53.2151401 C175.748453,53.2151401 175.231911,53.732456 175.231911,54.4028143 C175.231911,55.0726254 175.748453,55.5901238 176.403579,55.5901238 C177.064105,55.5901238 177.575248,55.0594919 177.575248,54.4028143 Z M176.403579,52.976 C177.20269,52.976 177.82362,53.5996612 177.82362,54.4028143 C177.82362,55.1922866 177.20269,55.8292638 176.403579,55.8292638 C175.59907,55.8292638 174.983539,55.1922866 174.983539,54.4028143 C174.983539,53.5996612 175.59907,52.976 176.403579,52.976 Z M90.5501658,14.4394267 C88.1225986,14.0864625 85.6491365,14.297329 83.2159899,14.4556612 C83.0964833,14.4556612 82.9946148,14.5054593 82.9946148,14.6063322 L83.0464489,17.5757915 C83.0464489,18.2054723 85.2468817,18.7510619 87.3029707,18.7510619 C88.8738342,18.7510619 90.7612821,18.8274919 92.0112417,17.668456 C92.4507523,17.2107883 92.6024752,16.5147101 92.4163761,15.8852117 C92.1966208,15.0889902 91.4066896,14.5481433 90.5501658,14.4394267 Z M93.9976785,11.6293941 C93.761365,12.6968599 92.6728473,13.3362085 91.7608898,13.6789577 C92.2819312,13.8097459 92.7662568,13.9815765 93.2333043,14.2238176 C94.0057776,14.6289511 94.5530961,15.4235309 94.51782,16.3098632 C94.446908,17.7985147 92.773276,18.693785 91.6847583,18.9688599 C88.5064954,19.7548664 84.3536421,19.4104756 81.0632518,18.6458111 L81.0299555,9.02749186 C81.8038686,9.02566775 82.2953933,9.02566775 82.9528595,8.98754397 L82.9946148,13.4097199 C82.9946148,13.5076743 83.0376299,13.5395961 83.3354965,13.5762606 C85.7675632,13.7805603 88.1792922,13.72 90.2625581,13.1271661 C90.9466613,12.9035309 91.9673266,12.267101 92.0517371,11.3734723 C92.1359676,10.5258111 91.5969282,9.79361564 90.8802487,9.50376547 C89.7577149,8.90965472 86.9435511,9.00304886 85.2524611,9.59186971 C84.6151527,9.83392834 83.9976421,10.1611726 83.4659818,10.643101 C83.4366451,10.6695505 83.4053286,10.6575114 83.4004692,10.6181107 C83.3830111,10.4729121 83.2527058,9.2452899 83.3801314,9.21993485 C85.9056077,8.71648208 88.5441112,8.20591531 91.4232477,8.69897068 C92.2909302,8.88156352 92.8735248,9.13766775 93.4514398,9.71755049 C93.9076886,10.2281173 94.1747786,10.8838827 93.9976785,11.6293941 Z M91.065088,2.23835831 L111.103856,13.9567687 L108.524386,15.4653029 L88.4854378,3.74689251 L87.6847078,4.21495765 L107.723836,15.9335505 L107.453507,16.0915179 L87.4145581,27.8099283 L84.835088,26.3013941 L104.873676,14.5829837 L104.072946,14.1147362 L84.034178,25.8331466 L63.7252599,13.9567687 L66.30473,12.4482345 L86.3436785,24.166645 L87.1445885,23.6983974 L67.10564,11.979987 L87.4145581,0.103609121 L89.9940283,1.61214332 L69.9552599,13.3305537 L70.7561699,13.7988013 L90.7947583,2.08020847 L91.065088,2.23835831 Z M87.4145581,4.37310749 L71.0261395,13.9567687 L87.4145581,23.54043 L103.803157,13.9567687 L87.4145581,4.37310749 Z" id="Fill-1"></path>
        </g>
    </g>
</svg>