<svg height="21" viewBox="0 0 22 21" width="22" xmlns="http://www.w3.org/2000/svg"><g fill="none" fill-rule="evenodd" stroke="#545658" transform="translate(1 1.206667)"><path d="m15.3427305 17.3237907c0-.6547216.5305615-1.1850657 1.1850657-1.1850657s1.1850657.5303441 1.1850657 1.1850657c0 .6545042-.5305615 1.1848482-1.1850657 1.1848482-.6540693-.0010872-1.1837611-.5309964-1.1850657-1.1848482m3.2420788 0c0-1.1350538-.9197849-2.0548387-2.0548387-2.0548387-1.1348363 0-2.0546213.9197849-2.0546213 2.0548387 0 1.1348363.919785 2.0546212 2.0546213 2.0546212 1.1339666-.0023918 2.0524468-.9208721 2.0548387-2.0546212" fill="#545658" stroke-width=".6"/><path d="m19.1632953 4.23801243-1.2372521 5.01641577c-.1441648.58274791-.6673333.9919761-1.2679115.9913238h-10.25440625l-1.43947431-6.00773957zm-16.3626045-4.02052569h-2.36578256c-.24005734 0-.4348865.19461171-.4348865.4348865 0 .24005735.19482916.4348865.4348865.4348865h2.36578256c.30181123-.00043489.56448268.20657108.63493429.50011947l2.20270012 9.19328319v.0219617c-.73126165.7360454-.72756511 1.92546.00848029 2.6569391.3524755.3503011.82954599.5464349 1.32662126.5457826h11.67670254c.2400573 0 .4348865-.1946117.4348865-.4348865 0-.2400574-.1948292-.4348865-.4348865-.4348865h-11.66800481c-.55839426.0004348-1.01132855-.4520646-1.011546-1.0104588-.00021744-.5583943.45206452-1.0113286 1.01067623-1.011546h.00086977 9.67600721c1.0013261.0023919 1.8747957-.6788578 2.1159402-1.65039428l1.3698925-5.55567503c.0576225-.23309917-.0845854-.46902509-.3176846-.52664755-.0341386-.00826285-.0691469-.01261171-.1041553-.01261171h-14.96444445l-.47402629-1.98308244c-.16416965-.68581601-.7777945-1.16897491-1.48296296-1.16767025z" fill="#2f3337"/><path d="m5.81665042 17.3237907c0-.6547216.53056153-1.1850657 1.18506571-1.1850657s1.18506571.5303441 1.18506571 1.1850657c0 .6545042-.53056153 1.1848482-1.18506571 1.1848482-.6540693-.0010872-1.1839785-.5309964-1.18506571-1.1848482m3.24207885 0c0-1.1350538-.92000239-2.0548387-2.05483871-2.0548387s-2.05483871.9197849-2.05483871 2.0548387c0 1.1348363.92000239 2.0546212 2.05483871 2.0546212 1.13374911-.0023918 2.05244684-.9208721 2.05483871-2.0546212" fill="#545658" stroke-width=".6"/></g></svg>