<svg height="18" viewBox="0 0 21 18" width="21" xmlns="http://www.w3.org/2000/svg"><g style="stroke:#545658;stroke-width:2;fill:none;fill-rule:evenodd;stroke-linecap:round;stroke-linejoin:round" transform="translate(1 1)"><path d="m0 8.63636364v5.18181816c0 .4580727.18197682.8974046.50590954 1.2213546.3239241.32395.76326455.5059181 1.22136319.5059181h15.54545457c.4580727 0 .8974045-.1819681 1.2213545-.5059181s.5059182-.7632819.5059182-1.2213546v-5.18181816"/><path d="m19 4.31818182v-2.59090909c0-.45809864-.1819682-.89743909-.5059182-1.22136319-.32395-.32393272-.7632818-.50590954-1.2213545-.50590954h-15.54545457c-.45809864 0-.89743909.18197682-1.22136319.50590954-.32393272.3239241-.50590954.76326455-.50590954 1.22136319v2.59090909l9.5 5.18181818z"/></g></svg>