<svg height="23" viewBox="0 0 24 23" width="24" xmlns="http://www.w3.org/2000/svg"><path d="m12.3718265 6.69579525 7.535208.05379386c.027123 2.33664228-.8607016 4.22168739-2.370998 4.62672349-1.9257296.5162402-4.1751264-1.56002176-5.16421-4.68051735m-.4118168-4.12268865 6.0032133-1.60793898c.7011283.90726273 1.2634775 2.07038531 1.5948295 3.30764395.1428476.53251395.2355177 1.05869921.2906677 1.5722271l-7.6391794-.0542459h-.0031643c-.0239586 0-.0447529.00994508-.0678074.01310942-.2445586-1.10119184-.3141742-2.22408203-.1785594-3.23079559m-4.21535875 10.9061389c-.98863159.9217283-2.0500431 1.2906004-2.98759313 1.0397131-1.49763898-.4014197-2.38139515-2.2584378-2.37054597-4.567053l7.55057769-.16545001c-.46651477 1.49763901-1.23364225 2.79863661-2.19243859 3.69278991m-3.41523166-9.37097984 6.00321331 1.60793899c.1333545.98411109.0687115 2.08078244-.1631898 3.16118001l-7.73184939.1690664c.05379385-.5320619.14872418-1.07813733.29699632-1.63099349.33180411-1.23771069.89370126-2.40038122 1.59482956-3.30719191m17.94770911 11.73790934c-.064643-.2413942-.3114618-.3846938-.5537602-.3195987l-2.4324767.6518549-1.0912468-4.0729632c-.0009041-.0027123-.0027123-.0040685-.0031643-.0063287 1.7340607-.7508537 2.7195279-3.05856488 2.591598-5.77492849.000452-.00723278.0045205-.01356147.0045205-.02079426 0-.01039713-.0049725-.01943811-.0058766-.0293832-.0379722-.72418281-.1518886-1.47594062-.3553107-2.23493121-.3987074-1.48724185-1.0745209-2.82801976-1.9542087-3.87767799-.1130123-.13380656-.2933799-.19166886-.4638025-.14601189l-6.5718911 1.76118366c-.1699705.04520492-.2979005.18534017-.3281878.35847501-.1627377.92579675-.1699705 1.92256522-.0320954 2.93515542-.0587664-.07142377-.137423-.12612173-.2300931-.15098443l-6.57189117-1.76073161c-.1699705-.04610902-.35079018.01220533-.46380248.14646394-.87923568 1.04875413-1.55504923 2.38907999-1.95420866 3.87677389-.97280987 3.62995506.02893114 7.10440516 2.23538326 8.05958506-.0009041.0027123-.00271229.0045205-.00316434.0067808l-1.09169881 4.0729632-2.43247671-.6518549c-.24094222-.0650951-.48911723.0782045-.55376026.3195987-.06464304.2409423.07865656.4891173.31959878.5533083l2.86915623.7693877h.00045205.00045205l2.86915624.7689357c.03932828.0103971.07865656.0153696.11753279.0153696.19980574 0 .38243362-.1329024.43622747-.3349684.06464303-.2409422-.07865656-.4891172-.31959878-.5537603l-2.43338081-.6518549 1.09124675-4.0729633c.0009041-.0022602 0-.0040684.00045205-.0063286.12747787.0158217.25585984.0253147.38514591.0253147 1.00716561 0 2.0509472-.4669668 3.00929149-1.3606681 1.16764307-1.0889865 2.08123445-2.6973775 2.57170785-4.5286288.3146263-1.17261561.4308029-2.35110786.3503381-3.45908043.0253148.10532746.0483693.21110697.0768484.31643444.9239886 3.4477792 3.3189452 5.88568049 5.6036018 5.88568049.1211492 0 .2418463-.009041.3620914-.0235065.0004521.0027123 0 .0054245.0004521.0081368l1.0912467 4.0729633-2.4329287.6518549c-.2409423.0646431-.3837898.312366-.3195988.5537603.0542459.202066.2368738.3349684.4362275.3349684.0388762 0 .0782045-.0049725.1175327-.0153696l5.7387646-1.5383234c.2409422-.064191.3842418-.312366.3195987-.5533083" fill="#545658" fill-rule="evenodd" stroke="#545658" stroke-width=".5" transform="translate(.95 1)"/></svg>