<svg height="21" viewBox="0 0 20 21" width="20" xmlns="http://www.w3.org/2000/svg"><g fill="#545658" stroke="#545658" stroke-width=".5" transform="translate(-2 1)"><path d="m18.8636364 2.7632725h-1.9838497c.3886699-.53624143.4366595-1.23779932.1244347-1.81910631-.3122247-.581307-.9326021-.94543355-1.6086092-.94416288-1.5248634 0-2.4045178 1.19848113-2.8501577 2.09264574-.4456398-.89416461-1.3252942-2.09264574-2.85015761-2.09264574-.67600706-.00127067-1.29638448.36285588-1.60860924.94416288-.31222475.58130699-.26423518 1.28286488.12443469 1.81910631h-1.98384961c-.55228475 0-1 .44771525-1 1v2.0254931c0 .52434284.42506385.9494067.94940669.9494067v4.9518242l1.82605704-1.1628034c.28039782-.1785556.6311956-.2060992.93602482-.0734937 1.56404652.6803844 2.52577872 1.1669246 2.88519672 1.4596206.3955169.3220936 1.0606891.6870964 1.9955167 1.0950085l2.905506.5338286 1.1421395.0538653c.5516716.0260179 1.0199814-.4001087 1.0459992-.9517802.0007401-.0156923.0011103-.0313998.0011103-.0471095v-1.0519232-4.8070372c.5243428 0 .9494067-.42506386.9494067-.9494067v-2.0254931c0-.55228475-.4477153-1-1-1zm-3.4680242-2.01187036c.5730318 0 1.0375659.45037252 1.0375659 1.00593518s-.4645341 1.00593518-1.0375659 1.00593518h-2.3076395c.2964474-.71946437 1.0075336-2.01187036 2.3076395-2.01187036zm-6.73691241.99936044c.00106627-.55461516.46454258-1.00396216 1.0365971-1.00499593 1.29041811 0 2.00731701 1.29240598 2.30570201 2.01187036h-2.30570201c-.57281005-.0010361-1.0365981-.45152581-1.0365971-1.00687443zm-2.65640119 4.23601089v-2.47210214h6.155643v2.47210214zm2.24533213 4.31437403-1.29592543.5407215v-4.1036967h5.2062363v5.1302141zm9.89157307 2.5928597h-3.9950665c-.1865998.1109369-.4231629.1279018-.7096891.0508947s-.4536864-.3325514-.5014807-.7666327v-5.4400969h5.2062363zm.9494067-6.90723373h-6.155643v-2.47210214h6.155643z"/><path d="m3.98059955 16.7272727c-2.76271224-.2140886-3.90220169-3.4144222-3.94931858-3.5504644-.0602357-.1739875-.03215034-.372553.07280021-.514632.53768677-.7280737 1.38800791-1.8882055 1.63246138-2.2413546.47966834-3.58517577 3.26677049-3.63842842 4.772663-3.66731853.3011785-.00560554.5613376-.01077988.76144577-.03665162.53343701-.06963809.69234101-.23133643 1.00885559-.55365514.36122943-.36780983 2.72658678-2.33455186 3.96188308-1.348133.7558789.60359061.5576422 2.00937144.537502 2.1600743-.0162599.12159715-.0702134.23155203-.1515131.30959843l-3.40331707 3.26824696c-.18292437.1757122-.45361548.1453129-.60401995-.0685601-.15058926-.2134418-.12435162-.52907699.05875752-.70457359l3.2662162-3.13673231c.0138579-.31391038-.0138579-.83608824-.2413124-1.04758968-.1869893-.17420301-.5631853-.14488171-1.0594831.08214276-1.05689635.48337026-1.46930765.90292356-1.80041923 1.24033411-.36363146.37018141-.67755924.68991294-1.47780715.79404668-.24057325.03147728-.5195791.03686722-.84274548.04311956-1.98278926.03794521-3.64887917.28480468-3.95301402 2.93471717-.00923861.0808492-.03547624.1580332-.0761261.2244373-.13100341.213873-1.10567617 1.541093-1.55725915 2.153822.29766783.6653348 1.20822467 2.362305 2.84253378 2.6309398.43181237-.6474401 1.69971843-2.2650704 3.88446358-2.8111796 2.30521655-.5762929 5.99918007-2.6279215 6.09784837-5.68013947.1202867-3.71065364-.2747771-5.44939191-.8294025-5.90667784-.5546254-.45728594-.6402746-.36096563-.9536481-.28507521-.3285248.08020238-.5672503.52843019-.7097096.89020329-.0484103.12332194-.13784.21861616-.2475946.2634605-.0424976.01746343-.5275175-1.07998868-.144485-1.40575694.0157056-.01336707-.5535839.59899-.2910228.49593425.3174384-.69724326.7294802-1.10925065 1.2267019-1.22675144.6742333-.15824879 1.2390816.2923506 1.4351248.47625552 1.409811.71298191 1.4305055 4.92878117 1.3721175 6.73570629-.1178846 3.64489635-4.1169069 5.95718265-6.77596196 6.62187065-2.26770782.5672378-3.38613326 2.4269844-3.50623512 2.6371922-.07982154.139923-.21415084.2231437-.35697967.2231437z" transform="matrix(.70710678 .70710678 -.70710678 .70710678 12.239248 2.502189)"/></g></svg>