<svg width="16" height="16" viewBox="0 0 24 24" fill="none" xmlns="http://www.w3.org/2000/svg">
<path d="M23.25 4.5H19.083C19.341 4.05675 19.5 3.549 19.5 3C19.5 1.3455 18.1545 0 16.5 0C14.1525 0 12.753 1.7895 12 3.24225C11.2478 1.7895 9.8475 0 7.5 0C5.8455 0 4.5 1.3455 4.5 3C4.5 3.549 4.659 4.05675 4.917 4.5H0.75C0.336 4.5 0 4.83525 0 5.25V8.25C0 8.66475 0.336 9 0.75 9H23.25C23.664 9 24 8.66475 24 8.25V5.25C24 4.83525 23.664 4.5 23.25 4.5ZM16.5 1.5C17.3272 1.5 18 2.17275 18 3C18 3.82725 17.3272 4.5 16.5 4.5H13.062C13.5585 3.3345 14.6363 1.5 16.5 1.5ZM6 3C6 2.17275 6.67275 1.5 7.5 1.5C9.354 1.5 10.4355 3.3345 10.935 4.5H7.5C6.67275 4.5 6 3.82725 6 3Z" fill="#545658"/>
<path d="M21.75 10.5H13.5V24H21C21.414 24 21.75 23.664 21.75 23.25V10.5Z" fill="#545658"/>
<path d="M10.5 10.5H2.25V23.25C2.25 23.664 2.586 24 3 24H10.5V10.5Z" fill="#545658"/>
</svg>
