<svg height="20" viewBox="0 0 20 20" width="20" xmlns="http://www.w3.org/2000/svg"><g fill="#545658" fill-rule="evenodd" transform=""><path d="m19.375 4h-3.4725c.215-.394.3475-.84533333.3475-1.33333333 0-1.47066667-1.12125-2.66666667-2.5-2.66666667-1.95625 0-3.1225 1.59066667-3.75 2.882-.62683333-1.29133333-1.79375-2.882-3.75-2.882-1.37875 0-2.5 1.196-2.5 2.66666667 0 .488.1325.93933333.3475 1.33333333h-3.4725c-.345 0-.625.298-.625.66666667v2.66666666c0 .36866667.28.66666667.625.66666667h18.75c.345 0 .625-.298.625-.66666667v-2.66666666c0-.36866667-.28-.66666667-.625-.66666667zm-5.625-2.66666667c.6893333 0 1.25.598 1.25 1.33333334 0 .73533333-.5606667 1.33333333-1.25 1.33333333h-2.865c.41375-1.036 1.3119167-2.66666667 2.865-2.66666667zm-8.75 1.33333334c0-.73533334.560625-1.33333334 1.25-1.33333334 1.545 0 2.44625 1.63066667 2.8625 2.66666667h-2.8625c-.689375 0-1.25-.598-1.25-1.33333333z" fill-rule="nonzero"/><path d="m18 9h-7v11h6.3636364c.3512727 0 .6363636-.2737778.6363636-.6111111z"/><path d="m9 9h-7v10.3888889c0 .3373333.28509091.6111111.63636364.6111111h6.36363636z"/></g></svg>