<svg width="64" height="64" viewBox="0 0 64 64" fill="none" xmlns="http://www.w3.org/2000/svg">
<path d="M48.0442 38.1709L51.8532 41.9789C52.5893 42.7156 53.0028 43.7145 53.0028 44.7559C53.0028 45.7973 52.5893 46.7962 51.8532 47.5329V47.5329C51.1166 48.2695 50.1175 48.6834 49.0757 48.6834C48.0339 48.6834 47.0349 48.2695 46.2982 47.5329L42.4912 43.7269" stroke="#111111" stroke-width="2" stroke-miterlimit="10" stroke-linecap="round" stroke-linejoin="round"/>
<path d="M36.974 49.2441L38.761 51.0321C39.4923 51.7635 39.9031 52.7554 39.9031 53.7896C39.9031 54.8239 39.4923 55.8158 38.761 56.5471V56.5471C38.3988 56.9102 37.9684 57.198 37.4946 57.394C37.0207 57.5899 36.5128 57.6903 36 57.6891" stroke="#111111" stroke-width="2" stroke-miterlimit="10" stroke-linecap="round" stroke-linejoin="round"/>
<path d="M7 29V23L3 19L17 5L20 8H25" stroke="#111111" stroke-width="2" stroke-miterlimit="10" stroke-linecap="round" stroke-linejoin="round"/>
<path d="M12.6479 40.3673L11.6183 41.3968C10.0844 42.9308 10.0842 45.4177 11.618 46.9515C13.1518 48.4853 15.6387 48.4851 17.1727 46.9511L18.2022 45.9216C19.7362 44.3876 19.7363 41.9007 18.2026 40.3669C16.6688 38.8331 14.1819 38.8333 12.6479 40.3673Z" stroke="#111111" stroke-width="2" stroke-miterlimit="10" stroke-linecap="round" stroke-linejoin="round"/>
<path d="M24.3424 50.8163L23.8163 51.3424C22.2933 52.8654 22.2933 55.3348 23.8163 56.8578C25.3394 58.3809 27.8087 58.3809 29.3317 56.8578L29.8578 56.3317C31.3809 54.8087 31.3809 52.3393 29.8578 50.8163C28.3348 49.2933 25.8654 49.2932 24.3424 50.8163Z" stroke="#111111" stroke-width="2" stroke-miterlimit="10" stroke-linecap="round" stroke-linejoin="round"/>
<path d="M12.6305 40.3829L12.0505 40.9629C11.687 41.3271 11.2531 41.6136 10.7753 41.8049C10.2975 41.9962 9.78583 42.0883 9.27133 42.0756C8.75683 42.0629 8.2503 41.9456 7.78256 41.7309C7.31481 41.5163 6.89564 41.2087 6.55053 40.8269V40.8269C5.90342 40.1111 5.55285 39.176 5.56993 38.2112C5.58702 37.2464 5.97048 36.3243 6.64253 35.6319L7.22253 35.0389C7.92182 34.3234 8.87504 33.9126 9.87533 33.8956C10.8756 33.8785 11.8423 34.2567 12.5655 34.9479V34.9479C12.9319 35.2974 13.2247 35.7167 13.4267 36.181C13.6287 36.6453 13.7359 37.1454 13.742 37.6517C13.748 38.158 13.6528 38.6605 13.462 39.1295C13.2711 39.5985 12.9884 40.0246 12.6305 40.3829V40.3829Z" stroke="#111111" stroke-width="2" stroke-miterlimit="10" stroke-linecap="round" stroke-linejoin="round"/>
<path d="M18.2248 45.9026L17.9335 46.1939C16.4105 47.717 16.4105 50.1863 17.9335 51.7094C19.4565 53.2324 21.9259 53.2324 23.4489 51.7094L23.7403 51.4181C25.2633 49.895 25.2633 47.4257 23.7403 45.9026C22.2172 44.3796 19.7479 44.3796 18.2248 45.9026Z" stroke="#111111" stroke-width="2" stroke-miterlimit="10" stroke-linecap="round" stroke-linejoin="round"/>
<path d="M45.5375 46.7759C45.8997 47.138 46.187 47.568 46.3831 48.0412C46.5791 48.5144 46.68 49.0217 46.68 49.5339C46.68 50.0461 46.5791 50.5533 46.3831 51.0265C46.187 51.4997 45.8997 51.9297 45.5375 52.2919V52.2919C44.8061 53.0231 43.8142 53.4339 42.78 53.4339C41.7457 53.4339 40.7538 53.0231 40.0225 52.2919L38.7305 50.9999" stroke="#111111" stroke-width="2" stroke-miterlimit="10" stroke-linecap="round" stroke-linejoin="round"/>
<path d="M50.7756 40.8998C51.1396 41.2633 51.5736 41.5491 52.0513 41.7399C52.529 41.9307 53.0405 42.0225 53.5547 42.0098C54.069 41.9971 54.5753 41.8801 55.043 41.6659C55.5107 41.4517 55.93 41.1448 56.2756 40.7638V40.7638C56.9227 40.048 57.2733 39.1129 57.2562 38.1481C57.2391 37.1833 56.8556 36.2612 56.1836 35.5688L43.4756 22.5098" stroke="#111111" stroke-width="2" stroke-miterlimit="10" stroke-linecap="round" stroke-linejoin="round"/>
<path d="M57.0002 29V23L61.0002 19L47.0002 5L44.0002 8H37.4471C35.8622 7.99991 34.2928 8.31205 32.8285 8.91859C31.3642 9.52513 30.0338 10.4142 28.9132 11.535L19.7072 21.106C19.1165 21.7091 18.7713 22.5104 18.7388 23.354C18.7064 24.1976 18.9888 25.0231 19.5314 25.6699C20.0739 26.3166 20.8376 26.7385 21.6739 26.8533C22.5103 26.9681 23.3594 26.7677 24.0562 26.291L33.8561 19.973C34.7024 20.9326 35.7454 21.6986 36.9143 22.219C38.0831 22.7393 39.3503 23.0018 40.6297 22.9885C41.9091 22.9752 43.1705 22.6865 44.3283 22.142C45.4861 21.5975 46.513 20.8099 47.3392 19.833" stroke="#111111" stroke-width="2" stroke-miterlimit="10" stroke-linecap="round" stroke-linejoin="round"/>
</svg>
