<svg height="25" viewBox="0 0 23 25" width="23" xmlns="http://www.w3.org/2000/svg"><path d="m50.6859392 268.749639c-2.3434356-1.369761-4.9396314-2.237753-7.6150693-2.56325-.1829145-.917628-.8694704-1.649758-1.7527219-1.889983v-4.660048c0-.35127-.280636-.636358-.6264196-.636358s-.6264195.285088-.6264195.636358v4.660048c-.8829384.240225-1.5698074.972355-1.7527219 1.889983-2.6754379.325179-5.2713206 1.193489-7.6150693 2.56325-.300055.174998-.403101.564131-.2305224.868628.1722654.304816.5556341.410133.8550627.23418.5099055-.298134 1.033279-.569859 1.5669885-.817084v3.179562l-.6824841 1.404442-1.6703477.246271c-.235847.034681-.4319163.202998-.5055206.433041-.0736043.230362-.0125284.483314.1584841.652267l1.2083633 1.197307-.2850208 1.689848c-.0404041.238635.0563777.480132.2490017.622358.1932505.142226.4488296.160999.6596198.048364l1.4940106-.797675 1.4940107.797675c.0917704.048681.1916844.072863.2915983.072863.129982 0 .2590245-.041045.3683347-.121545.1929372-.142226.2894058-.383724.2490017-.622358l-.2850209-1.689848 1.2083634-1.197307c.1706993-.168953.2320884-.421906.1584841-.652267-.0736043-.230362-.2696736-.39836-.5055206-.433042l-1.6703477-.24627-.6818577-1.404124v-3.705193c1.8930399-.714312 3.8950768-1.117445 5.9231101-1.186489v9.895046c-1.1081362.285088-1.9315647 1.303897-1.9315647 2.516477 0 1.43276 1.1476006 2.598567 2.5579842 2.598567s2.5579843-1.165807 2.5579843-2.598567c0-1.212898-.8237417-2.231707-1.9315647-2.516477v-9.895046c2.0283465.068726 4.0300702.472177 5.92311 1.186489v5.048545l-1.8598396 2.183025c-.2032731.238953-.2032731.593722 0 .832675l2.0123728 2.362478c.1190197.139681.2919115.219862.4738864.219862s.3548667-.080181.4738864-.219862l2.0123728-2.362478c.2032731-.238953.2032731-.593722 0-.832675l-1.8598397-2.183025v-4.522596c.5333963.247226 1.0567698.51895 1.5669886.817084.0983478.05759.2057788.084954.3116437.084954.2167411 0 .4275313-.114545.5434189-.319134.1728918-.304815.0698458-.693948-.2302091-.868946zm-15.6272886 6.190489-.5355887.530722c-.1475218.146044-.2151751.356679-.1800956.563177l.1262235.748993-.6621254-.353497c-.0914573-.048681-.1913712-.072863-.2915984-.072863-.1002271 0-.200141.024182-.2915983.072863l-.6621254.353497.1262235-.748993c.0347663-.20618-.0325738-.417133-.1800956-.563177l-.5355887-.530722.7401147-.109136c.2038995-.030227.3802367-.160362.4716939-.348405l.3310627-.68154.3310628.68154c.0914572.188043.2674811.318178.4716939.348405zm12.809027 2.607476-1.183933-1.389805 1.183933-1.389806 1.1839329 1.389806zm-7.1759492-12.064708c.4281578 0 .7999378.236407 1.0050902.585131-.334508-.017182-.6696425-.028318-1.0050902-.028318-.3357609 0-.6705821.011454-1.0050901.028318.2054656-.348724.5769324-.585131 1.0050901-.585131zm1.3051452 14.25187c0 .731175-.5853891 1.325852-1.3051452 1.325852-.719756 0-1.3051451-.594677-1.3051451-1.325852s.5853891-1.325852 1.3051451-1.325852c.7197561 0 1.3051452.594677 1.3051452 1.325852z" fill="#545658" stroke="#545658" stroke-width=".2" transform="translate(-29 -258)"/></svg>