<svg height="21" viewBox="0 0 22 21" width="22" xmlns="http://www.w3.org/2000/svg"><path d="m45.5566712 321.256194-3.5840842-.527228-1.6028059-3.287332c-.0863542-.177126-.2644437-.289159-.4597016-.289159s-.3730912.112033-.4594454.289159l-1.6033184 3.287332-3.5840842.527228c-.1929516.028268-.3533604.165197-.4135777.352955-.0602173.187759-.0099935.39393.1296595.531637l2.593445 2.5586-.6124231 3.613057c-.0327992.194502.0463802.391596.2039702.507519.1581025.115923.3674538.131224.5396498.039419l3.2061243-1.706425 3.2061243 1.706425c.0750795.039419.1568213.059388.2385631.059388h.0051249c.2831495 0 .5124879-.232105.5124879-.51867 0-.055757-.0084561-.108921-.0245994-.158973l-.6001234-3.54148 2.593445-2.5586c.139653-.137707.1898768-.343879.1296595-.531637-.0604736-.188278-.2208823-.324947-.4140902-.353215zm-3.2176553 2.890549c-.1206909.119035-.1757834.290715-.1473403.459023l.4825074 2.846203-2.5252842-1.343874c-.1491339-.079616-.327736-.079616-.47687 0l-2.5252841 1.343874.4822511-2.846203c.0281869-.168049-.0266493-.339988-.1473402-.459023l-2.0427768-2.015293 2.8232958-.415195c.1668148-.024637.3110802-.130446.3859034-.283713l1.2627702-2.589461 1.2625139 2.589461c.0748233.153267.2188324.259076.3861597.283713l2.8232958.415195zm8.6531019-10.242181c-.0340804-.194501-.1742459-.352177-.3615602-.407415l-2.4258615-.714209-.7933312-2.427377c-.0609861-.187499-.2221635-.323391-.4153715-.35088-.1932079-.026193-.3851346.058869-.494807.22199l-1.4213852 2.11436-2.5263091.013226c-.1950017.001037-.3725787.114107-.457908.291492-.0855855.177645-.0638047.388744.055605.544864l1.5472009 2.021776-.7671944 2.435935c-.0591923.188018-.0079435.39393.1327344.530859.1404217.137188.3461856.181016.5288875.114626l2.3776876-.865142 2.0520016 1.491696c.0889166.064574.1937204.09725.2990367.09725h.0051249c.2831495 0 .5124879-.232364.5124879-.51867 0-.030601-.0025625-.060425-.0074311-.08973l-.0763607-2.482096 2.0356019-1.514517c.1570776-.116442.235232-.313537.2011515-.508038zm-3.0610902 1.348802c-.1358093.101141-.2139637.263485-.2085826.434127l.0548362 1.777483-1.4272788-1.0376c-.0884041-.064315-.1932079-.097251-.2990367-.097251-.0584236 0-.1171035.010115-.1734771.030602l-1.654311.601917.5337562-1.694755c.0512488-.162603.0202433-.340248-.0830231-.475102l-1.0762245-1.406374 1.757321-.009337c.1686085-.000778.3259423-.085839.4210088-.226918l.9888454-1.470689.5516932 1.688271c.0527863.162085.1814207.287344.3433669.335061l1.6876226.496886zm-11.7764595 3.205123c.0599611.023599.1227409.03501.1852644.03501h.0051249c.2831496 0 .5124879-.232364.5124879-.51867 0-.076245-.0161434-.148599-.0453552-.213692l-.4474019-1.550565 1.0526501-1.307568c.1229971-.153007.1499027-.363588.0689297-.543307-.0809731-.179719-.2559878-.296938-.4509894-.302644l-1.6653294-.050052-.9024912-1.417007c-.1053163-.165715-.2936556-.256223-.4889135-.234179-.1939766.022303-.358229.154304-.4240837.340247l-.5621992 1.587391-1.6107495.430755c-.1885956.050311-.3326047.204875-.3712975.398339s.0343367.392374.1885956.513224l1.3181188 1.032154-.0922478 1.683863c-.0107622.197095.0899416.383557.2598314.480548.0786669.044865.1655336.066908.2518878.066908.1012163 0 .2019202-.030342.2887869-.090248l1.3765425-.949685zm-1.9082487-1.620326-.7415699.511668.0497113-.906895c.0092248-.170383-.0648297-.334542-.1980766-.438795l-.7097957-.555755.8673857-.232105c.1632274-.043568.2944243-.165715.3515667-.326503l.3028804-.854768.4858385.762964c.0912229.143671.2467629.232364.4153715.237551l.8968538.02697-.5670679.704355c-.1063412.132261-.1419591.309127-.094554.473027l.2513753.871366-.8363802-.328059c-.1565651-.061722-.3343984-.041494-.4735389.054979z" fill="#545658" stroke="#545658" stroke-width=".3" transform="translate(-30 -309)"/></svg>