<svg height="19" viewBox="0 0 30 19" width="30" xmlns="http://www.w3.org/2000/svg"><g style="stroke:#545658;stroke-width:1.5;fill:none;fill-rule:evenodd;stroke-linecap:round;stroke-linejoin:round"><g transform="translate(6.814815 1)"><path d="m0 16.3703704c0-4.1097071 3.33137037-7.44107747 7.44107744-7.44107747h1.48821549c4.10970707 0 7.44107747 3.33137037 7.44107747 7.44107747"/><path d="m8.18518519 8.92929293c2.46574981 0 4.46464641-1.99889663 4.46464641-4.46464647 0-2.46575727-1.9988966-4.46464646-4.46464641-4.46464646-2.46575728 0-4.46464647 1.99888919-4.46464647 4.46464646 0 2.46574984 1.99888919 4.46464647 4.46464647 4.46464647z"/></g><g transform="translate(19.497942 5)"><path d="m.73660568 6.42919105c.77359048-.60905509 1.74970915-.97240093 2.81071942-.97240093h.90946502c2.51148766 0 4.54732511 2.03583745 4.54732511 4.54732508"/><path d="m4.00205761 5.45679012c1.50684712 0 2.72839506-1.22154794 2.72839506-2.72839506 0-1.50685166-1.22154794-2.72839506-2.72839506-2.72839506-1.50685166 0-2.72839506 1.2215434-2.72839506 2.72839506 0 1.50684712 1.2215434 2.72839506 2.72839506 2.72839506z"/></g><g transform="translate(1.497942 5.277778)"><path d="m0 10.0041152c0-2.51148763 2.03583745-4.54732508 4.5473251-4.54732508h.90946502c.93619126 0 1.80628962.28288516 2.52948282.76784321"/><path d="m5.00205761 5.45679012c1.50684712 0 2.72839506-1.22154794 2.72839506-2.72839506 0-1.50685166-1.22154794-2.72839506-2.72839506-2.72839506-1.50685166 0-2.72839506 1.2215434-2.72839506 2.72839506 0 1.50684712 1.2215434 2.72839506 2.72839506 2.72839506z"/></g></g></svg>