<svg height="26" viewBox="0 0 28 26" width="28" xmlns="http://www.w3.org/2000/svg"><path d="m26 8.17294703c0-2.06738657-1.674906-3.74333452-3.7410072-3.74333452h-2.8057554v-3.49377888c0-.51684664-.4187265-.93583363-.9352518-.93583363h-11.03597121c-.51652531 0-.9352518.41898699-.9352518.93583363v3.49377888h-2.8057554c-2.06610122 0-3.74100719 1.67594795-3.74100719 3.74333452v7.11233557c0 2.0673866 1.67490597 3.7433345 3.74100719 3.7433345h2.4940048v4.2424458c0 .5168467.41872649.9358337.9352518.9358337h11.65947241c.5165253 0 .9352518-.418987.9352518-.9358337v-4.2424458h2.4940048c2.0661012 0 3.7410072-1.6759479 3.7410072-3.7433345zm-17.58273381-6.30127977h9.16546761v2.55794525h-9.16546761zm-.3117506 20.49475644v-7.7986135h9.78896881v7.7674191zm16.02398081-7.0811411c0 1.0336933-.837453 1.8716673-1.8705036 1.8716673h-2.4940048v-2.5891397h1.3405276c.5165253 0 .9352518-.418987.9352518-.9358337 0-.5168466-.4187265-.9358336-.9352518-.9358336h-16.21103119c-.5165253 0-.9352518.418987-.9352518.9358336 0 .5168467.4187265.9358337.9352518.9358337h1.34052758v2.5891397h-2.4940048c-1.03305061 0-1.87050359-.837974-1.87050359-1.8716673v-7.11233557c0-1.03369328.83745298-1.87166726 1.87050359-1.87166726h18.51798561c1.0330506 0 1.8705036.83797398 1.8705036 1.87166726z" fill="#545658" stroke="#fff" stroke-width=".2" transform="translate(1 1)"/></svg>