<svg height="22" viewBox="0 0 18 22" width="18" xmlns="http://www.w3.org/2000/svg"><path d="m299.202246 77.3179687c1.453598.0048928 2.728239-.9880578 3.10478-2.4186368s-.239406-2.9401766-1.500329-3.6770896c-1.260923-.7369129-2.850741-.5164158-3.87249.5370885-1.02175 1.0535044-1.219304 2.6759293-.481205 3.9519151l-5.023673 3.285121c-1.254593-1.2511183-3.264863-1.2364153-4.501701.032925-1.236837 1.2693403-1.236837 3.3177356 0 4.5870759 1.236838 1.2693403 3.247108 1.2840432 4.501701.032925l4.888848 3.222405c-.706244 1.523179-.157711 3.3437823 1.265665 4.2007898s3.253108.4683463 4.221854-.8967819c.968745-1.3651281.757654-3.257409-.487063-4.3661758-1.244718-1.1087669-3.11338-1.0690834-4.311679.091564l-4.903503-3.222405c.384999-.8530006.384999-1.8348257 0-2.6878263l5.129187-3.3627693c.561704.4491274 1.255611.6921753 1.969608.6898754zm0-5.3129366c1.115303 0 2.019435.9212549 2.019435 2.0576803 0 1.1364255-.904132 2.0576804-2.019435 2.0576804-1.115302 0-2.019434-.9212549-2.019434-2.0576804.001614-1.1357434.904801-2.0560355 2.019434-2.0576803zm-10.00045 11.3844375c-1.116922 0-2.022366-.922592-2.022366-2.0606668 0-1.1380749.905444-2.0606668 2.022366-2.0606668 1.116921 0 2.022365.9225919 2.022365 2.0606668 0 1.1380748-.905444 2.0606668-2.022365 2.0606668zm10.00045 2.8102717c.818503-.0012079 1.557015.5004143 1.870791 1.2707032.313775.7702889.140936 1.6573422-.437833 2.2470729-.57877.5897306-1.449335.7658427-2.205307.4461249s-1.24827-1.0722165-1.247085-1.9062207c.001614-1.1357435.904801-2.0560355 2.019434-2.0576803z" fill="#545658" stroke="#545658" stroke-width=".7" transform="translate(-285 -70)"/></svg>