<svg height="24" viewBox="0 0 21 24" width="21" xmlns="http://www.w3.org/2000/svg"><path d="m16.9852941 0c-2.2062754 0-4.0147059 1.80178677-4.0147059 3.99999795 0 .42607055.0674069.84471649.1930147 1.2307686l-6.63005511 3.67308735c-.69080117-.55892279-1.56600705-.90384569-2.51884191-.90384569-2.20627544 0-4.01470588 1.80178369-4.01470588 3.99999799 0 2.1981834 1.80843044 3.9999979 4.01470588 3.9999979.95283486 0 1.82804074-.3353229 2.51884191-.8942457l6.63970591 3.673075c-.1262718.3869845-.2026655.7939073-.2026655 1.2211687 0 2.1982142 1.8084305 3.9999979 4.0147059 3.9999979 2.2062755 0 4.0147059-1.8017837 4.0147059-3.9999979 0-2.1982143-1.8084304-3.999998-4.0147059-3.999998-1.1080557 0-2.118304.4613844-2.8469669 1.1923071l-6.45634191-3.5769213c.22054942-.4940305.34742647-1.0427071.34742647-1.6153837 0-.5758459-.12460411-1.1192302-.34742647-1.6153838l6.44669121-3.57692128c.7294072.73661501 1.7436423 1.19230709 2.8566176 1.19230709 2.2062755 0 4.0147059-1.80179908 4.0147059-4.00001026s-1.8084304-3.99999795-4.0147059-3.99999795zm0 1.8461529c1.2048658 0 2.1617647.95338105 2.1617647 2.15384505s-.9568989 2.15384505-2.1617647 2.15384505c-1.2048657 0-2.1617647-.95338105-2.1617647-2.15384505s.956899-2.15384505 2.1617647-2.15384505zm-12.97058822 8.0000082c1.20486574 0 2.16176471.9533534 2.16176471 2.1538451 0 1.2004609-.95689897 2.153845-2.16176471 2.153845-1.20486573 0-2.1617647-.9533841-2.1617647-2.153845 0-1.2004917.95689897-2.1538451 2.1617647-2.1538451zm12.97058822 7.9999959c1.2048658 0 2.1617647.9533841 2.1617647 2.1538451 0 1.2004609-.9568989 2.153845-2.1617647 2.153845-1.2048657 0-2.1617647-.9533841-2.1617647-2.153845 0-1.200461.956899-2.1538451 2.1617647-2.1538451z" fill="#545658" transform=""/></svg>