<svg height="16" viewBox="0 0 20 16" width="20" xmlns="http://www.w3.org/2000/svg"><g fill="#545658" stroke="#545658" transform="translate(0 1)"><path d="m18.28 2.77882822h-2.0774877c.3643948-.53926018.409387-1.24476745.1166629-1.82934689-.2927242-.58457944-.8743548-.95075582-1.5081406-.949478-1.4296252 0-2.2543391 1.20522793-2.6721457 2.10442619-.4178066-.89919826-1.2425205-2.10442619-2.67214575-2.10442619-.63378577-.00127782-1.21541637.36489856-1.50814054.949478-.29272418.58457944-.24773188 1.29008671.11666289 1.82934689h-2.07748772c-.39764502 0-.72.32235498-.72.72v2.55727632c0 .39764502.32235498.72.72.72h.17010973v6.22611766c0 .397645.32235498.72.72.72h10.50200279c.397645 0 .72-.322355.72-.72v-6.22611766h.1701097c.397645 0 .72-.32235498.72-.72v-2.55727632c0-.39764502-.322355-.72-.72-.72zm-3.4689654-2.02319609c.5372421 0 .9727628.45290787.9727628 1.01159804 0 .55869018-.4355207 1.01159805-.9727628 1.01159805h-2.1635116c.2779322-.72351457.9446063-2.02319609 2.1635116-2.02319609zm-6.31614595 1.00498629c.00099968-.55773734.43552871-1.00961392.9718545-1.01065351 1.20982265 0 1.88194625 1.29968153 2.16169505 2.0231961h-2.16169505c-.53703413-.00104194-.97185543-.45406766-.9718545-1.01254259zm-2.49049069 4.25985733v-2.48601874h5.77118084v2.48601874zm.89010973 6.94611765v-6.19048886h4.88107111v6.19048886zm10.48876241 0h-4.8810711v-6.19048886h4.8810711zm.8901097-6.94611765h-5.7711808v-2.48601874h5.7711808z" stroke-width=".67"/><path d="m4.56642512 1.98205128h-3.85507246c-.3442029 0-.61956522-.29230769-.61956522-.65769231 0-.36538461.27536232-.6576923.61956522-.6576923h3.85507246c.3442029 0 .61956522.29230769.61956522.6576923 0 .36538462-.27536232.65769231-.61956522.65769231zm.61956522 1.70512821c0 .36538461-.27536232.6576923-.61956522.6576923h-2.75362319c-.3442029 0-.61956522-.29230769-.61956522-.6576923 0-.36538462.27536232-.65769231.61956522-.65769231h2.75362319c.3442029 0 .61956522.29230769.61956522.65769231zm0 2.38717948c0 .36538462-.27536232.65769231-.61956522.65769231h-1.72101449c-.3442029 0-.61956522-.29230769-.61956522-.65769231 0-.36538461.27536232-.6576923.61956522-.6576923h1.72101449c.3442029 0 .61956522.29230769.61956522.6576923z" stroke-width=".1" transform="translate(0 6.333333)"/></g></svg>