<svg height="20" viewBox="0 0 21 20" width="21" xmlns="http://www.w3.org/2000/svg"><path d="m36 204.633852h-2.8734445c.5045466-.705186.5668436-1.627773.1615332-2.392223s-1.2106451-1.243296-2.0881946-1.241625c-1.9794811 0-3.1213926 1.576068-3.6998941 2.751942-.5785015-1.175874-1.720413-2.751942-3.6998941-2.751942-.8775495-.001671-1.6828842.477175-2.0881946 1.241625s-.3430134 1.687037.1615332 2.392223h-2.8734445c-.5522847 0-1 .447716-1 1v3.227208c0 .552285.4477153 1 1 1h.2324596v8.083384c0 .552285.4477153 1 1 1h14.5350808c.5522847 0 1-.447715 1-1v-8.083384h.2324596c.5522847 0 1-.447715 1-1v-3.227208c0-.552284-.4477153-1-1-1zm-4.8001059-2.645718c.7438736 0 1.3469023.592264 1.3469023 1.322859s-.6030287 1.322859-1.3469023 1.322859h-2.9956315c.3848293-.946134 1.3079164-2.645718 2.9956315-2.645718zm-8.7454329 1.314213c.0013842-.729349.6030398-1.320264 1.3456447-1.321624 1.675139 0 2.6057718 1.699584 2.9931162 2.645718h-2.9931162c-.7435857-.001362-1.345646-.59378-1.3456447-1.324094zm-3.4483717 5.570583v-3.250948h7.9908658v3.250948zm1.2324596 9.083384v-8.095254h6.7584062v8.095254zm14.5229018 0h-6.7584062v-8.095254h6.7584062zm1.2324596-9.083384h-7.9908658v-3.250948h7.9908658z" fill="#545658" stroke="#545658" stroke-width=".5" transform="translate(-17 -200)"/></svg>