<svg height="21" viewBox="0 0 21 21" width="21" xmlns="http://www.w3.org/2000/svg"><path d="m12.4478197 8.83862328 3.5582153-3.56561508c.0747645-.07489253.1810498-.11768826.2909822-.11768826.11384 0 .2203859.04540523.2920243.12447295l1.0229967 1.02240046v-4.92203101h-4.9229924l1.0289883 1.0289242c.0750249.07489253.118008.18005521.118008.28887119 0 .10855502-.0429831.2137177-.118008.28861023l-3.5649884 3.55700375zm0 .82199119c-.2091841 0-.4053432-.08063342-.5517461-.22754804l-2.32994191-2.32949691c-.14666339-.14691462-.22872195-.3436706-.23132698-.55399597-.00234453-.21293486.07710899-.41151749.22377238-.5584321l3.29823291-3.29709797-1.048526-1.04823447c-.0726804-.07306588-.115924-.17953331-.115924-.28521789 0-.4352639.3537636-.78911154.7888042-.78911154h5.1506722c.4277465 0 .7890647.36141518.7890647.78911154v5.1503619c0 .43500295-.3540241.78911153-.7890647.78911153-.1057644 0-.2120497-.04331763-.2844697-.11612256l-1.0493074-1.04875637-3.2979725 3.29788081c-.1466633.14691462-.3428224.22754804-.5522671.22754804zm-7.14795138 4.42100783c.04949564.0240073.08101655.0563651.09742826.0735878.7314934.7050857 1.75839761 1.6431995 2.43101726 2.147615 1.65159124 1.2387277 3.45635846 1.8934502 5.21892416 1.8934502 1.8282125 0 3.5618623-.7118705 4.6372201-1.9038882.3107805-.3423658.5074605-.7369216.5137126-1.0307508 0-.2087597-.0635628-.4326544-.5251748-.6283666-.5676368-.2510335-1.1115678-.4639684-1.6875407-.6894288-.2490412-.0973342-.5009479-.1959731-.7580647-.2990482h-.0432436l-.0307394-.0273997c-.1375457-.0399253-.2433101-.0602794-.315209-.0602794-.0500167 0-.0687729.0101771-.075025.0133085-.0630418.0365329-.2310665.3191413-.312083.4548351-.2026716.3582837-.4467632.7228303-.8422073.9428108-.2907218.1615278-.6293761.2335499-1.0985427.2335499-.1091509 0-.2253354-.0039143-.3493349-.0114818-1.9772205-.1351719-3.56368587-1.5675241-4.8956395-2.8994108l-.49235133-.49189h-.02969738l-.05652923-.0874181c-.01120164-.0133084-.02057977-.0279216-.02917638-.0427957-1.37910473-1.3809452-2.7300751-2.89262611-2.85641923-4.83696145-.04142003-.6842098.0231848-1.10459958.22377238-1.45166252.19928506-.35045529.50850254-.57878617.94250112-.83295107.34308291-.19571218.4431162-.28313029.46734301-.32201178.01172265-.02557306.02813436-.11377402-.06408382-.41047369-.11305846-.27634561-.22611691-.5615635-.33761235-.84365-.22220935-.5610416-.43217505-1.0910302-.67340116-1.64137287-.19694053-.46396836-.42123391-.52764005-.63406515-.52764005-.28186462 0-.66610706.19231984-1.02820672.51433162-2.86110829 2.5894027-2.13716948 7.00571342-.00286554 9.84588871.50355298.6719451 1.43902051 1.7029569 2.14654761 2.4440537.01172265.0122647.02162177.0242684.03021838.0360111l.01745373.0195712c.0619998.0686297.13754577.1369985.21335224.2056283.01224366.0122646.03021839.0305311.04584859.0553213.04923513.0547994.10211731.1124693.15187345.1589183zm7.74007558 4.9183777c-1.937624 0-3.90442425-.7079562-5.68730918-2.0474104-.69893049-.5218992-1.70551543-1.4514016-2.43726934-2.1497027-.01901674-.0086113-.03777299-.0193102-.05861325-.0331406l-.01302517-.0086113-.01172265-.0106989c-.0935207-.0855915-.20032708-.2004093-.28290664-.2904369-.09768876-.0824601-.19589852-.1808381-.28733519-.2719095-.03230242-.0326187-.05809225-.0715002-.07658799-.1148178-.90108109-.9451594-1.69900285-1.8498716-2.1387325-2.4252654-1.89438036-2.52547007-2.14394257-4.84426805-2.01968247-6.34472815.15057093-1.81986238.93025746-3.4915054 2.13925351-4.5861889.52751928-.47597204 1.05191252-.71708945 1.55963355-.71708945.59681318 0 1.09515608.36663416 1.36686108 1.00569969.3034864.69830108.57258636 1.3705072.85757703 2.08263861l.19094895.47649394v.02296356c.10628537.35228194.17401624.7204818-.01120164 1.04275453-.14510037.26590762-.39466258.40995179-.68356079.57643763l-.07684849.04436142c-.38267942.21763196-.55096459.35489144-.64474579.52581341-.11201644.20406257-.1474449.51224403-.11540299.998915.10602487 1.69304089 1.43328944 3.14444246 2.66885682 4.37194931l.05757124.0574089v.010438l.01015963.0106989.00052101.0026095c.16776416.1610059.33500731.3222727.49599838.4835396 1.22488675 1.2314211 2.67328538 2.5541745 4.36655718 2.6687314.115924.0073065.2219488.0109598.3183351.0109598.317293 0 .5384604-.0404472.6960649-.1268215.1740163-.1007265.3193771-.2763456.5327294-.6445454.1768817-.3167928.3310997-.5931384.6207794-.7598852.1437979-.0785458.2959319-.1153397.4691666-.1153397.1638566 0 .3472509.0328796.5746704.1038579h.0518401l.0343865.0331406c.234974.0939419.4665615.1852742.6965859.2763456.6108804.2413784 1.1881558.4694483 1.7927841.7319636.6377122.2755627 1.0037194.776325 1.0037194 1.3736386 0 .4999794-.2479992 1.0393622-.7171657 1.5602175-1.2251473 1.3618959-3.1851745 2.1750148-5.2428904 2.1750148z" fill="#333" fill-rule="evenodd" stroke="#333" stroke-width=".8" transform="translate(1 1)"/></svg>