<svg height="23" viewBox="0 0 23 23" width="23" xmlns="http://www.w3.org/2000/svg"><g fill="#333" fill-rule="evenodd" transform="translate(1 1)"><g stroke="#333"><path d="m2.32410588 6.57605882c-.92464706 0-1.67717647.75317647-1.67717647 1.67717647s.75252941 1.67652942 1.67717647 1.67652942h.2122353c.15141176 0 .28341176.10547059.3157647.25429409.76741177 3.4721177 4.05770588 5.9930588 7.82423532 5.9930588 3.7665294 0 7.0574706-2.5209411 7.8248823-5.9930588.033-.1481764.164353-.25429409.3157647-.25429409h.2122353c.9246471 0 1.6765294-.75188236 1.6765294-1.67652942 0-.92464705-.7518823-1.67717647-1.6765294-1.67717647h-.4283529c-.1391177 0-.2620588-.08864706-.3060588-.22064706-1.0592353-3.14211764-4.1204706-5.25411764-7.6184706-5.25411764-3.49800002 0-6.55988238 2.112-7.61782355 5.25411764-.044.132-.16758824.22064706-.30670589.22064706zm8.35223532 10.24747058c-3.97617649 0-7.46317649-2.6121765-8.39558826-6.2473529-1.2617647-.0226471-2.28088235-1.05600003-2.28088235-2.32294121 0-1.28117647 1.04241176-2.32423529 2.32423529-2.32423529h.19929412c1.21323529-3.28447059 4.45952941-5.47476471 8.1535882-5.47476471 3.6940589 0 6.940353 2.19029412 8.1535883 5.47476471h.1999411c1.2805295 0 2.3235883 1.04241176 2.3235883 2.32423529 0 1.26694118-1.0191177 2.30029411-2.2802353 2.32294121-.9337059 3.6351764-4.421353 6.2473529-8.3975294 6.2473529z" stroke-width=".7" transform="translate(0 4.077118)"/><path d="m13.3879059 12.7968824c.4315882 0 .781647.3500588.781647.781647s-.3500588.7816471-.781647.7816471c-.4322353 0-.7816471-.3500589-.7816471-.7816471s.3494118-.781647.7816471-.781647" stroke-width=".5"/><path d="m8.26358824 12.7968824c.43158823 0 .78164705.3500588.78164705.781647s-.35005882.7816471-.78164705.7816471c-.43158824 0-.78164706-.3500589-.78164706-.7816471s.35005882-.781647.78164706-.781647" stroke-width=".5"/></g><path d="m10.6758235 17.8077706c-.79135291 0-1.58141174-.2167647-2.28605879-.6509412l-.12747059-.0782941c-.15141177-.0944706-.19929412-.2931177-.10547059-.4451765.09447059-.1520588.29376471-.198.44517647-.1061176l.12682353.0789412c1.20029412.7395882 2.69241177.7402352 3.89594117-.0006471l.1261765-.0782941c.1514117-.0925294.3513529-.0465883.4451764.1054706.0938236.1520588.0459412.3513529-.1054705.4451764l-.1268236.0782942c-.7059411.4341764-1.4972941.6515882-2.288.6515882" stroke="#1f1f1f" stroke-width=".5"/><path d="m11.3879765 5.22047059c-1.5781765 0-2.86388238-1.28441177-2.86388238-2.86388235 0-1.29929412 1.05729412-2.35658824 2.35594118-2.35658824 1.0747647 0 1.9502353.87482353 1.9502353 1.94958824 0 .89617647-.7285882 1.6247647-1.6247647 1.6247647-.7525294 0-1.36400002-.61211765-1.36400002-1.364 0-.17858823.14494118-.32352941.32352942-.32352941.1785882 0 .3235294.14494118.3235294.32352941 0 .39535294.3215882.71694118.7169412.71694118.539 0 .9777059-.43870588.9777059-.97770588 0-.71758824-.5849412-1.30252942-1.3031765-1.30252942-.94211765 0-1.70888236.76676471-1.70888236 1.70952942 0 1.22229411.99452946 2.21682352 2.21682356 2.21682352.1785882 0 .3235294.14494118.3235294.32352942 0 .17858823-.1449412.32352941-.3235294.32352941" stroke="#333" stroke-width=".6"/></g></svg>