<svg height="21" viewBox="0 0 21 21" width="21" xmlns="http://www.w3.org/2000/svg"><path d="m10.7758082 12.3483874c-.0468122.0290799-.1020504.0525316-.1558846.0651956-2.11590503.5018641-3.4121311-.6214672-3.87837923-1.7358865-.46671647-1.11441937-.35858035-2.82779235 1.48206983-3.9886458.04587597-.02954927.1011142-.05253167.15447998-.06519565.35858034-.08536368.69235049-.12382442 1.00365077-.12382442 1.52794575 0 2.48899715.93243545 2.87660145 1.85877284.4671843 1.11535748.3590482 2.82919973-1.4825382 3.98958393zm7.7563377-1.2214521-.9367095-.840036c-.0992413-.0891162-.156352-.2162239-.156352-.34942858v-.91789522c0-.13179778.0557061-.25796727.1530754-.34661463l.9254744-.84472575c.437693-.40008442.5781291-1.0365602.3487497-1.58438957l-.4718655-1.12661402c-.2284427-.54736008-.7742713-.89162963-1.3725296-.86067341l-1.2868638.07176206c-.1352866.0093803-.2808722-.04877918-.3763691-.1566569l-.614174-.69229065c-.0809852-.09193008-.1231158-.21059505-.1174984-.33348135l.0566428-1.21150935c.027151-.59332488-.3230033-1.14303003-.8716407-1.36769648l-1.1286389-.46246522c-.5495736-.22419716-1.182941-.07879728-1.5780351.36396875l-.8388718.93947067c-.0884749.0989653-.2153356.1557183-.34828188.1557183h-.91611207c-.13154223 0-.2579345-.05581487-.34594155-.1529044l-.8430851-.92727552c-.39883898-.439014-1.03454668-.57925443-1.58131158-.34989783l-1.12489405.47278413c-.54629655.22982542-.8913014.78234495-.85806517 1.37566982l.06928207 1.25794345c.0074898.13320472-.04213107.26312673-.13622335.35740188l-.64834697.64914022c-.0926877.09333703-.2209529.14774495-.35249465.13695722l-1.25081845-.05862924c-.59030008-.0262656-1.13987365.32363222-1.36457193.87333737l-.46156699 1.13083535c-.22469781.54970515-.07817598 1.18524328.36326195 1.5811059l.93717737.84003607c.09924175.08864688.15588407.21622333.15588407.34942853v.918364c0 .131329-.0557061.2574985-.1530754.3466147l-.92500644.8447262c-.4381609.3996151-.57859703 1.0365602-.3492181 1.5839203l.47186595 1.126614c.22937892.5478289.77520759.8930366 1.37299794.8606734l1.25503123-.0698858c.1394999-.0051594.26355185.0426816.35717625.1364879l.64741075.6491402c.09315605.0928683.1432448.2218521.13669122.3536499l-.0580469 1.2527835c-.02761935.5933254.32253498 1.1430305.87117233 1.367697l1.12863895.4624652c.17226825.0703546.35202677.1041247.53038072.1041247.3922854 0 .77661218-.1641609 1.04812218-.4685623l.83840397-.9385325c.08847493-.0989658.2158039-.1561876.34875023-.1561876h.91611207c.13154173 0 .25793453.0558148.34594103.1529044l.8430851.9272755c.398839.4385447 1.0354829.5792544 1.5813116.3498978l1.1244262-.4727841c.5467649-.2302947.8917697-.7828138.8590014-1.3761391l-.0697504-1.2565361c-.0074898-.1332051.042131-.2640648.1366912-.35834l.6478791-.649609c.0926882-.0928682.2228253-.1468068.3524951-.1364884l1.2498818.05816c.592173.0257967 1.1412782-.3226937 1.3655081-.8728681l.461567-1.1308354c.2242299-.5497051.078176-1.1852432-.3637298-1.5811059zm-.5032297 1.2260486-.4610987 1.1308359c-.0748994.1833913-.2649564.3072157-.4550134.2907992l-1.2503501-.0581599c-.3899446-.0154779-.7798892.1313289-1.0584211.4108722l-.6474108.6491397c-.2822768.2828264-.4311389.6735296-.4091374 1.0731447l.0697499 1.2570048c.0107668.1979316-.1043907.382261-.2864896.4587132l-1.124894.4727842c-.181631.0759829-.3941574.0295488-.5271037-.1163199l-.8426173-.927276c-.2654243-.2917374-.6436658-.4591821-1.03829152-.4591821h-.91611208c-.39883898 0-.7798892.1707279-1.04671808.4685628l-.83887232.9390014c-.1310734.1472761-.34219617.1965246-.52523125.1210105l-1.12863895-.4624652c-.18303507-.0745764-.29959723-.2579677-.29070285-.4558988l.0580469-1.2523152c.01825663-.3944557-.13060553-.7809375-.40960532-1.0604807l-.64787911-.6491397c-.26355185-.2640649-.6221322-.4122792-.99382017-.4122792-.02527855 0-.05149332.0009382-.07723975.0023456l-1.2550317.0698853c-.20784528.0117259-.3815181-.1041247-.4578221-.2865779l-.47186547-1.1266145c-.07630353-.1829225-.02902345-.3949245.11656214-.5281297l.92547433-.8447263c.2911712-.2664099.45829045-.6453877.45829045-1.0398434v-.918364c0-.40055325-.17086415-.78234495-.46812105-1.04875487l-.93670903-.83956678c-.14699017-.13226708-.19614269-.34380025-.12077539-.52719157l.461567-1.13130466c.07443107-.18292249.27431867-.30299442.45454507-.29079975l1.25035057.05862878c.40164718.01594718.77942086-.13179777 1.05795231-.41087167l.64834745-.64913975c.2827447-.28282641.43160732-.67399888.40866909-1.0731447l-.0692816-1.25747415c-.01123517-.19793155.10392241-.38179171.28602173-.45824391l1.1244257-.47278412c.18116262-.07692102.39322115-.0300181.5271037.1163199l.84308557.92727553c.26495595.29173787.64366586.45918249 1.03829158.45918249h.91611207c.39930688 0 .78082498-.17119665 1.04624968-.4685628l.838404-.93900185c.1306056-.14727564.3436003-.19746224.5256996-.12147887l1.128639.46246523c.1835029.07504477.3000651.25796727.2907028.45589882l-.0561744 1.21150887c-.0173204.36865891.108604.72371618.3534309.99997571l.6141745.69229064c.2860217.32316293.7003081.49154568 1.1277022.47043905l1.2868638-.07176204c.2045688-.01266351.3810503.10459404.4578221.28657842l.4713976 1.12708332c.0763036.18245321.0294914.39445568-.1165621.5281297l-.9250065.84425741c-.2911712.26640992-.4587583.64538772-.4587583 1.04031222v.91789522c0 .39961518.1703958.78187568.4681206 1.04828608l.9367095.8400356c.147458.1322671.1961427.3438002.1212433.5271915zm-9.86662593-6.64186463c-.15307539.03611568-.30427835.09990391-.4381609.18386063-2.18565502 1.3789535-2.50210477 3.57824292-1.84626752 5.1457472.54582867 1.3039082 1.87388688 2.4323985 3.751987 2.4323985.37964565 0 .78269745-.0464341 1.20587865-.1468068.1530754-.0361157.3042784-.0994346.4376926-.1833913 2.1879963-1.3789535 2.5049139-3.57871225 1.8486088-5.14715465-.6567735-1.5679731-2.44359-2.88219977-4.95973863-2.28465358z" fill="#545658" stroke="#545658" stroke-width=".5" transform="translate(1 1)"/></svg>