<svg height="17" viewBox="0 0 21 17" width="21" xmlns="http://www.w3.org/2000/svg"><g fill="#333" stroke="#333" transform="translate(1 1)"><path d="m16.7833333 14.7777778h-14.56666663c-1.20333334 0-2.21666667-1.0747475-2.21666667-2.3510101v-8.06060608c0-1.27626263 1.01333333-2.3510101 2.21666667-2.3510101h3.61l1.20333333-1.88080809c.06333333-.06717171.12666667-.13434343.25333333-.13434343h4.43333337c.1266666 0 .19.06717172.2533333.13434343l1.2033333 1.88080809h3.61c1.2033334 0 2.2166667 1.07474747 2.2166667 2.3510101v8.06060608c0 1.2762626-1.0133333 2.3510101-2.2166667 2.3510101zm-14.56666663-12.09090911c-.88666667 0-1.58333334.73888889-1.58333334 1.67929293v8.06060608c0 .9404041.69666667 1.6792929 1.58333334 1.6792929h14.56666663c.8866667 0 1.5833334-.7388888 1.5833334-1.6792929v-8.06060608c0-.94040404-.6966667-1.67929293-1.5833334-1.67929293h-3.8c-.1266666 0-.19-.06717172-.2533333-.13434344l-1.2033333-1.88080808h-4.1166667l-1.20333333 1.88080808c0 .06717172-.06333334.13434344-.19.13434344z"/><path d="m9.5 12.2444187c-2.35238095 0-4.22222222-1.8698413-4.22222222-4.22222224 0-2.35238096 1.86984127-4.22222223 4.22222222-4.22222223 2.3523809 0 4.2222222 1.86984127 4.2222222 4.22222223 0 2.35238094-1.8698413 4.22222224-4.2222222 4.22222224zm0-7.84126986c-1.99047619 0-3.61904762 1.62857142-3.61904762 3.61904762 0 1.99047614 1.62857143 3.61904764 3.61904762 3.61904764 1.9904762 0 3.6190476-1.6285715 3.6190476-3.61904764 0-1.9904762-1.6285714-3.61904762-3.6190476-3.61904762z" stroke-width=".9"/></g></svg>